<?xml version="1.0" standalone="no"?>
<!DOCTYPE svg PUBLIC "-//W3C//DTD SVG 1.1//EN" "http://www.w3.org/Graphics/SVG/1.1/DTD/svg11.dtd" >
<svg xmlns="http://www.w3.org/2000/svg" xmlns:xlink="http://www.w3.org/1999/xlink" version="1.1">
<metadata></metadata>
<defs>
<font id="akrobatregular" horiz-adv-x="0" >
<font-face units-per-em="2048" ascent="1638" descent="-410" />
<missing-glyph horiz-adv-x="468" />
<glyph unicode=" "  horiz-adv-x="468" />
<glyph unicode="&#x09;" horiz-adv-x="468" />
<glyph unicode="&#xa0;" horiz-adv-x="468" />
<glyph unicode="!" horiz-adv-x="450" d="M129 76q0 43 26.5 69.5t69.5 26.5t70 -26.5t27 -69.5t-27 -69.5t-70 -26.5t-69.5 26.5t-26.5 69.5zM164 295v1139h123v-1139h-123z" />
<glyph unicode="&#x22;" horiz-adv-x="460" d="M33 1008l43 426h137l-94 -426h-86zM238 1008l43 426h137l-94 -426h-86z" />
<glyph unicode="#" horiz-adv-x="1157" d="M29 387l24 100h252l101 437h-254l22 100h254l94 410h111l-94 -410h221l94 410h113l-95 -410h256l-22 -100h-256l-100 -437h258l-25 -100h-256l-88 -387h-113l88 387h-221l-88 -387h-110l88 387h-254zM416 487h221l100 437h-221z" />
<glyph unicode="$" horiz-adv-x="923" d="M66 369h127q4 -132 75 -202.5t193 -70.5q127 0 193.5 71.5t66.5 192.5q0 53 -21.5 99t-58.5 81.5t-84.5 68.5t-100.5 63.5t-105.5 62.5t-100 70t-84.5 80.5t-58.5 100t-21.5 124.5q0 136 87 232.5t228 113.5v152h93v-150q150 -12 239.5 -116.5t97.5 -266.5h-126 q-6 130 -71.5 196t-172.5 66q-116 0 -181 -61.5t-65 -165.5q0 -53 21.5 -98.5t58.5 -80.5t84.5 -67t100 -62t105.5 -61.5t100.5 -69.5t84.5 -81t58.5 -102t21.5 -128q0 -96 -39.5 -180t-122 -142t-194.5 -65v-147h-93v151q-151 20 -240.5 125.5t-94.5 266.5z" />
<glyph unicode="%" horiz-adv-x="1159" d="M31 1026v203q0 104 55.5 163.5t142.5 59.5q86 0 141.5 -59.5t55.5 -163.5v-203q0 -104 -55.5 -162.5t-141.5 -58.5q-88 0 -143 58.5t-55 162.5zM53 0l934 1434h119l-934 -1434h-119zM131 1026q0 -125 98 -125q44 0 70.5 30.5t26.5 94.5v203q0 66 -26.5 96.5t-70.5 30.5 q-98 0 -98 -127v-203zM735 203v203q0 104 56 163.5t143 59.5q86 0 141 -59.5t55 -163.5v-203q0 -104 -55 -162.5t-141 -58.5q-88 0 -143.5 58.5t-55.5 162.5zM836 203q0 -125 98 -125q44 0 70 30.5t26 94.5v203q0 126 -96 126q-98 0 -98 -126v-203z" />
<glyph unicode="&#x26;" horiz-adv-x="1171" d="M158 319q0 72 20 137.5t60 123t78.5 100t95.5 94.5q-160 253 -160 404q0 122 75.5 202t211.5 80q98 0 165 -45t95 -112t26 -148q-2 -49 -17.5 -96.5t-36.5 -83.5t-58 -79.5t-64.5 -71t-73.5 -70.5q104 -157 254 -359q46 93 72 180h141q-62 -181 -129 -296 q108 -143 197 -279h-149q-92 135 -119 172q-155 -199 -357 -199q-143 0 -235 93t-92 253zM293 334q0 -104 59 -171t146 -67q137 0 264 185q-33 46 -92.5 126t-105.5 143t-83 118q-90 -86 -139 -164.5t-49 -169.5zM379 1174q0 -102 127 -314q95 86 143.5 153.5t48.5 145.5 q0 76 -43 127t-116 51q-74 0 -117 -46.5t-43 -116.5z" />
<glyph unicode="'" horiz-adv-x="256" d="M33 1008l43 426h137l-94 -426h-86z" />
<glyph unicode="(" horiz-adv-x="563" d="M158 88v1260q0 140 82.5 232t214.5 99v-116q-79 -6 -126.5 -64t-47.5 -151v-1260q0 -93 47.5 -151t126.5 -66v-117q-132 8 -214.5 100.5t-82.5 233.5z" />
<glyph unicode=")" horiz-adv-x="563" d="M109 -129q79 8 126.5 66t47.5 151v1260q0 93 -47.5 151t-126.5 64v116q132 -7 214.5 -99t82.5 -232v-1260q0 -141 -82.5 -233.5t-214.5 -100.5v117z" />
<glyph unicode="*" horiz-adv-x="598" d="M51 1266l27 88l174 -58v183h92v-183l174 56l29 -86l-176 -56l108 -149l-73 -55l-109 149l-107 -147l-75 53l108 149z" />
<glyph unicode="+" horiz-adv-x="905" d="M94 575v115h301v307h115v-307h301v-115h-301v-307h-115v307h-301z" />
<glyph unicode="," horiz-adv-x="303" d="M61 -266l43 426h138l-95 -426h-86z" />
<glyph unicode="-" horiz-adv-x="679" d="M94 469v115h492v-115h-492z" />
<glyph unicode="." horiz-adv-x="372" d="M90 76q0 43 26.5 69.5t69.5 26.5t70 -26.5t27 -69.5t-27 -69.5t-70 -26.5t-69.5 26.5t-26.5 69.5z" />
<glyph unicode="/" horiz-adv-x="831" d="M20 -236l670 1895h121l-670 -1895h-121z" />
<glyph unicode="0" horiz-adv-x="933" d="M119 352v727q0 169 95.5 272t252.5 103t252.5 -103t95.5 -272v-727q0 -167 -95.5 -269.5t-252.5 -102.5t-252.5 102.5t-95.5 269.5zM240 352q0 -120 60 -187t167 -67t167 67t60 187v727q0 121 -60 188.5t-167 67.5t-167 -67.5t-60 -188.5v-727z" />
<glyph unicode="1" horiz-adv-x="569" d="M53 1075v156l236 203h123v-1424h-123v1262z" />
<glyph unicode="2" horiz-adv-x="825" d="M66 0v102q0 99 30.5 191t79 165t107.5 142t118 132.5t107.5 125t79 131.5t30.5 141q0 92 -56.5 150.5t-155.5 58.5q-96 0 -151 -62t-58 -181h-123q9 162 98.5 260t233.5 98q152 0 243.5 -92.5t91.5 -231.5q0 -83 -30.5 -162.5t-79.5 -146t-107.5 -131.5t-117.5 -130.5 t-108 -132t-79.5 -147.5t-30.5 -165h568v-115h-690z" />
<glyph unicode="3" horiz-adv-x="833" d="M37 381h123q6 -154 66 -218.5t161 -64.5q229 0 229 277v102q0 128 -65 191t-182 63h-129v103l305 487h-459v115h616v-88l-325 -510h2q180 0 269 -94.5t89 -266.5v-102q0 -189 -94.5 -292t-253.5 -103q-157 0 -254.5 102.5t-97.5 298.5z" />
<glyph unicode="4" horiz-adv-x="833" d="M23 383v68l331 983h129l-315 -932h364v528h123v-528h174v-119h-174v-383h-123v383h-509z" />
<glyph unicode="5" horiz-adv-x="819" d="M96 340h121q9 -242 209 -242q99 0 148 75.5t49 252.5v141q0 139 -48 206t-153 67q-76 0 -127 -42t-70 -114h-116v750h596v-115h-476v-445q82 82 209 82q143 0 225 -101t82 -286v-143q0 -446 -319 -446q-149 0 -236.5 94t-93.5 266z" />
<glyph unicode="6" horiz-adv-x="880" d="M119 340v764q0 158 94.5 254t241.5 96q135 0 228 -94t103 -246h-122q-6 104 -65 162.5t-144 58.5q-94 0 -153.5 -61t-59.5 -168v-260q89 96 225 96q134 0 231 -98t97 -254v-250q0 -163 -96 -261.5t-240 -98.5q-145 0 -242.5 98.5t-97.5 261.5zM242 340q0 -115 61 -178.5 t156 -63.5q93 0 153 63.5t60 178.5v250q0 109 -64 171t-162 62q-90 0 -147 -62.5t-57 -174.5v-246z" />
<glyph unicode="7" horiz-adv-x="720" d="M0 1317v119h659v-68l-395 -1372h-129l381 1321h-516z" />
<glyph unicode="8" horiz-adv-x="933" d="M102 369v34q0 117 50 206t139 130q-77 42 -120.5 128t-43.5 194v24q0 173 90 271t250 98t250 -98t90 -271v-24q0 -108 -43.5 -194t-120.5 -128q89 -41 138.5 -130t49.5 -206v-34q0 -183 -96 -286t-268 -103t-268.5 103t-96.5 286zM225 369q0 -128 64 -199.5t178 -71.5 t178 71.5t64 199.5v34q0 129 -64 202t-178 73t-178 -73t-64 -202v-34zM250 1061q0 -125 57 -194.5t160 -69.5t160 69.5t57 194.5v24q0 118 -57 184t-160 66t-160 -66t-57 -184v-24z" />
<glyph unicode="9" horiz-adv-x="880" d="M86 844v250q0 163 96 261.5t240 98.5q145 0 242.5 -98.5t97.5 -261.5v-764q0 -158 -94.5 -254t-241.5 -96q-135 0 -228.5 93.5t-103.5 245.5h123q6 -104 65 -162.5t144 -58.5q94 0 153.5 61.5t59.5 168.5v260q-89 -96 -225 -96q-134 0 -231 98t-97 254zM209 844 q0 -109 64 -171.5t161 -62.5q90 0 147.5 63t57.5 175v246q0 114 -61 177.5t-156 63.5q-93 0 -153 -63.5t-60 -177.5v-250z" />
<glyph unicode=":" horiz-adv-x="358" d="M84 76q0 43 26.5 69.5t69.5 26.5t69.5 -26.5t26.5 -69.5t-26.5 -69.5t-69.5 -26.5t-69.5 26.5t-26.5 69.5zM84 786q0 43 26.5 70t69.5 27t69.5 -27t26.5 -70t-26.5 -69.5t-69.5 -26.5t-69.5 26.5t-26.5 69.5z" />
<glyph unicode=";" horiz-adv-x="323" d="M61 -266l43 426h138l-95 -426h-86zM70 786q0 43 26.5 70t69.5 27t69.5 -27t26.5 -70t-26.5 -69.5t-69.5 -26.5t-69.5 26.5t-26.5 69.5z" />
<glyph unicode="&#x3c;" horiz-adv-x="843" d="M94 565v135l656 285v-121l-527 -231l527 -232v-120z" />
<glyph unicode="=" horiz-adv-x="905" d="M94 412v114h717v-114h-717zM94 717v114h717v-114h-717z" />
<glyph unicode="&#x3e;" horiz-adv-x="843" d="M94 281v120l527 232l-527 231v121l656 -285v-135z" />
<glyph unicode="?" horiz-adv-x="765" d="M31 1090q6 167 100 265.5t238 98.5q148 0 243 -97.5t95 -248.5q0 -99 -31 -178.5t-74.5 -133.5t-87.5 -106t-75 -123t-31 -157v-115h-123v129q0 94 31 170.5t74.5 130.5t87.5 106t75 122.5t31 154.5q0 105 -60 168t-155 63t-155 -65t-60 -184h-123zM254 76 q0 43 26.5 69.5t69.5 26.5t69.5 -26.5t26.5 -69.5t-26.5 -69.5t-69.5 -26.5t-69.5 26.5t-26.5 69.5z" />
<glyph unicode="@" horiz-adv-x="1556" d="M109 530v269q0 330 182 515t506 185q312 0 481.5 -171.5t169.5 -504.5v-221q0 -168 -78 -259t-203 -91q-147 -3 -204 104q-63 -123 -207 -123q-113 0 -184.5 79t-71.5 225v221q0 144 69 220.5t185 76.5q129 0 192 -97l12 78h93v-561q0 -57 27 -86.5t89 -30.5 q83 0 126.5 61t43.5 183v221q0 282 -140.5 426t-399.5 144q-273 0 -425.5 -157t-152.5 -437v-269q0 -291 152.5 -455.5t412.5 -164.5q271 0 416 119l55 -95q-170 -131 -469 -131q-314 0 -495.5 192.5t-181.5 534.5zM610 537q0 -99 42.5 -147t119.5 -48t123.5 48.5 t46.5 144.5v223q0 77 -45 133.5t-131 56.5q-156 0 -156 -190v-221z" />
<glyph unicode="A" horiz-adv-x="937" d="M23 0l376 1434h140l376 -1434h-135l-84 336h-454l-84 -336h-135zM270 451h398l-148 593q-30 114 -49 226h-4q-19 -112 -49 -226z" />
<glyph unicode="B" horiz-adv-x="1009" d="M158 0v1434h336q180 0 280 -97.5t100 -275.5q0 -131 -49.5 -212.5t-136.5 -105.5q116 -27 181 -118t65 -234q0 -190 -107.5 -290.5t-300.5 -100.5h-368zM285 119h241q141 0 210 66t69 206q0 137 -81.5 211t-219.5 74h-219v-557zM285 795h213q247 0 247 266 q0 130 -61.5 192t-189.5 62h-209v-520z" />
<glyph unicode="C" horiz-adv-x="983" d="M119 406v622q0 203 105 316.5t278 113.5q176 0 281.5 -108t115.5 -306h-123q-10 150 -80.5 224.5t-193.5 74.5q-120 0 -190 -80t-70 -235v-622q0 -155 72.5 -235.5t195.5 -80.5q248 0 278 299h123q-15 -197 -119.5 -305.5t-281.5 -108.5q-176 0 -283.5 114t-107.5 317z " />
<glyph unicode="D" horiz-adv-x="1024" d="M158 0v1434h321q202 0 314 -110t112 -310v-596q0 -197 -113 -307.5t-313 -110.5h-321zM285 121h194q144 0 221.5 77t77.5 226v584q0 151 -76.5 228t-222.5 77h-194v-1192z" />
<glyph unicode="E" horiz-adv-x="929" d="M158 0v1434h667v-117h-540v-531h506v-116h-506v-553h563v-117h-690z" />
<glyph unicode="F" horiz-adv-x="860" d="M158 0v1434h647v-117h-520v-551h485v-117h-485v-649h-127z" />
<glyph unicode="G" horiz-adv-x="1015" d="M119 414v608q0 209 103.5 320.5t283.5 111.5q176 0 282 -107.5t113 -302.5h-123q-7 146 -78 218.5t-194 72.5q-126 0 -195 -78.5t-69 -236.5v-606q0 -156 74 -236t200 -80q127 0 202 76t75 219v256h-279v115h399v-371q0 -192 -109.5 -302.5t-287.5 -110.5 q-179 0 -288 114t-109 320z" />
<glyph unicode="H" horiz-adv-x="1079" d="M158 0v1434h127v-646h510v646h127v-1434h-127v670h-510v-670h-127z" />
<glyph unicode="I" horiz-adv-x="442" d="M158 0v1434h127v-1434h-127z" />
<glyph unicode="J" horiz-adv-x="507" d="M0 -45q118 0 174.5 64.5t56.5 220.5v1194h127v-1194q0 -406 -358 -406v121z" />
<glyph unicode="K" horiz-adv-x="983" d="M158 0v1434h127v-684l116 168l367 516h158l-457 -625l514 -809h-152l-444 698l-102 -139v-559h-127z" />
<glyph unicode="L" horiz-adv-x="825" d="M158 0v1434h127v-1313h524v-121h-651z" />
<glyph unicode="M" horiz-adv-x="1335" d="M158 0v1434h135l256 -619q46 -113 115 -319h8q75 221 114 319l256 619h136v-1434h-127v758q0 214 12 405l-8 2q-21 -58 -75 -193t-73 -184l-176 -450h-127l-176 450q-15 40 -70.5 179t-76.5 198l-9 -2q13 -206 13 -405v-758h-127z" />
<glyph unicode="N" horiz-adv-x="1105" d="M158 0v1434h131l387 -836q77 -161 155 -354l7 2q-17 295 -17 413v775h127v-1434h-131l-391 842q-72 155 -145 348l-7 -2q11 -300 11 -385v-803h-127z" />
<glyph unicode="O" horiz-adv-x="1060" d="M119 444v545q0 218 109.5 344.5t301.5 126.5q193 0 302.5 -126.5t109.5 -344.5v-545q0 -218 -109.5 -344.5t-302.5 -126.5q-192 0 -301.5 126.5t-109.5 344.5zM248 444q0 -167 72 -257.5t210 -90.5t210.5 90.5t72.5 257.5v545q0 167 -72.5 257.5t-210.5 90.5t-210 -90.5 t-72 -257.5v-545z" />
<glyph unicode="P" horiz-adv-x="983" d="M158 0v1434h344q197 0 303 -115t106 -326q0 -220 -105 -335t-304 -115h-217v-543h-127zM285 664h217q145 0 213.5 79.5t68.5 249.5q0 161 -69 240.5t-213 79.5h-217v-649z" />
<glyph unicode="Q" horiz-adv-x="1062" d="M119 444v545q0 218 109.5 344.5t301.5 126.5q193 0 302.5 -126.5t109.5 -344.5v-545q0 -223 -115 -350l117 -141l-82 -72l-119 146q-91 -54 -213 -54q-192 0 -301.5 126.5t-109.5 344.5zM248 444q0 -167 72 -257.5t210 -90.5q74 0 134 29l-146 176l82 72l148 -178 q65 89 65 249v545q0 167 -72.5 257.5t-210.5 90.5t-210 -90.5t-72 -257.5v-545z" />
<glyph unicode="R" horiz-adv-x="989" d="M158 0v1434h327q197 0 303.5 -110t106.5 -310q0 -186 -83 -302.5t-232 -144.5l352 -567h-148l-342 559h-157v-559h-127zM285 678h198q139 0 211 84.5t72 243.5q0 153 -71.5 231t-209.5 78h-200v-637z" />
<glyph unicode="S" horiz-adv-x="923" d="M66 369h127q4 -132 75 -202.5t193 -70.5q127 0 193.5 71.5t66.5 192.5q0 53 -21.5 99t-58.5 81.5t-84.5 68.5t-100.5 63.5t-105.5 62.5t-100 70t-84.5 80.5t-58.5 100t-21.5 124.5q0 150 103.5 250t267.5 100q166 0 266 -106.5t108 -278.5h-126q-6 130 -71.5 196 t-172.5 66q-116 0 -181 -61.5t-65 -165.5q0 -53 21.5 -98.5t58.5 -80.5t84.5 -67t100 -62t105.5 -61.5t100.5 -69.5t84.5 -81t58.5 -102t21.5 -128q0 -100 -42.5 -186.5t-132 -143.5t-210.5 -57q-178 0 -286 108.5t-113 287.5z" />
<glyph unicode="T" horiz-adv-x="831" d="M37 1315v119h758v-119h-316v-1315h-127v1315h-315z" />
<glyph unicode="U" horiz-adv-x="1052" d="M135 424v1010h127v-1010q0 -160 71 -240t193 -80t193.5 80t71.5 240v1010h127v-1010q0 -212 -107.5 -327t-284.5 -115t-284 114.5t-107 327.5z" />
<glyph unicode="V" horiz-adv-x="921" d="M23 1434h135l215 -897q16 -68 43 -186.5t41 -176.5h8q14 58 41 176.5t43 186.5l215 897h135l-364 -1434h-148z" />
<glyph unicode="W" horiz-adv-x="1458" d="M23 1434h133l180 -885q70 -362 70 -365h8q3 14 29.5 157t43.5 228l172 842h140l172 -842q17 -85 43.5 -228t29.5 -157h9q3 19 69 365l181 885h133l-318 -1434h-141l-174 780q-20 84 -41 222.5t-29 228.5h-8q-8 -90 -29 -228.5t-41 -222.5l-174 -780h-141z" />
<glyph unicode="X" horiz-adv-x="919" d="M41 0l346 745l-328 689h142l260 -572l260 572h141l-327 -689l346 -745h-142l-278 625l-279 -625h-141z" />
<glyph unicode="Y" horiz-adv-x="864" d="M10 1434h135l205 -553q13 -37 40.5 -111t41.5 -111l82 224l205 551h135l-358 -920v-514h-127v514z" />
<glyph unicode="Z" horiz-adv-x="837" d="M41 0v96l569 1219h-542v119h696v-86l-574 -1229h584v-119h-733z" />
<glyph unicode="[" horiz-adv-x="563" d="M158 -246v1925h297v-114h-174v-1696h174v-115h-297z" />
<glyph unicode="\" horiz-adv-x="978" d="M94 1659h121l670 -1895h-121z" />
<glyph unicode="]" horiz-adv-x="563" d="M109 -131h174v1696h-174v114h297v-1925h-297v115z" />
<glyph unicode="^" horiz-adv-x="632" d="M31 979l217 455h137l217 -455h-125l-160 346l-161 -346h-125z" />
<glyph unicode="_" horiz-adv-x="831" d="M47 -18h737v-113h-737v113z" />
<glyph unicode="a" horiz-adv-x="915" d="M78 305q0 155 95.5 238.5t272.5 83.5h213v114q0 118 -54.5 180t-158.5 62q-93 0 -151 -50t-64 -138h-120q6 138 98.5 221.5t241.5 83.5q153 0 241 -96t88 -261v-743h-104l-10 100q-85 -125 -248 -125q-151 0 -245.5 88t-94.5 242zM201 303q0 -103 63.5 -156t171.5 -53 q102 0 162.5 58t60.5 151v211h-217q-118 0 -179.5 -54t-61.5 -157z" />
<glyph unicode="b" horiz-adv-x="946" d="M135 0v1483h119v-504q43 60 109 90.5t141 30.5q158 0 246 -103.5t88 -300.5v-309q0 -198 -91.5 -305t-242.5 -107q-78 0 -144.5 32.5t-109.5 92.5l-17 -100h-98zM254 383q0 -144 62.5 -219.5t160.5 -75.5q238 0 238 299v309q0 152 -59 221.5t-179 69.5q-101 0 -162 -80.5 t-61 -210.5v-313z" />
<glyph unicode="c" horiz-adv-x="884" d="M109 362v355q0 182 93 282.5t251 100.5q161 0 255.5 -100t98.5 -283h-123q-9 264 -231 264q-105 0 -163.5 -66t-58.5 -198v-355q0 -132 58.5 -198t163.5 -66q224 0 233 264h123q-4 -182 -99 -282t-257 -100q-158 0 -251 100t-93 282z" />
<glyph unicode="d" horiz-adv-x="946" d="M109 387v309q0 197 87.5 300.5t245.5 103.5q75 0 141 -30.5t109 -90.5v504h119v-1483h-98l-17 100q-43 -60 -109.5 -92.5t-144.5 -32.5q-151 0 -242 106.5t-91 305.5zM231 387q0 -299 238 -299q98 0 160.5 75.5t62.5 219.5v313q0 130 -61 210.5t-162 80.5 q-120 0 -179 -69.5t-59 -221.5v-309z" />
<glyph unicode="e" horiz-adv-x="921" d="M109 362v355q0 182 94.5 282.5t253.5 100.5q164 0 261 -100.5t97 -282.5v-238h-584v-117q0 -132 60 -198t168 -66q117 0 177.5 56.5t72.5 175.5h120q-12 -169 -108.5 -259.5t-265.5 -90.5q-159 0 -252.5 100t-93.5 282zM231 592h463v125q0 132 -61 198t-174 66 q-108 0 -168 -66t-60 -198v-125z" />
<glyph unicode="f" horiz-adv-x="593" d="M29 965v110h164v90q0 164 83.5 254t237.5 90h57v-110h-57q-201 0 -201 -234v-90h236v-110h-236v-965h-120v965h-164z" />
<glyph unicode="g" horiz-adv-x="948" d="M109 416v276q0 196 93 302t249 106q157 0 245 -133l17 108h100v-1149q0 -145 -93.5 -233t-248.5 -88q-149 0 -241.5 84t-100.5 227h117q7 -96 66 -147.5t159 -51.5q103 0 162 55.5t59 153.5v209q-82 -102 -237 -102q-158 0 -252 101t-94 282zM231 416q0 -134 64 -201.5 t180 -67.5q103 0 160 67.5t57 201.5v297q0 133 -61 202.5t-156 69.5q-244 0 -244 -293v-276z" />
<glyph unicode="h" horiz-adv-x="946" d="M135 0v1475h121v-535q92 160 279 160q288 0 288 -451v-649h-121v639q0 184 -47.5 265t-150.5 81q-114 0 -181 -89.5t-67 -246.5v-649h-121z" />
<glyph unicode="i" horiz-adv-x="391" d="M96 1372q0 44 27.5 71t71.5 27t71 -27t27 -71t-27 -71t-71 -27t-71.5 27t-27.5 71zM135 0v1075h121v-1075h-121z" />
<glyph unicode="j" horiz-adv-x="477" d="M-41 -276q122 3 172.5 65.5t50.5 190.5v1095h121v-1095q0 -176 -84.5 -274t-259.5 -99v117zM145 1370q0 44 27.5 71t71.5 27t71 -27t27 -71t-27 -71t-71 -27t-71.5 27t-27.5 71z" />
<glyph unicode="k" horiz-adv-x="870" d="M135 0v1483h121v-887l408 479h153l-373 -434l426 -641h-145l-363 547l-106 -117v-430h-121z" />
<glyph unicode="l" horiz-adv-x="403" d="M141 0v1481h121v-1481h-121z" />
<glyph unicode="m" horiz-adv-x="1480" d="M135 0v1075h101l18 -139q85 164 268 164q192 0 258 -207q39 97 113.5 152t185.5 55q129 0 204 -104.5t75 -311.5v-684h-121v674q0 164 -46.5 237.5t-137.5 73.5q-110 0 -178 -89.5t-68 -244.5v-651h-121v674q0 163 -48.5 237t-141.5 74q-109 0 -174.5 -89.5t-65.5 -244.5 v-651h-121z" />
<glyph unicode="n" horiz-adv-x="946" d="M135 0v1075h101l20 -133q91 158 279 158q288 0 288 -412v-688h-121v670q0 164 -46.5 239.5t-151.5 75.5q-113 0 -180.5 -89.5t-67.5 -244.5v-651h-121z" />
<glyph unicode="o" horiz-adv-x="933" d="M109 365v346q0 186 97 287.5t261 101.5t261 -101.5t97 -287.5v-346q0 -186 -97 -288t-261 -102t-261 102t-97 288zM231 365q0 -136 62 -203.5t174 -67.5t173.5 67.5t61.5 203.5v346q0 136 -61.5 203t-173.5 67t-174 -67t-62 -203v-346z" />
<glyph unicode="p" horiz-adv-x="946" d="M135 -369v1444h98l17 -100q43 60 109.5 92.5t144.5 32.5q151 0 242.5 -107t91.5 -305v-309q0 -197 -88 -300.5t-246 -103.5q-75 0 -141 30.5t-109 90.5v-465h-119zM254 379q0 -130 61 -210.5t162 -80.5q120 0 179 69.5t59 221.5v309q0 299 -238 299q-98 0 -160.5 -75.5 t-62.5 -219.5v-313z" />
<glyph unicode="q" horiz-adv-x="946" d="M109 379v309q0 199 91 305.5t242 106.5q78 0 144.5 -32.5t109.5 -92.5l17 100h98v-1444h-119v465q-43 -60 -109 -90.5t-141 -30.5q-158 0 -245.5 103.5t-87.5 300.5zM231 379q0 -152 59 -221.5t179 -69.5q101 0 162 80.5t61 210.5v313q0 144 -62.5 219.5t-160.5 75.5 q-238 0 -238 -299v-309z" />
<glyph unicode="r" horiz-adv-x="677" d="M135 0v1075h101l20 -135v-2q92 160 281 160q63 0 108 -11v-131q-64 23 -135 23q-116 0 -185 -87.5t-69 -240.5v-651h-121z" />
<glyph unicode="s" horiz-adv-x="823" d="M63 319h121q0 -106 63 -165.5t173 -59.5q100 0 155.5 48t55.5 134q0 53 -30.5 92.5t-79.5 64.5t-107.5 47t-117.5 48.5t-108 60.5t-79.5 90.5t-30.5 131.5q0 131 88.5 210t234.5 79q151 0 242.5 -90.5t91.5 -239.5h-121q0 100 -56 156.5t-157 56.5q-95 0 -147.5 -46.5 t-52.5 -129.5q0 -45 24 -80t62.5 -56.5t88.5 -43.5t101.5 -40t101.5 -46t88.5 -61t62.5 -86.5t24 -121.5q0 -134 -91.5 -215.5t-242.5 -81.5q-160 0 -258.5 94.5t-98.5 249.5z" />
<glyph unicode="t" horiz-adv-x="608" d="M37 963v112h164v248h121v-248h221v-112h-221v-644q0 -215 184 -215h61v-114h-61q-147 0 -226 86.5t-79 242.5v644h-164z" />
<glyph unicode="u" horiz-adv-x="946" d="M123 387v688h121v-669q0 -164 46.5 -240t151.5 -76q113 0 180.5 89.5t67.5 244.5v651h121v-1075h-100l-21 133q-91 -158 -278 -158q-137 0 -213 99.5t-76 312.5z" />
<glyph unicode="v" horiz-adv-x="774" d="M16 1075h127l170 -629q18 -69 70 -288h8q52 219 70 288l170 629h127l-305 -1075h-131z" />
<glyph unicode="w" horiz-adv-x="1245" d="M16 1075h127l133 -586q9 -37 70 -337h4q35 201 78 378l129 525h131l129 -525q43 -177 78 -378h4q61 300 70 337l133 586h127l-266 -1075h-134l-131 535q-57 228 -73 364h-4q-15 -129 -74 -364l-131 -535h-133z" />
<glyph unicode="x" horiz-adv-x="778" d="M10 0l309 537l-294 538h137l227 -422l227 422h138l-293 -538l307 -537h-141l-238 438l-237 -438h-142z" />
<glyph unicode="y" horiz-adv-x="792" d="M16 1075h129l269 -784l235 784h127l-362 -1206q-39 -131 -95.5 -195.5t-160.5 -64.5h-70v119h53q64 0 96 40t56 119l67 222z" />
<glyph unicode="z" horiz-adv-x="731" d="M33 0v98l483 865h-461v112h607v-96l-484 -866h500v-113h-645z" />
<glyph unicode="{" horiz-adv-x="690" d="M109 664v122q73 17 121.5 68t48.5 137v361q0 141 88 234t215 93v-114q-78 0 -131.5 -59.5t-53.5 -153.5v-361q0 -87 -37.5 -156t-103.5 -110q66 -41 103.5 -110t37.5 -156v-377q0 -94 53.5 -153.5t131.5 -59.5v-115q-127 0 -215 93.5t-88 234.5v377q0 86 -48.5 137 t-121.5 68z" />
<glyph unicode="|" horiz-adv-x="399" d="M141 -174v1802h117v-1802h-117z" />
<glyph unicode="}" horiz-adv-x="690" d="M109 -129q78 0 131 59.5t53 153.5v360q0 88 37.5 157t103.5 110q-66 41 -103.5 110t-37.5 156v377q0 94 -53 153.5t-131 59.5v114q127 0 215 -93t88 -234v-377q0 -86 48.5 -137t121.5 -68v-123q-73 -17 -121.5 -68t-48.5 -137v-360q0 -141 -88 -234.5t-215 -93.5v115z " />
<glyph unicode="~" horiz-adv-x="942" d="M102 621q80 104 187 104q65 0 186 -49t166 -49q79 0 131 75l66 -86q-78 -110 -189 -110q-65 0 -186 49t-166 49q-78 0 -131 -76z" />
<glyph unicode="&#xa1;" horiz-adv-x="450" d="M129 999q0 43 26.5 70t69.5 27t70 -27t27 -70t-27 -69.5t-70 -26.5t-69.5 26.5t-26.5 69.5zM164 -369v1149h123v-1149h-123z" />
<glyph unicode="&#xa2;" horiz-adv-x="872" d="M109 362v345q0 163 74.5 261t205.5 117v136h109v-134q139 -15 219 -114.5t80 -265.5h-123q0 132 -59 198t-166 66q-104 0 -161 -66t-57 -198v-345q0 -132 57 -198t161 -66q107 0 166 66t59 198h123q0 -166 -80 -265.5t-219 -114.5v-134h-109v136q-131 19 -205.5 117 t-74.5 261z" />
<glyph unicode="&#xa3;" horiz-adv-x="964" d="M61 668v114h144v279q0 179 91.5 286t242.5 107q153 0 246.5 -106.5t99.5 -292.5h-123q-6 138 -64.5 211t-158.5 73q-98 0 -154.5 -73.5t-56.5 -204.5v-279h387v-114h-387v-316q0 -146 -70 -229h635v-123h-827v106q139 55 139 234v328h-144z" />
<glyph unicode="&#xa4;" horiz-adv-x="970" d="M84 291l106 127q-43 75 -43 190v123q0 116 43 191l-106 127l78 67l92 -108q40 37 103.5 59.5t127.5 22.5q63 0 127 -22.5t105 -59.5l92 108l78 -67l-107 -125q43 -75 43 -193v-123q0 -117 -43 -192l107 -125l-78 -68l-92 109q-41 -37 -105 -59.5t-127 -22.5 q-64 0 -127.5 22.5t-103.5 59.5l-92 -109zM266 608q0 -117 58 -182.5t161 -65.5t161.5 65.5t58.5 182.5v123q0 117 -58.5 182.5t-161.5 65.5t-161 -65.5t-58 -182.5v-123z" />
<glyph unicode="&#xa5;" horiz-adv-x="864" d="M10 1434h135l205 -553q13 -37 40.5 -111t41.5 -111l82 224l205 551h135l-322 -826h279v-98h-315v-125h315v-98h-315v-287h-127v287h-316v98h316v125h-316v98h279z" />
<glyph unicode="&#xa6;" horiz-adv-x="358" d="M121 -133v590h117v-590h-117zM121 1038v590h117v-590h-117z" />
<glyph unicode="&#xa7;" horiz-adv-x="841" d="M66 729q0 97 50.5 165.5t139.5 96.5q-152 90 -152 242q0 124 86.5 200t223.5 76q145 0 230 -86.5t85 -232.5h-121q0 96 -49.5 149.5t-142.5 53.5q-88 0 -138.5 -44t-50.5 -116q0 -47 30 -84.5t77.5 -63.5t105 -51t115.5 -54.5t105.5 -65t77.5 -91.5t30 -127 q0 -186 -176 -264q145 -88 145 -244q0 -132 -88 -212t-233 -80q-154 0 -248 93t-94 247h121q0 -104 58.5 -163t162.5 -59q94 0 146 46.5t52 129.5q0 46 -23.5 83t-62 60.5t-88 47.5t-100.5 43t-100.5 47.5t-88 61t-62 83t-23.5 113.5zM188 735q0 -73 64 -125.5t201 -99.5 q91 6 141.5 53.5t50.5 116.5q0 44 -18 80t-54 64.5t-73 48t-92 42.5q-90 3 -155 -45t-65 -135z" />
<glyph unicode="&#xa9;" horiz-adv-x="1470" d="M119 631v184q0 305 163 474t455 169q291 0 453 -169t162 -474v-184q0 -311 -162 -483.5t-453 -172.5q-292 0 -455 172.5t-163 483.5zM217 631q0 -268 135 -414.5t385 -146.5q247 0 381.5 146.5t134.5 414.5v184q0 263 -134.5 406t-381.5 143q-250 0 -385 -143t-135 -406 v-184zM467 586v262q0 135 72 211t194 76q120 0 192 -76t72 -211h-104q0 91 -43 137.5t-117 46.5q-76 0 -118 -46t-42 -138v-262q0 -92 42.5 -138.5t117.5 -46.5q76 0 120 47t44 138h107q0 -134 -74.5 -211.5t-196.5 -77.5q-121 0 -193.5 77t-72.5 212z" />
<glyph unicode="&#xab;" horiz-adv-x="888" d="M94 496v61l250 313h123l-272 -344l272 -344h-123zM422 496v61l250 313h123l-273 -344l273 -344h-123z" />
<glyph unicode="&#xac;" horiz-adv-x="942" d="M113 573v115h727v-282h-111v167h-616z" />
<glyph unicode="&#xad;" horiz-adv-x="679" d="M94 469v115h492v-115h-492z" />
<glyph unicode="&#xae;" horiz-adv-x="952" d="M125 975v110q0 175 94.5 274t263.5 99q167 0 262 -99t95 -274v-110q0 -181 -94.5 -282t-262.5 -101q-169 0 -263.5 101t-94.5 282zM182 975q0 -153 80 -239.5t221 -86.5t220 86t79 240v110q0 149 -79 232.5t-220 83.5t-221 -83.5t-80 -232.5v-110zM356 762v520h133 q75 0 116.5 -41t41.5 -115q0 -132 -112 -157l122 -207h-69l-117 203h-53v-203h-62zM418 1026h71q46 0 71.5 25.5t25.5 74.5q0 46 -25.5 70.5t-71.5 24.5h-71v-195z" />
<glyph unicode="&#xb0;" horiz-adv-x="647" d="M70 1198q0 117 70 188.5t184 71.5t184 -71.5t70 -188.5t-70 -188.5t-184 -71.5t-184 71.5t-70 188.5zM164 1198q0 -75 44 -121.5t116 -46.5t115.5 46.5t43.5 121.5t-43.5 121.5t-115.5 46.5t-116 -46.5t-44 -121.5z" />
<glyph unicode="&#xb1;" horiz-adv-x="942" d="M113 139v115h716v-115h-716zM113 649v115h301v307h114v-307h301v-115h-301v-307h-114v307h-301z" />
<glyph unicode="&#xb6;" horiz-adv-x="1167" d="M109 1116q0 146 89.5 232t235.5 86h576v-1627h-125v1508h-326v-1508h-125v992q-146 0 -235.5 85.5t-89.5 231.5z" />
<glyph unicode="&#xb7;" horiz-adv-x="372" d="M90 528q0 43 26.5 70t69.5 27t70 -27t27 -70t-27 -69.5t-70 -26.5t-69.5 26.5t-26.5 69.5z" />
<glyph unicode="&#xbb;" horiz-adv-x="888" d="M94 182l273 344l-273 344h123l250 -313v-61l-250 -314h-123zM422 182l272 344l-272 344h123l250 -313v-61l-250 -314h-123z" />
<glyph unicode="&#xbf;" horiz-adv-x="765" d="M59 -31q0 73 16.5 135t43 106.5t58 85t63.5 79t58.5 79.5t43 95.5t16.5 118.5v114h123v-129q0 -94 -31 -170.5t-74.5 -130.5t-87.5 -106t-75 -122.5t-31 -154.5q0 -105 60 -168t155 -63q94 0 154.5 65.5t60.5 184.5h123q-6 -167 -100 -266t-238 -99q-148 0 -243 97.5 t-95 248.5zM319 1001q0 43 27 70t70 27t69.5 -27t26.5 -70t-26.5 -69.5t-69.5 -26.5t-70 26.5t-27 69.5z" />
<glyph unicode="&#xc0;" horiz-adv-x="937" d="M23 0l376 1434h140l376 -1434h-135l-84 336h-454l-84 -336h-135zM215 1806h147l189 -231h-121zM270 451h398l-148 593q-30 114 -49 226h-4q-19 -112 -49 -226z" />
<glyph unicode="&#xc1;" horiz-adv-x="937" d="M23 0l376 1434h140l376 -1434h-135l-84 336h-454l-84 -336h-135zM270 451h398l-148 593q-30 114 -49 226h-4q-19 -112 -49 -226zM367 1575l188 231h147l-215 -231h-120z" />
<glyph unicode="&#xc2;" horiz-adv-x="937" d="M23 0l376 1434h140l376 -1434h-135l-84 336h-454l-84 -336h-135zM233 1575l166 231h131l166 -231h-114l-117 143l-117 -143h-115zM270 451h398l-148 593q-30 114 -49 226h-4q-19 -112 -49 -226z" />
<glyph unicode="&#xc3;" horiz-adv-x="937" d="M23 0l376 1434h140l376 -1434h-135l-84 336h-454l-84 -336h-135zM244 1634q3 74 40.5 117t98.5 43q36 0 67 -16.5t53.5 -32.5t39.5 -16q41 0 47 59h102q-8 -75 -44 -117.5t-95 -42.5q-35 0 -65.5 16.5t-53.5 33t-41 16.5q-33 0 -39 -60h-110zM270 451h398l-148 593 q-30 114 -49 226h-4q-19 -112 -49 -226z" />
<glyph unicode="&#xc4;" horiz-adv-x="937" d="M23 0l376 1434h140l376 -1434h-135l-84 336h-454l-84 -336h-135zM250 1694q0 37 22.5 58.5t59.5 21.5q36 0 58 -22t22 -58t-22 -58t-58 -22q-37 0 -59.5 21.5t-22.5 58.5zM270 451h398l-148 593q-30 114 -49 226h-4q-19 -112 -49 -226zM514 1694q0 36 23.5 58t60.5 22 t59.5 -21.5t22.5 -58.5t-22.5 -58.5t-59.5 -21.5t-60.5 22t-23.5 58z" />
<glyph unicode="&#xc5;" horiz-adv-x="937" d="M23 0l376 1434h140l376 -1434h-135l-84 336h-454l-84 -336h-135zM270 451h398l-148 593q-30 114 -49 226h-4q-19 -112 -49 -226zM322 1706q0 62 39.5 99.5t103.5 37.5t103.5 -37.5t39.5 -99.5q0 -63 -39.5 -102t-103.5 -39t-103.5 39t-39.5 102zM401 1704 q0 -29 17.5 -46.5t46.5 -17.5q28 0 45.5 17.5t17.5 46.5q0 28 -17.5 45.5t-45.5 17.5q-29 0 -46.5 -17.5t-17.5 -45.5z" />
<glyph unicode="&#xc6;" horiz-adv-x="1433" d="M0 0l633 1434h696v-117h-514v-531h479v-116h-479v-553h537v-117h-664v377h-383l-162 -377h-143zM352 492h336v802h-2l-84 -219z" />
<glyph unicode="&#xc7;" horiz-adv-x="983" d="M119 406v622q0 203 105 316.5t278 113.5q176 0 281.5 -108t115.5 -306h-123q-10 150 -80.5 224.5t-193.5 74.5q-120 0 -190 -80t-70 -235v-622q0 -155 72.5 -235.5t195.5 -80.5q248 0 278 299h123q-13 -186 -108.5 -293.5t-255.5 -118.5l-25 -79q8 2 29 2q59 0 102 -39 t43 -99q0 -75 -52 -118t-136 -43q-74 0 -124 39.5t-56 109.5h100q6 -27 28.5 -42t55.5 -15q38 0 62 18.5t24 52.5q0 70 -80 70q-38 0 -63 -14l-35 33l39 124q-156 18 -248 129.5t-92 299.5z" />
<glyph unicode="&#xc8;" horiz-adv-x="929" d="M158 0v1434h667v-117h-540v-531h506v-116h-506v-553h563v-117h-690zM246 1806h147l189 -231h-121z" />
<glyph unicode="&#xc9;" horiz-adv-x="929" d="M158 0v1434h667v-117h-540v-531h506v-116h-506v-553h563v-117h-690zM332 1575l188 231h148l-215 -231h-121z" />
<glyph unicode="&#xca;" horiz-adv-x="929" d="M158 0v1434h667v-117h-540v-531h506v-116h-506v-553h563v-117h-690zM264 1575l166 231h131l166 -231h-115l-116 143l-117 -143h-115z" />
<glyph unicode="&#xcb;" horiz-adv-x="929" d="M158 0v1434h667v-117h-540v-531h506v-116h-506v-553h563v-117h-690zM281 1694q0 37 22 58.5t59 21.5q36 0 58 -22t22 -58t-22 -58t-58 -22q-37 0 -59 21.5t-22 58.5zM545 1694q0 36 23.5 58t60.5 22t59.5 -21.5t22.5 -58.5t-22.5 -58.5t-59.5 -21.5t-60.5 22t-23.5 58z " />
<glyph unicode="&#xcc;" horiz-adv-x="442" d="M-25 1806h148l188 -231h-121zM158 0v1434h127v-1434h-127z" />
<glyph unicode="&#xcd;" horiz-adv-x="442" d="M127 1575l188 231h148l-215 -231h-121zM158 0v1434h127v-1434h-127z" />
<glyph unicode="&#xce;" horiz-adv-x="442" d="M-6 1575l166 231h131l166 -231h-115l-117 143l-116 -143h-115zM158 0v1434h127v-1434h-127z" />
<glyph unicode="&#xcf;" horiz-adv-x="475" d="M41 1694q0 37 22.5 58.5t59.5 21.5q36 0 58 -22t22 -58t-22 -58t-58 -22q-37 0 -59.5 21.5t-22.5 58.5zM170 0v1434h127v-1434h-127zM268 1694q0 36 23.5 58t60.5 22t59.5 -21.5t22.5 -58.5t-22.5 -58.5t-59.5 -21.5t-60.5 22t-23.5 58z" />
<glyph unicode="&#xd0;" horiz-adv-x="1052" d="M25 670v112h161v652h322q202 0 314 -110t112 -310v-596q0 -197 -113 -307.5t-313 -110.5h-322v670h-161zM313 121h195q144 0 221.5 77t77.5 226v584q0 151 -76.5 228t-222.5 77h-195v-531h203v-112h-203v-549z" />
<glyph unicode="&#xd1;" horiz-adv-x="1105" d="M158 0v1434h131l387 -836q77 -161 155 -354l7 2q-17 295 -17 413v775h127v-1434h-131l-391 842q-72 155 -145 348l-7 -2q11 -300 11 -385v-803h-127zM332 1634q3 74 40.5 117t98.5 43q36 0 67 -16.5t53.5 -32.5t39.5 -16q41 0 47 59h102q-8 -75 -44 -117.5t-95 -42.5 q-35 0 -65.5 16.5t-53.5 33t-41 16.5q-33 0 -39 -60h-110z" />
<glyph unicode="&#xd2;" horiz-adv-x="1060" d="M119 444v545q0 218 109.5 344.5t301.5 126.5q193 0 302.5 -126.5t109.5 -344.5v-545q0 -218 -109.5 -344.5t-302.5 -126.5q-192 0 -301.5 126.5t-109.5 344.5zM248 444q0 -167 72 -257.5t210 -90.5t210.5 90.5t72.5 257.5v545q0 167 -72.5 257.5t-210.5 90.5t-210 -90.5 t-72 -257.5v-545zM281 1806h147l188 -231h-120z" />
<glyph unicode="&#xd3;" horiz-adv-x="1060" d="M119 444v545q0 218 109.5 344.5t301.5 126.5q193 0 302.5 -126.5t109.5 -344.5v-545q0 -218 -109.5 -344.5t-302.5 -126.5q-192 0 -301.5 126.5t-109.5 344.5zM248 444q0 -167 72 -257.5t210 -90.5t210.5 90.5t72.5 257.5v545q0 167 -72.5 257.5t-210.5 90.5t-210 -90.5 t-72 -257.5v-545zM432 1575l189 231h147l-215 -231h-121z" />
<glyph unicode="&#xd4;" horiz-adv-x="1060" d="M119 444v545q0 218 109.5 344.5t301.5 126.5q193 0 302.5 -126.5t109.5 -344.5v-545q0 -218 -109.5 -344.5t-302.5 -126.5q-192 0 -301.5 126.5t-109.5 344.5zM248 444q0 -167 72 -257.5t210 -90.5t210.5 90.5t72.5 257.5v545q0 167 -72.5 257.5t-210.5 90.5t-210 -90.5 t-72 -257.5v-545zM299 1575l166 231h131l166 -231h-115l-117 143l-116 -143h-115z" />
<glyph unicode="&#xd5;" horiz-adv-x="1060" d="M119 444v545q0 218 109.5 344.5t301.5 126.5q193 0 302.5 -126.5t109.5 -344.5v-545q0 -218 -109.5 -344.5t-302.5 -126.5q-192 0 -301.5 126.5t-109.5 344.5zM248 444q0 -167 72 -257.5t210 -90.5t210.5 90.5t72.5 257.5v545q0 167 -72.5 257.5t-210.5 90.5t-210 -90.5 t-72 -257.5v-545zM309 1634q3 74 41 117t99 43q36 0 66.5 -16.5t53 -32.5t39.5 -16q41 0 47 59h103q-8 -75 -44.5 -117.5t-95.5 -42.5q-35 0 -65 16.5t-53 33t-41 16.5q-33 0 -39 -60h-111z" />
<glyph unicode="&#xd6;" horiz-adv-x="1060" d="M119 444v545q0 218 109.5 344.5t301.5 126.5q193 0 302.5 -126.5t109.5 -344.5v-545q0 -218 -109.5 -344.5t-302.5 -126.5q-192 0 -301.5 126.5t-109.5 344.5zM248 444q0 -167 72 -257.5t210 -90.5t210.5 90.5t72.5 257.5v545q0 167 -72.5 257.5t-210.5 90.5t-210 -90.5 t-72 -257.5v-545zM315 1694q0 37 22.5 58.5t59.5 21.5q36 0 58 -22t22 -58t-22 -58t-58 -22q-37 0 -59.5 21.5t-22.5 58.5zM580 1694q0 36 23.5 58t60.5 22t59 -21.5t22 -58.5t-22 -58.5t-59 -21.5t-60.5 22t-23.5 58z" />
<glyph unicode="&#xd7;" horiz-adv-x="919" d="M86 326l293 290l-291 291l78 84l295 -293l293 291l80 -82l-291 -291l291 -290l-80 -82l-293 293l-293 -293z" />
<glyph unicode="&#xd8;" horiz-adv-x="1048" d="M119 446v541q0 218 107.5 344.5t297.5 126.5q98 0 168 -33l41 131h121l-59 -196q135 -126 135 -373v-541q0 -218 -108 -344.5t-298 -126.5q-79 0 -149 25l-37 -123h-121l55 180q-153 125 -153 389zM248 446q0 -163 67 -251l340 1112q-58 28 -131 28q-135 0 -205.5 -90.5 t-70.5 -257.5v-541zM412 119q49 -21 112 -21q135 0 206 90.5t71 257.5v541q0 147 -51 230z" />
<glyph unicode="&#xd9;" horiz-adv-x="1052" d="M135 424v1010h127v-1010q0 -160 71 -240t193 -80t193.5 80t71.5 240v1010h127v-1010q0 -212 -107.5 -327t-284.5 -115t-284 114.5t-107 327.5zM276 1806h148l188 -231h-120z" />
<glyph unicode="&#xda;" horiz-adv-x="1052" d="M135 424v1010h127v-1010q0 -160 71 -240t193 -80t193.5 80t71.5 240v1010h127v-1010q0 -212 -107.5 -327t-284.5 -115t-284 114.5t-107 327.5zM428 1575l188 231h148l-215 -231h-121z" />
<glyph unicode="&#xdb;" horiz-adv-x="1052" d="M135 424v1010h127v-1010q0 -160 71 -240t193 -80t193.5 80t71.5 240v1010h127v-1010q0 -212 -107.5 -327t-284.5 -115t-284 114.5t-107 327.5zM295 1575l166 231h131l166 -231h-115l-117 143l-116 -143h-115z" />
<glyph unicode="&#xdc;" horiz-adv-x="1052" d="M135 424v1010h127v-1010q0 -160 71 -240t193 -80t193.5 80t71.5 240v1010h127v-1010q0 -212 -107.5 -327t-284.5 -115t-284 114.5t-107 327.5zM311 1694q0 37 22.5 58.5t59.5 21.5q36 0 58 -22t22 -58t-22 -58t-58 -22q-37 0 -59.5 21.5t-22.5 58.5zM575 1694 q0 36 23.5 58t60.5 22t59.5 -21.5t22.5 -58.5t-22.5 -58.5t-59.5 -21.5t-60.5 22t-23.5 58z" />
<glyph unicode="&#xdd;" horiz-adv-x="864" d="M10 1434h135l205 -553q13 -37 40.5 -111t41.5 -111l82 224l205 551h135l-358 -920v-514h-127v514zM334 1575l188 231h148l-215 -231h-121z" />
<glyph unicode="&#xde;" horiz-adv-x="958" d="M158 0v1434h127v-250h217q197 0 303 -115t106 -326q0 -220 -105 -335t-304 -115h-217v-293h-127zM285 414h217q145 0 213.5 79.5t68.5 249.5q0 161 -69 240.5t-213 79.5h-217v-649z" />
<glyph unicode="&#xdf;" horiz-adv-x="946" d="M135 0v1053q0 192 86.5 298.5t247.5 106.5q162 0 251 -104.5t89 -284.5q0 -130 -44 -212.5t-120 -106.5q105 -27 166 -119.5t61 -239.5q0 -189 -100 -290t-280 -101h-132v121h132q128 0 189.5 66t61.5 208q0 146 -62.5 216.5t-188.5 70.5h-132v119h97q227 0 227 270 t-217 270q-109 0 -159 -70.5t-50 -217.5v-1053h-123z" />
<glyph unicode="&#xe0;" horiz-adv-x="915" d="M78 305q0 155 95.5 238.5t272.5 83.5h213v114q0 118 -54.5 180t-158.5 62q-93 0 -151 -50t-64 -138h-120q6 138 98.5 221.5t241.5 83.5q153 0 241 -96t88 -261v-743h-104l-10 100q-85 -125 -248 -125q-151 0 -245.5 88t-94.5 242zM201 303q0 -103 63.5 -156t171.5 -53 q102 0 162.5 58t60.5 151v211h-217q-118 0 -179.5 -54t-61.5 -157zM248 1481h143l154 -232h-119z" />
<glyph unicode="&#xe1;" horiz-adv-x="915" d="M78 305q0 155 95.5 238.5t272.5 83.5h213v114q0 118 -54.5 180t-158.5 62q-93 0 -151 -50t-64 -138h-120q6 138 98.5 221.5t241.5 83.5q153 0 241 -96t88 -261v-743h-104l-10 100q-85 -125 -248 -125q-151 0 -245.5 88t-94.5 242zM201 303q0 -103 63.5 -156t171.5 -53 q102 0 162.5 58t60.5 151v211h-217q-118 0 -179.5 -54t-61.5 -157zM338 1249l154 232h143l-178 -232h-119z" />
<glyph unicode="&#xe2;" horiz-adv-x="915" d="M78 305q0 155 95.5 238.5t272.5 83.5h213v114q0 118 -54.5 180t-158.5 62q-93 0 -151 -50t-64 -138h-120q6 138 98.5 221.5t241.5 83.5q153 0 241 -96t88 -261v-743h-104l-10 100q-85 -125 -248 -125q-151 0 -245.5 88t-94.5 242zM201 303q0 -103 63.5 -156t171.5 -53 q102 0 162.5 58t60.5 151v211h-217q-118 0 -179.5 -54t-61.5 -157zM215 1247l166 232h131l166 -232h-115l-117 144l-116 -144h-115z" />
<glyph unicode="&#xe3;" horiz-adv-x="915" d="M78 305q0 155 95.5 238.5t272.5 83.5h213v114q0 118 -54.5 180t-158.5 62q-93 0 -151 -50t-64 -138h-120q6 138 98.5 221.5t241.5 83.5q153 0 241 -96t88 -261v-743h-104l-10 100q-85 -125 -248 -125q-151 0 -245.5 88t-94.5 242zM201 303q0 -103 63.5 -156t171.5 -53 q102 0 162.5 58t60.5 151v211h-217q-118 0 -179.5 -54t-61.5 -157zM221 1286q3 74 40.5 117t98.5 43q36 0 67 -16.5t53.5 -33t39.5 -16.5q41 0 47 60h103q-8 -75 -44.5 -117.5t-95.5 -42.5q-35 0 -65 16.5t-53 33t-41 16.5q-33 0 -39 -60h-111z" />
<glyph unicode="&#xe4;" horiz-adv-x="915" d="M78 305q0 155 95.5 238.5t272.5 83.5h213v114q0 118 -54.5 180t-158.5 62q-93 0 -151 -50t-64 -138h-120q6 138 98.5 221.5t241.5 83.5q153 0 241 -96t88 -261v-743h-104l-10 100q-85 -125 -248 -125q-151 0 -245.5 88t-94.5 242zM201 303q0 -103 63.5 -156t171.5 -53 q102 0 162.5 58t60.5 151v211h-217q-118 0 -179.5 -54t-61.5 -157zM244 1372q0 37 22.5 58.5t59.5 21.5q36 0 58 -22t22 -58t-22 -58t-58 -22q-37 0 -59.5 21.5t-22.5 58.5zM483 1372q0 36 23.5 58t60.5 22t59.5 -21.5t22.5 -58.5t-22.5 -58.5t-59.5 -21.5t-60.5 22 t-23.5 58z" />
<glyph unicode="&#xe5;" horiz-adv-x="915" d="M78 305q0 155 95.5 238.5t272.5 83.5h213v114q0 118 -54.5 180t-158.5 62q-93 0 -151 -50t-64 -138h-120q6 138 98.5 221.5t241.5 83.5q153 0 241 -96t88 -261v-743h-104l-10 100q-85 -125 -248 -125q-151 0 -245.5 88t-94.5 242zM201 303q0 -103 63.5 -156t171.5 -53 q102 0 162.5 58t60.5 151v211h-217q-118 0 -179.5 -54t-61.5 -157zM303 1382q0 62 39.5 100t103.5 38t104 -38t40 -100q0 -63 -40 -102t-104 -39t-103.5 39t-39.5 102zM383 1380q0 -29 17 -46t46 -17q28 0 46 17t18 46q0 28 -18 46t-46 18q-29 0 -46 -18t-17 -46z" />
<glyph unicode="&#xe6;" horiz-adv-x="1404" d="M78 305q0 153 97.5 231t281.5 78h180v148q0 102 -51 160.5t-144 58.5q-95 0 -150 -49t-61 -137h-120q6 139 97.5 222t240.5 83q84 0 149 -39t104 -109q42 71 113 109.5t158 38.5q155 0 245.5 -100.5t90.5 -282.5v-213h-549v-142q0 -132 55.5 -198t157.5 -66q105 0 162 63 t57 189h121q0 -176 -92 -273t-248 -97q-92 0 -164 38t-113 109q-34 -66 -110.5 -105.5t-177.5 -39.5q-147 0 -238.5 88t-91.5 235zM201 303q0 -102 62 -155.5t171 -53.5q95 0 149 56.5t54 148.5v205h-186q-250 0 -250 -201zM760 610h428v107q0 132 -56 198t-159 66 q-102 0 -157.5 -66t-55.5 -198v-107z" />
<glyph unicode="&#xe7;" horiz-adv-x="884" d="M109 362v355q0 182 93 282.5t251 100.5q161 0 255.5 -100t98.5 -283h-123q-9 264 -231 264q-105 0 -163.5 -66t-58.5 -198v-355q0 -132 58.5 -198t163.5 -66q224 0 233 264h123q-4 -173 -90 -272t-234 -108l-24 -84q8 2 28 2q59 0 102.5 -39t43.5 -99q0 -75 -52.5 -118 t-136.5 -43q-74 0 -124 39.5t-56 109.5h101q6 -27 28.5 -42t55.5 -15q38 0 62 18.5t24 52.5q0 70 -80 70q-39 0 -64 -14l-35 33l39 131q-134 18 -211 115.5t-77 262.5z" />
<glyph unicode="&#xe8;" horiz-adv-x="921" d="M109 362v355q0 182 94.5 282.5t253.5 100.5q164 0 261 -100.5t97 -282.5v-238h-584v-117q0 -132 60 -198t168 -66q117 0 177.5 56.5t72.5 175.5h120q-12 -169 -108.5 -259.5t-265.5 -90.5q-159 0 -252.5 100t-93.5 282zM231 592h463v125q0 132 -61 198t-174 66 q-108 0 -168 -66t-60 -198v-125zM258 1470h143l154 -231h-119z" />
<glyph unicode="&#xe9;" horiz-adv-x="921" d="M109 362v355q0 182 94.5 282.5t253.5 100.5q164 0 261 -100.5t97 -282.5v-238h-584v-117q0 -132 60 -198t168 -66q117 0 177.5 56.5t72.5 175.5h120q-12 -169 -108.5 -259.5t-265.5 -90.5q-159 0 -252.5 100t-93.5 282zM231 592h463v125q0 132 -61 198t-174 66 q-108 0 -168 -66t-60 -198v-125zM348 1239l154 231h143l-178 -231h-119z" />
<glyph unicode="&#xea;" horiz-adv-x="921" d="M109 362v355q0 182 94.5 282.5t253.5 100.5q164 0 261 -100.5t97 -282.5v-238h-584v-117q0 -132 60 -198t168 -66q117 0 177.5 56.5t72.5 175.5h120q-12 -169 -108.5 -259.5t-265.5 -90.5q-159 0 -252.5 100t-93.5 282zM225 1237l166 231h131l166 -231h-115l-116 143 l-117 -143h-115zM231 592h463v125q0 132 -61 198t-174 66q-108 0 -168 -66t-60 -198v-125z" />
<glyph unicode="&#xeb;" horiz-adv-x="921" d="M109 362v355q0 182 94.5 282.5t253.5 100.5q164 0 261 -100.5t97 -282.5v-238h-584v-117q0 -132 60 -198t168 -66q117 0 177.5 56.5t72.5 175.5h120q-12 -169 -108.5 -259.5t-265.5 -90.5q-159 0 -252.5 100t-93.5 282zM231 592h463v125q0 132 -61 198t-174 66 q-108 0 -168 -66t-60 -198v-125zM254 1362q0 37 22.5 58.5t59.5 21.5q36 0 58 -22t22 -58t-22 -58t-58 -22q-37 0 -59.5 21.5t-22.5 58.5zM494 1362q0 36 23.5 58t60.5 22t59 -21.5t22 -58.5t-22 -58.5t-59 -21.5t-60.5 22t-23.5 58z" />
<glyph unicode="&#xec;" horiz-adv-x="391" d="M-2 1481h143l154 -232h-119zM135 0v1075h121v-1075h-121z" />
<glyph unicode="&#xed;" horiz-adv-x="391" d="M88 1249l154 232h143l-178 -232h-119zM135 0v1075h121v-1075h-121z" />
<glyph unicode="&#xee;" horiz-adv-x="466" d="M10 1247l158 232h131l158 -232h-113l-111 144l-110 -144h-113zM172 0v1075h121v-1075h-121z" />
<glyph unicode="&#xef;" horiz-adv-x="409" d="M10 1372q0 36 22 57t58 21t57 -21t21 -57t-21 -57t-57 -21t-58 21t-22 57zM143 0v1075h121v-1075h-121zM238 1372q0 36 22 57t59 21q36 0 58 -21t22 -57t-22 -57t-58 -21q-37 0 -59 21t-22 57z" />
<glyph unicode="&#xf0;" horiz-adv-x="915" d="M109 367v299q0 183 89.5 285t231.5 102q166 0 254 -111q-8 170 -123 291l-170 -92l-33 67l144 76q-82 63 -213 105l39 110q165 -41 286 -153l148 79l33 -67l-127 -68q137 -159 137 -379v-544q0 -185 -94.5 -286t-255.5 -101q-159 0 -252.5 101t-93.5 286zM231 367 q0 -135 58.5 -202t165.5 -67q108 0 167.5 67t59.5 202v299q0 134 -60 201t-165 67q-226 0 -226 -268v-299z" />
<glyph unicode="&#xf1;" horiz-adv-x="946" d="M135 0v1075h101l20 -133q91 158 279 158q288 0 288 -412v-688h-121v670q0 164 -46.5 239.5t-151.5 75.5q-113 0 -180.5 -89.5t-67.5 -244.5v-651h-121zM248 1276q3 74 40.5 117t98.5 43q36 0 67 -16.5t53.5 -33t39.5 -16.5q41 0 47 60h102q-8 -75 -44 -117.5t-95 -42.5 q-35 0 -65.5 16.5t-53.5 32.5t-41 16q-33 0 -39 -59h-110z" />
<glyph unicode="&#xf2;" horiz-adv-x="933" d="M109 365v346q0 186 97 287.5t261 101.5t261 -101.5t97 -287.5v-346q0 -186 -97 -288t-261 -102t-261 102t-97 288zM231 365q0 -136 62 -203.5t174 -67.5t173.5 67.5t61.5 203.5v346q0 136 -61.5 203t-173.5 67t-174 -67t-62 -203v-346zM268 1481h144l153 -232h-119z" />
<glyph unicode="&#xf3;" horiz-adv-x="933" d="M109 365v346q0 186 97 287.5t261 101.5t261 -101.5t97 -287.5v-346q0 -186 -97 -288t-261 -102t-261 102t-97 288zM231 365q0 -136 62 -203.5t174 -67.5t173.5 67.5t61.5 203.5v346q0 136 -61.5 203t-173.5 67t-174 -67t-62 -203v-346zM358 1249l154 232h143l-178 -232 h-119z" />
<glyph unicode="&#xf4;" horiz-adv-x="933" d="M109 365v346q0 186 97 287.5t261 101.5t261 -101.5t97 -287.5v-346q0 -186 -97 -288t-261 -102t-261 102t-97 288zM231 365q0 -136 62 -203.5t174 -67.5t173.5 67.5t61.5 203.5v346q0 136 -61.5 203t-173.5 67t-174 -67t-62 -203v-346zM236 1247l165 232h131l166 -232 h-114l-117 144l-117 -144h-114z" />
<glyph unicode="&#xf5;" horiz-adv-x="933" d="M109 365v346q0 186 97 287.5t261 101.5t261 -101.5t97 -287.5v-346q0 -186 -97 -288t-261 -102t-261 102t-97 288zM231 365q0 -136 62 -203.5t174 -67.5t173.5 67.5t61.5 203.5v346q0 136 -61.5 203t-173.5 67t-174 -67t-62 -203v-346zM242 1286q3 74 40.5 117t98.5 43 q36 0 67 -16.5t53.5 -33t39.5 -16.5q41 0 47 60h102q-8 -75 -44 -117.5t-95 -42.5q-35 0 -65.5 16.5t-53.5 33t-41 16.5q-33 0 -39 -60h-110z" />
<glyph unicode="&#xf6;" horiz-adv-x="933" d="M109 365v346q0 186 97 287.5t261 101.5t261 -101.5t97 -287.5v-346q0 -186 -97 -288t-261 -102t-261 102t-97 288zM231 365q0 -136 62 -203.5t174 -67.5t173.5 67.5t61.5 203.5v346q0 136 -61.5 203t-173.5 67t-174 -67t-62 -203v-346zM264 1372q0 37 22.5 58.5 t59.5 21.5q36 0 58 -22t22 -58t-22 -58t-58 -22q-37 0 -59.5 21.5t-22.5 58.5zM504 1372q0 36 23.5 58t60.5 22t59.5 -21.5t22.5 -58.5t-22.5 -58.5t-59.5 -21.5t-60.5 22t-23.5 58z" />
<glyph unicode="&#xf7;" horiz-adv-x="905" d="M94 575v115h717v-115h-717zM358 326q0 40 27.5 67t67.5 27q39 0 66.5 -27.5t27.5 -66.5q0 -38 -28 -66.5t-66 -28.5q-39 0 -67 28t-28 67zM358 924q0 40 27.5 67t67.5 27q39 0 66.5 -27.5t27.5 -66.5q0 -38 -28 -66.5t-66 -28.5q-39 0 -67 28t-28 67z" />
<glyph unicode="&#xf8;" horiz-adv-x="933" d="M109 369v342q0 186 97 287.5t261 101.5q82 0 158 -29l51 127h119l-78 -188q108 -105 108 -299v-342q0 -186 -97 -287.5t-261 -101.5q-86 0 -156 28l-53 -131h-119l78 193q-108 102 -108 299zM231 369q0 -106 39 -170l310 759q-47 23 -113 23q-112 0 -174 -67t-62 -203 v-342zM356 119q50 -21 111 -21q112 0 173.5 67.5t61.5 203.5v342q0 108 -36 170z" />
<glyph unicode="&#xf9;" horiz-adv-x="946" d="M123 387v688h121v-669q0 -164 46.5 -240t151.5 -76q113 0 180.5 89.5t67.5 244.5v651h121v-1075h-100l-21 133q-91 -158 -278 -158q-137 0 -213 99.5t-76 312.5zM272 1470h144l153 -231h-118z" />
<glyph unicode="&#xfa;" horiz-adv-x="946" d="M123 387v688h121v-669q0 -164 46.5 -240t151.5 -76q113 0 180.5 89.5t67.5 244.5v651h121v-1075h-100l-21 133q-91 -158 -278 -158q-137 0 -213 99.5t-76 312.5zM362 1239l154 231h143l-178 -231h-119z" />
<glyph unicode="&#xfb;" horiz-adv-x="946" d="M123 387v688h121v-669q0 -164 46.5 -240t151.5 -76q113 0 180.5 89.5t67.5 244.5v651h121v-1075h-100l-21 133q-91 -158 -278 -158q-137 0 -213 99.5t-76 312.5zM240 1237l166 231h131l165 -231h-114l-117 143l-117 -143h-114z" />
<glyph unicode="&#xfc;" horiz-adv-x="946" d="M123 387v688h121v-669q0 -164 46.5 -240t151.5 -76q113 0 180.5 89.5t67.5 244.5v651h121v-1075h-100l-21 133q-91 -158 -278 -158q-137 0 -213 99.5t-76 312.5zM268 1362q0 37 22.5 58.5t59.5 21.5q36 0 58 -22t22 -58t-22 -58t-58 -22q-37 0 -59.5 21.5t-22.5 58.5z M508 1362q0 36 23.5 58t60.5 22t59.5 -21.5t22.5 -58.5t-22.5 -58.5t-59.5 -21.5t-60.5 22t-23.5 58z" />
<glyph unicode="&#xfd;" horiz-adv-x="792" d="M16 1075h129l269 -784l235 784h127l-362 -1206q-39 -131 -95.5 -195.5t-160.5 -64.5h-70v119h53q64 0 96 40t56 119l67 222zM279 1249l153 232h143l-178 -232h-118z" />
<glyph unicode="&#xfe;" horiz-adv-x="935" d="M135 -369v1844h119v-506q43 60 109 90.5t141 30.5q153 0 238 -103.5t85 -300.5v-266q0 -197 -85 -300.5t-238 -103.5q-75 0 -141 30.5t-109 90.5v-506h-119zM254 420q0 -130 61 -210.5t162 -80.5q116 0 172 69.5t56 221.5v266q0 152 -56 221.5t-172 69.5 q-101 0 -162 -80.5t-61 -210.5v-266z" />
<glyph unicode="&#xff;" horiz-adv-x="792" d="M16 1075h129l269 -784l235 784h127l-362 -1206q-39 -131 -95.5 -195.5t-160.5 -64.5h-70v119h53q64 0 96 40t56 119l67 222zM184 1372q0 37 22.5 58.5t59.5 21.5q36 0 58 -22t22 -58t-22 -58t-58 -22q-37 0 -59.5 21.5t-22.5 58.5zM424 1372q0 36 23.5 58t60.5 22 t59.5 -21.5t22.5 -58.5t-22.5 -58.5t-59.5 -21.5t-60.5 22t-23.5 58z" />
<glyph unicode="&#x100;" horiz-adv-x="937" d="M23 0l376 1434h140l376 -1434h-135l-84 336h-454l-84 -336h-135zM270 451h398l-148 593q-30 114 -49 226h-4q-19 -112 -49 -226zM276 1632v107h377v-107h-377z" />
<glyph unicode="&#x101;" horiz-adv-x="915" d="M78 305q0 155 95.5 238.5t272.5 83.5h213v114q0 118 -54.5 180t-158.5 62q-93 0 -151 -50t-64 -138h-120q6 138 98.5 221.5t241.5 83.5q153 0 241 -96t88 -261v-743h-104l-10 100q-85 -125 -248 -125q-151 0 -245.5 88t-94.5 242zM201 303q0 -103 63.5 -156t171.5 -53 q102 0 162.5 58t60.5 151v211h-217q-118 0 -179.5 -54t-61.5 -157zM258 1309v102h377v-102h-377z" />
<glyph unicode="&#x102;" horiz-adv-x="937" d="M23 0l376 1434h140l376 -1434h-135l-84 336h-454l-84 -336h-135zM233 1806h107q5 -69 34.5 -102t90.5 -33t90.5 33t34.5 102h106q-4 -114 -64.5 -175.5t-166.5 -61.5t-167 61.5t-65 175.5zM270 451h398l-148 593q-30 114 -49 226h-4q-19 -112 -49 -226z" />
<glyph unicode="&#x103;" horiz-adv-x="915" d="M78 305q0 155 95.5 238.5t272.5 83.5h213v114q0 118 -54.5 180t-158.5 62q-93 0 -151 -50t-64 -138h-120q6 138 98.5 221.5t241.5 83.5q153 0 241 -96t88 -261v-743h-104l-10 100q-85 -125 -248 -125q-151 0 -245.5 88t-94.5 242zM201 303q0 -103 63.5 -156t171.5 -53 q102 0 162.5 58t60.5 151v211h-217q-118 0 -179.5 -54t-61.5 -157zM215 1481h107q5 -69 34.5 -102t89.5 -33q61 0 90.5 33t34.5 102h107q-4 -114 -65 -176t-167 -62t-166.5 62t-64.5 176z" />
<glyph unicode="&#x104;" horiz-adv-x="940" d="M23 0l376 1434h140l376 -1434h-22q-51 -44 -85 -102.5t-34 -104.5q0 -38 23 -56t55 -18q45 0 66 7v-107q-34 -12 -84 -12q-89 0 -133 48.5t-44 117.5q0 120 123 227l-84 336h-454l-84 -336h-135zM270 451h398l-148 593q-30 114 -49 226h-4q-19 -112 -49 -226z" />
<glyph unicode="&#x105;" horiz-adv-x="915" d="M78 305q0 155 95.5 238.5t272.5 83.5h213v114q0 118 -54.5 180t-158.5 62q-93 0 -151 -50t-64 -138h-120q6 138 98.5 221.5t241.5 83.5q153 0 241 -96t88 -261v-743q-61 -43 -102 -101.5t-41 -105.5q0 -38 23 -56t55 -18q44 0 65 7v-107q-34 -12 -84 -12 q-89 0 -132.5 48.5t-43.5 117.5q0 117 156 227l-10 100q-85 -125 -248 -125q-151 0 -245.5 88t-94.5 242zM201 303q0 -103 63.5 -156t171.5 -53q102 0 162.5 58t60.5 151v211h-217q-118 0 -179.5 -54t-61.5 -157z" />
<glyph unicode="&#x106;" horiz-adv-x="983" d="M119 406v622q0 203 105 316.5t278 113.5q176 0 281.5 -108t115.5 -306h-123q-10 150 -80.5 224.5t-193.5 74.5q-120 0 -190 -80t-70 -235v-622q0 -155 72.5 -235.5t195.5 -80.5q248 0 278 299h123q-15 -197 -119.5 -305.5t-281.5 -108.5q-176 0 -283.5 114t-107.5 317z M395 1575l189 231h147l-215 -231h-121z" />
<glyph unicode="&#x107;" horiz-adv-x="884" d="M109 362v355q0 182 93 282.5t251 100.5q161 0 255.5 -100t98.5 -283h-123q-9 264 -231 264q-105 0 -163.5 -66t-58.5 -198v-355q0 -132 58.5 -198t163.5 -66q224 0 233 264h123q-4 -182 -99 -282t-257 -100q-158 0 -251 100t-93 282zM340 1249l154 232h143l-178 -232 h-119z" />
<glyph unicode="&#x10a;" horiz-adv-x="983" d="M119 406v622q0 203 105 316.5t278 113.5q176 0 281.5 -108t115.5 -306h-123q-10 150 -80.5 224.5t-193.5 74.5q-120 0 -190 -80t-70 -235v-622q0 -155 72.5 -235.5t195.5 -80.5q248 0 278 299h123q-15 -197 -119.5 -305.5t-281.5 -108.5q-176 0 -283.5 114t-107.5 317z M395 1724q0 44 27.5 71.5t71.5 27.5t71 -27.5t27 -71.5t-27 -71t-71 -27t-71.5 27t-27.5 71z" />
<glyph unicode="&#x10b;" horiz-adv-x="884" d="M109 362v355q0 182 93 282.5t251 100.5q161 0 255.5 -100t98.5 -283h-123q-9 264 -231 264q-105 0 -163.5 -66t-58.5 -198v-355q0 -132 58.5 -198t163.5 -66q224 0 233 264h123q-4 -182 -99 -282t-257 -100q-158 0 -251 100t-93 282zM348 1372q0 44 27 71t71 27t71.5 -27 t27.5 -71t-27.5 -71t-71.5 -27t-71 27t-27 71z" />
<glyph unicode="&#x10c;" horiz-adv-x="983" d="M119 406v622q0 203 105 316.5t278 113.5q176 0 281.5 -108t115.5 -306h-123q-10 150 -80.5 224.5t-193.5 74.5q-120 0 -190 -80t-70 -235v-622q0 -155 72.5 -235.5t195.5 -80.5q248 0 278 299h123q-15 -197 -119.5 -305.5t-281.5 -108.5q-176 0 -283.5 114t-107.5 317z M260 1806h115l117 -143l116 143h115l-166 -231h-131z" />
<glyph unicode="&#x10d;" horiz-adv-x="884" d="M109 362v355q0 182 93 282.5t251 100.5q161 0 255.5 -100t98.5 -283h-123q-9 264 -231 264q-105 0 -163.5 -66t-58.5 -198v-355q0 -132 58.5 -198t163.5 -66q224 0 233 264h123q-4 -182 -99 -282t-257 -100q-158 0 -251 100t-93 282zM217 1481h115l117 -144l116 144h115 l-166 -232h-131z" />
<glyph unicode="&#x10e;" horiz-adv-x="1024" d="M158 0v1434h321q202 0 314 -110t112 -310v-596q0 -197 -113 -307.5t-313 -110.5h-321zM238 1806h114l117 -143l117 143h114l-165 -231h-132zM285 121h194q144 0 221.5 77t77.5 226v584q0 151 -76.5 228t-222.5 77h-194v-1192z" />
<glyph unicode="&#x10f;" horiz-adv-x="997" d="M109 387v309q0 197 87.5 300.5t245.5 103.5q75 0 141 -30.5t109 -90.5v504h119v-1483h-98l-17 100q-43 -60 -109.5 -92.5t-144.5 -32.5q-151 0 -242 106.5t-91 305.5zM231 387q0 -299 238 -299q98 0 160.5 75.5t62.5 219.5v313q0 130 -61 210.5t-162 80.5 q-120 0 -179 -69.5t-59 -221.5v-309zM907 1219l19 346h133l-66 -346h-86z" />
<glyph unicode="&#x110;" horiz-adv-x="1052" d="M25 670v112h161v652h322q202 0 314 -110t112 -310v-596q0 -197 -113 -307.5t-313 -110.5h-322v670h-161zM313 121h195q144 0 221.5 77t77.5 226v584q0 151 -76.5 228t-222.5 77h-195v-531h203v-112h-203v-549z" />
<glyph unicode="&#x111;" horiz-adv-x="952" d="M109 387v309q0 197 87.5 300.5t245.5 103.5q75 0 141 -30.5t109 -90.5v281h-192v94h192v129h119v-129h119v-94h-119v-1260h-98l-17 100q-43 -60 -109.5 -92.5t-144.5 -32.5q-151 0 -242 106.5t-91 305.5zM231 387q0 -299 238 -299q98 0 160.5 75.5t62.5 219.5v313 q0 130 -61 210.5t-162 80.5q-120 0 -179 -69.5t-59 -221.5v-309z" />
<glyph unicode="&#x112;" horiz-adv-x="929" d="M158 0v1434h667v-117h-540v-531h506v-116h-506v-553h563v-117h-690zM307 1632v107h377v-107h-377z" />
<glyph unicode="&#x113;" horiz-adv-x="921" d="M109 362v355q0 182 94.5 282.5t253.5 100.5q164 0 261 -100.5t97 -282.5v-238h-584v-117q0 -132 60 -198t168 -66q117 0 177.5 56.5t72.5 175.5h120q-12 -169 -108.5 -259.5t-265.5 -90.5q-159 0 -252.5 100t-93.5 282zM231 592h463v125q0 132 -61 198t-174 66 q-108 0 -168 -66t-60 -198v-125zM268 1298v103h377v-103h-377z" />
<glyph unicode="&#x116;" horiz-adv-x="929" d="M158 0v1434h667v-117h-540v-531h506v-116h-506v-553h563v-117h-690zM397 1724q0 44 27.5 71.5t71.5 27.5t71 -27.5t27 -71.5t-27 -71t-71 -27t-71.5 27t-27.5 71z" />
<glyph unicode="&#x117;" horiz-adv-x="921" d="M109 362v355q0 182 94.5 282.5t253.5 100.5q164 0 261 -100.5t97 -282.5v-238h-584v-117q0 -132 60 -198t168 -66q117 0 177.5 56.5t72.5 175.5h120q-12 -169 -108.5 -259.5t-265.5 -90.5q-159 0 -252.5 100t-93.5 282zM231 592h463v125q0 132 -61 198t-174 66 q-108 0 -168 -66t-60 -198v-125zM356 1362q0 44 27.5 71t71.5 27t71 -27t27 -71t-27 -71t-71 -27t-71.5 27t-27.5 71z" />
<glyph unicode="&#x118;" horiz-adv-x="946" d="M158 0v1434h667v-117h-540v-531h506v-116h-506v-553h563v-117q-54 -42 -90.5 -98t-36.5 -101q0 -42 23 -62t55 -20q44 0 65 7v-107q-35 -12 -84 -12q-88 0 -132 49.5t-44 118.5q0 117 131 225h-577z" />
<glyph unicode="&#x119;" horiz-adv-x="921" d="M109 362v355q0 181 94 282t256 101t259 -100.5t97 -282.5v-238h-584v-117q0 -264 234 -264q222 0 244 232h120q-7 -68 -22 -114.5t-32 -72t-52 -67.5q-73 -82 -111.5 -145.5t-38.5 -125.5q0 -86 78 -86q45 0 66 7v-107q-34 -12 -84 -12q-89 0 -132.5 48.5t-43.5 121.5 q0 102 92 209v2q-39 -8 -90 -8q-163 0 -256.5 100t-93.5 282zM231 592h463v125q0 131 -61 197.5t-172 66.5q-110 0 -170 -65.5t-60 -198.5v-125z" />
<glyph unicode="&#x11a;" horiz-adv-x="929" d="M158 0v1434h667v-117h-540v-531h506v-116h-506v-553h563v-117h-690zM262 1806h115l117 -143l116 143h115l-166 -231h-131z" />
<glyph unicode="&#x11b;" horiz-adv-x="921" d="M109 362v355q0 182 94.5 282.5t253.5 100.5q164 0 261 -100.5t97 -282.5v-238h-584v-117q0 -132 60 -198t168 -66q117 0 177.5 56.5t72.5 175.5h120q-12 -169 -108.5 -259.5t-265.5 -90.5q-159 0 -252.5 100t-93.5 282zM225 1470h115l117 -143l116 143h115l-166 -231 h-131zM231 592h463v125q0 132 -61 198t-174 66q-108 0 -168 -66t-60 -198v-125z" />
<glyph unicode="&#x11e;" horiz-adv-x="1015" d="M119 414v608q0 209 103.5 320.5t283.5 111.5q176 0 282 -107.5t113 -302.5h-123q-7 146 -78 218.5t-194 72.5q-126 0 -195 -78.5t-69 -236.5v-606q0 -156 74 -236t200 -80q127 0 202 76t75 219v256h-279v115h399v-371q0 -192 -109.5 -302.5t-287.5 -110.5 q-179 0 -288 114t-109 320zM260 1806h107q5 -69 34.5 -102t90.5 -33q60 0 89.5 33t34.5 102h107q-4 -114 -64.5 -175.5t-166.5 -61.5t-167 61.5t-65 175.5z" />
<glyph unicode="&#x11f;" horiz-adv-x="948" d="M109 416v276q0 196 93 302t249 106q157 0 245 -133l17 108h100v-1149q0 -145 -93.5 -233t-248.5 -88q-149 0 -241.5 84t-100.5 227h117q7 -96 66 -147.5t159 -51.5q103 0 162 55.5t59 153.5v209q-82 -102 -237 -102q-158 0 -252 101t-94 282zM231 416q0 -134 64 -201.5 t180 -67.5q103 0 160 67.5t57 201.5v297q0 133 -61 202.5t-156 69.5q-244 0 -244 -293v-276zM233 1481h107q5 -69 34.5 -102t90.5 -33t90.5 33t34.5 102h106q-4 -114 -64.5 -176t-166.5 -62t-167 62t-65 176z" />
<glyph unicode="&#x120;" horiz-adv-x="1015" d="M119 414v608q0 209 103.5 320.5t283.5 111.5q176 0 282 -107.5t113 -302.5h-123q-7 146 -78 218.5t-194 72.5q-126 0 -195 -78.5t-69 -236.5v-606q0 -156 74 -236t200 -80q127 0 202 76t75 219v256h-279v115h399v-371q0 -192 -109.5 -302.5t-287.5 -110.5 q-179 0 -288 114t-109 320zM393 1724q0 44 27.5 71.5t71.5 27.5t71 -27.5t27 -71.5t-27 -71t-71 -27t-71.5 27t-27.5 71z" />
<glyph unicode="&#x121;" horiz-adv-x="948" d="M109 416v276q0 196 93 302t249 106q157 0 245 -133l17 108h100v-1149q0 -145 -93.5 -233t-248.5 -88q-149 0 -241.5 84t-100.5 227h117q7 -96 66 -147.5t159 -51.5q103 0 162 55.5t59 153.5v209q-82 -102 -237 -102q-158 0 -252 101t-94 282zM231 416q0 -134 64 -201.5 t180 -67.5q103 0 160 67.5t57 201.5v297q0 133 -61 202.5t-156 69.5q-244 0 -244 -293v-276zM365 1372q0 44 27 71t71 27t71 -27t27 -71t-27 -71t-71 -27t-71 27t-27 71z" />
<glyph unicode="&#x122;" horiz-adv-x="1015" d="M119 414v608q0 209 103.5 320.5t283.5 111.5q176 0 282 -107.5t113 -302.5h-123q-7 146 -78 218.5t-194 72.5q-126 0 -195 -78.5t-69 -236.5v-606q0 -156 74 -236t200 -80q127 0 202 76t75 219v256h-279v115h399v-371q0 -192 -109.5 -302.5t-287.5 -110.5 q-179 0 -288 114t-109 320zM391 -510l37 369h133l-76 -369h-94z" />
<glyph unicode="&#x123;" horiz-adv-x="948" d="M109 416v276q0 196 93 302t249 106q157 0 245 -133l17 108h100v-1149q0 -145 -93.5 -233t-248.5 -88q-149 0 -241.5 84t-100.5 227h117q7 -96 66 -147.5t159 -51.5q103 0 162 55.5t59 153.5v209q-82 -102 -237 -102q-158 0 -252 101t-94 282zM231 416q0 -134 64 -201.5 t180 -67.5q103 0 160 67.5t57 201.5v297q0 133 -61 202.5t-156 69.5q-244 0 -244 -293v-276zM371 1604h88l86 -363h-137z" />
<glyph unicode="&#x126;" horiz-adv-x="1130" d="M41 1077v94h143v263h127v-263h510v263h127v-263h142v-94h-142v-1077h-127v670h-510v-670h-127v1077h-143zM311 788h510v289h-510v-289z" />
<glyph unicode="&#x127;" horiz-adv-x="942" d="M0 1249v94h131v138h121v-138h199v-94h-199v-309q92 160 278 160q289 0 289 -451v-649h-121v639q0 184 -47.5 265t-150.5 81q-114 0 -181 -89.5t-67 -246.5v-649h-121v1249h-131z" />
<glyph unicode="&#x12a;" horiz-adv-x="442" d="M37 1632v107h377v-107h-377zM158 0v1434h127v-1434h-127z" />
<glyph unicode="&#x12b;" horiz-adv-x="387" d="M14 1305v106h361v-106h-361zM133 0v1075h121v-1075h-121z" />
<glyph unicode="&#x12e;" horiz-adv-x="434" d="M59 -219q0 116 95 219v1434h127v-1434q-44 -42 -74.5 -99.5t-30.5 -99.5q0 -43 25 -62.5t59 -19.5q45 0 66 7v-107q-35 -12 -84 -12q-92 0 -137.5 50.5t-45.5 123.5z" />
<glyph unicode="&#x12f;" horiz-adv-x="385" d="M39 -227q0 118 94 223v1069h121v-1065q-42 -42 -70 -94.5t-28 -95.5q0 -47 22.5 -69t54.5 -22q45 0 66 7v-107q-35 -12 -84 -12q-89 0 -132.5 48.5t-43.5 117.5zM115 1360q0 35 22.5 57.5t57.5 22.5q34 0 56.5 -22.5t22.5 -57.5q0 -33 -23 -56.5t-56 -23.5 q-35 0 -57.5 23t-22.5 57z" />
<glyph unicode="&#x130;" horiz-adv-x="442" d="M127 1724q0 44 27 71.5t71 27.5t71.5 -27.5t27.5 -71.5t-27.5 -71t-71.5 -27t-71 27t-27 71zM158 0v1434h127v-1434h-127z" />
<glyph unicode="&#x131;" horiz-adv-x="391" d="M135 0v1075h121v-1075h-121z" />
<glyph unicode="&#x136;" horiz-adv-x="983" d="M158 0v1434h127v-684l116 168l367 516h158l-457 -625l514 -809h-152l-444 698l-102 -139v-559h-127zM416 -510l37 369h133l-76 -369h-94z" />
<glyph unicode="&#x137;" horiz-adv-x="870" d="M135 0v1483h121v-887l408 479h153l-373 -434l426 -641h-145l-363 547l-106 -117v-430h-121zM371 -510l37 369h133l-76 -369h-94z" />
<glyph unicode="&#x139;" horiz-adv-x="780" d="M145 1575l189 231h147l-215 -231h-121zM158 0v1434h127v-1313h524v-121h-651z" />
<glyph unicode="&#x13a;" horiz-adv-x="403" d="M104 1575l189 231h147l-215 -231h-121zM141 0v1481h121v-1481h-121z" />
<glyph unicode="&#x13b;" horiz-adv-x="825" d="M158 0v1434h127v-1313h524v-121h-651zM328 -510l37 369h133l-76 -369h-94z" />
<glyph unicode="&#x13c;" horiz-adv-x="452" d="M141 -510l37 369h133l-75 -369h-95zM154 0v1481h120v-1481h-120z" />
<glyph unicode="&#x13d;" horiz-adv-x="790" d="M158 0v1434h127v-1317h489v-117h-616zM502 1077l18 357h133l-65 -357h-86z" />
<glyph unicode="&#x13e;" horiz-adv-x="448" d="M141 0v1481h121v-1481h-121zM358 1206l19 357h133l-66 -357h-86z" />
<glyph unicode="&#x141;" horiz-adv-x="847" d="M49 590v121l166 63v660h127v-611l268 103v-121l-268 -103v-585h489v-117h-616v653z" />
<glyph unicode="&#x142;" horiz-adv-x="479" d="M27 696v115l147 51v613h121v-572l158 55v-114l-158 -56v-788h-121v748z" />
<glyph unicode="&#x143;" horiz-adv-x="1105" d="M158 0v1434h131l387 -836q77 -161 155 -354l7 2q-17 295 -17 413v775h127v-1434h-131l-391 842q-72 155 -145 348l-7 -2q11 -300 11 -385v-803h-127zM455 1575l188 231h148l-216 -231h-120z" />
<glyph unicode="&#x144;" horiz-adv-x="946" d="M135 0v1075h101l20 -133q91 158 279 158q288 0 288 -412v-688h-121v670q0 164 -46.5 239.5t-151.5 75.5q-113 0 -180.5 -89.5t-67.5 -244.5v-651h-121zM365 1239l153 231h144l-179 -231h-118z" />
<glyph unicode="&#x145;" horiz-adv-x="1105" d="M158 0v1434h131l387 -836q77 -161 155 -354l7 2q-17 295 -17 413v775h127v-1434h-131l-391 842q-72 155 -145 348l-7 -2q11 -300 11 -385v-803h-127zM453 -510l36 369h134l-76 -369h-94z" />
<glyph unicode="&#x146;" horiz-adv-x="946" d="M135 0v1075h101l20 -133q91 158 279 158q288 0 288 -412v-688h-121v670q0 164 -46.5 239.5t-151.5 75.5q-113 0 -180.5 -89.5t-67.5 -244.5v-651h-121zM399 -510l37 369h133l-75 -369h-95z" />
<glyph unicode="&#x147;" horiz-adv-x="1105" d="M158 0v1434h131l387 -836q77 -161 155 -354l7 2q-17 295 -17 413v775h127v-1434h-131l-391 842q-72 155 -145 348l-7 -2q11 -300 11 -385v-803h-127zM319 1806h115l117 -143l117 143h114l-166 -231h-131z" />
<glyph unicode="&#x148;" horiz-adv-x="946" d="M135 0v1075h101l20 -133q91 158 279 158q288 0 288 -412v-688h-121v670q0 164 -46.5 239.5t-151.5 75.5q-113 0 -180.5 -89.5t-67.5 -244.5v-651h-121zM242 1470h114l117 -143l117 143h115l-166 -231h-131z" />
<glyph unicode="&#x14a;" horiz-adv-x="1105" d="M158 0v1434h131l399 -852q94 -221 150 -371l6 2q-23 255 -23 436v785h127v-1495q0 -154 -86 -242.5t-258 -89.5v117q119 3 171 56.5t52 158.5v45l-409 874q-61 130 -137 332l-7 -2q11 -300 11 -385v-803h-127z" />
<glyph unicode="&#x14b;" horiz-adv-x="946" d="M135 0v1075h101l20 -133q91 158 279 158q142 0 215 -98.5t73 -313.5v-776q0 -154 -86 -242.5t-258 -89.5v117q119 3 171 56.5t52 158.5v758q0 164 -46.5 239.5t-151.5 75.5q-113 0 -180.5 -89.5t-67.5 -244.5v-651h-121z" />
<glyph unicode="&#x14c;" horiz-adv-x="1060" d="M119 444v545q0 218 109.5 344.5t301.5 126.5q193 0 302.5 -126.5t109.5 -344.5v-545q0 -218 -109.5 -344.5t-302.5 -126.5q-192 0 -301.5 126.5t-109.5 344.5zM248 444q0 -167 72 -257.5t210 -90.5t210.5 90.5t72.5 257.5v545q0 167 -72.5 257.5t-210.5 90.5t-210 -90.5 t-72 -257.5v-545zM342 1632v107h377v-107h-377z" />
<glyph unicode="&#x14d;" horiz-adv-x="933" d="M109 365v346q0 186 97 287.5t261 101.5t261 -101.5t97 -287.5v-346q0 -186 -97 -288t-261 -102t-261 102t-97 288zM231 365q0 -136 62 -203.5t174 -67.5t173.5 67.5t61.5 203.5v346q0 136 -61.5 203t-173.5 67t-174 -67t-62 -203v-346zM279 1309v102h376v-102h-376z" />
<glyph unicode="&#x150;" horiz-adv-x="1060" d="M119 444v545q0 218 109.5 344.5t301.5 126.5q193 0 302.5 -126.5t109.5 -344.5v-545q0 -218 -109.5 -344.5t-302.5 -126.5q-192 0 -301.5 126.5t-109.5 344.5zM248 444q0 -167 72 -257.5t210 -90.5t210.5 90.5t72.5 257.5v545q0 167 -72.5 257.5t-210.5 90.5t-210 -90.5 t-72 -257.5v-545zM338 1575l139 231h137l-168 -231h-108zM539 1575l147 231h137l-176 -231h-108z" />
<glyph unicode="&#x151;" horiz-adv-x="933" d="M109 365v346q0 186 97 287.5t261 101.5t261 -101.5t97 -287.5v-346q0 -186 -97 -288t-261 -102t-261 102t-97 288zM231 365q0 -136 62 -203.5t174 -67.5t173.5 67.5t61.5 203.5v346q0 136 -61.5 203t-173.5 67t-174 -67t-62 -203v-346zM268 1249l140 232h137l-168 -232 h-109zM469 1249l147 232h138l-176 -232h-109z" />
<glyph unicode="&#x152;" horiz-adv-x="1587" d="M119 444v545q0 218 109.5 344.5t301.5 126.5q179 0 285 -137v111h668v-117h-541v-531h506v-116h-506v-553h563v-117h-690v111q-107 -138 -285 -138q-192 0 -301.5 126.5t-109.5 344.5zM248 444q0 -167 72 -257.5t210 -90.5t210.5 90.5t72.5 257.5v545q0 167 -72.5 257.5 t-210.5 90.5t-210 -90.5t-72 -257.5v-545z" />
<glyph unicode="&#x153;" horiz-adv-x="1466" d="M109 367v335q0 185 94.5 286.5t255.5 101.5q96 0 170 -45t116 -132q41 85 115 131t168 46q159 0 252.5 -100.5t93.5 -282.5v-218h-567v-127q0 -132 58 -198t163 -66q108 0 166.5 63t58.5 189h121q0 -176 -93.5 -273t-252.5 -97q-94 0 -168 46t-115 130 q-42 -87 -116 -131.5t-170 -44.5q-161 0 -255.5 101t-94.5 286zM231 367q0 -135 59.5 -202t168.5 -67q107 0 166 67t59 202v335q0 135 -59 202t-166 67q-109 0 -168.5 -67t-59.5 -202v-335zM807 596h446v111q0 132 -58.5 198t-166.5 66q-105 0 -163 -66t-58 -198v-111z" />
<glyph unicode="&#x154;" horiz-adv-x="989" d="M158 0v1434h327q197 0 303.5 -110t106.5 -310q0 -186 -83 -302.5t-232 -144.5l352 -567h-148l-342 559h-157v-559h-127zM285 678h198q139 0 211 84.5t72 243.5q0 153 -71.5 231t-209.5 78h-200v-637zM387 1575l188 231h148l-215 -231h-121z" />
<glyph unicode="&#x155;" horiz-adv-x="677" d="M135 0v1075h101l20 -135v-2q92 160 281 160q63 0 108 -11v-131q-64 23 -135 23q-116 0 -185 -87.5t-69 -240.5v-651h-121zM270 1249l154 232h143l-178 -232h-119z" />
<glyph unicode="&#x156;" horiz-adv-x="989" d="M158 0v1434h327q197 0 303.5 -110t106.5 -310q0 -186 -83 -302.5t-232 -144.5l352 -567h-148l-342 559h-157v-559h-127zM285 678h198q139 0 211 84.5t72 243.5q0 153 -71.5 231t-209.5 78h-200v-637zM387 -510l37 369h133l-76 -369h-94z" />
<glyph unicode="&#x157;" horiz-adv-x="677" d="M135 0v1075h101l20 -135v-2q92 160 281 160q63 0 108 -11v-131q-64 23 -135 23q-116 0 -185 -87.5t-69 -240.5v-651h-121zM143 -510l37 369h133l-75 -369h-95z" />
<glyph unicode="&#x158;" horiz-adv-x="989" d="M158 0v1434h327q197 0 303.5 -110t106.5 -310q0 -186 -83 -302.5t-232 -144.5l352 -567h-148l-342 559h-157v-559h-127zM252 1806h115l116 -143l117 143h115l-166 -231h-131zM285 678h198q139 0 211 84.5t72 243.5q0 153 -71.5 231t-209.5 78h-200v-637z" />
<glyph unicode="&#x159;" horiz-adv-x="677" d="M135 0v1075h101l20 -135v-2q92 160 281 160q63 0 108 -11v-131q-64 23 -135 23q-116 0 -185 -87.5t-69 -240.5v-651h-121zM147 1481h115l117 -144l117 144h114l-166 -232h-131z" />
<glyph unicode="&#x15a;" horiz-adv-x="923" d="M66 369h127q4 -132 75 -202.5t193 -70.5q127 0 193.5 71.5t66.5 192.5q0 53 -21.5 99t-58.5 81.5t-84.5 68.5t-100.5 63.5t-105.5 62.5t-100 70t-84.5 80.5t-58.5 100t-21.5 124.5q0 150 103.5 250t267.5 100q166 0 266 -106.5t108 -278.5h-126q-6 130 -71.5 196 t-172.5 66q-116 0 -181 -61.5t-65 -165.5q0 -53 21.5 -98.5t58.5 -80.5t84.5 -67t100 -62t105.5 -61.5t100.5 -69.5t84.5 -81t58.5 -102t21.5 -128q0 -100 -42.5 -186.5t-132 -143.5t-210.5 -57q-178 0 -286 108.5t-113 287.5zM367 1575l188 231h147l-215 -231h-120z" />
<glyph unicode="&#x15b;" horiz-adv-x="823" d="M63 319h121q0 -106 63 -165.5t173 -59.5q100 0 155.5 48t55.5 134q0 53 -30.5 92.5t-79.5 64.5t-107.5 47t-117.5 48.5t-108 60.5t-79.5 90.5t-30.5 131.5q0 131 88.5 210t234.5 79q151 0 242.5 -90.5t91.5 -239.5h-121q0 100 -56 156.5t-157 56.5q-95 0 -147.5 -46.5 t-52.5 -129.5q0 -45 24 -80t62.5 -56.5t88.5 -43.5t101.5 -40t101.5 -46t88.5 -61t62.5 -86.5t24 -121.5q0 -134 -91.5 -215.5t-242.5 -81.5q-160 0 -258.5 94.5t-98.5 249.5zM299 1249l154 232h143l-178 -232h-119z" />
<glyph unicode="&#x15e;" horiz-adv-x="923" d="M66 369h127q4 -132 75 -202.5t193 -70.5q127 0 193.5 71.5t66.5 192.5q0 53 -21.5 99t-58.5 81.5t-84.5 68.5t-100.5 63.5t-105.5 62.5t-100 70t-84.5 80.5t-58.5 100t-21.5 124.5q0 150 103.5 250t267.5 100q166 0 266 -106.5t108 -278.5h-126q-6 130 -71.5 196 t-172.5 66q-116 0 -181 -61.5t-65 -165.5q0 -53 21.5 -98.5t58.5 -80.5t84.5 -67t100 -62t105.5 -61.5t100.5 -69.5t84.5 -81t58.5 -102t21.5 -128q0 -70 -23 -135.5t-65.5 -119.5t-110.5 -89t-151 -41l-23 -77q8 2 29 2q59 0 102 -39t43 -99q0 -75 -52 -118t-136 -43 q-74 0 -124 39.5t-56 109.5h100q6 -27 28.5 -42t55.5 -15q38 0 62 18.5t24 52.5q0 70 -80 70q-39 0 -63 -14l-35 33l37 122q-155 17 -248 123.5t-98 270.5z" />
<glyph unicode="&#x15f;" horiz-adv-x="823" d="M63 319h121q0 -106 63 -165.5t173 -59.5q100 0 155.5 48t55.5 134q0 53 -30.5 92.5t-79.5 64.5t-107.5 47t-117.5 48.5t-108 60.5t-79.5 90.5t-30.5 131.5q0 131 88.5 210t234.5 79q151 0 242.5 -90.5t91.5 -239.5h-121q0 100 -56 156.5t-157 56.5q-95 0 -147.5 -46.5 t-52.5 -129.5q0 -45 24 -80t62.5 -56.5t88.5 -43.5t101.5 -40t101.5 -46t88.5 -61t62.5 -86.5t24 -121.5q0 -128 -85 -208.5t-227 -88.5l-22 -77q8 2 29 2q59 0 102 -39t43 -99q0 -75 -52 -118t-136 -43q-74 0 -124.5 39.5t-56.5 109.5h101q6 -27 28.5 -42t55.5 -15 q38 0 62 18.5t24 52.5q0 70 -80 70q-40 0 -64 -14l-35 33l39 127q-134 19 -213.5 109.5t-79.5 229.5z" />
<glyph unicode="&#x160;" horiz-adv-x="923" d="M66 369h127q4 -132 75 -202.5t193 -70.5q127 0 193.5 71.5t66.5 192.5q0 53 -21.5 99t-58.5 81.5t-84.5 68.5t-100.5 63.5t-105.5 62.5t-100 70t-84.5 80.5t-58.5 100t-21.5 124.5q0 150 103.5 250t267.5 100q166 0 266 -106.5t108 -278.5h-126q-6 130 -71.5 196 t-172.5 66q-116 0 -181 -61.5t-65 -165.5q0 -53 21.5 -98.5t58.5 -80.5t84.5 -67t100 -62t105.5 -61.5t100.5 -69.5t84.5 -81t58.5 -102t21.5 -128q0 -100 -42.5 -186.5t-132 -143.5t-210.5 -57q-178 0 -286 108.5t-113 287.5zM231 1806h115l117 -143l117 143h114l-166 -231 h-131z" />
<glyph unicode="&#x161;" horiz-adv-x="823" d="M63 319h121q0 -106 63 -165.5t173 -59.5q100 0 155.5 48t55.5 134q0 53 -30.5 92.5t-79.5 64.5t-107.5 47t-117.5 48.5t-108 60.5t-79.5 90.5t-30.5 131.5q0 131 88.5 210t234.5 79q151 0 242.5 -90.5t91.5 -239.5h-121q0 100 -56 156.5t-157 56.5q-95 0 -147.5 -46.5 t-52.5 -129.5q0 -45 24 -80t62.5 -56.5t88.5 -43.5t101.5 -40t101.5 -46t88.5 -61t62.5 -86.5t24 -121.5q0 -134 -91.5 -215.5t-242.5 -81.5q-160 0 -258.5 94.5t-98.5 249.5zM176 1481h115l117 -144l116 144h115l-166 -232h-131z" />
<glyph unicode="&#x162;" horiz-adv-x="831" d="M37 1315v119h758v-119h-316v-1315h-127v1315h-315zM317 -510l37 369h133l-75 -369h-95z" />
<glyph unicode="&#x163;" horiz-adv-x="608" d="M37 963v112h164v248h121v-248h221v-112h-221v-644q0 -215 184 -215h61v-114h-61q-147 0 -226 86.5t-79 242.5v644h-164zM254 -510l37 369h133l-76 -369h-94z" />
<glyph unicode="&#x164;" horiz-adv-x="831" d="M37 1315v119h758v-119h-316v-1315h-127v1315h-315zM182 1806h115l117 -143l116 143h115l-166 -231h-131z" />
<glyph unicode="&#x165;" horiz-adv-x="620" d="M37 963v112h164v248h121v-248h221v-112h-221v-644q0 -215 184 -215h61v-114h-61q-147 0 -226 86.5t-79 242.5v644h-164zM428 1208l18 357h134l-66 -357h-86z" />
<glyph unicode="&#x166;" horiz-adv-x="831" d="M37 1315v119h758v-119h-316v-531h172v-94h-172v-690h-127v690h-172v94h172v531h-315z" />
<glyph unicode="&#x167;" horiz-adv-x="608" d="M37 963v112h164v248h121v-248h221v-112h-221v-312h170v-94h-170v-238q0 -215 184 -215h61v-114h-61q-147 0 -226 86.5t-79 242.5v238h-127v94h127v312h-164z" />
<glyph unicode="&#x16a;" horiz-adv-x="1052" d="M135 424v1010h127v-1010q0 -160 71 -240t193 -80t193.5 80t71.5 240v1010h127v-1010q0 -212 -107.5 -327t-284.5 -115t-284 114.5t-107 327.5zM338 1632v107h377v-107h-377z" />
<glyph unicode="&#x16b;" horiz-adv-x="946" d="M123 387v688h121v-669q0 -164 46.5 -240t151.5 -76q113 0 180.5 89.5t67.5 244.5v651h121v-1075h-100l-21 133q-91 -158 -278 -158q-137 0 -213 99.5t-76 312.5zM283 1298v103h376v-103h-376z" />
<glyph unicode="&#x16e;" horiz-adv-x="1052" d="M135 424v1010h127v-1010q0 -160 71 -240t193 -80t193.5 80t71.5 240v1010h127v-1010q0 -212 -107.5 -327t-284.5 -115t-284 114.5t-107 327.5zM383 1706q0 62 39.5 99.5t103.5 37.5q65 0 104.5 -38t39.5 -99q0 -63 -40 -102t-104 -39t-103.5 39t-39.5 102zM463 1704 q0 -29 17 -46.5t46 -17.5q28 0 46 17.5t18 46.5q0 28 -18 45.5t-46 17.5q-29 0 -46 -17.5t-17 -45.5z" />
<glyph unicode="&#x16f;" horiz-adv-x="946" d="M123 387v688h121v-669q0 -164 46.5 -240t151.5 -76q113 0 180.5 89.5t67.5 244.5v651h121v-1075h-100l-21 133q-91 -158 -278 -158q-137 0 -213 99.5t-76 312.5zM328 1372q0 62 39.5 99.5t103.5 37.5t103.5 -37.5t39.5 -99.5q0 -63 -39.5 -102t-103.5 -39t-103.5 39 t-39.5 102zM408 1370q0 -29 17 -46t46 -17q28 0 46 17t18 46q0 28 -18 46t-46 18q-29 0 -46 -18t-17 -46z" />
<glyph unicode="&#x170;" horiz-adv-x="1052" d="M135 424v1010h127v-1010q0 -160 71 -240t193 -80t193.5 80t71.5 240v1010h127v-1010q0 -212 -107.5 -327t-284.5 -115t-284 114.5t-107 327.5zM334 1575l139 231h137l-168 -231h-108zM535 1575l147 231h137l-176 -231h-108z" />
<glyph unicode="&#x171;" horiz-adv-x="946" d="M123 387v688h121v-669q0 -164 46.5 -240t151.5 -76q113 0 180.5 89.5t67.5 244.5v651h121v-1075h-100l-21 133q-91 -158 -278 -158q-137 0 -213 99.5t-76 312.5zM272 1239l140 231h137l-168 -231h-109zM473 1239l148 231h137l-176 -231h-109z" />
<glyph unicode="&#x172;" horiz-adv-x="1040" d="M135 403v1031h127v-1031q0 -146 70 -222.5t188 -76.5t188 76.5t70 222.5v1031h127v-1031q0 -87 -19.5 -153.5t-41.5 -98t-56 -65.5q-83 -85 -130.5 -155t-47.5 -132q0 -80 78 -80q45 0 66 7v-107q-34 -12 -84 -12q-89 0 -132.5 49t-43.5 119q0 125 143 243l-2 2 q-51 -38 -113 -38q-174 0 -280.5 111.5t-106.5 309.5z" />
<glyph unicode="&#x173;" horiz-adv-x="946" d="M123 387v688h121v-669q0 -163 46.5 -239.5t149.5 -76.5q116 0 183 89t67 245v651h121v-1075q-57 -44 -95 -102t-38 -107q0 -72 80 -72q23 0 51 7v-107q-30 -12 -78 -12q-86 0 -128 48t-42 116q0 121 150 229l-21 133q-92 -158 -276 -158q-291 0 -291 412z" />
<glyph unicode="&#x174;" horiz-adv-x="1458" d="M23 1434h133l180 -885q70 -362 70 -365h8q3 14 29.5 157t43.5 228l172 842h140l172 -842q17 -85 43.5 -228t29.5 -157h9q3 19 69 365l181 885h133l-318 -1434h-141l-174 780q-20 84 -41 222.5t-29 228.5h-8q-8 -90 -29 -228.5t-41 -222.5l-174 -780h-141zM498 1575 l166 231h131l166 -231h-115l-117 143l-117 -143h-114z" />
<glyph unicode="&#x175;" horiz-adv-x="1245" d="M16 1075h127l133 -586q9 -37 70 -337h4q35 201 78 378l129 525h131l129 -525q43 -177 78 -378h4q61 300 70 337l133 586h127l-266 -1075h-134l-131 535q-57 228 -73 364h-4q-15 -129 -74 -364l-131 -535h-133zM385 1237l166 231h131l166 -231h-115l-117 143l-116 -143 h-115z" />
<glyph unicode="&#x176;" horiz-adv-x="864" d="M10 1434h135l205 -553q13 -37 40.5 -111t41.5 -111l82 224l205 551h135l-358 -920v-514h-127v514zM201 1575l166 231h131l166 -231h-115l-117 143l-117 -143h-114z" />
<glyph unicode="&#x177;" horiz-adv-x="792" d="M16 1075h129l269 -784l235 784h127l-362 -1206q-39 -131 -95.5 -195.5t-160.5 -64.5h-70v119h53q64 0 96 40t56 119l67 222zM156 1247l166 232h131l165 -232h-114l-117 144l-117 -144h-114z" />
<glyph unicode="&#x178;" horiz-adv-x="864" d="M10 1434h135l205 -553q13 -37 40.5 -111t41.5 -111l82 224l205 551h135l-358 -920v-514h-127v514zM217 1694q0 37 22.5 58.5t59.5 21.5q36 0 58 -22t22 -58t-22 -58t-58 -22q-37 0 -59.5 21.5t-22.5 58.5zM481 1694q0 36 23.5 58t60.5 22t59.5 -21.5t22.5 -58.5 t-22.5 -58.5t-59.5 -21.5t-60.5 22t-23.5 58z" />
<glyph unicode="&#x179;" horiz-adv-x="837" d="M41 0v96l569 1219h-542v119h696v-86l-574 -1229h584v-119h-733zM303 1575l189 231h147l-215 -231h-121z" />
<glyph unicode="&#x17a;" horiz-adv-x="731" d="M33 0v98l483 865h-461v112h607v-96l-484 -866h500v-113h-645zM248 1249l153 232h144l-178 -232h-119z" />
<glyph unicode="&#x17b;" horiz-adv-x="837" d="M41 0v96l569 1219h-542v119h696v-86l-574 -1229h584v-119h-733zM301 1731q0 44 27 71t71 27t71.5 -27t27.5 -71t-27.5 -71.5t-71.5 -27.5t-71 27.5t-27 71.5z" />
<glyph unicode="&#x17c;" horiz-adv-x="731" d="M33 0v98l483 865h-461v112h607v-96l-484 -866h500v-113h-645zM256 1372q0 44 27 71t71 27t71.5 -27t27.5 -71t-27.5 -71t-71.5 -27t-71 27t-27 71z" />
<glyph unicode="&#x17d;" horiz-adv-x="837" d="M41 0v96l569 1219h-542v119h696v-86l-574 -1229h584v-119h-733zM168 1806h115l116 -143l117 143h115l-166 -231h-131z" />
<glyph unicode="&#x17e;" horiz-adv-x="731" d="M33 0v98l483 865h-461v112h607v-96l-484 -866h500v-113h-645zM125 1481h115l116 -144l117 144h115l-166 -232h-131z" />
<glyph unicode="&#x218;" horiz-adv-x="923" d="M66 369h127q4 -132 75 -202.5t193 -70.5q127 0 193.5 71.5t66.5 192.5q0 53 -21.5 99t-58.5 81.5t-84.5 68.5t-100.5 63.5t-105.5 62.5t-100 70t-84.5 80.5t-58.5 100t-21.5 124.5q0 150 103.5 250t267.5 100q166 0 266 -106.5t108 -278.5h-126q-6 130 -71.5 196 t-172.5 66q-116 0 -181 -61.5t-65 -165.5q0 -53 21.5 -98.5t58.5 -80.5t84.5 -67t100 -62t105.5 -61.5t100.5 -69.5t84.5 -81t58.5 -102t21.5 -128q0 -100 -42.5 -186.5t-132 -143.5t-210.5 -57q-178 0 -286 108.5t-113 287.5zM391 -510l37 369h133l-76 -369h-94z" />
<glyph unicode="&#x219;" horiz-adv-x="823" d="M63 319h121q0 -106 63 -165.5t173 -59.5q100 0 155.5 48t55.5 134q0 53 -30.5 92.5t-79.5 64.5t-107.5 47t-117.5 48.5t-108 60.5t-79.5 90.5t-30.5 131.5q0 131 88.5 210t234.5 79q151 0 242.5 -90.5t91.5 -239.5h-121q0 100 -56 156.5t-157 56.5q-95 0 -147.5 -46.5 t-52.5 -129.5q0 -45 24 -80t62.5 -56.5t88.5 -43.5t101.5 -40t101.5 -46t88.5 -61t62.5 -86.5t24 -121.5q0 -134 -91.5 -215.5t-242.5 -81.5q-160 0 -258.5 94.5t-98.5 249.5zM334 -510l37 369h133l-76 -369h-94z" />
<glyph unicode="&#x21a;" horiz-adv-x="831" d="M37 1315v119h758v-119h-316v-1315h-127v1315h-315zM317 -510l37 369h133l-75 -369h-95z" />
<glyph unicode="&#x21b;" horiz-adv-x="608" d="M37 963v112h164v248h121v-248h221v-112h-221v-644q0 -215 184 -215h61v-114h-61q-147 0 -226 86.5t-79 242.5v644h-164zM254 -510l37 369h133l-76 -369h-94z" />
<glyph unicode="&#x300;" d="M-297 1481h143l154 -232h-119z" />
<glyph unicode="&#x301;" d="M-297 1249l154 232h143l-178 -232h-119z" />
<glyph unicode="&#x302;" d="M-463 1247l166 232h131l166 -232h-115l-116 144l-117 -144h-115z" />
<glyph unicode="&#x303;" d="M-449 1286q3 74 41 117t99 43q36 0 66.5 -16.5t53 -33t39.5 -16.5q42 0 48 60h102q-8 -75 -44 -117.5t-95 -42.5q-35 0 -65.5 16.5t-53.5 33t-41 16.5q-33 0 -39 -60h-111z" />
<glyph unicode="&#x304;" d="M-377 1309v102h377v-102h-377z" />
<glyph unicode="&#x306;" d="M-467 1481h107q5 -69 34.5 -102t89.5 -33q61 0 90.5 33t34.5 102h107q-4 -114 -65 -176t-167 -62t-166.5 62t-64.5 176z" />
<glyph unicode="&#x307;" d="M-287 1372q0 44 27.5 71t71.5 27t71 -27t27 -71t-27 -71t-71 -27t-71.5 27t-27.5 71z" />
<glyph unicode="&#x308;" d="M-406 1362q0 37 22.5 58.5t59.5 21.5q36 0 58 -22t22 -58t-22 -58t-58 -22q-37 0 -59.5 21.5t-22.5 58.5zM-166 1362q0 36 23.5 58t60.5 22t59.5 -21.5t22.5 -58.5t-22.5 -58.5t-59.5 -21.5t-60.5 22t-23.5 58z" />
<glyph unicode="&#x30a;" d="M-317 1382q0 62 39.5 100t103.5 38t103.5 -38t39.5 -100q0 -63 -39.5 -102t-103.5 -39t-103.5 39t-39.5 102zM-238 1380q0 -29 17.5 -46t46.5 -17q28 0 45.5 17t17.5 46q0 28 -17.5 46t-45.5 18q-29 0 -46.5 -18t-17.5 -46z" />
<glyph unicode="&#x30b;" d="M-485 1249l139 232h137l-168 -232h-108zM-285 1249l148 232h137l-176 -232h-109z" />
<glyph unicode="&#x30c;" d="M-463 1481h115l117 -144l116 144h115l-166 -232h-131z" />
<glyph unicode="&#x312;" d="M-174 1604h88l86 -363h-137z" />
<glyph unicode="&#x326;" d="M-174 -510l37 369h133l-76 -369h-94z" />
<glyph unicode="&#x327;" d="M-403 -250h100q6 -27 28.5 -42t55.5 -15q38 0 62 18.5t24 52.5q0 70 -80 70q-38 0 -63 -14l-35 33l45 147h88l-31 -102q8 2 29 2q59 0 102 -39t43 -99q0 -75 -52 -118t-136 -43q-74 0 -124 39.5t-56 109.5z" />
<glyph unicode="&#x328;" d="M-260 -227q0 120 123 227h112q-50 -43 -84 -101.5t-34 -105.5q0 -38 22.5 -56t54.5 -18q45 0 66 7v-107q-34 -12 -84 -12q-89 0 -132.5 48.5t-43.5 117.5z" />
<glyph unicode="&#x335;" d="M-430 762v94h410v-94h-410z" />
<glyph unicode="&#x336;" d="M-676 762v94h656v-94h-656z" />
<glyph unicode="&#x337;" d="M-494 -90l334 1216h121l-334 -1216h-121z" />
<glyph unicode="&#x338;" d="M-680 -76l440 1585h121l-440 -1585h-121z" />
<glyph unicode="&#x401;" horiz-adv-x="929" d="M158 0v1434h667v-117h-540v-531h506v-116h-506v-553h563v-117h-690zM285 1694q0 37 22.5 58.5t59.5 21.5q35 0 57 -22t22 -58t-22 -58t-57 -22q-37 0 -59.5 21.5t-22.5 58.5zM549 1694q0 36 23.5 58t60.5 22t59.5 -21.5t22.5 -58.5t-22.5 -58.5t-59.5 -21.5t-60.5 22 t-23.5 58z" />
<glyph unicode="&#x402;" horiz-adv-x="1130" d="M37 1315v119h717v-119h-295v-381q91 156 274 156q145 0 217 -109t72 -340v-305q0 -168 -85.5 -259.5t-258.5 -92.5v116q121 3 172 59.5t51 176.5v295q0 183 -46.5 263.5t-147.5 80.5q-113 0 -180.5 -89.5t-67.5 -244.5v-641h-127v1315h-295z" />
<glyph unicode="&#x403;" horiz-adv-x="847" d="M158 0v1434h653v-119h-526v-1315h-127zM348 1575l189 231h147l-215 -231h-121z" />
<glyph unicode="&#x404;" horiz-adv-x="983" d="M119 406v622q0 203 105 316.5t278 113.5q176 0 281.5 -108t115.5 -306h-123q-10 150 -80.5 224.5t-193.5 74.5q-120 0 -190 -80t-70 -235v-240h438v-118h-438v-264q0 -155 72.5 -235.5t195.5 -80.5q248 0 278 299h123q-15 -197 -119.5 -305.5t-281.5 -108.5 q-176 0 -283.5 114t-107.5 317z" />
<glyph unicode="&#x405;" horiz-adv-x="923" d="M66 369h127q4 -132 75 -202.5t193 -70.5q127 0 193.5 71.5t66.5 192.5q0 53 -21.5 99t-58.5 81.5t-84.5 68.5t-100.5 63.5t-105.5 62.5t-100 70t-84.5 80.5t-58.5 100t-21.5 124.5q0 150 103.5 250t267.5 100q166 0 266 -106.5t108 -278.5h-126q-6 130 -71.5 196 t-172.5 66q-116 0 -181 -61.5t-65 -165.5q0 -53 21.5 -98.5t58.5 -80.5t84.5 -67t100 -62t105.5 -61.5t100.5 -69.5t84.5 -81t58.5 -102t21.5 -128q0 -100 -42.5 -186.5t-132 -143.5t-210.5 -57q-178 0 -286 108.5t-113 287.5z" />
<glyph unicode="&#x406;" horiz-adv-x="442" d="M158 0v1434h127v-1434h-127z" />
<glyph unicode="&#x407;" horiz-adv-x="442" d="M10 1694q0 37 22.5 58.5t59.5 21.5q36 0 58 -22t22 -58t-22 -58t-58 -22q-37 0 -59.5 21.5t-22.5 58.5zM158 0v1434h127v-1434h-127zM274 1694q0 36 23.5 58t60.5 22t59.5 -21.5t22.5 -58.5t-22.5 -58.5t-59.5 -21.5t-60.5 22t-23.5 58z" />
<glyph unicode="&#x408;" horiz-adv-x="507" d="M0 -45q118 0 174.5 64.5t56.5 220.5v1194h127v-1194q0 -406 -358 -406v121z" />
<glyph unicode="&#x409;" horiz-adv-x="1474" d="M0 -18v120q121 0 145 193q33 250 60 1139h592v-600h211q194 0 308 -110t114 -302q0 -197 -114.5 -309.5t-307.5 -112.5h-338v1315h-344q-30 -839 -58 -1039q-21 -141 -87.5 -217.5t-180.5 -76.5zM797 121h211q136 0 214 78t78 223q0 140 -78 215.5t-214 75.5h-211v-592z " />
<glyph unicode="&#x40a;" horiz-adv-x="1581" d="M158 0v1434h127v-617h495v617h127v-615h211q192 0 305 -105.5t113 -291.5q0 -197 -113 -309.5t-305 -112.5h-338v698h-495v-698h-127zM907 121h211q134 0 211.5 78t77.5 223q0 133 -77.5 204.5t-211.5 71.5h-211v-577z" />
<glyph unicode="&#x40b;" horiz-adv-x="1144" d="M37 1315v119h717v-119h-295v-381q91 156 274 156q145 0 217 -109t72 -340v-641h-121v631q0 183 -46.5 263.5t-147.5 80.5q-113 0 -180.5 -89.5t-67.5 -244.5v-641h-127v1315h-295z" />
<glyph unicode="&#x40c;" horiz-adv-x="983" d="M158 0v1434h127v-684l116 168l367 516h158l-457 -625l514 -809h-152l-444 698l-102 -139v-559h-127zM362 1575l189 231h147l-215 -231h-121z" />
<glyph unicode="&#x40d;" horiz-adv-x="1103" d="M158 0v1434h127v-908q0 -166 -6 -274l6 -2q37 100 100 233l418 951h143v-1434h-127v944l2 240l-4 2q-5 -15 -19 -49t-32 -76.5t-25 -59.5l-444 -1001h-139zM303 1806h148l188 -231h-121z" />
<glyph unicode="&#x40e;" horiz-adv-x="825" d="M16 1434h136l286 -803l244 803h131l-360 -1178q-40 -130 -114.5 -202t-199.5 -72h-49v120h49q78 0 124 50.5t73 142.5l47 151zM188 1806h107q5 -69 34.5 -102t90.5 -33t90.5 33t34.5 102h106q-4 -114 -64.5 -175.5t-166.5 -61.5t-167 61.5t-65 175.5z" />
<glyph unicode="&#x40f;" horiz-adv-x="1079" d="M158 0v1434h127v-1315h510v1315h127v-1434h-320v-236h-123v236h-321z" />
<glyph unicode="&#x410;" horiz-adv-x="937" d="M23 0l376 1434h140l376 -1434h-135l-84 336h-454l-84 -336h-135zM270 451h398l-148 593q-30 114 -49 226h-4q-19 -112 -49 -226z" />
<glyph unicode="&#x411;" horiz-adv-x="1001" d="M158 0v1434h696v-119h-569v-463h235q186 0 299 -112.5t113 -307.5q0 -201 -113 -316.5t-299 -115.5h-362zM285 119h235q128 0 205.5 81t77.5 232q0 145 -77.5 223t-205.5 78h-235v-614z" />
<glyph unicode="&#x412;" horiz-adv-x="1009" d="M158 0v1434h336q180 0 280 -97.5t100 -275.5q0 -131 -49.5 -212.5t-136.5 -105.5q116 -27 181 -118t65 -234q0 -190 -107.5 -290.5t-300.5 -100.5h-368zM285 119h241q141 0 210 66t69 206q0 137 -81.5 211t-219.5 74h-219v-557zM285 795h213q247 0 247 266 q0 130 -61.5 192t-189.5 62h-209v-520z" />
<glyph unicode="&#x413;" horiz-adv-x="847" d="M158 0v1434h653v-119h-526v-1315h-127z" />
<glyph unicode="&#x414;" horiz-adv-x="1058" d="M14 119h78q64 62 107 204t49 328l24 783h607v-1315h122v-355h-122v236h-742v-236h-123v355zM250 119h502v1196h-359l-24 -697q-11 -329 -119 -499z" />
<glyph unicode="&#x415;" horiz-adv-x="929" d="M158 0v1434h667v-117h-540v-531h506v-116h-506v-553h563v-117h-690z" />
<glyph unicode="&#x416;" horiz-adv-x="1417" d="M0 0l504 772l-471 662h149l465 -672v672h123v-674l133 194l332 480h149l-471 -662l504 -772h-151l-430 662l-66 -93v-569h-123v569l-65 93l-430 -662h-152z" />
<glyph unicode="&#x417;" horiz-adv-x="991" d="M74 383h129q9 -132 83 -209.5t201 -77.5q126 0 203.5 77.5t77.5 209.5q0 141 -86 218t-221 77h-117v119h102q132 0 211.5 68t79.5 208q0 126 -66.5 195t-187.5 69q-240 0 -262 -290h-127q11 194 111.5 303.5t279.5 109.5q173 0 276 -104.5t103 -292.5q0 -127 -54 -206.5 t-175 -115.5q260 -71 260 -358q0 -190 -111.5 -300t-291.5 -110q-184 0 -296.5 113.5t-121.5 296.5z" />
<glyph unicode="&#x418;" horiz-adv-x="1103" d="M158 0v1434h127v-908q0 -166 -6 -274l6 -2q37 100 100 233l418 951h143v-1434h-127v944l2 240l-4 2q-5 -15 -19 -49t-32 -76.5t-25 -59.5l-444 -1001h-139z" />
<glyph unicode="&#x419;" horiz-adv-x="1103" d="M158 0v1434h127v-908q0 -166 -6 -274l6 -2q37 100 100 233l418 951h143v-1434h-127v944l2 240l-4 2q-5 -15 -19 -49t-32 -76.5t-25 -59.5l-444 -1001h-139zM322 1806h106q5 -69 34.5 -102t90.5 -33t90.5 33t34.5 102h106q-4 -114 -64.5 -175.5t-166.5 -61.5t-166.5 61.5 t-64.5 175.5z" />
<glyph unicode="&#x41a;" horiz-adv-x="983" d="M158 0v1434h127v-684l116 168l367 516h158l-457 -625l514 -809h-152l-444 698l-102 -139v-559h-127z" />
<glyph unicode="&#x41b;" horiz-adv-x="989" d="M0 -18v120q67 0 104.5 51.5t47.5 141.5q34 289 63 1139h616v-1434h-126v1315h-369q-33 -837 -62 -1039q-18 -140 -86.5 -217t-187.5 -77z" />
<glyph unicode="&#x41c;" horiz-adv-x="1335" d="M158 0v1434h135l256 -619q46 -113 115 -319h8q75 221 114 319l256 619h136v-1434h-127v758q0 214 12 405l-8 2q-21 -58 -75 -193t-73 -184l-176 -450h-127l-176 450q-15 40 -70.5 179t-76.5 198l-9 -2q13 -206 13 -405v-758h-127z" />
<glyph unicode="&#x41d;" horiz-adv-x="1079" d="M158 0v1434h127v-646h510v646h127v-1434h-127v670h-510v-670h-127z" />
<glyph unicode="&#x41e;" horiz-adv-x="1060" d="M119 444v545q0 218 109.5 344.5t301.5 126.5q193 0 302.5 -126.5t109.5 -344.5v-545q0 -218 -109.5 -344.5t-302.5 -126.5q-192 0 -301.5 126.5t-109.5 344.5zM248 444q0 -167 72 -257.5t210 -90.5t210.5 90.5t72.5 257.5v545q0 167 -72.5 257.5t-210.5 90.5t-210 -90.5 t-72 -257.5v-545z" />
<glyph unicode="&#x41f;" horiz-adv-x="1079" d="M158 0v1434h764v-1434h-127v1315h-510v-1315h-127z" />
<glyph unicode="&#x420;" horiz-adv-x="983" d="M158 0v1434h344q197 0 303 -115t106 -326q0 -220 -105 -335t-304 -115h-217v-543h-127zM285 664h217q145 0 213.5 79.5t68.5 249.5q0 161 -69 240.5t-213 79.5h-217v-649z" />
<glyph unicode="&#x421;" horiz-adv-x="983" d="M119 406v622q0 203 105 316.5t278 113.5q176 0 281.5 -108t115.5 -306h-123q-10 150 -80.5 224.5t-193.5 74.5q-120 0 -190 -80t-70 -235v-622q0 -155 72.5 -235.5t195.5 -80.5q248 0 278 299h123q-15 -197 -119.5 -305.5t-281.5 -108.5q-176 0 -283.5 114t-107.5 317z " />
<glyph unicode="&#x422;" horiz-adv-x="831" d="M37 1315v119h758v-119h-316v-1315h-127v1315h-315z" />
<glyph unicode="&#x423;" horiz-adv-x="825" d="M16 1434h136l286 -803l244 803h131l-360 -1178q-40 -130 -114.5 -202t-199.5 -72h-49v120h49q78 0 124 50.5t73 142.5l47 151z" />
<glyph unicode="&#x424;" horiz-adv-x="1325" d="M76 557v322q0 246 127 379t356 133h39v149h127v-149h39q230 0 357.5 -133t127.5 -379v-322q0 -246 -127.5 -379t-357.5 -133h-39v-160h-127v160h-39q-229 0 -356 133t-127 379zM205 557q0 -389 354 -389h39v1100h-39q-354 0 -354 -389v-322zM725 168h39q356 0 356 389 v322q0 389 -356 389h-39v-1100z" />
<glyph unicode="&#x425;" horiz-adv-x="919" d="M41 0l346 745l-328 689h142l260 -572l260 572h141l-327 -689l346 -745h-142l-278 625l-279 -625h-141z" />
<glyph unicode="&#x426;" horiz-adv-x="1095" d="M158 0v1434h127v-1315h499v1315h127v-1315h127v-355h-123v236h-757z" />
<glyph unicode="&#x427;" horiz-adv-x="1005" d="M84 950v484h127v-484q0 -154 79.5 -232.5t219.5 -78.5q104 0 211 47v748h127v-1434h-127v565q-107 -47 -211 -47q-197 0 -311.5 113t-114.5 319z" />
<glyph unicode="&#x428;" horiz-adv-x="1617" d="M158 0v1434h127v-1315h460v1315h127v-1315h461v1315h127v-1434h-1302z" />
<glyph unicode="&#x429;" horiz-adv-x="1640" d="M158 0v1434h127v-1315h460v1315h127v-1315h461v1315h127v-1315h123v-355h-123v236h-1302z" />
<glyph unicode="&#x42a;" horiz-adv-x="1087" d="M35 1315v119h373v-592h210q195 0 309.5 -111t114.5 -305q0 -198 -114.5 -312t-309.5 -114h-337v1315h-246zM408 121h210q137 0 216 79t79 226q0 142 -79 218.5t-216 76.5h-210v-600z" />
<glyph unicode="&#x42b;" horiz-adv-x="1398" d="M158 0v1434h127v-600h204q194 0 308 -110t114 -302q0 -197 -114.5 -309.5t-307.5 -112.5h-331zM285 121h204q136 0 214.5 78t78.5 223q0 140 -78.5 215.5t-214.5 75.5h-204v-592zM1114 0v1434h127v-1434h-127z" />
<glyph unicode="&#x42c;" horiz-adv-x="974" d="M158 0v1434h127v-598h239q183 0 294.5 -110.5t111.5 -301.5q0 -197 -111.5 -310.5t-294.5 -113.5h-366zM285 119h239q125 0 201 79t76 226q0 141 -76 217t-201 76h-239v-598z" />
<glyph unicode="&#x42d;" horiz-adv-x="983" d="M72 389h123q30 -299 278 -299q123 0 195.5 80.5t72.5 235.5v264h-438v118h438v240q0 155 -70 235t-190 80q-123 0 -193.5 -74.5t-80.5 -224.5h-123q10 198 115.5 306t281.5 108q173 0 278 -113.5t105 -316.5v-622q0 -203 -107.5 -317t-283.5 -114q-177 0 -281.5 108.5 t-119.5 305.5z" />
<glyph unicode="&#x42e;" horiz-adv-x="1480" d="M158 0v1434h127v-646h258v173q0 232 108 361.5t301 129.5q194 0 302 -129.5t108 -361.5v-488q0 -232 -108 -361.5t-302 -129.5q-193 0 -301 129.5t-108 361.5v197h-258v-670h-127zM672 473q0 -182 71 -275.5t209 -93.5t209.5 94t71.5 275v488q0 181 -71.5 274.5 t-209.5 93.5t-209 -93.5t-71 -274.5v-488z" />
<glyph unicode="&#x42f;" horiz-adv-x="980" d="M57 0l349 575q-150 26 -232 137.5t-82 284.5q0 206 108.5 321.5t299.5 115.5h323v-1434h-127v567h-151l-340 -567h-148zM221 1004q0 -153 70.5 -235.5t204.5 -82.5h200v629h-196q-138 0 -208.5 -78.5t-70.5 -232.5z" />
<glyph unicode="&#x430;" horiz-adv-x="915" d="M78 305q0 155 95.5 238.5t272.5 83.5h213v114q0 118 -54.5 180t-158.5 62q-93 0 -151 -50t-64 -138h-120q6 138 98.5 221.5t241.5 83.5q153 0 241 -96t88 -261v-743h-104l-10 100q-85 -125 -248 -125q-151 0 -245.5 88t-94.5 242zM201 303q0 -103 63.5 -156t171.5 -53 q102 0 162.5 58t60.5 151v211h-217q-118 0 -179.5 -54t-61.5 -157z" />
<glyph unicode="&#x431;" horiz-adv-x="946" d="M135 367v602q0 87 26 158t63 114.5t88.5 77t91.5 48.5t83 26q74 17 115.5 41.5t75.5 83.5l98 -70q-18 -40 -46 -70.5t-64 -50.5t-70 -32.5t-78 -24.5q-37 -9 -61 -17t-58.5 -23t-56.5 -36t-43.5 -51t-32 -74.5t-10.5 -99.5v-82q84 135 260 135q145 0 233.5 -100.5 t88.5 -278.5v-276q0 -185 -95 -286t-258 -101q-161 0 -255.5 101t-94.5 286zM258 367q0 -135 59.5 -202t167.5 -67q110 0 170 67t60 202v254q0 144 -58.5 213t-164.5 69q-46 0 -86 -14t-74.5 -43.5t-54 -83.5t-19.5 -127v-268z" />
<glyph unicode="&#x432;" horiz-adv-x="866" d="M135 0v1073h283q155 0 241 -77t86 -210q0 -59 -32 -118t-90 -99q81 -31 128.5 -104.5t47.5 -155.5q0 -148 -90 -228.5t-260 -80.5h-314zM254 115h192q232 0 232 194q0 92 -58.5 141.5t-173.5 49.5h-192v-385zM254 614h162q102 0 155.5 45.5t53.5 126.5q0 83 -53 127.5 t-156 44.5h-162v-344z" />
<glyph unicode="&#x433;" horiz-adv-x="700" d="M135 0v1075h535v-117h-414v-958h-121z" />
<glyph unicode="&#x434;" horiz-adv-x="911" d="M0 115h78q84 160 106 485q16 261 19 475h557v-960h119v-351h-119v236h-641v-236h-119v351zM211 115h428v846h-322q-3 -220 -16 -379q-23 -306 -90 -467z" />
<glyph unicode="&#x435;" horiz-adv-x="921" d="M109 362v355q0 182 94.5 282.5t253.5 100.5q164 0 261 -100.5t97 -282.5v-238h-584v-117q0 -132 60 -198t168 -66q117 0 177.5 56.5t72.5 175.5h120q-12 -169 -108.5 -259.5t-265.5 -90.5q-159 0 -252.5 100t-93.5 282zM231 592h463v125q0 132 -61 198t-174 66 q-108 0 -168 -66t-60 -198v-125z" />
<glyph unicode="&#x436;" horiz-adv-x="1214" d="M0 0l403 604l-372 471h151l201 -264q119 -156 166 -219v483h117v-483q82 111 165 219l201 264h152l-373 -471l403 -604h-145l-332 512l-71 -92v-420h-117v420l-72 92l-332 -512h-145z" />
<glyph unicode="&#x437;" horiz-adv-x="827" d="M45 301h121q6 -92 70 -147.5t176 -55.5q107 0 169 56.5t62 158.5q0 86 -62.5 136.5t-174.5 50.5h-156v112h147q98 0 155.5 45t57.5 131q0 82 -54 133.5t-148 51.5q-104 0 -157.5 -50.5t-60.5 -158.5h-120q8 158 94.5 242t243.5 84q138 0 230.5 -85.5t92.5 -205.5 q0 -87 -41.5 -147.5t-107.5 -88.5q79 -29 131.5 -97.5t52.5 -158.5q0 -145 -99.5 -236t-254.5 -91q-164 0 -262.5 90t-104.5 231z" />
<glyph unicode="&#x438;" horiz-adv-x="931" d="M135 0v1075h121v-614q0 -189 -4 -242l4 -4q22 52 72 160l344 700h125v-1075h-121v580q0 114 8 286l-4 2q-13 -44 -86 -194l-334 -674h-125z" />
<glyph unicode="&#x439;" horiz-adv-x="931" d="M135 0v1075h121v-614q0 -189 -4 -242l4 -4q22 52 72 160l344 700h125v-1075h-121v580q0 114 8 286l-4 2q-13 -44 -86 -194l-334 -674h-125zM236 1481h106q5 -69 34.5 -102t90.5 -33t90.5 33t34.5 102h106q-4 -114 -64.5 -176t-166.5 -62t-166.5 62t-64.5 176z" />
<glyph unicode="&#x43a;" horiz-adv-x="864" d="M135 0v1075h121v-487q93 110 160 194l239 293h156l-391 -467l444 -608h-149l-375 514l-84 -102v-412h-121z" />
<glyph unicode="&#x43b;" horiz-adv-x="882" d="M10 -8v117q31 0 55 13t41 40.5t28.5 59.5t19 80.5t12 91.5t8.5 104q14 236 21 577h553v-1075h-121v961h-314q-4 -180 -20 -482q-14 -252 -78.5 -369.5t-204.5 -117.5z" />
<glyph unicode="&#x43c;" horiz-adv-x="1101" d="M135 0v1075h125l219 -489q12 -28 35.5 -84.5t34.5 -85.5h4q12 29 35 85.5t35 84.5l219 489h125v-1075h-117v592q0 60 4.5 148.5t5.5 115.5l-6 2q-61 -173 -94 -248l-148 -327h-123l-147 327q-33 75 -94 248l-6 -2q1 -27 5.5 -115.5t4.5 -148.5v-592h-117z" />
<glyph unicode="&#x43d;" horiz-adv-x="921" d="M135 0v1075h121v-461h410v461h120v-1075h-120v500h-410v-500h-121z" />
<glyph unicode="&#x43e;" horiz-adv-x="933" d="M109 365v346q0 186 97 287.5t261 101.5t261 -101.5t97 -287.5v-346q0 -186 -97 -288t-261 -102t-261 102t-97 288zM231 365q0 -136 62 -203.5t174 -67.5t173.5 67.5t61.5 203.5v346q0 136 -61.5 203t-173.5 67t-174 -67t-62 -203v-346z" />
<glyph unicode="&#x43f;" horiz-adv-x="921" d="M135 0v1075h651v-1075h-120v961h-410v-961h-121z" />
<glyph unicode="&#x440;" horiz-adv-x="946" d="M135 -369v1444h98l17 -100q43 60 109.5 92.5t144.5 32.5q151 0 242.5 -107t91.5 -305v-309q0 -197 -88 -300.5t-246 -103.5q-75 0 -141 30.5t-109 90.5v-465h-119zM254 379q0 -130 61 -210.5t162 -80.5q120 0 179 69.5t59 221.5v309q0 299 -238 299q-98 0 -160.5 -75.5 t-62.5 -219.5v-313z" />
<glyph unicode="&#x441;" horiz-adv-x="884" d="M109 362v355q0 182 93 282.5t251 100.5q161 0 255.5 -100t98.5 -283h-123q-9 264 -231 264q-105 0 -163.5 -66t-58.5 -198v-355q0 -132 58.5 -198t163.5 -66q224 0 233 264h123q-4 -182 -99 -282t-257 -100q-158 0 -251 100t-93 282z" />
<glyph unicode="&#x442;" horiz-adv-x="702" d="M25 963v112h653v-112h-266v-963h-121v963h-266z" />
<glyph unicode="&#x443;" horiz-adv-x="792" d="M16 1075h129l269 -784l235 784h127l-362 -1206q-39 -131 -95.5 -195.5t-160.5 -64.5h-70v119h53q64 0 96 40t56 119l67 222z" />
<glyph unicode="&#x444;" horiz-adv-x="1257" d="M109 399v267q0 131 55 229t146.5 147.5t205.5 49.5h53v383h119v-383h53q175 0 291.5 -115t116.5 -311v-267q0 -128 -56 -223.5t-147.5 -143.5t-204.5 -48h-53v-353h-119v353h-53q-113 0 -204.5 48t-147 143.5t-55.5 223.5zM231 399q0 -143 80.5 -220t204.5 -77h53v871 h-53q-125 0 -205 -79t-80 -228v-267zM688 102h53q124 0 204.5 77t80.5 220v267q0 149 -80 228t-205 79h-53v-871z" />
<glyph unicode="&#x445;" horiz-adv-x="778" d="M10 0l309 537l-294 538h137l227 -422l227 422h138l-293 -538l307 -537h-141l-238 438l-237 -438h-142z" />
<glyph unicode="&#x446;" horiz-adv-x="944" d="M135 0v1075h121v-960h401v960h121v-960h119v-351h-119v236h-643z" />
<glyph unicode="&#x447;" horiz-adv-x="870" d="M68 784v291h120v-291q0 -155 61 -229t161 -74q63 0 110.5 8.5t93.5 36.5v549h121v-1075h-121v406q-83 -44 -215 -44q-143 0 -237 109.5t-94 312.5z" />
<glyph unicode="&#x448;" horiz-adv-x="1404" d="M123 0v1075h121v-960h391v960h123v-960h391v960h121v-1075h-1147z" />
<glyph unicode="&#x449;" horiz-adv-x="1443" d="M135 0v1075h121v-960h391v960h123v-960h391v960h121v-962h115v-349h-115v236h-1147z" />
<glyph unicode="&#x44a;" horiz-adv-x="940" d="M25 963v112h337v-379h197q148 0 250 -98t102 -248q0 -152 -102 -251t-250 -99h-317v963h-217zM362 117h197q98 0 163.5 64.5t65.5 168.5q0 103 -65.5 166.5t-163.5 63.5h-197v-463z" />
<glyph unicode="&#x44b;" horiz-adv-x="1224" d="M135 0v1065h121v-385h197q148 0 250 -95.5t102 -242.5q0 -149 -102 -245.5t-250 -96.5h-318zM256 117h197q99 0 164 62t65 163q0 99 -65 160t-164 61h-197v-446zM969 0v1065h121v-1065h-121z" />
<glyph unicode="&#x44c;" horiz-adv-x="833" d="M135 0v1075h121v-379h197q148 0 250 -98t102 -248q0 -152 -102 -251t-250 -99h-318zM256 117h197q98 0 163.5 64.5t65.5 168.5q0 103 -65.5 166.5t-163.5 63.5h-197v-463z" />
<glyph unicode="&#x44d;" horiz-adv-x="884" d="M76 362h123q9 -264 233 -264q105 0 163 66t58 198v125h-370v113h370v117q0 132 -58 198t-163 66q-222 0 -231 -264h-123q4 183 98.5 283t255.5 100q158 0 251 -100.5t93 -282.5v-355q0 -182 -93 -282t-251 -100q-162 0 -257 100t-99 282z" />
<glyph unicode="&#x44e;" horiz-adv-x="1251" d="M135 0v1075h121v-465h195v103q0 185 93.5 286t252.5 101t252.5 -101t93.5 -286v-346q0 -185 -93.5 -286t-252.5 -101t-252.5 101t-93.5 286v127h-195v-494h-121zM573 367q0 -135 58.5 -202t165.5 -67t165 67t58 202v346q0 135 -58 201.5t-165 66.5t-165.5 -66.5 t-58.5 -201.5v-346z" />
<glyph unicode="&#x44f;" horiz-adv-x="821" d="M25 0l260 399q-102 22 -163 112.5t-61 221.5q0 154 93 248t247 94h297v-1075h-120v393h-164l-246 -393h-143zM184 733q0 -110 52 -168.5t153 -58.5h189v452h-177q-103 0 -160 -59.5t-57 -165.5z" />
<glyph unicode="&#x451;" horiz-adv-x="921" d="M109 362v355q0 182 94.5 282.5t253.5 100.5q164 0 261 -100.5t97 -282.5v-238h-584v-117q0 -132 60 -198t168 -66q117 0 177.5 56.5t72.5 175.5h120q-12 -169 -108.5 -259.5t-265.5 -90.5q-159 0 -252.5 100t-93.5 282zM231 592h463v125q0 132 -61 198t-174 66 q-108 0 -168 -66t-60 -198v-125zM248 1362q0 37 22.5 58.5t59.5 21.5q36 0 58 -22t22 -58t-22 -58t-58 -22q-37 0 -59.5 21.5t-22.5 58.5zM487 1362q0 36 23.5 58t60.5 22t59.5 -21.5t22.5 -58.5t-22.5 -58.5t-59.5 -21.5t-60.5 22t-23.5 58z" />
<glyph unicode="&#x452;" horiz-adv-x="954" d="M12 1260v94h131v127h121v-127h199v-94h-199v-320q92 160 279 160q288 0 288 -451v-737q0 -154 -86 -242.5t-258 -89.5v117q119 3 171.5 56.5t52.5 158.5v727q0 183 -48 264.5t-151 81.5q-114 0 -181 -89.5t-67 -246.5v-649h-121v1260h-131z" />
<glyph unicode="&#x453;" horiz-adv-x="700" d="M135 0v1075h535v-117h-414v-958h-121zM285 1249l153 232h144l-179 -232h-118z" />
<glyph unicode="&#x454;" horiz-adv-x="884" d="M109 362v355q0 182 93 282.5t251 100.5q161 0 255.5 -100t98.5 -283h-123q-9 264 -231 264q-105 0 -163.5 -66t-58.5 -198v-117h371v-113h-371v-125q0 -132 58.5 -198t163.5 -66q224 0 233 264h123q-4 -182 -99 -282t-257 -100q-158 0 -251 100t-93 282z" />
<glyph unicode="&#x455;" horiz-adv-x="823" d="M63 319h121q0 -106 63 -165.5t173 -59.5q100 0 155.5 48t55.5 134q0 53 -30.5 92.5t-79.5 64.5t-107.5 47t-117.5 48.5t-108 60.5t-79.5 90.5t-30.5 131.5q0 131 88.5 210t234.5 79q151 0 242.5 -90.5t91.5 -239.5h-121q0 100 -56 156.5t-157 56.5q-95 0 -147.5 -46.5 t-52.5 -129.5q0 -45 24 -80t62.5 -56.5t88.5 -43.5t101.5 -40t101.5 -46t88.5 -61t62.5 -86.5t24 -121.5q0 -134 -91.5 -215.5t-242.5 -81.5q-160 0 -258.5 94.5t-98.5 249.5z" />
<glyph unicode="&#x456;" horiz-adv-x="391" d="M96 1372q0 44 27.5 71t71.5 27t71 -27t27 -71t-27 -71t-71 -27t-71.5 27t-27.5 71zM135 0v1075h121v-1075h-121z" />
<glyph unicode="&#x457;" horiz-adv-x="409" d="M10 1372q0 36 22 57t58 21t57 -21t21 -57t-21 -57t-57 -21t-58 21t-22 57zM143 0v1075h121v-1075h-121zM238 1372q0 36 22 57t59 21q36 0 58 -21t22 -57t-22 -57t-58 -21q-37 0 -59 21t-22 57z" />
<glyph unicode="&#x458;" horiz-adv-x="477" d="M-41 -276q122 3 172.5 65.5t50.5 190.5v1095h121v-1095q0 -176 -84.5 -274t-259.5 -99v117zM145 1370q0 44 27.5 71t71.5 27t71 -27t27 -71t-27 -71t-71 -27t-71.5 27t-27.5 71z" />
<glyph unicode="&#x459;" horiz-adv-x="1325" d="M10 -8v117q31 0 55.5 13.5t41 40.5t28.5 59.5t19.5 80t12 91.5t7.5 104q14 236 21 577h553v-395h196q148 0 250 -95.5t102 -242.5q0 -149 -102 -245.5t-250 -96.5h-317v961h-314q-4 -180 -20 -482q-12 -251 -77 -369t-206 -118zM748 117h196q99 0 164.5 62t65.5 163 q0 99 -65.5 160t-164.5 61h-196v-446z" />
<glyph unicode="&#x45a;" horiz-adv-x="1357" d="M135 0v1075h121v-434h406v434h120v-434h197q147 0 248.5 -87.5t101.5 -221.5q0 -144 -101.5 -238t-248.5 -94h-317v524h-406v-524h-121zM782 117h197q97 0 162 59.5t65 155.5q0 86 -65 139t-162 53h-197v-407z" />
<glyph unicode="&#x45b;" horiz-adv-x="942" d="M0 1249v94h131v138h121v-138h199v-94h-199v-309q92 160 278 160q289 0 289 -451v-649h-121v639q0 184 -47.5 265t-150.5 81q-114 0 -181 -89.5t-67 -246.5v-649h-121v1249h-131z" />
<glyph unicode="&#x45c;" horiz-adv-x="864" d="M135 0v1075h121v-487q93 110 160 194l239 293h156l-391 -467l444 -608h-149l-375 514l-84 -102v-412h-121zM311 1249l154 232h143l-178 -232h-119z" />
<glyph unicode="&#x45d;" horiz-adv-x="931" d="M135 0v1075h121v-614q0 -189 -4 -242l4 -4q22 52 72 160l344 700h125v-1075h-121v580q0 114 8 286l-4 2q-13 -44 -86 -194l-334 -674h-125zM268 1481h144l153 -232h-119z" />
<glyph unicode="&#x45e;" horiz-adv-x="792" d="M16 1075h129l269 -784l235 784h127l-362 -1206q-39 -131 -95.5 -195.5t-160.5 -64.5h-70v119h53q64 0 96 40t56 119l67 222zM156 1481h106q5 -69 34.5 -102t90.5 -33t90.5 33t34.5 102h106q-4 -114 -64.5 -176t-166.5 -62t-166.5 62t-64.5 176z" />
<glyph unicode="&#x45f;" horiz-adv-x="921" d="M135 0v1075h121v-960h410v960h120v-1075h-262v-236h-116v236h-273z" />
<glyph unicode="&#x490;" horiz-adv-x="847" d="M158 0v1434h536v204h117v-323h-526v-1315h-127z" />
<glyph unicode="&#x491;" horiz-adv-x="700" d="M135 0v1075h418v205h117v-322h-414v-958h-121z" />
<glyph unicode="&#x1e80;" horiz-adv-x="1458" d="M23 1434h133l180 -885q70 -362 70 -365h8q3 14 29.5 157t43.5 228l172 842h140l172 -842q17 -85 43.5 -228t29.5 -157h9q3 19 69 365l181 885h133l-318 -1434h-141l-174 780q-20 84 -41 222.5t-29 228.5h-8q-8 -90 -29 -228.5t-41 -222.5l-174 -780h-141zM479 1806h148 l188 -231h-121z" />
<glyph unicode="&#x1e81;" horiz-adv-x="1245" d="M16 1075h127l133 -586q9 -37 70 -337h4q35 201 78 378l129 525h131l129 -525q43 -177 78 -378h4q61 300 70 337l133 586h127l-266 -1075h-134l-131 535q-57 228 -73 364h-4q-15 -129 -74 -364l-131 -535h-133zM418 1470h143l154 -231h-119z" />
<glyph unicode="&#x1e82;" horiz-adv-x="1458" d="M23 1434h133l180 -885q70 -362 70 -365h8q3 14 29.5 157t43.5 228l172 842h140l172 -842q17 -85 43.5 -228t29.5 -157h9q3 19 69 365l181 885h133l-318 -1434h-141l-174 780q-20 84 -41 222.5t-29 228.5h-8q-8 -90 -29 -228.5t-41 -222.5l-174 -780h-141zM631 1575 l188 231h148l-215 -231h-121z" />
<glyph unicode="&#x1e83;" horiz-adv-x="1245" d="M16 1075h127l133 -586q9 -37 70 -337h4q35 201 78 378l129 525h131l129 -525q43 -177 78 -378h4q61 300 70 337l133 586h127l-266 -1075h-134l-131 535q-57 228 -73 364h-4q-15 -129 -74 -364l-131 -535h-133zM508 1239l154 231h143l-178 -231h-119z" />
<glyph unicode="&#x1e84;" horiz-adv-x="1458" d="M23 1434h133l180 -885q70 -362 70 -365h8q3 14 29.5 157t43.5 228l172 842h140l172 -842q17 -85 43.5 -228t29.5 -157h9q3 19 69 365l181 885h133l-318 -1434h-141l-174 780q-20 84 -41 222.5t-29 228.5h-8q-8 -90 -29 -228.5t-41 -222.5l-174 -780h-141zM514 1694 q0 37 22.5 58.5t59.5 21.5q36 0 58 -22t22 -58t-22 -58t-58 -22q-37 0 -59.5 21.5t-22.5 58.5zM778 1694q0 36 23.5 58t60.5 22t59.5 -21.5t22.5 -58.5t-22.5 -58.5t-59.5 -21.5t-60.5 22t-23.5 58z" />
<glyph unicode="&#x1e85;" horiz-adv-x="1245" d="M16 1075h127l133 -586q9 -37 70 -337h4q35 201 78 378l129 525h131l129 -525q43 -177 78 -378h4q61 300 70 337l133 586h127l-266 -1075h-134l-131 535q-57 228 -73 364h-4q-15 -129 -74 -364l-131 -535h-133zM414 1362q0 37 22.5 58.5t59.5 21.5q36 0 57.5 -22t21.5 -58 t-21.5 -58t-57.5 -22q-37 0 -59.5 21.5t-22.5 58.5zM653 1362q0 36 23.5 58t60.5 22t59.5 -21.5t22.5 -58.5t-22.5 -58.5t-59.5 -21.5t-60.5 22t-23.5 58z" />
<glyph unicode="&#x1ef2;" horiz-adv-x="864" d="M10 1434h135l205 -553q13 -37 40.5 -111t41.5 -111l82 224l205 551h135l-358 -920v-514h-127v514zM182 1806h148l188 -231h-121z" />
<glyph unicode="&#x1ef3;" horiz-adv-x="792" d="M16 1075h129l269 -784l235 784h127l-362 -1206q-39 -131 -95.5 -195.5t-160.5 -64.5h-70v119h53q64 0 96 40t56 119l67 222zM188 1481h144l153 -232h-118z" />
<glyph unicode="&#x2000;" horiz-adv-x="968" />
<glyph unicode="&#x2001;" horiz-adv-x="1937" />
<glyph unicode="&#x2002;" horiz-adv-x="968" />
<glyph unicode="&#x2003;" horiz-adv-x="1937" />
<glyph unicode="&#x2004;" horiz-adv-x="645" />
<glyph unicode="&#x2005;" horiz-adv-x="484" />
<glyph unicode="&#x2006;" horiz-adv-x="322" />
<glyph unicode="&#x2007;" horiz-adv-x="322" />
<glyph unicode="&#x2008;" horiz-adv-x="242" />
<glyph unicode="&#x2009;" horiz-adv-x="387" />
<glyph unicode="&#x200a;" horiz-adv-x="107" />
<glyph unicode="&#x2010;" horiz-adv-x="679" d="M94 469v115h492v-115h-492z" />
<glyph unicode="&#x2011;" horiz-adv-x="679" d="M94 469v115h492v-115h-492z" />
<glyph unicode="&#x2012;" horiz-adv-x="679" d="M94 469v115h492v-115h-492z" />
<glyph unicode="&#x2013;" horiz-adv-x="884" d="M94 469v115h697v-115h-697z" />
<glyph unicode="&#x2014;" horiz-adv-x="1130" d="M94 469v115h942v-115h-942z" />
<glyph unicode="&#x2018;" horiz-adv-x="256" d="M43 1008l94 426h86l-43 -426h-137z" />
<glyph unicode="&#x2019;" horiz-adv-x="256" d="M33 1022l43 426h137l-94 -426h-86z" />
<glyph unicode="&#x201a;" horiz-adv-x="303" d="M61 -266l43 426h138l-95 -426h-86z" />
<glyph unicode="&#x201c;" horiz-adv-x="460" d="M43 1008l94 426h86l-43 -426h-137zM248 1008l94 426h86l-43 -426h-137z" />
<glyph unicode="&#x201d;" horiz-adv-x="460" d="M33 1008l43 426h137l-94 -426h-86zM238 1008l43 426h137l-94 -426h-86z" />
<glyph unicode="&#x201e;" horiz-adv-x="303" d="M61 -266l43 426h138l-95 -426h-86z" />
<glyph unicode="&#x2020;" horiz-adv-x="757" d="M61 950v115h256v410h123v-410h256v-115h-256v-1134h-123v1134h-256z" />
<glyph unicode="&#x2021;" horiz-adv-x="757" d="M61 225v115h256v610h-256v115h256v410h123v-410h256v-115h-256v-610h256v-115h-256v-409h-123v409h-256z" />
<glyph unicode="&#x2022;" horiz-adv-x="360" d="M47 514q0 59 36.5 95t96.5 36q58 0 94.5 -36.5t36.5 -94.5q0 -60 -36 -96.5t-95 -36.5q-60 0 -96.5 36.5t-36.5 96.5z" />
<glyph unicode="&#x2026;" horiz-adv-x="1028" d="M90 76q0 43 26.5 69.5t69.5 26.5t70 -26.5t27 -69.5t-27 -69.5t-70 -26.5t-69.5 26.5t-26.5 69.5zM418 76q0 43 26.5 69.5t69.5 26.5t69.5 -26.5t26.5 -69.5t-26.5 -69.5t-69.5 -26.5t-69.5 26.5t-26.5 69.5zM745 76q0 43 27 69.5t70 26.5t69.5 -26.5t26.5 -69.5 t-26.5 -69.5t-69.5 -26.5t-70 26.5t-27 69.5z" />
<glyph unicode="&#x202f;" horiz-adv-x="387" />
<glyph unicode="&#x2030;" horiz-adv-x="1740" d="M20 0l996 1434h119l-996 -1434h-119zM31 1026v203q0 104 55.5 163.5t142.5 59.5q86 0 141.5 -59.5t55.5 -163.5v-203q0 -104 -55.5 -162.5t-141.5 -58.5q-88 0 -143 58.5t-55 162.5zM131 1026q0 -125 98 -125q44 0 70.5 30.5t26.5 94.5v203q0 66 -26.5 96.5t-70.5 30.5 q-98 0 -98 -127v-203zM735 203v203q0 104 56 163.5t143 59.5q86 0 141 -59.5t55 -163.5v-203q0 -104 -55 -162.5t-141 -58.5q-88 0 -143.5 58.5t-55.5 162.5zM836 203q0 -125 98 -125q44 0 70 30.5t26 94.5v203q0 126 -96 126q-98 0 -98 -126v-203zM1247 203v203 q0 104 56 163.5t143 59.5q86 0 141 -59.5t55 -163.5v-203q0 -104 -55 -162.5t-141 -58.5q-88 0 -143.5 58.5t-55.5 162.5zM1348 203q0 -125 98 -125q44 0 70 30.5t26 94.5v203q0 126 -96 126q-98 0 -98 -126v-203z" />
<glyph unicode="&#x2039;" horiz-adv-x="561" d="M94 496v61l250 313h123l-272 -344l272 -344h-123z" />
<glyph unicode="&#x203a;" horiz-adv-x="561" d="M94 182l273 344l-273 344h123l250 -313v-61l-250 -314h-123z" />
<glyph unicode="&#x2044;" horiz-adv-x="1118" d="M29 0l925 1434h136l-926 -1434h-135z" />
<glyph unicode="&#x205f;" horiz-adv-x="484" />
<glyph unicode="&#x20ac;" horiz-adv-x="1112" d="M78 553v96h170v133h-170v97h170v149q0 203 105 316.5t278 113.5q176 0 281.5 -108t115.5 -306h-123q-10 150 -80.5 224.5t-193.5 74.5q-120 0 -190 -80t-70 -235v-149h352v-97h-352v-133h352v-96h-352v-147q0 -155 72.5 -235.5t195.5 -80.5q249 0 279 299h122 q-15 -197 -119.5 -305.5t-281.5 -108.5q-176 0 -283.5 114t-107.5 317v147h-170z" />
<glyph unicode="&#x2122;" horiz-adv-x="960" d="M66 1360v74h311v-74h-117v-477h-78v477h-116zM440 883v551h84l78 -183q53 -128 60 -147q16 42 59 147l78 183h84v-551h-76v155q0 89 6 260l-4 2q-8 -19 -27.5 -65t-23.5 -57l-60 -150h-73l-60 150q-4 11 -23.5 57t-27.5 65l-4 -2q6 -171 6 -260v-155h-76z" />
<glyph unicode="&#x2202;" horiz-adv-x="913" d="M109 367v299q0 183 89.5 285t231.5 102q166 0 254 -111q-9 173 -116.5 284.5t-278.5 162.5l39 110q207 -53 342 -211t135 -377v-544q0 -185 -94.5 -286t-255.5 -101q-159 0 -252.5 101t-93.5 286zM231 367q0 -135 58.5 -202t165.5 -67q108 0 167.5 67t59.5 202v299 q0 134 -60 201t-165 67q-226 0 -226 -268v-299z" />
<glyph unicode="&#x2205;" horiz-adv-x="1677" d="M109 717q0 331 198 533t524 202q272 0 457 -143l160 186h121l-211 -246q196 -202 196 -532q0 -331 -198.5 -533t-524.5 -202q-263 0 -446 135l-152 -178h-120l202 235q-99 98 -152.5 237t-53.5 306zM205 717q0 -290 174 -467l848 987q-164 123 -396 123q-282 0 -454 -177 t-172 -466zM449 188q157 -114 382 -114q282 0 454.5 177t172.5 466q0 281 -164 459z" />
<glyph unicode="&#x220f;" horiz-adv-x="1028" d="M158 -203v1637h712v-1639h-122v1520h-467v-1518h-123z" />
<glyph unicode="&#x2211;" horiz-adv-x="743" d="M82 0v113l324 604l-324 604v113h580v-115h-453l311 -567v-70l-311 -567h453v-115h-580z" />
<glyph unicode="&#x2212;" horiz-adv-x="905" d="M94 575v115h717v-115h-717z" />
<glyph unicode="&#x221a;" horiz-adv-x="931" d="M37 911v113h276l176 -891l289 1495h123l-309 -1628h-207l-172 911h-176z" />
<glyph unicode="&#x221e;" horiz-adv-x="1294" d="M109 514q0 137 81.5 221t200.5 84q92 0 152.5 -42.5t103.5 -117.5q43 75 103.5 117.5t152.5 42.5q119 0 201 -84t82 -221q0 -136 -82 -218.5t-201 -82.5q-95 0 -154.5 46.5t-101.5 127.5q-42 -81 -101.5 -127.5t-154.5 -46.5q-119 0 -200.5 82.5t-81.5 218.5zM227 514 q0 -87 45.5 -138.5t118.5 -51.5q37 0 66.5 15t53 47t38 60.5t35.5 77.5q-39 90 -81 137.5t-112 47.5q-75 0 -119.5 -49.5t-44.5 -145.5zM711 524q17 -40 27.5 -62.5t29 -52.5t36 -46t43.5 -27.5t56 -11.5q73 0 118.5 51.5t45.5 138.5q0 96 -44.5 145.5t-119.5 49.5 q-69 0 -111 -47t-81 -138z" />
<glyph unicode="&#x222b;" horiz-adv-x="608" d="M33 -270q111 3 161 56t50 155v1185q0 151 85 239t249 89v-117q-112 -3 -162.5 -56t-50.5 -155v-1185q0 -151 -84.5 -239t-247.5 -89v117z" />
<glyph unicode="&#x2248;" horiz-adv-x="942" d="M104 455q80 104 187 104q65 0 186 -49t166 -49q78 0 131 76l66 -86q-78 -111 -189 -111q-65 0 -186 49t-166 49q-78 0 -131 -76zM104 766q80 104 187 104q65 0 186 -49t166 -49q78 0 131 76l66 -86q-78 -111 -189 -111q-65 0 -186 49.5t-166 49.5q-78 0 -131 -76z" />
<glyph unicode="&#x2260;" horiz-adv-x="942" d="M113 508v115h249l103 190h-352v115h411l84 157h115l-84 -157h190v-115h-249l-103 -190h352v-115h-411l-84 -158h-115l84 158h-190z" />
<glyph unicode="&#x2264;" horiz-adv-x="843" d="M94 147v113h656v-113h-656zM94 627v135l656 285v-121l-527 -232l527 -231v-121z" />
<glyph unicode="&#x2265;" horiz-adv-x="843" d="M94 147v113h656v-113h-656zM94 342v121l527 231l-527 232v121l656 -285v-135z" />
<glyph unicode="&#x25ca;" horiz-adv-x="929" d="M109 676v82l290 676h131l291 -676v-82l-291 -678h-131zM211 717l254 -611l254 611l-254 610z" />
<glyph unicode="&#x25fc;" horiz-adv-x="1075" d="M0 0v1075h1075v-1075h-1075z" />
<glyph horiz-adv-x="831" d="M37 1315v119h758v-119h-316v-1315h-20l-33 -104q12 4 31 4q56 0 97.5 -40t41.5 -104q0 -68 -51 -108.5t-131 -40.5q-74 0 -124.5 39t-56.5 106h101q6 -27 28.5 -42t55.5 -15q38 0 62 18t24 49q0 72 -80 72q-40 0 -64 -14l-32 33l45 147h-21v1315h-315z" />
<glyph horiz-adv-x="391" d="M96 1372q0 44 27.5 71t71.5 27t71 -27t27 -71t-27 -71t-71 -27t-71.5 27t-27.5 71zM135 0v1075h121v-1075h-121z" />
<glyph horiz-adv-x="608" d="M37 963v112h164v248h121v-248h221v-112h-221v-644q0 -215 184 -215h61v-114h-61q-44 0 -92 10l-39 -104q12 4 31 4q56 0 97.5 -40t41.5 -104q0 -68 -51.5 -108.5t-131.5 -40.5q-74 0 -124 39t-56 106h101q6 -27 28.5 -42t55.5 -15q38 0 62 18t24 49q0 72 -80 72 q-39 0 -64 -14l-33 33l62 178q-137 78 -137 288v644h-164z" />
<glyph horiz-adv-x="958" d="M0 119h90l322 1315h137l319 -1315h90v-355h-122v236h-713v-236h-123v355zM219 119h522l-168 731l-92 424h-4q-50 -256 -88 -422z" />
<glyph horiz-adv-x="921" d="M23 0l364 1434h148l364 -1434h-135l-215 897q-16 68 -43 186.5t-41 176.5h-8q-14 -58 -41 -176.5t-43 -186.5l-215 -897h-135z" />
<glyph horiz-adv-x="778" d="M10 0l309 537l-294 538h137l227 -422l227 422h138l-293 -538l307 -537h-141l-238 438l-237 -438h-142z" />
<glyph horiz-adv-x="933" d="M133 420v682q0 186 87.5 291.5t246.5 105.5q150 0 238 -99t88 -265q0 -124 -50.5 -211.5t-140.5 -128.5q244 -59 244 -377q0 -214 -105 -326t-274 -112q-334 0 -334 440zM254 401q0 -160 52.5 -231.5t158.5 -71.5q258 0 258 310q0 173 -75 243.5t-228 61.5l-166 -11v-301 zM254 819l137 10q131 9 205 90.5t74 210.5q0 252 -217 252q-93 0 -146 -72t-53 -208v-283z" />
<glyph horiz-adv-x="815" d="M70 272q0 71 29.5 127t76.5 92t103.5 65.5t113 54t103.5 51t76.5 64t29.5 85.5q0 82 -49 127t-137 45q-205 0 -205 -211h-121q0 148 90 238t236 90q143 0 227 -76.5t84 -208.5q0 -69 -29.5 -123.5t-76.5 -89t-103.5 -63.5t-113 -54t-103.5 -52.5t-76.5 -67t-29.5 -89.5 q0 -83 60.5 -130.5t154.5 -47.5q104 0 160 56t61 165h121q-4 -153 -98 -246t-244 -93q-155 0 -247.5 77.5t-92.5 214.5z" />
<glyph horiz-adv-x="948" d="M109 416v276q0 196 93 302t249 106q157 0 245 -133l17 108h100v-1149q0 -145 -93.5 -233t-248.5 -88q-149 0 -241.5 84t-100.5 227h117q7 -96 66 -147.5t159 -51.5q103 0 162 55.5t59 153.5v209q-82 -102 -237 -102q-158 0 -252 101t-94 282zM231 416q0 -134 64 -201.5 t180 -67.5q103 0 160 67.5t57 201.5v297q0 133 -61 202.5t-156 69.5q-244 0 -244 -293v-276z" />
<glyph horiz-adv-x="1214" d="M0 0l399 614l-368 461h151l367 -475v879h117v-879l366 475h152l-369 -461l399 -614h-145l-330 518l-73 -92v-426h-117v426l-74 94l-330 -520h-145z" />
<glyph horiz-adv-x="864" d="M61 -10h121q17 -262 228 -262q119 0 182 76.5t63 213.5q0 146 -72.5 227t-203.5 81h-115v114h107q121 0 188.5 73t67.5 208q0 122 -57 191t-158 69q-197 0 -215 -262h-121q9 188 96 284.5t242 96.5q158 0 244.5 -98t86.5 -275q0 -133 -41.5 -214.5t-144.5 -123.5 q116 -39 167.5 -131.5t51.5 -245.5q0 -189 -95.5 -296t-270.5 -107q-162 0 -252 95t-99 286z" />
<glyph horiz-adv-x="946" d="M123 387v688h121v-669q0 -164 46.5 -240t151.5 -76q113 0 180.5 89.5t67.5 244.5v651h121v-1075h-100l-21 133q-91 -158 -278 -158q-137 0 -213 99.5t-76 312.5z" />
<glyph horiz-adv-x="946" d="M123 387v688h121v-669q0 -164 46.5 -240t151.5 -76q113 0 180.5 89.5t67.5 244.5v651h121v-1075h-100l-21 133q-91 -158 -278 -158q-137 0 -213 99.5t-76 312.5zM236 1481h106q5 -69 34.5 -102t90.5 -33t90.5 33t34.5 102h106q-4 -114 -64.5 -176t-166.5 -62t-166.5 62 t-64.5 176z" />
<glyph horiz-adv-x="958" d="M135 387v688h121v-669q0 -164 47 -240t152 -76q113 0 180 89t67 245v651h121v-1075h-100l-21 133q-91 -158 -278 -158q-137 0 -213 99.5t-76 312.5zM287 1481h143l154 -232h-119z" />
<glyph horiz-adv-x="870" d="M135 0v1483h121v-887l408 479h153l-373 -434l426 -641h-145l-363 547l-106 -117v-430h-121z" />
<glyph horiz-adv-x="774" d="M16 0l306 1075h131l305 -1075h-127l-170 629q-15 59 -70 289h-8q-55 -230 -70 -289l-170 -629h-127z" />
<glyph horiz-adv-x="946" d="M135 0v1075h101l20 -133q91 158 279 158q288 0 288 -412v-688h-121v670q0 164 -46.5 239.5t-151.5 75.5q-113 0 -180.5 -89.5t-67.5 -244.5v-651h-121z" />
<glyph horiz-adv-x="1480" d="M135 0v1075h101l18 -139q85 164 268 164q192 0 258 -207q39 97 113.5 152t185.5 55q129 0 204 -104.5t75 -311.5v-684h-121v674q0 164 -46.5 237.5t-137.5 73.5q-110 0 -178 -89.5t-68 -244.5v-651h-121v674q0 163 -48.5 237t-141.5 74q-109 0 -174.5 -89.5t-65.5 -244.5 v-651h-121z" />
<glyph horiz-adv-x="972" d="M123 387v688h121v-669q0 -165 45.5 -240.5t148.5 -75.5q113 0 180.5 89.5t67.5 244.5v651h121v-799q0 -76 13.5 -113.5t36.5 -48t69 -10.5v-340h-117v236q-91 35 -113 147q-91 -172 -288 -172q-141 0 -213 98.5t-72 313.5z" />
<glyph horiz-adv-x="1480" d="M123 391v684h121v-674q0 -164 46.5 -237.5t137.5 -73.5q110 0 178 89.5t68 244.5v651h121v-674q0 -163 48.5 -237t141.5 -74q109 0 174.5 89.5t65.5 244.5v651h121v-1075h-101l-18 139q-85 -164 -269 -164q-192 0 -258 207q-39 -97 -113.5 -152t-185.5 -55 q-129 0 -203.5 104.5t-74.5 311.5z" />
<glyph horiz-adv-x="1503" d="M123 391v684h121v-674q0 -164 47 -237.5t139 -73.5q110 0 175 89.5t65 244.5v651h121v-674q0 -164 47.5 -237.5t140.5 -73.5q108 0 173 89.5t65 244.5v651h120v-799q0 -76 13.5 -113.5t36.5 -48t69 -10.5v-340h-117v236q-89 34 -114 152q-82 -177 -273 -177 q-89 0 -154 50t-98 149q-80 -199 -297 -199q-131 0 -205.5 104.5t-74.5 311.5z" />
<glyph horiz-adv-x="837" d="M123 328v747h121v-442q84 103 235 106q148 3 239 -99.5t91 -277.5q0 -181 -94.5 -284t-251.5 -103q-155 0 -247.5 96.5t-92.5 256.5zM244 356q0 -129 57.5 -195.5t161.5 -66.5q107 0 165 68t58 200q0 128 -57.5 194.5t-165.5 66.5q-103 0 -161 -68.5t-58 -198.5z" />
<glyph horiz-adv-x="946" d="M14 963v112h338v-442q84 103 236 106q148 3 239 -99.5t91 -277.5q0 -181 -95 -284t-252 -103q-155 0 -247.5 96.5t-92.5 256.5v635h-217zM352 356q0 -129 57.5 -195.5t161.5 -66.5q107 0 165.5 68t58.5 200q0 128 -58 194.5t-166 66.5q-103 0 -161 -68.5t-58 -198.5z" />
<glyph horiz-adv-x="1257" d="M141 0v1475h121v-865h195v92q0 185 93.5 286.5t252.5 101.5t252.5 -101.5t93.5 -286.5v-335q0 -185 -93.5 -286t-252.5 -101t-252.5 101t-93.5 286v127h-195v-494h-121zM580 367q0 -135 58 -202t165 -67t165 67t58 202v335q0 135 -58 202t-165 67t-165 -67t-58 -202v-335 z" />
<glyph horiz-adv-x="1130" d="M94 674v114h942v-114h-942z" />
<glyph horiz-adv-x="884" d="M94 674v114h697v-114h-697z" />
<glyph horiz-adv-x="679" d="M94 674v114h492v-114h-492z" />
<glyph horiz-adv-x="888" d="M94 618v62l250 313h123l-272 -344l272 -344h-123zM422 618v62l250 313h123l-273 -344l273 -344h-123z" />
<glyph horiz-adv-x="888" d="M94 305l273 344l-273 344h123l250 -313v-62l-250 -313h-123zM422 305l272 344l-272 344h123l250 -313v-62l-250 -313h-123z" />
<glyph horiz-adv-x="561" d="M94 618v62l250 313h123l-272 -344l272 -344h-123z" />
<glyph horiz-adv-x="561" d="M94 305l273 344l-273 344h123l250 -313v-62l-250 -313h-123z" />
<glyph d="M-418 1694q0 37 22.5 58.5t59.5 21.5q36 0 58 -22t22 -58t-22 -58t-58 -22q-37 0 -59.5 21.5t-22.5 58.5zM-154 1694q0 36 23.5 58t60.5 22t59.5 -21.5t22.5 -58.5t-22.5 -58.5t-59.5 -21.5t-60.5 22t-23.5 58z" />
<glyph d="M-186 1724q0 44 27 71.5t71 27.5t71 -27.5t27 -71.5t-27 -71t-71 -27t-71 27t-27 71z" />
<glyph d="M-354 1806h147l189 -231h-121z" />
<glyph d="M-336 1575l189 231h147l-215 -231h-121z" />
<glyph d="M-446 1575l139 231h137l-168 -231h-108zM-246 1575l148 231h137l-176 -231h-109z" />
<glyph d="M-485 1575l166 231h131l165 -231h-114l-117 143l-117 -143h-114z" />
<glyph d="M-494 1806h115l117 -143l117 143h114l-166 -231h-131z" />
<glyph d="M-467 1806h107q5 -69 34.5 -102t89.5 -33q61 0 90.5 33t34.5 102h107q-4 -114 -65 -175.5t-167 -61.5t-166.5 61.5t-64.5 175.5z" />
<glyph d="M-283 1706q0 61 39.5 99t104.5 38q64 0 103.5 -37.5t39.5 -99.5q0 -63 -39.5 -102t-103.5 -39t-104 39t-40 102zM-203 1704q0 -29 17.5 -46.5t46.5 -17.5q28 0 45.5 17.5t17.5 46.5q0 28 -17.5 45.5t-45.5 17.5q-29 0 -46.5 -17.5t-17.5 -45.5z" />
<glyph d="M-440 1634q3 74 40.5 117t98.5 43q36 0 67 -16.5t53.5 -32.5t39.5 -16q41 0 47 59h102q-8 -75 -44 -117.5t-95 -42.5q-35 0 -65.5 16.5t-53.5 33t-41 16.5q-33 0 -39 -60h-110z" />
<glyph d="M-377 1632v107h377v-107h-377z" />
<glyph d="M-242 1937h88l86 -362h-137z" />
<glyph d="M-197 -510l37 369h133l-75 -369h-95z" />
<glyph d="M-403 -250h100q6 -27 28.5 -42t55.5 -15q38 0 62 18.5t24 52.5q0 70 -80 70q-38 0 -63 -14l-35 33l45 147h88l-31 -102q8 2 29 2q59 0 102 -39t43 -99q0 -75 -52 -118t-136 -43q-74 0 -124 39.5t-56 109.5z" />
<glyph d="M-250 -227q0 120 123 227h113q-51 -44 -85 -102.5t-34 -104.5q0 -38 23 -56t55 -18q44 0 65 7v-107q-35 -12 -84 -12q-89 0 -132.5 48.5t-43.5 117.5z" />
<glyph d="M-449 -90l334 1216h121l-334 -1216h-121z" />
<glyph d="M-780 -76l440 1585h121l-440 -1585h-121z" />
<glyph d="M-467 1481h107q5 -69 34.5 -102t89.5 -33q61 0 90.5 33t34.5 102h107q-4 -114 -65 -176t-167 -62t-166.5 62t-64.5 176z" />
<glyph d="M-467 1806h107q5 -69 34.5 -102t89.5 -33q61 0 90.5 33t34.5 102h107q-4 -114 -65 -175.5t-167 -61.5t-166.5 61.5t-64.5 175.5z" />
</font>
</defs>
</svg>
