<?xml version="1.0" standalone="no"?>
<!DOCTYPE svg PUBLIC "-//W3C//DTD SVG 1.1//EN" "http://www.w3.org/Graphics/SVG/1.1/DTD/svg11.dtd" >
<svg xmlns="http://www.w3.org/2000/svg" xmlns:xlink="http://www.w3.org/1999/xlink" version="1.1">
<metadata></metadata>
<defs>
<font id="db_heaventmed_cond" horiz-adv-x="0" >
<font-face units-per-em="2048" ascent="1638" descent="-410" />
<missing-glyph horiz-adv-x="508" />
<glyph unicode="&#x2b;&#x2d;" horiz-adv-x="1024" d="M74 0v168h877v-168h-877zM74 570v167h350v305h176v-305h351v-167h-351v-311h-176v311h-350z" />
<glyph unicode="&#x2e;&#x2e;&#x2e;" horiz-adv-x="2037" d="M225 0v236h231v-236h-231zM902 0v236h234v-236h-234zM1582 0v236h228v-236h-228z" />
<glyph unicode="&#x3c;&#x3d;" horiz-adv-x="1073" d="M86 0v168h890v-168h-890zM86 709v144l890 437v-184l-672 -323l672 -327v-186z" />
<glyph unicode="&#x3e;&#x3d;" horiz-adv-x="1073" d="M97 0v168h890v-168h-890zM97 270v186l672 327l-672 323v184l890 -437v-144z" />
<glyph unicode="&#xe4f;&#x22;" horiz-adv-x="1412" d="M83 612q0 86 21.5 165t62 148.5t97 126.5t126 96.5t148.5 62t165 22.5q87 0 166 -22.5t148.5 -62t126 -96.5t96 -126.5t61.5 -148.5t22 -165q0 -87 -22 -166t-61.5 -148t-96 -125t-126 -96.5t-148.5 -62.5t-166 -22q-86 0 -165 22t-148.5 62.5t-126 96.5t-97 125t-62 148 t-21.5 166zM256 614q0 -61 16.5 -118t46 -106t69.5 -90t90 -70.5t107 -45.5t118 -16t118 16t107.5 45.5t90.5 70.5t69.5 90t46 106t16.5 118q0 92 -36 174t-96.5 142.5t-142 96t-173.5 35.5q-61 0 -118 -16t-107 -46t-90 -70t-69.5 -90t-46 -107t-16.5 -119zM373 614 q0 68 26 128.5t70.5 105t105 71t128.5 26.5t128.5 -26.5t105 -71t71 -104t26.5 -129.5q0 -68 -26.5 -127.5t-71 -105t-105 -71t-128.5 -25.5t-128.5 25.5t-105 71t-70.5 105t-26 127.5zM461 1690h185l-20 -321h-145zM527 614.5q0 -36.5 14 -68.5t38 -55.5t56 -37.5t68 -14 t68 14t56.5 37.5t38.5 55.5t14 68.5t-14 69t-38.5 56.5t-56.5 38t-68 14t-68 -14t-56 -38t-38 -56.5t-14 -69zM771 1690h185l-19 -321h-145z" />
<glyph unicode="&#xe0e;&#xe3a;" horiz-adv-x="1118" d="M22 0v179h114v652q0 42 -20.5 72.5t-61.5 44.5q38 75 91.5 131.5t119.5 93t141 54t156 17.5q52 0 106.5 -9t103.5 -28t92.5 -46.5t74.5 -64.5t50 -83t19 -101v-1310h-196q-17 21 -40.5 40t-53 34t-64 24t-76.5 9q-40 0 -79.5 -11.5t-76.5 -32.5t-70 -48q-32 -28 -59 -59 v217q25 18 56.5 36.5t67.5 32.5t76.5 24t84.5 10q36 0 68 -5t60 -12.5t51 -17.5q24 -10 41 -20v1050q0 44 -17.5 79.5t-48.5 60t-74.5 38.5t-95.5 14q-45 0 -86 -7t-75 -19.5t-60.5 -30.5t-41.5 -41q8 -11 16.5 -27.5t14.5 -36t10.5 -40.5t4.5 -40v-823h-323zM771 -623 q0 29 10.5 54.5t28.5 44t42 29.5t50 11q29 0 54 -11t44.5 -29.5t30.5 -44.5t11 -54q0 -26 -11 -50.5t-30.5 -42.5t-44.5 -27.5t-54 -9.5q-26 0 -50 9.5t-42 27.5t-28.5 42.5t-10.5 50.5z" />
<glyph unicode="&#xe0f;&#xe3a;" horiz-adv-x="1118" d="M22 0v179h114v652q0 42 -20.5 74t-61.5 43q38 75 91.5 131.5t119.5 93t141 54t156 17.5q52 0 106.5 -9t103.5 -27t92.5 -46t74.5 -64t50 -82t19 -101v-1313h-205q-4 17 -11.5 35t-20 33.5t-29 26t-39.5 10.5q-22 0 -40 -10.5t-29 -26t-18 -33.5t-7 -35h-175 q0 12 -4.5 30.5t-13.5 36t-24 30.5t-39 13q-19 0 -34.5 -10.5t-25 -25.5t-15.5 -35q-6 -19 -6 -39h-191q0 73 20 125.5t54.5 88t81.5 53t99 17.5q62 0 107 -21q43 -21 74 -65q35 42 76 60t80 18q43 0 71.5 -13.5t53.5 -32.5v1041q0 44 -17.5 80.5t-48.5 61.5t-74.5 39 t-95.5 14q-45 0 -86 -8t-75 -21t-60.5 -31t-41.5 -41q8 -11 16.5 -27t14.5 -35.5t10.5 -41t4.5 -40.5v-823h-323zM771 -623q0 29 10.5 54.5t28.5 44t42 29.5t50 11q29 0 54 -11t44.5 -29.5t30.5 -44.5t11 -54q0 -26 -11 -50.5t-30.5 -42.5t-44.5 -27.5t-54 -9.5 q-26 0 -50 9.5t-42 27.5t-28.5 42.5t-10.5 50.5z" />
<glyph unicode="&#xe0e;&#xe38;" horiz-adv-x="1118" d="M22 0v179h114v652q0 42 -20.5 72.5t-61.5 44.5q38 75 91.5 131.5t119.5 93t141 54t156 17.5q52 0 106.5 -9t103.5 -28t92.5 -46.5t74.5 -64.5t50 -83t19 -101v-1310h-196q-17 21 -40.5 40t-53 34t-64 24t-76.5 9q-40 0 -79.5 -11.5t-76.5 -32.5t-70 -48q-32 -28 -59 -59 v217q25 18 56.5 36.5t67.5 32.5t76.5 24t84.5 10q36 0 68 -5t60 -12.5t51 -17.5q24 -10 41 -20v1050q0 44 -17.5 79.5t-48.5 60t-74.5 38.5t-95.5 14q-45 0 -86 -7t-75 -19.5t-60.5 -30.5t-41.5 -41q8 -11 16.5 -27.5t14.5 -36t10.5 -40.5t4.5 -40v-823h-323zM723 -509h285 v-417h-193v245h-92v172z" />
<glyph unicode="&#xe0f;&#xe38;" horiz-adv-x="1118" d="M22 0v179h114v652q0 42 -20.5 74t-61.5 43q38 75 91.5 131.5t119.5 93t141 54t156 17.5q52 0 106.5 -9t103.5 -27t92.5 -46t74.5 -64t50 -82t19 -101v-1313h-205q-4 17 -11.5 35t-20 33.5t-29 26t-39.5 10.5q-22 0 -40 -10.5t-29 -26t-18 -33.5t-7 -35h-175 q0 12 -4.5 30.5t-13.5 36t-24 30.5t-39 13q-19 0 -34.5 -10.5t-25 -25.5t-15.5 -35q-6 -19 -6 -39h-191q0 73 20 125.5t54.5 88t81.5 53t99 17.5q62 0 107 -21q43 -21 74 -65q35 42 76 60t80 18q43 0 71.5 -13.5t53.5 -32.5v1041q0 44 -17.5 80.5t-48.5 61.5t-74.5 39 t-95.5 14q-45 0 -86 -8t-75 -21t-60.5 -31t-41.5 -41q8 -11 16.5 -27t14.5 -35.5t10.5 -41t4.5 -40.5v-823h-323zM723 -509h285v-417h-193v245h-92v172z" />
<glyph unicode="&#xe0e;&#xe39;" horiz-adv-x="1118" d="M22 0v179h114v652q0 42 -20.5 72.5t-61.5 44.5q38 75 91.5 131.5t119.5 93t141 54t156 17.5q52 0 106.5 -9t103.5 -28t92.5 -46.5t74.5 -64.5t50 -83t19 -101v-1310h-196q-17 21 -40.5 40t-53 34t-64 24t-76.5 9q-40 0 -79.5 -11t-76.5 -30.5t-70 -45.5q-32 -28 -59 -58 v211q25 18 56.5 36.5t67.5 32.5t76.5 24t84.5 10q36 0 68 -5t60 -12.5t51 -17.5q24 -10 41 -20v1050q0 44 -17.5 79.5t-48.5 60t-74.5 38.5t-95.5 14q-45 0 -86 -7t-75 -19.5t-60.5 -30.5t-41.5 -41q8 -11 16.5 -27.5t14.5 -36t10.5 -40.5t4.5 -40v-823h-323zM364 -509h285 v-205q-1 -101 82.5 -101t83.5 101v205h193v-205q-2 -53 -16.5 -102t-47 -85t-84.5 -57q-54 -21 -129 -21t-128 21t-85 57t-47 85t-15 102v36h-92v169z" />
<glyph unicode="&#xe0f;&#xe39;" horiz-adv-x="1118" d="M22 0v179h114v652q0 42 -20.5 74t-61.5 43q38 75 91.5 131.5t119.5 93t141 54t156 17.5q52 0 106.5 -9t103.5 -27t92.5 -46t74.5 -64t50 -82t19 -101v-1313h-205q-4 17 -11.5 35t-20 33.5t-29 26t-39.5 10.5q-22 0 -40 -10.5t-29 -26t-18 -33.5t-7 -35h-175 q0 12 -4.5 30.5t-13.5 36t-24 30.5t-39 13q-19 0 -34.5 -10.5t-25 -25.5t-15.5 -35q-6 -19 -6 -39h-191q0 73 20 125.5t54.5 88t81.5 53t99 17.5q62 0 107 -21q43 -21 74 -65q35 42 76 60t80 18q43 0 71.5 -13.5t53.5 -32.5v1041q0 44 -17.5 80.5t-48.5 61.5t-74.5 39 t-95.5 14q-45 0 -86 -8t-75 -21t-60.5 -31t-41.5 -41q8 -11 16.5 -27t14.5 -35.5t10.5 -41t4.5 -40.5v-823h-323zM364 -509h285v-205q-1 -101 82.5 -101t83.5 101v205h193v-205q-2 -53 -16.5 -102t-47 -85t-84.5 -57q-54 -21 -129 -21t-128 21t-85 57t-47 85t-15 102v36h-92 v169z" />
<glyph unicode=" "  horiz-adv-x="508" />
<glyph unicode="&#x09;" horiz-adv-x="508" />
<glyph unicode="&#xa0;" horiz-adv-x="508" />
<glyph unicode="!" horiz-adv-x="679" d="M225 0v231h231v-231h-231zM225 980v441h231v-441l-49 -635h-137z" />
<glyph unicode="&#x22;" horiz-adv-x="540" d="M86 965v454h142v-454h-142zM314 965v454h142v-454h-142z" />
<glyph unicode="#" horiz-adv-x="1175" d="M74 464l51 162h206l55 168h-209l54 161h208l156 466h174l-157 -466h108l153 466h169l-154 -466h213l-50 -161h-217l-51 -168h211l-49 -162h-219l-151 -464h-171l152 464h-106l-157 -464h-168l153 464h-204zM500 626h117l59 168h-117z" />
<glyph unicode="$" horiz-adv-x="1016" d="M54 471h205v-75t5.5 -68.5t15 -61t27.5 -50t47.5 -34t69.5 -17.5v491q-72 29 -137 64t-115 81.5t-79.5 107.5t-29.5 142q0 78 25.5 144.5t72.5 116.5t114 80.5t149 41.5v194h160v-191q80 -8 144 -40t108.5 -83.5t67 -122.5t19.5 -154h-209q-2 44 -6.5 79.5t-18 63.5 t-38.5 46.5t-67 27.5v-442q64 -25 116.5 -49t96 -50t76 -56.5t54 -69t32.5 -87t11 -111.5q0 -89 -25.5 -160.5t-75 -124.5t-121.5 -85.5t-164 -40.5v-192h-160v195q-115 8 -190.5 44t-118.5 100t-56 151.5t-5 194.5zM285 1068q0 -38 10.5 -67t29 -52t44.5 -41t55 -32v372 q-26 -5 -51 -17.5t-44.5 -33.5t-31.5 -53t-12 -76zM584 165q42 5 72.5 21.5t51 43t30.5 62t10 76.5q0 46 -11 80t-32 60t-51.5 45.5t-69.5 37.5v-426z" />
<glyph unicode="%" horiz-adv-x="1611" d="M97 1065q0 71 14 136t47.5 114.5t91 80t145.5 30.5q83 0 138.5 -32t87.5 -84.5t44.5 -118t12.5 -135.5q0 -97 -20 -166.5t-57.5 -114.5t-91 -66.5t-121.5 -21.5q-67 0 -120.5 21.5t-91.5 67t-58.5 117.5t-20.5 172zM288 1033q0 -28 2.5 -60.5t13 -60.5t30 -46.5 t55.5 -18.5q34 0 54.5 18.5t30.5 46.5t12.5 60t2.5 61v46t-2.5 50t-9 49t-17.5 43t-28.5 30t-42.5 11t-43 -11t-29 -30t-16.5 -43t-8.5 -49t-3.5 -50t-0.5 -46zM404 0l633 1421h161l-623 -1421h-171zM931 373q0 70 14 135t49 115t92.5 80.5t145.5 30.5q83 0 138 -32t86 -85 t44 -119q12 -64 12 -134q0 -97 -19.5 -166.5t-57 -114.5t-91.5 -67t-121 -22t-120.5 21t-91.5 67t-59 118t-21 173zM1123 341q0 -28 3 -61t13.5 -60.5t30.5 -46.5t56 -19q33 0 52.5 19t30.5 46.5t14 59.5t3 62q0 19 -0.5 44.5t-3.5 50.5t-9 49.5t-17.5 43.5t-29.5 30t-43 11 t-41.5 -11t-27.5 -30t-18 -43.5t-10 -49.5t-3 -50v-45z" />
<glyph unicode="&#x26;" horiz-adv-x="1358" d="M122 403q0 81 24 142t66 111t98.5 90.5t123.5 79.5q-31 36 -56 69.5t-42.5 67.5t-27 72t-9.5 85q0 63 24.5 120.5t66.5 102t102 71.5q58 26 131 26q75 0 136 -22t104 -62t67 -96t24 -126q0 -57 -22 -107t-57 -93.5t-81 -80.5q-46 -36 -93 -66l258 -331q20 56 31 115.5 t18 119.5h196q-4 -53 -12 -106t-22 -105t-32 -100.5t-43 -91.5l237 -288h-259l-108 121q-35 -33 -76 -60.5t-88.5 -46t-97.5 -29t-103 -10.5q-108 0 -197 30t-151.5 85.5t-96 135.5t-33.5 177zM345 400q0 -55 20.5 -99.5t57.5 -75t88 -47.5t109 -17q33 0 65 8.5t61.5 22.5 t54.5 33q25 20 47 42l-310 417q-39 -27 -73.5 -56.5t-61 -64.5t-42.5 -75t-16 -88zM500 1140q0 -28 9 -54.5t24 -53t32 -52.5t35 -51q30 19 55.5 40.5t45 46t30.5 53.5t11 65q0 25 -7 51t-20.5 46t-35.5 33q-20 12 -51 12q-29 0 -52.5 -12.5t-39.5 -31.5t-26 -43t-10 -49z " />
<glyph unicode="'" horiz-adv-x="508" d="M182 965v456h143v-456h-143z" />
<glyph unicode="(" horiz-adv-x="679" d="M125 506q0 94 10 179.5t28 164.5t45.5 152.5t63 146.5t79.5 147.5t97 154.5h152q-22 -44 -49.5 -95.5t-55.5 -114t-54.5 -135.5t-47 -161.5t-33 -192.5t-12.5 -228q0 -133 14.5 -252t45.5 -233t81 -226.5t120 -228.5h-161q-69 106 -128 216t-102 224.5t-68 234.5 q-25 119 -25 247z" />
<glyph unicode=")" horiz-adv-x="679" d="M68 1451h166q66 -93 125 -200t103 -224.5t69 -243.5t25 -253q0 -95 -9.5 -180t-28 -163.5t-45.5 -152t-62.5 -147t-80 -148.5t-96.5 -155h-151q23 45 50.5 96.5t55.5 113t53.5 135.5t46 162t33 193t12.5 228q0 132 -15 252t-46 234.5t-81 226.5t-124 226z" />
<glyph unicode="*" horiz-adv-x="1016" d="M171 1195l51 128l220 -85v234h145v-228l222 79l42 -133l-223 -71l152 -177l-120 -89l-154 189l-142 -177l-125 75l150 173z" />
<glyph unicode="+" horiz-adv-x="1024" d="M74 407v168h350v351h176v-351h351v-168h-351v-358h-176v358h-350z" />
<glyph unicode="," horiz-adv-x="511" d="M142 0v231h228v-231q0 -61 -14 -112.5t-42.5 -91t-71 -65.5t-100.5 -33v134q33 7 52.5 25t29.5 42.5t12.5 50.5t2.5 50h-97z" />
<glyph unicode="-" horiz-adv-x="706" d="M74 407v168h557v-168h-557z" />
<glyph unicode="." horiz-adv-x="511" d="M142 0v236h228v-236h-228z" />
<glyph unicode="/" horiz-adv-x="625" d="M-22 -51l492 1502h179l-499 -1502h-172z" />
<glyph unicode="0" horiz-adv-x="967" d="M54 721q0 50 1.5 108t8 117.5t17.5 119.5t31.5 115.5t52.5 103t76.5 82t104.5 54t138 19.5t137.5 -19.5t104 -54t76 -82t51.5 -103t32.5 -115.5t18 -119.5t7 -117.5t1.5 -108q0 -61 -1.5 -125t-8.5 -127t-18 -124t-32 -115.5t-53 -100.5t-76.5 -79t-102.5 -52t-136 -19 q-103 0 -174.5 32.5t-119.5 88.5t-74.5 129.5t-40.5 155.5t-17.5 169t-3.5 167zM270 728q0 -61 1 -127t7.5 -128t19.5 -116t37 -95.5t60 -65.5t89 -24q50 0 85.5 24t59 65.5t36.5 95.5t20 116t9 127q1 67 1 128q0 56 -2 117t-9 119.5t-20 110t-37 91t-58.5 62.5t-84.5 23 q-54 0 -91 -26.5t-60.5 -69.5t-36 -97t-18.5 -112.5t-7 -115.5t-1 -102z" />
<glyph unicode="1" horiz-adv-x="964" d="M114 992v174q79 2 140.5 15.5t105 43t70.5 77.5q26 49 34 119h177v-1421h-214v1036q-50 -23 -130 -33.5t-183 -10.5z" />
<glyph unicode="2" horiz-adv-x="964" d="M51 0q0 64 8 129.5t27.5 126.5t55.5 118t92 107l290 253q38 33 65 63.5t45 67t27 78t9 95.5q0 45 -11 84.5t-35.5 68.5t-62.5 46t-91 17q-66 0 -105.5 -26.5t-61 -71t-27.5 -104.5t-4 -129h-209q0 122 22.5 219.5t72.5 164t128 101.5t189 35q102 0 179 -29.5t128.5 -83.5 t77 -129.5t25.5 -167.5q0 -78 -17 -142.5t-48.5 -120.5t-76.5 -105q-45 -51 -102 -98l-268 -226q-39 -34 -60.5 -70t-30.5 -82h617v-189h-848z" />
<glyph unicode="3" horiz-adv-x="964" d="M42 461h217q-5 -55 3 -105t31.5 -89t66.5 -62.5t110 -23.5q55 0 95.5 16t67 44.5t39 67.5t12.5 83q0 81 -18 133.5t-58.5 83t-106 42t-156.5 9.5v181q40 1 78 4t71.5 9t60.5 19.5t47.5 37t31 58.5t10.5 85q0 41 -9 77.5t-31 62t-57 40t-86 14.5q-58 0 -94 -19.5t-57 -54 t-28 -80.5t-7 -96h-207q-4 95 17 177t69.5 141.5t125.5 93t184 33.5q91 0 164 -26t124 -74t79 -116t28 -154q0 -51 -5.5 -95.5t-21.5 -83t-44.5 -70.5t-73.5 -57q50 -21 85.5 -53.5t57 -74t32 -91.5t10.5 -103q0 -103 -25 -188t-78.5 -146t-137 -95t-199.5 -34 q-120 0 -200.5 35.5t-129 99.5t-69.5 153t-18 191z" />
<glyph unicode="4" horiz-adv-x="964" d="M36 341v176l567 904h187v-884h134v-196h-134v-341h-216v341h-538zM264 528h310v444l8 84l-32 -76z" />
<glyph unicode="5" horiz-adv-x="964" d="M57 407h218q-1 -54 8 -97t31 -72.5t59 -44.5t91 -15q56 0 97.5 25t68.5 68t40.5 97.5t13.5 112.5q0 54 -10 107.5t-35.5 96.5t-69.5 70.5t-110 27.5q-34 0 -61 -5t-48.5 -17.5t-38.5 -34.5q-16 -20 -33 -53h-204l87 748h684v-192h-500l-39 -306q36 26 84.5 37.5 t101.5 11.5q72 0 130.5 -17.5t103 -49.5t78 -76.5t54 -96t31 -108.5t10.5 -118q0 -64 -9.5 -126.5t-31 -121t-55 -109t-81.5 -87.5t-111 -58.5t-144 -21.5q-103 0 -182 28.5t-130.5 82.5t-76.5 133.5t-21 180.5z" />
<glyph unicode="6" horiz-adv-x="964" d="M54 648q0 64 1 132.5t6.5 136t16.5 133t32 122.5t54 105.5t80.5 84.5t111.5 55.5t147 19.5q84 0 150.5 -20.5t114 -66t76.5 -115t39 -165.5h-223q-5 53 -19.5 88t-37 54.5t-51 26t-64.5 6.5q-47 0 -82.5 -18t-59.5 -47.5t-39 -70t-23.5 -85.5t-11 -94t-2.5 -95 q50 53 112.5 77.5t129.5 24.5q102 0 180 -37.5t128 -101t75 -145.5q25 -80 25 -169q0 -114 -29 -207.5t-84 -158.5t-133 -100.5t-174 -35.5q-102 0 -176 28.5t-124 78.5t-79 116t-43.5 140.5t-19 152t-4.5 150.5zM282 489q0 -89 15.5 -148t44 -94.5t67.5 -50.5t89 -15 q40 0 71 13t53.5 35.5t36.5 51.5t23 61.5t12.5 67.5t3.5 65q0 50 -10 99t-33.5 85.5t-65 59.5t-103.5 23t-101.5 -23.5t-62.5 -60.5t-31.5 -82t-8.5 -87z" />
<glyph unicode="7" horiz-adv-x="964" d="M51 1229v192h866v-164q-102 -134 -187 -285t-147 -311.5t-101.5 -327t-54.5 -333.5h-237q23 167 64 330t102 318t141.5 301t180.5 280h-627z" />
<glyph unicode="8" horiz-adv-x="964" d="M60 417q0 71 16.5 127t45 98.5t65.5 72.5q35 30 77 47q-42 22 -71.5 52.5t-48.5 69.5t-28.5 84t-9.5 95q0 45 9 90t28.5 87.5t50.5 79.5t74 64.5t101.5 43t130.5 15.5q84 0 151.5 -23.5t115.5 -72.5t73 -120t25 -162q0 -46 -8.5 -90t-28 -83t-47.5 -71q-28 -34 -67 -57 q53 -19 89.5 -56t60 -84t34.5 -100.5t11 -106.5q0 -95 -23.5 -176t-73.5 -140t-129 -93q-80 -34 -191 -34q-107 0 -187.5 29.5t-135.5 86t-82 139t-27 188.5zM278 417q0 -53 10.5 -99t35.5 -79t67 -53q40 -21 104 -21q44 0 79 16t60 47t39 78t14 111q0 47 -11.5 91.5t-35 78 t-62.5 53.5t-94 20q-56 0 -95 -20t-64 -55t-36 -78t-11 -90zM325 1059q0 -44 10 -81.5t30.5 -65.5t52.5 -44q30 -16 74 -16q45 0 74 16.5t47 45t25.5 65t7.5 77.5q0 39 -7.5 74t-25.5 62.5t-48.5 44.5t-75.5 17q-46 0 -77 -15.5t-50.5 -41t-28 -61t-8.5 -77.5z" />
<glyph unicode="9" horiz-adv-x="964" d="M54 937q0 114 28.5 207t83 157.5t132 100t175.5 35.5q102 0 176 -29t124 -78.5t79 -115.5t44.5 -139.5t19.5 -151.5t4 -153q0 -64 -1.5 -132t-7 -135.5t-16.5 -132t-32 -123t-53.5 -107t-80 -83.5t-112 -55t-147.5 -20q-85 0 -151 21.5t-113.5 66t-75.5 113.5 q-27 70 -38 167h222q6 -53 20 -87.5t36.5 -54t52.5 -26.5t69 -7q46 0 80 17.5t57.5 47.5t37.5 70t22.5 86t11 94.5t2.5 93.5q-50 -53 -112.5 -76.5t-129.5 -23.5q-102 0 -179.5 37.5t-128 100t-75 144.5t-24.5 171zM275 945q0 -51 10 -99t34 -85.5t65 -60t102 -22.5 q64 0 104 24t63 60t31 81t8 88q0 86 -15 144.5t-44.5 95t-69 53t-88.5 16.5q-40 0 -70.5 -14t-53 -36t-37 -51.5t-22.5 -61.5t-12.5 -66.5t-4.5 -65.5z" />
<glyph unicode=":" horiz-adv-x="511" d="M142 0v236h228v-236h-228zM142 823v236h228v-236h-228z" />
<glyph unicode=";" horiz-adv-x="511" d="M142 0v231h228v-231q0 -61 -14 -112.5t-42.5 -91t-71 -65.5t-100.5 -33v134q33 7 52.5 25t29.5 42.5t12.5 50.5t2.5 50h-97zM142 823v236h228v-236h-228z" />
<glyph unicode="&#x3c;" horiz-adv-x="1073" d="M86 448v144l890 470v-182l-674 -359l674 -356v-187z" />
<glyph unicode="=" horiz-adv-x="1024" d="M74 225v167h877v-167h-877zM74 592v168h877v-168h-877z" />
<glyph unicode="&#x3e;" horiz-adv-x="1073" d="M97 -22v187l669 356l-669 359v182l890 -470v-144z" />
<glyph unicode="?" horiz-adv-x="1016" d="M100 955q-3 61 5 120t29.5 112t57.5 98t87.5 78t119 52t151.5 19q89 0 165.5 -27.5t132.5 -79t86.5 -122.5t30.5 -157q0 -58 -11.5 -105.5t-30.5 -85t-45.5 -68.5t-57 -61t-63.5 -60t-65 -65q-33 -36 -50.5 -65t-25 -61t-9 -69.5t-1.5 -90.5h-225q0 56 2.5 97.5t8.5 75.5 t17 62.5t29.5 56.5t46 58.5t65.5 66.5q32 32 65 65.5t58.5 70t41.5 78.5t16 90q0 38 -9.5 77.5t-30.5 72t-56 53.5t-85 21q-72 0 -118 -27.5t-71 -71t-33 -99t-6 -109.5h-222zM381 0v228h228v-228h-228z" />
<glyph unicode="@" horiz-adv-x="1676" d="M150 713q0 106 26 204t71.5 182.5t110.5 152.5t144 117t170.5 75.5t189.5 26.5q89 0 172.5 -20.5t157 -58.5t134.5 -93.5t104 -126.5t68 -157t25 -184q0 -69 -17 -133t-48.5 -119.5t-74.5 -103t-95 -81.5t-111 -55.5t-123 -25.5q-20 -2 -45 1.5t-47 12.5t-41.5 23 t-29.5 35q-25 -25 -49.5 -39t-47.5 -21.5t-45.5 -9.5t-47.5 -2q-59 0 -105 23t-77 63t-47 93.5t-16 113.5q0 61 11 122.5t34.5 117t58.5 104t79.5 83.5t100.5 55q55 20 122 20q51 0 100 -21.5t92 -77.5l16 70h150l-166 -526q-6 -16 -11.5 -33t-5.5 -31.5t9.5 -23.5t37.5 -9 q45 0 84 16.5t70.5 45t55.5 67t40.5 80t25.5 86t9 84.5q0 112 -39.5 199.5t-107.5 147t-161.5 91t-198.5 31.5q-78 0 -149 -22.5t-132 -61t-112 -94.5t-87 -121t-55.5 -139t-19.5 -153t19 -153t55 -137.5t86 -118t111 -92t133.5 -58.5t150.5 -21q61 0 126.5 12.5t128 39 t118 68.5t97.5 97h197q-57 -100 -131.5 -171.5t-160 -118.5t-180.5 -70t-195 -23q-103 0 -195 26t-171 73.5t-143 114t-108.5 150t-69.5 180t-25 202.5zM609 612q0 -31 5.5 -60t18.5 -50t34.5 -33.5t55.5 -12.5q40 0 74 20t62 53t49 76t34.5 86t20.5 84.5t7 75.5q0 25 -4 47 t-16.5 39t-32 28t-50.5 14q-46 0 -82.5 -17t-64.5 -46t-48.5 -66t-34.5 -78t-21 -82.5t-7 -77.5z" />
<glyph unicode="A" horiz-adv-x="1152" d="M3 0l439 1421h275l434 -1421h-236l-114 384h-456l-109 -384h-233zM402 575h349l-162 561l-14 61l-11 -61z" />
<glyph unicode="B" horiz-adv-x="1130" d="M133 0v1421h470h15q99 0 171 -24q77 -26 126.5 -73.5t73 -115.5t24.5 -150q0 -52 -7.5 -96.5t-26.5 -82.5t-51.5 -69.5t-82.5 -54.5q56 -18 96 -50t64 -74t35 -93.5t11 -109.5v-10q0 -212 -119 -318q-112 -101 -329 -101q-16 0 -33 1h-437zM348 178h255q61 0 105 14 t71 43t39.5 73.5t12.5 105.5q0 59 -11.5 100t-34.5 66.5t-55 39.5t-70.5 20t-82 7t-91.5 1h-138v-470zM348 833h138q73 0 128.5 5.5t94.5 27t59 62.5q18 37 17 100v13q0 58 -13 96.5t-48 60.5t-93 32t-147 10h-136v-407z" />
<glyph unicode="C" horiz-adv-x="1132" d="M81 726q0 80 6 165t25 165t54.5 151.5t93 124t139.5 84.5t196 32t201.5 -36.5t145.5 -99.5q58 -64 86 -152q26 -82 26 -173v-14h-214q-2 61 -14.5 114.5t-41 93t-75.5 63.5t-117 24q-68 0 -115 -28t-80 -73t-51.5 -103t-28.5 -117.5t-12.5 -116.5t-2.5 -102 q0 -50 2 -111.5t10 -125t25 -122.5t47.5 -105.5t78 -74.5t116.5 -28q81 0 132 32t79 85q30 52 40 122q9 58 8 121v24h214q1 -17 0 -34q0 -96 -19 -183q-23 -103 -78.5 -180.5t-144.5 -123.5t-217 -46q-93 0 -164.5 18t-125 51.5t-91 78.5t-63 100t-40 116t-21.5 125t-8 130 q-1 65 -1 129z" />
<glyph unicode="D" horiz-adv-x="1241" d="M133 0v1421h454q125 0 214 -28t150 -76.5t98.5 -115.5t57 -145.5t25.5 -165.5t6 -177q0 -86 -9 -173t-30.5 -166t-59 -147.5t-95 -119t-139.5 -79t-191 -28.5h-481zM348 178h258q88 0 147.5 32t96.5 100t53.5 175t16.5 256q0 49 -2.5 104.5t-12.5 111t-29.5 107t-54 90.5 t-87.5 62.5t-128 23.5h-258v-1062z" />
<glyph unicode="E" horiz-adv-x="1024" d="M133 0v1421h823v-181h-608v-413h572v-182h-572v-467h611v-178h-826z" />
<glyph unicode="F" horiz-adv-x="936" d="M133 0v1421h776v-181h-561v-407h522v-185h-522v-648h-215z" />
<glyph unicode="G" horiz-adv-x="1249" d="M83 719q0 83 7 168.5t28 166t58 151.5t96 124t143.5 83.5t198.5 30.5q116 0 207 -33.5t153 -94t94 -145.5q30 -86 30 -193h-218q0 63 -15.5 114.5t-46.5 89t-80 58t-115 22.5h-6q-74 0 -125 -23q-54 -23 -89.5 -65.5t-56.5 -98t-30.5 -116.5t-11.5 -124.5t-2 -120.5 q0 -50 0.5 -109t7.5 -119.5t22.5 -117.5t46 -101.5t78.5 -72.5q49 -29 118 -32q12 -1 23 -1q57 0 100 13q51 15 86.5 43.5t58 68.5t35 86.5t16.5 97.5t5 102h-340v178h554v-749h-155l-24 164q-58 -92 -141.5 -139t-192.5 -47q-88 0 -157.5 18t-122.5 51.5t-92 78.5 t-65.5 98.5t-41.5 114.5t-23.5 125t-11.5 128t-3 127z" />
<glyph unicode="H" horiz-adv-x="1252" d="M133 0v1421h215v-577h554v577h217v-1421h-217v664h-554v-664h-215z" />
<glyph unicode="I" horiz-adv-x="568" d="M177 0v1421h215v-1421h-215z" />
<glyph unicode="J" horiz-adv-x="907" d="M22 359v116h214v-102q0 -42 3.5 -81t19.5 -70.5t46.5 -50t86.5 -18.5t89 18.5t50.5 50t22.5 70.5t5 81v1048h212v-1062q0 -114 -27 -189t-77.5 -119t-121 -61.5t-156.5 -17.5q-110 0 -180.5 28.5t-111.5 79.5t-58 121.5t-17 157.5z" />
<glyph unicode="K" horiz-adv-x="1138" d="M136 0v1421h212v-647q132 163 259 324t260 323h269l-490 -598q125 -203 251 -412t251 -411h-265l-388 645q-35 -38 -72.5 -77.5t-69.5 -81.5v-486h-217z" />
<glyph unicode="L" horiz-adv-x="1010" d="M136 0v1421h214v-1243h631v-178h-845z" />
<glyph unicode="M" horiz-adv-x="1608" d="M136 0v1421h342l312 -1082l13 -69q5 21 8.5 39.5t8.5 29.5l313 1082h339v-1421h-217v1151l-5 -22l-330 -1129h-236l-331 1148v-1148h-217z" />
<glyph unicode="N" horiz-adv-x="1257" d="M136 0v1421h312l426 -1073l35 -114l-3 134v1053h216v-1421h-313l-423 1045l-41 139l5 -197v-987h-214z" />
<glyph unicode="O" horiz-adv-x="1249" d="M97 731q0 84 5.5 172t26 170t56 154.5t95 126t145.5 85.5q84 32 203 32q117 0 200.5 -32t142 -85.5t93 -126t54 -154.5t26.5 -169q7 -89 7 -173q0 -101 -7.5 -199t-27 -185.5t-55 -161.5t-94 -126.5t-143.5 -83.5t-201 -31q-117 0 -200.5 31t-142 83.5t-94.5 126.5 t-55.5 161.5t-26.5 185.5t-7 199zM320 728q0 -150 10.5 -261t43 -186t92 -112.5t157 -37.5t157.5 37.5t93 112.5t44.5 186t11.5 261q0 77 -6 148t-18.5 132.5t-35 111.5t-57 86.5t-81.5 56.5t-111 20q-61 0 -107 -20t-79.5 -56.5t-55.5 -86.5t-36 -111.5t-19 -132.5 q-3 -73 -3 -148z" />
<glyph unicode="P" horiz-adv-x="1127" d="M136 0v1421h439q64 0 126.5 -10t118.5 -29.5t103 -51.5t82 -77t54.5 -104t19.5 -133q0 -94 -22.5 -162.5t-62.5 -116.5t-97 -77t-128 -45.5t-155 -23.5q-83 -7 -175 -7h-86v-584h-217zM353 762h153q56 0 103 4t86 13t69.5 26.5t51.5 44.5t31 67q9 41 9 96 q0 75 -25.5 120.5t-71.5 69t-108 31.5q-48 7 -101 7q-18 0 -36 -1h-161v-478z" />
<glyph unicode="Q" horiz-adv-x="1244" d="M97 731q0 84 5.5 172t26 170t56 154.5t95 126t145.5 85.5q84 32 203 32q117 0 200.5 -32t142 -85.5t93 -126t54 -154.5t26.5 -169q7 -89 7 -173q0 -103 -7.5 -200t-28 -184.5t-56 -161.5t-93.5 -127l182 -190h-242l-98 101q-39 -11 -85.5 -18t-99.5 -7q-117 0 -200.5 31 t-142 83.5t-94.5 126.5t-55.5 161.5t-26.5 186t-7 198.5zM320 728q0 -150 10.5 -261t43 -186t92 -112.5t157.5 -37.5h14t14 1l-169 174h246l98 -100q30 33 50.5 83t32 115.5t16 146t4.5 177.5q0 77 -6 148t-18.5 132.5t-35 111.5t-57 86.5t-81.5 56.5t-111 20 q-61 0 -107 -20t-79.5 -56.5t-55.5 -86.5t-36 -111.5t-19 -132.5q-3 -73 -3 -148z" />
<glyph unicode="R" horiz-adv-x="1232" d="M136 0v1421h431q125 0 224 -16t168.5 -60t105.5 -122t36 -203q0 -47 -10 -95.5t-34 -94t-62 -85.5q-39 -39 -94 -69q19 -17 37 -38t35 -46t30 -55.5t20 -66.5l42 -220q5 -28 13.5 -54t22.5 -55.5t37 -64t57 -76.5h-244q-35 42 -55 93.5t-31 103.5l-50 237 q-10 47 -29.5 79t-44 52t-48.5 29q-26 9 -45 9h-295v-603h-217zM353 785h278q18 0 44 3.5t54.5 12.5t56 25t48.5 42q22 26 36 64q13 35 13 81v7q0 50 -15.5 85.5t-40 60t-55.5 39t-65 22t-67.5 10.5t-61.5 3h-225v-455z" />
<glyph unicode="S" horiz-adv-x="1132" d="M78 489h210q0 -75 11.5 -136t42.5 -104t83.5 -67t136.5 -24q55 0 105 12.5t87.5 38.5t60 65.5t22.5 95.5q0 46 -14 77t-36.5 53.5t-54 39t-66.5 33.5l-338 155q-117 56 -172.5 138t-55.5 200q0 89 32 160.5t90.5 120.5t140.5 75t180 26q112 0 201.5 -27.5t150.5 -81 t91 -135.5q25 -68 26 -154q0 -17 -1 -34h-216v7q1 53 -13 97q-14 46 -43.5 79t-74.5 51q-44 18 -105 18q-70 0 -115.5 -18t-72 -46.5t-38 -65t-11.5 -72.5q0 -33 8.5 -58t25.5 -45.5t42 -37t58 -31.5l289 -132q72 -34 130.5 -70.5t99.5 -82t62.5 -99.5t21.5 -121 q0 -103 -34.5 -180.5t-99.5 -129t-157 -78t-206 -26.5q-134 0 -228 32t-152 96t-83 160q-21 85 -21 198v28z" />
<glyph unicode="T" horiz-adv-x="1016" d="M13 1240v181h991v-181h-387v-1240h-214v1240h-390z" />
<glyph unicode="U" horiz-adv-x="1246" d="M136 403v1018h217v-1008q0 -25 3 -53.5t12.5 -56.5t27.5 -53t47.5 -44.5t74 -32t105.5 -12.5t105.5 12.5t75 32t48.5 44.5t28 53t13.5 56.5t3.5 53.5v1008h212v-1018q0 -111 -34.5 -191.5t-98.5 -132t-154 -76.5q-91 -25 -199 -25q-109 0 -198.5 26.5t-153.5 78.5 t-99.5 132t-35.5 188z" />
<glyph unicode="V" horiz-adv-x="1163" d="M8 1421h234l320 -1096l16 -126l17 126l322 1096h239l-450 -1421h-256z" />
<glyph unicode="W" horiz-adv-x="1719" d="M17 1421h236l214 -987q3 -11 4.5 -30.5t4 -40.5t4 -39t4.5 -27l16 137l228 987h259l211 -987q3 -14 6 -33.5t5.5 -39.5t4.5 -40q1 -19 4 -32q2 14 4.5 34t4.5 41t4.5 40t6.5 30l227 987h236l-361 -1421h-259l-208 958q-3 14 -5.5 32.5t-5 38t-4.5 39.5t-5 37l-19 -147 l-225 -958h-259z" />
<glyph unicode="X" horiz-adv-x="1132" d="M3 0l450 734l-436 687h253l303 -511l294 511h255l-430 -687l441 -734h-263l-303 550l-308 -550h-256z" />
<glyph unicode="Y" horiz-adv-x="1152" d="M-3 1421h237l339 -665l339 665h239l-470 -879v-542h-217v542z" />
<glyph unicode="Z" horiz-adv-x="1089" d="M63 0v156l714 1084h-694v181h933v-160l-714 -1083h727v-178h-966z" />
<glyph unicode="[" horiz-adv-x="679" d="M179 -407v1858h402v-161h-195v-1529h195v-168h-402z" />
<glyph unicode="\" horiz-adv-x="625" d="M-22 1451h178l493 -1502h-174z" />
<glyph unicode="]" horiz-adv-x="679" d="M95 -239h198v1529h-198v161h403v-1858h-403v168z" />
<glyph unicode="^" horiz-adv-x="1016" d="M103 620l336 858h136l342 -858h-169l-239 603q-59 -147 -120 -301q-64 -155 -119 -302h-167z" />
<glyph unicode="_" horiz-adv-x="1016" d="M0 -117h1016v-155h-1016v155z" />
<glyph unicode="`" horiz-adv-x="679" d="M114 1480h259l194 -287h-178z" />
<glyph unicode="a" horiz-adv-x="902" d="M38 300q0 74 23.5 129t63 95t93 67.5t113.5 43.5t122.5 24t120.5 11v118q0 78 -37 110.5t-113 32.5q-82 0 -120 -48q-34 -45 -34 -125v-13h-191v12q-1 171 87 253q90 84 270 85q84 0 142.5 -13.5t96 -39t59 -56t32 -64.5t12.5 -67.5t2 -60.5v-583q0 -19 3.5 -47t9 -57 t12.5 -58.5t14 -48.5h-224q-4 22 -8.5 43t-5.5 40q-22 -23 -47 -42t-52 -33t-59 -20.5t-70 -6.5q-65 0 -123 19t-100 59t-67 99q-25 62 -25 142zM250 303q0 -39 12.5 -68t33.5 -47t46.5 -27t52.5 -9q29 0 61 10t57.5 32.5t43 57t17.5 83.5v186q-58 -4 -116 -18t-104.5 -39.5 t-75 -65t-28.5 -95.5z" />
<glyph unicode="b" horiz-adv-x="1016" d="M122 0v1451h209v-461q47 58 105.5 80.5t125.5 22.5q75 0 132 -21t99 -57t70.5 -86.5t45.5 -108t24 -120.5t7 -127q0 -68 -5.5 -138.5t-21 -136.5t-42.5 -123.5t-69.5 -100t-101 -67t-136.5 -24.5q-36 0 -68.5 4.5t-63 17t-59.5 33.5q-28 23 -56 57v-95h-195zM322 514 q0 -36 1 -76t6.5 -80.5t18 -77.5t35.5 -65.5t59 -45t88 -16.5q55 0 93.5 26.5t60.5 78t32 126.5t10 175q0 32 -1.5 71.5t-8.5 80.5t-19.5 80t-35 69.5t-55.5 49.5t-79 19q-53 0 -89 -21t-59 -54.5t-35 -77t-17 -89.5t-5 -91.5v-81.5z" />
<glyph unicode="c" horiz-adv-x="902" d="M60 524q0 67 6 134.5t22 131t46 118.5t76 96t112.5 65t158.5 24q90 0 157.5 -29.5t112 -81t67 -120t22.5 -148.5h-194q-1 41 -8 79t-25.5 67.5t-50 47.5t-81.5 18q-54 0 -91 -22.5t-59 -58.5t-34.5 -82t-17.5 -94.5t-6 -93t-1 -80.5q0 -34 2.5 -71.5t8.5 -75t19.5 -73.5 t36 -62.5t56 -43t80.5 -16.5q38 0 65 9.5t46.5 26.5t30.5 40.5t18 51.5t11.5 58.5t5.5 62.5h196q-4 -84 -24.5 -160.5t-62 -134t-109.5 -92t-166 -34.5q-91 0 -158.5 20.5t-115 57.5t-77 87.5t-46.5 112t-23 128t-6 137.5z" />
<glyph unicode="d" horiz-adv-x="1013" d="M74 573q0 64 7 127t24 120.5t45 108t69.5 86.5t99.5 57q59 21 134 21q33 0 64 -5t60 -17t55.5 -31.5t51.5 -49.5v461h207v-1451h-193v95q-28 -34 -57 -56t-60 -34.5t-63 -17.5q-32 -4 -68 -4q-77 0 -137 24.5t-101.5 67t-68 100t-42 123.5t-21.5 135.5t-6 139.5zM288 559 q0 -100 9 -175t32 -126.5t61 -78t94 -26.5q53 0 87.5 16.5t58 45t36 65.5t18 77.5t7 80.5t1.5 76t-0.5 81.5t-5.5 91.5t-17 89.5t-34.5 77t-59 54.5t-89.5 21q-47 0 -79.5 -19t-55 -49.5t-35.5 -69.5t-18.5 -80t-7.5 -81.5t-2 -70.5z" />
<glyph unicode="e" horiz-adv-x="902" d="M60 532q0 128 19.5 231.5t64.5 176t121 111.5q77 39 188 39q95 0 159 -26.5t105.5 -71.5t63.5 -105t33.5 -126t14 -134t5.5 -132h-562q0 -32 2.5 -69.5t8 -76t17 -73t31 -62.5t51.5 -44q32 -17 77 -17q51 0 85 21t54 54q18 32 24 73q3 21 3 43q0 20 -2 40h203v-14 q0 -84 -22 -152q-24 -74 -70.5 -126.5t-117.5 -81.5t-166 -29q-86 0 -158 26t-123.5 90t-80 170t-28.5 265zM272 660h348q-1 28 -3.5 59.5t-8.5 60.5t-17 54t-30 45t-46 32q-26 12 -65 12q-41 0 -70.5 -12.5t-48 -32.5t-29.5 -47.5t-17.5 -56.5t-8 -58t-4.5 -56z" />
<glyph unicode="f" horiz-adv-x="565" d="M14 906v170h147v83q0 23 1.5 50.5t7 56t15.5 56.5t26 50q29 36 67.5 55t83.5 26q36 6 76 6q8 0 16 -1q49 -1 96 -7v-167q-40 3 -71 3q-6 0 -11 -1q-34 0 -55 -10.5t-30.5 -33t-9.5 -60.5v-106h165v-170h-165v-906h-205v906h-154z" />
<glyph unicode="g" horiz-adv-x="1021" d="M65 543q0 56 6.5 119.5t23 123t44.5 115t71.5 97.5t104 67t141.5 25q33 0 65 -4.5t62.5 -15.5t58.5 -29.5t53 -46.5v82h204v-951q0 -106 -19.5 -199t-68 -161.5t-131 -108.5t-207.5 -40q-73 0 -135.5 17t-111.5 53t-81 91q-31 53 -39 131h201q11 -66 55 -98t108 -32 q53 0 90.5 12.5t61 34t37.5 50t21 59t9 62.5q3 32 3 61v35q-50 -60 -107 -85.5t-126 -25.5q-59 0 -110.5 11t-94.5 37.5t-78.5 69.5t-59.5 105.5t-37.5 146.5t-13.5 192zM278 538q0 -89 9.5 -160.5t32 -122.5t58.5 -78t89 -27q56 0 94 19.5t64 53t39.5 75t20.5 87.5t8.5 92 t1.5 85q0 72 -10.5 137t-34.5 115.5t-64.5 81t-101.5 30.5q-48 0 -82.5 -19.5t-57 -52.5t-36 -74t-20 -84t-8.5 -84.5t-2 -73.5z" />
<glyph unicode="h" horiz-adv-x="1021" d="M122 0v1451h209v-467q28 28 57 49t61 34t69 19.5t80 6.5q68 0 124 -17t96.5 -52.5t62 -89t21.5 -125.5v-809h-204v769q0 36 -8.5 64.5t-26.5 49.5t-46.5 32t-70.5 11q-50 0 -89 -17t-67.5 -46t-43.5 -70.5t-15 -91.5v-701h-209z" />
<glyph unicode="i" horiz-adv-x="480" d="M136 0v1076h209v-1076h-209zM136 1223v228h209v-228h-209z" />
<glyph unicode="j" horiz-adv-x="472" d="M11 -200q19 -2 35 -2q23 0 38 4q27 9 38 27t14 49v71v1127h209v-1118q0 -101 -13.5 -168.5t-50 -108t-102 -57t-168.5 -16.5v192zM136 1223v228h209v-228h-209z" />
<glyph unicode="k" horiz-adv-x="939" d="M122 0v1451h209v-813l358 438h245l-353 -421l359 -655h-231l-270 500l-108 -125v-375h-209z" />
<glyph unicode="l" horiz-adv-x="480" d="M136 0v1451h209v-1451h-209z" />
<glyph unicode="m" horiz-adv-x="1588" d="M122 0v1076h203v-100q50 51 118.5 82.5t145.5 31.5q49 0 88.5 -10t71.5 -28t58.5 -43.5t48.5 -57.5q28 36 60.5 61.5t70 43t81.5 26t97 8.5q151 0 227.5 -79.5t76.5 -241.5v-769h-207v769q0 36 -7 64.5t-25 48t-47 30.5t-77 11q-47 -1 -84.5 -17t-65 -45.5t-42.5 -69.5 t-15 -90v-701h-204v769q0 33 -8.5 61.5t-27 49.5t-48 32t-70.5 11q-50 0 -88.5 -16.5t-65 -45t-41.5 -69.5t-15 -91v-701h-209z" />
<glyph unicode="n" horiz-adv-x="1024" d="M122 0v1076h206v-97q58 55 125 84.5t147 29.5q69 0 125 -17t96.5 -52.5t62.5 -89t22 -125.5v-809h-205v771q0 34 -8.5 62.5t-26.5 49.5t-46 32t-70 11q-51 0 -92 -15.5t-69.5 -44.5t-43 -71.5t-14.5 -96.5v-698h-209z" />
<glyph unicode="o" horiz-adv-x="1016" d="M74 559q0 128 27 226.5t81 166.5t135.5 104.5t191.5 36.5q114 0 196 -35.5t135.5 -104t79 -167.5t25.5 -227q0 -152 -30.5 -261.5t-87.5 -180t-137.5 -103.5t-180.5 -33q-98 0 -178.5 31.5t-137.5 102t-88 180.5q-31 111 -31 264zM282 532q0 -86 11 -155.5t37.5 -119 t69.5 -77t109 -27.5t110.5 27.5t70.5 77t36.5 120t10.5 154.5q0 112 -13.5 187.5t-42 121.5t-71.5 65.5t-101 19.5q-59 0 -102 -19.5t-70.5 -65.5t-41 -121t-13.5 -188z" />
<glyph unicode="p" horiz-adv-x="1024" d="M122 -375v1451h195v-95q28 34 56.5 56t59 34.5t63 17t68.5 4.5q80 0 137.5 -24.5t100 -67t69.5 -100t42.5 -123.5t21 -135.5t5.5 -139.5q0 -64 -7 -127t-24 -121t-45.5 -108t-70.5 -86t-99 -57t-132 -21q-67 0 -126 23q-58 22 -105 80v-461h-209zM322 480q0 -45 5 -91 t17 -89.5t35 -77t58.5 -54.5t89.5 -21q47 0 79.5 19t55 49.5t35 69.5t19.5 80t8.5 81t1.5 71q0 100 -10 175t-32 126.5t-59.5 78t-94.5 26.5q-53 0 -88.5 -16.5t-58.5 -45t-35.5 -65.5t-18 -77.5t-6.5 -80.5t-1 -76v-82z" />
<glyph unicode="q" horiz-adv-x="1024" d="M86 503q0 68 5.5 138.5t21 136.5t42.5 123.5t69.5 100t101 67t135.5 24.5q37 0 69 -4.5t63 -17t60 -33.5q28 -23 56 -57v95h195v-1451h-209v461q-47 -58 -105.5 -80.5t-125.5 -22.5q-75 0 -132 21t-99.5 57t-71 86t-45 108t-23.5 121t-7 127zM300 517q0 -32 1.5 -71.5 t8 -80.5t19.5 -80t35 -69.5t55 -49.5t80 -19q53 0 89 21t59 54.5t35 77t16.5 89.5t4.5 91v82q0 36 -0.5 76t-6 80.5t-18 77.5t-35.5 65.5t-59 45t-88 16.5q-55 0 -93.5 -26.5t-61.5 -78t-32 -126.5t-9 -175z" />
<glyph unicode="r" horiz-adv-x="688" d="M122 0v1076h209v-117q28 39 61 65.5t75 40.5q41 15 93 17q17 1 36 0q37 0 80 -3v-191q-41 7 -79 7q-33 1 -63 -5q-64 -12 -109.5 -44.5t-69.5 -83t-24 -116.5v-646h-209z" />
<glyph unicode="s" horiz-adv-x="902" d="M33 345h201v-17q0 -86 46 -136q51 -56 154 -56q44 0 79 10t60 29.5t39 48.5t14 69q0 32 -18.5 58.5t-47.5 48t-65 37.5t-71 27q-42 14 -84.5 29.5t-82.5 36t-74 45.5t-60 58.5t-40.5 75.5t-14.5 94q0 74 26 131.5t73 98t112.5 62t144.5 21.5q90 0 160.5 -21t118.5 -64.5 t71.5 -111.5t23.5 -161h-209q1 13 1 26q0 75 -31 113q-34 45 -120 45q-36 0 -65 -8t-50 -25t-33.5 -42t-12.5 -58q0 -36 18 -62t46 -44.5t62.5 -32.5t68.5 -24q58 -20 108 -38.5t90.5 -38t71 -41.5t51.5 -52.5t32 -69.5t11 -92q0 -83 -27 -148.5t-79.5 -112t-127.5 -71 t-169 -24.5q-92 0 -165 19t-124.5 64t-80 119.5t-31.5 184.5z" />
<glyph unicode="t" horiz-adv-x="557" d="M8 909v167h148v293h208v-293h182v-167h-182v-689v-18.5t5 -16.5t15.5 -12t31.5 -5h130v-168h-198q-39 0 -74 5.5t-61.5 25.5t-41.5 57.5t-15 101.5v719h-148z" />
<glyph unicode="u" horiz-adv-x="1004" d="M122 267v809h206v-806q0 -28 5.5 -50.5t21 -36t39 -22t59.5 -8.5q54 0 96 19.5t70.5 52t43.5 78t15 99.5v674h205v-1076h-202l-3 95q-47 -59 -113.5 -86.5t-143.5 -27.5q-68 0 -123.5 17t-94.5 52.5t-60 90t-21 126.5z" />
<glyph unicode="v" horiz-adv-x="913" d="M3 1076h217l214 -731l22 -131l22 128l217 734h217l-348 -1076h-222z" />
<glyph unicode="w" horiz-adv-x="1358" d="M11 1076h220l171 -720l11 -125l8 117l152 728h212l157 -712l12 -117v9q1 8 1.5 20.5t2 26.5t2 26.5t1.5 20.5l1 9l168 717h220l-288 -1076h-217l-167 763l-161 -763h-213z" />
<glyph unicode="x" horiz-adv-x="929" d="M6 0l350 543l-342 533h225l225 -381l228 381h225l-342 -533l351 -543h-228l-234 378l-230 -378h-228z" />
<glyph unicode="y" horiz-adv-x="902" d="M0 1076h217l219 -731l14 -73l11 73l226 731h215l-335 -1034q-8 -25 -20.5 -64t-28 -80t-30.5 -78t-27 -56q-50 -84 -118 -120t-161 -36q-33 0 -70 5.5t-70 13.5v188q39 -15 77 -23.5t66 -8.5q36 0 60.5 11t39.5 28.5t27 41.5q13 25 24 50l25 58z" />
<glyph unicode="z" horiz-adv-x="839" d="M42 0v142l517 773h-491v161h727v-147l-517 -764h520v-165h-756z" />
<glyph unicode="{" horiz-adv-x="557" d="M6 623v32q36 4 66.5 17t54 37t37 59t13.5 83v331q-9 50 3 91.5t39 74t65 56.5t82.5 37t92.5 15q47 1 91 -8l3 -14q-53 -11 -86 -33t-51 -51.5t-25 -64t-7 -70.5v-342q0 -45 -5.5 -80t-20.5 -65t-42 -53q-27 -24 -71 -41q44 -18 72 -44t43 -59t19.5 -74t4.5 -87v-316 q0 -36 7 -68.5t26 -61t52.5 -53t86.5 -42.5l-3 -14q-114 -3 -187 13t-115.5 52.5t-58 97t-15.5 147.5v282q0 48 -13.5 85.5t-37 64.5t-54 43.5t-66.5 22.5z" />
<glyph unicode="|" horiz-adv-x="508" d="M168 0v1451h174v-1451h-174z" />
<glyph unicode="}" horiz-adv-x="557" d="M6 -171q52 18 85.5 42.5t52.5 53t26 61.5t7 68v316q0 46 4.5 87t20 74t42.5 60q28 26 73 43q-45 17 -72.5 40.5t-42 53.5t-20.5 66q-5 34 -5 79v342q0 36 -6.5 70.5t-25.5 64t-51.5 51.5t-85.5 33l3 14q75 14 143 2.5t119.5 -46.5t81 -91t29.5 -131v-331q0 -48 13.5 -83 t37.5 -59t54.5 -37t66.5 -17v-32q-36 -6 -66.5 -22.5t-54.5 -43.5t-37.5 -65.5t-13.5 -84.5v-282q0 -87 -16 -147.5t-58.5 -97t-115 -51.5t-186.5 -14z" />
<glyph unicode="~" horiz-adv-x="1043" d="M100 364q-3 81 15 143t51.5 104t78.5 63q44 21 97 21q42 0 76 -10.5t62.5 -27t52.5 -35.5t48.5 -35.5t49.5 -27.5t53 -11q25 0 40 9.5t24.5 29t11.5 46.5q2 26 2 62h183q3 -81 -15 -142t-51.5 -102.5t-79.5 -64t-98 -22.5q-44 0 -78 11t-61.5 27t-51.5 35t-47.5 35.5 t-48.5 27t-55 10.5q-37 0 -57.5 -38t-20.5 -108h-181z" />
<glyph unicode="&#xa2;" horiz-adv-x="1016" d="M114 694q0 58 5 119t18 119t36.5 109.5t61 92.5t91.5 69q55 29 127 40v178h136v-173q78 -8 135 -40t94.5 -81.5t56.5 -112.5t19 -134h-193q-2 33 -7 64.5t-17.5 58t-34 46t-53.5 28.5v-741q37 12 58.5 34.5t33 54t17.5 69.5q5 37 8 79h196q-4 -77 -22 -147t-54 -125.5 t-94.5 -92t-142.5 -44.5v-164h-136v167q-72 10 -126.5 35.5t-92 63t-61 85.5t-36.5 103t-18 116t-5 124zM328 664q0 -41 3 -88.5t15.5 -93.5t37.5 -82q25 -39 69 -55v721q-33 -17 -55.5 -44t-36 -62.5t-20.5 -75t-10 -78.5t-3 -76.5v-65.5z" />
<glyph unicode="&#xa3;" horiz-adv-x="1088" d="M56 -29l5 206q46 18 87 48.5t73 69.5t51.5 84.5t18.5 95.5q0 17 -2.5 35t-6.5 37t-11 36t-15 34h-192v150h111q-14 28 -27 57t-25 62t-19 68.5t-7 76.5q0 98 36.5 174.5t97.5 129t141 82t167 29.5q106 0 190 -32t142.5 -98t88.5 -167t30 -237h-212q-5 165 -60.5 249 t-168.5 84q-50 0 -91.5 -17t-71.5 -47t-47 -70.5t-17 -87.5q0 -36 8.5 -71t22.5 -67t30 -61t31 -57h284v-150h-213q8 -25 13 -52.5t5 -55.5q0 -42 -11 -81t-27.5 -75t-39 -68t-44.5 -60q17 6 32 8t33 2q42 0 81.5 -10t78.5 -21.5t75 -21.5t72 -10q67 0 131 18t124 66v-209 q-34 -22 -68 -37.5t-69.5 -22t-71.5 -9.5q-37 -3 -73 -3q-42 0 -90.5 9.5t-100 21t-101 21t-91.5 11.5q-75 1 -143.5 -15t-143.5 -52z" />
<glyph unicode="&#xa5;" horiz-adv-x="1152" d="M6 1421h255l314 -659l327 659h246l-439 -802h245v-139h-281v-95h281v-143h-281v-242h-212v242h-282v143h282v95h-282v139h245z" />
<glyph unicode="&#xa9;" horiz-adv-x="1469" d="M63 689q0 92 24 178.5t67 160.5t105 136t136.5 105t160.5 67.5t178 24.5t178 -24.5t161 -67.5t136 -105t105 -136t68.5 -160.5t24.5 -178.5q0 -91 -24.5 -177.5t-68.5 -161.5t-105 -136t-136 -105t-160 -68q-87 -24 -179 -24t-178 24t-160.5 68t-136.5 105t-105 136 t-67 161.5t-24 177.5zM225 689q0 -69 18 -135t51.5 -122.5t79.5 -103t103 -80t122 -51.5t135 -18q106 0 199 40t162.5 109.5t109 162.5t39.5 198q0 71 -18 136t-51.5 122t-80 102.5t-103 79t-121.5 51.5q-67 18 -136 18q-70 0 -135 -18t-122 -51.5t-103 -79t-79.5 -102.5 t-51.5 -122.5t-18 -135.5zM404 692q0 82 23 153t65.5 124t103.5 83q60 29 138 29q53 0 101.5 -20t88 -59t66.5 -95t39 -130h-144q-8 38 -22.5 68.5t-34 52t-43 33t-51.5 11.5q-45 0 -79.5 -19t-59 -54t-37 -81t-12.5 -96q0 -51 13.5 -99t37 -84t59.5 -57.5t83 -21.5 q27 0 51.5 11.5t43.5 34t31.5 53t17.5 69.5h143q-9 -73 -34.5 -130t-63.5 -95.5t-87 -60t-102 -21.5q-77 0 -138.5 30.5t-105 84t-67.5 127t-24 159.5z" />
<glyph unicode="&#xab;" horiz-adv-x="1016" d="M150 535v138l348 329v-212l-194 -190l194 -187v-218zM514 535v138l348 329v-212l-192 -190l192 -187v-218z" />
<glyph unicode="&#xad;" horiz-adv-x="706" d="M74 407v168h557v-168h-557z" />
<glyph unicode="&#xae;" horiz-adv-x="1469" d="M63 689q0 92 24 178.5t67 160.5t105 136t136.5 105t160.5 67.5t178 24.5t178 -24.5t161 -67.5t136 -105t105 -136t68.5 -160.5t24.5 -178.5q0 -91 -24.5 -177.5t-68.5 -161.5t-105 -136t-136 -105t-160 -68q-87 -24 -179 -24t-178 24t-160.5 68t-136.5 105t-105 136 t-67 161.5t-24 177.5zM225 689q0 -69 18 -135t51.5 -122.5t79.5 -103t103 -80t122 -51.5t135 -18q106 0 199 40t162.5 109.5t109 162.5t39.5 198q0 71 -18 136t-51.5 122t-80 102.5t-103 79t-121.5 51.5q-67 18 -136 18q-70 0 -135 -18t-122 -51.5t-103 -79t-79.5 -102.5 t-51.5 -122.5t-18 -135.5zM486 314v751h304q48 0 93.5 -11.5t80 -37t55.5 -66.5t21 -102q0 -50 -14 -87.5t-37.5 -63.5t-55.5 -42t-66 -24l187 -317h-166l-174 314h-86v-314h-142zM628 758h103q27 0 56.5 0.5t53.5 9t40 28t16 55.5q0 30 -10.5 47t-28.5 26t-42 11t-47 2 h-141v-179z" />
<glyph unicode="&#xbb;" horiz-adv-x="1016" d="M153 195v218l195 187l-195 190v212l347 -329v-138zM517 195v218l195 187l-195 190v212l348 -329v-138z" />
<glyph unicode="&#xbc;" horiz-adv-x="1554" d="M106 1131v137q48 0 86.5 9t66 26t44.5 46.5t25 71.5h139v-848h-165v585q-42 -15 -91.5 -21t-104.5 -6zM288 0l885 1421h177l-886 -1421h-176zM909 195v130l346 551h149v-542h74v-139h-74v-195h-163v195h-332zM1059 334h182v283z" />
<glyph unicode="&#xbd;" horiz-adv-x="1554" d="M106 1131v137q48 0 86.5 9t66 26t44.5 46.5t25 71.5h139v-848h-165v585q-42 -15 -91.5 -21t-104.5 -6zM231 0l885 1421h177l-886 -1421h-176zM940 0q2 51 5.5 95t17 85t39 80t71.5 81l147 134q37 32 57.5 63.5t20.5 75.5q0 24 -4 43t-15 32.5t-29 21.5t-46 8 q-34 0 -52 -15t-27.5 -40t-11.5 -56q-1 -30 0 -63h-165v69q0 56 19.5 103t54 80.5t83.5 53t104 19.5q66 0 115 -19.5t82 -54t49 -81.5q17 -45 17 -101q0 -47 -10.5 -83t-30 -66.5t-48.5 -57.5q-29 -26 -65 -57l-145 -129q-14 -11 -29 -30t-19 -45h355v-146h-540z" />
<glyph unicode="&#xbe;" horiz-adv-x="1554" d="M103 849h161q-5 -33 -1 -63t16.5 -52t36 -34.5t57.5 -12.5q108 0 108 114q0 40 -5.5 65t-23 39.5t-50 19t-88.5 2.5v157q31 -1 56 0.5t43.5 10.5t29 29.5t10.5 59.5q0 25 -4 44t-13 32t-25 19.5t-41 6.5q-31 0 -49 -10.5t-27.5 -28.5t-14 -43t-4.5 -56h-158 q-2 61 13 113.5t45.5 89t79.5 57.5q48 21 118 21q55 0 102.5 -16.5t80 -47.5t50 -73t17.5 -94q0 -55 -18 -104t-62 -79q53 -31 79.5 -79.5t26.5 -112.5q0 -63 -16 -115t-50.5 -89t-87.5 -57.5t-125 -20.5q-77 0 -130.5 23t-85.5 64.5t-44.5 98t-6.5 122.5zM353 0l883 1421 h182l-883 -1421h-182zM909 195v130l346 551h149v-542h74v-139h-74v-195h-163v195h-332zM1059 334h182v283z" />
<glyph unicode="&#xd7;" horiz-adv-x="1064" d="M92 834l128 114l312 -356l313 356l128 -117l-324 -367l321 -364l-130 -117l-308 353l-307 -350l-130 117l321 361q-82 92 -163 186t-161 184z" />
<glyph unicode="&#xf7;" horiz-adv-x="1024" d="M74 407v168h877v-168h-877zM398 108q0 24 8 44t22.5 35.5t35 24t42.5 8.5q24 0 44 -8.5t35 -24t23.5 -35.5t8.5 -44q0 -23 -8.5 -43.5t-23.5 -34t-34.5 -22t-44.5 -8.5q-24 0 -43.5 8.5t-34 22t-22.5 34t-8 43.5zM398 873q0 24 8 44.5t22.5 35t35 23t42.5 8.5 q24 0 44 -8.5t35 -23t23.5 -34.5t8.5 -45q0 -24 -8.5 -43.5t-23.5 -34t-34.5 -22t-44.5 -7.5q-24 0 -43.5 7.5t-34 22t-22.5 34t-8 43.5z" />
<glyph unicode="&#xe01;" horiz-adv-x="1089" d="M51 948q38 75 89.5 131.5t114 93t135.5 54t153 17.5q56 0 109.5 -9t102 -28t89 -46t71 -64.5t47.5 -82.5q17 -44 17 -99v-915h-210v873q0 44 -16 80.5t-45.5 61.5t-71 37.5t-93.5 12.5q-43 0 -81 -7t-70.5 -19.5t-57.5 -30.5t-41 -41q9 -13 16.5 -30t12.5 -36.5t8.5 -39 t3.5 -38.5v-823h-209v831q0 42 -16.5 72.5t-57.5 44.5z" />
<glyph unicode="&#xe02;" horiz-adv-x="924" d="M25 1054v175h317q28 -161 48 -286.5t35.5 -218t25.5 -157t17 -107.5t10.5 -66.5t5.5 -35.5t2 -14v-2l148 887h217l-223 -1229h-280l-192 1054h-131z" />
<glyph unicode="&#xe03;" horiz-adv-x="989" d="M19 1229h198q0 -20 4 -37t14 -31t24.5 -22.5t33.5 -8.5q34 0 54 27t28 72h195v-210q0 -39 -10 -70.5t-28 -58.5t-43 -54t-55 -59q-36 -39 -60 -78.5t-26 -86.5v-262q0 -44 11.5 -79t33 -60t51 -37.5t65.5 -12.5t66.5 12.5t53 37.5t35 60t12.5 79v879h204v-901 q0 -83 -31.5 -148t-83 -108.5t-118 -66t-138.5 -22.5q-74 0 -141.5 22.5t-119 66t-82 108.5t-30.5 148v239q0 59 5.5 97.5t19 69t37 58.5t61.5 64q13 14 28.5 28.5t29.5 30.5t25 35.5t19 43.5q-22 -14 -49.5 -20.5t-55.5 -6.5q-17 0 -40.5 3.5t-50 13.5t-52 27.5t-46.5 46.5 t-34.5 70.5t-13.5 100.5z" />
<glyph unicode="&#xe04;" horiz-adv-x="1081" d="M111 0v902q0 82 32 146t90 107t136.5 66t171.5 23q91 0 170 -23t137 -66t90 -107t32 -146v-902h-207v859q0 46 -12 84t-38 64.5t-68.5 42t-103.5 15.5t-103.5 -14.5t-69 -41t-37.5 -65t-11 -85.5v-245q28 37 57 62t66.5 40t83.5 20.5t104 0.5v-196q-75 14 -133.5 2.5 t-98 -43.5t-59.5 -82t-20 -114v-304h-209z" />
<glyph unicode="&#xe05;" horiz-adv-x="1100" d="M111 0v902q0 67 22.5 122.5t64 98.5t101.5 71.5t135 41.5l116 -130l107 130q76 -11 137.5 -39.5t104.5 -72t67 -99t24 -123.5v-902h-210v859q0 51 -13.5 92t-49.5 68l-133 -134q-15 -15 -35.5 -15t-36.5 15l-134 134q-18 -13 -30 -29.5t-18 -36t-8 -43t-2 -51.5v-245 q28 37 57 62t66.5 40t83.5 20.5t104 0.5v-196q-75 14 -133.5 2.5t-98 -43.5t-59.5 -82t-20 -114v-304h-209z" />
<glyph unicode="&#xe06;" horiz-adv-x="1081" d="M36 1229h198q0 -20 4.5 -37t13.5 -31t24.5 -22.5t33.5 -8.5q35 0 54.5 27t27.5 72h195v-210q0 -39 -10 -70.5t-28 -58.5t-43 -54t-56 -59q-36 -39 -59.5 -78.5t-26.5 -86.5v-173q0 -53 11 -102t37.5 -87.5t71 -61.5t111.5 -23q46 0 78 13.5t52 38.5t29 59t9 77v876h207 v-893q0 -94 -23.5 -160t-66.5 -107t-103 -60.5t-131 -19.5q-44 0 -83.5 9t-75 25.5t-67 39.5t-59.5 51l3 -114h-208v567q0 59 5.5 97.5t18 69t36 58.5t59.5 64q14 14 29.5 28.5t29.5 30.5t25 36q11 19 19 43q-22 -14 -50 -20.5t-56 -6.5q-16 0 -40 3.5t-50 13.5t-52 27.5 t-46.5 46.5t-34 70.5t-13.5 100.5z" />
<glyph unicode="&#xe07;" horiz-adv-x="867" d="M36 739h220l194 -539q6 -17 18.5 -28t31.5 -11q23 0 34.5 15.5t11.5 37.5v837h-136v178h348v-1001q0 -61 -19.5 -107t-54.5 -78t-83 -47t-106 -15q-45 0 -85 12.5t-72 34.5t-57 53q-25 30 -39 69z" />
<glyph unicode="&#xe08;" horiz-adv-x="936" d="M78 851q0 86 25.5 158t77 125t128 81.5t177.5 28.5q49 0 97 -9t92.5 -30t82 -55.5t64 -84.5t39 -117t6.5 -153q-2 -39 -8 -79t-17 -86t-27.5 -104.5t-40 -133.5t-56.5 -171t-74 -221h-255l-172 578h-131v161h289l146 -494q22 73 39.5 131t31 105t23 84.5t17 71.5t12 67 t8.5 67q5 59 -1 111t-27 93t-55.5 65.5t-84.5 24.5q-89 0 -136.5 -50t-51.5 -164h-218z" />
<glyph unicode="&#xe09;" horiz-adv-x="1046" d="M100 902q3 88 37.5 152t92.5 107t132 63t155 20t157.5 -20t134.5 -60.5t93 -101.5t35 -142v-920h-203l3 117q-64 -61 -135 -96t-160 -35q-72 0 -133.5 19.5t-106 58.5t-69.5 98.5t-25 141.5v435h212v-408q0 -86 44.5 -126t127.5 -40q120 0 179.5 69t59.5 196v450 q0 90 -55 137q-56 48 -159 48q-96 0 -146.5 -37.5t-60.5 -125.5h-210z" />
<glyph unicode="&#xe0a;" horiz-adv-x="986" d="M51 1034v181q37 8 69.5 12.5t60 7t48.5 3t32 0.5q56 0 100.5 -14.5t73.5 -43.5t44.5 -69.5t15.5 -91.5q0 -36 -5.5 -61t-19 -48t-35 -51t-54.5 -67q-14 -18 -22.5 -38t-14 -43.5t-7 -50t-1.5 -57.5v-253q0 -44 12.5 -78t35 -58t52.5 -36q28 -13 64.5 -13t67.5 12 t53.5 35.5t35.5 58.5t13 79v245q0 56 -12.5 90t-36 52.5t-57.5 25.5t-79 10v133q61 0 99.5 23t59 65t29.5 101q8 59 8 134h218q0 -59 -6 -116t-23 -108t-48.5 -91.5t-82.5 -65.5q46 -20 74 -51t42.5 -66.5t19.5 -70t5 -62.5v-267q0 -84 -30 -147.5t-82 -108t-121 -67 t-147 -22.5q-80 0 -148 22.5t-118.5 67t-79.5 108t-29 147.5v267q0 61 3.5 101t14 72t30.5 58.5t52 61.5q17 17 31 33.5t25.5 32t18.5 28.5t7 26q0 33 -18.5 45t-49.5 12q-25 0 -52 -3.5t-52 -8.5t-47 -11q-21 -5 -37 -11z" />
<glyph unicode="&#xe0b;" horiz-adv-x="1043" d="M39 1229h197q0 -20 4.5 -37t12 -31t20 -22.5t29.5 -8.5q19 0 32.5 7.5t22.5 21.5t15 32t9 38h192v-187q0 -47 -25 -108t-75 -131q-18 -25 -33 -48.5t-26 -45.5t-17 -46q-8 -24 -8 -51v-262q0 -44 12.5 -78t35 -58t53 -36.5t66.5 -12.5t66.5 12t53 35.5t35 58.5t12.5 79 v245q0 56 -12 90.5t-35 55.5t-57.5 29t-79.5 10v121q61 0 99 23.5t60 66.5t29 104q7 59 7 134h220q0 -59 -6.5 -116t-24 -108t-48 -91.5t-80.5 -65.5q46 -20 73 -51t41.5 -66.5t19.5 -70t5 -62.5v-267q0 -84 -30.5 -147.5t-82 -108t-120.5 -67.5q-67 -22 -145 -22 q-81 0 -149.5 22.5t-119.5 67t-79.5 108t-28.5 147.5v236q0 53 3.5 87.5t13.5 65.5t29.5 60t52.5 68q31 36 54.5 68t31.5 65q-19 -5 -45.5 -12t-51.5 -7q-17 0 -40.5 4t-48.5 14t-50 28.5t-44.5 48.5t-32 71.5t-12.5 100.5z" />
<glyph unicode="&#xe0c;" horiz-adv-x="1656" d="M51 948q38 75 91 131.5t116 93t134.5 54t148.5 17.5q86 0 164 -21.5t138.5 -64.5t95 -104.5t34.5 -138.5v-456q0 -45 14 -95t41 -93t68 -70t97 -27q39 0 66.5 13t44 38t23.5 60t7 76v868h212v-919q0 -81 -25 -140.5t-67 -98.5t-97.5 -58t-118.5 -19q-38 0 -76.5 8.5 t-74 25t-66.5 39t-56 50.5q0 -13 0.5 -29l1 -32t0.5 -30.5v-25.5h-204v873q0 44 -16 80.5t-45 61.5t-71 37.5t-90 12.5q-39 0 -76 -7t-69 -19.5t-58.5 -30.5t-41.5 -41q8 -13 16 -30t13.5 -36.5t9.5 -39t4 -38.5v-644h128v-179h-339v831q0 42 -18 72.5t-59 44.5z" />
<glyph unicode="&#xe0d;" horiz-adv-x="1670" d="M51 951q38 75 91.5 130.5t118 91.5t137 53.5t148.5 17.5q86 0 163.5 -21.5t137 -64.5t94.5 -104.5t35 -138.5v-554q0 -40 11 -74t31 -59t50 -39.5t68 -14.5q47 0 87.5 19.5t68.5 52t44 74t16 84.5v825h208v-1190q0 -95 -25 -175.5t-76 -140t-129.5 -93.5t-184.5 -34 q-69 0 -134.5 18.5t-117 56.5t-87.5 97.5t-46 139.5h202q5 -36 23.5 -61t44 -41.5t54.5 -25t57 -8.5q61 0 102 19.5t67 51.5t37 70t11 76v94q-47 -50 -110.5 -69.5t-141.5 -19.5q-59 0 -119.5 19.5t-109.5 58.5t-80 99t-31 143v563q0 45 -16 79.5t-45 59.5t-69.5 38.5 t-89.5 13.5q-39 0 -76.5 -8t-70.5 -21t-60.5 -31t-42.5 -41q8 -11 16 -27.5t13.5 -36t9.5 -40.5t4 -40v-644h128v-179h-339v831q0 20 -4 39.5t-12.5 34.5t-24 27.5t-36.5 18.5z" />
<glyph unicode="&#xe0e;" horiz-adv-x="1118" d="M22 0v179h114v652q0 42 -20.5 72.5t-61.5 44.5q38 75 91.5 131.5t119.5 93t141 54t156 17.5q52 0 106.5 -9t103.5 -28t92.5 -46.5t74.5 -64.5t50 -83t19 -101v-1310h-196q-17 21 -40.5 40t-53 34t-64 24t-76.5 9q-39 0 -78 -10t-76.5 -28.5t-70.5 -44t-60 -56.5v205 q25 18 56.5 36.5t67.5 32.5t76.5 24t84.5 10q36 0 68 -5t60 -12.5t51 -17.5q24 -10 41 -20v1050q0 44 -17.5 79.5t-48.5 60t-74.5 38.5t-95.5 14q-45 0 -86 -7t-75 -19.5t-60.5 -30.5t-41.5 -41q8 -11 16.5 -27.5t14.5 -36t10.5 -40.5t4.5 -40v-823h-323z" />
<glyph unicode="&#xe0f;" horiz-adv-x="1118" d="M22 0v179h114v652q0 42 -20.5 74t-61.5 43q38 75 91.5 131.5t119.5 93t141 54t156 17.5q52 0 106.5 -9t103.5 -27t92.5 -46t74.5 -64t50 -82t19 -101v-1313h-205q-4 17 -11.5 35t-20 33.5t-29 26t-39.5 10.5q-22 0 -40 -10.5t-29 -26t-18 -33.5t-7 -35h-175 q0 12 -4.5 30.5t-13.5 36t-24 30.5t-39 13q-19 0 -34.5 -10.5t-25 -25.5t-15.5 -35q-6 -19 -6 -39h-191q0 73 20 125.5t54.5 88t81.5 53t99 17.5q62 0 107 -21q43 -21 74 -65q35 42 76 60t80 18q43 0 71.5 -13.5t53.5 -32.5v1041q0 44 -17.5 80.5t-48.5 61.5t-74.5 39 t-95.5 14q-45 0 -86 -8t-75 -21t-60.5 -31t-41.5 -41q8 -11 16.5 -27t14.5 -35.5t10.5 -41t4.5 -40.5v-823h-323z" />
<glyph unicode="&#xe10;" horiz-adv-x="936" d="M78 -424q-3 53 5.5 92.5t23.5 68.5t36.5 48.5t44.5 31t45.5 17t38.5 5.5q44 0 76.5 -17t53.5 -39q23 28 53 40q29 12 59 12q24 0 49.5 -9t42.5 -26v94h189v-318h-189q-6 43 -18.5 66.5t-41.5 23.5q-16 0 -26.5 -7t-17.5 -19.5t-10 -29t-3 -34.5h-133q-3 20 -5.5 35.5 t-9.5 28t-16 19.5t-23 7t-25.5 -7.5t-18 -20.5t-10 -29t-3.5 -33h-167zM78 851q0 86 25.5 158t77 125t128 81.5t177.5 28.5q42 0 84 -6t82 -23q19 8 34 20.5t23 28t12.5 29.5t4.5 25h225q-2 -31 -11 -63t-27 -61t-46 -54q-27 -25 -66 -42q36 -51 55.5 -125.5t10.5 -177.5 q-2 -39 -8 -79t-17 -86t-27.5 -104.5t-40 -133.5t-56.5 -171t-74 -221h-255l-172 578h-131v161h289l146 -494q22 73 39.5 131t31 105t23 84.5t17 71.5t12 67t8.5 67q5 59 -1 111t-27 93t-55.5 65.5t-84.5 24.5q-89 0 -136.5 -50t-51.5 -164h-218z" />
<glyph unicode="&#xe11;" horiz-adv-x="1127" d="M39 1229h197q0 -20 5 -36.5t14.5 -30.5t24.5 -21.5t34 -7.5q36 0 54 27t16 69h197v-93q33 33 64 54.5t61.5 34t63.5 17.5t72 5q42 0 74 -11t54 -37t34 -69.5t12 -107.5v-1022h-210v1019q0 8 -0.5 15.5t-2.5 15.5t-7.5 13t-15.5 5q-28 0 -61.5 -24t-69 -63t-71.5 -86.5 t-68 -96.5t-57 -92.5t-37 -74.5q-13 -28 -20 -51.5t-9.5 -44.5t-2.5 -40.5v-35.5v-459h-207v430q0 27 0.5 53t3 52.5t8.5 52t17 50.5q16 39 44.5 85.5t57 94.5t52.5 94.5t32 86.5q-22 -15 -51.5 -26t-65.5 -11q-16 0 -41.5 2.5t-53 12.5t-54 28.5t-47.5 48.5t-32 73t-8 102z " />
<glyph unicode="&#xe12;" horiz-adv-x="1713" d="M120 0v912q0 67 25 122.5t69.5 98.5t105.5 71t136 40l119 -128l114 128q75 -11 138 -39t108.5 -71t70.5 -99t25 -123v-453q0 -28 5 -60t15.5 -64t28 -62t41 -53t55 -36t68.5 -13q39 0 66 14.5t44 39.5t25 60t8 76v868h207v-919q0 -81 -23.5 -140.5t-64.5 -98.5t-95 -58 t-116 -19q-80 0 -149.5 31t-119.5 92l3 -117h-209v867q0 56 -16 98q-17 41 -59 66l-136 -134q-17 -14 -36.5 -16.5t-37.5 16.5l-131 134q-18 -12 -31.5 -31t-23.5 -39.5t-14 -44.5t-4 -49v-533q22 30 41.5 58t39.5 55.5t41.5 57t44.5 65.5h-112v164h342v-147l-411 -587h-197 z" />
<glyph unicode="&#xe13;" horiz-adv-x="1659" d="M51 948q38 75 91 130.5t116.5 92t136 53.5t146.5 17q86 0 164.5 -21.5t138.5 -64.5t96 -104t36 -139v-551q0 -41 8 -76t25 -60t45.5 -38t70.5 -13q58 0 97.5 27t64.5 68.5t37.5 91.5t12.5 98v770h211v-1229h-208l3 117q-27 -27 -58 -50t-67 -38.5t-73 -25t-75 -9.5 q-64 0 -118.5 19t-95.5 58t-65.5 98t-24.5 141v560q0 45 -16.5 81t-46.5 60.5t-72 37.5t-90 13q-39 0 -76 -7t-70.5 -20t-59.5 -30.5t-42 -39.5q9 -14 17 -31t14.5 -36.5t10.5 -38.5t4 -39v-641h128v-179h-339v828q0 42 -19.5 73.5t-57.5 46.5z" />
<glyph unicode="&#xe14;" horiz-adv-x="1116" d="M111 0v902q0 82 35 146t95.5 107t141.5 66t173 23t174 -23t143 -66t96.5 -107t35.5 -146v-902h-210v859q0 46 -14 84t-43 64.5t-75 42t-107 15.5t-106.5 -14.5t-73.5 -41t-41 -65t-13 -85.5v-525l167 236h-111v164h342v-147l-413 -587h-196z" />
<glyph unicode="&#xe15;" horiz-adv-x="1132" d="M111 0v902q0 67 25 122.5t69.5 98.5t106 71.5t136.5 41.5l119 -130q28 28 58 64q31 37 56 66q75 -11 137.5 -39.5t108 -72t70.5 -99t25 -123.5v-902h-210v859q0 28 -4.5 53t-12.5 45t-22 36t-36 29l-137 -134q-16 -16 -35.5 -17t-37.5 17l-132 134q-36 -25 -54.5 -69 t-18.5 -94v-525l167 236h-111v164h342v-147l-413 -587h-196z" />
<glyph unicode="&#xe16;" horiz-adv-x="1089" d="M51 948q38 75 89.5 131.5t114 93t136 54t152.5 17.5q56 0 109.5 -9t102 -28t89 -46t71 -64.5t47.5 -82.5q17 -44 17 -99v-915h-210v873q0 44 -16 80.5t-45.5 61.5t-71 37.5t-93.5 12.5q-86 0 -150.5 -26.5t-96.5 -71.5q8 -13 16 -30t12.5 -36.5t8 -39t3.5 -38.5v-644h128 v-179h-339v831q0 42 -16.5 72.5t-57.5 44.5z" />
<glyph unicode="&#xe17;" horiz-adv-x="1073" d="M111 0v1229h206v-116q64 60 142 95.5t161 35.5q72 0 134.5 -18.5t108.5 -57.5t72.5 -99t26.5 -140v-929h-209v877q0 42 -11 76t-34.5 59t-58.5 39t-79 14q-64 0 -111.5 -24t-78.5 -62t-45.5 -88.5t-14.5 -105.5v-785h-209z" />
<glyph unicode="&#xe18;" horiz-adv-x="1027" d="M103 951q0 64 26.5 118t76.5 93.5t120 62t158 22.5q97 0 175 -22.5t131.5 -67.5t82 -114.5t26.5 -162.5h-210q0 90 -49 139q-51 49 -142 49q-43 0 -76.5 -8.5t-56.5 -23t-35.5 -33.5t-12.5 -41q0 -31 14.5 -51t39 -35.5t56.5 -26.5q32 -12 68 -23l61 -20 q64 -22 114.5 -39.5t90.5 -36t69.5 -41t48.5 -54.5t29 -76q9 -42 9 -103v-146q0 -81 -34.5 -141.5t-91.5 -100.5t-129.5 -59.5t-149.5 -19.5q-78 0 -150.5 19.5t-128 59.5t-90.5 100t-35 142v310h212v-267q0 -89 48.5 -137t143 -48t146 47.5t51.5 137.5v95q0 41 -14.5 67 t-39.5 43t-59 29.5t-72 26.5l-82 30q-68 25 -130 52t-108.5 63t-73.5 82t-27 110z" />
<glyph unicode="&#xe19;" horiz-adv-x="1073" d="M111 302v927h209v-876q0 -42 11 -76.5t34.5 -59.5t58.5 -38.5t79 -13.5q64 0 111.5 23t78.5 62t45.5 89t14.5 106v784h209v-1229h-204v117q-64 -61 -142.5 -96t-162.5 -35q-72 0 -134.5 19t-108.5 57.5t-72.5 98t-26.5 141.5z" />
<glyph unicode="&#xe1a;" horiz-adv-x="1073" d="M111 322v907h211v-876q0 -44 15.5 -79t44.5 -59.5t68 -37t88 -12.5q47 0 86.5 12.5t67.5 37t43.5 59.5t15.5 79v876h211v-907q0 -80 -33.5 -142.5t-92 -105t-135.5 -64t-163 -21.5t-163.5 21.5t-135.5 64t-93 104.5q-35 63 -35 143z" />
<glyph unicode="&#xe1b;" horiz-adv-x="1073" d="M111 322v907h211v-876q0 -44 15.5 -79t44.5 -59.5t68 -37t88 -12.5q47 0 86.5 12.5t67.5 37t43.5 59.5t15.5 79v1332h211v-1363q0 -80 -33.5 -142.5t-92 -105t-135.5 -64t-163 -21.5t-163.5 21.5t-135.5 64t-93 104.5q-35 63 -35 143z" />
<glyph unicode="&#xe1c;" horiz-adv-x="1160" d="M111 302v927h337v-175h-126v-715q0 -89 19 -130q18 -41 57 -41q29 0 45 16t23 45.5t8 67.5q1 37 1 81v364h212v-364q0 -44 1 -81.5t10.5 -67t26.5 -45.5t46 -16q37 0 53 40q16 42 16 131v890h211v-927q0 -80 -19 -138t-52 -96.5t-80 -57t-102 -18.5q-70 0 -127 27.5 t-90 80.5q-33 -53 -84 -81q-52 -27 -124 -27q-59 0 -107.5 18.5t-82.5 57t-53 96.5t-19 138z" />
<glyph unicode="&#xe1d;" horiz-adv-x="1160" d="M111 302v927h337v-175h-126v-715q0 -89 19 -130q18 -41 57 -41q29 0 45 16t23 45.5t8 67.5q1 37 1 81v364h212v-364q0 -44 1 -81.5t10.5 -67t26.5 -45.5t46 -16q37 0 53 40q16 42 16 131v1346h211v-1383q0 -80 -19 -138t-52 -96.5t-80 -57t-102 -18.5q-70 0 -127 27.5 t-90 80.5q-33 -53 -84 -81q-52 -27 -124 -27q-59 0 -107.5 18.5t-82.5 57t-53 96.5t-19 138z" />
<glyph unicode="&#xe1e;" horiz-adv-x="1352" d="M68 1229h223l119 -762l3 -33l5 36l155 759h212l152 -762l3 -37q0 1 0.5 6.5t1 12.5t2 12t1.5 6l120 762h222l-219 -1229h-228l-162 817l-164 -817h-226z" />
<glyph unicode="&#xe1f;" horiz-adv-x="1352" d="M68 1229h223l119 -762l3 -33l5 36l155 759h212l152 -762l3 -37q0 1 0.5 6.5t1 12.5t2 12t1.5 6l191 1218h222l-290 -1685h-228l-162 817l-164 -817h-226z" />
<glyph unicode="&#xe20;" horiz-adv-x="1086" d="M22 0v179h114v652q0 42 -18 72.5t-58 44.5q37 75 87 131.5t112.5 93t135 54t151.5 17.5q56 0 109 -9t100.5 -28t88 -46t69.5 -64.5t46 -82.5q17 -44 17 -99v-915h-210v873q0 92 -57 142t-163 50q-86 0 -147 -26.5t-92 -71.5q9 -13 15.5 -30t11.5 -36.5t8 -39t3 -38.5 v-823h-323z" />
<glyph unicode="&#xe21;" horiz-adv-x="1073" d="M111 0v1229h209v-784q0 -54 14.5 -105t45.5 -90t78.5 -62t111.5 -23q46 0 80 13.5t57.5 38.5t34.5 59.5t11 76.5v876h209v-927q0 -81 -26.5 -141t-72.5 -98.5t-108.5 -57.5t-134.5 -19q-83 0 -161 35t-142 96v-117h-206z" />
<glyph unicode="&#xe22;" horiz-adv-x="1046" d="M83 359q0 40 3.5 85t19.5 87.5t47 80.5q30 39 83 64q-50 19 -80 49.5t-45.5 65.5t-20 72.5t-4.5 73.5q0 58 14 101t39.5 76.5t58.5 55t69.5 35t75 19t73.5 5.5h162v-178h-114q-18 0 -47 -3t-56 -14.5t-47.5 -37.5t-20.5 -70q0 -50 14.5 -80.5t40.5 -49t59.5 -26.5 t70.5 -10h100v-176h-100q-28 -2 -51.5 -5.5t-44.5 -11.5t-38 -22t-29 -37.5t-18 -58.5t-6 -82t13 -84.5t41 -64t71 -42t101 -15.5q61 0 103 16t67 44.5t34.5 67.5t9.5 86v854h206v-893q0 -83 -28 -148.5t-80.5 -111t-130.5 -69.5t-181 -24q-94 0 -173.5 24t-138 70.5 t-90.5 116.5t-32 165z" />
<glyph unicode="&#xe23;" horiz-adv-x="870" d="M47 406h188q-3 -56 8 -100.5t35 -76.5t60.5 -48t84.5 -16q40 0 74 12t57.5 34.5t36 57t12.5 80.5q0 36 -17 66t-44.5 54t-60.5 43t-67 30q-39 14 -79 31.5t-77.5 39t-69.5 48.5t-56 62.5t-37.5 80t-13.5 102.5q0 81 23.5 144t68 107t105.5 67.5t136 23.5q85 0 151 -23 t110.5 -71t66.5 -121.5t22 -176.5h-194v24v22q-3 81 -37.5 124.5t-105.5 43.5q-73 0 -111 -41.5t-38 -116.5q0 -39 16.5 -67t43 -48.5t58.5 -35.5q32 -16 63 -27q55 -22 101 -43t83.5 -43t66.5 -48.5t48.5 -60t31 -76.5t11.5 -99q1 -89 -24 -158.5t-74.5 -118.5t-120 -75.5 t-159.5 -26.5q-84 0 -151.5 20.5t-116.5 70t-77 130t-31 200.5z" />
<glyph unicode="&#xe24;" horiz-adv-x="1089" d="M51 948q38 75 89.5 131.5t114 93t136 54t152.5 17.5q56 0 109.5 -9t102 -28t89 -46t71 -64.5t47.5 -82.5q17 -44 17 -99v-1313h-210v1271q0 44 -16 80.5t-45.5 61.5t-71 37.5t-93.5 12.5q-86 0 -150.5 -26.5t-96.5 -71.5q8 -13 16 -30t12.5 -36.5t8 -39t3.5 -38.5v-644 h128v-179h-339v831q0 42 -16.5 72.5t-57.5 44.5z" />
<glyph unicode="&#xe25;" horiz-adv-x="1046" d="M65 331q0 83 28.5 147.5t76.5 111.5t113.5 78t140 50t153.5 26.5t154 7.5v146q0 42 -16 74t-44.5 52.5t-64.5 32t-78 11.5q-53 0 -94 -15.5t-68 -43.5t-42 -67q-15 -41 -20 -89h-209q2 101 38.5 174.5t97.5 122t142.5 71.5t172.5 23q84 0 145.5 -17.5t105 -45t71 -64 t43 -75t21 -75t5.5 -66.5v-901h-206v578q-94 0 -177.5 -13t-146 -42.5t-98.5 -74.5q-37 -45 -37 -109q0 -36 13.5 -66.5t38 -53t58.5 -33.5q35 -12 77 -12q15 0 41 6q28 6 64 17v-172q-32 -17 -68.5 -25t-65.5 -8q-95 0 -164 24t-113.5 68.5t-65.5 107.5q-22 61 -22 139z " />
<glyph unicode="&#xe26;" horiz-adv-x="1086" d="M22 0v179h114v652q0 42 -18 72.5t-58 44.5q37 75 87 131.5t112.5 93t135 54t151.5 17.5q56 0 109 -9t100.5 -28t88 -46t69.5 -64.5t46 -82.5q17 -44 17 -99v-1313h-210v1271q0 92 -57 142t-163 50q-86 0 -147 -26.5t-92 -71.5q9 -13 15.5 -30t11.5 -36.5t8 -39t3 -38.5 v-823h-323z" />
<glyph unicode="&#xe27;" horiz-adv-x="932" d="M60 795q0 61 10.5 117.5t31 106t51 91t72.5 71.5t95 46.5t116 16.5q60 0 113.5 -13t98 -43t80.5 -78.5t61.5 -119t39 -165t13.5 -216.5q0 -64 -7 -135t-23.5 -140.5t-45.5 -132.5t-73.5 -112t-106.5 -77q-61 -29 -144 -29q-86 0 -150 26.5t-108.5 74.5t-72.5 112.5 t-40 139.5h222q6 -36 16.5 -67t27.5 -55.5t43 -38.5t62 -14q54 0 89 36.5t55 98t27 143t7 170.5v77t-5.5 97.5t-16.5 100.5t-32 90.5t-53 65.5t-79 25q-52 0 -84.5 -25t-50.5 -64t-23.5 -87.5t-5.5 -93.5h-210z" />
<glyph unicode="&#xe28;" horiz-adv-x="1084" d="M111 0v899q0 82 32 146t90.5 107t137.5 66t172 23q59 0 111 -7.5t97 -26.5q27 2 46.5 14.5t32 30t18 35.5t5.5 31h226q-2 -31 -11 -65t-28.5 -65.5t-51.5 -56.5t-76 -38q28 -42 44.5 -89.5t16.5 -104.5v-899h-207v859q0 45 -12 83t-38.5 65t-68.5 42.5t-104 15.5 t-105 -15.5t-68 -42t-36.5 -64t-11.5 -84.5v-245q28 37 57.5 62t67 40t83 20.5t104.5 0.5v-196q-75 14 -133.5 2.5t-98 -43.5t-60 -82t-20.5 -114v-304h-211z" />
<glyph unicode="&#xe29;" horiz-adv-x="1073" d="M111 314v915h211v-873q0 -45 16 -80.5t44.5 -59.5t69 -37.5t89.5 -13.5q47 0 86 13.5t67.5 37.5t43.5 59.5t15 80.5v208h-311v276h196v-103h115v492h212v-492h108v-173h-108v-247q0 -54 -17.5 -99.5t-48 -82t-71.5 -64t-88.5 -46t-98 -27.5t-100.5 -9t-102.5 9t-99.5 27 t-89 45t-72.5 63.5t-48.5 81t-18 99.5z" />
<glyph unicode="&#xe2a;" horiz-adv-x="1064" d="M75 331q0 83 28 147.5t76.5 111.5t114 78t139 50t152.5 26.5t157 7.5v146q0 42 -16.5 74t-44.5 52.5t-65.5 32t-78.5 11.5q-53 0 -93.5 -15.5t-68 -43.5t-43.5 -67q-15 -41 -18 -89h-211q3 101 40.5 174.5t98.5 122t141.5 71.5t172.5 23q64 0 113 -10q51 -11 90 -27 q25 5 41.5 19t28 30.5t16 33.5t4.5 28h225q0 -32 -10 -66t-33 -65t-56.5 -57t-79.5 -40q15 -25 25 -50t16 -49.5t8.5 -47.5t2.5 -42v-901h-205v578q-94 0 -177.5 -13t-146 -42.5t-98.5 -74.5t-36 -109q0 -36 12.5 -66.5t36 -53t58 -34t76.5 -11.5q15 0 42.5 6t63.5 17v-172 q-32 -17 -69 -25t-65 -8q-94 0 -162.5 24t-113.5 68.5t-66 107.5q-22 61 -22 139z" />
<glyph unicode="&#xe2b;" horiz-adv-x="1084" d="M111 0v1229h211v-428l447 428h262l-251 -239q55 -25 92 -63.5t58 -87.5t29 -107.5t8 -125.5v-606h-209v628q0 39 -8 74.5t-22.5 64.5t-37.5 52t-56 34l-312 -300v-553h-211z" />
<glyph unicode="&#xe2c;" horiz-adv-x="1295" d="M71 1229h214l79 -776l6 -111l19 114l138 563h196l130 -563l20 -125l15 122q13 104 22 178.5t15 127.5t9.5 85t5.5 51.5t2 29.5v17q0 28 -5.5 50.5t-19 39t-38 25t-62.5 8.5l-25 158q50 0 97.5 12t83.5 33.5t59.5 53.5t29.5 76h231q-6 -54 -25.5 -99t-46 -78.5t-59.5 -57 t-69 -36.5q33 -28 48 -71.5t15 -104.5q0 -24 -3 -48q-2 -25 -5 -44l-137 -859h-253l-138 617l-134 -617h-250z" />
<glyph unicode="&#xe2d;" horiz-adv-x="1086" d="M100 657v82h432v-175h-212q2 -89 13.5 -164t36.5 -128.5t66.5 -83.5t104.5 -30q66 0 110 33.5t69 92.5t35.5 140.5t10.5 178.5q0 124 -13.5 211t-41 142.5t-69.5 80.5t-101 25q-77 0 -128.5 -51.5t-76.5 -162.5h-222q39 189 145.5 291t281.5 102q115 0 198.5 -39.5 t138.5 -115t80.5 -184t25.5 -245.5q0 -194 -30.5 -324.5t-88 -209.5t-140.5 -110.5t-184 -31.5q-100 0 -181.5 32.5t-139 111t-89 209t-31.5 323.5z" />
<glyph unicode="&#xe2e;" horiz-adv-x="1088" d="M100 660v82h435v-178h-213q3 -89 14.5 -162.5t36.5 -127t65 -83.5t103 -30q66 0 110 33.5t69 92t35.5 140.5t10.5 179q0 125 -13.5 213.5t-39.5 144t-69.5 81t-102.5 25.5q-75 0 -124 -50t-72 -161h-225q19 92 54.5 165t87.5 122t121.5 75t157.5 26q112 -2 198 -43 q25 4 43.5 17t31 30t18 33.5t5.5 27.5h228q-2 -32 -13.5 -66t-34 -65t-57 -55.5t-83.5 -38.5q53 -75 81.5 -182t28.5 -245q0 -130 -14 -231t-40.5 -176t-65.5 -126.5t-89 -82t-109.5 -44.5t-127.5 -14q-67 0 -124.5 14t-107.5 45t-88.5 82.5t-65.5 126t-41 176t-14 230.5z " />
<glyph unicode="&#xe2f;" horiz-adv-x="1046" d="M86 937q0 54 14 96.5t39.5 75t58.5 55.5t69.5 37.5t75 21t73.5 6.5h162v-170h-114q-18 0 -47 -4t-56 -16.5t-47.5 -37.5t-20.5 -67q0 -28 9 -55.5t30 -48.5t58.5 -34t93.5 -13q122 0 184.5 45t62.5 142v259h206v-1229h-206v676q-47 -35 -109 -55.5t-136 -20.5 q-100 0 -175 24t-125 68.5t-75 107t-25 137.5z" />
<glyph unicode="&#xe30;" horiz-adv-x="660" d="M103 174v253h185v-91h296v-162h-481zM103 809v253h185v-92h296v-161h-481z" />
<glyph unicode="&#xe31;" d="M-646 1396v266h179v-94h530v-172h-709z" />
<glyph unicode="&#xe32;" horiz-adv-x="870" d="M19 885q0 89 32 156.5t85 112t119.5 67.5t136.5 23q67 0 133.5 -21t119.5 -62t85.5 -103.5t32.5 -142.5v-915h-210v880q0 44 -11.5 79.5t-32.5 59t-51 36.5t-66 13q-33 0 -61.5 -13t-51.5 -36.5t-37 -56.5t-17 -77h-206z" />
<glyph unicode="&#xe33;" horiz-adv-x="870" d="M-430 1589q0 44 16 81.5t44 66t65.5 44t79.5 15.5q44 0 81.5 -15.5t65.5 -44t44.5 -66.5t16.5 -81t-16.5 -80.5t-44.5 -65.5t-65.5 -43.5t-81.5 -15.5q-42 0 -79.5 15.5t-65.5 43.5t-44 65.5t-16 80.5zM-299 1589q0 -16 6.5 -29.5t16 -23.5t23.5 -15.5t28 -5.5 q17 0 30.5 5.5t24 15.5t17 23.5t6.5 29.5t-6.5 29.5t-17 24.5t-24 16.5t-30.5 5.5q-14 0 -28 -5.5t-23.5 -16.5t-16 -24.5t-6.5 -29.5zM19 885q0 89 32 156.5t85 112t119.5 67.5t136.5 23q67 0 133.5 -21t119.5 -62t85.5 -103.5t32.5 -142.5v-915h-210v880q0 44 -11.5 79.5 t-32.5 59t-51 36.5t-66 13q-33 0 -61.5 -13t-51.5 -36.5t-37 -56.5t-17 -77h-206z" />
<glyph unicode="&#xe34;" d="M-970 1393l87 175h772v-175h-859z" />
<glyph unicode="&#xe35;" d="M-970 1393l87 175h587v186h185v-361h-859z" />
<glyph unicode="&#xe36;" d="M-970 1393l87 175h438q-3 3 -3 5.5v5.5q0 39 15.5 73.5t41 60t60 40.5t72.5 15q39 0 72.5 -15t60 -40.5t41 -60t14.5 -73.5t-14.5 -72.5t-41 -59t-60.5 -40.5q-33 -14 -72 -14h-711zM-322 1576q0 -25 18 -43q20 -18 45 -18t43.5 18t18.5 43t-18.5 44.5t-43.5 19.5 t-44 -19.5t-19 -44.5z" />
<glyph unicode="&#xe37;" d="M-970 1393l87 175h327v186h178v-186h90v186h177v-361h-859z" />
<glyph unicode="&#xe38;" d="M-395 -143h284v-467h-193v296h-91v171z" />
<glyph unicode="&#xe39;" d="M-753 -143h283v-205q0 -50 21 -75t63 -25q41 0 61.5 25t20.5 75v205h193v-205q-2 -52 -16.5 -101t-47 -85t-84.5 -57.5t-127 -21.5t-128 21.5t-85.5 57.5t-47.5 84q-15 50 -16 102v37h-90v168z" />
<glyph unicode="&#xe3a;" d="M-359 -267q0 28 11.5 53t29.5 43t42 29t52 11t52.5 -11t42.5 -29t29 -43t11 -53t-11 -52t-29 -42t-42.5 -28.5t-52.5 -10.5t-52 10.5t-42 28.5t-29.5 42t-11.5 52z" />
<glyph unicode="&#xe3e;" />
<glyph unicode="&#xe3f;" horiz-adv-x="1160" d="M131 0v1421h358v226h142v-226q97 -3 170 -31t122 -75t73 -112.5t26 -143.5q1 -55 -6.5 -99.5t-27 -82t-52 -68.5t-83.5 -53q56 -18 96.5 -50t64 -74.5t34.5 -94t11 -107.5q3 -208 -104 -317t-324 -113v-228h-142v228h-358zM345 178h144v468h-144v-468zM345 831h144v407 h-144v-407zM631 178q50 5 89.5 22t67 44.5t40 70t12.5 101.5q-2 68 -18.5 111t-45 69.5t-66 37t-79.5 12.5v-468zM631 834q36 6 66.5 20.5t51.5 38.5t33.5 61t12.5 88q0 87 -40.5 134t-123.5 57v-399z" />
<glyph unicode="&#xe40;" horiz-adv-x="429" d="M111 0v1229h209v-1229h-209z" />
<glyph unicode="&#xe41;" horiz-adv-x="777" d="M111 0v1229h209v-1229h-209zM459 0v1229h207v-1229h-207z" />
<glyph unicode="&#xe42;" horiz-adv-x="517" d="M-19 1597l41 168h559l89 -171h-377q34 -33 54 -79.5t20 -102.5v-1230h122v-182h-333v1393q0 46 -13.5 83.5t-37 64.5t-56 41.5t-68.5 14.5z" />
<glyph unicode="&#xe43;" horiz-adv-x="517" d="M-81 1472q0 86 28 148.5t73 104.5t104 62t123 20q59 0 111.5 -14t93 -41.5t65 -71t24.5 -101.5q0 -37 -7 -63t-21.5 -48t-37 -44.5l-54.5 -54.5q-19 -19 -29.5 -38t-16 -40t-7 -47t-1.5 -60v-1002h125v-182h-334v1198q0 47 7 87t21 72.5t35 59.5t49 52q14 11 29 26t27 28 t19.5 26t7.5 22q0 14 -8.5 26.5t-22 20.5t-33 12.5t-42.5 4.5t-45.5 -7t-39.5 -25t-29.5 -50t-15.5 -81h-198z" />
<glyph unicode="&#xe44;" horiz-adv-x="517" d="M-150 1594l87 171h558l43 -168q-38 0 -70 -14.5t-55.5 -41.5t-37.5 -65.5t-14 -82.5v-1211h125v-182h-336v1412q0 56 20 103t55 79h-375z" />
<glyph unicode="&#xe45;" horiz-adv-x="870" d="M19 885q0 89 32 156.5t85 112t119.5 67.5t136.5 23q67 0 133.5 -21t119.5 -62t85.5 -103.5t32.5 -142.5v-1313h-210v1278q0 44 -11.5 79.5t-32.5 59t-51 36.5t-66 13q-33 0 -61.5 -13t-51.5 -36.5t-37 -56.5t-17 -77h-206z" />
<glyph unicode="&#xe46;" horiz-adv-x="975" d="M57 856q-6 74 6 140t47 118t97.5 87.5t156.5 48.5l100 -99l92 99q71 -6 121.5 -24.5t85.5 -48t56 -66.5t32 -79t13.5 -89.5t2.5 -94.5v-1243h-207v1262q0 24 -2 51t-7.5 52t-16.5 46t-28 32l-100 -100q-20 -17 -40 -17t-39 17l-102 103q-22 -11 -34 -28.5t-18 -39 t-7.5 -48.5t-1.5 -55q0 -17 4 -35.5t15.5 -34t28.5 -26t44 -10.5h48v-185h-48q-61 0 -112.5 15.5t-91 48t-64 83.5t-31.5 120z" />
<glyph unicode="&#xe47;" d="M-926 1637q0 70 24.5 116t62.5 75t84 41.5t92 12.5h541v-153h-533q-27 0 -45.5 -8.5t-28.5 -22t-14.5 -29t-4.5 -29.5q0 -22 3 -39.5t11 -29t20.5 -18.5t32 -7t32 7t20.5 18.5t11.5 29t4.5 39.5h152q2 -44 16 -69t53 -25q19 0 31.5 5.5t19.5 18t10 29.5q3 16 3 41h167 q0 -73 -17 -122t-46 -78t-69 -40q-38 -10 -82 -7q-31 3 -56 11t-44.5 20.5t-34 29.5t-22.5 35q-10 -17 -26.5 -34.5t-39 -31.5t-48 -22t-55.5 -8q-58 0 -100.5 19.5t-69.5 53.5t-41 78q-14 46 -14 93z" />
<glyph unicode="&#xe48;" d="M-291 1868v313h180v-313h-180z" />
<glyph unicode="&#xe49;" d="M-644 2049v143h260v-176q100 2 148 49.5t48 126.5h177q0 -64 -26.5 -121.5t-76.5 -102t-123 -71.5q-73 -26 -165 -29h-139v181h-103z" />
<glyph unicode="&#xe4a;" d="M-712 1868q0 79 14 131.5t37.5 84.5t56.5 45.5t69 13.5q47 0 75.5 -22.5t46.5 -59.5q15 37 50 59.5t88 22.5q28 0 53 -7t45 -22t34 -41t18 -63q24 19 39 61t15 95h157q0 -50 -15 -99t-42.5 -90t-65.5 -71t-85 -38h-134q0 17 -2 39t-7.5 43t-15.5 35t-25 14q-11 0 -20 -7 t-15.5 -17t-10.5 -23.5t-7 -29.5h-104q-3 14 -6.5 28.5t-9 24.5t-12.5 17q-9 7 -18 7q-19 0 -29 -15.5t-16 -36t-8 -43t-2 -36.5h-148z" />
<glyph unicode="&#xe4b;" d="M-445 2010v142h175v151h159v-151h174v-142h-174v-160h-159v160h-175z" />
<glyph unicode="&#xe4c;" d="M-293 1725q0 61 25.5 120t77 105.5t124.5 75.5q74 28 169 28v-147q-56 0 -96 -14t-66.5 -37.5t-39 -57t-12.5 -73.5h-182z" />
<glyph unicode="&#xe4d;" d="M-430 1589q0 44 16 81.5t44 66t65.5 44t79.5 15.5q44 0 81.5 -15.5t65.5 -44t44.5 -66.5t16.5 -81t-16.5 -80.5t-44.5 -65.5t-65.5 -43.5t-81.5 -15.5q-42 0 -79.5 15.5t-65.5 43.5t-44 65.5t-16 80.5zM-299 1589q0 -16 6.5 -29.5t16 -23.5t23.5 -15.5t28 -5.5 q17 0 30.5 5.5t24 15.5t17 23.5t6.5 29.5t-6.5 29.5t-17 24.5t-24 16.5t-30.5 5.5q-14 0 -28 -5.5t-23.5 -16.5t-16 -24.5t-6.5 -29.5z" />
<glyph unicode="&#xe4e;" d="M-492 1423q0 49 12.5 99t39.5 92.5t69.5 73t103.5 43.5q10 44 37 79.5t71.5 62t104.5 40.5q62 14 137 16v-153q-100 0 -146 -34q-45 -32 -45 -107v-35h-39q-46 0 -77.5 -13.5t-49.5 -37t-25.5 -55.5t-7.5 -71h-185z" />
<glyph unicode="&#xe4f;" horiz-adv-x="1412" d="M83 612q0 86 21.5 165t62 148.5t97 126.5t126 96.5t148.5 62t165 22.5q87 0 166 -22.5t148.5 -62t126 -96.5t96 -126.5t61.5 -148.5t22 -165q0 -87 -22 -166t-61.5 -148t-96 -125t-126 -96.5t-148.5 -62.5t-166 -22q-86 0 -165 22t-148.5 62.5t-126 96.5t-97 125t-62 148 t-21.5 166zM256 614q0 -61 16.5 -118t46 -106t69.5 -90t90 -70.5t107 -45.5t118 -16t118 16t107.5 45.5t90.5 70.5t69.5 90t46 106t16.5 118q0 92 -36 174t-96.5 142.5t-142 96t-173.5 35.5q-61 0 -118 -16t-107 -46t-90 -70t-69.5 -90t-46 -107t-16.5 -119zM373 614 q0 68 26 128.5t70.5 105t105 71t128.5 26.5t128.5 -26.5t105 -71t71 -104t26.5 -129.5q0 -68 -26.5 -127.5t-71 -105t-105 -71t-128.5 -25.5t-128.5 25.5t-105 71t-70.5 105t-26 127.5zM527 614.5q0 -36.5 14 -68.5t38 -55.5t56 -37.5t68 -14t68 14t56.5 37.5t38.5 55.5 t14 68.5t-14 69t-38.5 56.5t-56.5 38t-68 14t-68 -14t-56 -38t-38 -56.5t-14 -69z" />
<glyph unicode="&#xe50;" horiz-adv-x="1188" d="M86 542q0 134 39.5 235t108 168.5t160.5 101.5t198 34q107 0 200 -34t160.5 -101.5t106.5 -168.5t39 -235q0 -147 -39 -253t-107 -175.5t-160 -100.5q-94 -32 -200 -32t-198 32.5t-160.5 101t-107.5 175.5q-40 105 -40 252zM295 537q0 -187 76.5 -284t220.5 -97 q145 0 221.5 97t76.5 284q0 97 -21.5 168t-61.5 115.5t-94 65t-121 20.5q-64 0 -118 -21.5t-94.5 -66.5t-62.5 -114.5t-22 -166.5z" />
<glyph unicode="&#xe51;" horiz-adv-x="1177" d="M17 171l148 136q28 -44 65.5 -74t83 -49.5t94 -28t98.5 -8.5q81 0 145.5 30.5t109.5 86.5t70 133.5t25 175.5q0 75 -15 138t-48.5 109t-87.5 71.5t-132 25.5q-63 0 -111 -18t-80 -48.5t-48.5 -68.5t-16.5 -79q0 -25 4 -50t14.5 -47t29.5 -41t48 -30.5t69.5 -14.5t94.5 4 v-151q-34 -9 -65 -11.5t-63 -2.5q-75 0 -141 24t-114 68t-76 103.5t-28 132.5q0 69 19 126t52.5 101t79 76.5t100 53.5t113.5 30.5t120 9.5q108 0 202 -28.5t163.5 -90t109.5 -158.5q39 -95 39 -232q0 -127 -38.5 -235.5t-113 -188t-181 -124t-241.5 -44.5q-61 0 -125.5 7 t-128.5 26.5t-126 57t-117 97.5z" />
<glyph unicode="&#xe52;" horiz-adv-x="1359" d="M6 1048l30 181q59 0 109.5 -18t88 -56.5t59.5 -96.5q21 -57 21 -138v-454q0 -64 23 -119t71 -94.5t121.5 -62t175.5 -22.5q97 0 162.5 21t105.5 56.5t57.5 82.5t17.5 99v312q0 67 -23.5 104.5t-68.5 47.5l-144 -117l-142 111q-35 0 -55 -34t-20 -103v-107q0 -34 0.5 -65 t7 -56t21.5 -40.5t43 -15.5h78v-165h-96q-61 0 -105 17.5t-74.5 45t-48 63t-26.5 72.5t-11.5 73t-2.5 64v97q0 67 22 127.5t63 107t100.5 77t134.5 38.5l111 -101l101 101q75 -4 138.5 -29t109.5 -66.5t72 -98t26 -124.5v-313q0 -122 -39.5 -209.5t-107 -144.5t-156.5 -83 q-89 -27 -189 -27h-105q-135 0 -238.5 35t-176 98.5t-108.5 152.5t-36 198v415q0 88 -23.5 125.5t-73.5 37.5z" />
<glyph unicode="&#xe53;" horiz-adv-x="1207" d="M97 470v111q0 122 24 212.5t71 150.5t116.5 93t161.5 44l136 -125l142 125q93 -8 162 -41.5t113.5 -87.5t66.5 -122t22 -143v-687h-211v687q0 91 -33 140q-31 49 -87 53l-175 -149l-170 149q-25 -2 -47 -15.5t-41.5 -45.5t-30.5 -87.5t-11 -142.5v-116q0 -31 0.5 -65 t4 -66.5t10.5 -63.5t19.5 -54.5t32 -36.5t50.5 -13q19 0 55 3.5t84 12.5v-182q-14 -4 -40 -7.5t-54.5 -6t-56 -4t-48.5 1.5q-67 8 -113 35t-75.5 65.5t-45 87t-22.5 98.5t-8.5 99.5t-1.5 92.5z" />
<glyph unicode="&#xe54;" horiz-adv-x="1167" d="M83 456v156q0 114 39 199.5t111.5 141.5t174 84t226.5 28h125q44 0 71.5 12.5t43.5 34t21.5 51.5t5.5 66h219q0 -39 -5.5 -81t-20.5 -80.5t-40 -73t-64 -60t-94.5 -40t-128.5 -14.5h-153q-73 0 -132 -16.5t-101 -48.5t-65 -78q-23 -48 -23 -106v-170q0 -59 17.5 -111.5 t52.5 -90t90.5 -59t130.5 -21.5q-20 14 -38 33t-32 42t-23 51.5t-9 61.5q0 17 2 41t13.5 51t32 53.5t57 48t92 35t133.5 13.5v-175q-46 0 -71 -10t-37 -23t-14.5 -27.5t-2.5 -25.5q0 -37 15 -67.5t38 -53.5t49.5 -35.5t48.5 -12.5h282v-179h-561q-95 0 -167 19.5t-125 54 t-87.5 79t-57 96t-31 104.5t-8.5 103z" />
<glyph unicode="&#xe55;" horiz-adv-x="1167" d="M83 456v156q0 84 22.5 153t64 122t101.5 89t133 58q-5 14 -8.5 30.5t-3.5 28.5q0 41 16 79.5t44.5 66t66 43.5t80.5 16q45 0 83 -16t67 -43.5t45 -65.5q15 -39 15 -80q0 -6 -1 -14q1 -9 -2 -14q31 5 51 20.5t33.5 37t19 48.5t5.5 58h212q0 -39 -6 -81t-21.5 -80.5 t-42 -73t-66.5 -60t-95.5 -40t-128.5 -14.5h-153q-73 0 -132 -16.5t-101 -48.5t-65 -78q-23 -48 -23 -106v-170q0 -59 17.5 -111.5t52.5 -90t90.5 -59t130.5 -21.5q-20 14 -38 33t-32 42t-23 51.5t-9 61.5q0 17 2 41t13.5 51t32 53.5t57 48t92 35t133.5 13.5v-175 q-46 0 -71 -10t-37 -23t-14.5 -27.5t-2.5 -25.5q0 -37 15 -67.5t38 -53.5t49.5 -35.5t48.5 -12.5h282v-179h-561q-95 0 -167 19.5t-125 54t-87.5 79t-57 96t-31 104.5t-8.5 103zM537 1093q0 -28 18 -46t44 -18q31 0 49.5 18t18.5 46q0 30 -19.5 49.5t-48.5 19.5 q-26 0 -44 -19.5t-18 -49.5z" />
<glyph unicode="&#xe56;" horiz-adv-x="1224" d="M31 1079l166 100l114 -195q24 14 58.5 30.5t78.5 30.5t96 24q51 10 112 12q97 3 171 -15.5t128 -54t90 -84.5t57 -106t31 -119.5t10 -123.5v-97q0 -67 -14 -130t-42 -119.5t-69.5 -102.5t-99.5 -78t-130 -48q-71 -17 -160 -14q-97 3 -176 29t-135 72t-86 109 q-31 65 -31 140q0 74 22.5 126t65.5 87t103 50q59 15 134 15h88v-167h-79q-35 0 -58.5 -8t-38 -23.5t-21 -37.5t-6.5 -50q0 -34 14.5 -63t44 -50t71.5 -33q44 -13 99 -14q63 -1 116.5 19.5t92.5 61t61 97.5t22 129v95q0 79 -18 139.5t-51.5 103t-82 64t-112.5 19.5 q-61 -1 -114 -12t-103 -32t-101 -52q-52 -33 -106 -75z" />
<glyph unicode="&#xe57;" horiz-adv-x="1435" d="M108 461v117q0 234 95.5 355t276.5 143l107 -111l107 111q105 -11 174.5 -50t110.5 -102.5t56.5 -149.5t15.5 -190v-111q0 -59 -13 -123q-12 -64 -43 -126q34 33 56 76t36 89.5t19.5 92.5t5.5 85v356q0 81 21 139t57 95.5t86 56.5t108 19l28 -182q-25 0 -41.5 -10 t-27.5 -28.5t-16 -50t-5 -74.5v-296q0 -64 -12 -129t-36 -126.5t-59.5 -117t-84.5 -101.5t-108.5 -79t-131.5 -50l-151 122q42 45 63 86.5t30.5 84.5t10.5 89t1 96v117q0 72 -8.5 124t-24.5 87.5t-38 56t-50 25.5l-139 -138l-136 134q-25 -6 -47.5 -24t-41 -53.5t-30 -88 t-11.5 -126.5v-108q0 -25 1 -56t4.5 -63t11 -62.5t21.5 -54.5t33.5 -39t49.5 -16q9 0 21.5 0.5t27 3.5l29 6t26.5 8l5 -183q-113 -36 -195.5 -17t-136 80.5t-80.5 159.5q-25 99 -28 221z" />
<glyph unicode="&#xe58;" horiz-adv-x="1213" d="M111 386v234q0 108 30 191.5t90.5 139t149.5 85t208 29.5h219q41 0 67 12.5t40 34t18.5 51.5t4.5 66h216q0 -39 -5.5 -81t-19 -81.5t-37.5 -75t-60.5 -61.5t-88 -41.5t-117.5 -15.5h-255q-69 0 -117 -18t-77 -51t-42 -76.5t-13 -96.5v-245q0 -41 9.5 -75t26 -61.5 t39.5 -43.5t51 -18l166 137l177 -137q26 1 47 10.5t35 32t21 58.5t7 89q0 22 -1.5 47t-10.5 46.5t-26.5 35.5t-50.5 14h-50v168h61q61 0 107 -13.5t78 -37.5t51.5 -54.5t30.5 -65t15 -71t4 -72.5q0 -94 -19.5 -166.5t-61 -121t-108.5 -73.5t-161 -25l-145 119l-133 -119 q-93 7 -163.5 41t-116 88t-68.5 123q-22 68 -22 145z" />
<glyph unicode="&#xe59;" horiz-adv-x="1248" d="M110 461v103q0 124 14.5 219t51.5 161.5t101.5 100.5t167.5 34q30 0 61 -3t58.5 -11.5t54 -25t50.5 -45.5q11 26 27 40.5t36.5 21t45.5 8t50 1.5h77q40 0 63.5 12.5t36 34t17 51.5t4.5 66h212q0 -39 -4 -81t-15.5 -80.5t-34 -73t-58 -60t-86 -40t-120.5 -14.5h-36 q-25 0 -44.5 -4t-32 -16t-16.5 -33t4 -54l284 -773h-217l-271 739q-14 37 -27.5 64.5t-30.5 48.5t-40 31q-20 11 -51 11q-33 0 -57 -16t-37.5 -53.5t-20.5 -100t-7 -151.5v-125v-59.5t2.5 -61.5t8 -57.5t18 -48.5t33.5 -32.5t52 -11.5q27 1 84 18l24 -184q-14 -4 -35 -7.5 t-44.5 -6.5t-47.5 -4q-23 -1 -45 1q-66 9 -111 34t-74 61t-44.5 81t-22.5 94.5t-7.5 99.5t-0.5 97z" />
<glyph unicode="&#xe5a;" horiz-adv-x="1396" d="M86 937q0 54 14 96.5t39.5 75t58.5 55.5t69.5 37.5t75 21t73.5 6.5h162v-170h-114q-18 0 -47 -4t-56 -16.5t-47.5 -37.5t-20.5 -67q0 -28 9 -55.5t30 -48.5t58.5 -34t93.5 -13q122 0 184.5 45t62.5 142v259h206v-1229h-206v676q-47 -35 -109 -55.5t-136 -20.5 q-100 0 -175 24t-125 68.5t-75 107t-25 137.5zM1081 0v1229h206v-1229h-206z" />
<glyph unicode="&#xe5b;" horiz-adv-x="2575" d="M108 623q0 69 15.5 138.5t44.5 134t73.5 120.5t101.5 97t128 64q68 24 152 24q116 0 201 -39t138 -104.5t78 -147.5t25 -168l-195 -3q0 124 -58.5 191.5t-162.5 74.5q-78 0 -138.5 -30.5t-102.5 -82.5t-64 -121.5t-22 -150.5q0 -75 28 -146t78 -125t122.5 -86t161.5 -32 q84 0 150.5 26.5t117.5 72t86 109.5t58 140t33.5 160t10.5 173l147 78q31 -32 61.5 -69t57 -74.5t50 -73.5t39.5 -67q34 52 78.5 119t104.5 140q25 -36 47.5 -72.5t45 -70.5t40.5 -64.5t32 -54.5q12 20 27 40.5t30 39.5t27 34q13 14 19 23h383l131 -202h-453 q-45 -53 -86.5 -126t-80.5 -151q-22 41 -44.5 83t-44 81t-40 72.5t-33.5 57.5q-20 -27 -43 -61.5t-46.5 -80.5t-48.5 -101.5t-47 -123.5q-43 119 -90 214.5t-91 157.5q-7 -91 -33.5 -173.5t-69.5 -152.5t-100.5 -127t-127 -97t-149 -62.5t-165.5 -22.5q-97 0 -179 22.5 t-147.5 62.5t-114 95.5t-80.5 122.5t-49 142t-17 153z" />
<glyph unicode="&#x2000;" horiz-adv-x="1151" />
<glyph unicode="&#x2001;" horiz-adv-x="2303" />
<glyph unicode="&#x2002;" horiz-adv-x="1151" />
<glyph unicode="&#x2003;" horiz-adv-x="2303" />
<glyph unicode="&#x2004;" horiz-adv-x="767" />
<glyph unicode="&#x2005;" horiz-adv-x="575" />
<glyph unicode="&#x2006;" horiz-adv-x="383" />
<glyph unicode="&#x2007;" horiz-adv-x="383" />
<glyph unicode="&#x2008;" horiz-adv-x="287" />
<glyph unicode="&#x2009;" horiz-adv-x="460" />
<glyph unicode="&#x200a;" horiz-adv-x="127" />
<glyph unicode="&#x200b;" />
<glyph unicode="&#x2010;" horiz-adv-x="706" d="M74 407v168h557v-168h-557z" />
<glyph unicode="&#x2011;" horiz-adv-x="706" d="M74 407v168h557v-168h-557z" />
<glyph unicode="&#x2012;" horiz-adv-x="706" d="M74 407v168h557v-168h-557z" />
<glyph unicode="&#x2013;" horiz-adv-x="1113" d="M0 509v183h1113v-183h-1113z" />
<glyph unicode="&#x2014;" horiz-adv-x="1599" d="M0 509v183h1601v-183h-1601z" />
<glyph unicode="&#x2018;" horiz-adv-x="451" d="M111 987v208q0 50 10 101.5t35.5 94.5t68.5 75t109 44v-128q-30 -5 -48.5 -22t-28.5 -39.5t-14 -49.5q-4 -28 -4 -53h95v-231h-223z" />
<glyph unicode="&#x2019;" horiz-adv-x="451" d="M120 951v128q29 4 47.5 20.5t28.5 39.5t14 49.5t4 52.5h-94v231h222v-207q0 -50 -10 -101.5t-35.5 -94.5t-68.5 -75t-108 -43z" />
<glyph unicode="&#x201c;" horiz-adv-x="796" d="M111 987v208q0 50 10.5 101.5t36 94.5t69.5 75q43 32 107 44v-128q-30 -5 -48 -22t-28.5 -39.5t-14.5 -49.5q-4 -28 -4 -53h95v-231h-223zM456 987v208q0 50 10.5 101.5t36 94.5t68.5 75t107 44v-128q-29 -5 -47 -22t-28.5 -39.5t-14.5 -49.5q-4 -28 -4 -53h94v-231h-222 z" />
<glyph unicode="&#x201d;" horiz-adv-x="796" d="M118 951v128q29 4 47 20.5t29.5 39.5t15 49.5t3.5 52.5h-93v231h221v-207q0 -50 -10.5 -101.5t-35.5 -94.5t-68.5 -75t-108.5 -43zM463 951v128q29 4 47 20.5t29 39.5t14.5 49.5t3.5 52.5h-93v231h221v-207q0 -50 -10.5 -101.5t-35.5 -94.5t-68 -75t-108 -43z" />
<glyph unicode="&#x2022;" horiz-adv-x="788" d="M68 567q0 61 26 116.5t70 98t104 67.5q57 24 124 24t126.5 -24.5t104 -67t71 -98t26.5 -116.5q0 -64 -26.5 -121t-71 -100t-104 -68t-126.5 -25t-125.5 25t-102.5 68t-70 100t-26 121z" />
<glyph unicode="&#x202f;" horiz-adv-x="460" />
<glyph unicode="&#x205f;" horiz-adv-x="575" />
<glyph unicode="&#x20ac;" horiz-adv-x="1223" d="M19 531v142h155v50v67h-155v141h166q8 64 23.5 127.5t41 119.5t64.5 105t92 83.5t123 54.5q71 19 160 19q114 0 201 -36t145.5 -100t87 -150t25.5 -187h-214q-1 62 -14.5 114.5t-43 93t-79 63.5t-121.5 23q-67 0 -113.5 -29.5t-78 -76t-49.5 -106t-28 -118.5h321v-141 h-333v-64v-53h333v-142h-326q4 -46 12.5 -91t22 -86t33 -76.5t49 -61.5t68.5 -40.5t89 -14.5q80 0 131 30.5t79.5 83.5t38.5 123q12 69 9 144h214q3 -75 -7 -146t-32 -133.5t-58 -115t-88.5 -90.5t-120.5 -58q-66 -21 -153 -21q-100 0 -176.5 22t-132 59.5t-92 90t-59.5 114 t-35.5 129.5t-16.5 138h-158z" />
<glyph unicode="&#x2122;" horiz-adv-x="1654" d="M57 1268v153h613v-153h-225v-687h-163v687h-225zM748 581v840h217l200 -555l196 555h212v-840h-152l-3 582l-211 -582h-98l-207 580v-580h-154z" />
<glyph unicode="&#x25cc;" horiz-adv-x="1366" d="M334 584l90 44q-3 -22 -3 -47q0 -24 3 -43zM430 336l34 94q27 -38 63 -66zM448 834l90 -33q-43 -25 -68 -62zM634 840l50 91l42 -89q-20 3 -39 3q-28 0 -53 -5zM641 320q23 -6 46 -6q19 0 36 6l-39 -86zM834 801l103 33l-38 -97q-26 39 -65 64zM837 361q35 24 60 57 l26 -82zM948 543q3 14 3 38q0 22 -3 45l86 -45z" />
<glyph unicode="&#x25fc;" horiz-adv-x="1077" d="M0 0v1077h1077v-1077h-1077z" />
<glyph unicode="&#xf700;" horiz-adv-x="936" d="M78 851q0 86 25.5 158t77 125t128 81.5t177.5 28.5q42 0 84 -6t82 -23q19 8 34 20.5t23 28t12.5 29.5t4.5 25h225q-2 -31 -11 -63t-27 -61t-46 -54q-27 -25 -66 -42q36 -51 55.5 -125.5t10.5 -177.5q-2 -39 -8 -79t-17 -86t-27.5 -104.5t-40 -133.5t-56.5 -171t-74 -221 h-255l-172 578h-131v161h289l146 -494q22 73 39.5 131t31 105t23 84.5t17 71.5t12 67t8.5 67q5 59 -1 111t-27 93t-55.5 65.5t-84.5 24.5q-89 0 -136.5 -50t-51.5 -164h-218z" />
<glyph unicode="&#xf701;" d="M-1125 1393l88 175h603v-175h-691z" />
<glyph unicode="&#xf702;" d="M-1125 1393l88 175h420v172h183v-347h-691z" />
<glyph unicode="&#xf703;" d="M-1125 1393l88 175h247q-2 3 -2 5.5v5.5q0 39 15 73.5t41 60t60 40.5t73 15t72 -15t59.5 -40.5t41 -60t14.5 -73.5t-14.5 -72.5t-41 -59t-59.5 -40t-72 -14.5h-522zM-666 1576q0 -25 18 -43t45 -18q25 0 43.5 18t18.5 43t-18.5 44.5t-43.5 19.5q-27 0 -45 -19.5 t-18 -44.5z" />
<glyph unicode="&#xf704;" d="M-1125 1393l88 175h160v172h176v-172h92v172h175v-347h-691z" />
<glyph unicode="&#xf705;" d="M-649 1393v332h190v-332h-190z" />
<glyph unicode="&#xf706;" d="M-912 1543v144h234v-169q83 5 130.5 51t47.5 118h158q0 -63 -23.5 -120t-69 -101t-111.5 -69.5t-152 -27.5h-128v174h-86z" />
<glyph unicode="&#xf707;" d="M-1037 1387q0 81 13 135t35 87t49.5 46.5t56.5 13.5q20 0 36 -6t30 -17t23.5 -25t16.5 -28q14 36 44 56t73 20q22 0 43.5 -7t39.5 -22.5t31.5 -41t18.5 -62.5q17 24 30 65.5t13 91.5h139q0 -50 -12.5 -100.5t-36 -93t-56.5 -72.5q-34 -31 -74 -40h-122q0 14 -1 36.5 t-5 42.5t-11 34.5t-19 14.5q-9 0 -15 -5.5t-10.5 -16.5t-6.5 -25q0 -14 -3 -29h-110q-1 15 -3.5 29t-6.5 25t-10 16.5t-15 5.5q-14 0 -21 -14.5t-11 -34.5t-5.5 -42.5t-1.5 -36.5h-136z" />
<glyph unicode="&#xf708;" d="M-883 1540v142h166v136h167v-136h166v-142h-166v-147h-167v147h-166z" />
<glyph unicode="&#xf709;" d="M-820 1393q0 69 25 131.5t78 110t133.5 75.5t191.5 30v-158q-60 0 -103.5 -12.5t-71.5 -37.5t-40 -61q-13 -34 -13 -78h-200z" />
<glyph unicode="&#xf70a;" d="M-314 1393v332h200v-332h-200z" />
<glyph unicode="&#xf70b;" d="M-660 1571v148h279v-176q45 3 78 16.5t57 37.5t35 54.5t11 67.5h192q0 -64 -24 -123t-72.5 -104t-123 -72t-174.5 -27h-160v178h-98z" />
<glyph unicode="&#xf70c;" d="M-897 1390q0 96 16 160.5t42.5 103.5t63 56.5t74.5 17.5q25 0 47.5 -8t39 -20.5t29 -30.5t21.5 -37q9 22 22.5 38.5t31.5 30t41.5 20.5t55.5 7q31 0 56.5 -12t46.5 -34t35 -51.5t19 -65.5q27 24 44 73t17 113h170q0 -55 -15.5 -115t-44.5 -110.5t-70.5 -87.5t-94.5 -48 h-148q0 11 -0.5 27t-2.5 34t-5 36t-8.5 33t-13.5 23t-20 8t-21 -9.5t-16 -25t-11 -35t-6 -38.5h-124q-2 19 -5 38.5t-8.5 35t-15 25t-23.5 9.5q-13 0 -22 -8t-14.5 -23t-9 -33t-5.5 -36t-2 -34v-27h-166z" />
<glyph unicode="&#xf70d;" d="M-478 1554v154h176v149h182v-149h177v-154h-177v-158h-182v158h-176z" />
<glyph unicode="&#xf70e;" d="M-467 1393q0 72 26.5 136t80.5 112.5t137.5 78t197.5 31.5v-162q-61 0 -106.5 -14t-74 -39.5t-42 -62t-13.5 -80.5h-206z" />
<glyph unicode="&#xf70f;" horiz-adv-x="1656" d="M51 948q38 75 90 131.5t115.5 93t134 54t147.5 17.5q86 0 163 -21.5t137 -64.5t94.5 -104.5t34.5 -138.5v-556q0 -42 10.5 -77t30 -60t49 -38t68.5 -13h54q39 0 68.5 13t50 38t30 60t9.5 77v870h209v-919q0 -83 -33 -143.5t-85.5 -99.5t-119.5 -57t-135 -18h-48 q-67 0 -133 19.5t-118.5 58t-84 98.5t-31.5 142v563q0 44 -16 80.5t-45.5 61.5t-69.5 37.5t-89 12.5q-39 0 -76 -7t-68 -19.5t-57 -30.5t-41 -41q8 -13 16 -30t12.5 -36.5t8 -39t3.5 -38.5v-649h128v-174h-339v831q0 20 -3.5 38.5t-12 34t-23 27t-35.5 17.5z" />
<glyph unicode="&#xf710;" d="M-785 1396v264h179v-95h717v-169h-896z" />
<glyph unicode="&#xf711;" d="M-820 1592q0 44 16 81.5t43.5 66t64.5 44t81.5 15.5t82 -15.5t65.5 -44t44 -66.5t16 -81.5t-16 -81t-44 -65t-66 -42.5q-37 -16 -81 -16q-43 0 -81 15.5t-65.5 43t-43.5 65t-16 81.5zM-689 1592q0 -16 6 -30t16.5 -23.5t23.5 -15.5q15 -5 29 -5q16 0 30 5.5t24 15 t16 23.5t6 30t-6 29.5t-16 24.5t-24 16q-14 6 -30 6q-14 0 -28 -5.5t-24.5 -16.5t-16.5 -24.5t-6 -29.5z" />
<glyph unicode="&#xf712;" d="M-1095 1632q0 76 23.5 124t59.5 76.5t79 39t84 10.5h513v-153h-508q-25 0 -42.5 -7.5t-26.5 -21t-12.5 -30t-3.5 -36t1.5 -35.5t8.5 -27.5t19.5 -18.5t32.5 -7q34 0 48 25q16 25 16 78h141q0 -53 12.5 -78t50.5 -25q42 0 53 25.5t8 77.5h154q3 -57 -4 -98t-18.5 -69.5 t-29 -46t-38.5 -27.5t-44.5 -12.5t-45.5 -2.5q-35 0 -62 8t-47.5 21.5t-34 31t-22.5 35.5q-8 -17 -23.5 -34.5t-37 -31.5t-48 -22t-56.5 -8q-52 0 -89.5 18t-61.5 50t-37 76q-12 45 -12 95z" />
<glyph unicode="&#xf713;" d="M-612 1868v313h178v-313h-178z" />
<glyph unicode="&#xf714;" d="M-870 2049v143h258v-176q100 2 148 49.5t48 126.5h177q0 -64 -26.5 -121.5t-76.5 -102t-122 -71.5q-73 -26 -164 -29h-141v181h-101z" />
<glyph unicode="&#xf715;" d="M-967 1868q0 79 13.5 131.5t37.5 84.5t56 45.5t68 13.5q47 0 76 -22.5t46 -59.5q15 37 50.5 59.5t87.5 22.5q27 0 53 -7t45.5 -22t33.5 -41t19 -63q24 19 38.5 61t14.5 95h157q0 -50 -14.5 -99t-42.5 -90t-66 -71q-37 -30 -84 -38h-135q0 17 -2 39t-7.5 43t-15.5 35 t-24 14q-11 0 -20.5 -7t-16 -17t-10.5 -23.5t-7 -29.5h-104q-3 14 -6.5 28.5t-9.5 24.5t-14.5 17t-19.5 7q-17 0 -26.5 -15.5t-15 -36t-7 -43t-1.5 -36.5h-147z" />
<glyph unicode="&#xf716;" d="M-785 2010v142h173v151h159v-151h175v-142h-175v-160h-159v160h-173z" />
<glyph unicode="&#xf717;" d="M-612 1725q0 61 26 120t76.5 105.5t124.5 75t168 28.5v-147q-55 0 -95.5 -14t-66 -37.5t-38.5 -57t-13 -73.5h-182z" />
<glyph unicode="&#xf718;" d="M-395 -509h284v-445h-193v273h-91v172z" />
<glyph unicode="&#xf719;" d="M-753 -509h283v-205q0 -101 84 -101q83 0 82 101v205h193v-205q-2 -53 -16.5 -102t-47 -85t-84.5 -57t-127 -21t-128 21t-85.5 57t-47.5 85t-16 102v36h-90v169z" />
<glyph unicode="&#xf71a;" d="M-359 -628q0 28 10.5 53t28.5 43t42.5 29t52.5 11t53 -11t43 -29t29 -43t11 -53t-11 -52.5t-29 -42.5t-43 -28.5t-53 -10.5t-52.5 10.5t-42.5 28.5t-28.5 42.5t-10.5 52.5z" />
<glyph unicode="&#xf71d;" horiz-adv-x="1295" d="M71 1229h214l79 -776l6 -111l19 114l138 563h196l130 -563l20 -125l15 122q13 104 22 178.5t15 127.5t9.5 85t5.5 51.5t2 29.5v17q0 28 -5.5 50.5t-19 39t-38 25t-62.5 8.5l-25 158q50 0 97.5 12t83.5 33.5t59.5 53.5t29.5 76h231q-6 -54 -25.5 -99t-46 -78.5t-59.5 -57 t-69 -36.5q33 -28 48 -71.5t15 -104.5q0 -6 -0.5 -13.5t-2.5 -23.5t-6 -44t-11 -74.5t-18.5 -114t-26 -163t-34.5 -223.5t-46 -295h-253l-138 617l-134 -617h-250z" />
<glyph d="M-842 1423q0 49 12.5 99t40 92.5t69.5 73t103 43.5q10 44 37 79.5t71.5 62t104.5 40.5q62 14 137 16v-153q-100 0 -146 -34q-46 -32 -46 -107v-35h-39q-45 0 -76.5 -13.5t-49.5 -37t-25.5 -55.5t-7.5 -71h-185z" />
<glyph horiz-adv-x="870" d="M-820 1592q0 44 16 81.5t43.5 66t64.5 44t81.5 15.5t82 -15.5t65.5 -44t44 -66.5t16 -81.5t-16 -81t-44 -65t-66 -42.5q-37 -16 -81 -16q-43 0 -81 15.5t-65.5 43t-43.5 65t-16 81.5zM-689 1592q0 -16 6 -30t16.5 -23.5t23.5 -15.5q15 -5 29 -5q16 0 30 5.5t24 15 t16 23.5t6 30t-6 29.5t-16 24.5t-24 16q-14 6 -30 6q-14 0 -28 -5.5t-24.5 -16.5t-16.5 -24.5t-6 -29.5zM19 885q0 89 32 156.5t85 112t119.5 67.5t136.5 23q67 0 133.5 -21t119.5 -62t85.5 -103.5t32.5 -142.5v-915h-210v880q0 44 -11.5 79.5t-32.5 59t-51 36.5t-66 13 q-33 0 -61.5 -13t-51.5 -36.5t-37 -56.5t-17 -77h-206z" />
<glyph horiz-adv-x="870" d="M-820 1592q0 44 16 81.5t43.5 66t64.5 44t81.5 15.5t82 -15.5t65.5 -44t44 -66.5t16 -81.5t-16 -81t-44 -65t-66 -42.5q-37 -16 -81 -16q-43 0 -81 15.5t-65.5 43t-43.5 65t-16 81.5zM-689 1592q0 -16 6 -30t16.5 -23.5t23.5 -15.5q15 -5 29 -5q16 0 30 5.5t24 15 t16 23.5t6 30t-6 29.5t-16 24.5t-24 16q-14 6 -30 6q-14 0 -28 -5.5t-24.5 -16.5t-16.5 -24.5t-6 -29.5zM19 885q0 89 32 156.5t85 112t119.5 67.5t136.5 23q67 0 133.5 -21t119.5 -62t85.5 -103.5t32.5 -142.5v-915h-210v880q0 44 -11.5 79.5t-32.5 59t-51 36.5t-66 13 q-33 0 -61.5 -13t-51.5 -36.5t-37 -56.5t-17 -77h-206z" />
<glyph d="M-880 1393l88 175h681v-175h-769z" />
<glyph d="M-880 1393l88 175h496v186h185v-361h-769z" />
<glyph d="M-880 1393l88 175h347q-3 3 -3 5.5v5.5q0 39 15.5 73.5t41 60t60 40.5t72.5 15q39 0 72.5 -15t60 -40.5t41 -60t14.5 -73.5t-14.5 -72.5t-41 -59t-60.5 -40.5q-33 -14 -72 -14h-621zM-322 1576q0 -25 18 -43q20 -18 45 -18t43.5 18t18.5 43t-18.5 44.5t-43.5 19.5 t-44 -19.5t-19 -44.5z" />
<glyph d="M-880 1393l88 175h236v186h178v-186h90v186h177v-361h-769z" />
<glyph d="M-1238 1393l87 175h776v-175h-863z" />
<glyph d="M-1238 1393l87 175h589v186h187v-361h-863z" />
<glyph d="M-1238 1393l87 175h448q-3 3 -3 5.5v5.5q0 39 15 73.5t40 60t60 40.5t74 15t72.5 -15t59 -40.5t40 -60t14.5 -73.5t-14.5 -72.5t-40 -59t-59.5 -40.5q-33 -14 -72 -14h-721zM-581 1576q0 -25 18 -43t46 -18q25 0 43 18t18 43t-18 44.5t-43 19.5q-26 0 -45 -19.5 t-19 -44.5z" />
<glyph d="M-1238 1393l87 175h331v186h176v-186h91v186h178v-361h-863z" />
<glyph d="M-556 1868v313h181v-313h-181z" />
<glyph d="M-853 2049v143h258v-176q100 2 148.5 49.5t48.5 126.5h176q0 -64 -26.5 -121.5t-76.5 -102t-123 -71.5q-72 -26 -164 -29h-139v181h-102z" />
<glyph d="M-904 1868q0 79 14 131.5t38.5 84.5t57 45.5t68.5 13.5q48 0 76 -23q30 -22 47 -59q15 37 49 59.5t87 22.5q28 0 53 -7t45.5 -22t34.5 -41t17 -63q24 19 40 61t16 95h155q0 -50 -15 -99t-41.5 -90t-65.5 -71t-86 -38h-134q0 17 -1 39t-6.5 43t-15.5 35t-27 14 q-11 0 -19 -7t-15 -17t-11.5 -23.5t-6.5 -29.5h-103q-3 14 -7 28.5t-10.5 24.5t-15.5 17t-20 7q-17 0 -26 -15.5t-14 -36t-7 -43t-2 -36.5h-149z" />
<glyph d="M-714 2010v142h173v151h160v-151h173v-142h-173v-160h-160v160h-173z" />
<glyph d="M-1244 1393l88 175h1045v-175h-1133z" />
<glyph d="M-1244 1393l88 175h860v186h185v-361h-1133z" />
<glyph d="M-1244 1393l88 175h703q-3 3 -3 5.5v5.5q0 39 15.5 73.5t41 60t59.5 40.5t73 15t72.5 -15t59 -40.5t40 -60t14.5 -73.5t-14.5 -72.5t-40 -59t-59.5 -40.5q-33 -14 -72 -14h-977zM-331 1576q0 -25 19 -43q20 -18 45 -18t43 18t18 43t-18 44.5t-43 19.5t-44.5 -19.5 t-19.5 -44.5z" />
<glyph d="M-1244 1393l88 175h600v186h178v-186h90v186h177v-361h-1133z" />
<glyph d="M-291 1722v313h180v-313h-180z" />
<glyph d="M-644 1907v142h260v-175q50 0 87 13t61.5 36t36 55t11.5 71h177q0 -64 -26.5 -121t-76.5 -101.5t-123 -72.5t-165 -29h-139v182h-103z" />
<glyph d="M-712 1725q0 79 14 132t37.5 85t56.5 46t69 14q47 0 75.5 -24t46.5 -60q15 36 50 60t88 24q28 0 53 -7t45 -23t34 -42t18 -62q24 20 39 61.5t15 94.5h157q0 -50 -15 -99t-42.5 -90.5t-65.5 -70.5t-85 -39h-134q0 17 -2 40t-7.5 43t-15.5 34t-25 14q-11 0 -20 -6.5 t-15.5 -17t-10.5 -24.5q-4 -15 -7 -29h-104q-3 14 -6.5 28.5t-10 25t-15 17t-19.5 6.5q-17 0 -26.5 -15.5t-14.5 -36.5t-7 -43t-2 -36h-148z" />
<glyph d="M-445 1885v142h175v150h159v-150h174v-142h-174v-160h-159v160h-175z" />
<glyph d="M-612 1722v313h178v-313h-178z" />
<glyph d="M-870 1907v142h258v-175q50 0 87 13t61.5 36t36 55t11.5 71h177q0 -64 -26.5 -121t-76.5 -101.5t-122.5 -72.5t-163.5 -29h-141v182h-101z" />
<glyph d="M-997 1725q0 79 14 132t38.5 85t56.5 46t68 14q47 0 76.5 -24t45.5 -60q16 36 50 60t86 24q28 0 54 -7t46 -23t34 -42t18 -62q24 20 39 61.5t15 94.5h156q0 -50 -14.5 -99t-42 -90.5t-66 -70.5t-84.5 -39h-135q0 17 -1.5 40t-7 43t-15 34t-25.5 14q-11 0 -20 -6.5 t-16 -17t-11 -24.5q-4 -15 -7 -29h-103q-3 14 -7 28.5t-9.5 25t-14.5 17t-20 6.5q-17 0 -26 -15.5t-14.5 -36.5t-7 -43t-1.5 -36h-149z" />
<glyph d="M-785 1882v142h173v150h159v-150h175v-142h-175v-160h-159v160h-173z" />
<glyph d="M-570 -143h285v-467h-193v296h-92v171z" />
<glyph d="M-798 -143h286v-205q0 -50 21 -75t61.5 -25t61 25t20.5 75v205h195v-205q-1 -52 -15.5 -101t-48 -85t-85 -57.5t-128.5 -21.5q-75 0 -127.5 21.5t-85.5 57.5t-48 84q-15 50 -15 102v37h-92v168z" />
<glyph d="M-549 -265q0 27 10.5 51.5t28.5 42.5t43 29t53 11t53 -11t43 -29t28.5 -42.5t10.5 -51.5q0 -28 -10.5 -52.5t-28.5 -42.5t-43 -29t-53 -11t-53 11t-43 29t-28.5 42.5t-10.5 52.5z" />
<glyph d="M-564 -143h286v-467h-195v296h-91v171z" />
<glyph d="M-929 -143h285v-205q0 -50 21 -75q20 -25 61 -25q42 0 63 25t21 75v205h193v-205q-1 -52 -16 -101t-47.5 -85t-84.5 -57q-53 -22 -129 -22q-75 0 -127 21.5t-84.5 57.5t-47.5 84q-16 50 -16 102v37h-92v168z" />
<glyph d="M-532 -253q0 28 10 52t28.5 42.5t43.5 28.5t52 10q28 0 53 -10t43 -28.5t28.5 -42.5t10.5 -52t-10.5 -53t-28.5 -43t-43 -29t-53 -11q-27 0 -52 11t-43.5 29t-28.5 43t-10 53z" />
<glyph d="M-785 1396v266h179v-94h745v-172h-924z" />
<glyph d="M-595 1868v313h179v-313h-179z" />
<glyph d="M-870 2007v142h258v-175q50 0 87 12.5t61.5 36t36 55.5t11.5 71h177q0 -63 -26.5 -120.5t-76.5 -102t-122.5 -72.5t-163.5 -29h-141v182h-101z" />
<glyph d="M-817 1868q0 79 13.5 131.5t37.5 84.5t56.5 45.5t68.5 13.5q47 0 75.5 -22.5t47.5 -59.5q15 37 49.5 59.5t87.5 22.5q28 0 53 -7t45 -22t34 -41t18 -63q24 19 39 61t15 95h158q0 -50 -15.5 -99t-42.5 -90t-65.5 -71t-85.5 -38h-133q0 17 -2.5 39t-8 43t-15 35t-24.5 14 q-12 0 -21 -7t-15 -17t-10 -23.5t-7 -29.5h-105q-2 14 -5.5 28.5t-10.5 24.5t-15.5 17t-19.5 7q-17 0 -26.5 -15.5t-14.5 -36t-7 -43t-2 -36.5h-147z" />
<glyph d="M-687 1982v142h175v150h159v-150h174v-142h-174v-161h-159v161h-175z" />
<glyph d="M-1045 1393l89 175h845v-175h-934z" />
<glyph d="M-1045 1393l89 175h660v186h185v-361h-934z" />
<glyph d="M-1045 1393l89 175h503q-3 3 -3 5.5v5.5q0 39 15.5 73.5t41 60t59.5 40.5t73 15t72.5 -15t59 -40.5t40 -60t14.5 -73.5t-14.5 -72.5t-40 -59t-59.5 -40.5q-33 -14 -72 -14h-778zM-331 1576q0 -25 19 -43q20 -18 45 -18t43 18t18 43t-18 44.5t-43 19.5t-44.5 -19.5 t-19.5 -44.5z" />
<glyph d="M-1045 1393l89 175h400v186h178v-186h90v186h177v-361h-934z" />
<glyph d="M-689 1868v313h180v-313h-180z" />
<glyph d="M-862 2010v142h173v151h161v-151h172v-142h-172v-160h-161v160h-173z" />
<glyph d="M-556 -143h285v-467h-193v296h-92v171z" />
<glyph d="M-823 -143h284v-205q0 -50 20.5 -75t62.5 -25t62 25t20 75v205h193v-205q-1 -52 -15.5 -101t-47.5 -85t-85 -57.5t-127 -21.5t-128 21.5t-85.5 57.5t-47.5 84q-14 50 -16 102v37h-90v168z" />
<glyph d="M-581 -267q0 28 11 53t29 43t42.5 29t52.5 11t52 -11t42 -29t29.5 -43t11.5 -53t-11.5 -52t-29.5 -42t-42 -28.5t-52 -10.5t-52.5 10.5t-42.5 28.5t-29 42t-11 52z" />
</font>
</defs>
</svg>
