<?xml version="1.0" standalone="no"?>
<!DOCTYPE svg PUBLIC "-//W3C//DTD SVG 1.1//EN" "http://www.w3.org/Graphics/SVG/1.1/DTD/svg11.dtd" >
<svg xmlns="http://www.w3.org/2000/svg" xmlns:xlink="http://www.w3.org/1999/xlink" version="1.1">
<metadata></metadata>
<defs>
<font id="db_heaventmed" horiz-adv-x="0" >
<font-face units-per-em="2048" ascent="1638" descent="-410" />
<missing-glyph horiz-adv-x="515" />
<glyph unicode="&#x2b;&#x2d;" horiz-adv-x="1241" d="M78 0v191h1085v-191h-1085zM78 716v199h443v448h198v-448h444v-199h-442v-444h-197v444h-446z" />
<glyph unicode="&#x2e;&#x2e;&#x2e;" horiz-adv-x="2054" d="M194 -3v290h291v-290h-291zM876 -3v290h290v-290h-290zM1560 -3v290h293v-290h-293z" />
<glyph unicode="&#x3c;&#x3d;" horiz-adv-x="1321" d="M110 182h1096l3 -182h-1097zM110 755v166l1098 494v-195l-841 -384l841 -379v-194z" />
<glyph unicode="&#x3e;&#x3d;" horiz-adv-x="1321" d="M110 182h1096l3 -182h-1097zM110 263l2 194l838 379l-840 384l1 195l1097 -494l-2 -166z" />
<glyph unicode="&#xe4f;&#x22;" horiz-adv-x="1536" d="M108 619q0 90 23 173.5t66 155.5t103.5 132t133 101t157 65t176.5 24q88 0 171 -24t155 -65t131 -101t101.5 -132t64.5 -155q25 -84 25 -174.5t-23.5 -174t-66 -156t-102.5 -131.5t-131.5 -101.5t-154.5 -65.5q-85 -23 -173 -23q-92 0 -175 23t-156 65.5t-133 101.5 t-102.5 131.5t-66 156t-23.5 174.5zM287 624.5q0 -97.5 38 -184t102 -151t151.5 -103t186.5 -38.5q65 0 125 18t112 49t95 74t73 96t47 113.5t17 126t-16 126t-47 112.5t-74 94.5t-95.5 73t-112.5 47.5t-125 17q-101 0 -187 -37t-150 -100.5t-102 -149.5t-38 -183.5z M414 625q0 69 28.5 131t75.5 109t111 75t135 28q69 0 130.5 -28t108 -75t74 -109t27.5 -131q0 -71 -26.5 -135t-73 -110.5t-108 -74t-132.5 -27.5t-135 27.5t-111 74t-75.5 110.5t-28.5 135zM502 1788h200l-26 -339h-155zM576 625q0 -40 14.5 -75t39 -60t59.5 -39 q33 -14 75 -14q38 0 70.5 14t57 39t38.5 60t13 75q0 38 -14 70.5t-38 57.5t-56.5 39.5t-69.5 14.5q-41 0 -76 -14.5t-60 -39.5t-39 -57.5t-14 -70.5zM832 1788h204l-24 -339h-157z" />
<glyph unicode="&#xe0e;&#xe3a;" horiz-adv-x="1360" d="M65 203h121v469q0 25 -4 51t-15.5 51t-31.5 47.5t-52 39.5q12 51 34 99.5t56 94.5t81.5 85.5t109 68t137.5 45t168 16.5q109 0 195 -20t149.5 -56.5t108 -85t71.5 -106.5t38.5 -122.5t11.5 -130.5v-1177h-243q-17 27 -41 53t-59.5 45t-84 31t-115.5 12q-53 0 -100.5 -12 t-91 -34t-83.5 -55q-40 -35 -79 -77l2 240q26 30 64 55t84 44t97.5 29.5t109.5 10.5q53 0 97.5 -7.5t80 -18.5t63.5 -24q27 -12 46 -24l2 930q0 53 -16.5 103.5t-54 91.5t-99 66.5t-153.5 26.5q-77 0 -134 -17t-96 -43.5t-62 -57t-29 -55.5q18 -18 34 -41t27 -50t18 -59 q5 -33 5 -66l5 -669h-370zM947 -679q0 35 13.5 65.5t36.5 54t54 37t66 13.5q34 0 64 -13.5t53 -37t36 -53.5q15 -31 15 -66q0 -34 -13.5 -64.5t-37 -53.5t-54 -36.5t-64.5 -13.5q-36 0 -66 13.5t-53 36.5t-36.5 53.5t-13.5 64.5z" />
<glyph unicode="&#xe0f;&#xe3a;" horiz-adv-x="1360" d="M65 203h121v469q0 25 -4 51t-15.5 51t-31.5 47.5t-52 39.5q12 51 34 99.5t56 94.5t81.5 85.5t109 68t137.5 45t168 16.5q109 0 195 -20t149.5 -56.5t108 -85t71.5 -106.5t38.5 -122.5t11.5 -130.5v-1177h-248q-5 21 -14.5 47t-26 48t-38.5 37t-55 15q-29 0 -51.5 -15 t-38 -36.5t-22 -47.5t-6.5 -48h-210q0 17 -4.5 42t-18 48.5t-35.5 41.5t-55 18q-26 0 -45.5 -14t-32 -35.5t-17.5 -48.5t-5 -52h-199q0 89 24 153.5t64.5 106t90 60.5t100.5 19q74 0 131 -29.5t94 -84.5q20 27 46 47t53.5 33t55.5 19t52 6q55 0 93 -16t67 -40v924 q0 53 -16.5 103.5t-54 91.5t-99 66.5t-153.5 26.5q-77 0 -134 -17t-96 -43.5t-62 -57t-29 -55.5q18 -18 34 -41t27 -50t18 -59q5 -33 5 -66l5 -669h-370zM947 -679q0 35 13.5 65.5t36.5 54t54 37t66 13.5q34 0 64 -13.5t53 -37t36 -53.5q15 -31 15 -66q0 -34 -13.5 -64.5 t-37 -53.5t-54 -36.5t-64.5 -13.5q-36 0 -66 13.5t-53 36.5t-36.5 53.5t-13.5 64.5z" />
<glyph unicode="&#xe0e;&#xe38;" horiz-adv-x="1360" d="M65 203h121v469q0 25 -4 51t-15.5 51t-31.5 47.5t-52 39.5q12 51 34 99.5t56 94.5t81.5 85.5t109 68t137.5 45t168 16.5q109 0 195 -20t149.5 -56.5t108 -85t71.5 -106.5t38.5 -122.5t11.5 -130.5v-1177h-243q-17 27 -41 53t-59.5 45t-84 31t-115.5 12q-53 0 -100.5 -12 t-91 -34t-83.5 -55q-40 -35 -79 -77l2 240q26 30 64 55t84 44t97.5 29.5t109.5 10.5q53 0 97.5 -7.5t80 -18.5t63.5 -24q27 -12 46 -24l2 930q0 53 -16.5 103.5t-54 91.5t-99 66.5t-153.5 26.5q-77 0 -134 -17t-96 -43.5t-62 -57t-29 -55.5q18 -18 34 -41t27 -50t18 -59 q5 -33 5 -66l5 -669h-370zM901 -506h342v-465h-234l3 274h-109z" />
<glyph unicode="&#xe0f;&#xe38;" horiz-adv-x="1360" d="M65 203h121v469q0 25 -4 51t-15.5 51t-31.5 47.5t-52 39.5q12 51 34 99.5t56 94.5t81.5 85.5t109 68t137.5 45t168 16.5q109 0 195 -20t149.5 -56.5t108 -85t71.5 -106.5t38.5 -122.5t11.5 -130.5v-1177h-248q-5 21 -14.5 47t-26 48t-38.5 37t-55 15q-29 0 -51.5 -15 t-38 -36.5t-22 -47.5t-6.5 -48h-210q0 17 -4.5 42t-18 48.5t-35.5 41.5t-55 18q-26 0 -45.5 -14t-32 -35.5t-17.5 -48.5t-5 -52h-199q0 89 24 153.5t64.5 106t90 60.5t100.5 19q74 0 131 -29.5t94 -84.5q20 27 46 47t53.5 33t55.5 19t52 6q55 0 93 -16t67 -40v924 q0 53 -16.5 103.5t-54 91.5t-99 66.5t-153.5 26.5q-77 0 -134 -17t-96 -43.5t-62 -57t-29 -55.5q18 -18 34 -41t27 -50t18 -59q5 -33 5 -66l5 -669h-370zM901 -506h342v-465h-234l3 274h-109z" />
<glyph unicode="&#xe0e;&#xe39;" horiz-adv-x="1360" d="M65 203h121v469q0 25 -4 51t-15.5 51t-31.5 47.5t-52 39.5q12 51 34 99.5t56 94.5t81.5 85.5t109 68t137.5 45t168 16.5q109 0 195 -20t149.5 -56.5t108 -85t71.5 -106.5t38.5 -122.5t11.5 -130.5v-1177h-243q-17 27 -41 53t-59.5 45t-84 31t-115.5 12q-53 0 -100.5 -12 t-91 -34t-83.5 -55q-40 -35 -79 -77l2 240q26 30 64 55t84 44t97.5 29.5t109.5 10.5q53 0 97.5 -7.5t80 -18.5t63.5 -24q27 -12 46 -24l2 930q0 53 -16.5 103.5t-54 91.5t-99 66.5t-153.5 26.5q-77 0 -134 -17t-96 -43.5t-62 -57t-29 -55.5q18 -18 34 -41t27 -50t18 -59 q5 -33 5 -66l5 -669h-370zM459 -506h346v-169q0 -59 25 -90t79 -31q50 0 77 30q26 32 23 91l2 169h232v-169q0 -65 -17.5 -122.5t-57 -100.5t-104 -68.5t-157.5 -25.5q-87 0 -150 21.5t-103.5 60t-61.5 92.5t-24 121h-108z" />
<glyph unicode="&#xe0f;&#xe39;" horiz-adv-x="1360" d="M65 203h121v469q0 25 -4 51t-15.5 51t-31.5 47.5t-52 39.5q12 51 34 99.5t56 94.5t81.5 85.5t109 68t137.5 45t168 16.5q109 0 195 -20t149.5 -56.5t108 -85t71.5 -106.5t38.5 -122.5t11.5 -130.5v-1177h-248q-5 21 -14.5 47t-26 48t-38.5 37t-55 15q-29 0 -51.5 -15 t-38 -36.5t-22 -47.5t-6.5 -48h-210q0 17 -4.5 42t-18 48.5t-35.5 41.5t-55 18q-26 0 -45.5 -14t-32 -35.5t-17.5 -48.5t-5 -52h-199q0 89 24 153.5t64.5 106t90 60.5t100.5 19q74 0 131 -29.5t94 -84.5q20 27 46 47t53.5 33t55.5 19t52 6q55 0 93 -16t67 -40v924 q0 53 -16.5 103.5t-54 91.5t-99 66.5t-153.5 26.5q-77 0 -134 -17t-96 -43.5t-62 -57t-29 -55.5q18 -18 34 -41t27 -50t18 -59q5 -33 5 -66l5 -669h-370zM459 -506h346v-169q0 -59 25 -90t79 -31q50 0 77 30q26 32 23 91l2 169h232v-169q0 -65 -17.5 -122.5t-57 -100.5 t-104 -68.5t-157.5 -25.5q-87 0 -150 21.5t-103.5 60t-61.5 92.5t-24 121h-108z" />
<glyph unicode=" "  horiz-adv-x="515" />
<glyph unicode="&#x09;" horiz-adv-x="515" />
<glyph unicode="&#xa0;" horiz-adv-x="515" />
<glyph unicode="!" horiz-adv-x="766" d="M237 0v275h293v-275h-293zM249 1037v410h268v-410l-55 -640h-157z" />
<glyph unicode="&#x22;" horiz-adv-x="905" d="M210 919v528h175v-528h-175zM518 919v528h178l-2 -528h-176z" />
<glyph unicode="#" horiz-adv-x="1215" d="M74 406l1 195h224l33 243h-205v193h233l59 410h200l-60 -410h197l58 410h201l-56 -410h179v-193h-204l-34 -243h177v-195h-208l-56 -406h-206l59 406h-191l-61 -406h-201l56 406h-195zM503 601h193l32 243h-191z" />
<glyph unicode="$" horiz-adv-x="1197" d="M49 485h246q2 -122 62 -197t161 -96v449q-101 26 -180.5 59.5t-134.5 79.5t-83 109t-28 151q0 92 34 168.5t91.5 132.5t135.5 92q76 35 165 44v139h179v-139q167 -27 269 -141q103 -114 141 -304h-243q-19 87 -59.5 141.5t-107.5 74.5v-412q50 -9 104 -26.5t103 -43.5 t93.5 -60t77 -77t51.5 -97q17 -54 17 -118q0 -93 -33 -170.5t-92 -136t-140.5 -94t-180.5 -43.5l2 -168h-181l3 171q-104 14 -186.5 53t-142.5 104t-96.5 154t-46.5 201zM348 1061.5q0 -41.5 11 -70.5t32.5 -48t53.5 -32.5t74 -23.5l2 371q-39 -9 -71.5 -25t-54.5 -40.5 t-34.5 -57t-12.5 -74zM699 184q41 5 76.5 23t61.5 44.5t40 63.5t14 85q0 41 -15 72t-40 53.5t-60.5 38.5t-76.5 28v-408z" />
<glyph unicode="%" horiz-adv-x="2085" d="M198 1032q0 82 18 159t58.5 135.5t107 94t166.5 35.5q102 0 170.5 -34t109.5 -91.5t58 -133.5q17 -75 17 -161q0 -81 -19.5 -157.5t-62.5 -135.5t-111 -94.5t-162 -35.5q-95 0 -161.5 32.5t-108 88.5t-61 132.5t-19.5 165.5zM406 1036q0 -27 1 -56.5t7 -59t15 -55.5 t25.5 -46t38.5 -31.5t52 -11.5q47 0 76.5 25t46 63.5t21 84.5t4.5 87q0 27 -1.5 55t-6 57t-15 54.5t-26 46.5t-40 33t-56.5 12q-45 0 -73 -27t-43 -65.5t-20.5 -83t-5.5 -82.5zM462 -30l914 1507h240l-909 -1507h-245zM1181 403q0 84 18 161.5t60 137t111 94t169.5 34.5 t168 -33t107 -91t56.5 -135t17 -163q0 -82 -19.5 -157.5t-62 -134t-108.5 -93.5t-159 -35q-97 0 -165.5 32.5t-111 89t-62 132t-19.5 161.5zM1391 406q0 -26 1.5 -54.5t7.5 -57t15.5 -54t25 -45.5t38.5 -32t54 -12q48 0 76 24.5t43.5 62t20.5 83.5t5 87q0 27 -1.5 56.5 t-7 58t-14.5 55t-25.5 46.5t-38.5 31.5t-52 11.5q-32 0 -55 -11.5t-40 -31.5t-27.5 -46.5t-16.5 -56.5t-7.5 -59.5t-1.5 -55.5z" />
<glyph unicode="&#x26;" horiz-adv-x="1354" d="M71 388q0 86 25 151t69 115t104 91t128 79q-28 36 -54 72t-47 76t-33.5 84t-12.5 92q0 64 23 122t69 101.5t112 69.5q67 26 153 26q74 0 143.5 -20t122.5 -60t86 -99.5t33 -136.5q0 -63 -21.5 -118.5t-57 -103t-82.5 -86t-100 -67.5l210 -249q15 46 23 92q7 47 13 100 h222q-8 -47 -13.5 -85t-11.5 -68t-13 -57t-15 -51t-19 -50t-26 -56l317 -352h-302l-141 157q-37 -46 -84 -79.5t-102 -56t-114 -34t-119 -11.5q-106 0 -183 22.5t-131 58t-87.5 81.5t-52.5 91.5t-25 87t-6 71.5zM311 391q0 -49 21.5 -88.5t56 -66.5t79.5 -42q47 -15 94 -15 q88 0 157.5 35.5t119.5 100.5q-78 88 -156.5 181t-152.5 176q-45 -27 -84.5 -53.5t-69.5 -60.5t-47.5 -74t-17.5 -93zM481 1143q0 -26 9.5 -51.5t26 -52.5t37.5 -54q20 -29 44 -56q27 20 56.5 41.5t53 46.5t39.5 56q17 31 17 70q0 25 -11.5 48t-30 39t-45 26.5t-58.5 10.5 q-27 0 -51.5 -7.5t-43.5 -23t-31 -38.5t-12 -55z" />
<glyph unicode="'" horiz-adv-x="599" d="M210 919v528h175v-528h-175z" />
<glyph unicode="(" horiz-adv-x="593" d="M90 558q0 124 20 249t61.5 246.5t102 238.5t143.5 224h203q-75 -122 -128.5 -239t-87 -235t-49 -238t-13.5 -246q0 -127 14.5 -247t48 -237.5t87 -236t127.5 -240.5h-205q-72 113 -132 227t-103 232.5t-66 243.5t-23 258z" />
<glyph unicode=")" horiz-adv-x="593" d="M-28 1516h203q83 -107 143.5 -224t102 -238.5t62 -247t20.5 -248.5q0 -133 -25 -258t-68 -243.5t-103.5 -232.5t-133.5 -227h-200q74 122 126.5 240.5t86 236t49.5 238.5q17 120 17 246t-16.5 246t-50.5 238t-86.5 235t-126.5 239z" />
<glyph unicode="*" horiz-adv-x="781" d="M41 1156l54 152l213 -77l-2 219h165v-219l205 77l63 -152l-218 -76l133 -182l-136 -90l-127 184l-128 -184l-139 90l128 182z" />
<glyph unicode="+" horiz-adv-x="1272" d="M92 654h444v450h198v-450h447v-197h-445v-445h-197v445h-446z" />
<glyph unicode="," horiz-adv-x="599" d="M152 0v287h292v-238q0 -64 -18 -125.5t-53.5 -114t-90 -94t-130.5 -64.5v168q30 11 53.5 32.5t40 47.5t24.5 53t8 48h-126z" />
<glyph unicode="-" horiz-adv-x="981" d="M93 457v197h794l1 -197h-795z" />
<glyph unicode="." horiz-adv-x="599" d="M151 -3l1 290h292l-1 -290h-292z" />
<glyph unicode="/" horiz-adv-x="781" d="M-27 -30l594 1510h229l-602 -1510h-221z" />
<glyph unicode="0" horiz-adv-x="1151" d="M53 725q0 59 3 122t11 126.5t24 125t42.5 116.5t64 102.5t91.5 81.5t123.5 53t161.5 19q91 0 161 -19t123.5 -53t92 -81.5t64 -102.5t41.5 -116.5t24.5 -125t11 -126.5t2.5 -122q0 -83 -5.5 -171t-23 -171t-51.5 -157.5t-92 -129.5t-142 -87.5t-206 -32.5 q-121 0 -206 32.5t-143.5 87.5t-92.5 129.5t-51 157.5t-22.5 171t-5.5 171zM305 725q0 -50 1.5 -109.5t9 -118.5t24.5 -113.5t47 -97.5t76 -69t111 -26t111 26t75.5 69t46 97.5t24.5 113.5t9.5 118.5t1.5 109.5q0 49 -2 107.5t-11 117.5t-27 114.5t-47.5 98.5t-74 69 t-106.5 26t-107 -26t-75.5 -69t-46.5 -98.5t-25 -114.5t-12 -118t-3 -107z" />
<glyph unicode="1" horiz-adv-x="1151" d="M141 955l3 214q78 5 146 16t120.5 39t89.5 80.5t55 141.5h213l2 -1446h-240l-2 1018q-72 -34 -167 -48t-220 -15z" />
<glyph unicode="2" horiz-adv-x="1151" d="M53 0q9 90 30 163.5t52 133.5t70 108t83.5 88.5t92.5 74.5t99 65q91 60 156.5 105.5t108 88.5t63.5 90.5t21 109.5q0 50 -19.5 91.5t-52 70.5t-77 44.5t-92.5 15.5q-69 0 -117 -29.5t-79 -78.5t-45 -112q-14 -64 -10 -129h-242q-8 80 4 154t41 136t73.5 112.5t102 86.5 t128.5 55.5t152 19.5q101 0 190.5 -29t154.5 -85t103.5 -137.5t38.5 -188.5q0 -68 -14.5 -125t-41.5 -105t-62.5 -88t-76 -72.5t-84 -61.5t-85.5 -54q-59 -36 -118 -73t-109.5 -74.5t-87.5 -76.5t-52 -78h722v-216h-1021z" />
<glyph unicode="3" horiz-adv-x="1151" d="M59 477h249q0 -69 16 -123.5t47.5 -92.5t80 -58.5t112.5 -20.5q62 0 114 17t89 47.5t57 74.5q20 43 20 99q0 58 -18 101.5t-52 71t-82 41.5t-107 14h-19t-13.5 -0.5t-16 -1.5t-27.5 -1v199h53q48 0 89.5 14t71 40t46.5 63q17 39 17 87q0 98 -55.5 149.5t-168.5 51.5 q-62 0 -105 -23.5t-69.5 -63.5t-38.5 -95t-12 -115h-248q3 114 34 208t90 161t146.5 105t202.5 38q103 0 189.5 -26t150.5 -78t101 -131q36 -78 36 -184q0 -45 -13.5 -86t-37 -76.5t-54.5 -65.5t-68 -52q123 -43 177 -129q55 -88 55 -213q0 -71 -19 -131.5t-51.5 -111 t-78.5 -89.5q-46 -41 -99 -67q-30 -17 -65 -26.5t-71 -15.5t-73 -7.5t-76 -1.5q-117 0 -211 31.5t-159.5 95t-100.5 157.5q-35 95 -35 220z" />
<glyph unicode="4" horiz-adv-x="1151" d="M40 303l1 212l662 931h215v-919h198v-224h-198v-303h-239v303h-639zM305 527h373v536z" />
<glyph unicode="5" horiz-adv-x="1151" d="M56 445h243q6 -54 26.5 -100t54.5 -81t81.5 -54t106.5 -19q57 0 107 18.5t87 57t58 94.5t21 133q0 62 -21 115t-58 90.5t-88.5 58t-114.5 20.5q-44 0 -82.5 -5.5t-71 -20.5t-60 -39.5t-50.5 -58.5h-211l132 792h801v-212h-606l-47 -313q25 14 54.5 27.5t61 22.5t62.5 15 t59 6q103 0 193 -33t157 -96.5t105.5 -159.5t38.5 -223q0 -98 -34 -187.5t-101.5 -158.5t-168.5 -110.5t-237 -41.5q-101 0 -190 29.5t-157 88t-108 145.5t-43 200z" />
<glyph unicode="6" horiz-adv-x="1151" d="M50 682q0 101 12 199.5t37 185.5t68 161t106 127.5t148 84.5t195 31q96 0 175 -26t135.5 -77.5t92 -129.5t47.5 -180h-243q-12 102 -68 148t-153 46q-59 0 -102.5 -21.5t-77.5 -56t-56.5 -79t-37 -92t-21.5 -93.5t-8 -81q30 34 67 60t79.5 44.5t88.5 28t92 9.5 q115 0 203.5 -38.5t149 -104.5t91.5 -155.5t31 -190.5q0 -56 -9.5 -115t-34 -115.5t-63.5 -106.5t-97 -88t-135 -59.5t-176 -21.5q-115 0 -200.5 31t-144.5 84t-96.5 123t-58.5 148.5t-28.5 160.5t-7.5 159zM323 470.5q0 -59.5 19 -111t54 -88.5t84.5 -58.5t114.5 -21.5 q62 0 111 21.5t81.5 59t49.5 88.5q15 51 15 108q0 59 -15.5 110.5t-47 91t-82 62.5t-115.5 23t-114.5 -22.5t-84.5 -61t-52.5 -90t-17.5 -111z" />
<glyph unicode="7" horiz-adv-x="1151" d="M73 1222v224h1009v-185q-127 -124 -229.5 -275t-174 -315.5t-110 -335.5t-38.5 -335h-270q0 112 18 224.5t52 223.5t81.5 217t106 204.5t125.5 187.5t141 165h-711z" />
<glyph unicode="8" horiz-adv-x="1151" d="M41 437q0 117 58 208q58 89 163 142q-37 24 -63.5 56.5t-44.5 71t-27 80t-9 84.5q0 95 35.5 168t96.5 122.5t142.5 75.5t172.5 26q128 0 215 -34t142 -88.5t79.5 -125t24.5 -144.5q0 -47 -8.5 -89.5t-24.5 -78.5t-44 -67q-28 -30 -67 -54q52 -26 95 -61.5t72.5 -81.5 t45.5 -98.5t16 -111.5q0 -113 -42.5 -198t-115 -144t-168 -89t-202.5 -30q-112 0 -210 28.5t-172 86t-117 145t-43 201.5zM293 431q0 -58 22 -102.5t61.5 -75.5t92 -46.5t114.5 -15.5q59 0 109.5 17t87.5 49.5t57.5 77t20.5 99.5q0 48 -23.5 91t-62 74t-89 49t-104.5 18 q-57 0 -109.5 -16.5t-91 -46.5t-62 -74.5t-23.5 -97.5zM369 1070q0 -47 17 -83.5t46.5 -61.5t68.5 -37t82 -12q42 0 77.5 13.5t60.5 38.5t40 60.5t15 81.5q0 44 -15 79t-41.5 57t-63.5 34t-80 12q-39 0 -76.5 -11t-67 -33.5t-47.5 -56.5t-16 -81z" />
<glyph unicode="9" horiz-adv-x="1151" d="M50 965q0 56 10.5 115.5t35 115.5t63.5 105.5t97 87.5t135 60t174 22q88 0 157.5 -17.5t123.5 -50.5t94 -75.5t68 -94.5t46 -110.5t28 -119t14.5 -121.5t4.5 -118q0 -101 -11 -198.5t-37 -185.5t-69 -162t-105 -128t-148 -84t-195 -30q-98 0 -175.5 25.5t-134.5 77 t-92.5 128.5t-46.5 181h243q12 -102 68 -148q58 -46 153 -46q59 0 102.5 21.5t77 56t55.5 80t37 92.5t22 92q7 47 7 83q-29 -36 -66 -62.5t-80 -44.5t-89 -26.5t-90 -8.5q-116 0 -204.5 37t-149.5 103.5t-92 155t-31 192.5zM299 980q0 -59 16.5 -112t48 -92t81 -62t115 -23 t115.5 22.5t84 61.5t52 91t18 111t-18.5 111t-53.5 89t-85 57.5t-114 20.5q-62 0 -110 -22t-81.5 -59t-50.5 -87.5t-17 -106.5z" />
<glyph unicode=":" horiz-adv-x="599" d="M154 -4v291h290v-291h-290zM154 784v292h290v-292h-290z" />
<glyph unicode=";" horiz-adv-x="599" d="M152 0v287h292v-238q0 -64 -18 -125.5t-53.5 -114t-90 -94t-130.5 -64.5v168q30 11 53.5 32.5t40 47.5t24.5 53t8 48h-126zM152 1076h292v-292h-290z" />
<glyph unicode="&#x3c;" horiz-adv-x="1351" d="M121 648l1104 495v-203l-840 -379l840 -376v-200l-1102 492z" />
<glyph unicode="=" horiz-adv-x="1263" d="M95 255v190h1074v-190h-1074zM95 666v192h1074v-192h-1074z" />
<glyph unicode="&#x3e;" horiz-adv-x="1351" d="M123 -15v200l839 376l-839 379v203l1102 -495v-171z" />
<glyph unicode="?" horiz-adv-x="1218" d="M151 974q-3 118 30.5 218t98.5 172t157.5 112t207.5 40q104 0 189 -29t146.5 -84.5t96.5 -135.5q36 -80 36 -182q-2 -65 -20.5 -116t-48 -92t-63.5 -74t-66 -63q-30 -27 -58 -54t-49.5 -57.5t-35 -67.5t-13.5 -84l-1 -110h-243l2 127q2 62 20.5 112t47 90.5t61.5 74.5 q35 34 64 65q24 25 52 53.5t51 61t37 71t13 82.5q-6 44 -22.5 81t-43.5 64t-65.5 40t-87.5 13q-67 0 -114.5 -26.5t-78.5 -71t-45 -104.5q-12 -61 -12 -126h-243zM488 0v281h293v-281h-293z" />
<glyph unicode="@" horiz-adv-x="1721" d="M102 752q0 106 28 203t79 181.5t124 153.5t160 117.5t186 75.5t208 27q97 0 188 -21.5t171 -61.5t146 -97t113.5 -126.5t73 -152.5t25.5 -175q0 -86 -24.5 -157t-65.5 -127t-95 -99t-112 -71t-117 -40t-110 -9q-38 3 -73.5 22t-62.5 59q-47 -35 -102 -61t-111 -26 q-59 0 -108.5 23t-86 63t-57 94t-20.5 116t14.5 124.5t41.5 118.5t65.5 105t88 84.5t108 54.5t126.5 19q23 0 50 -6t53.5 -19t48.5 -38q22 -26 37 -61q3 9 7.5 20.5t9.5 26t9 27.5t8 24h156l-159 -524q-6 -21 -9 -42.5t-0.5 -39.5t13.5 -29q13 -11 33 -11q42 0 88 28.5 t85 78.5t65 116.5t26 146.5q0 120 -44.5 210.5t-118 152t-170 92.5t-202.5 31q-128 0 -237.5 -49t-190.5 -132t-126 -195.5t-45 -239.5q0 -84 21.5 -162t60.5 -144.5t95.5 -120.5t124.5 -93t145 -60t163 -21q68 0 131.5 6.5t123 25t113.5 53.5q52 34 100 88h195 q-65 -93 -140.5 -155t-160 -100t-176 -53.5t-189.5 -15.5q-113 0 -215 26.5t-190.5 75.5t-160 118t-123 154t-79 184t-27.5 209zM632 672q0 -33 10.5 -60t29 -47t43.5 -32t58 -12q35 0 67.5 17t60.5 44.5t51 64.5t40 75.5t26 78.5t9 75q0 27 -9 52t-24.5 46t-37.5 34t-50 13 q-42 0 -79 -16t-67 -43t-54 -62.5t-41 -74t-25 -78.5t-8 -75z" />
<glyph unicode="A" horiz-adv-x="1426" d="M0 0l565 1447h285l577 -1447h-293l-150 406h-564l-148 -406h-272zM512 628h385l-195 532z" />
<glyph unicode="B" horiz-adv-x="1426" d="M142 0v1447h622q65 0 128.5 -7t120 -25t104.5 -47.5t82.5 -72.5t54 -102t19.5 -136q0 -39 -12 -81t-35.5 -82t-60.5 -75t-89 -58q61 -14 111 -47t86.5 -80.5t56.5 -104.5t20 -118q0 -79 -29 -153t-90.5 -131t-156 -92t-229.5 -35h-703zM403 216h441q59 0 105 16.5 t77 43.5t47 62t16 73q0 61 -21.5 102.5t-59 66.5t-90 36.5t-113.5 11.5h-402v-412zM403 847h346q74 0 125 17t81.5 45t43.5 64t13 75q0 46 -17 80t-50 56t-79 33t-102 11h-361v-381z" />
<glyph unicode="C" horiz-adv-x="1503" d="M68 716q0 107 21 205.5t62 183.5t102 154t141 118.5t179 76t217 26.5q122 0 227 -31t188 -93t138 -156q57 -94 78 -219h-268q-18 74 -52 126.5t-82 87.5t-107.5 52t-124.5 17q-80 0 -145 -21t-115 -57t-88 -85.5t-62.5 -109t-36 -125t-11.5 -133.5q0 -111 26.5 -210.5 t82.5 -174t143.5 -118.5t208.5 -44q92 0 160 32t114 84.5t70 119.5q26 66 29 136h261q-15 -138 -62.5 -246t-127.5 -183.5t-192.5 -115.5t-254.5 -40q-182 0 -317.5 57t-224 157t-133 236t-44.5 293z" />
<glyph unicode="D" horiz-adv-x="1466" d="M142 0v1447h523q177 0 314 -42.5t231.5 -128.5t143.5 -215t49 -302q0 -182 -43 -324t-133 -238t-229 -147q-140 -50 -332 -50h-524zM403 216h278q23 0 55 3t69 10.5t76.5 23t78 41.5t71.5 63.5t59 90t40 122t14 160.5q0 118 -24.5 210.5t-79 156t-142.5 97.5 q-90 34 -214 34h-281v-1012z" />
<glyph unicode="E" horiz-adv-x="1272" d="M142 0v1447h1067l-1 -219h-805v-370h713v-219h-713v-423h811v-216h-1072z" />
<glyph unicode="F" horiz-adv-x="1197" d="M144 0v1447h1015v-219h-753l-2 -370h645l-1 -219h-644v-639h-260z" />
<glyph unicode="G" horiz-adv-x="1534" d="M68 716q0 107 21 205.5t62 183.5t102 154t141 118.5t179 76t217 26.5q123 0 229 -31t188 -93t137 -156q56 -94 77 -219h-268q-15 74 -47 128t-79 88t-108 50.5t-132 16.5q-80 0 -145 -21t-115 -57t-88 -85.5t-62.5 -109t-36 -125t-11.5 -133.5q0 -74 10 -144t32.5 -130.5 t58 -110t85.5 -86t115.5 -56.5t149.5 -20q92 0 166 33t126.5 86t80.5 122.5t31 145.5h-441v219h682v-792h-182l-32 192q-39 -50 -89 -90t-106.5 -69t-117 -44.5t-118.5 -15.5q-178 0 -311 57t-222.5 157t-134 236t-44.5 293z" />
<glyph unicode="H" horiz-adv-x="1503" d="M142 0v1447h261v-589h695v589h261v-1447h-261v639h-695v-639h-261z" />
<glyph unicode="I" horiz-adv-x="587" d="M163 0v1447h260v-1447h-260z" />
<glyph unicode="J" horiz-adv-x="1070" d="M24 420v58h265v-61q0 -54 9.5 -97t31 -72.5t57.5 -45.5t93 -16q50 0 85.5 16t57.5 44.5t31 68.5t9 88l2 1044h261v-1053q0 -54 -8.5 -105t-29.5 -97.5t-55 -87t-84 -70.5t-119 -47q-71 -17 -159 -17q-222 0 -336 114q-111 111 -111 325v11z" />
<glyph unicode="K" horiz-adv-x="1429" d="M142 0l2 1447h260v-646l662 646h341l-629 -590l643 -857h-314l-509 681l-195 -187v-494h-261z" />
<glyph unicode="L" horiz-adv-x="1136" d="M142 0v1447h261v-1231h704l3 -216h-968z" />
<glyph unicode="M" horiz-adv-x="1799" d="M142 0v1447h324l434 -1178l411 1178h347v-1447h-262v1014l-384 -1014h-225l-384 1017v-1017h-261z" />
<glyph unicode="N" horiz-adv-x="1509" d="M142 0v1447h296l668 -1080v1080h262v-1447h-301l-664 1070v-1070h-261z" />
<glyph unicode="O" horiz-adv-x="1582" d="M58 722q0 99 20 194.5t61.5 179.5t102 154t140.5 121t182 80t223 29q123 0 225 -29t183.5 -80t142.5 -121t101.5 -154t59.5 -178.5t19 -195.5q0 -99 -19 -193t-59.5 -177t-102 -152.5t-143 -119.5t-183 -78.5t-224.5 -28.5q-121 0 -223 28.5t-183 78.5t-141.5 119.5 t-101 152.5t-60.5 177t-20 193zM318 722q0 -66 11 -131.5t36.5 -125t62.5 -110t88.5 -89t119.5 -59.5t151 -21q86 0 152.5 21t120 59.5t90.5 89t60.5 110t35.5 125.5t12 131q0 67 -12 133.5t-35.5 126.5t-61.5 112t-90.5 89t-120.5 59t-151 22t-151 -22t-119.5 -59 t-88.5 -89t-62.5 -112t-36.5 -126.5t-11 -133.5z" />
<glyph unicode="P" horiz-adv-x="1366" d="M142 0v1447h662q121 0 213.5 -29.5t154.5 -85.5t94.5 -139t32.5 -188q0 -104 -32.5 -185t-94.5 -136.5t-155 -85.5t-215 -30h-399v-568h-261zM403 784h336h15q139 0 210 55q75 58 78 166q0 109 -77 166t-228 57h-334v-444z" />
<glyph unicode="Q" horiz-adv-x="1582" d="M58 722q0 99 20 194.5t61.5 179.5t102 154t140.5 121t182 80t223 29q123 0 225 -29t183.5 -80t142.5 -121t101.5 -154t59.5 -178.5t19 -195.5q0 -94 -17.5 -183t-53 -169t-90.5 -148t-126 -118l205 -243h-273l-127 148q-56 -18 -118.5 -27t-130.5 -9q-121 0 -223 28.5 t-183 78.5t-141.5 119.5t-101 152.5t-60.5 177t-20 193zM318 722q0 -66 11 -131.5t36.5 -125t62.5 -110t88.5 -89t119.5 -59.5t151 -21q48 0 89 6l-189 222h281l112 -133q48 39 81 89t54.5 107t32 120t10.5 125q0 67 -12 133.5t-35.5 126.5t-61.5 112t-90.5 89t-120.5 59 t-151 22t-151 -22t-119.5 -59t-88.5 -89t-62.5 -112t-36.5 -126t-11 -134z" />
<glyph unicode="R" horiz-adv-x="1437" d="M142 0v1447h703q114 0 203 -26.5t150 -77.5t93 -124t32 -167q0 -81 -23 -144.5t-62 -110.5t-92.5 -75.5t-112.5 -43.5q41 -21 73 -44.5t55 -51.5t40 -64q19 -36 30 -80l70 -249q18 -65 42.5 -112t43.5 -77h-268q-16 27 -37 72.5t-42 116.5l-63 228q-11 34 -28 66 t-46.5 56.5t-74 38.5t-106.5 14h-319v-592h-261zM403 805h361q59 0 113.5 10.5t96 35.5t66.5 67q23 41 23 108q0 44 -13.5 82t-41.5 64.5t-72.5 41t-103.5 14.5h-429v-423z" />
<glyph unicode="S" horiz-adv-x="1348" d="M70 509h247q3 -92 37 -154t88.5 -99t122.5 -53.5t139 -16.5q60 0 118.5 10t105 34.5t74.5 65.5t28 104q-1 56 -27 94.5t-73.5 64.5t-111 43.5t-140.5 32.5q-65 12 -131 27.5t-126 36t-112.5 49.5t-91 71t-60.5 98.5t-22 133.5q0 74 21.5 133t60 106.5t91.5 83t115 59 t133 35.5q72 12 143 12q118 0 217 -34t171.5 -94.5t115.5 -147.5q43 -85 52 -192h-249q-4 57 -28.5 102.5t-66 78t-97.5 52t-127 19.5q-55 0 -107 -10.5t-92.5 -35t-65.5 -63.5t-25 -97q0 -47 28 -79t77 -54t114 -38.5t136 -29.5q68 -13 133 -29.5t125 -38.5t110.5 -54 t87.5 -78t58.5 -108t21.5 -145q0 -77 -24.5 -140t-67 -111.5t-98.5 -82.5t-121 -56.5t-135.5 -33t-139.5 -10.5q-134 0 -248 30t-199.5 95t-134.5 167t-50 247z" />
<glyph unicode="T" horiz-adv-x="1166" d="M15 1228v219h1136v-219h-439v-1228h-261v1228h-436z" />
<glyph unicode="U" horiz-adv-x="1515" d="M144 545v902h260v-902q0 -175 92.5 -267t273.5 -92q168 0 254 93q86 91 89 266v902h260v-902q0 -139 -41 -247.5t-119.5 -181t-190.5 -109.5q-113 -37 -255 -37q-148 0 -263.5 35.5t-195.5 107t-122 179.5t-42 253z" />
<glyph unicode="V" horiz-adv-x="1321" d="M-1 1447h284l379 -1133l381 1133h277l-521 -1447h-287z" />
<glyph unicode="W" horiz-adv-x="1910" d="M-1 1447h267l264 -1056l284 1056h281l287 -1062l267 1062h265l-396 -1447h-272l-291 1085l-307 -1085h-266z" />
<glyph unicode="X" horiz-adv-x="1333" d="M0 0l503 746l-478 701h315l326 -509l337 509h298l-484 -704l516 -743h-318l-352 530l-363 -530h-300z" />
<glyph unicode="Y" horiz-adv-x="1376" d="M-1 1447h303l392 -637l386 637h299l-556 -864v-583h-261v580z" />
<glyph unicode="Z" horiz-adv-x="1358" d="M71 0v198l858 1030h-787v219h1122v-202l-850 -1029h877v-216h-1220z" />
<glyph unicode="[" horiz-adv-x="569" d="M129 -403v1919h425v-197h-190v-1526h190l-2 -196h-423z" />
<glyph unicode="\" horiz-adv-x="781" d="M-15 1480h230l590 -1510h-223z" />
<glyph unicode="]" horiz-adv-x="569" d="M13 1319l2 197h422v-1919h-422l1 196h185v1526h-188z" />
<glyph unicode="^" horiz-adv-x="1263" d="M77 558l456 903h198l453 -903h-191l-363 721l-349 -721h-204z" />
<glyph unicode="_" horiz-adv-x="1070" d="M18 -139h1036v-173h-1036v173z" />
<glyph unicode="`" horiz-adv-x="587" d="M59 1516h281l184 -307h-190z" />
<glyph unicode="a" horiz-adv-x="1133" d="M56 284q0 59 17 107.5t47.5 87t70.5 67t87.5 50t99 34t103.5 20.5q44 6 88 8t82.5 2t68 -0.5t44.5 -2.5v65q0 39 -18 70t-47.5 52.5t-67.5 32.5t-77 11q-86 0 -139.5 -32.5t-71.5 -100.5h-248q9 92 50 157t106.5 107t149.5 62t179 20q50 0 103 -7.5t101 -24.5t89.5 -43 t71.5 -64t47 -90t19 -117v-545q0 -32 2 -59t7.5 -52t13.5 -48.5t17 -50.5h-246q-9 38 -15 69.5t-10 65.5q-39 -48 -81 -78t-88 -48t-91.5 -25.5t-93.5 -7.5q-71 0 -136 18t-117 56.5t-84.5 96t-32.5 137.5zM311 303q0 -31 13 -53t37 -35.5t55 -21t65 -7.5q77 0 130.5 19.5 t87.5 49t49.5 65t15.5 65.5v124q-22 2 -47 2q-17 0 -37 -1q-48 -2 -97.5 -10.5t-98.5 -24t-87.5 -39t-62 -57t-23.5 -76.5z" />
<glyph unicode="b" horiz-adv-x="1249" d="M115 0v1480h246v-506q30 35 65.5 62.5t76 44.5t84 26t85.5 9q87 0 159 -22t129 -60.5t99 -92t70 -117t43 -134.5t15 -145q0 -119 -31 -222.5t-94 -180.5t-158.5 -121.5t-225.5 -44.5q-42 0 -83 7.5t-81 24t-78.5 43t-74.5 64.5v-115h-246zM352 545q0 -68 15.5 -132 t51 -114t92.5 -81.5t139 -31.5q78 0 131.5 32t85 84.5t44.5 118.5t13 134q0 64 -16 126t-50.5 112.5t-89.5 80.5t-132 30q-53 0 -93.5 -14.5t-72.5 -40.5t-54 -60t-36 -74t-21 -84q-7 -45 -7 -86z" />
<glyph unicode="c" horiz-adv-x="1112" d="M58 524q0 123 32.5 228.5t97 182.5t162 121.5t227.5 44.5q102 0 187.5 -27.5t148 -78.5t100.5 -127t47 -174h-249q-15 95 -78 143q-64 48 -159 48q-71 0 -121 -29.5t-83 -80t-48.5 -115.5t-15.5 -136q0 -64 17 -124t51 -106.5t86 -74.5t117 -28q56 0 97.5 15.5t70 42 t43 63.5t17.5 80h255q-6 -74 -38.5 -148.5t-93.5 -134t-146.5 -96.5t-198.5 -37q-124 0 -221 39.5t-164.5 111t-103.5 173.5q-36 100 -36 224z" />
<glyph unicode="d" horiz-adv-x="1249" d="M62 545q0 74 15 145t43 134.5t70 117t99 92t129 60.5t159 22q42 0 85.5 -9t84 -26t77.5 -44q34 -28 64 -63v506h246v-1480h-246v115q-36 -38 -74 -64.5t-78 -43t-81.5 -24t-83.5 -7.5q-130 0 -225.5 44.5t-158.5 121.5t-94 180.5t-31 222.5zM326 555q0 -68 12.5 -134 t44 -118.5t85 -84.5t131.5 -32q83 0 139.5 31.5t92 81.5t51 114t15.5 132q0 41 -6.5 85.5t-21 84.5t-36.5 74t-54 60t-73 40.5t-93 14.5q-77 0 -132 -30t-89.5 -80.5t-50 -112.5t-15.5 -126z" />
<glyph unicode="e" horiz-adv-x="1133" d="M56 542q0 127 38.5 230t108 176t167.5 113t216 40q92 0 167.5 -25t131.5 -69.5t97.5 -105t65.5 -131.5t33 -152q7 -52 7 -106q0 -29 -2 -58h-777q3 -54 22.5 -101.5t54 -84t88 -57t122.5 -20.5q89 0 147.5 34t82.5 108h243q-18 -86 -59 -152.5t-102 -111.5t-141 -69 t-176 -24q-137 0 -238 41.5t-167 117t-98 179.5q-32 103 -32 228zM311 648h513v8q0 42 -18 80q-20 42 -53.5 75.5t-79 53.5t-96.5 20q-53 0 -98 -17.5t-80 -49t-57 -74.5q-22 -42 -31 -96z" />
<glyph unicode="f" horiz-adv-x="694" d="M36 847v229h164v152v12q0 67 20 118q23 55 64.5 93t103.5 57t142 19q29 0 64.5 -6.5t68.5 -19.5v-225q-34 18 -66 23.5t-54 5.5q-47 0 -73 -19t-25 -66v-144h197v-229h-195v-847h-247v847h-164z" />
<glyph unicode="g" horiz-adv-x="1212" d="M56 533q0 62 10.5 128.5t34 129.5t62 119t96.5 98.5t135 67.5t177 25q83 0 156 -29q72 -30 133 -98v102h235v-986q0 -115 -31 -211.5t-96 -166.5t-164.5 -108.5t-235.5 -38.5q-97 0 -181.5 25t-147.5 71.5t-101 112.5q-37 66 -43 149h245q3 -41 25.5 -71t56.5 -48.5 t75.5 -26.5t82.5 -8q77 0 131 28t87.5 72.5t47.5 100t14 108.5v52q-33 -37 -69 -62t-73 -40.5t-75.5 -21.5t-80.5 -6q-127 0 -221.5 41.5t-158.5 114t-95 170t-31 207.5zM311 548q0 -63 12.5 -122t43 -108t80.5 -78.5t124 -29.5q79 0 134.5 28t91 74t52.5 105.5t17 122.5 q0 40 -7 81.5t-21.5 80t-37 72t-53.5 57.5t-71 39t-88 15q-76 0 -128 -27.5t-85 -74t-48.5 -107t-15.5 -128.5z" />
<glyph unicode="h" horiz-adv-x="1175" d="M115 0v1480h249l-1 -521q38 44 80 72.5t83 44.5t78.5 22t67.5 6q117 0 191.5 -31t119 -85t61 -127.5t16.5 -160.5v-700h-249v716q0 80 -44.5 124.5t-130.5 44.5q-68 0 -119.5 -22t-85.5 -60.5t-51 -89t-17 -106.5v-607h-248z" />
<glyph unicode="i" horiz-adv-x="520" d="M136 0v1076h249v-1076h-249zM136 1206v274h247v-274h-247z" />
<glyph unicode="j" horiz-adv-x="520" d="M-28 -203q21 -3 35 -3.5t25.5 -2t22 -1.5h20.5q18 0 30.5 6t20 19t9.5 34q1 21 1 50v1177h249v-1203q0 -80 -21 -138.5t-58.5 -95.5t-90.5 -55q-55 -18 -120 -18q-30 0 -62.5 2.5t-59.5 8.5zM133 1206v274h247v-274h-247z" />
<glyph unicode="k" horiz-adv-x="1133" d="M115 0v1480h248v-792l405 388h330l-435 -401l453 -675h-301l-337 503l-117 -106v-397h-246z" />
<glyph unicode="l" horiz-adv-x="519" d="M136 0v1480h247v-1480h-247z" />
<glyph unicode="m" horiz-adv-x="1781" d="M115 0v1076h237l3 -120q56 76 131.5 109t170.5 33q45 0 89 -9t82.5 -29t72.5 -53t61 -85q27 44 65.5 77.5t81 55.5t88.5 32.5t88 10.5q85 0 155.5 -19t121.5 -59t77.5 -103t26.5 -150v-767h-247v709q0 40 -8 72.5t-27 54.5t-52.5 34t-82.5 12q-56 0 -99.5 -15.5 t-73.5 -44.5q-32 -28 -48 -70q-14 -35 -13 -79v-16v-657h-248v691q0 42 -7 76.5t-25.5 59.5t-49.5 40t-78.5 15t-83 -12t-62.5 -31t-45.5 -42.5t-30.5 -49t-16.5 -49t-4.5 -41.5l-1 -657h-248z" />
<glyph unicode="n" horiz-adv-x="1175" d="M115 0v1076h239l-2 -138q27 36 59 65.5t71 50t86.5 32.5t103.5 12q112 0 187 -31t120 -84.5t63.5 -127.5t18.5 -161v-694h-247v713q0 80 -46.5 124.5t-134.5 44.5q-68 0 -119 -22t-84 -60.5t-50 -89t-17 -106.5v-604h-248z" />
<glyph unicode="o" horiz-adv-x="1209" d="M55 535.5q0 118.5 34.5 222t104 180t172 120t239.5 43.5q136 0 237.5 -43.5t171 -120t103.5 -179.5q34 -104 34 -222q0 -80 -14.5 -151t-45.5 -133.5t-77 -113.5t-106.5 -87t-136 -55.5t-166.5 -19.5q-136 0 -239 43t-172.5 118.5t-104 177.5t-34.5 220.5zM309 536 q0 -86 23 -149.5t63 -107.5t94 -66q53 -22 115 -22q59 0 112.5 22t92.5 66t62 108q23 63 23 149q0 83 -22 148t-62 109.5t-92.5 68t-112.5 23.5q-62 0 -115 -23.5t-94 -68t-64 -109.5t-23 -148z" />
<glyph unicode="p" horiz-adv-x="1249" d="M115 -403v1479h246v-117q36 39 74.5 66t78.5 44t81 24.5t83 7.5q130 0 225.5 -45t158.5 -123t94 -181.5t31 -221.5q0 -74 -14 -144.5t-42 -133.5t-70.5 -116t-100 -92.5t-129.5 -60.5t-159 -21q-42 0 -85.5 8t-84 25t-76 43.5t-65.5 62.5v-504h-246zM352 530 q0 -42 7 -84.5t21 -82.5t36 -75.5t54 -61t72.5 -40t93.5 -14.5q77 0 132 31t89.5 80t50.5 111.5t16 126.5q0 68 -13.5 134.5t-44.5 118.5t-84.5 83.5t-131.5 31.5q-83 0 -139.5 -30t-92 -80.5t-51 -115.5t-15.5 -133z" />
<glyph unicode="q" horiz-adv-x="1249" d="M62 530q0 118 31 221.5t94 181.5t158.5 123t225.5 45q42 0 83.5 -7.5t81.5 -24.5t78 -44t74 -66v117h246v-1479h-246v504q-30 -36 -65.5 -62.5t-76 -43.5t-84 -25t-85.5 -8q-87 0 -159 21t-129 60.5t-99 92.5t-70 116t-43 133.5t-15 144.5zM326 521q0 -64 15.5 -126.5 t50 -111.5t89.5 -80t132 -31q52 0 93 14.5t73 40t54 61t36.5 75.5t21 82.5t6.5 84.5q0 68 -15.5 133t-51 115.5t-92.5 80.5t-139 30q-78 0 -131.5 -31.5t-85 -83.5t-44 -118.5t-12.5 -134.5z" />
<glyph unicode="r" horiz-adv-x="729" d="M115 0v1076h237v-151q33 46 67 79t77 54.5t94.5 30.5t121.5 9v-243q-107 0 -175 -25.5t-107 -74t-53 -118t-14 -157.5v-480h-248z" />
<glyph unicode="s" horiz-adv-x="1061" d="M50 370h249q0 -53 22 -88t54.5 -56.5t72.5 -30.5t79 -9q44 0 85.5 5.5t72.5 18.5t50 36q20 22 20 56q0 32 -18 55t-49 39.5t-74 29t-92 22.5q-47 9 -98 22.5t-98.5 32t-89.5 42t-74 57.5t-49.5 77t-17.5 99.5t18.5 103.5t51 82.5t76 62.5t94 43t103.5 23.5t105 7.5 q93 -3 172.5 -25t137 -66t90 -108t32.5 -150h-248q-2 29 -13.5 54.5t-34 44.5t-52 31t-68.5 13q-13 1 -26 1q-27 0 -53 -4q-38 -6 -66.5 -20t-44.5 -34q-17 -21 -17 -47.5t19.5 -44.5t52 -32t75.5 -25t92 -23q105 -25 184 -53t131.5 -67.5t79 -94t26.5 -131.5 q0 -68 -20 -120t-53 -90.5t-79 -64.5t-100 -41.5t-112 -21.5q-59 -6 -120 -6q-62 0 -120.5 10.5t-111.5 31t-97.5 52.5t-77 75.5t-52 100t-19.5 124.5z" />
<glyph unicode="t" horiz-adv-x="674" d="M15 863v213h163v277h247v-277h197v-213h-197v-537q0 -31 3 -51t11 -32t24.5 -18t39.5 -9h16.5t27 1t35 1.5t40.5 3.5v-219q-15 -3 -36 -4.5t-46 -3t-51.5 -2t-51.5 -0.5q-63 0 -111 14t-80.5 46.5t-50 87t-17.5 134.5v588h-163z" />
<glyph unicode="u" horiz-adv-x="1181" d="M115 382v694h248v-715q0 -77 47 -120.5t132 -43.5q71 0 123.5 20.5t86.5 57.5t51 88t17 114v599h246v-1076h-240v123q-53 -70 -131.5 -108.5t-175.5 -38.5q-116 0 -194 30.5t-124.5 84.5t-66 129t-19.5 162z" />
<glyph unicode="v" horiz-adv-x="1102" d="M25 1076h277l257 -767l249 767h264l-393 -1076h-256z" />
<glyph unicode="w" horiz-adv-x="1623" d="M25 1076h280l198 -733l181 733h263l187 -733l198 733h263l-340 -1076h-257l-190 712l-172 -712h-266z" />
<glyph unicode="x" horiz-adv-x="1139" d="M15 0l396 564l-367 512h305l216 -326l218 326h306l-370 -497l406 -579h-307l-253 386l-253 -386h-297z" />
<glyph unicode="y" horiz-adv-x="1111" d="M19 1076h274l275 -767l261 767h260l-457 -1206q-33 -80 -66 -138t-73 -94t-89 -53t-111 -17q-33 0 -71 3t-80 18v236q42 -16 74.5 -21t55.5 -5q77 0 113 68l55 145z" />
<glyph unicode="z" horiz-adv-x="1117" d="M89 176l595 679h-554v221h896l-2 -167l-601 -690h598v-219h-929z" />
<glyph unicode="{" horiz-adv-x="714" d="M77 480v148q35 0 66.5 18.5t53.5 50t35.5 74.5t13.5 93v376q0 65 20.5 117t57 87t83.5 53.5t101 18.5h152l-1 -183h-85q-26 0 -45.5 -6.5t-31.5 -22.5t-16 -40t-4 -58v-373q0 -59 -16.5 -105.5t-41.5 -82t-53 -59.5q-26 -24 -46 -35q20 -9 47 -25.5t51.5 -49t41.5 -82.5 q17 -51 17 -122l-2 -373q3 -62 23.5 -91.5t75.5 -29.5h85l-2 -181h-151q-55 0 -101.5 16.5t-82 50.5t-56 86t-20.5 120l3 373q0 53 -14 97.5t-37 74.5t-54.5 47.5t-66.5 17.5z" />
<glyph unicode="|" horiz-adv-x="483" d="M139 -437v2065h207v-2065h-207z" />
<glyph unicode="}" horiz-adv-x="714" d="M56 -222h86q55 0 76 30q19 29 22 91l-2 373q0 71 17 121.5t42.5 83t51.5 49.5q27 16 48 25q-21 11 -47.5 35t-52 59.5t-42.5 82t-17 105.5l2 373q0 68 -22.5 97.5t-75.5 29.5h-86v183h151q53 0 100.5 -18.5t84 -53.5t58 -87t21.5 -117l-2 -376q0 -49 13.5 -92.5t36.5 -75 t54 -50t66 -18.5v-148q-35 0 -66 -17.5t-55 -47.5t-37 -74.5t-13 -97.5l3 -373q0 -68 -21 -120t-56.5 -86t-83 -50.5t-100.5 -16.5h-152z" />
<glyph unicode="~" horiz-adv-x="1206" d="M127 388q-3 86 19.5 151t61 108t87 65t102.5 22q47 0 85.5 -12t72.5 -29.5t64.5 -37.5t59 -38t58.5 -29t62 -11q56 0 77 40t19 117h182q3 -86 -19 -151t-59 -108t-87.5 -65t-100.5 -22t-89.5 11.5t-72.5 28.5t-63 37t-58 38t-58 29t-64 11q-42 0 -69.5 -40.5 t-25.5 -114.5h-184z" />
<glyph unicode="&#xa2;" horiz-adv-x="1142" d="M64 542q0 109 25.5 207.5t82 174.5t141 125t199.5 64l-3 195h163l3 -192q81 -9 152 -37t125 -77t89 -121.5t44 -167.5h-249q-6 43 -21.5 75t-36 54t-47.5 35.5t-59 19.5l3 -678q71 18 111 74t56 150h255q-39 -199 -140.5 -310.5t-281.5 -132.5v-222h-164l1 222 q-112 12 -196.5 56.5t-141 115.5t-84.5 165.5t-26 204.5zM312 542q-1 -55 10.5 -106t36 -95t62.5 -75.5t91 -46.5l-1 672q-57 -15 -95.5 -49.5t-61 -81.5t-32.5 -103t-10 -115z" />
<glyph unicode="&#xa3;" horiz-adv-x="1201" d="M73 -30l4 211q52 17 95.5 49t76 72t49.5 86q16 47 16 97q0 17 -1.5 37t-7.5 38.5t-14 37t-17 32.5h-185v154h95q-30 57 -51 123.5t-21 147.5q0 65 19.5 123t53 104.5t80 83.5t102.5 62t120 38.5t130 13.5q122 0 218.5 -35.5t163.5 -105t101 -174.5t34 -246h-243 q-3 84 -20 150t-49.5 111t-80.5 69.5t-113 24.5q-57 0 -104 -17t-82 -48t-54 -72.5t-19 -90.5q0 -37 6.5 -71.5t19 -67t28 -63t33.5 -60.5h343v-154h-262q9 -23 14 -52.5t7 -56.5q0 -44 -9.5 -84t-26 -76.5t-38.5 -69t-47 -60.5q19 6 36 7.5t38 1.5q47 0 93.5 -9.5 t89.5 -21.5t84.5 -21.5t82.5 -9.5q39 0 76 3.5t74 13t72.5 26t70.5 42.5v-216q-38 -23 -77.5 -37t-80 -22.5t-82 -10.5t-82.5 -2q-48 0 -104 9.5t-115 21.5t-115.5 22t-103.5 10q-42 0 -82 -2.5t-79 -11.5t-78.5 -22.5t-81.5 -31.5z" />
<glyph unicode="&#xa5;" horiz-adv-x="1221" d="M-4 1447h304l322 -639l303 639h297l-358 -669h172l1 -183h-273l-24 -44v-71h297l2 -187h-296v-293h-258l-1 293h-292v187h290v71l-23 44h-267v183h163z" />
<glyph unicode="&#xa9;" horiz-adv-x="1648" d="M47 731q0 107 28.5 206t78.5 183.5t121 154t157 119t185 77t203 27.5q105 0 203.5 -27.5t184.5 -77t155.5 -119t120.5 -154t78.5 -183.5t27.5 -206q0 -109 -27.5 -210t-78.5 -186t-121.5 -154t-155.5 -117.5t-183.5 -74t-203.5 -25.5q-107 0 -204.5 25.5t-183.5 74 t-157 117.5t-121 154t-78.5 185t-28.5 211zM226 731q0 -133 44 -246.5t122.5 -196t188 -129.5t237.5 -47q83 0 159.5 21t143 61t121 94.5t93 123.5t59.5 149.5t21 169.5t-21 169t-59.5 148t-91.5 122.5t-119.5 93t-143.5 59.5t-160 21q-130 0 -238 -46t-187.5 -128 t-124 -194t-44.5 -245zM388 728q0 102 31 187t88.5 147.5t140 97t185.5 34.5q77 0 144.5 -22t119 -64t86 -106t42.5 -144h-162q-5 39 -25 73t-49.5 60.5t-68 41.5t-82.5 15q-65 0 -117 -24t-87.5 -66.5t-53.5 -100.5t-18 -126q0 -62 19.5 -121t55.5 -103.5t88.5 -72.5 t118.5 -28q41 0 78 15.5t65 40.5t46 58.5t24 68.5h165q-11 -72 -45 -133.5t-84.5 -106t-114 -69.5t-136.5 -25q-103 0 -187.5 35.5t-144 99t-90.5 149.5q-32 89 -32 189z" />
<glyph unicode="&#xab;" horiz-adv-x="951" d="M70 482v181l350 274v-209l-198 -158l198 -156v-211zM493 482v181l351 274v-209l-199 -158l199 -156v-211z" />
<glyph unicode="&#xad;" horiz-adv-x="981" d="M93 457v197h794l1 -197h-795z" />
<glyph unicode="&#xae;" horiz-adv-x="1639" d="M47 731q0 107 28.5 206t78.5 183.5t121 154t157 119t185 77t203 27.5q105 0 203.5 -27.5t184.5 -77t155.5 -119t120.5 -154t78.5 -183.5t27.5 -206q0 -109 -27.5 -210t-78.5 -186t-121.5 -154t-155.5 -117.5t-183.5 -74t-203.5 -25.5q-107 0 -204.5 25.5t-183.5 74 t-157 117.5t-121 154t-78.5 185t-28.5 211zM226 731q0 -133 44 -246.5t122.5 -196t188 -129.5t237.5 -47q83 0 159.5 21t143 61t121 94.5t93 123.5t59.5 149.5t21 169.5t-21 169t-59.5 148t-91.5 122.5t-119.5 93t-143.5 59.5t-160 21q-130 0 -238 -46t-187.5 -128 t-124 -194t-44.5 -245zM506 323v823h392q65 0 115 -18t82.5 -50.5t49.5 -77t17 -97.5q0 -42 -12.5 -76.5t-33.5 -61t-50 -44t-63 -25.5q24 -11 42 -25t31 -31.5t22 -40t18 -47.5l41 -121q9 -24 17.5 -41t16.5 -29l14 -21q6 -8 12 -17h-193q-6 11 -11 22.5t-10 24t-11 27 t-12 34.5l-49 125q-15 39 -45.5 62.5t-67.5 23.5h-146v-319h-166zM672 777h198h-15q66 0 101.5 32t35.5 82q0 21 -6 41.5t-19.5 35.5t-32.5 25t-47 10h-215v-226z" />
<glyph unicode="&#xbb;" horiz-adv-x="951" d="M107 728v209l352 -274v-181l-351 -279v211l200 156zM530 728v209l352 -274v-181l-351 -279v211l200 156z" />
<glyph unicode="&#xbc;" horiz-adv-x="1727" d="M98 1279q46 3 86.5 11.5t73 26.5t55.5 49q21 31 33 80h156v-898h-179v603q-45 -20 -97 -28q-51 -7 -125 -10zM370 0l823 1446h192l-824 -1446h-191zM965 340l426 560h139l-1 -548h121l2 -164h-122v-188h-174l-2 188h-388zM1162 352h191l1 249z" />
<glyph unicode="&#xbd;" horiz-adv-x="1727" d="M98 1279q46 3 86.5 11.5t73 26.5t55.5 49q21 31 33 80h156v-898h-179v603q-45 -20 -97 -28q-51 -7 -125 -10zM308 0l823 1446h191l-825 -1446h-189zM992 0q6 89 28 151t58 108t83 78q47 30 97 59.5t90 55t67 50.5t41.5 53t14.5 67q0 54 -35.5 84.5t-94.5 30.5 q-39 0 -65.5 -16.5t-43.5 -44.5t-25 -63.5t-8 -73.5h-190q0 77 24 142t67 113t103.5 75.5t135.5 27.5q66 0 124 -19.5t101 -55t69 -86.5t26 -114q0 -68 -27.5 -121t-70.5 -95t-93 -74.5t-96 -59.5q-16 -9 -37 -20t-41.5 -25t-41.5 -31.5t-37 -38.5h434v-157h-657z" />
<glyph unicode="&#xbe;" horiz-adv-x="1727" d="M107 861h192q1 -43 9.5 -74.5t26 -51t45 -29t65.5 -9.5q30 0 58 8t51 23t36.5 37t14.5 50q0 36 -14 58t-36 35t-51 17t-59 4h-34v153h21q25 0 49.5 7.5t44 21.5t31 33t11.5 44.5t-11 44t-28 31t-39 18.5t-46 6q-36 0 -61 -11.5t-39.5 -32t-20.5 -49.5t-6 -64h-187 q6 74 28.5 133t61 100.5t94.5 63t130 21.5q67 0 124 -15.5t97.5 -48t64 -81.5t23.5 -116q0 -20 -6.5 -44.5t-19 -47.5t-32.5 -43t-48 -33q77 -30 110 -79.5t36 -119.5q0 -71 -29.5 -125t-77.5 -89.5t-111 -53t-128 -17.5q-71 0 -133 20t-108 60t-72.5 101t-26.5 144zM488 0 l823 1446h193l-825 -1446h-191zM995 340l426 560h139v-548h121v-164h-121v-188h-175v188h-387zM1193 352h189v252z" />
<glyph unicode="&#xd7;" horiz-adv-x="1061" d="M31 949l139 133l360 -385l364 385l141 -133l-372 -394l373 -392l-139 -133l-364 384l-361 -384l-139 133l367 392z" />
<glyph unicode="&#xf7;" horiz-adv-x="1232" d="M71 457v197h1086v-197h-1086zM459 148q0 33 13 61.5t34 51t49 35.5t58 13q32 0 60.5 -13t50.5 -35.5t34.5 -51t12.5 -61.5q0 -30 -12.5 -55.5t-33.5 -46.5t-49 -33.5t-57 -12.5q-31 0 -60 12t-51.5 32t-35.5 46.5t-13 57.5zM459 961q0 32 13 60t34 49.5t49 35t58 13.5 q32 0 60.5 -13.5t50.5 -35t35.5 -50t13.5 -59.5q0 -30 -13.5 -59t-35 -49.5t-49 -33t-59.5 -12.5q-31 0 -59.5 12.5t-50 33t-34.5 49.5t-13 59z" />
<glyph unicode="&#xe01;" horiz-adv-x="1308" d="M33 861q11 51 32.5 99.5t56.5 94.5t81.5 85.5t108 68t137.5 45.5q78 16 170 16q109 0 194 -20t149.5 -56.5t109 -85t71 -106.5t39 -122.5t12.5 -130.5v-749h-251v770q0 53 -16.5 103.5t-55 91.5t-100 66.5t-152.5 26.5q-77 0 -135 -17t-98 -43.5t-62 -57t-28 -55.5 q18 -18 35 -41t29.5 -50t19.5 -59q5 -33 5 -66v-669h-249v672q0 25 -4.5 51t-16 51t-31.5 47q-19 23 -51 40z" />
<glyph unicode="&#xe02;" horiz-adv-x="1151" d="M27 1042v201h379l199 -971l200 971h258l-276 -1243h-367l-234 1042h-159z" />
<glyph unicode="&#xe03;" horiz-adv-x="1181" d="M44 1243h237q0 -23 4.5 -45.5t15 -38.5t26.5 -26.5t37 -10.5t37 9t28 25t18.5 38.5t6.5 48.5h243v-257q0 -36 -12 -67t-34 -60.5t-55 -61.5q-32 -30 -75 -72q-30 -29 -50.5 -54.5t-34 -50.5t-19.5 -52q-9 -26 -9 -59l3 -78q0 -58 15 -102.5t42.5 -75.5t65 -46.5 t83.5 -15.5q42 0 78 11t61 37.5t40 69.5q15 40 14 102v832h256v-849q0 -110 -37 -190t-99.5 -131.5t-144 -77t-169.5 -25.5q-92 0 -175 27t-146.5 80t-100.5 133t-39 184v57q0 51 2.5 90t9 70t17.5 56.5t29.5 49t44 46.5t60.5 50q18 11 37 26.5t36 32.5t30.5 38t19.5 45 q-21 -15 -52 -24.5t-63 -9.5q-21 0 -50.5 4t-60.5 17.5t-62.5 35.5t-55 58t-38.5 86t-15 121z" />
<glyph unicode="&#xe04;" horiz-adv-x="1321" d="M115 0v719q0 70 10.5 137.5t35 128.5t65 113.5t101.5 90.5t143 59.5t190 21.5q107 0 189.5 -21.5t143.5 -59.5t101.5 -90.5t65 -113.5t35 -129.5t11.5 -136.5v-719h-253v746q0 35 -6 70.5t-20 70t-37 64t-55.5 51.5t-76 34t-99.5 12q-57 0 -100.5 -12t-76 -34 t-54.5 -51.5t-36.5 -64t-21 -70t-6.5 -70.5v-167q34 49 72 83t82 56t99.5 31t126.5 9v-219q-109 0 -182.5 -28.5t-116 -82.5t-62 -130.5t-19.5 -173.5v-124h-249z" />
<glyph unicode="&#xe05;" horiz-adv-x="1333" d="M115 0v731q0 61 7.5 120t25.5 114t46.5 103t73 87t105.5 66.5t141 39.5l149 -163l145 163q83 -12 145 -38.5t108 -65t76.5 -87.5t49 -103.5t25.5 -114.5q8 -59 8 -121v-731h-254v755q0 32 -5 70.5t-17 75t-32.5 67t-50.5 44.5l-154 -160q-5 -5 -14 -12t-27 -7 q-16 0 -27 6q-11 8 -20 13l-162 160q-28 -14 -46.5 -44t-29.5 -65.5t-15.5 -74t-4.5 -73.5v-176q34 49 72 83t83.5 56t101 31t126.5 9l-1 -219q-110 0 -182.5 -28.5t-116.5 -82.5t-63.5 -130.5t-19.5 -173.5l3 -124h-249z" />
<glyph unicode="&#xe06;" horiz-adv-x="1318" d="M44 1243h237q0 -23 4.5 -45.5t15 -38.5t26.5 -26.5t37 -10.5t37 9t28 25t18.5 38.5t6.5 48.5h242v-254q0 -48 -15 -86.5t-40 -71.5t-57.5 -62.5t-68.5 -59.5q-31 -27 -51 -47.5t-32 -44.5t-16 -55q-5 -29 -5 -77q0 -56 22.5 -108.5t64 -93t100.5 -65t133 -24.5 q49 0 89.5 15.5t69 43.5t44 68t15.5 90v832h253v-809q0 -102 -21 -187.5t-72.5 -146t-136 -94t-211.5 -33.5q-117 0 -208 38.5t-153 121.5l-2 -133h-241v443q0 53 1.5 92t7.5 69.5t16 55t28 46t41.5 43.5t56.5 50q18 16 35.5 32t33 33t28 37t21.5 48q-23 -12 -48.5 -18.5 t-51.5 -6.5q-21 0 -50.5 4t-60.5 16t-62.5 34t-55 58t-38.5 86t-15 121z" />
<glyph unicode="&#xe07;" horiz-adv-x="978" d="M30 746h260l191 -515q9 -25 25 -37q15 -12 36 -12q32 0 53 18t22 43v805h-176v195h423v-962q0 -83 -25 -142t-69.5 -96t-103.5 -55t-127 -18t-118 16.5t-87 47.5t-62.5 75.5t-46.5 97.5z" />
<glyph unicode="&#xe08;" horiz-adv-x="1200" d="M71 864q15 92 58 166t110 127.5t159.5 81.5t208.5 28q58 0 117 -9t114.5 -28t103 -51.5t83 -80t55.5 -113.5t18 -152q0 -47 -14.5 -111.5t-37 -136t-52 -149.5t-60.5 -154t-63.5 -148t-60.5 -134h-313l-200 551h-167v198h361l169 -489q27 66 58 141.5t56 148.5t42 142 q16 69 19 123q1 122 -62 182.5t-188 60.5q-101 0 -159 -46q-59 -44 -83 -148h-272z" />
<glyph unicode="&#xe09;" horiz-adv-x="1308" d="M83 844q9 84 44.5 160t102.5 135.5t168.5 95t240.5 35.5q110 0 194.5 -21t146.5 -58t102.5 -88t65 -111t35 -128t11.5 -136v-728h-239l-8 139q-66 -89 -160 -129t-223 -40q-130 0 -217 35t-138.5 98.5t-74 152.5t-22.5 195v243h249v-266q0 -51 17 -93t47.5 -72.5 t74 -46.5t96.5 -16q88 0 153 27.5t108 77t63.5 116.5t20.5 146v185q0 53 -14.5 106.5t-48.5 95.5t-93.5 68t-148.5 26q-80 0 -133 -18.5t-87 -49t-51 -66t-23 -70.5h-259z" />
<glyph unicode="&#xe0a;" horiz-adv-x="1169" d="M47 1012l3 194q39 14 74.5 24t66.5 17.5t56 10.5t40 3q71 0 127.5 -16.5t96.5 -50.5t57.5 -85.5t8.5 -119.5q-6 -34 -17.5 -64.5t-31.5 -64t-48 -72.5q-30 -39 -66 -91q-19 -27 -28.5 -49t-14 -43.5t-5.5 -43.5q1 -22 -2 -49l2 -81q0 -58 17 -102.5t48 -75.5t71 -47 q40 -15 87 -15q44 0 82.5 11t67.5 37.5t45 69.5q15 40 15 102l3 83q0 70 -16 110.5t-46 61.5t-72.5 27t-96.5 7l-1 182q72 0 121 22t79.5 68t42.5 114q13 68 14 157h252q0 -68 -9.5 -136t-35 -127t-67 -106.5t-103.5 -77.5q45 -13 76 -34t51.5 -46.5t32.5 -54.5t18 -58 t7.5 -57t1.5 -52l-2 -100q0 -73 -17 -133t-48.5 -107t-75.5 -81.5t-95.5 -58t-108.5 -34t-116 -10.5q-92 0 -176.5 27t-150.5 80t-106 133t-40 184v100q0 48 3 83.5t9 63.5t15.5 50t24 43.5t32 44.5t42.5 51q18 24 32 42.5t24.5 35.5t18 34t10.5 38q3 18 -1.5 33.5t-15 26.5 t-24.5 17q-16 7 -33 7q-21 0 -40.5 -3t-43 -9.5t-53 -16t-68.5 -23.5z" />
<glyph unicode="&#xe0b;" horiz-adv-x="1244" d="M21 1243h237q0 -23 4 -45.5t14.5 -38.5t27 -26.5t37 -10.5t37 9t28 25t17.5 38.5t6 48.5h243v-257q0 -36 -9 -67t-26.5 -60t-46 -60.5t-66.5 -70.5q-30 -29 -46 -66t-23.5 -75.5t-9 -79.5t-1.5 -76q0 -58 18 -102.5t47.5 -75.5t69.5 -47q43 -15 87 -15t82.5 11t67 37.5 t44.5 69.5q16 40 16 102v80q0 65 -15.5 106t-44.5 64t-69 30.5t-87 8.5l-3 182q68 5 115.5 29t77 70t43 111t13.5 151h248q0 -68 -10 -136t-34 -127t-65.5 -106.5t-104.5 -77.5q66 -20 104.5 -57t57 -80t23.5 -88q3 -44 3 -80v-97q0 -73 -18 -133t-49.5 -107t-75.5 -81.5 t-95.5 -58t-109.5 -34t-117 -10.5q-61 0 -119.5 12t-110 35.5t-96 59t-77 83t-50.5 106t-18 128.5q0 74 1.5 133t15 108.5t41 95t79.5 90.5q10 11 24 25.5t27.5 34t25 38.5t17.5 39q-26 -18 -57.5 -27.5t-63.5 -9.5q-21 0 -50.5 4t-60.5 17.5t-62 35.5t-55 58t-38.5 86 t-14.5 121z" />
<glyph unicode="&#xe0c;" horiz-adv-x="1961" d="M33 861q11 51 33.5 99.5t55.5 94.5t80 85.5t104.5 68t129.5 45t157 16.5q104 0 186 -20t143 -56.5t102.5 -85t68 -106.5t37.5 -123t11 -133l2 -201q0 -77 17.5 -141t53 -111t87.5 -74.5t120 -27.5q40 0 71.5 11t54 37.5t34.5 69.5q11 40 11 102v832h252v-809 q0 -110 -20 -196.5t-66 -145.5t-122 -90.5t-190 -31.5q-53 0 -98.5 12t-85.5 34t-72.5 52t-57.5 65l-1 -133h-243v770q0 50 -15 102t-49 92.5t-91 66.5t-140 27q-68 0 -119.5 -14.5t-88.5 -40t-59.5 -56.5t-29.5 -62q46 -33 67 -90q19 -58 19 -129v-463h133v-203h-382v669 q0 27 -3.5 53.5t-14.5 51.5t-31 47q-19 23 -51 40z" />
<glyph unicode="&#xe0d;" horiz-adv-x="1961" d="M33 847q11 50 32.5 101.5t55.5 99t80 87.5t104.5 70.5t130.5 47.5t157 17q104 0 186 -21t143 -58t102.5 -88t68 -111t38.5 -128t12 -136l-3 -219q0 -64 11.5 -107.5t34.5 -70t55 -38.5t72 -12q68 0 119.5 29t87 78.5t54 116t18.5 143.5v595h254l-2 -1012q0 -139 -32 -251 t-96 -189.5t-163.5 -119t-235.5 -41.5q-86 0 -164.5 22t-140.5 68t-105 115.5t-55 164.5h236q12 -41 35.5 -72.5t54.5 -52t66.5 -31t69.5 -10.5q82 0 137.5 28t88 72.5t45.5 99.5t12 108l1 80q-26 -33 -60 -64t-74 -53t-84.5 -36t-94.5 -14q-114 0 -190.5 31.5t-122.5 92.5 t-65 150q-19 88 -18 204l-1 219q0 53 -15 105.5t-49 95t-91 69t-141 26.5q-68 0 -120 -15t-88 -40t-57.5 -57.5t-30.5 -65.5q46 -32 67.5 -91.5t21.5 -133.5v-442h133v-203h-383v648q0 27 -4.5 54.5t-15.5 53t-31 48.5q-20 25 -51 43z" />
<glyph unicode="&#xe0e;" horiz-adv-x="1360" d="M65 0v203h121v469q0 25 -4 51t-15.5 51t-31.5 47.5t-52 39.5q12 51 34 99.5t56 94.5t81.5 85.5t109 68t137.5 45t168 16.5q109 0 195 -20t150.5 -56.5t108 -85t71.5 -106.5t40 -122.5t12 -130.5v-1177h-243q-17 27 -42.5 53t-61 45t-84 31t-115.5 12q-53 0 -100.5 -12 t-91 -34t-83.5 -55q-40 -35 -79 -77l2 240q26 30 64 55t84 44t97.5 29.5t109.5 10.5q53 0 98.5 -7.5t81 -18.5t63.5 -24q28 -12 47 -24v930q0 53 -16 103.5t-54 91.5t-100 66.5t-154 26.5q-77 0 -134 -17t-96 -43.5t-62 -57t-29 -55.5q18 -18 34 -41t27 -50t18 -59 q5 -33 5 -66v-669h-367z" />
<glyph unicode="&#xe0f;" horiz-adv-x="1360" d="M65 0v203h121v469q0 25 -4 51t-15.5 51t-31.5 47.5t-52 39.5q12 51 34 99.5t56 94.5t81.5 85.5t109 68t137.5 45t168 16.5q109 0 195 -20t150.5 -56.5t108 -85t71.5 -106.5t40 -122.5t12 -130.5v-1177h-248q-5 21 -15.5 47t-27.5 48t-39 37t-55 15q-29 0 -51.5 -15 t-38 -36.5t-22 -47.5t-6.5 -48h-210q0 17 -4.5 42t-18 48.5t-35.5 41.5t-55 18q-26 0 -45.5 -14t-32 -35.5t-17.5 -48.5t-5 -52h-199q0 89 24 153.5t64.5 106t90 60.5t100.5 19q74 0 131 -29.5t94 -84.5q20 27 46 47t53.5 33t55.5 19t52 6q55 0 94 -16t67 -40v924 q0 53 -16 103.5t-54 91.5t-100 66.5t-154 26.5q-77 0 -134 -17t-96 -43.5t-62 -57t-29 -55.5q18 -18 34 -41t27 -50t18 -59q5 -33 5 -66v-669h-367z" />
<glyph unicode="&#xe10;" horiz-adv-x="1194" d="M62 852q15 92 59.5 169t114 132t163.5 86q95 31 211 31q53 0 105 -7.5t99 -22.5q25 5 44.5 17.5t32 30t18.5 38.5t6 42h268q0 -36 -10 -74.5t-29 -74t-50 -64.5q-31 -27 -76 -45q40 -47 61 -116t19 -161q0 -47 -13 -110t-36 -135.5t-53 -150t-61.5 -154t-64 -149 t-60.5 -134.5h-313l-201 555h-166v194h361l169 -486q28 66 58.5 140t55.5 147t42 142q16 69 19 123q1 122 -62 182.5t-188 60.5q-101 0 -164 -52.5t-87 -153.5h-272zM135 -437q-3 61 6.5 107t28.5 78.5t46 54.5t54 35t54 18t47 5q48 0 85.5 -16.5t61.5 -44.5 q36 34 71.5 47.5t61.5 13.5q36 0 62.5 -9.5t51.5 -30.5v84h252v-342h-244q-6 54 -28 80q-23 27 -61 27q-18 0 -31.5 -8t-22 -23t-13 -34t-3.5 -42h-143q0 21 -5.5 41t-15 35t-24.5 23t-32 8q-20 0 -33 -9t-21 -23.5t-12.5 -34t-4.5 -40.5h-188z" />
<glyph unicode="&#xe11;" horiz-adv-x="1318" d="M44 1243h237q0 -25 4.5 -47t15 -38.5t26.5 -26t37 -9.5q42 0 65.5 32.5t24.5 88.5h242l-2 -89q47 34 92.5 57t85.5 36.5t75.5 19.5t61.5 6q63 0 100 -19.5t57.5 -55t28 -85.5t8.5 -113v-1000h-251l-2 921q0 23 -0.5 44.5t-4.5 37t-10 24.5t-16 9q-46 0 -142 -80.5 t-240 -246.5q-25 -30 -44 -53t-34 -42t-24.5 -38.5t-16.5 -40.5t-9.5 -47t-2.5 -60v-428h-249v403q0 47 0.5 82.5t4.5 64.5t13 53.5t23.5 49.5t37 51.5t54.5 62.5q39 41 67 69t47 49t29.5 38t13.5 35q-12 -6 -26.5 -13t-31 -11.5t-33.5 -8.5t-30 -4q-21 0 -50.5 4t-60.5 16 t-61.5 34.5t-55 58t-39.5 87t-15 122.5z" />
<glyph unicode="&#xe12;" horiz-adv-x="2012" d="M112 0v767q0 59 6 114.5t22.5 105.5t44.5 94t71.5 79.5t103.5 60.5t142 37l152 -157l142 157q83 -12 144.5 -35.5t105 -58.5t72.5 -79.5t46 -95.5t23 -107t6 -115v-222q0 -77 18.5 -141t54 -111t87.5 -75q50 -27 118 -27q42 0 74.5 11t54 37.5t32.5 69.5q11 40 11 102 v832h254l-1 -809q0 -110 -20 -196.5t-66 -145.5t-123 -90.5t-189 -31.5q-54 0 -99.5 12t-85 34t-71.5 52q-31 30 -58 65v-133h-243v790q0 33 -3 67t-11.5 65t-25.5 55.5t-47 37.5l-158 -151q-3 -4 -15 -10.5t-27 -6.5t-28 5q-13 6 -19 12l-160 154q-25 -15 -41.5 -40.5 t-26 -57t-14 -64.5t-4.5 -66l2 -456q41 54 92 111.5t99 115.5h-89v188h361v-173l-477 -576h-237z" />
<glyph unicode="&#xe13;" horiz-adv-x="1961" d="M33 861q11 51 33.5 99.5t55.5 94.5t80 85.5t104.5 68t129.5 45t157 16.5q104 0 186 -20t143 -56.5t102.5 -85t68 -106.5t37 -123t10.5 -133v-335q0 -62 12.5 -103.5t35.5 -68t54.5 -37.5t71.5 -11q68 0 120 27.5t87.5 74.5t53.5 112q17 63 17 140l2 698h252v-1243h-242 l-6 133q-26 -35 -58.5 -65t-72.5 -52t-85 -34q-47 -12 -97 -12q-114 0 -190.5 31.5t-122.5 90.5t-64.5 145t-18.5 197l-1 336q0 50 -15 102t-49 92.5t-91 66.5t-140 27q-68 0 -119 -14t-88 -39t-59 -56t-31 -64q46 -33 66 -90.5t20 -128.5l3 -463h133v-203h-382v669 q0 27 -4.5 53.5t-16 51.5t-31.5 47q-19 23 -51 40z" />
<glyph unicode="&#xe14;" horiz-adv-x="1333" d="M115 0v743q0 67 10.5 131t35 123.5t65 109t102 85.5t145 57t193.5 21q108 0 191.5 -21t144.5 -57t102.5 -85.5t67 -109t37 -123.5t11.5 -131v-743h-252l-2 767q0 50 -12.5 102.5t-46.5 94.5t-91.5 68t-149.5 26t-151 -26t-93 -68t-47.5 -94.5t-13.5 -102.5v-443l210 237 h-97v191h376v-176l-498 -576h-237z" />
<glyph unicode="&#xe15;" horiz-adv-x="1342" d="M115 0v749q0 87 18 170.5t63 153.5t123 118.5t199 66.5l154 -154l142 154q124 -16 204 -64t127.5 -118t65 -154t17.5 -173v-749h-248v770q0 31 -7.5 67t-21 70t-34 63.5t-48.5 44.5l-156 -151q-7 -6 -16.5 -11.5t-24.5 -5.5q-16 0 -29 5q-13 6 -18 12l-160 154 q-31 -15 -51 -43t-32 -62t-16.5 -71.5t-4.5 -71.5v-443l210 234h-97v188h378v-173l-500 -576h-237z" />
<glyph unicode="&#xe16;" horiz-adv-x="1284" d="M33 861q11 51 32 99.5t53.5 94.5t78.5 85.5t106 68t135 45.5q77 16 169 16q109 0 193.5 -20t146.5 -56.5t105 -85t69.5 -106.5t37 -122.5t10.5 -130.5v-749h-248v770q0 53 -15 103.5t-51.5 91.5t-97.5 66.5t-152 26.5q-77 0 -132.5 -17t-92.5 -43.5t-57.5 -57.5 t-26.5 -55q24 -15 40 -38.5t27 -51t16.5 -59.5t5.5 -67v-466h133v-203h-382v672q0 25 -4.5 51t-16 51t-31.5 47q-19 23 -51 40z" />
<glyph unicode="&#xe17;" horiz-adv-x="1308" d="M115 0v1243h243v-151q65 89 160 135t223 46q131 0 218 -35.5t139.5 -99.5t73.5 -152.5t21 -195.5l1 -790h-248v815q0 51 -17 93t-47.5 71.5t-73.5 46t-96 16.5q-89 0 -153.5 -27.5t-107.5 -77t-63.5 -116t-20.5 -146.5v-675h-252z" />
<glyph unicode="&#xe18;" horiz-adv-x="1241" d="M112 364v261h249v-261q0 -50 23.5 -84t60.5 -55t83 -30.5t91 -9.5q41 0 87 7.5t84.5 27.5t63.5 54.5t25 89.5q0 28 -4.5 49.5t-16 39.5t-34.5 34t-60 32.5t-90 33.5q-52 18 -126 39q-60 18 -115.5 35.5t-104 38.5t-89.5 47.5t-69 60t-43 74.5t-13 95q1 56 22 102.5t54 82 t78.5 62.5t97 44t106.5 25t111 8q111 0 206 -22.5t163.5 -72.5t108.5 -128.5t40 -188.5h-251q0 57 -18.5 95.5t-52 63.5t-79.5 36t-105 11q-47 0 -88.5 -6.5t-73.5 -20t-50.5 -35.5t-18.5 -52q0 -21 18 -40t46 -35.5t63.5 -29.5t70 -23.5t65 -18t51.5 -13.5q71 -19 133 -38 t112.5 -43t90.5 -54t66.5 -70t40 -93.5t13.5 -124.5q0 -69 -19.5 -124.5t-55 -99.5t-83 -75t-105 -51t-121 -29t-130.5 -9q-68 0 -131 9t-119 30t-103.5 52t-81.5 74t-53.5 99t-19.5 124z" />
<glyph unicode="&#xe19;" horiz-adv-x="1308" d="M112 451v792h249v-815q0 -51 17 -93t47.5 -72.5t74 -46.5t96.5 -16q88 0 153 27.5t108 77t63.5 116.5t20.5 146v676h253v-1243h-242l-5 151q-65 -89 -159.5 -135t-223.5 -46q-130 0 -217 35t-138.5 98.5t-74 152.5t-22.5 195z" />
<glyph unicode="&#xe1a;" horiz-adv-x="1308" d="M114 524v719h250v-743q0 -53 14 -108t47.5 -99t89 -71.5t139.5 -27.5q85 0 140.5 27.5t88.5 71.5t47 99t14 108v743h250v-725q0 -70 -10 -137t-34.5 -128t-64.5 -112.5t-99.5 -88.5t-140.5 -58t-189 -21t-191 21t-142.5 59.5t-99 90t-64 114t-35 130.5t-10.5 136z" />
<glyph unicode="&#xe1b;" horiz-adv-x="1308" d="M112 524l3 719h249v-743q0 -53 13.5 -108t46.5 -99t88.5 -71.5t140.5 -27.5q84 0 139.5 27.5t89 71.5t46.5 99t13 108v1285h252v-1267q0 -70 -10.5 -137t-34 -128t-63.5 -112.5t-100 -88.5t-142 -58t-189 -21q-108 0 -190 21t-143 59.5t-100.5 90t-63.5 114t-34.5 130.5 t-10.5 136z" />
<glyph unicode="&#xe1c;" horiz-adv-x="1403" d="M112 352l2 891h413l-3 -204h-163v-648q0 -57 7.5 -95t20 -63.5t32.5 -36.5t45 -11q40 0 62.5 20.5t32 57t11.5 85.5t2 103v197h249v-197q0 -56 3 -104t14.5 -84.5t34.5 -56.5q22 -21 63 -21q25 0 43.5 11t32 36.5t19.5 63.5t6 95v852h249v-891q0 -97 -22.5 -168.5 t-64 -117t-99 -68t-130.5 -22.5q-88 0 -160 37t-113 105q-36 -74 -99.5 -108t-161.5 -34q-74 0 -134 22.5t-102 68t-66 117t-24 168.5z" />
<glyph unicode="&#xe1d;" horiz-adv-x="1403" d="M112 352l3 891h412l-3 -204h-163v-648q0 -57 7.5 -95t20 -63.5t32.5 -36.5t45 -11q40 0 62.5 20.5t32 57t11.5 85.5t2 103v197h249v-197q0 -56 3 -104t14.5 -84.5t34.5 -56.5q22 -21 63 -21q25 0 44.5 11t32 36.5t18.5 63.5t6 95v1394h249v-1433q0 -97 -22.5 -168.5 t-64 -117t-99 -68t-130.5 -22.5q-88 0 -160 37t-113 105q-36 -74 -99.5 -108t-161.5 -34q-74 0 -134 22.5t-102 68t-66 117t-24 168.5z" />
<glyph unicode="&#xe1e;" horiz-adv-x="1645" d="M36 1243h275l180 -891l193 891h277l193 -882l179 882h273l-315 -1243h-273l-203 882l-187 -882h-276z" />
<glyph unicode="&#xe1f;" horiz-adv-x="1645" d="M36 1243h275l180 -891l193 891h277l193 -882l270 1424h272l-405 -1785h-273l-203 882l-187 -882h-276z" />
<glyph unicode="&#xe20;" horiz-adv-x="1360" d="M65 0v203h121v469q0 25 -4 51t-15.5 51t-31.5 47.5t-52 39.5q12 51 34 99.5t56 94.5t81.5 85.5t109 68t137.5 45t168 16.5q109 0 195 -20t150.5 -56.5t108 -85t71.5 -106.5t40 -122.5t12 -130.5v-749h-251v770q0 53 -16.5 103.5t-55 91.5t-100.5 66.5t-154 26.5 q-77 0 -134 -17t-96 -43.5t-62 -57t-29 -55.5q18 -18 34 -41t28 -50t18 -59q7 -33 6 -66v-669h-369z" />
<glyph unicode="&#xe21;" horiz-adv-x="1308" d="M115 0v1243h252l-3 -676q0 -79 22 -146t65 -116.5t108.5 -77t152.5 -27.5q53 0 96.5 16t73.5 46.5t46 72t16 93.5v815h249v-792q0 -106 -21.5 -195t-74 -152.5t-140 -98.5t-217.5 -35q-127 0 -220.5 46t-161.5 135v-151h-243z" />
<glyph unicode="&#xe22;" horiz-adv-x="1275" d="M92 391q0 47 6.5 90t23 78.5t42.5 64.5q27 27 68 48q-44 25 -70.5 57t-41.5 67.5t-20 71.5t-5 69q0 61 16 106.5t43 79.5t63 57t75.5 37t80.5 20t78 6h188l-1 -213h-136q-18 0 -43 -2t-49.5 -13.5t-41 -33.5t-16.5 -60q0 -42 13.5 -68.5t35.5 -42t51.5 -22.5t64.5 -10 h119v-208h-121q-35 -2 -65.5 -9t-52 -25t-32.5 -51q-10 -32 -10 -85q0 -57 22.5 -97t61 -67t88 -40.5t103.5 -13.5q60 0 111.5 15.5t89.5 51t59.5 92t19.5 139.5v763h249v-806q0 -114 -42.5 -201.5t-114 -146.5t-167.5 -89t-205 -30q-68 0 -133.5 10.5t-125.5 34t-110.5 58 t-88 81.5t-59 106.5t-21.5 130.5z" />
<glyph unicode="&#xe23;" horiz-adv-x="1102" d="M61 429h250q0 -63 20.5 -110t53 -76.5t74 -44t83.5 -14.5q43 0 83.5 7t71.5 25t50.5 50.5t19.5 85.5q-2 34 -21 63t-51 52t-75 40t-90 30q-48 12 -99 24.5t-97.5 32t-88.5 44.5t-73 62t-49 86t-18 112q0 70 18.5 124.5t52 96t77 70.5t94.5 47t105 25t107 6q95 -3 175 -28 t137.5 -75.5t90.5 -124.5t33 -172h-252q-2 34 -10 69t-26.5 63t-50 46t-82.5 19q-62 3 -102.5 -9.5t-64.5 -33.5t-32.5 -49.5t-8.5 -59.5q0 -30 18.5 -53.5t51.5 -43t76.5 -34t91.5 -26.5q103 -28 183 -62t135 -78.5t82.5 -101.5t27.5 -134q0 -79 -18.5 -138.5t-52 -105 t-78.5 -75.5t-97 -48.5t-109.5 -27t-117.5 -8.5q-65 0 -127 11.5t-118 35t-103.5 59.5t-81.5 86.5t-52 115.5t-16 145z" />
<glyph unicode="&#xe24;" horiz-adv-x="1284" d="M33 861q11 51 32 99.5t53.5 94.5t78.5 85.5t106 68t135 45.5q77 16 169 16q109 0 193.5 -20t146.5 -56.5t105 -85t69.5 -106.5t37 -122.5t10.5 -130.5v-1152h-248v1173q0 53 -15 103.5t-51.5 91.5t-97.5 66.5t-152 26.5q-77 0 -132.5 -17t-92.5 -43.5t-57.5 -57.5 t-26.5 -55q24 -15 40 -38.5t27 -51t16.5 -59.5t5.5 -67v-466h133v-203h-382v672q0 25 -4.5 51t-16 51t-31.5 47q-19 23 -51 40z" />
<glyph unicode="&#xe25;" horiz-adv-x="1278" d="M78 330q0 102 36.5 174.5t100 123t147 78.5t176 42t189 15.5t185.5 -2.5v115q0 59 -22.5 96t-58 55.5t-80 24.5t-88.5 6q-59 0 -109.5 -11.5t-87.5 -39t-59 -73.5t-27 -113h-254q3 83 23.5 149t57.5 115t88 84.5t112 56t129 31t140 10.5q58 0 116.5 -7.5t112.5 -23.5 t101.5 -43.5t82 -68.5t54.5 -97t20 -130v-897h-251v570q-24 3 -62.5 4.5t-83.5 0t-94.5 -7t-98.5 -16.5t-92.5 -28t-77 -42t-52.5 -59t-18 -79q0 -47 20 -78t52 -50.5t72.5 -27.5t81.5 -8q34 0 70.5 6t74.5 15v-197q-51 -13 -96.5 -21.5t-95.5 -8.5q-87 0 -166.5 19.5 t-138.5 61.5t-94.5 110t-34.5 166z" />
<glyph unicode="&#xe26;" horiz-adv-x="1360" d="M65 0v203h121v469q0 25 -4 51t-15.5 51t-31.5 47.5t-52 39.5q12 51 34 99.5t56 94.5t81.5 85.5t109 68t137.5 45t168 16.5q109 0 195 -20t149.5 -56.5t108 -85t72 -106.5t40 -122.5t12.5 -130.5v-1152h-251v1173q0 53 -17 103.5t-55 91.5t-100 66.5t-154 26.5 q-77 0 -134 -17t-96 -43.5t-62 -57t-29 -55.5q18 -18 34 -41t28 -50t18 -59q7 -33 6 -66v-669h-369z" />
<glyph unicode="&#xe27;" horiz-adv-x="1163" d="M80 802q3 104 40 191t99 149.5t149.5 96.5t193.5 34q134 0 233 -47.5t163.5 -132.5t96 -205t31.5 -266.5t-31 -266.5t-96 -205t-163 -131q-100 -46 -234 -46q-106 0 -193.5 34t-149.5 96.5t-97.5 148t-40.5 191.5h252q4 -69 22.5 -118.5t49 -80.5t70.5 -46.5t86 -15.5 q62 0 111 26t83.5 80.5t54 137.5t19.5 195.5t-19.5 197t-53.5 138.5t-83 80q-48 27 -111 27q-47 0 -87 -15.5t-69.5 -46.5t-49 -81.5t-24.5 -118.5h-252z" />
<glyph unicode="&#xe28;" horiz-adv-x="1321" d="M115 0v719q0 70 10.5 137.5t35 128.5t65 113.5t101.5 90.5t143 59.5t190 21.5q71 0 130 -10q60 -8 107 -26q25 2 44.5 14.5t32 31t19 41.5t7.5 47h267q0 -36 -10.5 -77.5t-31 -79t-53 -68t-77.5 -48.5q30 -38 50.5 -82.5t34 -92.5t20 -99t6.5 -102v-719h-251v746 q0 35 -7 70.5t-20 70t-37 64t-56.5 51.5t-76 34t-99.5 12q-85 0 -142 -27.5t-91.5 -71t-49.5 -97.5t-15 -106v-167q34 49 72 83t83 56t100.5 31t126.5 9v-219q-110 0 -182.5 -28.5t-116.5 -82.5t-62 -130.5t-18 -173.5v-124h-249z" />
<glyph unicode="&#xe29;" horiz-adv-x="1308" d="M114 503v740h247v-761q0 -53 12 -105.5t43 -95.5t87 -69.5t148 -26.5t148 26.5t87.5 69.5t42.5 95.5t11 105.5v97h-360v288h237v-89h124v465h252v-465h112l-1 -199h-111v-76q0 -66 -9 -132t-32 -124.5t-62 -109t-98.5 -86.5t-143 -57t-194.5 -21q-112 0 -196 21 t-143.5 57t-99 86.5t-62.5 109t-31 124.5t-8 132z" />
<glyph unicode="&#xe2a;" horiz-adv-x="1278" d="M78 330q0 102 36.5 174.5t100 123t147 78.5t176 42t189 15.5t185.5 -2.5v115q0 59 -22.5 96t-57 55.5t-78.5 24.5t-88 6q-59 0 -109.5 -11t-88 -38.5t-60.5 -72.5t-26 -112h-255q3 83 24.5 149t59.5 115t88 84.5t111 56t129.5 31t141.5 10.5q55 0 111 -8q58 -7 108 -22 q26 3 47 15t34.5 29.5t20.5 39.5q7 23 10 44h267q0 -35 -10 -74.5t-30.5 -76.5t-54 -67.5t-77.5 -45.5q24 -41 40 -93t16 -114v-897h-251v570q-24 3 -62.5 4.5t-83.5 0t-94.5 -7t-98.5 -16.5t-92.5 -28t-77 -42t-52.5 -59t-18 -79q0 -47 20 -78t52 -50.5t72.5 -27.5t81.5 -8 q34 0 70.5 6t74.5 15v-197q-51 -13 -96.5 -21.5t-95.5 -8.5q-87 0 -166.5 19.5t-138.5 61.5t-94.5 110t-34.5 166z" />
<glyph unicode="&#xe2b;" horiz-adv-x="1281" d="M115 0v1243h246v-436l509 436h363l-277 -234q65 -26 106 -69t63.5 -99.5t31.5 -126t9 -147.5v-567h-248v592q0 44 -7.5 85.5t-25.5 77t-46 61t-68 34.5l-407 -350v-500h-249z" />
<glyph unicode="&#xe2c;" horiz-adv-x="1645" d="M30 1243h278l152 -913l210 718h258l220 -721q12 62 24 120.5t23 116.5t22 115.5t23 116.5q11 46 13 78t2 60q0 32 -7.5 56.5t-25 41.5t-47 26t-71.5 9l2 176q59 3 106 15t82 35t55.5 59t26.5 88h285q-9 -65 -30 -116t-51 -88t-69.5 -61t-83.5 -35q32 -29 51.5 -65t27 -76 t4.5 -84q0 -43 -12 -88l-204 -827h-276l-225 713l-211 -713h-276z" />
<glyph unicode="&#xe2d;" horiz-adv-x="1260" d="M71 619v20.5v30.5v39h559v-197h-303q3 -74 26.5 -134.5t63.5 -103.5t94 -67.5t119 -24.5q72 0 129.5 29t97.5 85t62 137.5t22 185.5q0 213 -77 326t-234 113q-59 0 -109 -14t-88.5 -43t-63.5 -70q-23 -42 -32 -95h-263q21 99 64 180t111.5 138t162.5 88t218 31 q104 0 186 -23t145 -65t107.5 -101.5t72.5 -132t41.5 -157t13.5 -175.5q0 -86 -13.5 -167.5t-41.5 -154t-72.5 -131.5t-107.5 -102t-145 -67t-183 -24q-103 0 -184.5 24t-144.5 66t-107.5 102t-72.5 131t-40.5 153t-12.5 170z" />
<glyph unicode="&#xe2e;" horiz-adv-x="1260" d="M71 622v87h559l3 -194h-303q3 -74 26 -135.5t61.5 -105t93 -66.5t119.5 -23q72 0 129.5 29t97.5 85t62 137.5t22 185.5q0 211 -77 323.5t-234 112.5q-116 0 -191 -57t-102 -165h-263q21 99 64 180.5t111 139.5t162.5 89t217.5 31q59 0 114 -9t102 -27q24 3 42.5 13.5 t30 28t17.5 40t8 46.5h271q0 -36 -10.5 -73t-31.5 -72t-50.5 -63.5t-70.5 -46.5q35 -44 62 -100.5t44.5 -118.5t27.5 -132q11 -69 11 -140q0 -86 -13.5 -167.5t-41.5 -154t-72.5 -131.5t-107.5 -102t-145 -67t-183 -24q-103 0 -184.5 24t-143.5 66t-106.5 102t-72.5 131 t-41.5 153t-13.5 170z" />
<glyph unicode="&#xe2f;" horiz-adv-x="1284" d="M86 888q0 67 17.5 119.5t48 91.5t72 66.5t88 44.5t96.5 25q51 8 98 8h200l-2 -210h-199q-83 0 -121 -36t-39 -112q0 -35 11 -71.5t39 -64.5t76 -46t122 -18q160 0 244 58.5t84 182.5v317h248v-1243h-248v579q-60 -51 -142 -75t-178 -24q-127 0 -223.5 28t-161.5 82 t-97.5 129.5t-32.5 168.5z" />
<glyph unicode="&#xe30;" horiz-adv-x="748" d="M112 194v283h230v-92h299v-191h-529zM112 810v285h231v-92h296v-193h-527z" />
<glyph unicode="&#xe31;" d="M-780 1433v299h229v-107h592l3 -192h-824z" />
<glyph unicode="&#xe32;" horiz-adv-x="1058" d="M33 833q0 71 17.5 130.5t48.5 107.5t75 85t95 61.5t107 37t115 12.5q97 0 179.5 -26.5t142.5 -80t95 -134.5q33 -82 33 -193l2 -833h-249l-1 790q1 134 -51.5 196t-150.5 62q-85 0 -138.5 -53.5t-59.5 -161.5h-260z" />
<glyph unicode="&#xe33;" horiz-adv-x="1058" d="M-500 1646q0 49 17.5 91.5t48.5 74.5t73.5 51.5t91.5 19.5q47 0 90 -19.5t75.5 -51.5t52.5 -74.5t20 -91.5t-19.5 -92t-52 -75t-76 -51t-91 -19t-89.5 19t-74 51t-49.5 75t-17.5 92zM-349 1646q0 -18 6.5 -33t17.5 -26.5t26 -19t31 -7.5q18 0 33.5 7.5t27.5 19t17.5 26.5 t5.5 33t-6.5 32.5t-17.5 26.5t-27.5 19.5t-32.5 7.5q-18 0 -32.5 -7.5t-25.5 -19.5t-18 -26.5t-5 -32.5zM33 833q0 71 17.5 130.5t48.5 107.5t75 85t95 61.5t107 37t115 12.5q97 0 179.5 -26.5t143.5 -80t95.5 -135t33.5 -192.5v-833h-249v790q2 134 -51.5 196t-151.5 62 q-85 0 -138.5 -53.5t-59.5 -161.5h-260z" />
<glyph unicode="&#xe34;" d="M-1200 1430l99 198h986v-198h-1085z" />
<glyph unicode="&#xe35;" d="M-1200 1430l99 198h749v175h235l2 -373h-1085z" />
<glyph unicode="&#xe36;" d="M-1200 1430l99 198h580l-1 21q0 44 17 84t45.5 69.5t68 47.5t84 18t84 -18t70 -47.5t47.5 -69.5t17 -84q0 -46 -16 -85.5t-46 -69t-69 -47t-83 -17.5h-897zM-383 1649q0 -15 6.5 -30t17 -24.5t24.5 -15.5t28.5 -6t29.5 6t25.5 15.5t17 24.5t6.5 30q0 35 -23.5 57.5 t-54.5 22.5q-15 0 -30 -6t-25 -17t-16 -25.5t-6 -31.5z" />
<glyph unicode="&#xe37;" d="M-1200 1430l99 198h429l-3 175h225l2 -175h108v175h223l2 -373h-1085z" />
<glyph unicode="&#xe38;" d="M-456 -334l3 192h341v-465h-234v273h-110z" />
<glyph unicode="&#xe39;" d="M-900 -334l3 192h346l-1 -170q0 -59 24.5 -90.5t77.5 -31.5q50 0 77 31.5t27 90.5l1 170h233v-170q0 -65 -18 -122t-58 -100t-103.5 -68.5t-155.5 -25.5q-89 0 -152 21t-103.5 60t-61.5 93q-23 54 -26 120h-110z" />
<glyph unicode="&#xe3a;" d="M-423 -272q0 35 13 65.5t36 53.5t53.5 36t65.5 13q34 0 65.5 -13t54.5 -36t36 -53.5t12 -65.5q0 -34 -12.5 -64.5t-35 -53.5t-53 -36.5t-64.5 -13.5q-35 0 -66 13.5t-55 36.5t-37 53.5t-13 64.5z" />
<glyph unicode="&#xe3e;" />
<glyph unicode="&#xe3f;" horiz-adv-x="1408" d="M133 0v1447h450v143h231v-146q89 -4 172 -22.5t148 -58.5t104 -109q41 -69 41 -175.5t-38.5 -181t-120.5 -126.5q54 -22 94.5 -57t68.5 -78.5t42 -95.5t14 -111q0 -53 -13 -105.5t-40.5 -100.5t-67.5 -88t-93 -70.5t-118.5 -47.5t-142.5 -17h-50v-151h-231v151h-450z M391 1228l1 -377h191v377h-192zM392 216h191v414h-191v-414zM814 216h21q59 0 105 15t77 44.5t47 69.5t16 93q0 56 -22 93t-60.5 58.5t-86 31t-97.5 9.5v-414zM814 854q108 12 156 58t48 128q0 60 -13 97t-40 57t-65.5 25.5t-85.5 8.5v-374z" />
<glyph unicode="&#xe40;" horiz-adv-x="529" d="M139 0v1243h252v-1243h-252z" />
<glyph unicode="&#xe41;" horiz-adv-x="948" d="M139 0v1243h252v-1243h-252zM558 0v1243h252v-1243h-252z" />
<glyph unicode="&#xe42;" horiz-adv-x="630" d="M-9 1613l46 190h607l112 -199h-389q30 -35 44.5 -78t14.5 -89v-1234h130l2 -203h-379v1430q0 43 -15.5 77.5t-40.5 57.5t-59 35.5t-73 12.5z" />
<glyph unicode="&#xe43;" horiz-adv-x="630" d="M-71 1474q0 98 29.5 170.5t78.5 120t113.5 71t133.5 23.5q62 0 120 -15t103 -46t72 -80q28 -49 28 -120q-2 -38 -14.5 -67.5t-32.5 -55.5t-44.5 -50.5t-46.5 -54.5q-16 -19 -25 -43.5t-13.5 -51t-4.5 -53v-50.5v-969h130l2 -203h-379l-1 1172q-2 50 2.5 90t16.5 75 t33.5 67t56.5 67q9 9 24 22.5t29.5 29t25.5 31.5q13 16 13 31q0 13 -6 26.5t-16.5 25.5t-28 18t-45.5 6q-30 0 -53 -13.5t-37.5 -37t-22 -59t-7.5 -77.5h-234z" />
<glyph unicode="&#xe44;" horiz-adv-x="630" d="M-152 1604l111 199h606l49 -190q-38 0 -73 -12.5t-60 -35.5t-40 -57t-15 -78v-1227h130l2 -203h-379v1437q2 44 14 88q11 44 41 79h-386z" />
<glyph unicode="&#xe45;" horiz-adv-x="1058" d="M33 833q0 71 17.5 130.5t48.5 107.5t75 85t95 61.5t107 37t115 12.5q97 0 179 -26.5t142.5 -80t94.5 -135.5q34 -84 33 -193v-1235h-249v1193q2 134 -50 196t-150 62q-85 0 -138.5 -53.5t-59.5 -161.5h-260z" />
<glyph unicode="&#xe46;" horiz-adv-x="1212" d="M80 781q0 92 16 170.5t59 140t118 104.5q73 43 192 62l130 -136l117 133q86 -7 149 -31t105 -60t68 -83.5t39 -101t17.5 -112.5t4.5 -121v-1146h-253v1170q0 23 -0.5 48.5t-2 50.5t-6 48.5t-12 43t-21 32.5t-30.5 19l-131 -139q-9 -7 -20.5 -12.5t-23.5 -5.5 q-16 0 -27.5 5.5t-16.5 12.5l-135 136q-50 -32 -71 -91.5t-15 -133.5q0 -26 5 -53t20 -47.5t38.5 -34t59.5 -13.5h50l2 -219h-52q-74 0 -142 21t-120 65.5t-81 112.5q-30 68 -30 165z" />
<glyph unicode="&#xe47;" d="M-1073 1718q0 76 26.5 129t72 88.5t106 52t125.5 16.5h601v-179h-580q-45 0 -70.5 -11t-39 -27.5t-17 -35t-3.5 -33.5q0 -9 2.5 -23t10 -27t21.5 -22t38 -9q39 0 58.5 25t18.5 76h170q-6 -101 71 -101q42 0 53 27q12 26 6 74h184q10 -80 -3 -135t-43.5 -89t-75 -49.5 t-94.5 -15.5q-33 0 -61 8t-50 23t-40 32.5t-30 38.5q-12 -21 -32.5 -38.5t-45.5 -32.5t-54.5 -23t-62.5 -8q-77 0 -126.5 26t-80 65t-43 86.5t-12.5 91.5z" />
<glyph unicode="&#xe48;" d="M-351 2306h231l2 -363h-231z" />
<glyph unicode="&#xe49;" d="M-690 2309h308l3 -184q59 0 106.5 15t80 40t48.5 58q17 32 17 71h214q0 -71 -28.5 -137.5t-90 -118.5t-154 -83t-217.5 -31h-170v186h-114z" />
<glyph unicode="&#xe4a;" d="M-731 1939q-6 83 9 143.5t43 100.5t66.5 59t80 19t77 -20.5t61.5 -56.5q23 36 62 56.5t82 20.5q58 0 103.5 -32.5t63.5 -100.5q12 15 22.5 34.5t17.5 42t11.5 48.5t6.5 50h197q0 -37 -9 -76.5t-26 -78t-40 -73t-50.5 -62.5t-58.5 -48t-63 -26h-159q0 16 -1.5 39.5t-6 45 t-14.5 37t-30 15.5q-13 0 -22 -6.5t-15 -17t-8 -25t-2 -29.5h-118q0 33 -11.5 55.5t-31.5 22.5q-18 0 -27.5 -14t-15 -35.5t-6.5 -44.5q-2 -25 -2 -43h-186z" />
<glyph unicode="&#xe4b;" d="M-521 2094l3 179h172v151h225v-151h174l-1 -179h-176l3 -155h-225l-2 155h-173z" />
<glyph unicode="&#xe4c;" d="M-512 1797q-2 86 28.5 153t90 114.5t142 73.5t189.5 26v-187q-111 0 -171 -43t-57 -137h-222z" />
<glyph unicode="&#xe4d;" d="M-500 1646q0 49 17.5 91.5t48.5 74.5t73.5 51.5t91.5 19.5q47 0 90 -19.5t75.5 -51.5t52.5 -74.5t20 -91.5t-19.5 -92t-52 -75t-76 -51t-91 -19t-89.5 19t-74 51t-49.5 75t-17.5 92zM-349 1646q0 -18 6.5 -33t17.5 -26.5t26 -19t31 -7.5q18 0 33.5 7.5t27.5 19t17.5 26.5 t5.5 33t-6.5 32.5t-17.5 26.5t-27.5 19.5t-32.5 7.5q-18 0 -32.5 -7.5t-25.5 -19.5t-18 -26.5t-5 -32.5z" />
<glyph unicode="&#xe4e;" d="M-571 1433q0 59 13 113t40 97.5t68.5 76t98.5 47.5q9 43 35 79.5t69 63t104.5 40.5t142.5 14l1 -191q-50 0 -81.5 -7.5t-49 -23.5t-24 -38.5t-6.5 -51.5l3 -51h-62q-40 0 -64.5 -11.5t-39 -34t-19 -53.5t-4.5 -69h-225z" />
<glyph unicode="&#xe4f;" horiz-adv-x="1536" d="M108 619q0 90 23 173.5t66 155.5t103.5 132t133 101t157 65t176.5 24q88 0 171 -24t155 -65t131 -101t101.5 -132t64.5 -155q25 -84 25 -174.5t-23.5 -174t-66 -156t-102.5 -131.5t-131.5 -101.5t-154.5 -65.5q-85 -23 -173 -23q-92 0 -175 23t-156 65.5t-133 101.5 t-102.5 131.5t-66 156t-23.5 174.5zM287 624.5q0 -97.5 38 -184t102 -151t151.5 -103t186.5 -38.5q65 0 125 18t112 49t95 74t73 96t47 113.5t17 126t-16 126t-47 112.5t-74 94.5t-95.5 73t-112.5 47.5t-125 17q-101 0 -187 -37t-150 -100.5t-102 -149.5t-38 -183.5z M414 625q0 69 28.5 131t75.5 109t111 75t135 28q69 0 130.5 -28t108 -75t74 -109t27.5 -131q0 -71 -26.5 -135t-73 -110.5t-108 -74t-132.5 -27.5t-135 27.5t-111 74t-75.5 110.5t-28.5 135zM576 625q0 -40 14.5 -75t39 -60t59.5 -39q33 -14 75 -14q38 0 70.5 14t57 39 t38.5 60t13 75q0 38 -14 70.5t-38 57.5t-56.5 39.5t-69.5 14.5q-41 0 -76 -14.5t-60 -39.5t-39 -57.5t-14 -70.5z" />
<glyph unicode="&#xe50;" horiz-adv-x="1348" d="M87 542q0 133 40 237.5t115 174.5t184.5 107t245.5 37t245.5 -37t185 -107t117 -174.5t41.5 -237.5q0 -153 -47.5 -260t-126.5 -175.5t-185 -99.5t-227 -31q-80 0 -155.5 13.5t-140.5 43t-118.5 74t-92.5 108t-60.5 145t-20.5 182.5zM334 530q0 -76 24.5 -138.5 t68.5 -110t106 -73.5t140 -26q77 0 140 26t106.5 73.5t68 110t24.5 138.5q0 98 -27 166.5t-73 112t-107.5 63t-129.5 19.5t-130.5 -19.5t-109 -63t-74 -112t-27.5 -166.5z" />
<glyph unicode="&#xe51;" horiz-adv-x="1339" d="M7 163l197 161q39 -43 83.5 -71t94 -46t103.5 -24.5t110 -6.5q87 0 162 26t128 76.5t84 124.5t31 170q0 72 -22 133t-63.5 105t-104.5 68q-61 24 -147 24q-70 0 -127.5 -16.5t-98 -44.5t-63.5 -64.5t-23 -74.5q0 -36 15.5 -69t54 -56.5t99 -34t152.5 1.5v-181 q-47 -12 -85 -15q-36 -3 -69 -3q-86 0 -163.5 24t-134.5 69t-91 108t-31 138q0 74 22 134t60.5 106.5t92 80t115.5 54t131 31.5q70 10 138 10q124 0 232.5 -29.5t189 -91.5t127 -162t48.5 -242q0 -133 -45.5 -243.5t-129 -189t-205 -121.5t-273.5 -43q-70 0 -143 4.5 t-150 23t-153 55.5q-75 36 -148 101z" />
<glyph unicode="&#xe52;" horiz-adv-x="1530" d="M-9 1039l40 210q71 0 129 -19t100 -60.5t64 -102.5t22 -146l2 -447q0 -58 27.5 -109t82 -88t137.5 -58.5t192 -21.5q104 0 178.5 20t123 52.5t72 75.5t23.5 89v300q0 33 -8 56.5t-22 41.5t-33.5 29.5t-43.5 17.5l-162 -145l-163 136q-18 -1 -34 -9.5t-29 -24.5t-21 -40 q-8 -23 -8 -56l3 -68q0 -30 1.5 -61t9 -55.5t23.5 -40t46 -15.5h93l-1 -194h-116q-71 0 -121 18.5t-83 48.5t-52 67.5t-28 77.5t-12 79t-4 69l-2 59q0 70 27 131.5t75.5 111t117.5 82.5q67 33 153 45l125 -103l106 103q86 -4 160 -31.5t129.5 -72.5t86.5 -105 q30 -60 30 -131v-284q0 -86 -21 -155t-58.5 -123t-90 -93t-116.5 -65t-136.5 -38t-146.5 -12h-121q-152 0 -271.5 35.5t-200.5 102t-122.5 161.5t-41.5 210l1 391q-1 81 -28 117.5t-83 36.5z" />
<glyph unicode="&#xe53;" horiz-adv-x="1371" d="M95 491l1 82q-1 127 28.5 220.5t86.5 156t139 98t186 47.5l149 -127l159 127q112 -6 192.5 -43t134 -93t79.5 -129q26 -75 26 -155v-675h-249v675q0 35 -13.5 69t-34 59.5t-47.5 41.5q-29 16 -56 19l-192 -158l-187 158q-25 -6 -52.5 -22t-49.5 -50t-37 -86t-15 -130v-82 q0 -34 1 -68.5t4.5 -68t11 -62.5t21.5 -49.5t36.5 -33t54.5 -12.5q10 0 27.5 0.5t38.5 2t47 4.5t54 9l-3 -207q-17 -6 -47 -10.5t-64 -7.5t-66.5 -4.5t-55.5 1.5q-77 9 -130.5 38t-87.5 69.5t-52 91t-26.5 102t-10 104t-1.5 98.5z" />
<glyph unicode="&#xe54;" horiz-adv-x="1371" d="M95 592q0 124 41.5 214.5t118.5 151t186.5 89.5t245.5 29h208q42 0 68.5 12.5t42 35t21.5 52.5q6 32 6 67h255q0 -44 -7 -89t-23 -87.5t-43.5 -79.5t-70.5 -64.5t-102 -43t-139 -15.5h-238q-74 0 -133.5 -16t-101.5 -45.5t-64.5 -75t-22.5 -102.5v-143q0 -57 16.5 -107.5 t52 -86.5t90 -57t128.5 -21h15q-32 33 -54.5 77.5t-23.5 97.5q0 18 3 43.5t14.5 54.5t34.5 58t64.5 52t104 37.5t150.5 14.5v-208q-47 0 -73.5 -8.5t-39 -19.5t-15 -23.5t-2.5 -21.5q0 -31 12.5 -58.5t33.5 -49.5t46 -34t49 -12h336l3 -210h-681q-101 0 -178.5 20.5 t-134.5 56t-95.5 83t-61 101t-32.5 107.5q-10 55 -9 106z" />
<glyph unicode="&#xe55;" horiz-adv-x="1371" d="M95 480v118q0 104 28 181.5t79 133t121.5 91t153.5 57.5q-2 6 -3 16q0 12 -2 21q0 45 18.5 86t49.5 71t72.5 48.5t89.5 18.5q50 0 93 -18.5t74 -48.5t48 -71q15 -41 15 -86q0 -7 1 -11l1 -4v-1q29 6 47.5 21.5t30.5 36t17 46.5q4 28 4 57h255q0 -44 -7 -90t-22.5 -87.5 t-43.5 -77.5t-71 -63.5t-102 -42.5t-139 -15h-227q-74 0 -135 -13t-105 -42t-68.5 -74t-25.5 -110l3 -143q0 -56 16 -106t51 -88t89.5 -59.5t128.5 -21.5h15q-32 33 -54.5 77.5t-23.5 97.5q0 18 3 43.5t14.5 54.5t34.5 58t64.5 52t104 37.5t150.5 14.5v-208 q-47 0 -73.5 -8.5t-39 -19.5t-15 -23.5t-2.5 -21.5q0 -31 12.5 -58.5t33.5 -49.5t46 -34t49 -12h336l3 -210h-681q-101 0 -178 20.5t-134.5 57.5t-95.5 84.5t-61 101t-33 108t-10 108.5zM628 1098q0 -35 20.5 -57.5t53.5 -22.5q37 0 56.5 22.5t19.5 57.5q2 36 -18.5 56.5 t-57.5 20.5q-33 0 -53 -20.5t-21 -56.5z" />
<glyph unicode="&#xe56;" horiz-adv-x="1391" d="M27 1082l198 115l121 -194q33 15 74.5 31.5t89.5 28t105 20.5t122 12q110 3 194 -16t148 -54t106.5 -84.5t69.5 -108t38.5 -124.5t11.5 -132v-76q0 -69 -17 -135t-50 -125t-84 -106.5t-118.5 -81.5t-151 -52t-184.5 -15q-111 3 -202.5 29.5t-157.5 75t-102.5 115.5 t-36.5 150q0 79 27 136t75.5 93t117.5 53t155 17h102l3 -189h-95q-41 0 -68 -10t-42.5 -25.5t-20.5 -37.5t-5 -46q0 -31 19 -58.5t53 -48t83 -32.5t108 -13q65 -2 126.5 17.5t108.5 58t75.5 95.5t28.5 132l-1 73q0 80 -19.5 140t-59.5 98.5t-97 56t-129 17.5 q-58 -1 -116.5 -11t-117.5 -30.5t-121 -53t-131 -78.5z" />
<glyph unicode="&#xe57;" horiz-adv-x="1628" d="M98 488v82q0 121 29.5 213t85.5 157t139 102.5t188 49.5l117 -118l114 118q121 -15 202 -59t128 -111.5t66.5 -155.5t17.5 -187l2 -85q-2 -25 -4 -56.5t-6.5 -64.5t-10.5 -66t-15 -61q27 20 48 52t34 70.5t19.5 80.5t6.5 81l-1 391q0 82 23.5 143.5t65 101.5t99.5 60 t129 20l35 -210q-28 0 -48 -8t-32 -26.5t-17.5 -48t-5.5 -71.5v-331q0 -113 -30 -209t-92.5 -169.5t-158 -120t-227.5 -61.5l-188 130q50 49 77 94t40 88t16 89t3 96v91q0 65 -11 113t-29 82t-40.5 55t-49.5 29l-160 -161l-163 167q-23 -6 -49 -25t-47.5 -54.5t-36.5 -87.5 t-13 -124l-2 -79v-54.5t4.5 -62.5t12.5 -60.5t23 -53t38 -37t56 -13.5q5 0 18.5 1t32 2.5t38.5 3.5t41 5l6 -210q-17 -5 -41 -10t-52.5 -8t-58.5 -3q-32 0 -58 6q-74 15 -124.5 44.5t-84.5 69.5t-55 87.5t-29.5 96t-11.5 97.5t-3 93z" />
<glyph unicode="&#xe58;" horiz-adv-x="1369" d="M101 592q0 112 34.5 202t102.5 152.5t169.5 96t236.5 33.5h282q42 0 67 12.5t41.5 35t22.5 52.5q6 32 6 67h251q0 -43 -6 -88.5t-22 -88t-42.5 -81t-69.5 -66.5t-101.5 -44.5t-137.5 -16.5h-310q-71 0 -124 -20t-86 -53t-49.5 -74.5t-16.5 -85.5l3 -225q0 -34 11 -66 t31 -58t45 -44q24 -16 49 -22l202 160l198 -160q27 0 50.5 9.5t41.5 29.5t29 54q12 34 12 85q0 20 -3.5 42.5t-14.5 41t-30.5 32.5t-48.5 17q-11 3 -32 3h-42l1 192h90q71 -3 123.5 -19t89 -40t58.5 -55t34 -66.5t16 -73.5q5 -37 5 -74q0 -99 -25 -174t-77 -126t-132 -77 t-189 -26l-151 122l-154 -122q-107 6 -189 41.5t-137.5 92t-83.5 129t-25 152.5z" />
<glyph unicode="&#xe59;" horiz-adv-x="1394" d="M96 485v88q0 129 21 226.5t69 162.5t126.5 99t193.5 34q21 0 47 -0.5t53 -3t54 -8.5t50 -16q21 -15 42 -31q21 -15 40 -41l83 78q9 9 22 15.5t34 6.5h72q40 0 64 9t36.5 28t16.5 47q5 29 5 64h248q0 -44 -5.5 -88t-19 -84.5t-37 -74.5t-63 -59t-96.5 -40t-134 -15h-18 q-8 0 -20 -6.5t-24 -16t-23.5 -23t-23.5 -23.5l399 -813h-260l-355 731q-36 74 -82 112.5t-108 38.5q-34 0 -63 -14t-51 -49t-34 -93.5t-12 -146.5v-111q0 -27 3 -57.5t10 -59t18 -56t27 -47.5t40 -32.5t55 -12.5q16 0 44 2t59 8l34 -204q-17 -5 -42.5 -8.5t-54 -6.5 t-59 -4.5t-54.5 1.5q-75 9 -129 35t-89.5 64.5t-58 86.5t-32.5 100t-14 105t-4 103z" />
<glyph unicode="&#xe5a;" horiz-adv-x="1706" d="M86 888q0 67 17.5 119.5t48 91.5t72 66.5t88 44.5t96.5 25q51 8 98 8h198v-210h-199q-83 0 -121 -36t-39 -112q0 -35 11 -71.5t39 -64.5t76 -46t122 -18q160 0 244 58.5t84 182.5v317h248v-1243h-248v579q-60 -51 -142 -75t-178 -24q-127 0 -223.5 28t-161.5 82 t-97.5 129.5t-32.5 168.5zM1342 1243h249v-1243h-247z" />
<glyph unicode="&#xe5b;" horiz-adv-x="2664" d="M120 645q0 70 15.5 141.5t46.5 139t77 126t106.5 103t134.5 69.5t162 25q82 0 149.5 -20t119.5 -54.5t90.5 -82t63 -104t35.5 -118.5t12 -124l-232 -3q0 130 -55.5 196.5t-159.5 72.5q-75 0 -134.5 -29.5t-99.5 -81t-61 -121.5t-21 -150q0 -74 28.5 -144t79 -124 t121.5 -86.5t157 -32.5q83 0 149.5 26.5t116 74t84.5 114t57 143.5t32.5 164t11.5 178l162 90q34 -35 65 -73.5t58 -75.5t50 -72q25 -35 43 -63q19 27 42.5 62.5t49 71.5t49.5 71.5t47 63.5q20 -32 44.5 -68.5t47.5 -72.5t43.5 -69.5t37.5 -61.5l93 130h398l157 -243h-477 q-20 -26 -42.5 -60t-46 -74t-47 -84t-47.5 -88q-46 96 -88 171.5t-81 137.5q-40 -59 -88 -159.5t-95 -239.5q-45 129 -89.5 227t-88.5 164q-12 -91 -42 -173t-75.5 -151.5t-103 -126t-126.5 -95.5t-147.5 -60.5t-162.5 -21.5q-101 0 -186.5 26t-155.5 71t-123 107t-88.5 133 t-54 149.5t-18.5 158.5z" />
<glyph unicode="&#x2000;" horiz-adv-x="1212" />
<glyph unicode="&#x2001;" horiz-adv-x="2424" />
<glyph unicode="&#x2002;" horiz-adv-x="1212" />
<glyph unicode="&#x2003;" horiz-adv-x="2424" />
<glyph unicode="&#x2004;" horiz-adv-x="808" />
<glyph unicode="&#x2005;" horiz-adv-x="606" />
<glyph unicode="&#x2006;" horiz-adv-x="404" />
<glyph unicode="&#x2007;" horiz-adv-x="404" />
<glyph unicode="&#x2008;" horiz-adv-x="303" />
<glyph unicode="&#x2009;" horiz-adv-x="484" />
<glyph unicode="&#x200a;" horiz-adv-x="134" />
<glyph unicode="&#x200b;" />
<glyph unicode="&#x2010;" horiz-adv-x="981" d="M93 457v197h794l1 -197h-795z" />
<glyph unicode="&#x2011;" horiz-adv-x="981" d="M93 457v197h794l1 -197h-795z" />
<glyph unicode="&#x2012;" horiz-adv-x="981" d="M93 457v197h794l1 -197h-795z" />
<glyph unicode="&#x2013;" horiz-adv-x="1219" d="M0 462v232h1220v-232h-1220z" />
<glyph unicode="&#x2014;" horiz-adv-x="1515" d="M-1 694h1517v-232h-1516z" />
<glyph unicode="&#x2018;" horiz-adv-x="605" d="M160 918v266q0 70 16 131t51 107t88.5 73.5t125.5 27.5v-144q-33 0 -55.5 -15.5t-37.5 -41.5t-22.5 -58.5t-7.5 -66.5h123v-279h-281z" />
<glyph unicode="&#x2019;" horiz-adv-x="605" d="M161 897v142q33 0 56 16.5t37.5 41.5t22.5 58q7 35 7 67h-123v279h283v-265q0 -71 -17 -132.5t-52 -107.5t-88 -72.5t-126 -26.5z" />
<glyph unicode="&#x201c;" horiz-adv-x="945" d="M138 918v266q0 70 17 131t51 107t87 73.5t127 27.5v-144q-32 0 -56 -15.5t-38.5 -41.5t-22 -58.5t-7.5 -66.5h124v-279h-282zM524 918v266q0 70 16 131t51 107t88.5 73.5t125.5 27.5v-144q-32 0 -55 -15.5t-38 -41.5t-22.5 -58.5t-7.5 -66.5h123v-279h-281z" />
<glyph unicode="&#x201d;" horiz-adv-x="945" d="M138 897v142q32 0 55 16.5t38 41.5t22 58q7 35 7 67h-122v279h282v-265q0 -71 -17 -132.5t-51.5 -107.5t-88 -72.5t-125.5 -26.5zM524 897v142q32 0 54.5 16.5t37 41.5t22.5 58q7 35 7 67h-121v279h281v-265q0 -71 -16 -132.5t-51.5 -107.5t-89 -72.5t-124.5 -26.5z" />
<glyph unicode="&#x2022;" horiz-adv-x="806" d="M56 636q0 66 27 125t73.5 104t109.5 72.5t132 27.5q71 0 134.5 -27.5t111 -72.5t75 -104t27.5 -125q0 -69 -26.5 -130t-74 -106t-111 -71t-134.5 -26t-133.5 26t-109.5 71t-74 106t-27 130z" />
<glyph unicode="&#x202f;" horiz-adv-x="484" />
<glyph unicode="&#x205f;" horiz-adv-x="606" />
<glyph unicode="&#x20ac;" horiz-adv-x="1645" d="M44 784v179h199q29 113 88.5 208.5t145 163.5t200.5 107q113 38 255 38q123 0 229 -31t188 -93t137 -156q56 -94 77 -219h-267q-14 74 -46.5 128t-79.5 88t-108.5 50.5t-132.5 16.5q-84 0 -151.5 -23.5t-120 -63.5t-89.5 -95t-59 -119h432v-179h-467q-2 -11 -2.5 -24.5 t-0.5 -26.5q0 -18 1.5 -36.5t1.5 -36.5h467v-178h-432q24 -65 61.5 -119.5t90 -93t120 -61t151.5 -22.5q89 0 155.5 28.5t113.5 77t72.5 115.5t31.5 144h261q-16 -137 -64.5 -245t-129 -182t-193.5 -112.5t-261 -38.5q-144 0 -258 37t-199 104.5t-141.5 161.5t-82.5 206 h-190v178h163v56v68h-166z" />
<glyph unicode="&#x2122;" horiz-adv-x="2036" d="M104 1447h722v-159h-267l-1 -720h-188l3 720h-268zM949 568l1 879h255l237 -581l229 581h257l-1 -879h-192v588l-234 -588h-125l-239 588v-588h-188z" />
<glyph unicode="&#x25cc;" horiz-adv-x="1382" d="M318 598l117 56q-3 -26 -4.5 -56t6.5 -59zM420 337l48 117q17 -25 35 -45.5t45 -35.5zM441 858l121 -43q-32 -16 -56 -34q-24 -17 -35 -41zM630 847l60 118l53 -115q-30 5 -61 3.5t-52 -6.5zM633 337q14 -3 26.5 -5.5t25 -2t26 2.5t29.5 8l-52 -115zM826 818l133 40 l-52 -121q-18 25 -39 45t-42 36zM827 370q27 15 46 34t36 41l32 -111zM946 542q9 25 8 52.5t-8 56.5l114 -56z" />
<glyph unicode="&#x25fc;" horiz-adv-x="1075" d="M0 0v1077h1077v-1077h-1077z" />
<glyph unicode="&#xf700;" horiz-adv-x="1194" d="M62 852q15 92 59.5 169t114 132t163.5 86q95 31 211 31q53 0 105 -7.5t99 -22.5q25 5 44.5 17.5t32 30t18.5 38.5t6 42h268q0 -36 -10 -74.5t-29 -74t-50 -64.5q-31 -27 -76 -45q40 -47 61 -116t19 -161q0 -47 -13 -110t-36 -135.5t-53 -150t-61.5 -154t-64 -149 t-60.5 -134.5h-313l-201 555h-166v194h361l169 -486q28 66 58.5 140t55.5 147t42 142q16 69 19 123q1 122 -62 182.5t-188 60.5q-101 0 -164 -52.5t-87 -153.5h-272z" />
<glyph unicode="&#xf701;" d="M-1347 1430l98 198h767v-198h-865z" />
<glyph unicode="&#xf702;" d="M-1347 1430l98 198h530v175h237v-373h-865z" />
<glyph unicode="&#xf703;" d="M-1347 1430l101 198h349l-1 21q0 44 17 84t46.5 69.5t68 47.5t85.5 18q45 0 85 -18t70 -47.5t47 -69.5t17 -84q0 -46 -16 -85.5t-46 -69t-69.5 -47t-85.5 -17.5h-668zM-759 1649q0 -15 6.5 -30t17.5 -24.5t25 -15.5t31 -6q14 0 29 6t25.5 15.5t17 24.5t6.5 30 q0 35 -23.5 57.5t-54.5 22.5q-15 0 -30.5 -6t-26 -17t-17 -25.5t-6.5 -31.5z" />
<glyph unicode="&#xf704;" d="M-1347 1430l101 198h204l-3 175h225l2 -175h112l-1 175h225v-373h-865z" />
<glyph unicode="&#xf705;" d="M-787 1809h242l2 -382h-241z" />
<glyph unicode="&#xf706;" d="M-1137 1619v181h299v-181q60 0 102.5 15t69.5 40t40 57.5t13 68.5h219q0 -71 -26.5 -136.5t-83.5 -115.5t-145 -80.5t-211 -30.5h-176l1 182h-102z" />
<glyph unicode="&#xf707;" d="M-1255 1440q-4 84 11.5 146.5t42 104t63.5 62t75 20.5q48 0 83.5 -20.5t53.5 -57.5q10 14 25.5 28.5t34.5 25.5t40.5 17.5t42.5 6.5q27 0 51.5 -9.5t45.5 -28t38.5 -45t25.5 -62.5q12 13 19.5 31.5t12 41t5.5 45.5q2 21 2 45h188q0 -64 -17 -122.5t-46.5 -105.5 t-69.5 -80t-91 -43h-145q0 25 -1.5 51.5t-6.5 49t-14.5 36.5t-24.5 14q-12 0 -21 -8t-14.5 -22t-9.5 -34t-4 -41h-126q0 21 -3 41t-7 34t-13 22t-21 8q-16 0 -26 -14t-15.5 -36.5t-7 -49t-3.5 -51.5h-173z" />
<glyph unicode="&#xf708;" d="M-1039 1764h173l2 151h228l-2 -151h173v-179h-171v-155h-228v155h-172z" />
<glyph unicode="&#xf709;" d="M-968 1433q0 85 31 153.5t90.5 115.5t143.5 72.5t191 25.5v-187q-113 0 -172 -43t-59 -137h-225z" />
<glyph unicode="&#xf70a;" d="M-363 1809h242l3 -382h-240z" />
<glyph unicode="&#xf70b;" d="M-823 1622v184h312v-184q60 0 106.5 15t77.5 40t47 58q15 32 15 71h221q0 -71 -30 -138t-91 -118.5t-153.5 -82t-217.5 -30.5h-180v185h-107z" />
<glyph unicode="&#xf70c;" d="M-977 1439q-4 84 11.5 146t45 103.5t68 61.5t79.5 20q49 0 87 -20.5t54 -56.5q12 15 28 28.5t36 25t42.5 17.5t43.5 6q26 0 52.5 -9t50.5 -27.5t41.5 -45.5t28.5 -63q12 13 20 32.5t12.5 41t6 45t1.5 45.5h195q0 -63 -18 -122.5t-49 -106t-72 -79.5q-42 -31 -92 -42h-151 q0 25 -3 51t-9 48t-16 37t-25 15q-12 0 -22.5 -9t-17 -22.5t-10 -32.5t-3.5 -42h-131q0 21 -3 41t-8.5 33.5t-14.5 22.5t-21 9q-18 0 -28 -15t-17 -37t-9 -49t-4 -50h-179z" />
<glyph unicode="&#xf70d;" d="M-528 1588v185h176v154h231v-154h177v-185h-177v-158h-228v158h-179z" />
<glyph unicode="&#xf70e;" d="M-514 1433q0 85 31.5 153.5t90 115.5t141.5 73q82 25 189 25l1 -187q-112 0 -171 -43q-61 -43 -61 -137h-221z" />
<glyph unicode="&#xf70f;" horiz-adv-x="1961" d="M33 847q11 50 32.5 101.5t55.5 99t80 87.5t104.5 70.5t130.5 47.5t157 17q104 0 186 -21t143 -58t102.5 -88t68 -111t38.5 -128t12 -136v-297q0 -60 17.5 -106.5t48.5 -77.5t72.5 -46.5t88.5 -15.5q45 0 85 14t71 44.5t48.5 77t17.5 110.5v812h252v-835q0 -74 -18.5 -136 t-51 -111t-77 -84.5t-97 -59t-111.5 -35.5t-119 -12q-94 0 -181.5 28.5t-154 83t-106.5 137.5t-40 189v344q0 53 -15 105.5t-49 95t-91 69t-141 26.5q-68 0 -120 -15t-88 -40t-57.5 -57.5t-30.5 -65.5q46 -32 67.5 -91.5t21.5 -133.5v-442h133v-203h-382v648q0 27 -4.5 54.5 t-16 53t-31.5 48.5q-20 25 -51 43z" />
<glyph unicode="&#xf710;" d="M-909 1433v299h230l-2 -107h799v-192h-1027z" />
<glyph unicode="&#xf711;" d="M-952 1646q0 49 18.5 91.5t50 74.5t74 51.5t93.5 19.5q47 0 90 -19.5t75.5 -51.5t51.5 -74.5t19 -91.5t-19 -92t-51.5 -75t-75.5 -51t-90 -19q-49 0 -92 19t-75 51t-50.5 75t-18.5 92zM-799 1646q0 -18 6 -33t17.5 -26.5t27.5 -19.5q14 -7 32 -7q17 0 33 7.5t27.5 19 t18.5 26.5t7 33t-7.5 32.5t-19.5 26.5t-27 19.5t-32 7.5q-18 0 -33 -7.5t-26.5 -19.5t-17.5 -26.5t-6 -32.5z" />
<glyph unicode="&#xf712;" d="M-1267 1715q0 76 25 129t68 88.5t100 52t119 16.5h564v-176h-547q-42 0 -67 -11t-37 -27.5t-15 -35.5t-3 -36q0 -9 1.5 -23t9 -27t21 -22t36.5 -9q74 0 71 104h160q-3 -54 15 -79t50 -25q21 0 33.5 7.5t19.5 20.5t7.5 32.5t-0.5 43.5h174q8 -80 -5 -135t-41.5 -89 t-70 -49.5t-88.5 -15.5q-32 0 -58.5 8t-48 23t-37 32.5t-24.5 38.5q-12 -21 -31 -38.5t-44 -32.5t-54 -23t-59 -8q-71 0 -117.5 25t-74.5 64.5t-40 86t-12 90.5z" />
<glyph unicode="&#xf713;" d="M-713 1943v363h228l3 -363h-231z" />
<glyph unicode="&#xf714;" d="M-1051 2309h312l3 -184q60 0 107 15t79 40t48 58q17 32 15 71h215q0 -71 -28.5 -137.5t-89 -118.5t-152.5 -83q-94 -31 -219 -31h-171v186h-116z" />
<glyph unicode="&#xf715;" d="M-1077 1939q-6 83 8 143.5t42.5 100.5t66.5 59q39 19 80.5 19t76.5 -20q33 -21 60 -57q22 36 61.5 56.5t83.5 20.5q58 0 103 -32.5t66 -100.5q12 15 22 34.5t17.5 42t12 48.5t4.5 50h195q0 -37 -8.5 -76.5t-25 -78t-39.5 -73t-50.5 -62.5t-58.5 -48t-63 -26h-157 q0 16 -2.5 39.5t-7.5 45t-15.5 37t-27.5 15.5q-14 0 -23 -6.5t-14 -17t-8 -25t-3 -29.5h-118q0 33 -10.5 55.5t-32.5 22.5q-18 0 -27.5 -14t-15.5 -35.5t-7 -44.5q-2 -25 -2 -43h-183z" />
<glyph unicode="&#xf716;" d="M-889 2094l1 179h176l2 151h220l2 -151h173l-2 -179h-171l1 -155h-225l-1 155h-176z" />
<glyph unicode="&#xf717;" d="M-710 1797q-2 86 28.5 153t89.5 114.5t142 73.5t188 26l2 -187q-113 0 -170.5 -43t-56.5 -137h-223z" />
<glyph unicode="&#xf718;" d="M-456 -506h344l-3 -465h-234l3 274h-108z" />
<glyph unicode="&#xf719;" d="M-901 -506h345v-169q0 -59 25 -90t78 -31q50 0 77 30q27 32 27 91v169h234v-169q0 -65 -18 -122.5t-58 -100.5t-104.5 -68.5t-157.5 -25.5q-87 0 -150 21.5t-104.5 60t-61.5 92.5q-18 54 -21 121h-110z" />
<glyph unicode="&#xf71a;" d="M-423 -648q0 35 14 65.5t37 53.5t54 36t66 13q34 0 64.5 -13t53 -36t35.5 -53.5t13 -65.5q0 -34 -13 -64.5t-36 -53.5t-53.5 -36t-66 -13t-65 13t-53.5 36t-37 53.5t-13 64.5z" />
<glyph unicode="&#xf71d;" horiz-adv-x="1645" d="M30 1243h278l152 -913l210 718h258l220 -721q12 62 24 120.5t23 116.5t22 115.5t23 116.5q11 46 13 78t2 60q0 32 -7.5 56.5t-25 41.5t-47 26t-71.5 9l2 176q59 3 106 15t82 35t55.5 59t26.5 88h285q-9 -65 -30 -116t-51 -88t-69.5 -61t-83.5 -35q32 -29 51.5 -65t27 -76 t4.5 -84q0 -43 -12 -88l-204 -827h-276l-225 713l-211 -713h-276z" />
<glyph d="M-995 1433q0 59 12 113t39.5 97.5t69.5 76t101 47.5q11 43 37 79.5t68.5 63t103.5 40.5t144 14l1 -191q-50 0 -82 -7.5t-49.5 -23.5t-23.5 -38.5t-6 -51.5v-51h-59q-40 0 -66 -11.5t-41 -34t-20 -53.5t-5 -69h-224z" />
<glyph horiz-adv-x="1058" d="M-953 1646q0 49 18.5 91.5t50.5 74.5t74.5 51.5t91.5 19.5q48 0 91.5 -19.5t76 -51.5t51.5 -74.5t19 -91.5t-19 -92t-51.5 -75t-75.5 -51t-90 -19q-49 0 -92.5 19t-75 51t-50.5 75t-19 92zM-801 1646q0 -18 7 -33t18.5 -26.5t26.5 -19t33 -7.5q17 0 32 7.5t27 19 t19.5 26.5t7.5 33t-7.5 32.5t-19.5 26.5t-27 19.5t-32 7.5q-18 0 -33 -7.5t-26.5 -19.5t-18.5 -26.5t-7 -32.5zM33 833q0 71 17.5 130.5t48.5 107.5t75 85t95 61.5t107 37t115 12.5q97 0 179 -26.5t142.5 -80t94.5 -135t34 -192.5v-833h-248v790q0 134 -52 196t-150 62 q-85 0 -138.5 -53.5t-59.5 -161.5h-260z" />
<glyph horiz-adv-x="1058" d="M-953 1646q0 49 18.5 91.5t50.5 74.5t74.5 51.5t91.5 19.5q48 0 91.5 -19.5t76 -51.5t51.5 -74.5t19 -91.5t-19 -92t-51.5 -75t-75.5 -51t-90 -19q-49 0 -92.5 19t-75 51t-50.5 75t-19 92zM-801 1646q0 -18 7 -33t18.5 -26.5t26.5 -19t33 -7.5q17 0 32 7.5t27 19 t19.5 26.5t7.5 33t-7.5 32.5t-19.5 26.5t-27 19.5t-32 7.5q-18 0 -33 -7.5t-26.5 -19.5t-18.5 -26.5t-7 -32.5zM33 833q0 71 17.5 130.5t48.5 107.5t75 85t95 61.5t107 37t115 12.5q97 0 179 -26.5t142.5 -80t94.5 -135t34 -192.5v-833h-248v790q0 134 -52 196t-150 62 q-85 0 -138.5 -53.5t-59.5 -161.5h-260z" />
<glyph d="M-1018 1430l100 198h803v-198h-903z" />
<glyph d="M-1018 1430l100 198h569l-3 175h235l2 -373h-903z" />
<glyph d="M-1018 1430l100 198h397l-1 21q0 44 17 84t45.5 69.5t68 47.5t84 18t84 -18t70 -47.5t47.5 -69.5t17 -84q0 -46 -16 -85.5t-46 -69t-69 -47t-83 -17.5h-715zM-383 1649q0 -15 6.5 -30t17 -24.5t24.5 -15.5t28.5 -6t29.5 6t25.5 15.5t17 24.5t6.5 30q0 35 -23.5 57.5 t-54.5 22.5q-15 0 -30 -6t-25 -17t-16 -25.5t-6 -31.5z" />
<glyph d="M-1018 1430l100 198h246l-3 175h225l2 -175h108v175h223l2 -373h-903z" />
<glyph d="M-1601 1430l97 198h1073v-198h-1170z" />
<glyph d="M-1601 1430l97 198h838l-3 175h237l1 -373h-1170z" />
<glyph d="M-1601 1430l100 198h663v21q0 44 17 84t46 69.5t69 47.5t84.5 18t85 -18t69.5 -47.5t46 -69.5q15 -40 15 -84q0 -46 -15.5 -85.5t-44 -69t-68.5 -47t-85 -17.5h-982zM-699 1649q0 -33 23 -54.5t57 -21.5q33 0 53.5 21.5t20.5 54.5q0 35 -20.5 57.5t-53.5 22.5 q-17 0 -32 -6t-25.5 -17t-16.5 -25.5t-6 -31.5z" />
<glyph d="M-1601 1430l100 198h509v175h224l1 -175h113l-3 175h225l1 -373h-1170z" />
<glyph d="M-663 2306h228l3 -363h-230z" />
<glyph d="M-1021 2309h312l3 -184q59 0 105.5 15t78.5 40t48 58q17 32 17 71h214q0 -71 -29.5 -137.5t-90 -118.5t-152.5 -83t-216 -31h-172v186h-115z" />
<glyph d="M-1018 1939q-6 83 8.5 143.5t43 100.5t67 59t80 19t77 -20.5t60.5 -56.5q22 36 61 57q38 20 82 20q58 0 104 -32.5t65 -100.5q12 15 22.5 34.5t17.5 42t11.5 48.5t4.5 50h197q0 -37 -9 -76.5t-26 -78t-39 -73t-50 -62.5t-59 -48q-32 -20 -64 -26h-157q0 16 -1.5 39.5 t-6.5 45t-16 37.5q-11 15 -29 15q-14 0 -22 -6.5t-14 -17t-9 -25t-3 -29.5h-118q0 33 -10.5 55.5t-30.5 22.5q-18 0 -28.5 -14t-15.5 -35.5t-7 -44.5q-1 -25 -1 -43h-185z" />
<glyph d="M-835 2094v179h176l2 151h220l-1 -151h178l-3 -179h-175l4 -155h-223l-3 155h-175z" />
<glyph d="M-1527 1430l100 198h1312v-198h-1412z" />
<glyph d="M-1527 1430l100 198h1078l-3 175h235l2 -373h-1412z" />
<glyph d="M-1527 1430l100 198h906l-1 21q0 44 17 84t45.5 69.5t68 47.5t84 18t84 -18t70 -47.5t47.5 -69.5t17 -84q0 -46 -16 -85.5t-46 -69t-69 -47t-83 -17.5h-1224zM-383 1649q0 -15 6.5 -30t17 -24.5t24.5 -15.5t28.5 -6t29.5 6t25.5 15.5t17 24.5t6.5 30q0 35 -23.5 57.5 t-54.5 22.5q-15 0 -30 -6t-25 -17t-16 -25.5t-6 -31.5z" />
<glyph d="M-1527 1430l100 198h755l-3 175h225l2 -175h108v175h223l2 -373h-1412z" />
<glyph d="M-349 1791v364h231l-2 -364h-229z" />
<glyph d="M-690 1973l2 185h309v-185q59 1 106.5 16t80 40t50.5 57.5t18 71.5h213q0 -71 -29.5 -137.5t-91 -118.5t-153.5 -83t-216 -31h-173v185h-116z" />
<glyph d="M-823 1788q-6 83 9 143.5t43 100.5t66.5 59t80 19t77 -20.5t62.5 -55.5q22 35 61 55.5t82 20.5q58 0 104 -32.5t63 -100.5q12 15 22.5 34.5t18 42t12 48.5t5.5 50h197q0 -37 -9 -76.5t-26 -77.5t-40 -73t-50.5 -63t-58.5 -48t-63 -26h-159q0 16 -1.5 39.5t-5.5 45 t-14.5 37t-29.5 15.5q-14 0 -22.5 -6.5t-14.5 -17t-8.5 -25t-2.5 -29.5h-118q0 33 -11 55.5t-32 22.5q-18 0 -27.5 -14t-14.5 -35.5t-7 -44.5q-1 -25 -1 -43h-187z" />
<glyph d="M-521 2122h173l2 151h225l-3 -151h176l1 -179h-174v-155h-225v155h-172z" />
<glyph d="M-744 1822l1 362h231l-3 -362h-229z" />
<glyph d="M-1080 2004v183h312v-183q59 1 107 15.5t80.5 39.5t49.5 58q17 32 17 70h212q0 -71 -29.5 -137.5t-90 -118t-153.5 -82.5q-94 -30 -218 -30h-172v185h-115z" />
<glyph d="M-1141 1819q-6 83 8 143t43 100t66.5 59t80.5 19q42 0 76.5 -20.5t61.5 -54.5q22 35 61.5 55t83.5 20q58 0 103 -32.5t64 -100.5q12 15 22.5 34t18 43t11.5 49q6 25 6 50h195q0 -37 -9 -77t-25 -77.5t-39.5 -72.5t-50.5 -63t-58 -47.5t-63 -26.5h-159q0 16 -2 40 t-6.5 44.5t-15 37t-28.5 16.5q-13 0 -22.5 -7t-15 -18t-7.5 -25q-2 -16 -2 -30h-118q0 32 -11 56q-13 24 -34 24q-18 0 -26.5 -15t-14.5 -35.5t-7.5 -44.5t-1.5 -43h-185z" />
<glyph d="M-921 2152h175l3 151h224l-2 -151h172l3 -179h-172l-1 -154h-224v154h-176z" />
<glyph d="M-704 -334l2 192h342l-1 -465h-234v273h-109z" />
<glyph d="M-983 -334l2 192h345v-170q-2 -59 23 -91q24 -31 77 -31q51 0 77.5 31.5t27.5 90.5l2 170h234l-2 -170q-1 -65 -19 -122t-57 -100t-103 -68.5t-157 -25.5q-89 0 -151 21t-103.5 60t-62 93t-25.5 120h-108z" />
<glyph d="M-699 -272q0 35 13.5 65.5t36.5 53.5t53.5 36t65.5 13q34 0 64.5 -13t53.5 -36t36 -53.5t13 -65.5q0 -34 -12.5 -64.5t-34.5 -53.5t-53 -36.5t-64 -13.5q-35 0 -66.5 13.5t-55 36.5t-37 53.5t-13.5 64.5z" />
<glyph d="M-675 -334l3 192h343l-3 -465h-233v273h-110z" />
<glyph d="M-1135 -334l1 192h347v-170q-2 -59 22.5 -90.5t77.5 -31.5q51 0 77.5 31.5t26.5 90.5l3 170h232l-1 -170q0 -65 -18 -122t-57 -100t-103.5 -68.5t-156.5 -25.5q-87 0 -150 21t-104.5 60t-62.5 93q-23 54 -26 120h-108z" />
<glyph d="M-651 -272q0 35 13 65.5t37 53.5t54 36t66 13q34 0 65 -13t53.5 -36t35.5 -53.5t13 -65.5q0 -34 -13 -64.5t-35.5 -53.5t-52 -36.5t-65 -13.5t-66.5 13.5t-54 36.5t-37 53.5t-14 64.5z" />
<glyph d="M-941 1433v299h231l-2 -107h952v-192h-1181z" />
<glyph d="M-725 1943v363h229l2 -363h-231z" />
<glyph d="M-1042 2309h311l3 -184q59 0 106.5 15t80 40t48.5 58q16 32 13 71h217q0 -71 -29 -137.5t-90 -118.5t-153.5 -83t-216.5 -31h-172v186h-115z" />
<glyph d="M-986 1939q-6 83 9 143.5t43 100.5t66.5 59t80 19t77 -20.5t62.5 -56.5q22 36 61 56.5t82 20.5q58 0 104 -32.5t64 -100.5q11 15 21.5 34.5t18 42t12 48.5t5.5 50h197q0 -37 -9 -76.5t-26 -78t-40 -73t-50 -62.5t-58 -48t-64 -26h-158q0 16 -1.5 39.5t-6 45t-15 37 t-29.5 15.5q-14 0 -22.5 -6.5t-14.5 -17t-8.5 -25t-2.5 -29.5h-118q0 33 -11 55.5t-32 22.5q-18 0 -27.5 -14t-14.5 -35.5t-7 -44.5q-1 -25 -1 -43h-187z" />
<glyph d="M-900 2094l3 179h175v151h222l3 -151h171v-179h-174l3 -155h-225l-2 155h-176z" />
<glyph d="M-693 -334l3 192h341v-465h-234v273h-110z" />
<glyph d="M-989 -334l3 192h347l-2 -170q0 -59 24.5 -90.5t77.5 -31.5q51 0 77.5 31.5t26.5 90.5l1 170h233v-170q0 -65 -18 -122t-58 -100t-103.5 -68.5t-155.5 -25.5q-89 0 -151.5 21t-103.5 60t-62 93q-23 54 -26 120h-110z" />
<glyph d="M-682 -272q0 35 13 65.5t36 53.5t54 36t67 13q34 0 64.5 -13t52.5 -36t35.5 -53.5t13.5 -65.5q0 -34 -12.5 -64.5t-35 -53.5t-53 -36.5t-64.5 -13.5q-35 0 -66 13.5t-54 36.5t-37 53.5t-14 64.5z" />
</font>
</defs>
</svg>
