<?xml version="1.0" standalone="no"?>
<!DOCTYPE svg PUBLIC "-//W3C//DTD SVG 1.1//EN" "http://www.w3.org/Graphics/SVG/1.1/DTD/svg11.dtd" >
<svg xmlns="http://www.w3.org/2000/svg" xmlns:xlink="http://www.w3.org/1999/xlink" version="1.1">
<metadata></metadata>
<defs>
<font id="db_heaventcond" horiz-adv-x="0" >
<font-face units-per-em="2048" ascent="1638" descent="-410" />
<missing-glyph horiz-adv-x="508" />
<glyph unicode="&#x2b;&#x2d;" horiz-adv-x="1016" d="M89 0v133h842v-133h-842zM89 541v135h350v303h142v-303h350v-135h-350v-310h-142v310h-350z" />
<glyph unicode="&#x2e;&#x2e;&#x2e;" horiz-adv-x="2037" d="M247 0v190h187v-190h-187zM926 0v190h187v-190h-187zM1605 0v190h183v-190h-183z" />
<glyph unicode="&#x3c;&#x3d;" horiz-adv-x="1032" d="M86 0v142h851v-142h-851zM86 701v122l851 415v-140l-695 -335l695 -339v-142z" />
<glyph unicode="&#x3e;&#x3d;" horiz-adv-x="1038" d="M86 0h851v142h-851v-142zM86 282v142l691 339l-691 335v140l851 -415v-122z" />
<glyph unicode="&#xe4f;&#x22;" horiz-adv-x="1412" d="M92 612q0 84 21.5 162.5t61 147t95 124t123.5 95t147 61t163 21.5q85 0 163.5 -21.5t146 -61t124 -95t95 -124t61 -146t22.5 -163.5q0 -85 -22.5 -163t-61 -146t-95 -124.5t-124 -95.5t-146 -61t-163.5 -22q-84 0 -163 22t-147 61t-123.5 95.5t-95 124.5t-61 146 t-21.5 163zM247 614q0 -62 17 -120t46 -108.5t71 -92t92.5 -71.5t109 -47t120.5 -17q63 0 120.5 17t109 47t92.5 71.5t71 92t46.5 109t16.5 119.5q0 63 -16.5 121.5t-46.5 109t-71 92.5t-92.5 71t-109 45.5t-120.5 16.5q-62 0 -120.5 -16.5t-109 -45.5t-92.5 -71t-71 -92.5 t-46 -109t-17 -121.5zM381 614q0 67 25.5 125.5t69.5 103t102.5 69.5t124.5 25q67 0 125.5 -25t102 -69.5t69.5 -103t26 -125.5q0 -66 -26 -124.5t-69.5 -101.5t-102 -69t-125.5 -26q-66 0 -124.5 26t-102.5 69t-69.5 101.5t-25.5 124.5zM478 1690h168l-20 -321h-128z M517 614q0 -39 15.5 -72t40.5 -58t58 -39.5t72 -14.5t72.5 14.5t58.5 39.5t39.5 58t14.5 72t-14.5 72.5t-39.5 58.5t-58.5 40.5t-72.5 15.5t-72 -15.5t-58 -40.5t-40.5 -58.5t-15.5 -72.5zM771 1690h169l-20 -321h-128z" />
<glyph unicode="&#xe0e;&#xe3a;" horiz-adv-x="1118" d="M33 0v136h117v704q0 25 -4 48.5t-14 41.5t-23.5 30.5t-30.5 18.5q33 68 83 118.5t112.5 82.5t136.5 48t152 16q52 0 105 -9t101 -26.5t89.5 -44.5t73 -61.5t49 -79t17.5 -97.5v-1296h-166q-14 21 -36 41t-52.5 35.5t-71 25t-90.5 9.5q-47 0 -87.5 -11t-74 -29t-60.5 -42 q-25 -23 -45 -45v147q18 17 45 35t62 33t75.5 26.5t84.5 11.5q50 0 91.5 -9.5t73 -21t53 -25.5t32.5 -22v1096q0 53 -19.5 94t-55 70.5t-85.5 44.5q-48 15 -109 15q-53 0 -100.5 -9.5t-86.5 -26.5t-67 -40q-30 -24 -44 -54q8 -9 17.5 -24t16 -35.5t11.5 -43.5t5 -45v-831 h-281zM795 -609q0 25 8.5 46t22.5 36t34 25t42 10q25 0 46.5 -10t37 -25t24.5 -36t9 -46q0 -22 -9 -42t-24.5 -35t-37 -23t-46.5 -8q-22 0 -42 8t-34 23t-22.5 35t-8.5 42z" />
<glyph unicode="&#xe0f;&#xe3a;" horiz-adv-x="1118" d="M33 0v136h117v704q0 25 -4 48.5t-14 41.5t-23.5 30.5t-30.5 18.5q33 68 83 118.5t112.5 82.5t136.5 48t152 16q52 0 105 -9t101 -26.5t89.5 -44.5t73 -61.5t49 -79t17.5 -97.5v-1296h-166q-4 17 -13 36.5t-25 36t-37.5 27.5t-52.5 11q-30 0 -51.5 -11t-36.5 -27 t-21.5 -35.5t-6.5 -37.5h-131q0 13 -5.5 33t-18 38t-34 32t-53.5 14q-28 0 -47.5 -11t-30.5 -28t-16.5 -37.5t-5.5 -40.5h-153q0 63 19.5 109.5t51.5 76.5t75 44q46 15 93 15q64 0 109.5 -29t71.5 -82q12 26 32 45.5t42.5 32t46 19t45.5 6.5q28 0 51.5 -7t43 -17t34 -22.5 t24.5 -26.5v1091q0 53 -19.5 94t-55 70.5t-85.5 44.5q-48 15 -109 15q-53 0 -100.5 -9.5t-86.5 -26.5t-67 -40q-30 -24 -44 -54q8 -9 17.5 -24t16 -35.5t11.5 -43.5t5 -45v-831h-281zM795 -609q0 25 8.5 46t22.5 36t34 25t42 10q25 0 46.5 -10t37 -25t24.5 -36t9 -46 q0 -22 -9 -42t-24.5 -35t-37 -23t-46.5 -8q-22 0 -42 8t-34 23t-22.5 35t-8.5 42z" />
<glyph unicode="&#xe0e;&#xe38;" horiz-adv-x="1118" d="M33 0v136h117v704q0 25 -4 48.5t-14 41.5t-23.5 30.5t-30.5 18.5q33 68 83 118.5t112.5 82.5t136.5 48t152 16q52 0 105 -9t101 -26.5t89.5 -44.5t73 -61.5t49 -79t17.5 -97.5v-1296h-166q-14 21 -36 41t-52.5 35.5t-71 25t-90.5 9.5q-47 0 -87.5 -11t-74 -29t-60.5 -42 q-25 -23 -45 -45v147q18 17 45 35t62 33t75.5 26.5t84.5 11.5q50 0 91.5 -9.5t73 -21t53 -25.5t32.5 -22v1096q0 53 -19.5 94t-55 70.5t-85.5 44.5q-48 15 -109 15q-53 0 -100.5 -9.5t-86.5 -26.5t-67 -40q-30 -24 -44 -54q8 -9 17.5 -24t16 -35.5t11.5 -43.5t5 -45v-831 h-281zM751 -509h246v-445h-155v316h-91v129z" />
<glyph unicode="&#xe0f;&#xe38;" horiz-adv-x="1118" d="M33 0v136h117v704q0 25 -4 48.5t-14 41.5t-23.5 30.5t-30.5 18.5q33 68 83 118.5t112.5 82.5t136.5 48t152 16q52 0 105 -9t101 -26.5t89.5 -44.5t73 -61.5t49 -79t17.5 -97.5v-1296h-166q-4 17 -13 36.5t-25 36t-37.5 27.5t-52.5 11q-30 0 -51.5 -11t-36.5 -27 t-21.5 -35.5t-6.5 -37.5h-131q0 13 -5.5 33t-18 38t-34 32t-53.5 14q-28 0 -47.5 -11t-30.5 -28t-16.5 -37.5t-5.5 -40.5h-153q0 63 19.5 109.5t51.5 76.5t75 44q46 15 93 15q64 0 109.5 -29t71.5 -82q12 26 32 45.5t42.5 32t46 19t45.5 6.5q28 0 51.5 -7t43 -17t34 -22.5 t24.5 -26.5v1091q0 53 -19.5 94t-55 70.5t-85.5 44.5q-48 15 -109 15q-53 0 -100.5 -9.5t-86.5 -26.5t-67 -40q-30 -24 -44 -54q8 -9 17.5 -24t16 -35.5t11.5 -43.5t5 -45v-831h-281zM751 -509h246v-445h-155v316h-91v129z" />
<glyph unicode="&#xe0e;&#xe39;" horiz-adv-x="1118" d="M33 0v136h117v704q0 25 -4 48.5t-14 41.5t-23.5 30.5t-30.5 18.5q33 68 83 118.5t112.5 82.5t136.5 48t152 16q52 0 105 -9t101 -26.5t89.5 -44.5t73 -61.5t49 -79t17.5 -97.5v-1296h-166q-14 21 -36 41t-52.5 35.5t-71 25t-90.5 9.5q-47 0 -87.5 -11t-74 -29t-60.5 -42 q-25 -23 -45 -45v147q18 17 45 35t62 33t75.5 26.5t84.5 11.5q50 0 91.5 -9.5t73 -21t53 -25.5t32.5 -22v1096q0 53 -19.5 94t-55 70.5t-85.5 44.5q-48 15 -109 15q-53 0 -100.5 -9.5t-86.5 -26.5t-67 -40q-30 -24 -44 -54q8 -9 17.5 -24t16 -35.5t11.5 -43.5t5 -45v-831 h-281zM392 -509v-129h92v-76q0 -50 14 -94.5t44.5 -78t79 -53t117.5 -19.5q70 0 119.5 19.5t79 53t43.5 78t16 94.5v205h-155v-205q0 -120 -103 -120q-102 0 -101 120v205h-246z" />
<glyph unicode="&#xe0f;&#xe39;" horiz-adv-x="1118" d="M33 0v136h117v704q0 25 -4 48.5t-14 41.5t-23.5 30.5t-30.5 18.5q33 68 83 118.5t112.5 82.5t136.5 48t152 16q52 0 105 -9t101 -26.5t89.5 -44.5t73 -61.5t49 -79t17.5 -97.5v-1296h-166q-4 17 -13 36.5t-25 36t-37.5 27.5t-52.5 11q-30 0 -51.5 -11t-36.5 -27 t-21.5 -35.5t-6.5 -37.5h-131q0 13 -5.5 33t-18 38t-34 32t-53.5 14q-28 0 -47.5 -11t-30.5 -28t-16.5 -37.5t-5.5 -40.5h-153q0 63 19.5 109.5t51.5 76.5t75 44q46 15 93 15q64 0 109.5 -29t71.5 -82q12 26 32 45.5t42.5 32t46 19t45.5 6.5q28 0 51.5 -7t43 -17t34 -22.5 t24.5 -26.5v1091q0 53 -19.5 94t-55 70.5t-85.5 44.5q-48 15 -109 15q-53 0 -100.5 -9.5t-86.5 -26.5t-67 -40q-30 -24 -44 -54q8 -9 17.5 -24t16 -35.5t11.5 -43.5t5 -45v-831h-281zM392 -509v-129h92v-76q0 -50 14 -94.5t44.5 -78t79 -53t117.5 -19.5q70 0 119.5 19.5 t79 53t43.5 78t16 94.5v205h-155v-205q0 -120 -103 -120q-102 0 -101 120v205h-246z" />
<glyph unicode=" "  horiz-adv-x="508" />
<glyph unicode="&#x09;" horiz-adv-x="508" />
<glyph unicode="&#xa0;" horiz-adv-x="508" />
<glyph unicode="!" horiz-adv-x="679" d="M247 0v186h187v-186h-187zM247 983v438h187v-438l-50 -638h-91z" />
<glyph unicode="&#x22;" horiz-adv-x="508" d="M89 981v440h108v-440h-108zM317 981v440h107v-440h-107z" />
<glyph unicode="#" horiz-adv-x="1135" d="M89 467l36 120h209l68 216h-212l41 120h208q39 114 76.5 233.5t76.5 233.5h122l-152 -467h158l147 467h123l-150 -467h214l-38 -120h-218l-64 -216h211l-33 -120h-220l-149 -467h-122l149 467h-154q-39 -114 -77.5 -233.5t-77.5 -233.5h-119l151 467h-204zM456 587h156 l69 216h-157z" />
<glyph unicode="$" horiz-adv-x="1016" d="M74 450h162q0 -40 1 -79.5t7 -74.5t18.5 -65.5t36 -54t60.5 -36.5q36 -12 89 -15v541q-70 28 -136 60.5t-116 78.5t-80 107t-30 147q0 75 25 140.5t72.5 114t114 79t150.5 36.5v201h114v-201q89 -6 153.5 -33.5t107 -76.5t62 -115.5t17.5 -149.5h-163q3 44 -4.5 86 t-28.5 75t-56.5 53.5t-87.5 21.5v-494q64 -26 116.5 -49.5t95.5 -48.5t75 -54.5t54.5 -67t33.5 -86t11 -112.5q0 -86 -24.5 -157t-73 -124t-121.5 -83.5t-167 -34.5v-199h-114v202q-112 5 -187.5 41.5t-119.5 98t-59 145t-8 183.5zM261 1076q0 -47 14 -83.5t39 -64 t58.5 -48.5t75.5 -39v446q-37 -4 -70 -16.5t-59 -37t-42 -63.5t-16 -94zM562 125q58 0 97 16.5t64 47.5t36.5 73t11.5 94q0 58 -13 97t-40 68t-66.5 51.5t-89.5 41.5v-489z" />
<glyph unicode="%" horiz-adv-x="1611" d="M114 1084q0 67 13 129.5t44.5 110t85.5 76t135 28.5q53 0 93 -14t71 -38.5t50.5 -58t32 -72t18 -82t5.5 -87.5q0 -97 -18 -165.5t-53 -110t-86.5 -59.5t-118 -18t-117.5 18.5t-85 61t-52 112t-18 169.5zM270 1054q0 -31 3.5 -67t15 -66.5t35.5 -51.5t65 -21q39 0 62.5 21 t36 51.5t15.5 66.5t3 67v48.5t-3.5 53.5t-11 52.5t-21.5 46.5t-35 33t-51 12q-28 0 -47.5 -12t-32 -33t-19.5 -46.5t-10 -52.5t-4 -54q-1 -26 -1 -48zM423 0l629 1421h128l-621 -1421h-136zM948 360q0 67 13 128.5t44.5 107.5t83.5 74q54 28 131 28q56 0 97.5 -14t73 -37.5 t51.5 -56.5t32.5 -71t18 -80.5t5.5 -84.5q0 -101 -21.5 -170.5t-58 -111t-87.5 -60.5t-109 -19q-56 0 -105 19t-87 62t-60 114t-22 172zM1101 322q0 -29 4 -64.5t17.5 -65t37.5 -50t65 -20.5q39 0 61.5 20.5t35 50t16 65t3.5 64.5q0 23 -0.5 50.5t-3.5 55t-10.5 53t-20.5 45 t-34 32t-50 12.5q-31 0 -51 -12.5t-34 -32t-21 -45t-9.5 -53t-4 -55t-1.5 -50.5z" />
<glyph unicode="&#x26;" horiz-adv-x="1358" d="M145 395q0 83 25 144t68 110t102 88.5t127 79.5q-31 39 -57 74t-45.5 71t-31 77t-11.5 91q0 58 20.5 113t60 96t96.5 65.5t129 24.5q64 0 119 -19.5t96 -57t64.5 -90.5t23.5 -118q0 -58 -23.5 -109t-59.5 -95.5t-83.5 -80.5t-94.5 -67l295 -389q27 67 41 133.5t23 130.5 h150q-4 -50 -12 -101.5t-22 -101.5t-32 -98q-19 -49 -45 -94l219 -272h-206l-116 139q-70 -83 -161.5 -123.5t-203.5 -40.5q-102 0 -187 29t-144 84t-91.5 132t-32.5 175zM322 392q0 -61 22.5 -112t61.5 -86.5t94.5 -54t119.5 -18.5q39 0 75 10.5t68 28.5t61 41.5t53 51.5 l-336 457q-50 -33 -90 -65t-69 -69t-44.5 -81.5t-15.5 -102.5zM478 1150q0 -37 11 -70t28 -63.5t37.5 -60t40.5 -57.5q33 25 64.5 49.5t55 52.5t37.5 62.5t14 80.5q0 31 -9 58.5t-28 50t-46 35.5t-60 13q-35 0 -62 -12.5t-45 -34t-28 -48.5t-10 -56z" />
<glyph unicode="'" horiz-adv-x="508" d="M203 981v440h104v-440h-104z" />
<glyph unicode="(" horiz-adv-x="679" d="M153 503q0 95 9.5 181t27 164t44.5 152t62 147t78 148.5t96 155.5h108q-22 -44 -50 -95.5t-56.5 -114t-54.5 -135.5t-46.5 -161.5t-33 -192.5t-12.5 -228q0 -133 14 -252t46 -233t81.5 -226.5t120.5 -228.5h-117q-68 106 -126 215t-101 223t-66 234q-24 119 -24 247z" />
<glyph unicode=")" horiz-adv-x="679" d="M89 1451h119q70 -107 127.5 -216t100 -223t65.5 -234.5t23 -247.5q0 -95 -9 -180t-26.5 -163.5t-44 -152t-61.5 -147t-78.5 -148.5t-96.5 -155h-105q22 45 50 96.5t55.5 113t54 135.5t46 162t32 193t12.5 228q0 132 -14 252t-46 234.5t-82 226.5t-122 226z" />
<glyph unicode="*" horiz-adv-x="1016" d="M197 1209l34 89l230 -89v242h106v-236l228 83l31 -94l-231 -77l153 -182l-85 -65l-157 190l-145 -179l-91 54l154 177z" />
<glyph unicode="+" horiz-adv-x="1016" d="M89 424v135h350v350h142v-350h350v-135h-350v-359h-142v359h-350z" />
<glyph unicode="," horiz-adv-x="508" d="M165 0v190h183v-190q0 -56 -8.5 -102.5t-30 -83t-57 -61t-87.5 -35.5v87q37 12 55.5 32.5t27.5 48.5t11 58t2 56h-96z" />
<glyph unicode="-" horiz-adv-x="706" d="M92 424v135h522v-135h-522z" />
<glyph unicode="." horiz-adv-x="508" d="M165 0v190h183v-190h-183z" />
<glyph unicode="/" horiz-adv-x="565" d="M-25 -51l492 1502h128l-498 -1502h-122z" />
<glyph unicode="0" horiz-adv-x="967" d="M78 703v108.5t4 119.5t14.5 123t29.5 118.5t48 105.5t72 84.5t101.5 56.5t136.5 21t136 -21t101 -56.5t72.5 -84.5t47.5 -105.5t27.5 -118.5t14 -123t5 -119.5t0.5 -108.5q0 -80 -3.5 -165t-16 -165.5t-37.5 -151.5t-70 -125t-112.5 -85.5t-164.5 -31.5q-98 0 -165 31.5 t-112.5 85.5t-72 125t-39 151.5t-15 165.5t-2.5 165zM247 728q0 -66 1.5 -136.5t8 -136.5t21 -125.5t41 -103.5t66.5 -69.5t99 -25.5q58 0 98.5 25.5t67 69.5t40 103.5t19 125.5t7 136.5t1.5 136.5q0 62 -1.5 127t-8 127.5t-20.5 118t-40.5 98t-65.5 67.5q-39 27 -97 27 q-46 0 -80 -16t-60 -44t-43 -66t-27 -82t-15.5 -91t-8.5 -94t-3 -91.5v-80.5z" />
<glyph unicode="1" horiz-adv-x="964" d="M136 1024v134q78 0 139 14.5t104.5 45t69.5 80.5t35 123h133v-1421h-167v1086q-43 -30 -123 -46t-191 -16z" />
<glyph unicode="2" horiz-adv-x="964" d="M74 0q0 61 7.5 119t27 113.5t53 110.5t85.5 110l291 263q39 36 67.5 71.5t46.5 74.5t28 84q9 46 9 102q0 53 -12.5 96.5t-38 76.5t-67 51t-101.5 18q-49 0 -84.5 -15.5t-59 -40.5t-39 -58t-22 -70.5t-8 -78t-1.5 -76.5h-170v90q0 86 27 159t78 127.5t123 85t161 30.5 q96 0 169 -29.5t122 -82t72.5 -126.5t23.5 -164q0 -78 -15.5 -141t-46 -118.5t-74.5 -105.5q-45 -50 -100 -98l-259 -222q-50 -39 -80.5 -90.5t-36.5 -116.5h627v-149h-803z" />
<glyph unicode="3" horiz-adv-x="964" d="M63 439h168q-3 -37 0 -74t12.5 -70.5t27.5 -62t46 -48.5t65.5 -32.5t87.5 -12.5q61 0 105.5 18t73.5 50.5t43 78t14 98.5q0 90 -21 147.5t-64 89.5t-111 43.5t-160 11.5v150h45q30 1 62 4t62.5 10.5t57 21.5t46 40.5t31.5 65t12 97.5q0 48 -10.5 89t-34 72t-62.5 47.5 t-98 16.5q-66 0 -107 -23t-64 -61t-31.5 -87t-8.5 -100h-161q-4 89 16 166t66.5 134t119.5 90.5t173 33.5q86 0 154.5 -25t117 -71.5t75 -112.5t26.5 -148q0 -56 -8.5 -105.5t-30.5 -90.5t-57 -72t-89 -54q61 -15 103.5 -46t69.5 -74.5t39.5 -96t12.5 -111.5 q0 -100 -24.5 -183t-74.5 -143.5t-129 -94t-190 -33.5t-189 34.5t-124 96t-65.5 145.5t-17.5 181z" />
<glyph unicode="4" horiz-adv-x="964" d="M58 353v153l559 915h150v-915h134v-153h-134v-353h-169v353h-540zM221 500h377v522q0 5 -1 14t0 20.5t2 25t1 27.5q3 34 9 70q-11 -34 -22 -66q-10 -26 -22 -54t-26 -47z" />
<glyph unicode="5" horiz-adv-x="964" d="M74 389h173q-1 -55 10 -101t37 -79.5t67.5 -53t102.5 -19.5q63 0 109 29.5t75.5 76.5t43.5 108t14 125q0 39 -5 79.5t-16 78t-29.5 69.5t-46 55.5t-64.5 37.5q-36 14 -86 14q-75 0 -127 -31q-51 -30 -85 -97h-150l85 740h641v-153h-498q-16 -124 -27.5 -201t-19.5 -119 q-8 -50 -14 -75q25 22 51.5 39t53.5 26.5t58 14.5q29 5 65 5q102 0 174.5 -38.5t120 -102.5t69.5 -146q21 -84 21 -171q0 -62 -9 -124.5t-30 -120.5t-53 -108t-77 -86t-105.5 -57.5t-135.5 -21.5q-97 0 -173 28.5t-126.5 81.5t-74.5 128q-23 75 -19 169z" />
<glyph unicode="6" horiz-adv-x="964" d="M78 645v134t5.5 137t16.5 132.5t30.5 122.5t50 106.5t76.5 84.5t106 56q60 19 140 19q159 0 249 -86t110 -260h-175q-6 54 -23.5 91.5t-43.5 60t-61.5 33t-77.5 10.5q-58 0 -98.5 -24.5t-67 -66t-40.5 -94.5t-21 -111.5t-7 -116.5v-109q23 42 52.5 71.5t64 48t72.5 26.5 q37 9 76 9q97 0 170.5 -37t121 -98t70.5 -140.5t23 -165.5q0 -114 -30 -205.5t-83 -156.5t-125 -99.5t-159 -34.5q-98 0 -167.5 28.5t-117 78.5t-74.5 116t-41.5 139.5t-18 151t-3.5 149.5zM259 484q-5 -98 12 -164t49.5 -106t78.5 -57.5t99 -17.5q44 0 79 15.5t60 40.5 t41 57t25 68.5t13 74t4 72.5q0 57 -11 110.5t-37.5 95t-71 66.5t-114 25t-114 -25.5t-69.5 -66.5t-34.5 -91t-9.5 -97z" />
<glyph unicode="7" horiz-adv-x="964" d="M74 1268v153h820v-141q-103 -137 -187 -291.5t-145.5 -317t-100 -332t-54.5 -339.5h-190q22 170 64.5 338t105.5 329t148 312.5t188 288.5h-649z" />
<glyph unicode="8" horiz-adv-x="964" d="M83 414q0 84 24 145t60.5 103.5t83 68t91.5 33.5q-60 14 -101 44t-66 71t-36 92.5t-11 111.5q0 42 8.5 85.5t27 84t47.5 75t70 60.5t96 40q54 15 123 15q78 0 142 -23.5t108.5 -69.5t68.5 -115q23 -70 23 -159q0 -52 -11 -100.5t-35.5 -89.5t-61 -73t-88.5 -49 q63 -13 108 -45t74.5 -76t43 -97.5t13.5 -109.5q0 -93 -21.5 -177t-68.5 -147t-122 -100.5t-181 -37.5q-101 0 -177.5 29.5t-128 86.5t-77.5 139t-26 185zM256 423q0 -59 11 -113t39 -94.5t73.5 -65.5t115.5 -25q48 0 88 19.5t67.5 57.5t43 93t15.5 128q0 52 -12 99.5 t-39 83.5t-70 57t-104 21t-104.5 -21t-71 -57t-40 -83.5t-12.5 -99.5zM302 1070q0 -51 11 -94t34 -74.5t59 -49t86 -17.5t84 19t55 51t30 74.5t9 88.5q0 44 -9.5 84.5t-30.5 72.5t-55 51q-36 19 -86 19q-53 0 -88 -17t-57.5 -47t-32 -71.5t-9.5 -89.5z" />
<glyph unicode="9" horiz-adv-x="964" d="M74 951q0 112 29.5 203t82.5 155t125.5 99t155.5 35q99 0 169 -28t118 -75t76.5 -112t42.5 -137t19 -149t5 -150q0 -58 -1 -123.5t-6.5 -133t-16.5 -134.5t-32 -128.5t-53 -115t-78 -92.5t-108.5 -61t-143 -22t-145 25.5t-110 71.5t-70.5 111.5t-27 143.5h176 q0 -48 14 -85.5t39.5 -62.5t62 -39t80.5 -14q56 0 96 25t66.5 67t43.5 96t25 110.5t11.5 112.5t5.5 101q0 6 1 14t-1 17q-23 -39 -53.5 -68.5t-65 -49t-73.5 -30.5t-75 -11q-100 0 -172.5 35.5t-119.5 94.5t-70 138.5t-23 165.5zM247 974q0 -36 4.5 -72t15.5 -70t27.5 -63.5 t41.5 -51.5t60 -34.5t79 -12.5q67 0 113 23.5t73.5 64t40 91t12.5 105.5q0 36 -4 75.5t-15 77.5t-29 71.5t-44.5 60t-64 41.5t-84.5 15q-45 0 -78.5 -13.5t-58.5 -37.5t-41.5 -56t-27.5 -67t-15.5 -73.5t-4.5 -73.5z" />
<glyph unicode=":" horiz-adv-x="508" d="M165 0v190h183v-190h-183zM165 865v194h183v-194h-183z" />
<glyph unicode=";" horiz-adv-x="508" d="M165 0v190h183v-190q0 -56 -8.5 -102.5t-30 -83t-57 -61t-87.5 -35.5v87q37 12 55.5 32.5t27.5 48.5t11 58t2 56h-96zM165 865v194h183v-194h-183z" />
<glyph unicode="&#x3c;" horiz-adv-x="1016" d="M86 430v123l851 449v-140l-695 -370l695 -367v-144z" />
<glyph unicode="=" horiz-adv-x="1016" d="M89 242v133h842v-133h-842zM89 609v133h842v-133h-842z" />
<glyph unicode="&#x3e;" horiz-adv-x="1016" d="M86 -19v144l691 367l-691 370v140l851 -449v-123z" />
<glyph unicode="?" horiz-adv-x="1016" d="M122 987q-2 55 6 111t29 106t54.5 91.5t80.5 72t108 48.5t139 18q92 0 167 -25t127 -72t81 -113q28 -65 28 -148q0 -61 -11 -109t-32 -88.5t-48.5 -75t-59.5 -68.5t-68 -70.5t-72 -77.5q-25 -31 -39 -56t-21 -54t-8.5 -64t1.5 -82h-180q0 50 2.5 88t8.5 69.5t17 58 t28.5 53t44 57t62.5 67.5q33 36 66.5 73.5t60 80t43 90t16.5 102.5q0 41 -10 82t-36 73.5t-66.5 53.5t-101.5 21q-72 0 -119 -27.5t-74.5 -72t-38 -100t-8.5 -113.5h-177zM404 0v188h183v-188h-183z" />
<glyph unicode="@" horiz-adv-x="1793" d="M185 701q3 102 30 196.5t74 176.5t114 149t147.5 115t175 73.5t197.5 25.5q88 0 172 -20.5t160.5 -59.5t141 -94t111.5 -123t73.5 -148t26.5 -169q0 -67 -16.5 -132t-48 -123.5t-75 -108.5t-98.5 -87.5t-119 -62.5t-135 -32q-33 -5 -61.5 -2t-49.5 15.5t-35 34t-16 54.5 q-24 -30 -51 -49.5t-55.5 -31.5t-58.5 -16.5t-61 -4.5q-59 0 -106 21.5t-80 60.5t-50 90t-17 110q0 61 14 126.5t42 128t67 118t89.5 97t111 66.5t130.5 25q33 0 66.5 -7.5t62 -23.5t50 -39.5t33.5 -58.5l35 100h119l-194 -573q-3 -9 -6.5 -21.5t-8.5 -25t-7.5 -26.5 t-2.5 -25t7.5 -18t18.5 -11.5t24.5 -5t24.5 -0.5q53 0 97.5 20t81 55t64 79.5t47 93.5t28.5 98.5t9 94.5q0 73 -22 138t-60.5 117.5t-91 94.5t-114 70.5t-130 43t-137.5 14.5q-85 0 -163 -21t-145 -60.5t-123 -94.5t-94.5 -122.5t-62.5 -144.5t-25 -160q-3 -85 18.5 -162.5 t62 -145.5t96.5 -123t125 -93.5t148 -60.5q80 -21 163 -21q69 0 141.5 13.5t140.5 41.5t128 71.5t104 103.5h163q-53 -89 -128 -157t-164 -113t-188 -68q-97 -23 -197 -23q-103 0 -198 26.5t-178 73.5t-151 114.5t-115 149.5t-72.5 176t-23.5 197zM609 567q0 -36 9 -69.5 t26.5 -59t45 -41t63.5 -15.5q38 0 71.5 17t60.5 42.5t49 57.5t36 63q17 33 35 72t32.5 79t23.5 83q9 44 9 82q0 28 -10.5 53t-28.5 43t-42 29.5t-52 11.5q-50 0 -93 -22.5t-79.5 -57t-65.5 -81t-48.5 -96t-30.5 -99.5t-11 -92z" />
<glyph unicode="A" horiz-adv-x="1146" d="M25 0l436 1421h231l430 -1421h-188l-119 406h-490l-114 -406h-186zM367 553h410l-168 588l-34 166l-37 -166z" />
<glyph unicode="B" horiz-adv-x="1130" d="M156 0v1421h447h15q94 0 162 -23q74 -25 120.5 -70.5t68 -111.5t21.5 -147q0 -60 -10 -108.5t-35.5 -87t-69.5 -68t-109 -50.5v-3q74 -10 124 -39t80.5 -72t44.5 -100t14 -121v-7q0 -209 -113 -314q-107 -100 -314 -100q-16 0 -32 1h-414zM325 139h278q68 0 116 16 t78 48.5t43 83.5q13 49 13 119q0 71 -13.5 118t-40 76.5t-62.5 44t-77 19.5q-34 4 -71 4h-15q-44 -1 -88 -1h-161v-528zM325 813h161q78 0 138 7t101.5 31.5t62.5 71.5t21 129q0 67 -15.5 111.5t-51.5 70t-99 36.5q-50 10 -122 10q-18 0 -37 -1h-159v-466z" />
<glyph unicode="C" horiz-adv-x="1132" d="M103 726q0 80 5.5 165t24.5 165t53 151.5t88 124t133 84.5t187.5 32t190.5 -35.5t138 -96.5q55 -62 83 -144q25 -74 25 -159v-19h-169q-2 64 -15 120t-46.5 99.5t-86 68.5t-133.5 25q-74 0 -124.5 -30t-84 -78t-53 -110t-27.5 -126.5t-11 -125.5t-3 -109q0 -54 1.5 -120 t9 -132.5t25 -130.5t51 -113.5t86 -79.5t130.5 -30q86 0 141.5 33.5t87.5 90.5q32 58 44 130q9 58 9 117q0 16 -1 32h169q1 -18 1 -36q0 -53 -7 -104q-9 -68 -30.5 -129t-56 -112.5t-83.5 -88t-114 -57t-146 -20.5q-89 0 -157 18t-119.5 51.5t-87.5 78.5t-60 100t-37.5 116 t-20.5 125t-9 130q-1 65 -1 129z" />
<glyph unicode="D" horiz-adv-x="1241" d="M156 0v1421h431q119 0 205 -28t144.5 -76.5t94 -115.5t54.5 -145.5t25 -165.5t6 -177q0 -86 -8.5 -173t-29 -166t-56.5 -147.5t-92 -119t-134 -79.5q-79 -28 -182 -28h-458zM325 139h281q95 0 158.5 34t103.5 107t57 187t17 274q0 39 -1 77t-3.5 75t-5.5 69t-9 57 q-14 62 -39.5 111t-64 81.5t-91 50t-122.5 17.5h-281v-1140z" />
<glyph unicode="E" horiz-adv-x="1024" d="M158 0v1421h779v-142h-609v-471h571v-144h-571v-525h612v-139h-782z" />
<glyph unicode="F" horiz-adv-x="936" d="M158 0v1421h730v-142h-560v-466h523v-146h-523v-667h-170z" />
<glyph unicode="G" horiz-adv-x="1249" d="M106 719q0 83 7 168.5t26 166t55.5 151.5t92.5 124t137 83q79 31 190 31q110 0 197 -30.5t145.5 -87.5t89 -138t30.5 -179h-174q0 64 -16 117.5t-50.5 92.5t-86.5 59q-54 21 -126 24h-6q-80 0 -135 -25q-57 -26 -95.5 -71.5t-60.5 -104.5t-32 -125t-13 -133.5t-3 -128.5 q0 -39 0.5 -85.5t3.5 -95t10 -96.5t20 -93.5t34.5 -84t53 -68t74.5 -47.5t101 -21h17q67 0 118 14q56 17 94 50.5t62 79t36.5 98.5t16.5 110t4 113h-342v139h509v-726h-106l-25 225h-3q-18 -61 -52 -107t-80.5 -77t-103 -47t-120.5 -16q-86 0 -152 18t-116.5 51.5 t-87.5 78.5t-62 98.5t-39.5 114.5t-23 125t-11 128t-2.5 127z" />
<glyph unicode="H" horiz-adv-x="1252" d="M158 0v1421h167v-594h601v594h167v-1421h-167v685h-601v-685h-167z" />
<glyph unicode="I" horiz-adv-x="568" d="M200 0v1421h170v-1421h-170z" />
<glyph unicode="J" horiz-adv-x="907" d="M44 380q2 40 2 68h168v-87q0 -30 1.5 -60.5t7 -58.5t16.5 -51.5t30.5 -40.5t50 -26.5t72.5 -9.5q64 0 101.5 21t57 55.5t25 79t5.5 91.5v1060h167v-1073q0 -112 -26 -184t-73 -115t-113 -60t-147 -17q-44 0 -86.5 6.5t-81 22.5t-70 41t-54.5 64q-25 41 -36 90.5t-15 95.5 q-2 37 -2 70v18z" />
<glyph unicode="K" horiz-adv-x="1138" d="M158 0v1421h167v-708l572 708h209l-489 -598l505 -823h-210l-414 685l-167 -193v-492h-173z" />
<glyph unicode="L" horiz-adv-x="1010" d="M158 0v1421h170v-1282h631v-139h-801z" />
<glyph unicode="M" horiz-adv-x="1608" d="M158 0v1421h303l305 -1099q4 -16 8 -39.5t10 -52t9 -61.5q5 -33 8 -66h2q5 25 9.5 57t9 62t10 57t10.5 43l309 1099h297v-1421h-169v1172v168h-3q-15 -61 -27 -107t-23 -85l-324 -1148h-201l-326 1166q-2 11 -7 30t-11.5 42.5t-13.5 49.5q-7 24 -12 52h-3l3 -174v-1166 h-173z" />
<glyph unicode="N" horiz-adv-x="1257" d="M158 0v1421h276l443 -1151q14 -34 26 -73t28 -86h3q0 38 -1.5 74.5t-1.5 75.5v1160h167v-1421h-275l-442 1129q-8 22 -15 41.5l-14 39t-14 43t-13 56.5h-3q0 -27 1 -48t1.5 -40.5t0.5 -40.5v-47v-1133h-167z" />
<glyph unicode="O" horiz-adv-x="1249" d="M120 741q0 80 6 164.5t25 163.5t53 147t90 119.5t138 82t196 30.5q111 0 192 -30.5t136.5 -82t89 -119.5t51.5 -147t24 -162.5t6 -165.5q0 -99 -7 -195t-25.5 -182t-52.5 -158.5t-89.5 -126t-136.5 -82.5q-82 -30 -193 -30t-192 29.5t-136.5 83t-89.5 126t-53 158.5 t-25.5 182t-6.5 195zM296 737q0 -155 12 -272t46.5 -196.5t98.5 -120t170 -40.5q104 0 168.5 40.5t100 120t47.5 196.5t12 272q0 78 -5.5 151.5t-19.5 136t-39 114.5t-61 89t-87.5 58t-118.5 21q-64 0 -114 -21t-86 -58t-60 -89t-38.5 -114.5t-20.5 -135.5q-5 -63 -5 -130 v-22z" />
<glyph unicode="P" horiz-adv-x="1127" d="M158 0v1421h417q98 0 185 -20.5t153 -67t104.5 -121.5t38.5 -188q0 -90 -19.5 -156.5t-57 -112.5t-92 -76t-123.5 -46.5t-151 -23t-174 -6.5h-108v-603h-173zM331 744h175q58 0 109 4t92.5 14.5t74.5 28.5t55 48.5t33 74.5q10 41 10 98v10q0 57 -12.5 98.5t-35.5 70.5 t-56.5 46.5t-73.5 26.5t-87.5 12t-100.5 3h-183v-535z" />
<glyph unicode="Q" horiz-adv-x="1244" d="M120 741q0 80 6 164.5t25 163.5t53 147t90 119.5t138 82t196 30.5q111 0 192 -30.5t136.5 -82t89 -119.5t51.5 -147t24 -162.5t6 -165.5q0 -103 -7.5 -203t-28.5 -188.5t-58.5 -162t-101.5 -126.5l187 -192h-194l-118 124q-39 -12 -84.5 -19t-98.5 -7q-111 0 -192 29.5 t-136.5 83t-89.5 126t-53 158.5t-25.5 182t-6.5 195zM296 737q0 -155 12 -272t46.5 -196.5t98.5 -120t170 -40.5q18 0 34 2q16 1 32 4l-151 158h192l96 -100q39 35 62.5 88.5t37.5 124.5t19.5 158.5t5.5 193.5q0 78 -5.5 151.5t-19.5 136t-39 114.5t-61 89t-87.5 58 t-118.5 21q-64 0 -114 -21t-86 -58t-60 -89t-38.5 -114.5t-20.5 -135.5q-5 -63 -5 -130v-22z" />
<glyph unicode="R" horiz-adv-x="1220" d="M158 0v1421h409q120 0 214.5 -15.5t161 -58.5t101.5 -119.5t35 -196.5q0 -50 -11.5 -100.5t-37.5 -97t-68 -87t-104 -69.5q22 -14 43.5 -35t41 -46.5t34 -54.5t22.5 -63l49 -247q7 -29 16 -55.5t24.5 -53.5t35 -58t46.5 -64h-203q-29 36 -47 85q-16 48 -30 101l-50 245 q-13 51 -36 88t-50 60.5t-55 34.5q-29 12 -51 12h-317v-626h-173zM331 764h300q20 0 49 3.5t59.5 13.5t60.5 28t54 47q24 30 38 72q14 40 13 95v8q-1 59 -16.5 99t-42 68t-60 44t-69.5 23.5t-72 10.5t-67 3h-247v-515z" />
<glyph unicode="S" horiz-adv-x="1132" d="M100 461h164q-1 -18 -1 -36q0 -58 8 -106q10 -63 41 -107.5t89 -68t152 -23.5q61 0 116 13.5t97.5 43t67.5 74.5t25 108q0 55 -16 92.5t-43 63.5t-63 44.5t-77 36.5l-324 153q-111 53 -162.5 132t-51.5 196q0 88 30.5 157.5t86.5 116.5t133.5 72t170.5 25 q106 0 191.5 -25t144.5 -75.5t88 -125.5q24 -64 24 -145q0 -15 -1 -30h-170q2 15 2 30q0 39 -12 73q-16 48 -48 82t-81.5 54.5t-113.5 20.5q-86 0 -139 -21t-82 -53t-38 -73t-9 -83q0 -72 39 -119q40 -46 110 -78l289 -134q72 -33 127.5 -70t94 -81.5t58.5 -97.5 q20 -55 20 -119q0 -101 -35 -177t-98 -126t-152.5 -75t-198.5 -25q-61 0 -123.5 9.5t-117.5 34.5t-101 69q-47 43 -80 112q-11 28 -17.5 61.5t-9.5 68t-3.5 69.5t-0.5 62z" />
<glyph unicode="T" horiz-adv-x="1016" d="M28 1279v142h962v-142h-395v-1279h-168v1279h-399z" />
<glyph unicode="U" horiz-adv-x="1246" d="M158 391v1030h173v-1010q0 -27 2.5 -59t12.5 -64t29.5 -62.5t52 -53t80.5 -36.5t115 -14q66 0 115 14t82 36.5t52.5 53t30 62.5t14 64t3.5 59v1010h167v-1030q0 -109 -33.5 -187.5t-94.5 -128.5t-147 -74q-86 -23 -189 -23t-188.5 23.5t-146.5 73.5t-95.5 128t-34.5 188z " />
<glyph unicode="V" horiz-adv-x="1163" d="M28 1421h186l324 -1107l37 -149h3l36 149l326 1107h190l-449 -1421h-208z" />
<glyph unicode="W" horiz-adv-x="1719" d="M39 1421h189l217 -993q8 -43 13.5 -77t10 -67.5t7 -68t4.5 -75.5q4 39 8 76t9.5 71t12 69.5t14.5 71.5l229 993h212l211 -993q10 -43 16 -78.5t10.5 -69t6.5 -66.5q3 -33 6 -74q5 42 9.5 77.5t10 70t12.5 69.5t15 71l229 993h188l-364 -1421h-211l-207 963 q-9 36 -13 63.5t-9 58t-9 69.5t-13 97q-4 -50 -8 -87.5t-9 -69t-11 -62.5q-5 -31 -13 -69l-228 -963h-211z" />
<glyph unicode="X" horiz-adv-x="1132" d="M28 0l450 734l-436 687h200l331 -555l324 555h198l-429 -687l440 -734h-207l-332 596l-336 -596h-203z" />
<glyph unicode="Y" horiz-adv-x="1152" d="M22 1421h186l365 -718l364 718h188l-468 -873v-548h-171v548z" />
<glyph unicode="Z" horiz-adv-x="1046" d="M63 0v133l732 1146h-712v142h887v-138l-731 -1144h742v-139h-918z" />
<glyph unicode="[" horiz-adv-x="679" d="M203 -407v1858h356v-117h-195v-1619h195v-122h-356z" />
<glyph unicode="\" horiz-adv-x="508" d="M-63 1451h117l519 -1451h-117z" />
<glyph unicode="]" horiz-adv-x="679" d="M117 -285h200v1619h-200v117h358v-1858h-358v122z" />
<glyph unicode="^" horiz-adv-x="1016" d="M133 641l320 816h111l324 -816h-125l-254 643l-253 -643h-123z" />
<glyph unicode="_" horiz-adv-x="1016" d="M0 -117h1016v-114h-1016v114z" />
<glyph unicode="`" horiz-adv-x="679" d="M74 1480h219l182 -273h-136z" />
<glyph unicode="a" horiz-adv-x="902" d="M60 292q0 74 24 129.5t64.5 95.5t94.5 67.5t113.5 43.5t121 24t118.5 7v139q0 92 -42 130.5t-130 38.5q-50 0 -85 -12.5t-55.5 -36.5t-29.5 -60q-8 -32 -8 -72v-9l-146 8v7q0 78 20 134q22 58 63.5 95.5t105.5 54.5t147 17q80 0 135 -16t90 -42t55.5 -59.5t28.5 -65.5 t10.5 -61t2.5 -46v-603q0 -19 3 -44t9.5 -51.5t15.5 -53t23 -51.5h-183q-3 7 -6.5 19t-7 25.5t-5.5 27.5q-4 14 -4 28q-47 -58 -101 -87.5t-121 -29.5q-71 0 -130 19t-101.5 57t-66.5 96q-23 59 -23 137zM228 295q0 -48 14.5 -81t39 -55.5t53.5 -33t60 -10.5q33 0 68.5 12.5 t65.5 38.5t48.5 66t18.5 96v213q-43 -3 -87.5 -9.5t-84.5 -19t-76.5 -31t-62.5 -45.5t-41.5 -62t-15.5 -79z" />
<glyph unicode="b" horiz-adv-x="1016" d="M145 0v1451h162v-497q52 75 112 107q62 32 134.5 32t126.5 -20.5t94.5 -56t68 -82.5t44.5 -101.5t23.5 -111.5t6.5 -112q0 -78 -5.5 -154t-19.5 -146t-38 -129.5t-63.5 -104t-95.5 -69.5t-131 -25q-37 0 -74 6.5t-71.5 25t-66.5 49t-59 77.5v-139h-148zM299 512 q0 -39 2 -84.5t10.5 -89t23.5 -84.5t41.5 -72.5t63.5 -49.5t90 -18q64 0 105.5 28.5t67 85t35.5 138.5q10 84 10 193q0 36 -1.5 79t-9 89t-22 89t-39 76.5t-61.5 53t-88 19.5q-53 0 -91 -22.5t-63 -59t-40.5 -84.5t-22.5 -98t-9 -100.5t-2 -88.5z" />
<glyph unicode="c" horiz-adv-x="902" d="M83 524q0 67 6 134.5t21 131t43 118.5t72.5 96t107 65t148.5 24t150 -29.5t106.5 -79.5t64 -115.5t21.5 -140.5h-150q-2 42 -11 85t-29.5 76.5t-58 54.5t-93.5 21q-60 0 -100 -24t-66 -64t-39 -90t-19.5 -103t-6.5 -103v-89q0 -36 2 -77.5t10 -83.5t21.5 -81t39 -69.5 t63 -48.5t89.5 -18q66 0 104 23.5t59 62.5t29 88q9 48 11 98h153q-3 -52 -11 -102t-26 -94.5t-44.5 -83.5t-65 -67t-87.5 -43t-111 -15q-86 0 -150 20.5t-108.5 57.5t-73 87.5t-44 112t-21.5 128t-6 137.5z" />
<glyph unicode="d" horiz-adv-x="1013" d="M92 489.5v51.5v31q0 98 16 186q20 102 63 176.5t110 116.5t158 42q42 0 79.5 -7t71 -24t63 -44t59.5 -64v497h155v-1451h-153v150q-27 -47 -55.5 -79t-62.5 -53t-74.5 -29t-91.5 -8q-67 0 -117 19t-86.5 53.5t-60.5 78t-38 92t-22.5 97.5t-11 92t-2.5 76.5zM256 543 q0 -58 2 -113t9.5 -102t22 -86.5t40.5 -68t65 -44t94 -15.5q36 0 67.5 14t56 38t43 55.5t31 66t19 69.5t6.5 67v132q0 36 -3.5 80.5t-12.5 90.5t-26 89t-42 76.5t-61 53t-83 19.5q-52 0 -93.5 -19t-71.5 -67t-46.5 -129t-16.5 -207z" />
<glyph unicode="e" horiz-adv-x="902" d="M83 532q0 56 6 119t21 126t41.5 120t67 100t96 68t130.5 25q89 0 150 -25t101.5 -69.5t62.5 -101.5t33 -121t14 -131t6 -128h-562q0 -33 1.5 -75.5t7 -87t17.5 -87t35 -75.5t59 -54t89 -21q58 0 95 21t58.5 55.5t29.5 77.5q7 35 7 71v17h154v-20q0 -68 -18 -128 q-21 -69 -64.5 -119t-110.5 -79q-65 -29 -154 -29q-81 0 -149.5 26t-118 90t-77.5 170t-28 265zM250 644h394q-2 30 -4.5 66t-9.5 71.5t-19.5 67.5t-33.5 57t-53 40.5t-79 15.5q-43 0 -73.5 -15.5t-52.5 -42t-34.5 -59.5t-19 -68t-10 -69.5t-5.5 -63.5z" />
<glyph unicode="f" horiz-adv-x="565" d="M25 945v131h160v92q0 23 0.5 50t5 55.5t12.5 54.5t25 47q19 28 47.5 45t65.5 25.5t83 10.5h19q38 0 84 -5v-128q-31 2 -57 2q-13 0 -24 -1q-35 -1 -55.5 -13.5t-30.5 -40t-10 -77.5v-117h177v-131h-177v-945h-160v945h-165z" />
<glyph unicode="g" horiz-adv-x="1021" d="M89 546q0 56 5.5 119t21.5 123t43 115.5t67.5 97t96.5 67.5q58 25 133 25q37 0 74 -8.5t71 -26.5t64 -46t52 -67v131h159v-945q0 -55 -4.5 -105.5t-14.5 -96.5t-27 -85.5t-42 -71.5q-25 -31 -59 -56t-75.5 -43t-87.5 -27.5t-93 -9.5q-67 0 -127 15t-104.5 47t-73.5 82 q-29 48 -37 117h157q5 -36 20.5 -61t39 -41.5t55 -25t67.5 -8.5q64 0 107 19.5t69.5 51.5t40.5 73t19.5 82.5t6 81t1.5 67.5q-27 -41 -56.5 -70.5t-60.5 -49t-66 -27.5q-33 -8 -72 -8q-81 0 -149 27t-117.5 92t-76.5 174.5t-27 271.5zM256 538q0 -97 11 -175.5t36 -134.5 t65.5 -85t98.5 -29q56 0 96 21t68 57t44.5 82t26.5 96t12.5 100t2.5 94q0 80 -13 152t-41.5 127.5t-73 88.5t-105.5 33q-54 0 -92.5 -21t-63.5 -57t-39 -80.5t-21.5 -92.5t-9.5 -94t-2 -82z" />
<glyph unicode="h" horiz-adv-x="1021" d="M145 0v1451h162v-506q31 36 62 64t66 46.5t75 28t88 9.5q64 0 115 -16t89 -50.5t58 -85.5t20 -121v-820h-160v780q0 41 -9 75.5t-29 59.5t-53.5 37.5t-82.5 12.5q-54 0 -98.5 -25t-75 -66t-48 -94.5t-17.5 -112.5v-667h-162z" />
<glyph unicode="i" horiz-adv-x="467" d="M153 0v1076h161v-1076h-161zM153 1258v193h161v-193h-161z" />
<glyph unicode="j" horiz-adv-x="472" d="M32 -225q8 -1 16 -1q36 0 57 12q26 14 37 38t13 55.5t2 63.5v1133h163v-1118q0 -94 -13.5 -158t-46 -101.5t-88 -53t-140.5 -15.5v145zM157 1258v193h163v-193h-163z" />
<glyph unicode="k" horiz-adv-x="921" d="M145 0v1451h157v-876l404 501h193l-349 -419l359 -657h-186l-284 538l-137 -154v-384h-157z" />
<glyph unicode="l" horiz-adv-x="464" d="M150 0v1451h164v-1451h-164z" />
<glyph unicode="m" horiz-adv-x="1588" d="M145 0v1076h157v-150q22 33 51 63.5t64.5 53t76 35t84.5 12.5q48 0 89.5 -11t77 -33.5t63.5 -53.5q29 -30 48 -69q28 40 60 71.5t69.5 52.5t81.5 32q45 11 98 11q80 0 133.5 -25t86.5 -69.5t47 -104.5t14 -128v-763h-162v777q0 44 -8 78.5t-27.5 58t-54.5 36t-88 12.5 q-50 0 -91.5 -19.5t-72 -55t-48 -83.5t-17.5 -105v-699h-160v777q0 42 -9.5 76t-30.5 58t-54.5 37.5t-81.5 13.5t-90 -22.5t-74 -60t-51 -89t-19 -112.5v-678h-162z" />
<glyph unicode="n" horiz-adv-x="1024" d="M145 0v1076h159v-131q31 36 63.5 64t69 46.5t76.5 28t87 9.5q64 0 115.5 -16t89 -50.5t58 -85.5t20.5 -121v-820h-160v780q0 41 -9 75.5t-29.5 59.5t-53.5 37.5t-81 12.5q-57 0 -102 -22.5t-76 -61.5t-48 -91.5t-17 -115.5v-674h-162z" />
<glyph unicode="o" horiz-adv-x="1016" d="M97 534q0 283 101.5 421t310.5 138q107 0 185.5 -35t128.5 -104.5t75 -175t25 -244.5q0 -153 -29 -258.5t-82.5 -171.5t-130.5 -95q-78 -28 -172 -28q-93 0 -169 28.5t-130 93t-83.5 170t-29.5 261.5zM259 534q0 -98 12.5 -175.5t41.5 -132t76 -83.5t119.5 -29t121 29 t78 83.5t41 132t11.5 175.5q0 222 -60.5 326.5t-190.5 104.5q-64 0 -111.5 -25t-78 -78t-45.5 -134q-15 -80 -15 -194z" />
<glyph unicode="p" horiz-adv-x="1024" d="M145 -361v1437h154v-131q22 39 50.5 65.5t60.5 44.5t67 27q35 8 69 11q73 0 128.5 -20.5t97 -56t70 -82.5t46.5 -100.5t26.5 -111.5t8.5 -113q0 -78 -6.5 -154t-22.5 -146t-42 -129.5t-66.5 -104t-97.5 -69.5t-132 -25q-44 0 -79.5 9.5t-65.5 27.5t-55 44.5t-49 59.5 v-483h-162zM307 541q0 -38 2 -84t10.5 -93.5t22.5 -93t39 -80t61 -55.5t88 -21q64 0 106 28.5t68.5 85t37.5 139.5t11 192q0 36 -2 79t-10 89t-23.5 89t-40.5 76.5t-62 53t-88 19.5q-47 0 -81.5 -21t-59.5 -56t-40 -79.5t-23.5 -91.5t-12 -93t-3.5 -83z" />
<glyph unicode="q" horiz-adv-x="1018" d="M106 521q-1 26 -1 53q0 36 2 74q4 66 19.5 130t42 121t66 100t93 68.5t122.5 25.5q38 0 75 -7t71.5 -24.5t66 -44t57.5 -63.5v122h153v-1432h-159v484q-25 -36 -52 -64t-57 -46.5t-66 -27.5t-78 -9q-88 0 -151 30.5t-106 95.5t-66.5 168t-31.5 246zM271 600v-36 q0 -37 1 -72q3 -79 13 -148t34 -120.5t65 -80.5t105 -29q50 0 86.5 21t61.5 57t40 80.5t23.5 92.5t11 94.5t2.5 83.5t-2.5 81.5t-10 91t-22.5 91t-39 79t-59.5 57t-85.5 22.5q-53 0 -90.5 -19.5t-62.5 -54.5t-39.5 -82t-22.5 -100t-9 -109z" />
<glyph unicode="r" horiz-adv-x="674" d="M145 0v1076h154v-177q28 53 62 90.5t77 60t95 30.5q29 4 61 4q26 0 55 -3v-150q-34 6 -64 6q-41 -1 -77 -11q-63 -18 -108.5 -60.5t-69.5 -105t-24 -136.5v-624h-161z" />
<glyph unicode="s" horiz-adv-x="902" d="M60 322h151q0 -47 13.5 -86t41 -66t69.5 -41q43 -15 99 -15q48 0 88 11t68.5 33.5t43.5 55.5t15 79q0 34 -11.5 59.5t-31 45t-46 35t-57 28t-63.5 23.5q-34 11 -65 22q-66 24 -118.5 48t-89 57t-56.5 78q-19 48 -19 114q0 69 23.5 122.5t68 91t105.5 57t135 19.5 q83 0 149 -18.5t111 -56.5q44 -36 68 -96q22 -55 22 -130v-12h-160v17q0 37 -7 65q-9 35 -30 57.5t-56 34t-82 11.5q-41 0 -74.5 -10.5t-57 -30.5t-37.5 -49.5t-14 -65.5q0 -33 9.5 -57t26.5 -42t39 -31t47.5 -23.5t54 -19t56.5 -19.5q67 -25 127 -48.5t103.5 -56 t69.5 -80.5q26 -46 26 -118q0 -78 -26 -139t-75.5 -105t-120 -66.5t-159.5 -22.5q-192 -1 -284 87q-90 85 -90 244v10z" />
<glyph unicode="t" horiz-adv-x="557" d="M25 945v131h154v293h163v-293h188v-131h-188v-700q0 -14 1.5 -31t8.5 -32t21.5 -25.5t42.5 -10.5h108v-146h-167q-36 0 -68 5.5t-56.5 26.5t-39 61t-14.5 109v743h-154z" />
<glyph unicode="u" horiz-adv-x="1004" d="M145 256v820h159v-826q0 -33 8 -58t26 -42.5t45.5 -26.5t69.5 -9q60 0 106.5 25.5t78.5 68t49 98.5q16 55 16 117v653h156v-1076h-156v150q-23 -42 -54.5 -74t-67.5 -52.5t-77 -31.5t-83 -11q-62 0 -113.5 16.5t-88 50.5t-55.5 86t-19 122z" />
<glyph unicode="v" horiz-adv-x="907" d="M25 1076h170l212 -737q11 -36 19.5 -70t14.5 -61q7 -30 12 -56h3q5 27 11 56q6 26 12.5 59t18.5 69l214 740h168l-342 -1076h-174z" />
<glyph unicode="w" horiz-adv-x="1358" d="M36 1076h170l178 -751q5 -25 10 -56q6 -31 9 -59q6 -33 8 -65h5q1 33 7 65q2 28 7.5 59t11.5 56l153 751h168l166 -751q5 -25 9 -56t7 -59q4 -33 9 -65h2q3 33 6 65q3 28 7 59t10 56l177 751h167l-283 -1076h-170l-172 790q-11 51 -14 85t-4 49q-2 -20 -4 -43 q-3 -19 -6.5 -42.5t-9.5 -48.5l-165 -790h-167z" />
<glyph unicode="x" horiz-adv-x="899" d="M14 0l347 543l-339 533h168l255 -424l256 424h166l-340 -533l350 -543h-171l-261 421l-260 -421h-171z" />
<glyph unicode="y" horiz-adv-x="902" d="M22 1076h168l223 -737q8 -25 13.5 -51.5t10 -48.5t8 -39t3.5 -22q5 28 11 54q5 25 11 53q5 29 14 54l228 737h168l-337 -1027q-8 -25 -19.5 -63.5t-26.5 -78.5t-29.5 -76.5t-25.5 -55.5q-44 -77 -108 -111t-152 -34q-28 0 -58.5 5.5t-58.5 11.5v136q28 -11 60 -16.5 t60 -5.5q55 0 88 18t51 48t30.5 68t29.5 80z" />
<glyph unicode="z" horiz-adv-x="793" d="M42 0v120l533 831h-507v125h680v-125l-534 -823h537v-128h-709z" />
<glyph unicode="{" horiz-adv-x="557" d="M17 634v4q47 6 77.5 20.5t55.5 39.5q18 16 28.5 33t14.5 33.5t5.5 34.5t1.5 41v361q0 69 27 121.5t74 84.5t109.5 43.5t132.5 0.5v-5q-55 -13 -90.5 -31.5t-55.5 -45t-28 -60t-8 -73.5v-363q0 -47 -8 -84.5t-30.5 -67t-61.5 -50t-103 -33.5v-4q67 -14 107.5 -37.5 t61.5 -57t27.5 -76.5t6.5 -93v-339q0 -42 8.5 -73.5t28.5 -57t55.5 -45.5t89.5 -37v-3q-102 -3 -169.5 12t-106 49.5t-53 90t-14.5 136.5v315q0 25 -1.5 48t-7 44t-18.5 39q-15 18 -40 35q-25 19 -55.5 30.5t-60.5 19.5z" />
<glyph unicode="|" horiz-adv-x="508" d="M190 0v1451h130v-1451h-130z" />
<glyph unicode="}" horiz-adv-x="557" d="M17 -182q55 17 91.5 36.5t55.5 45t27.5 57.5t8.5 74v367q0 44 7 81.5t29.5 66.5t62 50t103.5 32v3q-67 15 -106.5 39.5t-61 58.5t-28 76.5t-6.5 93.5v337q0 39 -9 71.5t-30 59t-56 46t-88 33.5v5q103 3 169.5 -11.5t105.5 -48.5t54 -90t15 -133v-320v-47.5t6 -43 t19.5 -40t40.5 -36.5q23 -17 54 -28q31 -14 62 -22v-3q-47 -4 -79.5 -18.5t-56.5 -36.5q-16 -18 -26 -35t-14 -34.5t-5 -35.5t-1 -38v-359q0 -71 -26 -124t-73.5 -86t-110 -45t-134.5 -1v3z" />
<glyph unicode="~" horiz-adv-x="1016" d="M86 403q3 75 24 125t54 80.5t75 43t81 12.5q36 0 69.5 -10t65 -26t62.5 -34.5t60 -33.5t58 -25.5t57 -10.5q9 0 24 3t30.5 14.5t26.5 36.5t11 68h147q-2 -77 -23 -128t-54 -80t-72.5 -41.5t-80.5 -12.5q-37 0 -71.5 11t-67 26t-64 33.5t-60.5 33.5t-56.5 26t-52.5 11 q-11 0 -27 -2.5t-32 -15t-27 -36t-11 -68.5h-146z" />
<glyph unicode="&#xa2;" horiz-adv-x="1016" d="M120 695q0 58 4 120t16 119.5t34 110.5t58 94t88 69q53 29 125 37v176h114v-170q75 -6 130.5 -36.5t93.5 -79t57 -110.5t19 -128h-150q-1 36 -7.5 75t-24 71.5t-45.5 53.5q-29 23 -73 26v-826q53 6 82.5 32.5t45 63.5t20.5 81q5 43 7 88h153q-2 -73 -19 -141.5 t-51.5 -123.5t-93 -91t-144.5 -42v-164h-114v170q-68 7 -119 31t-87 61.5t-59.5 86.5t-36 106t-18 118t-5.5 122zM288 664q0 -30 1.5 -66t6 -73t14.5 -72.5t28 -65.5t44 -51q27 -22 63 -30v807q-41 -11 -68.5 -40t-45 -68t-26.5 -84t-12.5 -91t-4 -89t-0.5 -77z" />
<glyph unicode="&#xa3;" horiz-adv-x="1016" d="M75 -22v137q32 20 69 55.5t67.5 82.5t50 101.5t19.5 109.5q0 20 -4.5 43t-10.5 45.5t-14.5 45t-16.5 39.5h-157v104h103q-17 30 -31 63t-25 69t-18 77t-7 88q0 95 35.5 169.5t94.5 125.5t137 79t161 28q99 0 179 -30.5t137.5 -91t89.5 -151.5t35 -211h-170q-5 78 -24 139 t-51 103.5t-78 65t-107 22.5q-55 0 -103 -19.5t-83 -53.5t-55 -81.5t-20 -102.5q0 -45 8.5 -82.5t21 -72t29 -68t33.5 -65.5h293v-104h-246q11 -27 21.5 -63.5t10.5 -75.5q0 -60 -14.5 -109.5t-37.5 -91t-53 -74.5q-30 -31 -60 -56q44 16 84.5 22.5t84.5 6.5q33 0 76.5 -11 t87 -24.5t83 -24.5t67.5 -11q20 0 43.5 0.5t49 5.5t53 15t53.5 26v-153q-33 -19 -83 -27q-49 -9 -113 -9q-49 0 -95.5 10t-93.5 21t-97 20.5t-106 9.5q-19 0 -44 -2t-53.5 -6t-58.5 -10.5t-58 -13t-51 -16.5q-24 -10 -38 -18z" />
<glyph unicode="&#xa5;" horiz-adv-x="1152" d="M33 1421h206l339 -712l353 712h194l-473 -868h282v-94h-282v-134h282v-97h-282v-228h-166v228h-280v97h280v134h-280v94h280z" />
<glyph unicode="&#xa9;" horiz-adv-x="1469" d="M83 689q0 89 23 172.5t65.5 156t102.5 132t132 102t155.5 65.5t172.5 23t172.5 -23t156.5 -65.5t132 -102t102 -132t66.5 -156t23.5 -172.5t-23.5 -172t-66.5 -156t-102 -132t-132 -102.5t-156 -66.5q-84 -24 -173 -24t-172.5 23.5t-155.5 67t-132 102.5t-102.5 132 t-65.5 156t-23 172zM206 689q0 -72 18 -140t52.5 -128t83.5 -108t107 -82t126.5 -53.5t140.5 -19.5t140 19.5t128 53.5t108 82t82 108t53.5 126.5t19.5 141.5q0 73 -19.5 141t-53.5 126.5t-82 107t-108 83.5t-127 53q-69 18 -141 18t-140.5 -18t-126.5 -53t-107 -83.5 t-83.5 -107t-52.5 -126.5t-18 -141zM410 692q0 82 22.5 152.5t64.5 123t102 82t135 29.5q53 0 100 -19t84 -54.5t62.5 -87t35.5 -115.5h-107q-8 39 -24 71t-39 54.5t-51 33.5t-61 11q-53 0 -93.5 -22t-67.5 -60.5t-41 -89.5q-15 -50 -15 -109q0 -55 14.5 -108t43 -93.5 t70.5 -64.5t94 -24q31 0 59.5 11.5t51 34.5t36.5 55q15 34 20 72h107q-5 -63 -30 -114.5t-62 -88.5t-84 -56.5t-98 -19.5q-75 0 -136 30t-104 83.5t-66 125.5q-23 74 -23 157z" />
<glyph unicode="&#xab;" horiz-adv-x="1016" d="M174 543v120l307 293v-158l-203 -198l203 -196v-162zM538 543v120l307 293v-158l-204 -198l204 -196v-162z" />
<glyph unicode="&#xad;" horiz-adv-x="706" d="M92 424v135h522v-135h-522z" />
<glyph unicode="&#xae;" horiz-adv-x="1469" d="M83 689q0 89 23 172.5t65.5 156t102.5 132t132 102t155.5 65.5t172.5 23t172.5 -23t156.5 -65.5t132 -102t102 -132t66.5 -156t23.5 -172.5t-23.5 -172t-66.5 -156t-102 -132t-132 -102.5t-156 -66.5q-84 -24 -173 -24t-172.5 23.5t-155.5 67t-132 102.5t-102.5 132 t-65.5 156t-23 172zM206 689q0 -72 18 -140t52.5 -128t83.5 -108t107 -82t126.5 -53.5t140.5 -19.5t140 19.5t128 53.5t108 82t82 108t53.5 126.5t19.5 141.5q0 73 -19.5 141t-53.5 126.5t-82 107t-108 83.5t-127 53q-69 18 -141 18t-140.5 -18t-126.5 -53t-107 -83.5 t-83.5 -107t-52.5 -126.5t-18 -141zM492 314v751h300q45 5 88.5 -7.5t79 -40t56.5 -69.5t18 -92q0 -53 -16.5 -90.5t-43 -63t-61.5 -39.5t-73 -17l194 -332h-125l-186 332h-123v-332h-108zM600 739h128q32 0 67 1.5t63.5 12.5t48 36.5t19.5 69.5q0 38 -14 60t-35 34 t-48.5 14.5t-57.5 2.5h-171v-231z" />
<glyph unicode="&#xbb;" horiz-adv-x="1016" d="M174 242v162l201 196l-201 198v158l307 -299v-119zM538 242v162l204 196l-204 198v158l307 -299v-119z" />
<glyph unicode="&#xbc;" horiz-adv-x="1451" d="M106 1166v96q50 0 89 8.5t66.5 26.5t45.5 48q18 31 27 76h105v-859h-132v645q-39 -25 -90.5 -33t-110.5 -8zM264 0l887 1421h133l-880 -1421h-140zM845 200v111l353 548h120v-553h75v-106h-75v-200h-125v200h-348zM948 306h245v378z" />
<glyph unicode="&#xbd;" horiz-adv-x="1451" d="M106 1166v96q50 0 89 8.5t66.5 26.5t45.5 48q18 31 27 76h105v-859h-132v645q-39 -25 -90.5 -33t-110.5 -8zM195 0l884 1421h133l-884 -1421h-133zM859 0q3 46 6.5 85.5t16 77t38 75t70.5 79.5l155 133q43 38 63.5 77.5t20.5 89.5q0 28 -5 51.5t-18 41.5t-35.5 28 t-57.5 10q-41 0 -64 -17.5t-34 -44.5t-14 -61q-3 -33 -2 -66h-132v58q0 53 19.5 97.5t53 76.5t79.5 50t100 18q61 0 108.5 -18t78.5 -50.5t47 -77.5q16 -43 16 -96q0 -47 -10.5 -83t-30 -67t-48.5 -58.5t-65 -55.5l-150 -132q-9 -8 -18.5 -19.5t-18 -26t-13 -31t-4.5 -33.5 h366v-111h-518z" />
<glyph unicode="&#xbe;" horiz-adv-x="1451" d="M65 823h125q-5 -33 0 -64t21.5 -54.5t44.5 -36.5t69 -13q67 0 99 36.5t32 103.5q0 47 -10 76.5t-33.5 47.5t-62.5 23.5t-97 5.5v117q40 -2 73 0.5t55 13.5t34 37.5t12 73.5q0 30 -5 53t-16 38.5t-32 23t-52 7.5q-37 0 -60 -12.5t-35.5 -33.5t-16.5 -48t-4 -57h-125 q-2 52 11.5 100t44 83t76.5 56t112 21q53 0 97.5 -15.5t75 -44t48.5 -68t18 -89.5q0 -34 -5.5 -61.5t-18.5 -51t-34.5 -43t-55.5 -33.5q70 -23 104.5 -75.5t34.5 -122.5q0 -59 -16 -108.5t-48.5 -84.5t-82.5 -54.5t-120 -19.5q-72 0 -122.5 19.5t-82 56.5t-44 87t-8.5 110z M291 0l885 1421h136l-882 -1421h-139zM845 200v111l350 548h120v-553h78v-106h-78v-200h-125v200h-345zM945 306h245v378z" />
<glyph unicode="&#xd7;" horiz-adv-x="1064" d="M108 89l337 375l-337 381l98 89l326 -370l327 370l97 -89l-336 -381l336 -375l-100 -92l-324 367l-324 -367z" />
<glyph unicode="&#xf7;" horiz-adv-x="1016" d="M89 424v135h842v-135h-842zM404 108q0 23 8 41.5t22 33t32 23.5q18 8 40 8t41.5 -8.5t33.5 -23t22.5 -33t8.5 -41.5q0 -22 -8.5 -40t-22.5 -32t-33.5 -22t-41.5 -8t-40 8t-32 22t-22 32t-8 40zM404 873q0 22 8 41.5t22 33.5t32 22q18 9 40 9t41.5 -8.5t33.5 -22.5 t22.5 -33.5t8.5 -41.5q0 -21 -8.5 -39.5t-22.5 -32.5t-33.5 -22t-41.5 -8t-40 8t-32 22t-22 32.5t-8 39.5z" />
<glyph unicode="&#xe01;" horiz-adv-x="1089" d="M74 979q33 68 81 118.5t108.5 82.5t131.5 48t148 16q53 0 105.5 -9t99.5 -26.5t87.5 -44.5t69.5 -61.5t45.5 -79t16.5 -97.5v-926h-164v885q0 53 -18 94t-51 70.5t-81 44.5t-110 15q-51 0 -95.5 -9.5t-81.5 -26.5t-64 -40.5t-43 -53.5q9 -9 18 -24t14.5 -35.5t9 -43.5 t3.5 -45v-831h-165v840q0 25 -3 48.5t-11 41.5t-20.5 30.5t-30.5 18.5z" />
<glyph unicode="&#xe02;" horiz-adv-x="924" d="M39 1095v134h278l147 -881l25 -212l25 212l149 881h168l-219 -1229h-245l-196 1095h-132z" />
<glyph unicode="&#xe03;" horiz-adv-x="989" d="M31 1229h151q0 -20 7 -38t20 -32.5t32.5 -23t46.5 -8.5q25 0 42.5 8t30 21.5t19 33t12.5 39.5h154v-192q0 -45 -10.5 -76.5t-29 -58t-43 -50.5t-50.5 -49q-24 -25 -40.5 -47t-28.5 -43.5t-18 -46t-6 -54.5v-273q0 -53 14 -94t39 -69.5t61 -43.5t77.5 -15t78 14.5t62.5 43 t40 69.5q14 42 14 95v890h161v-925q0 -80 -30.5 -140.5t-81 -101t-114 -60t-130 -19.5t-130.5 19.5t-114 60t-82 101.5t-32 140v260q0 39 1.5 69t6 53.5t12.5 43t21.5 38.5t32 38.5t43.5 44.5q16 14 38.5 33.5t41 44.5t31.5 57q11 31 11 73h-8q-6 -11 -18.5 -20.5t-30.5 -18 t-39.5 -13.5t-45.5 -5q-15 0 -38 3t-48 10.5t-49.5 23t-44 41t-30.5 62.5q-12 37 -9 87z" />
<glyph unicode="&#xe04;" horiz-adv-x="1081" d="M122 0v915q0 79 31.5 139.5t87.5 103.5t132.5 64.5t167.5 21.5q89 0 166 -21.5t132.5 -64.5t87.5 -104.5t32 -138.5v-915h-161v870q0 53 -14 97.5t-44.5 75.5t-79 48.5t-119.5 17.5q-73 0 -120.5 -16.5t-77 -48.5t-42.5 -76q-13 -45 -13 -98v-332q25 53 58 90.5 t75.5 59.5t94 30t115.5 2v-150q-78 14 -141 -0.5t-108.5 -52t-69.5 -95.5t-24 -131v-291h-166z" />
<glyph unicode="&#xe05;" horiz-adv-x="1100" d="M122 0v915q0 64 21 117.5t59 94.5t93 68.5t123 37.5l132 -143l123 143q69 -10 125.5 -36.5t96.5 -68t62 -95.5t22 -118v-915h-164v870q0 34 -4.5 63.5t-15.5 55.5t-30 46.5t-48 34.5l-147 -153q-10 -9 -21 -9q-11 1 -19 9l-152 153q-28 -14 -44.5 -34.5t-27 -46.5 t-14.5 -55.5t-4 -63.5v-332q25 53 58 90.5t75.5 59.5t94 30t115.5 2v-150q-78 14 -141 -0.5t-108.5 -52t-69.5 -95.5t-24 -131v-291h-166z" />
<glyph unicode="&#xe06;" horiz-adv-x="1081" d="M49 1229h151q0 -20 5.5 -38t19.5 -32.5t33.5 -23t45.5 -8.5q25 0 42.5 8t29.5 21.5t19.5 33t11.5 39.5h157v-192q0 -45 -11 -76.5t-30.5 -58t-43 -50.5t-49.5 -49q-24 -25 -40.5 -47t-28.5 -43.5t-18.5 -46t-6.5 -54.5v-182q0 -56 7 -104.5t35 -91.5q17 -23 40.5 -43 t51.5 -35.5t61 -24.5t67 -9q54 0 92 16t62 44.5t35 69t11 90.5v887h161v-938q0 -80 -22 -137t-62.5 -93.5t-97.5 -54t-125 -17.5q-50 0 -92.5 11t-83 32t-76.5 53t-72 73l6 -158h-163v564q0 39 1.5 69t5.5 53.5t11.5 43t21 38.5t32 38.5t45.5 44.5q16 14 38 33.5t40 44.5 t30.5 56.5t10.5 73.5h-5q-6 -11 -20 -20.5t-32 -18t-39.5 -13.5t-46.5 -5q-15 0 -37.5 3t-47.5 10.5t-49 23t-43.5 41t-30 62.5t-7.5 87z" />
<glyph unicode="&#xe07;" horiz-adv-x="867" d="M65 720h171l194 -546q11 -25 29.5 -39.5t43.5 -14.5q17 0 31 5.5t24.5 16.5t16.5 25t6 30v898h-142v134h306v-1001q0 -103 -71 -175t-174 -72q-80 0 -143 43q-65 43 -93 115z" />
<glyph unicode="&#xe08;" horiz-adv-x="936" d="M86 870q0 81 25 149t75 118t125 78.5t173 28.5q47 0 94.5 -7.5t90.5 -28t80.5 -53t62.5 -81t37 -115.5q10 -67 4 -153q-2 -50 -10 -96.5t-20.5 -97t-29.5 -110t-41 -132.5t-54.5 -164t-69.5 -206h-221l-179 600h-128v120h253l168 -581q28 89 49 159t37.5 126t28.5 101 t21.5 85.5t15 79t11.5 84.5q5 66 -3 126t-32.5 107t-66 74.5t-101.5 27.5q-106 0 -161.5 -59.5t-60.5 -179.5h-173z" />
<glyph unicode="&#xe09;" horiz-adv-x="1046" d="M106 926q0 80 34.5 139.5t93 99t132 59.5t151.5 20t151.5 -18.5t130.5 -57.5t92 -98q35 -58 35 -139v-931h-160l3 158q-73 -84 -152.5 -128t-177.5 -44q-68 0 -126.5 18t-100.5 55.5t-66 94.5t-24 137v429h166v-378q0 -50 11.5 -90.5t36.5 -69.5t64 -45.5t92 -16.5 q33 0 68 9.5t64 25t54 36t39 43.5q28 43 37 91.5t9 104.5v461q0 108 -62 163t-184 55q-108 0 -169 -48q-62 -46 -73 -135h-169z" />
<glyph unicode="&#xe0a;" horiz-adv-x="986" d="M63 1084v134q32 5 61.5 10t55.5 7t45.5 2.5t30.5 0.5q50 0 90 -13.5t68 -40t42 -64.5q14 -36 14 -83t-11 -78.5t-29.5 -57t-40.5 -49.5t-44 -57q-17 -25 -25.5 -48.5t-11 -46.5t-2.5 -47.5t-2 -54.5v-259q0 -53 15 -93t42 -68.5t62.5 -43t77 -14.5t79 13.5t64 41.5 t41.5 69q16 42 16 95v256q0 69 -17 106.5t-46 56t-68.5 22.5t-85.5 5v132q64 0 107 19.5t70 58.5t39 97.5t12 136.5h176q0 -63 -8 -125t-34 -112.5t-72 -86.5q-46 -38 -122 -49v-3q50 -5 85.5 -19t59 -36t37.5 -48t21 -53t8.5 -52t1.5 -47v-294q0 -80 -32 -139t-83.5 -99.5 t-117 -60t-132.5 -19.5q-66 0 -130 19.5t-115.5 60t-83.5 100t-32 138.5v294q0 59 4 99t14 71t29.5 57.5t49.5 59.5q18 20 35 38t29.5 35.5t19.5 34.5q8 19 8 36q0 44 -27 64t-70 20q-25 0 -50 -2.5t-47.5 -7.5l-40.5 -9t-30 -10z" />
<glyph unicode="&#xe0b;" horiz-adv-x="1043" d="M51 1229h152q0 -20 5 -38t16 -32.5t28.5 -23t43.5 -8.5q25 0 44 8t30.5 21.5t19.5 33t12 39.5h148v-170q0 -47 -25 -105.5t-72 -127.5q-19 -30 -36 -55.5t-29.5 -50.5t-19.5 -51.5t-7 -56.5v-273q0 -53 15.5 -93t42 -68.5t62.5 -43t77.5 -14.5t78.5 13.5t63.5 41.5 t41.5 69q16 42 16 95v256q0 69 -15.5 106.5t-42.5 56t-66 22.5t-84 5v132q63 0 104.5 19.5t67.5 58.5t36.5 97.5t10.5 136.5h176q0 -63 -8 -125t-33.5 -112.5t-72.5 -86.5q-47 -38 -122 -49v-3q50 -5 84.5 -19t58.5 -36t38 -48t20.5 -53t9.5 -52t3 -47v-294q0 -80 -32 -139 t-84 -99.5t-118 -59.5q-63 -20 -130 -20t-132.5 19.5t-116 60t-82 100t-31.5 138.5v260q0 39 1.5 68.5t4.5 51.5t10 40t18 36t26 39q15 18 36 46q20 27 40 54.5t35.5 54.5t24.5 53.5t9 51.5h-7q-6 -11 -19 -20.5t-31 -18t-39.5 -13.5t-46.5 -5q-16 0 -36.5 3.5t-43.5 12 t-46 25t-41 41.5t-29 61q-12 34 -12 84z" />
<glyph unicode="&#xe0c;" horiz-adv-x="1656" d="M71 979q33 68 82.5 118.5t109 82.5t129 48t143.5 16q84 0 159.5 -21.5t133 -62t92 -100t34.5 -134.5v-473q0 -32 2.5 -57.5t8 -48t14.5 -42.5q8 -21 18 -41q8 -19 29.5 -43t49.5 -44.5t60 -34.5t65 -14q47 0 80.5 16.5t52 46t27 71t8.5 88.5v879h166v-930 q0 -79 -22.5 -136t-61.5 -94.5t-91 -56t-110 -18.5q-91 0 -168.5 43.5t-136.5 120.5l3 -158h-158v885q0 53 -19 94t-52.5 70.5t-80 44.5t-103.5 15q-47 0 -91 -9.5t-80 -26.5t-64 -40.5t-44 -53.5q9 -9 18.5 -24t16 -35.5t10 -43.5t3.5 -45v-695h132v-136h-297v840 q0 25 -3.5 48.5t-12 41.5t-21.5 30.5t-31 18.5z" />
<glyph unicode="&#xe0d;" horiz-adv-x="1670" d="M74 979q33 68 82.5 118.5t109 82.5t129 48t143.5 16q83 0 159 -21.5t133.5 -62t91.5 -100t34 -134.5v-576q0 -47 12 -88.5t35 -71t59 -46t83 -16.5q56 0 100.5 22t75.5 59.5t48.5 86.5t17.5 99v834h161v-1134q0 -67 -6.5 -119t-18 -92t-26.5 -69t-32 -51 q-28 -42 -62.5 -70.5t-75 -46t-85.5 -24.5q-44 -7 -91 -7q-67 0 -129.5 16t-111 50t-80.5 85.5t-40 124.5h155q6 -38 25.5 -65t48 -44t62.5 -25t67 -8q70 0 116.5 22t75 58.5t41 81t12.5 88.5v136q-25 -39 -54.5 -66t-64 -44.5t-75 -24.5t-86.5 -7q-57 0 -114 18.5 t-103.5 56t-75 94.5t-28.5 136v586q0 53 -18.5 94t-52 70.5t-80 44.5t-103.5 15q-47 0 -91 -9.5t-80 -26.5t-64 -40.5t-44 -53.5q9 -9 18 -24t14.5 -35.5t9 -43.5t3.5 -45v-695h132v-136h-297v840q0 25 -3 48.5t-11 41.5t-20.5 30.5t-30.5 18.5z" />
<glyph unicode="&#xe0e;" horiz-adv-x="1118" d="M33 0v136h117v704q0 25 -4 48.5t-14 41.5t-23.5 30.5t-30.5 18.5q33 68 83 118.5t112.5 82.5t136.5 48t152 16q52 0 105 -9t101 -26.5t89.5 -44.5t73 -61.5t49 -79t17.5 -97.5v-1324h-166q-14 21 -36 41.5t-52.5 35.5t-71 24t-90.5 9q-47 0 -87.5 -11t-74 -29t-60.5 -41 q-25 -23 -45 -47v149q18 17 45 35t62 33.5t75.5 26.5t84.5 11q50 0 91.5 -9t73 -21.5t53 -26t32.5 -21.5v1124q0 53 -19.5 94t-55 70.5t-85.5 44.5q-48 15 -109 15q-53 0 -100.5 -9.5t-86.5 -26.5t-67 -40q-30 -24 -44 -54q8 -9 17.5 -24t16 -35.5t11.5 -43.5t5 -45v-831 h-281z" />
<glyph unicode="&#xe0f;" horiz-adv-x="1118" d="M33 0v136h117v704q0 25 -4 48.5t-14 41.5t-23.5 30.5t-30.5 18.5q33 68 83 118.5t112.5 82.5t136.5 48t152 16q52 0 105 -9t101 -26.5t89.5 -44.5t73 -61.5t49 -79t17.5 -97.5v-1324h-166q-4 17 -13 36.5t-25 36t-37.5 27t-52.5 10.5q-30 0 -51.5 -10.5t-36.5 -27 t-21.5 -36t-6.5 -36.5h-131q0 13 -5.5 32.5t-18 38t-34 32t-53.5 13.5q-28 0 -47.5 -10.5t-30.5 -27t-16.5 -37.5t-5.5 -41h-153q0 63 19.5 109t51.5 76t75 45q46 15 93 15q64 0 109.5 -29t71.5 -82q12 26 32 45t42.5 31.5t46 19.5t45.5 7q28 0 51.5 -7t43 -17t34 -23 t24.5 -26v1119q0 53 -19.5 94t-55 70.5t-85.5 44.5q-48 15 -109 15q-53 0 -100.5 -9.5t-86.5 -26.5t-67 -40q-30 -24 -44 -54q8 -9 17.5 -24t16 -35.5t11.5 -43.5t5 -45v-831h-281z" />
<glyph unicode="&#xe10;" horiz-adv-x="936" d="M54 870q0 81 26 149t76 118t124 79q76 28 173 28q45 0 90 -8q46 -10 88 -27q33 6 58 18.5t40 28.5t22 32.5t7 29.5h182q-2 -27 -13.5 -56t-36.5 -55.5t-61.5 -48t-86.5 -31.5q22 -25 39 -57.5t28 -72t14.5 -87.5t-0.5 -104q-3 -50 -11.5 -96.5t-21 -97t-29.5 -110 t-41 -132.5t-54.5 -164t-67.5 -206h-223l-178 600h-129v120h254l167 -581q28 89 49 159t37.5 126t29 101t21.5 85.5t15.5 79t10.5 84.5q5 66 -2.5 126t-32.5 107t-66.5 74.5t-100.5 27.5q-105 0 -161.5 -59.5t-60.5 -179.5h-174zM86 -398q-3 42 5 74t21 56.5t32 40.5 t39 25.5t39.5 13t33.5 3.5q47 0 75 -18.5t44 -46.5q13 19 30.5 31.5t34 20.5t30.5 10.5t22 2.5q43 0 71.5 -18t45.5 -42v114h142v-267h-142q-4 17 -11 32.5t-17.5 26.5t-26 18t-33.5 7q-41 0 -61.5 -23.5t-20.5 -60.5h-94q-3 12 -8 26.5t-12.5 27.5t-20.5 22q-15 8 -34 8 q-18 0 -31.5 -7t-22 -18t-12.5 -26.5t-4 -32.5h-114z" />
<glyph unicode="&#xe11;" horiz-adv-x="1127" d="M51 1229h152q0 -20 5.5 -38t19.5 -32.5t33.5 -23t45.5 -8.5q50 0 77 28.5t23 73.5h152v-131q37 39 72 67t70.5 46t72.5 27q35 9 77 9q37 0 65.5 -10.5t48 -35t30 -64t10.5 -97.5v-1040h-165v1031v23.5t-4.5 26t-14 20.5t-31.5 8q-31 0 -68.5 -25t-78 -66.5t-79.5 -93 t-73 -103t-61 -98.5t-41 -79q-16 -37 -24 -66.5t-10.5 -56t-2 -49t0.5 -42.5v-430h-163v378q0 33 -0.5 65t1 63t8.5 60t21 60q11 23 25 51.5t30.5 58.5t34.5 60t35 57q25 42 39 72t20.5 53t7.5 42.5t-2 38.5h-6q-5 -11 -18 -20.5t-31.5 -18t-40.5 -13.5t-47 -5 q-15 0 -37.5 3t-47.5 10.5t-49.5 23t-43.5 41t-29.5 62.5t-8.5 87z" />
<glyph unicode="&#xe12;" horiz-adv-x="1713" d="M122 0v915q0 64 24 117.5t65 94.5t98 68q58 28 125 38l133 -143l128 143q69 -10 127 -36.5t100.5 -68t65.5 -95.5t23 -118v-462q0 -32 3 -57.5t9 -48t14 -42.5q8 -21 19 -41q9 -19 30.5 -43t48.5 -44.5t59 -34.5t61 -14q46 0 79.5 16.5t54 46t30.5 71t10 88.5v879h163 v-930q0 -79 -22.5 -136t-60.5 -94.5t-89.5 -56t-110.5 -18.5q-91 0 -169 43.5t-135 120.5l3 -158h-163v870q0 67 -25 118.5t-81 81.5l-155 -153q-9 -8 -18.5 -8t-19.5 8l-151 153q-56 -30 -81.5 -81.5t-25.5 -118.5v-628l244 350h-134v128h303v-128l-413 -592h-166z" />
<glyph unicode="&#xe13;" horiz-adv-x="1659" d="M74 976q33 68 82.5 118.5t109 82.5t129 48t143.5 16q83 0 159 -21.5t133.5 -61.5t91.5 -100t34 -135v-573q0 -47 8.5 -88.5t28.5 -71t53.5 -46t83.5 -16.5q31 0 62 14t59 34.5t48.5 44.5t29.5 43q11 20 19.5 40.5t13 43t7.5 47.5t3 58v776h165v-1229h-162l2 158 q-55 -79 -133 -121.5t-168 -42.5q-60 0 -112 18.5t-90.5 56t-60 94.5t-21.5 136v584q0 52 -18.5 93t-52 70.5t-80 44.5t-103.5 15q-47 0 -91 -9.5t-80 -26t-64 -40.5t-44 -54q9 -9 18 -24t14.5 -35t9 -43t3.5 -46v-692h132v-136h-297v837q0 25 -3 47t-11 40t-20.5 32 t-30.5 20z" />
<glyph unicode="&#xe14;" horiz-adv-x="1116" d="M122 0v915q0 79 34 139.5t93.5 103.5t137.5 65q80 21 169 21q90 0 170 -21.5t140 -64.5t94 -104.5t34 -138.5v-915h-166v870q0 53 -16 97.5t-49 75.5t-85 49q-50 17 -122 17q-71 0 -121.5 -16.5t-83.5 -48.5t-48 -76q-15 -45 -15 -98v-628l244 350h-134v128h303v-128 l-413 -592h-166z" />
<glyph unicode="&#xe15;" horiz-adv-x="1132" d="M122 0v915q0 64 24 117.5t65 94.5t98 68q58 28 125 38l133 -143l128 143q69 -10 127 -36.5t100.5 -68t65.5 -95.5t23 -118v-915h-166v870q0 67 -25 118.5t-81 81.5l-155 -153q-9 -8 -18.5 -8t-19.5 8l-151 153q-56 -30 -81.5 -81.5t-25.5 -118.5v-628l244 350h-134v128 h303v-128l-413 -592h-166z" />
<glyph unicode="&#xe16;" horiz-adv-x="1089" d="M74 979q33 68 81 118.5t108.5 82.5t131.5 48t148 16q53 0 105.5 -9t99.5 -26.5t87.5 -44.5t69.5 -61.5t45.5 -79t16.5 -97.5v-926h-164v885q0 53 -18 94t-51 70.5t-81 44.5t-110 15q-51 0 -95.5 -9.5t-81.5 -26.5t-64 -40.5t-43 -53.5q9 -9 18 -24t14.5 -35.5t9 -43.5 t3.5 -45v-698h132v-133h-297v840q0 25 -3 48.5t-11 41.5t-20.5 30.5t-30.5 18.5z" />
<glyph unicode="&#xe17;" horiz-adv-x="1073" d="M122 0v1229h160v-159q71 86 157 130t184 44q68 0 128.5 -18t104 -55t69.5 -94.5t26 -136.5v-940h-166v888q0 47 -13 88t-40 70.5t-68 46t-94 16.5q-75 0 -128.5 -27.5t-87.5 -73.5t-50 -106t-16 -124v-778h-166z" />
<glyph unicode="&#xe18;" horiz-adv-x="1024" d="M117 965q0 61 26.5 112.5t74 89t116.5 59t152 21.5q92 0 166 -20t126.5 -60.5t80.5 -103t26 -146.5h-165q0 48 -16 84t-44.5 61t-69 38t-90.5 13t-90 -11t-68 -29.5t-42.5 -43.5t-14.5 -53q0 -45 23 -73.5t60.5 -48.5t84.5 -34t97 -30q62 -21 112 -40.5t89 -41t68 -46.5 t47 -57t27 -74t9 -96v-136q0 -79 -33.5 -137.5t-88 -97t-124 -57t-144.5 -18.5q-51 0 -98 8.5t-90 25t-80 42t-64 59.5t-42.5 78t-15.5 97v310h166v-267q0 -106 57.5 -163t166.5 -57t168 56t59 164v85q0 41 -9.5 72t-29 52.5t-46 36.5t-59 27.5t-71 24t-76.5 26.5 q-73 25 -134 52t-105 60.5t-68 78.5q-24 44 -24 108z" />
<glyph unicode="&#xe19;" horiz-adv-x="1073" d="M122 291v938h166v-887q0 -50 14 -91t41 -71t68.5 -46.5t94.5 -16.5q33 0 69.5 9.5t68.5 26.5t57 37q25 21 41 44q28 43 35.5 91.5t7.5 104.5v799h166v-1229h-161l5 158q-72 -86 -158.5 -130.5t-183.5 -44.5q-69 0 -129.5 18t-105 56.5t-70.5 96t-26 137.5z" />
<glyph unicode="&#xe1a;" horiz-adv-x="1073" d="M122 299v930h166v-887q0 -53 18.5 -93.5t52 -68.5t79.5 -43t100 -15t100 14t78.5 42t50.5 69.5t18 94.5v887h166v-930q0 -53 -17 -97t-46.5 -78t-69.5 -59.5t-85.5 -42t-95 -25t-99.5 -8.5t-99.5 8.5t-95.5 25t-86 42t-70.5 59.5t-47.5 78t-17 97z" />
<glyph unicode="&#xe1b;" horiz-adv-x="1073" d="M122 299v930h166v-887q0 -53 18.5 -93.5t52 -68.5t79.5 -43t100 -15t100 14t78.5 42t50.5 69.5t18 94.5v1343h166v-1386q0 -53 -17 -97t-46.5 -78t-69.5 -59.5t-85.5 -42t-95 -25t-99.5 -8.5t-99.5 8.5t-95.5 25t-86 42t-70.5 59.5t-47.5 78t-17 97z" />
<glyph unicode="&#xe1c;" horiz-adv-x="1160" d="M122 296v933h296v-134h-130v-761q0 -107 25.5 -155t78.5 -48q39 0 61 19.5t32 52t11.5 77.5t1.5 95v348h165v-348q0 -51 3 -95.5t14 -77t34 -52t63 -19.5q51 0 73.5 47t22.5 156v895h167v-933q0 -78 -17.5 -134t-49 -92.5t-74.5 -54.5t-96 -18q-82 0 -139.5 39t-85.5 111 q-23 -72 -76 -111t-135 -39q-56 0 -101 18t-77 54.5t-49.5 93.5t-17.5 133z" />
<glyph unicode="&#xe1d;" horiz-adv-x="1160" d="M122 296v933h296v-134h-130v-761q0 -107 25.5 -155t78.5 -48q39 0 61 19.5t32 52t11.5 77.5t1.5 95v348h165v-348q0 -51 3 -95.5t14 -77t34 -52t63 -19.5q51 0 73.5 47t22.5 156v1351h167v-1389q0 -78 -17.5 -134t-49 -92.5t-74.5 -54.5t-96 -18q-82 0 -139.5 39 t-85.5 111q-23 -72 -76 -111t-135 -39q-56 0 -101 18t-77 54.5t-49.5 93.5t-17.5 133z" />
<glyph unicode="&#xe1e;" horiz-adv-x="1352" d="M81 1229h175l122 -787l26 -263l30 263l158 787h174l157 -787l28 -263l25 263l122 787h178l-220 -1229h-189l-178 909l-16 164l-7 -164l-180 -909h-187z" />
<glyph unicode="&#xe1f;" horiz-adv-x="1352" d="M86 1229h175l123 -787l26 -263l29 263l159 787h173l158 -787l27 -263l25 263l175 1243h164l-258 -1685h-189l-178 909l-14 164l-8 -164l-181 -909h-185z" />
<glyph unicode="&#xe20;" horiz-adv-x="1100" d="M33 0v133h117v707q0 25 -2.5 48.5t-11 41.5t-21 30.5t-29.5 18.5q34 68 81.5 118.5t108 82.5t131.5 48t149 16q53 0 105 -9t98.5 -26.5t87 -44.5t69.5 -61.5t46 -79t17 -97.5v-926h-164v885q0 53 -18.5 94t-51.5 70.5t-81 44.5q-47 15 -108 15q-51 0 -96.5 -9.5 t-81.5 -26.5t-64 -40.5t-44 -53.5q9 -9 18 -24t15 -35.5t10 -43.5t4 -45v-831h-284z" />
<glyph unicode="&#xe21;" horiz-adv-x="1073" d="M122 0v1229h166v-799q0 -28 1.5 -54t6 -51t13.5 -47q11 -22 25 -44q15 -23 40.5 -43.5t57.5 -37.5t68 -27q37 -9 70 -9q54 0 94.5 16.5t67.5 46.5t40 71t13 91v887h166v-938q0 -80 -26 -137.5t-69.5 -96t-103.5 -56.5t-129 -18q-99 0 -184 45q-86 44 -157 130l3 -158 h-163z" />
<glyph unicode="&#xe22;" horiz-adv-x="1046" d="M95 348q0 30 1 63.5t8 65.5t21 62.5t37.5 57t60 46t87.5 30.5v5q-70 14 -112 44t-64.5 67.5t-29.5 80t-7 81.5q0 55 14 97t37.5 72.5t55.5 51.5t67 33.5t71.5 18t70.5 5.5h143v-134h-95q-13 0 -34 -0.5t-43.5 -5.5t-44 -14.5t-38.5 -27t-28.5 -44t-11.5 -63.5 q0 -59 18 -96.5t47.5 -59.5t68.5 -32t83 -13h78v-130h-78q-47 -3 -87.5 -11.5t-69.5 -34.5t-45.5 -75.5t-16.5 -131.5q0 -53 15 -97.5t46.5 -75.5t80.5 -48.5t116 -17.5q72 0 119.5 18.5t75 52t39.5 79.5t12 100v862h163v-904q0 -80 -27 -144t-79.5 -108t-127.5 -67 q-78 -23 -175 -23q-93 0 -170 22.5t-134 68.5t-87.5 114t-30.5 160z" />
<glyph unicode="&#xe23;" horiz-adv-x="870" d="M60 370h148q0 -54 14 -98.5t40.5 -76t68.5 -48t97 -16.5q50 0 89.5 12.5t67.5 38.5t42.5 65t14.5 89q0 39 -11 68.5t-30.5 52.5t-46 40t-57 31t-62.5 26.5t-62 25.5q-64 27 -117 54.5t-89 65t-56.5 89t-20.5 129t24.5 139t67.5 103.5t104.5 65t133.5 23q83 0 148.5 -20.5 t110 -64.5t66.5 -111.5t22 -161.5h-158q1 52 -8 94t-30 69.5t-54 42.5t-83 15q-41 0 -73.5 -13.5t-56 -38.5t-37 -59.5t-13.5 -76.5q0 -38 9 -65t26 -47.5t39 -34.5t47 -26t53.5 -22.5t56.5 -21.5q45 -18 86 -35.5t77 -38t64.5 -45.5t49.5 -57t32.5 -74t11.5 -97 q0 -88 -25.5 -158t-73.5 -119t-118 -75q-72 -26 -161 -26q-189 0 -280 100t-88 289z" />
<glyph unicode="&#xe24;" horiz-adv-x="1089" d="M74 979q33 68 81 118.5t108.5 82.5t131.5 48t148 16q53 0 105.5 -9t99.5 -26.5t87.5 -44.5t69.5 -61.5t45.5 -79t16.5 -97.5v-1324h-164v1283q0 53 -18 94t-51 70.5t-81 44.5t-110 15q-51 0 -95.5 -9.5t-81.5 -26.5t-64 -40.5t-43 -53.5q9 -9 18 -24t14.5 -35.5t9 -43.5 t3.5 -45v-698h132v-133h-297v840q0 25 -3 48.5t-11 41.5t-20.5 30.5t-30.5 18.5z" />
<glyph unicode="&#xe25;" horiz-adv-x="1046" d="M78 322q0 92 32.5 161t87.5 117.5t126 78.5t146.5 46.5t151.5 20.5q76 5 141 -1v167q0 53 -18 90.5t-50.5 62.5t-77 37.5t-100.5 12.5t-99.5 -17t-73.5 -46.5t-47 -71.5q-19 -42 -22 -92h-167q3 92 38.5 159.5t94.5 110.5t137 64.5t168 21.5q84 0 144.5 -18.5t103.5 -48 t68 -67t39 -73.5t19.5 -69.5t5.5 -52.5v-915h-163v606q-53 6 -111 4.5t-116 -13.5t-110.5 -33.5t-93.5 -53.5t-65.5 -78t-24.5 -104q0 -44 14.5 -80.5t42.5 -63t67.5 -40t92.5 -13.5q16 0 37 4t45 10v-128q-25 -14 -56.5 -19.5t-57.5 -5.5q-92 0 -157.5 25t-108.5 68.5 t-63 104t-20 132.5z" />
<glyph unicode="&#xe26;" horiz-adv-x="1100" d="M33 0v133h117v707q0 25 -2.5 48.5t-11 41.5t-21 30.5t-29.5 18.5q34 68 81.5 118.5t108 82.5t131.5 48t149 16q53 0 105 -9t98.5 -26.5t87 -44.5t69.5 -61.5t46 -79t17 -97.5v-1324h-164v1283q0 53 -18.5 94t-51.5 70.5t-81 44.5q-47 15 -108 15q-51 0 -96.5 -9.5 t-81.5 -26.5t-64 -40.5t-44 -53.5q9 -9 18 -24t15 -35.5t10 -43.5t4 -45v-831h-284z" />
<glyph unicode="&#xe27;" horiz-adv-x="935" d="M68 812q0 86 23 164t69 137.5t115.5 95t160.5 35.5q59 0 109.5 -13t94.5 -43t78.5 -78.5t59 -119t37.5 -165t13 -216.5q0 -64 -6 -135t-22 -140.5t-44 -132.5t-71 -112t-102.5 -77.5t-140.5 -28.5q-83 0 -145 26t-104.5 70.5t-68.5 103.5q-24 59 -35 127h172 q6 -36 18.5 -71t33.5 -62t53 -43.5t76 -16.5q46 0 79.5 18t56 50.5t38 78t23 101t10.5 117.5q3 60 3 127q0 33 0.5 84.5t-3.5 107t-15 110.5t-35.5 99.5t-64 71.5t-100.5 27q-41 0 -72 -12.5t-53.5 -35.5t-37.5 -52.5t-23.5 -63t-11 -68.5t-2.5 -65h-166z" />
<glyph unicode="&#xe28;" horiz-adv-x="1084" d="M122 0v915q0 79 31.5 139.5t87.5 103.5t132.5 64.5t167.5 21.5q61 0 113 -9t99 -28q37 2 63 14.5t41.5 29.5t23 35t7.5 32h180q-2 -28 -13 -57t-34 -55.5t-59 -47.5t-89 -31q42 -41 64 -93.5t22 -118.5v-915h-161v870q0 53 -14 97.5t-44.5 75.5t-79 48.5t-119.5 17.5 q-73 0 -120.5 -16.5t-77 -48.5t-42.5 -76q-13 -45 -13 -98v-332q25 53 58 90.5t75.5 59.5t94 30t115.5 2v-150q-78 14 -141 -0.5t-108.5 -52t-69.5 -95.5t-24 -131v-291h-166z" />
<glyph unicode="&#xe29;" horiz-adv-x="1073" d="M122 299v930h166v-887q0 -53 18.5 -93.5t52 -68.5t79.5 -43t100 -15t100 14t78.5 42t50.5 69.5t18 94.5v245h-326v236h155v-106h171v512h166v-512h111v-130h-111v-288q0 -53 -17 -97t-46.5 -78t-69.5 -59.5t-85.5 -42t-95.5 -25t-99 -8.5q-50 0 -99.5 8.5t-95.5 25 t-86 42t-70.5 59.5t-47.5 78t-17 97z" />
<glyph unicode="&#xe2a;" horiz-adv-x="1064" d="M92 322q0 92 32.5 161t87.5 117.5t126 78.5t146.5 46.5t151.5 20.5q76 5 141 -1v167q0 53 -17.5 89.5t-49.5 61t-77 35.5t-100.5 11t-99.5 -15t-74.5 -44.5t-48 -70.5t-19.5 -91h-169q4 92 39.5 159.5t94 110.5t137.5 65q80 21 169 21q61 0 107 -10q45 -11 84 -30 q41 0 70 12.5t47 30.5t26.5 37.5t8.5 33.5h182q-1 -31 -14.5 -63t-41 -59t-71 -47t-101.5 -24q28 -26 44.5 -55.5t25 -57.5t11 -54.5t2.5 -42.5v-915h-165v606q-53 6 -111.5 4.5t-116 -13.5t-110.5 -33.5t-94 -53.5t-65 -78t-24 -104q0 -44 14.5 -80.5t42.5 -63t67.5 -40 t92.5 -13.5q16 0 37 4t45 10v-128q-25 -14 -56.5 -19.5t-57.5 -5.5q-92 0 -157.5 25t-108.5 68.5t-63 104t-20 132.5z" />
<glyph unicode="&#xe2b;" horiz-adv-x="1084" d="M125 0v1229h166v-481l492 481h198l-239 -230q64 -23 104.5 -61.5t64 -89t33.5 -111.5t10 -131v-606h-164v628q0 45 -10 86.5t-29.5 76.5t-49.5 60q-31 26 -70 40l-340 -332v-559h-166z" />
<glyph unicode="&#xe2c;" horiz-adv-x="1295" d="M81 1229h169l81 -787l22 -263l54 263l134 569h162l131 -569l54 -263l32 263l47 395q6 60 9 109t-8.5 85.5t-40.5 55.5t-85 19l-16 117q50 0 97 11t83 32t60 53t29 79h189q-8 -58 -31.5 -99.5t-58.5 -71t-76 -46.5q-42 -16 -87 -25q37 -9 60.5 -33.5t37.5 -60.5t15 -83.5 t-8 -105.5l-137 -873h-216l-152 689l-11 167l-14 -167l-147 -689h-214z" />
<glyph unicode="&#xe2d;" horiz-adv-x="1086" d="M111 660v60h395v-133h-218q0 -103 12.5 -189.5t41 -149.5t77 -98.5t122.5 -35.5q78 0 127 36t78.5 101.5t40.5 156t11 195.5q0 136 -15.5 232t-46.5 156.5t-79 87.5t-116 27q-89 0 -147 -52.5t-84 -168.5h-179q33 171 136 263.5t274 92.5q111 0 193 -39.5t135.5 -114.5 t78.5 -183.5t25 -243.5q0 -130 -13 -231.5t-39 -177.5t-64 -127.5t-86 -83.5t-106.5 -45.5t-123.5 -13.5q-64 0 -122 13.5t-105 45.5t-84.5 85t-64 128t-40.5 176.5t-14 230.5z" />
<glyph unicode="&#xe2e;" horiz-adv-x="1088" d="M111 660v60h395v-133h-218q0 -103 12.5 -189.5t41 -149t77 -97t122.5 -34.5q78 0 127 36t78.5 100.5t40.5 154.5t11 195q0 136 -15.5 233.5t-46.5 158.5t-79 89.5t-116 28.5q-91 0 -148 -59t-83 -174h-179q16 86 51 153.5t86.5 114.5t119.5 73t153 26q55 0 106 -12 t92 -34q34 3 59 15.5t41.5 29t23.5 34.5t7 32h184q-2 -28 -15 -58.5t-38 -57.5t-65.5 -47t-95.5 -27q66 -78 99.5 -193.5t33.5 -268.5q0 -196 -30.5 -326.5t-86 -208.5t-136.5 -110t-179 -32q-64 0 -122 14t-105 46t-84.5 83.5t-64 126.5t-40.5 176.5t-14 230.5z" />
<glyph unicode="&#xe2f;" horiz-adv-x="1046" d="M97 951q0 51 14 92t37.5 71.5t55.5 53t67 36.5t71.5 19.5t70.5 5.5h143v-128h-95q-13 0 -34 -1.5t-43.5 -7t-44 -16.5t-38.5 -28t-28.5 -42t-11.5 -58t10 -66.5t35 -60t68 -42.5t110 -16q136 0 207.5 53.5t71.5 167.5v245h163v-1229h-163v739q-42 -52 -112.5 -82.5 t-164.5 -30.5q-95 0 -168 23.5t-122 65t-74 102t-25 134.5z" />
<glyph unicode="&#xe30;" horiz-adv-x="660" d="M122 195v212h145v-90h297v-122h-442zM122 828v214h145v-91h297v-123h-442z" />
<glyph unicode="&#xe31;" d="M-628 1412v231h144v-95h530v-136h-674z" />
<glyph unicode="&#xe32;" horiz-adv-x="870" d="M33 923q0 79 31.5 139t82 101t114.5 61t131 20q65 0 129 -20t115 -59.5t81 -99.5q31 -59 31 -139v-926h-164v891q0 53 -14 94t-39 68.5t-60 41.5q-37 14 -79 14q-39 0 -72.5 -12.5t-59.5 -36t-41.5 -58.5t-18.5 -79h-167z" />
<glyph unicode="&#xe33;" horiz-adv-x="870" d="M-407 1589q0 39 14.5 72t39.5 58t57.5 40t70.5 15q39 0 72 -15t58 -40t40.5 -59t15.5 -71.5t-15.5 -70.5t-40.5 -58.5t-58 -39t-72 -13.5q-38 0 -70.5 13.5t-57.5 39t-39.5 58.5t-14.5 71zM-299 1589q0 -16 6.5 -29.5t16 -23.5t23.5 -15.5t28 -5.5q17 0 30.5 5.5t24 15.5 t17 23.5t6.5 29.5t-6.5 29.5t-17 24.5t-24 16.5t-30.5 5.5q-14 0 -28 -5.5t-23.5 -16.5t-16 -24.5t-6.5 -29.5zM33 923q0 79 31.5 139t82 101t114.5 61t131 20q65 0 129 -20t115 -59.5t81 -99.5q31 -59 31 -139v-926h-164v891q0 53 -14 94t-39 68.5t-60 41.5q-37 14 -79 14 q-39 0 -72.5 -12.5t-59.5 -36t-41.5 -58.5t-18.5 -79h-167z" />
<glyph unicode="&#xe34;" d="M-948 1412l68 136h758v-136h-826z" />
<glyph unicode="&#xe35;" d="M-948 1412l68 136h613v185h145v-321h-826z" />
<glyph unicode="&#xe36;" d="M-948 1409l68 137h462q0 5 -1.5 13.5t-1.5 16.5q0 34 13 65t36 54t54 37q32 14 65 14t64 -14t53.5 -37t36.5 -53q13 -32 13 -66q0 -33 -13.5 -63.5t-36 -53.5t-53.5 -36.5t-64 -13.5h-695zM-317 1573q0 -25 19 -43q20 -18 45 -18q26 0 44.5 18t18.5 43t-19 44.5t-44 19.5 t-44.5 -19.5t-19.5 -44.5z" />
<glyph unicode="&#xe37;" d="M-948 1412l68 136h353v185h146v-185h114v185h145v-321h-826z" />
<glyph unicode="&#xe38;" d="M-367 -157h245v-446h-153v314h-92v132z" />
<glyph unicode="&#xe39;" d="M-728 -157h244v-204q0 -120 103 -120t103 120v204h153v-204q-1 -50 -14.5 -94.5t-44 -78t-79 -53t-118.5 -19.5q-69 0 -118 19.5t-79.5 53t-44.5 78t-15 94.5v75h-90v129z" />
<glyph unicode="&#xe3a;" d="M-336 -278q0 22 9.5 43t25 36.5t35.5 23.5q21 8 44 8q22 0 43 -8t36 -23.5t23.5 -36.5t8.5 -43t-8.5 -43t-23.5 -36.5t-36 -25t-43 -9.5q-23 0 -43.5 9.5t-36 25t-25 36.5t-9.5 43z" />
<glyph unicode="&#xe3e;" />
<glyph unicode="&#xe3f;" horiz-adv-x="1152" d="M153 0v1421h342v226h114v-226q99 0 171.5 -25t120 -71t70.5 -110.5t23 -144.5q0 -58 -10.5 -105.5t-36 -87t-69.5 -69.5t-109 -52v-3q73 -9 123 -37.5t81 -73t44 -101.5q14 -57 14 -121q3 -205 -105 -311q-109 -106 -317 -109v-228h-114v228h-342zM322 139h173v531h-173 v-531zM322 815h173v464h-3h-170v-464zM609 139q67 6 114 22.5t76 48.5t43 81.5t14 115.5q0 53 -9 92.5t-25 69t-39.5 48t-51.5 30.5t-58.5 16t-63.5 7v-531zM609 815q47 5 85.5 19t64 42t39.5 71t14 107q0 52 -11 92.5t-35 68.5t-62 42q-40 13 -95 15v-457z" />
<glyph unicode="&#xe40;" horiz-adv-x="429" d="M133 0v1229h163v-1229h-163z" />
<glyph unicode="&#xe41;" horiz-adv-x="777" d="M133 0v1229h163v-1229h-163zM481 0v1229h163v-1229h-163z" />
<glyph unicode="&#xe42;" horiz-adv-x="517" d="M0 1618l33 133h542l69 -133h-416q25 -20 46 -43.5t36 -51t23.5 -58.5t8.5 -64v-1265h128v-136h-293v1393q0 54 -14 95.5t-38.5 70t-56.5 44t-68 15.5z" />
<glyph unicode="&#xe43;" horiz-adv-x="508" d="M-78 1501q0 78 26.5 133.5t69.5 92.5t98.5 54.5t117.5 17.5q54 0 104 -12.5t88 -39t60.5 -66t22.5 -92.5q0 -43 -8.5 -69.5t-24.5 -48t-39 -42t-51 -47.5q-25 -25 -36 -49t-15 -47.5t-2.5 -50t1.5 -59.5v-1040h127v-136h-293v1190q0 50 5 87.5t16 69.5t31 58q19 24 50 49 q16 14 33 29t31.5 32t23.5 33q9 14 9 31q0 22 -9.5 39t-28 28.5t-43.5 18t-52.5 6.5t-54 -7t-49 -26.5t-36 -53t-16.5 -83.5h-156z" />
<glyph unicode="&#xe44;" horiz-adv-x="517" d="M-120 1618l69 133h526l34 -133q-31 -3 -60 -18t-52.5 -43t-39 -69.5t-15.5 -94.5v-1257h128v-136h-293v1401q0 33 9 64t24 58.5t36 51t45 43.5h-411z" />
<glyph unicode="&#xe45;" horiz-adv-x="870" d="M33 923q0 79 31.5 139t82 101t114.5 61t131 20q65 0 129 -20t115 -59.5t81 -99.5q31 -59 31 -139v-1324h-164v1289q0 53 -14 94t-39 68.5t-60 41.5q-37 14 -79 14q-39 0 -72.5 -12.5t-59.5 -36t-41.5 -58.5t-18.5 -79h-167z" />
<glyph unicode="&#xe46;" horiz-adv-x="975" d="M71 867q-6 71 4.5 135t44 115t90.5 85.5t146 47.5l111 -117l103 117q64 -6 110.5 -23.5t78 -46t50.5 -65t29 -78.5t12.5 -87.5t2.5 -93.5v-1251h-161v1272q0 31 -2.5 67t-11 68t-26.5 55t-49 28l-117 -119q-8 -11 -19 -11t-19 11l-120 119q-31 -11 -50 -32t-29.5 -48 t-14 -59t-0.5 -68q0 -25 5.5 -50.5t19 -45t36 -32t58.5 -12.5h22v-136h-22q-44 0 -91.5 15t-88 45.5t-69 79.5t-33.5 115z" />
<glyph unicode="&#xe47;" d="M-876 1640q0 50 10.5 87.5t28.5 64t42.5 43t52.5 26.5t56 14q27 4 55 4h492v-126h-475q-59 0 -88 -30t-29 -83q0 -25 5 -44.5t14 -33.5t24 -22t37.5 -8t36.5 9t22 25.5t11 39.5t3 52h121q0 -57 18.5 -91.5t60.5 -34.5q22 0 34.5 10.5t20 27.5t10 40t-0.5 48h139 q5 -78 -8.5 -127t-39.5 -77t-61.5 -37.5t-74.5 -9.5q-34 0 -61.5 10.5t-46.5 27.5t-32 38t-19 42q-5 -22 -16 -43.5t-30.5 -38.5t-46 -26.5t-59.5 -9.5q-53 0 -90.5 17t-64 48.5t-39 74.5t-12.5 93z" />
<glyph unicode="&#xe48;" d="M-261 1839v293h139v-293h-139z" />
<glyph unicode="&#xe49;" d="M-628 2021v114h230v-176q56 0 99 11.5t72.5 35t44.5 55.5t15 74h142q0 -58 -25.5 -111t-74.5 -94.5t-119 -66t-158 -24.5h-125v182h-101z" />
<glyph unicode="&#xe4a;" d="M-753 1839q0 69 12.5 117t34.5 77.5t51 41t63 11.5q28 0 48.5 -9.5t36 -25.5t25 -37.5t15.5 -43.5q3 23 13.5 44t27 37.5t40.5 25.5q22 9 52 9q28 0 53 -7t43 -24t29.5 -45t11.5 -70q16 6 31.5 22.5t26.5 39t18 50t7 58.5h128q0 -44 -14 -88.5t-39 -82t-62 -65t-81 -35.5 h-117q0 14 -2 36t-7.5 43t-16.5 36.5t-31 15.5q-18 0 -30.5 -13.5t-20 -33t-11 -42.5t-3.5 -42h-93q0 19 -3.5 42t-11.5 42.5t-19 33t-30.5 13.5t-30.5 -15.5t-16.5 -36.5t-7 -43t-1.5 -36h-119z" />
<glyph unicode="&#xe4b;" d="M-427 1996v114h174v150h131v-150h176v-114h-176v-160h-131v160h-174z" />
<glyph unicode="&#xe4c;" d="M-275 1696q0 55 25 108t72 94t116.5 65.5t158.5 26.5v-116q-55 0 -97 -13.5t-69.5 -36.5t-41.5 -55q-14 -34 -14 -73h-150z" />
<glyph unicode="&#xe4d;" d="M-407 1589q0 39 14.5 72t39.5 58t57.5 40t70.5 15q39 0 72 -15t58 -40t40.5 -59t15.5 -71.5t-15.5 -70.5t-40.5 -58.5t-58 -39t-72 -13.5q-38 0 -70.5 13.5t-57.5 39t-39.5 58.5t-14.5 71zM-299 1589q0 -16 6.5 -29.5t16 -23.5t23.5 -15.5t28 -5.5q17 0 30.5 5.5t24 15.5 t17 23.5t6.5 29.5t-6.5 29.5t-17 24.5t-24 16.5t-30.5 5.5q-14 0 -28 -5.5t-23.5 -16.5t-16 -24.5t-6.5 -29.5z" />
<glyph unicode="&#xe4e;" d="M-448 1440q0 45 12.5 90.5t40.5 83t69.5 65.5t100.5 38q11 89 93 140q82 50 227 56v-120q-101 0 -146.5 -37.5t-45.5 -120.5v-17h-23q-51 0 -85 -14t-54 -37.5t-28.5 -55.5t-8.5 -71h-152z" />
<glyph unicode="&#xe4f;" horiz-adv-x="1412" d="M92 612q0 84 21.5 162.5t61 147t95 124t123.5 95t147 61t163 21.5q85 0 163.5 -21.5t146 -61t124 -95t95 -124t61 -146t22.5 -163.5q0 -85 -22.5 -163t-61 -146t-95 -124.5t-124 -95.5t-146 -61t-163.5 -22q-84 0 -163 22t-147 61t-123.5 95.5t-95 124.5t-61 146 t-21.5 163zM247 614q0 -62 17 -120t46 -108.5t71 -92t92.5 -71.5t109 -47t120.5 -17q63 0 120.5 17t109 47t92.5 71.5t71 92t46.5 109t16.5 119.5q0 63 -16.5 121.5t-46.5 109t-71 92.5t-92.5 71t-109 45.5t-120.5 16.5q-62 0 -120.5 -16.5t-109 -45.5t-92.5 -71t-71 -92.5 t-46 -109t-17 -121.5zM381 614q0 67 25.5 125.5t69.5 103t102.5 69.5t124.5 25q67 0 125.5 -25t102 -69.5t69.5 -103t26 -125.5q0 -66 -26 -124.5t-69.5 -101.5t-102 -69t-125.5 -26q-66 0 -124.5 26t-102.5 69t-69.5 101.5t-25.5 124.5zM517 614q0 -39 15.5 -72t40.5 -58 t58 -39.5t72 -14.5t72.5 14.5t58.5 39.5t39.5 58t14.5 72t-14.5 72.5t-39.5 58.5t-58.5 40.5t-72.5 15.5t-72 -15.5t-58 -40.5t-40.5 -58.5t-15.5 -72.5z" />
<glyph unicode="&#xe50;" horiz-adv-x="1188" d="M95 541q0 130 33 231t97 169t156 104t211 36q118 0 211.5 -35t156.5 -104t96.5 -171t33.5 -234q0 -151 -38.5 -256.5t-106 -172t-157.5 -97t-196 -30.5q-104 0 -194.5 30.5t-158 97t-106 173.5t-38.5 259zM259 535q0 -96 22.5 -173.5t66.5 -132.5t105 -85t139 -30 t140.5 30t105.5 85t67 132.5t24 175.5q0 112 -26.5 190.5t-72.5 127.5t-107 71t-130.5 22t-129.5 -22t-106 -71t-72 -128t-26 -192z" />
<glyph unicode="&#xe51;" horiz-adv-x="1177" d="M36 150l124 111q22 -41 59 -70.5t83 -49t98.5 -27.5t109.5 -8q89 0 161.5 33t123 93.5t77.5 147.5t27 195q0 84 -17 155t-54.5 121.5t-99 79t-147.5 28.5q-72 0 -129 -21.5t-94.5 -56t-56.5 -79t-19 -90.5q0 -31 5 -60t16 -57t30.5 -49.5t50 -36t72.5 -19t97 4.5v-109 q-92 -22 -174 -6.5t-144.5 57t-98.5 107t-36 148.5q0 70 19 125.5t51.5 99t77.5 75t98 52.5t110.5 30.5t118.5 9.5q107 0 199.5 -28.5t161 -90t106.5 -157.5t38 -230q0 -128 -38 -237.5t-111 -189t-178 -124t-237 -44.5q-63 0 -127 5.5t-126.5 24t-120.5 51.5 q-59 33 -106 86z" />
<glyph unicode="&#xe52;" horiz-adv-x="1359" d="M31 1095l25 141q50 0 92 -18t73.5 -55t49.5 -93.5t18 -132.5v-489q0 -67 26 -127t78 -103t132.5 -68t187.5 -25q103 0 174.5 23.5t114.5 62.5t62 90.5t19 105.5v341q0 44 -7.5 76t-23.5 56t-38.5 37.5t-51.5 19.5l-145 -131l-139 123q-18 0 -38 -10.5t-36.5 -32 t-28 -53.5t-11.5 -75v-144q0 -30 1.5 -65t11.5 -64t30.5 -48t59.5 -19h56v-119h-75q-59 0 -99 16t-68 41t-44.5 58.5t-25 68t-11 69.5t-2.5 62v125q0 66 20 125t58 104t94 75t125 38l122 -118l116 118q69 -4 127 -28t99.5 -64.5t65 -95.5t23.5 -119v-329q0 -121 -37.5 -208 t-103 -142.5t-153 -82t-184.5 -26.5h-100q-133 0 -234.5 35t-171 97.5t-104.5 151.5t-35 197v432q0 53 -5.5 91.5t-16.5 61t-29 33t-43 10.5z" />
<glyph unicode="&#xe53;" horiz-adv-x="1207" d="M103 457v127q0 122 23.5 211t68 149.5t110 93t151.5 43.5l144 -139l162 139q89 -8 153 -41.5t106 -84.5t62.5 -119.5t20.5 -143.5v-692h-167v692q0 56 -12.5 97.5t-35 71.5t-52.5 46q-28 16 -61 16l-176 -149l-159 149q-27 0 -57 -15.5t-55 -53t-41.5 -102t-16.5 -165.5 v-134q0 -33 0.5 -69t5 -72.5t13.5 -69t25 -57.5t41 -39.5t61 -14.5q11 0 25 0.5t29 2t32 3.5t31 5v-139q-11 -3 -32 -6t-46 -5t-51.5 -2.5t-45.5 2.5q-64 8 -108 34.5t-72.5 65.5t-43.5 85.5t-22 95t-8.5 96.5t-1.5 88z" />
<glyph unicode="&#xe54;" horiz-adv-x="1167" d="M92 450v153q0 117 38 204t109 143t172 84t223 28h130q53 0 86.5 12t53 33.5t27.5 52.5q7 30 7 69h174q0 -36 -5.5 -73t-20 -71t-39 -64.5t-62 -53t-90.5 -35t-122 -12.5h-159q-83 0 -148.5 -19.5t-111 -55.5t-70.5 -89t-25 -122v-175q0 -68 19 -127.5t58 -102.5 t100.5 -68t147.5 -25h50q-22 11 -46 29t-42 45.5t-29.5 64t-11.5 84.5q0 15 2 38t11 48t27 50.5t50 46t80 33t117 12.5v-134q-47 0 -72.5 -12.5t-37.5 -30.5t-15 -37.5t-3 -33.5q0 -28 10 -53t26.5 -47t37 -41.5t41 -32.5t40 -21t33.5 -8h260v-136h-556q-92 0 -163 19.5 t-122 53t-86 78.5t-56 95t-29 102t-8 102z" />
<glyph unicode="&#xe55;" horiz-adv-x="1167" d="M92 450v153q0 92 23.5 165.5t69.5 128t110.5 90.5t146.5 55q-3 6 -5.5 16t-5.5 19.5t-4.5 19t-1.5 18.5q0 39 15 73.5t40.5 61t59.5 41t73 14.5q40 0 75 -14.5t60.5 -41t40 -61t14.5 -73.5q0 -11 -1 -23.5t-7 -29.5q42 3 69.5 17t44.5 35.5t23 50.5q6 28 6 64h174 q0 -36 -5.5 -73t-20 -71t-39 -64.5t-62 -53t-90.5 -35t-122 -12.5h-159q-83 0 -148.5 -19.5t-111 -55.5t-70.5 -89t-25 -122v-175q0 -68 19 -127.5t58 -102.5t100.5 -68t147.5 -25h50q-22 11 -46 29t-42 45.5t-29.5 64t-11.5 84.5q0 15 2 38t11 48t27 50.5t50 46t80 33 t117 12.5v-134q-47 0 -72.5 -12.5t-37.5 -30.5t-15 -37.5t-3 -33.5q0 -28 10 -53t26.5 -47t37 -41.5t41 -32.5t40 -21t33.5 -8h260v-136h-556q-92 0 -163 19.5t-122 53t-86 78.5t-56 95t-29 102t-8 102zM550 1115q0 -28 18.5 -47t44.5 -19q31 0 49.5 19t18.5 47 q0 30 -19.5 49t-48.5 19q-26 0 -44.5 -19t-18.5 -49z" />
<glyph unicode="&#xe56;" horiz-adv-x="1224" d="M56 1093l127 80l113 -203q21 13 55.5 31t80.5 34.5t103 28.5t125 15q95 2 168 -16t125.5 -52t89 -82t58 -103.5t30.5 -117.5t9 -124v-109q0 -100 -30.5 -189t-94 -155.5t-160 -105.5t-227.5 -39q-94 0 -172 26t-132 71t-83.5 107.5t-29.5 137.5q0 70 22.5 121t62.5 83 t98.5 47.5t128.5 15.5h61v-120h-53q-47 0 -76.5 -11t-46 -31t-23.5 -47t-7 -57q0 -44 19.5 -81.5t53.5 -64.5t82 -42.5t106 -15.5q67 0 127 23.5t105 69t71.5 110t26.5 145.5v105q0 178 -76 268.5t-222 90.5q-58 0 -112 -10t-106.5 -30.5t-105 -52t-105.5 -73.5z" />
<glyph unicode="&#xe57;" horiz-adv-x="1435" d="M120 461v114q0 234 90 356.5t260 144.5l118 -139l124 136q100 -11 165 -50t102.5 -101.5t53 -148.5t15.5 -189v-117q0 -37 -3 -79.5t-10.5 -84.5t-19 -79.5t-28.5 -66.5q30 20 54.5 51t43.5 67t31.5 77t21.5 81t12.5 76t3.5 64v364q0 76 18 132.5t49 93.5t73.5 55 t92.5 18l25 -141q-25 0 -43 -10.5t-29 -33t-16.5 -60t-5.5 -92.5v-307q0 -64 -11.5 -129t-33.5 -126.5t-55.5 -117t-79 -101.5t-102.5 -79t-127 -50l-125 103q36 41 55 83.5t28 88t11.5 94.5t2.5 103v123q0 87 -12.5 149t-33 101t-48.5 58.5t-61 22.5l-138 -139l-132 141 q-29 0 -59 -18t-53.5 -58t-39.5 -105.5t-16 -157.5v-111q0 -28 0.5 -64t5.5 -72t14 -71t25.5 -62.5t42.5 -44.5t62 -17q8 0 20.5 1t24.5 1.5t23 2.5q11 1 17 4l4 -137q-11 -2 -28.5 -6.5t-37 -6.5t-41.5 -2t-43 4q-61 14 -103.5 42.5t-70.5 67t-44.5 83t-25 91.5t-11 93 t-2.5 87z" />
<glyph unicode="&#xe58;" horiz-adv-x="1213" d="M120 378v225q0 107 29 192t87.5 144t146.5 91q87 32 204 32h233q50 0 80 12t46.5 33.5t22.5 52.5q5 30 5 69h173q0 -36 -5 -73.5t-19 -72.5t-36 -65.5t-57.5 -54t-85 -36t-113.5 -12.5h-262q-78 0 -131.5 -24t-87 -62.5t-49 -89t-15.5 -105.5v-256q0 -47 14 -89t36.5 -74 t51.5 -49t62 -17l164 147l174 -147q36 0 64 9.5t46.5 34.5t28.5 67.5t10 109.5q0 28 -3 56.5t-12.5 52.5t-30.5 42t-57 27q-10 2 -21.5 2h-24.5v120h49q58 -4 100.5 -18.5t72.5 -37t47 -51.5t27.5 -61t13.5 -67t3 -68q0 -93 -18 -163.5t-57 -118t-101.5 -72t-153.5 -24.5 l-157 136l-147 -136q-89 5 -154.5 38.5t-108.5 86.5t-63.5 121t-20.5 143z" />
<glyph unicode="&#xe59;" horiz-adv-x="1248" d="M114 459v105q0 124 14 219t50 161.5t98.5 100.5t159.5 34q45 0 80.5 -5.5t65.5 -21t55 -43.5t47 -72q3 35 10.5 57.5t20 36.5t28.5 20.5t35.5 8.5t40.5 2h43h58q47 0 75.5 12t43.5 33.5t19 52.5q5 30 5 69h171q0 -36 -4 -73t-16.5 -71t-33.5 -64.5t-55 -53t-82 -35 t-114 -12.5h-38q-33 0 -54 -2.5t-33 -18.5t-16 -49t-4 -92l272 -758h-169l-273 758q-15 41 -32.5 74.5t-38 56.5t-47.5 35q-26 13 -62 13q-38 0 -66.5 -18t-47 -61t-27.5 -112.5t-9 -172.5v-131q0 -31 1 -66t5.5 -69.5t12.5 -65.5t23.5 -55.5t39 -38.5t59.5 -14q39 0 67 9 l22 -136q-11 -3 -28.5 -6t-37.5 -5t-42 -2.5t-42 1.5q-62 9 -106 34t-71 60.5t-41.5 80.5t-21.5 93.5t-8.5 98.5t-1.5 98z" />
<glyph unicode="&#xe5a;" horiz-adv-x="1396" d="M97 951q0 51 14 92t37.5 71.5t55.5 53t67 36.5t71.5 19.5t70.5 5.5h143v-128h-95q-13 0 -34 -1.5t-43.5 -7t-44 -16.5t-38.5 -28t-28.5 -42t-11.5 -58t10 -66.5t35 -60t68 -42.5t110 -16q136 0 207.5 53.5t71.5 167.5v245h163v-1229h-163v739q-42 -52 -112.5 -82.5 t-164.5 -30.5q-95 0 -168 23.5t-122 65t-74 102t-25 134.5zM1109 0v1229h164v-1229h-164z" />
<glyph unicode="&#xe5b;" horiz-adv-x="2575" d="M97 634q0 65 14.5 132.5t44 131.5t72.5 119t99.5 96t126 64.5t149.5 23.5q114 0 196 -36t133.5 -96.5t76.5 -138t25 -156.5l-151 -3q0 64 -17.5 113.5t-49.5 84.5t-79 53q-48 20 -109 23q-86 0 -152.5 -33t-113 -91.5t-71 -135t-24.5 -165.5q0 -85 30.5 -162t86 -137 t135 -95.5t176.5 -35.5q92 0 164 27.5t127 76.5t94 116.5t63.5 148t35.5 169.5t11 184l119 64q34 -36 66 -78.5t61 -86.5t52 -84q24 -40 38 -72q17 27 39 62.5t47 74t51.5 76.5t53.5 72q22 -34 45.5 -71.5t45 -76.5t42 -73.5t35.5 -61.5q14 23 32 47t35.5 48t32 43.5 t22.5 30.5h359l103 -163h-423q-17 -24 -37.5 -54.5t-43 -65t-43 -69.5t-37.5 -67q-20 39 -40.5 78.5t-43 77t-43 72.5t-41.5 63q-23 -28 -48.5 -65t-50.5 -80.5t-50 -93.5t-42 -103q-18 53 -43.5 106.5t-53.5 103.5t-57 93.5t-54 77.5q0 -100 -22.5 -192t-62.5 -171 t-97 -143t-126.5 -110t-151.5 -71t-171 -25q-95 0 -175.5 25t-146 68t-115.5 101.5t-84.5 126t-51.5 142t-17 146.5z" />
<glyph unicode="&#x2000;" horiz-adv-x="1136" />
<glyph unicode="&#x2001;" horiz-adv-x="2273" />
<glyph unicode="&#x2002;" horiz-adv-x="1136" />
<glyph unicode="&#x2003;" horiz-adv-x="2273" />
<glyph unicode="&#x2004;" horiz-adv-x="757" />
<glyph unicode="&#x2005;" horiz-adv-x="568" />
<glyph unicode="&#x2006;" horiz-adv-x="378" />
<glyph unicode="&#x2007;" horiz-adv-x="378" />
<glyph unicode="&#x2008;" horiz-adv-x="284" />
<glyph unicode="&#x2009;" horiz-adv-x="454" />
<glyph unicode="&#x200a;" horiz-adv-x="126" />
<glyph unicode="&#x200b;" />
<glyph unicode="&#x2010;" horiz-adv-x="706" d="M92 424v135h522v-135h-522z" />
<glyph unicode="&#x2011;" horiz-adv-x="706" d="M92 424v135h522v-135h-522z" />
<glyph unicode="&#x2012;" horiz-adv-x="706" d="M92 424v135h522v-135h-522z" />
<glyph unicode="&#x2013;" horiz-adv-x="1085" d="M0 530v143h1086v-143h-1086z" />
<glyph unicode="&#x2014;" horiz-adv-x="1551" d="M0 530v143h1551v-143h-1551z" />
<glyph unicode="&#x2018;" horiz-adv-x="451" d="M131 1008v187q0 48 7.5 94.5t27.5 86t56 68.5q37 28 92 39v-87q-33 -9 -52.5 -29t-28.5 -48.5t-11 -60t-2 -60.5h94v-190h-183z" />
<glyph unicode="&#x2019;" horiz-adv-x="451" d="M139 976v87q33 9 52.5 29t28.5 48.5t11.5 60t2.5 61.5h-95v189h183v-186q0 -47 -7.5 -94.5t-27.5 -86.5t-56 -68t-92 -40z" />
<glyph unicode="&#x201c;" horiz-adv-x="793" d="M131 1008v187q0 48 7 94.5t27.5 86t55.5 68t92 39.5v-87q-34 -9 -52.5 -29t-28.5 -48.5t-12 -60t-2 -60.5h95v-190h-182zM474 1008v187q0 48 7.5 94.5t28 86t55.5 68t91 39.5v-87q-33 -9 -51 -29t-28 -48.5t-12.5 -60t-2.5 -60.5h94v-190h-182z" />
<glyph unicode="&#x201d;" horiz-adv-x="793" d="M138 976v87q33 9 51.5 29t28.5 48.5t12 60t2 61.5h-94v189h182v-186q0 -47 -7 -94.5t-28 -86.5t-55.5 -68t-91.5 -40zM481 976v87q33 9 52.5 29t28.5 48.5t11 60t2 61.5h-94v189h183v-186q0 -47 -7.5 -94.5t-27.5 -86.5t-56 -68t-92 -40z" />
<glyph unicode="&#x2022;" horiz-adv-x="750" d="M74 567q0 59 24 110t64.5 90t96 61.5t116.5 22.5t117 -22.5t97.5 -61.5t66.5 -91q25 -50 25 -109q0 -60 -25 -113.5t-66.5 -92.5t-96.5 -62q-57 -24 -118 -24t-116.5 23.5t-96 62.5t-64.5 92.5t-24 113.5z" />
<glyph unicode="&#x202f;" horiz-adv-x="454" />
<glyph unicode="&#x205f;" horiz-adv-x="568" />
<glyph unicode="&#x20ac;" horiz-adv-x="1166" d="M0 550v103h158v153h-158v103h168q6 67 20.5 132t38 123.5t60.5 108.5t88.5 86.5t120 57t156.5 20.5q108 0 191 -34.5t138.5 -96t82 -143.5t23.5 -176h-167q-1 64 -15.5 119.5t-46.5 98.5t-86.5 67.5t-133.5 24.5q-53 0 -94.5 -16t-73 -44t-53.5 -65.5t-37.5 -80.5 t-23.5 -90t-14 -92h384v-103h-390v-153h390v-103h-387q3 -51 9 -103t19.5 -99.5t35 -89t54 -72t77 -47.5t104.5 -17q86 0 141.5 30.5t87 83.5t43.5 124q13 71 10 149h167q4 -105 -17.5 -200t-74.5 -168.5t-137.5 -118t-205.5 -44.5q-99 0 -172.5 22t-126.5 61.5t-87.5 94 t-56 117.5t-32 134t-16.5 143h-161z" />
<glyph unicode="&#x2122;" horiz-adv-x="1608" d="M57 1307v114h571v-114h-224v-687h-122v687h-225zM748 620v801h183l210 -598l214 598h180v-801h-114v681h-3l-245 -681h-69l-239 681h-3v-681h-114z" />
<glyph unicode="&#x25cc;" horiz-adv-x="1366" d="M334 584l90 44q-3 -22 -3 -47q0 -24 3 -43zM430 336l34 94q27 -38 63 -66zM448 834l90 -33q-43 -25 -68 -62zM634 840l50 91l42 -89q-20 3 -39 3q-28 0 -53 -5zM641 320q23 -6 46 -6q19 0 36 6l-39 -86zM834 801l103 33l-38 -97q-26 39 -65 64zM837 361q35 24 60 57 l26 -82zM948 543q3 14 3 38q0 22 -3 45l86 -45z" />
<glyph unicode="&#x25fc;" horiz-adv-x="1077" d="M0 0v1077h1077v-1077h-1077z" />
<glyph unicode="&#xf700;" horiz-adv-x="936" d="M54 870q0 81 26 149t76 118t124 79q76 28 173 28q45 0 90 -8q46 -10 88 -27q33 6 58 18.5t40 28.5t22 32.5t7 29.5h182q-2 -27 -13.5 -56t-36.5 -55.5t-61.5 -48t-86.5 -31.5q22 -25 39 -57.5t28 -72t14.5 -87.5t-0.5 -104q-3 -50 -11.5 -96.5t-21 -97t-29.5 -110 t-41 -132.5t-54.5 -164t-67.5 -206h-223l-178 600h-129v120h254l167 -581q28 89 49 159t37.5 126t29 101t21.5 85.5t15.5 79t10.5 84.5q5 66 -2.5 126t-32.5 107t-66.5 74.5t-100.5 27.5q-105 0 -161.5 -59.5t-60.5 -179.5h-174z" />
<glyph unicode="&#xf701;" d="M-1065 1412l68 136h573v-136h-641z" />
<glyph unicode="&#xf702;" d="M-1065 1412l68 136h427v185h146v-321h-641z" />
<glyph unicode="&#xf703;" d="M-1065 1412l68 136h258q0 7 -1.5 15t-1.5 16q0 33 13 64.5t36 54.5t53.5 37t64.5 14q33 0 64 -14t54 -37t37 -54q13 -32 13 -65t-13.5 -63.5t-36.5 -53.5t-53 -37q-32 -13 -65 -13h-490zM-638 1576q0 -25 19 -43t44 -18t44 18t19 43t-18 45q-20 19 -45 19 q-27 0 -45 -19.5t-18 -44.5z" />
<glyph unicode="&#xf704;" d="M-1065 1412l68 136h226v185h116v-185h114v185h117v-321h-641z" />
<glyph unicode="&#xf705;" d="M-550 1412v294h129v-294h-129z" />
<glyph unicode="&#xf706;" d="M-965 1592v114h231v-177q56 0 98 12.5t70.5 36t42.5 55.5t14 73h148q0 -57 -25 -110t-74 -93.5t-118.5 -65.5t-158.5 -25h-125v180h-103z" />
<glyph unicode="&#xf707;" d="M-1070 1407q0 71 12.5 118t33 75.5t48.5 41t59 12.5q25 0 45 -9.5t34.5 -26.5t23 -37.5t13.5 -43.5q3 24 13 45.5t26 37t37.5 25t48.5 9.5q24 0 47 -7t41 -23.5t29 -44.5t13 -69q14 5 28.5 21t25.5 38.5t18 49.5t7 57h119q0 -44 -12.5 -88t-36.5 -82t-58 -64.5t-77 -34.5 h-112q0 14 -0.5 36t-6 43t-15.5 36t-29 15q-17 0 -28.5 -13t-19.5 -33t-11.5 -42.5t-3.5 -41.5h-87q0 19 -3 41.5t-10 42.5t-18 33q-14 13 -30 13q-18 0 -28 -15t-15 -36t-6 -43t-1 -36h-114z" />
<glyph unicode="&#xf708;" d="M-894 1571v114h174v151h128v-151h179v-114h-179v-162h-128v162h-174z" />
<glyph unicode="&#xf709;" d="M-771 1412q0 56 25 108.5t72.5 93t117.5 65.5t158 27v-117q-55 0 -97.5 -12.5t-71 -35.5t-42.5 -55.5t-14 -73.5h-148z" />
<glyph unicode="&#xf70a;" d="M-288 1412v294h166v-294h-166z" />
<glyph unicode="&#xf70b;" d="M-639 1590v114h230v-176q56 0 99 13t71 35t42 55.5t14 72.5h148q0 -57 -25 -109.5t-73 -93.5t-118 -66q-71 -24 -160 -24h-126v179h-102z" />
<glyph unicode="&#xf70c;" d="M-880 1409q0 87 14.5 144t40.5 92.5t60 50.5t70 15q31 0 55 -12t41.5 -32t27.5 -45q9 -26 12 -51q6 26 18.5 52t31 45t46 31t61.5 12q31 0 58 -13t46.5 -35.5t30.5 -53.5t14 -69q17 6 33.5 24t30.5 44.5t22.5 58.5t8.5 66h139q0 -51 -15.5 -104t-42.5 -98.5t-67.5 -77.5 t-91.5 -44h-131v28.5t-3 34.5l-6 36t-9.5 32t-16 22.5t-25.5 8.5q-22 0 -36.5 -17t-23 -40.5t-12.5 -52t-4 -52.5h-103q0 24 -4 52.5t-12.5 52t-23.5 40.5q-16 17 -35 17q-15 0 -25.5 -8.5t-17.5 -22.5t-10.5 -32t-5.5 -36t-2 -34.5v-28.5h-138z" />
<glyph unicode="&#xf70d;" d="M-448 1571v119h178v149h148v-149h176v-119h-176v-159h-148v159h-178z" />
<glyph unicode="&#xf70e;" d="M-421 1409q0 64 25.5 122.5t78.5 103t132 71t185 27.5v-128q-61 0 -108.5 -13.5t-78.5 -39.5t-47 -62t-16 -81h-171z" />
<glyph unicode="&#xf70f;" horiz-adv-x="1656" d="M57 979q33 68 82.5 118.5t109.5 82.5t129.5 48t142.5 16q84 0 159.5 -21.5t133.5 -62t92 -100t34 -134.5v-578q0 -48 11.5 -89.5t34.5 -71t58.5 -46t82.5 -16.5h52q47 0 82.5 16.5t60 46t36 71t11.5 89.5v881h163v-933q0 -81 -31.5 -138.5t-82 -95t-114.5 -54t-131 -16.5 h-46q-65 0 -128.5 18t-113.5 55.5t-80.5 94.5t-30.5 136v589q0 53 -18.5 94t-52 70.5t-79.5 44.5t-103 15q-47 0 -91 -9.5t-80 -26.5t-63.5 -40.5t-44.5 -53.5q10 -9 18 -24t14.5 -35.5t10 -43.5t3.5 -45v-700h130v-131h-296v840q0 25 -3.5 48.5t-11 41.5t-20 30.5 t-30.5 18.5z" />
<glyph unicode="&#xf710;" d="M-769 1412v231h146v-95h743l2 -136h-891z" />
<glyph unicode="&#xf711;" d="M-777 1621q0 39 14.5 72t39.5 58t58 39t70 14q39 0 72.5 -14t58.5 -39t39 -59q15 -32 15 -71q0 -38 -14.5 -72t-39.5 -58.5t-58.5 -39t-72.5 -14.5q-37 0 -70 14.5t-58 39t-39.5 58.5t-14.5 72zM-670 1621q0 -16 6.5 -29.5t16.5 -24t24 -16t28 -5.5q17 0 31 5.5t23.5 16 t16.5 23.5t7 29.5t-7 30t-16.5 24t-23.5 16t-31 5.5q-14 0 -28 -5.5t-24 -16t-16.5 -24t-6.5 -29.5z" />
<glyph unicode="&#xf712;" d="M-1056 1640q0 50 10 87t27.5 63.5t41 43.5t50 27t54.5 14t56 4h475v-126h-460q-56 0 -84.5 -30.5t-28.5 -83.5q0 -47 18.5 -77t58.5 -30q19 0 32.5 9t21.5 25t13 39q4 21 4 49h118q1 -28 6 -50t14 -38t23 -25t32 -9q19 0 32.5 9.5t21 25.5t9.5 39t2 48h134 q2 -76 -11.5 -124t-38.5 -76t-58.5 -37.5t-69.5 -9.5q-34 0 -60 10.5t-45.5 27.5t-32 38t-18.5 42q-3 -22 -14.5 -43.5t-30.5 -38.5t-44 -26.5t-58 -9.5q-50 0 -87.5 17t-62.5 48.5t-37.5 74.5t-12.5 93z" />
<glyph unicode="&#xf713;" d="M-564 1839v293h141v-293h-141z" />
<glyph unicode="&#xf714;" d="M-859 2021v114h231v-176q55 0 98.5 11.5t73 35t45 55.5t15.5 74h140q0 -58 -25 -111t-73.5 -94.5t-118 -66t-158.5 -24.5h-125v182h-103z" />
<glyph unicode="&#xf715;" d="M-973 1839q0 69 12.5 117t34.5 77.5t51.5 41t62.5 11.5q28 0 49 -9.5t36 -25.5t25 -37.5t15 -43.5q3 23 14 44t28 37.5t40 25.5q21 9 52 9q29 0 53.5 -7t43 -24t29 -45t11.5 -70q17 6 31.5 22.5t25.5 39t18 50t7 58.5h128q0 -44 -14 -88.5t-39 -82t-61.5 -65t-81.5 -35.5 h-115q0 14 -2 36t-8.5 43t-17.5 36.5t-30 15.5t-31.5 -13.5t-20 -33t-11 -42.5t-3.5 -42h-93q0 19 -2.5 42t-10.5 42.5t-19.5 33t-31 13.5t-31 -15.5t-17 -36.5t-6.5 -43t-1 -36h-120z" />
<glyph unicode="&#xf716;" d="M-726 2002v114h173v150h129v-150h177v-114h-177v-163h-129v163h-173z" />
<glyph unicode="&#xf717;" d="M-575 1717q0 58 25 111t72.5 94t116.5 65t158 26v-117q-56 0 -97.5 -12.5t-69.5 -36t-42.5 -57t-14.5 -73.5h-148z" />
<glyph unicode="&#xf718;" d="M-367 -509h245v-445h-153v316h-92v129z" />
<glyph unicode="&#xf719;" d="M-728 -509h244v-205q0 -120 103 -120t103 120v205h153v-205q-1 -50 -14.5 -94.5t-44 -78t-79 -53t-118.5 -19.5q-69 0 -118 19.5t-79.5 53t-44.5 78t-15 94.5v76h-90v129z" />
<glyph unicode="&#xf71a;" d="M-336 -605q0 23 9.5 43.5t25 36t35.5 24.5q21 9 44 9q22 0 43 -9t36 -24.5t23.5 -35.5t8.5 -44q0 -22 -8.5 -43t-23.5 -36t-36 -24t-43 -9q-23 0 -43.5 9t-36 24t-25 36t-9.5 43z" />
<glyph unicode="&#xf71d;" horiz-adv-x="1195" d="M54 1229h171l79 -787l24 -263l53 263l133 569h164l131 -569l53 -263l32 263l48 395q6 60 9 109t-8.5 85.5t-40.5 55.5t-85 19l-16 117q51 0 97.5 11t82.5 32t60 53t29 79h188q-8 -58 -31 -99.5t-58 -71t-77 -46.5q-43 -16 -87 -25q36 -9 60.5 -33.5t38.5 -60.5t15 -83.5 t-10 -105.5l-136 -873h-215l-152 689l-11 167l-14 -167l-147 -689h-214z" />
<glyph d="M-726 1440q0 45 12.5 90.5t39 83t68.5 65.5t100 38q11 89 93 140q82 50 228 56v-120q-103 0 -148 -37.5t-45 -120.5v-17h-24q-51 0 -84.5 -14t-54.5 -37.5t-29 -55.5t-8 -71h-148z" />
<glyph horiz-adv-x="870" d="M-777 1621q0 39 14.5 72t39.5 58t58 39t70 14q39 0 72.5 -14t58.5 -39t39 -59q15 -32 15 -71q0 -38 -14.5 -72t-39.5 -58.5t-58.5 -39t-72.5 -14.5q-37 0 -70 14.5t-58 39t-39.5 58.5t-14.5 72zM-670 1621q0 -16 6.5 -29.5t16.5 -24t24 -16t28 -5.5q17 0 31 5.5t23.5 16 t16.5 23.5t7 29.5t-7 30t-16.5 24t-23.5 16t-31 5.5q-14 0 -28 -5.5t-24 -16t-16.5 -24t-6.5 -29.5zM33 923q0 79 31.5 139t82 101t114.5 61t131 20q65 0 129 -20t115 -59.5t81 -99.5q31 -59 31 -139v-926h-164v891q0 53 -14 94t-39 68.5t-60 41.5q-37 14 -79 14 q-39 0 -72.5 -12.5t-59.5 -36t-41.5 -58.5t-18.5 -79h-167z" />
<glyph horiz-adv-x="870" d="M-777 1621q0 39 14.5 72t39.5 58t58 39t70 14q39 0 72.5 -14t58.5 -39t39 -59q15 -32 15 -71q0 -38 -14.5 -72t-39.5 -58.5t-58.5 -39t-72.5 -14.5q-37 0 -70 14.5t-58 39t-39.5 58.5t-14.5 72zM-670 1621q0 -16 6.5 -29.5t16.5 -24t24 -16t28 -5.5q17 0 31 5.5t23.5 16 t16.5 23.5t7 29.5t-7 30t-16.5 24t-23.5 16t-31 5.5q-14 0 -28 -5.5t-24 -16t-16.5 -24t-6.5 -29.5zM33 923q0 79 31.5 139t82 101t114.5 61t131 20q65 0 129 -20t115 -59.5t81 -99.5q31 -59 31 -139v-926h-164v891q0 53 -14 94t-39 68.5t-60 41.5q-37 14 -79 14 q-39 0 -72.5 -12.5t-59.5 -36t-41.5 -58.5t-18.5 -79h-167z" />
<glyph d="M-862 1412l67 136h673v-136h-740z" />
<glyph d="M-862 1412l67 136h528v185h145v-321h-740z" />
<glyph d="M-862 1409l67 137h377q0 5 -1.5 13.5t-1.5 16.5q0 34 13 65t36 54t54 37q32 14 65 14t64 -14t53.5 -37t36.5 -53q13 -32 13 -66q0 -33 -13.5 -63.5t-36 -53.5t-53.5 -36.5t-64 -13.5h-609zM-317 1573q0 -25 19 -43q20 -18 45 -18q26 0 44.5 18t18.5 43t-19 44.5t-44 19.5 t-44.5 -19.5t-19.5 -44.5z" />
<glyph d="M-862 1412l67 136h268v185h146v-185h114v185h145v-321h-740z" />
<glyph d="M-1207 1412l69 136h743v-136h-812z" />
<glyph d="M-1204 1409l68 137h595v185h146v-322h-809z" />
<glyph d="M-1207 1412l69 136h454q0 7 -1.5 15t-1.5 16q0 33 14 64.5t36.5 54.5t53 37t66.5 14q33 0 63.5 -14t53.5 -37t37 -54q13 -32 13 -65t-13.5 -63.5t-36.5 -53.5t-53.5 -36.5t-63.5 -13.5h-13h-677zM-581 1576q0 -25 18 -43t46 -18q25 0 43 18t18 43t-18 44.5t-43 19.5 q-26 0 -45 -19.5t-19 -44.5z" />
<glyph d="M-1220 1412l69 136h414v185h117v-185h114v185h117v-321h-831z" />
<glyph d="M-535 1839v293h140v-293h-140z" />
<glyph d="M-845 2021v114h231v-176q55 0 98 11.5t73 35t45.5 55.5t15.5 74h140q0 -58 -25 -111t-73.5 -94.5t-118 -66t-158.5 -24.5h-125v182h-103z" />
<glyph d="M-888 1839q0 69 13 117t35.5 77.5t51.5 41t62 11.5q28 0 49 -9.5t36 -25.5t25 -37.5t16 -43.5q2 23 12.5 44t27.5 37.5t39.5 25.5t53.5 9q29 0 53.5 -7t42.5 -24t29 -45t11 -70q17 6 32 22.5t26.5 39t18.5 50t7 58.5h127q0 -44 -13.5 -88.5t-39.5 -82t-62.5 -65 t-81.5 -35.5h-117q0 14 -1 36t-7 43t-17 36.5t-30 15.5q-18 0 -31.5 -13.5t-20.5 -33t-11 -42.5t-4 -42h-93q0 19 -3 42t-10.5 42.5t-19.5 33t-30 13.5q-19 0 -31 -15.5t-17.5 -36.5t-7 -43t-1.5 -36h-119z" />
<glyph d="M-706 2002v114h174v150h128v-150h176v-114h-176v-163h-128v163h-174z" />
<glyph d="M-1176 1412l70 136h984v-136h-1054z" />
<glyph d="M-1176 1412l70 136h839v185h145v-321h-1054z" />
<glyph d="M-1176 1409l70 137h688q0 5 -1.5 13.5t-1.5 16.5q0 34 13 65t36 54t54 37q32 14 65 14t64 -14t53.5 -37t36.5 -53q13 -32 13 -66q0 -33 -13.5 -63.5t-36 -53.5t-53.5 -36.5t-64 -13.5h-923zM-317 1573q0 -25 19 -43q20 -18 45 -18q26 0 44.5 18t18.5 43t-19 44.5 t-44 19.5t-44.5 -19.5t-19.5 -44.5z" />
<glyph d="M-1176 1412l70 136h579v185h146v-185h114v185h145v-321h-1054z" />
<glyph d="M-253 1722v296h131v-296h-131z" />
<glyph d="M-630 1907v114h231v-176q56 0 99 11.5t73 35t45 55.5t15 74h141q0 -58 -26 -111t-74.5 -94.5t-118 -66t-158.5 -24.5h-125v182h-102z" />
<glyph d="M-753 1725q0 71 12.5 118t34.5 76.5t51 42t63 12.5q28 0 48.5 -10t36 -26.5t25 -37.5t15.5 -43q3 24 13.5 44.5t27 36.5t40.5 26q22 10 52 10q28 0 53 -7.5t43 -24.5t29.5 -44.5t11.5 -69.5q16 5 31.5 21t26.5 38.5t18 50t7 58.5h128q0 -44 -14 -88.5t-39 -82t-62 -65 t-81 -35.5h-117q0 14 -2 36t-7.5 43.5t-16.5 37t-31 15.5q-18 0 -30.5 -14t-20 -33.5t-11 -42.5t-3.5 -42h-93q0 19 -3.5 42t-11.5 42.5t-19 33.5t-30.5 14t-30.5 -15.5t-16.5 -37t-7 -43.5t-1.5 -36h-119z" />
<glyph d="M-427 1882v114h174v150h131v-150h176v-114h-176v-160h-131v160h-174z" />
<glyph d="M-578 1725v293h142v-293h-142z" />
<glyph d="M-956 1907v114h230v-178q56 0 99 12.5t73 35.5t45.5 55.5t15.5 74.5h140q0 -58 -25 -111.5t-73.5 -94.5t-118 -66t-158.5 -25h-125v183h-103z" />
<glyph d="M-973 1725q0 71 12.5 118t34.5 76.5t51.5 42t62.5 12.5q28 0 49 -10t36 -26.5t25 -37.5t15 -43q3 24 14 44.5t28 36.5t40 26q21 10 52 10q29 0 53.5 -7.5t43 -24.5t29 -44.5t11.5 -69.5q17 5 31.5 21t25.5 38.5t18 50t7 58.5h128q0 -44 -14 -88.5t-39 -82t-61.5 -65 t-81.5 -35.5h-115q0 14 -2 36t-8.5 43.5t-17.5 37t-30 15.5t-31.5 -14t-20 -33.5t-11 -42.5t-3.5 -42h-93q0 19 -2.5 42t-10.5 42.5t-19.5 33.5t-31 14t-31 -15.5t-17 -37t-6.5 -43.5t-1 -36h-120z" />
<glyph d="M-812 1882v114h174v150h129v-150h175v-114h-175v-163h-129v163h-174z" />
<glyph d="M-509 -157h245v-446h-154v324h-91v122z" />
<glyph d="M-758 -157h246v-204q0 -120 102 -120q103 0 103 120v204h154v-204q-1 -50 -15 -94.5t-44 -78t-78.5 -53t-119.5 -19.5q-70 0 -118.5 19.5t-78.5 53t-43.5 78t-15.5 94.5v82h-92v122z" />
<glyph d="M-514 -278q0 22 8 43t23.5 36.5t36.5 23.5t43 8t43 -8t36 -23.5t24 -36.5t9 -43t-9 -43t-24 -36.5t-35 -24.5q-22 -10 -44 -10t-43 9.5t-36.5 25t-23.5 36.5t-8 43z" />
<glyph d="M-517 -157h245v-446h-155v324h-90v122z" />
<glyph d="M-880 -157h246v-204q0 -120 102 -120t102 120v204h155v-204q-2 -50 -15.5 -94.5t-43.5 -78t-78.5 -53t-119.5 -19.5q-70 0 -118.5 19.5t-78.5 53t-44 78t-17 94.5v82h-90v122z" />
<glyph d="M-478 -278q0 22 9 43t24 36.5t35.5 23.5t43.5 8t43.5 -8t36 -23.5t24.5 -36.5t9 -43t-9 -43t-24.5 -36.5t-35.5 -25t-44 -9.5q-22 0 -43 9.5t-36 25t-24 36.5t-9 43z" />
<glyph d="M-769 1412v231h146v-95h743l2 -136h-891z" />
<glyph d="M-578 1839v293h142v-293h-142z" />
<glyph d="M-859 2021v114h231v-176q55 0 98.5 11.5t73 35t45 55.5t15.5 74h140q0 -58 -25 -111t-73.5 -94.5t-118 -66t-158.5 -24.5h-125v182h-103z" />
<glyph d="M-803 1839q0 69 13 117t35 77.5t51.5 41t62.5 11.5q28 0 49.5 -9.5t37 -25.5t25 -37.5t15.5 -43.5q2 23 12 44t26.5 37.5t40.5 25.5t54 9q29 0 53.5 -7t42.5 -24t28.5 -45t11.5 -70q17 6 31.5 22.5t26.5 39t19 50t7 58.5h128q0 -44 -14 -88.5t-40.5 -82t-62.5 -65 t-81 -35.5h-117q0 14 -1 36t-7.5 43t-17.5 36.5t-30 15.5t-31.5 -13.5t-20 -33t-11 -42.5t-3.5 -42h-94q0 19 -3 42t-10 42.5t-19.5 33t-29.5 13.5q-19 0 -31.5 -15.5t-18 -36.5t-7 -43t-1.5 -36h-119z" />
<glyph d="M-670 2002v114h175v150h128v-150h177v-114h-177v-163h-128v163h-175z" />
<glyph d="M-1034 1412l69 136h843v-136h-912z" />
<glyph d="M-1034 1412l69 136h698v185h145v-321h-912z" />
<glyph d="M-1034 1409l69 137h547q0 5 -1.5 13.5t-1.5 16.5q0 34 13 65t36 54t54 37q32 14 65 14t64 -14t53.5 -37t36.5 -53q13 -32 13 -66q0 -33 -13.5 -63.5t-36 -53.5t-53.5 -36.5t-64 -13.5h-11h-770zM-317 1573q0 -25 19 -43q20 -18 45 -18q26 0 44.5 18t18.5 43t-19 44.5 t-44 19.5t-44.5 -19.5t-19.5 -44.5z" />
<glyph d="M-1034 1412l69 136h438v185h146v-185h114v185h145v-321h-912z" />
<glyph d="M-642 1860v293h142v-293h-142z" />
<glyph d="M-809 2007v114h172v152h130v-152h176v-114h-176v-161h-130v161h-172z" />
<glyph d="M-569 -157h245v-446h-154v314h-91v132z" />
<glyph d="M-806 -157h246v-204q-2 -120 101 -120t103 120v204h154v-204q-1 -50 -15 -94.5t-44 -78t-78 -53.5q-50 -19 -120 -19q-69 0 -118 19.5t-78.5 53t-43.5 78t-15 94.5v75h-92v129z" />
<glyph d="M-550 -278q0 22 8 43t23.5 36.5t36.5 23.5t43 8t43 -8t36 -23.5t24 -36.5t9 -43t-9 -43t-24 -36.5t-35 -24.5q-22 -10 -44 -10t-43 9.5t-36.5 25t-23.5 36.5t-8 43z" />
</font>
</defs>
</svg>
