<?xml version="1.0" standalone="no"?>
<!DOCTYPE svg PUBLIC "-//W3C//DTD SVG 1.1//EN" "http://www.w3.org/Graphics/SVG/1.1/DTD/svg11.dtd" >
<svg xmlns="http://www.w3.org/2000/svg" xmlns:xlink="http://www.w3.org/1999/xlink" version="1.1">
<metadata></metadata>
<defs>
<font id="webfontregular" horiz-adv-x="1323" >
<font-face units-per-em="2048" ascent="1638" descent="-410" />
<missing-glyph horiz-adv-x="501" />
<glyph unicode="&#x21;&#x3f;" horiz-adv-x="1058" d="M0 1186q39 151 166 240.5t321 89.5q226 0 365 -118.5t139 -310.5q0 -78 -21.5 -137.5t-56.5 -97t-77 -68.5t-83.5 -63t-76.5 -70t-56.5 -100t-21.5 -143v-25h-195q-24 590 -24 872v5q-94 -47 -121 -162zM334 141q0 76 45.5 122t122.5 46t121.5 -46t44.5 -122 q0 -74 -45.5 -120t-122.5 -46t-121.5 45.5t-44.5 120.5zM600 866q3 3 17.5 19t17.5 19.5t15 18t15.5 20.5t13 19.5t12 22t8.5 22.5t8 26t4 27.5t2 31.5q0 111 -101 163q0 -189 -12 -389z" />
<glyph unicode="&#xa1;&#xbf;" horiz-adv-x="1058" d="M66 -63q0 78 22 137.5t56.5 97t77 68.5t84.5 63t76.5 70t56.5 100t22 143v25h194q25 -615 25 -872v-5q95 50 121 162l258 -88q-39 -151 -166.5 -240.5t-321.5 -89.5q-226 0 -365.5 118.5t-139.5 310.5zM344 -68q0 -110 102 -163q0 206 11 389q-4 -4 -19 -21t-19.5 -22 t-17 -20t-16.5 -22.5t-13 -22t-12 -25.5t-8 -26.5t-6.5 -32t-1.5 -34.5zM397 883q0 76 45.5 122t122.5 46t121.5 -46t44.5 -122q0 -74 -45.5 -120t-122.5 -46t-121.5 45.5t-44.5 120.5z" />
<glyph unicode="&#x683;" horiz-adv-x="1009" arabic-form="isolated" d="M72 0v1221h438q215 0 337 -116.5t122 -311.5q0 -108 -47.5 -200.5t-137.5 -146.5l220 -446h-302l-170 367h-182v-367h-278zM350 623h133q199 0 199 178q0 76 -49 119t-150 43h-133v-340z" />
<glyph unicode="&#x683;" horiz-adv-x="1009" arabic-form="final" d="M72 0v1221h438q215 0 337 -116.5t122 -311.5q0 -108 -47.5 -200.5t-137.5 -146.5l220 -446h-302l-170 367h-182v-367h-278zM350 623h133q199 0 199 178q0 76 -49 119t-150 43h-133v-340zM350 1323l236 348h258l-307 -348h-187z" />
<glyph unicode="&#x683;" horiz-adv-x="1009" arabic-form="initial" d="M72 0v1221h438q215 0 337 -116.5t122 -311.5q0 -108 -47.5 -200.5t-137.5 -146.5l220 -446h-302l-170 367h-182v-367h-278zM156 1671h209l120 -182l121 182h209l-244 -348h-172zM350 623h133q199 0 199 178q0 76 -49 119t-150 43h-133v-340z" />
<glyph unicode="&#x683;" horiz-adv-x="1009" arabic-form="medial" d="M72 0v1221h438q215 0 337 -116.5t122 -311.5q0 -108 -47.5 -200.5t-137.5 -146.5l220 -446h-302l-170 367h-182v-367h-278zM315 -516l70 418h244l-144 -418h-170zM350 623h133q199 0 199 178q0 76 -49 119t-150 43h-133v-340z" />
<glyph horiz-adv-x="0" />
<glyph horiz-adv-x="0" />
<glyph unicode="&#xd;" horiz-adv-x="512" />
<glyph unicode=" "  horiz-adv-x="501" />
<glyph unicode="&#x09;" horiz-adv-x="501" />
<glyph unicode="&#xa0;" horiz-adv-x="501" />
<glyph unicode="!" horiz-adv-x="428" d="M45 141q0 76 45.5 122t122.5 46t121.5 -46t44.5 -122q0 -74 -45.5 -120t-122.5 -46t-121.5 45.5t-44.5 120.5zM76 1255v240h274v-240q0 -464 -61 -849h-150q-63 397 -63 849z" />
<glyph unicode="&#x22;" horiz-adv-x="661" d="M74 1323v172h215v-172q0 -48 -26 -152.5t-44 -146.5h-76q-18 39 -43.5 145.5t-25.5 153.5zM373 1323v172h215v-172q0 -50 -26.5 -154t-45.5 -145h-76q-18 39 -42.5 145t-24.5 154z" />
<glyph unicode="#" horiz-adv-x="1642" d="M53 317v267h303v348h-303v266h303v297h279v-297h356v297h279v-297h319v-266h-319v-348h319v-267h-319v-317h-279v317h-356v-317h-279v317h-303zM635 584h356v348h-356v-348z" />
<glyph unicode="$" horiz-adv-x="1204" d="M27 248l254 198q70 -120 200 -172v396q-64 20 -115 41.5t-106.5 57t-92.5 78t-61 104.5t-24 136q0 154 110 272t283 146v215h279v-221q110 -22 193.5 -72t162.5 -129l-231 -174q-53 74 -134 111v-356q67 -23 118 -45t109 -60t95.5 -81t62.5 -107.5t25 -141.5 q0 -160 -107.5 -288t-293.5 -164v-238h-279v240q-268 45 -448 254zM360 1098q0 -51 30 -81t91 -56v288q-57 -20 -89 -60t-32 -91zM745 266q60 26 93.5 74.5t33.5 105.5q0 50 -33 84.5t-94 61.5v-326z" />
<glyph unicode="%" horiz-adv-x="1689" d="M27 0l1284 1495h352l-1284 -1495h-352zM45 1151q0 152 107.5 258.5t259.5 106.5t258 -106.5t106 -258.5q0 -153 -106 -260t-258 -107t-259.5 107.5t-107.5 259.5zM279 1151q0 -55 39.5 -95t93.5 -40t93.5 40t39.5 95q0 54 -39.5 93.5t-93.5 39.5t-93.5 -39.5t-39.5 -93.5 zM913 344q0 152 107.5 258.5t259.5 106.5t258.5 -106.5t106.5 -258.5t-106.5 -259.5t-258.5 -107.5t-259.5 107.5t-107.5 259.5zM1147 344q0 -56 38.5 -94.5t94.5 -38.5q54 0 92.5 39t38.5 94q0 54 -38.5 93.5t-92.5 39.5q-55 0 -94 -39.5t-39 -93.5z" />
<glyph unicode="&#x26;" horiz-adv-x="1533" d="M43 465q0 135 70 243t188 177q-70 110 -70 245q0 164 121.5 275t306.5 111q175 0 284.5 -77.5t152.5 -201.5l-271 -96q-41 127 -155 127q-63 0 -104.5 -39t-41.5 -99q0 -35 8.5 -65t20.5 -54.5t48.5 -66t67.5 -74t103 -104.5l285 -287q84 119 121 275h-252v264h528v-129 q0 -140 -59 -294t-164 -290l303 -305h-381l-117 115q-199 -138 -403 -138q-125 0 -226.5 29t-168 76.5t-111.5 112t-64.5 132t-19.5 138.5zM319 467q0 -103 83 -174.5t229 -71.5q117 0 229 68l-317 319l-84 84q-70 -43 -105 -96.5t-35 -128.5z" />
<glyph unicode="'" horiz-adv-x="362" d="M74 1323v172h215v-172q0 -48 -26 -152.5t-44 -146.5h-76q-18 39 -43.5 145.5t-25.5 153.5z" />
<glyph unicode="(" horiz-adv-x="794" d="M45 512q0 173 38 321.5t112.5 271.5t171 223.5t225.5 195.5l186 -201q-205 -136 -323.5 -339t-118.5 -472q0 -527 452 -803l-174 -229q-268 181 -418.5 439t-150.5 593z" />
<glyph unicode=")" horiz-adv-x="794" d="M8 -295q451 275 451 803q0 269 -119 472t-324 339l187 201q130 -94 227.5 -195t171.5 -224t112 -272t38 -321q0 -171 -41.5 -325t-118.5 -281.5t-179.5 -232.5t-232.5 -193z" />
<glyph unicode="*" horiz-adv-x="829" d="M41 1059l225 76l-225 79l123 205l178 -155l-47 233h240l-50 -237l185 159l118 -209l-229 -77l229 -78l-122 -205l-179 158l48 -236h-240l45 234l-182 -156z" />
<glyph unicode="+" horiz-adv-x="905" d="M74 629v235h264v260h231v-260h262v-235h-262v-262h-231v262h-264z" />
<glyph unicode="," horiz-adv-x="423" d="M43 -240l72 418h243l-143 -418h-172z" />
<glyph unicode="-" horiz-adv-x="905" d="M74 403v236h757v-236h-757z" />
<glyph unicode="." horiz-adv-x="423" d="M45 141q0 76 45.5 122t122.5 46t121.5 -46t44.5 -122q0 -74 -45.5 -120t-122.5 -46t-121.5 45.5t-44.5 120.5z" />
<glyph unicode="/" horiz-adv-x="1046" d="M23 0l708 1495h295l-709 -1495h-294z" />
<glyph unicode="0" horiz-adv-x="1204" d="M94 467v549q0 216 142 358t366 142q151 0 268 -67.5t178.5 -180.5t61.5 -250v-551q0 -223 -134.5 -355t-373.5 -132q-240 0 -374 133.5t-134 353.5zM373 479q0 -101 58.5 -162t168.5 -61q109 0 170 62.5t61 158.5v531q0 108 -59 170.5t-168 62.5t-170 -65.5t-61 -167.5 v-529z" />
<glyph unicode="1" horiz-adv-x="677" d="M72 1235v260h460v-1495h-278v1235h-182z" />
<glyph unicode="2" horiz-adv-x="1097" d="M43 1184q71 159 197.5 245.5t306.5 86.5q222 0 353.5 -119t131.5 -301q0 -57 -14 -108.5t-44 -97.5t-59.5 -81t-80 -75.5t-84 -64.5t-91.5 -63q-145 -98 -191 -138q-116 -100 -116 -202h674v-266h-952v262q0 74 24.5 143t58.5 119t93 105t103 87.5t114 80.5 q14 10 47.5 33.5t48 34t42.5 31t41 32.5t33.5 31t30.5 33.5t21 32.5t15 36t4 37q0 77 -54.5 127.5t-150.5 50.5q-175 0 -262 -213z" />
<glyph unicode="3" horiz-adv-x="1028" d="M6 188l242 181q89 -136 235 -136q99 0 160.5 53.5t61.5 145.5q0 94 -70 150.5t-186 56.5h-154v256h154q117 0 177 56.5t60 142.5q0 82 -57 131t-154 49q-83 0 -136 -36.5t-91 -107.5l-238 123q66 123 189.5 193t271.5 70q219 0 352 -114.5t133 -305.5q0 -200 -170 -322 q197 -115 197 -342q0 -96 -33 -178.5t-95 -143.5t-157 -95.5t-213 -34.5q-300 0 -479 208z" />
<glyph unicode="4" horiz-adv-x="1275" d="M72 344v254l626 897h285v-897h219v-254h-219v-344h-270v344h-641zM373 598h340v481z" />
<glyph unicode="5" horiz-adv-x="1107" d="M43 266l258 150q81 -180 254 -180q94 0 161.5 66.5t67.5 168.5q0 107 -63.5 177.5t-171.5 70.5q-152 0 -240 -152l-248 127l107 801h831v-260h-610l-43 -332q102 70 234 70q136 0 244.5 -56.5t174.5 -172t66 -273.5q0 -217 -144 -354t-368 -137q-184 0 -315 81t-195 205z " />
<glyph unicode="6" horiz-adv-x="1150" d="M43 487q0 104 30.5 206.5t84.5 180.5l387 621h327l-327 -508q43 12 88 12q199 0 336 -144.5t137 -365.5q0 -223 -149.5 -366t-378.5 -143q-153 0 -275.5 66.5t-191 182.5t-68.5 258zM315 494q0 -107 76 -185t180 -78q106 0 183 77.5t77 187.5q0 107 -77 183.5t-183 76.5 q-105 0 -180.5 -77t-75.5 -185z" />
<glyph unicode="7" horiz-adv-x="1085" d="M72 1229v266h942v-242l-518 -1253h-295l522 1229h-651z" />
<glyph unicode="8" horiz-adv-x="1204" d="M70 446q0 225 184 351q-133 114 -133 293q0 192 134 309t355 117q217 0 351.5 -117t134.5 -309q0 -179 -142 -295q181 -126 181 -349q0 -221 -140 -343.5t-395 -122.5q-256 0 -393 122t-137 344zM338 446q0 -98 66.5 -159.5t195.5 -61.5t198.5 62t69.5 159q0 96 -69 159 t-193 63q-126 0 -197 -63t-71 -159zM375 1090q0 -84 58.5 -136.5t170.5 -52.5q113 0 175.5 53.5t62.5 135.5q0 81 -61.5 135.5t-168.5 54.5q-109 0 -173 -54.5t-64 -135.5z" />
<glyph unicode="9" horiz-adv-x="1150" d="M41 1006q0 225 152 367.5t378 142.5q230 0 381.5 -145.5t151.5 -362.5q0 -104 -30.5 -206.5t-84.5 -180.5l-385 -621h-328l330 514q-43 -12 -86 -12q-200 0 -339.5 142t-139.5 362zM315 1004q0 -108 77.5 -185.5t182.5 -77.5q106 0 182.5 77.5t76.5 187.5q0 106 -77 185 t-182 79q-104 0 -182 -80t-78 -186z" />
<glyph unicode=":" horiz-adv-x="423" d="M45 141q0 76 45.5 122t122.5 46t121.5 -46t44.5 -122q0 -74 -45.5 -120t-122.5 -46t-121.5 45.5t-44.5 120.5zM45 881q0 76 45.5 122t122.5 46t121.5 -46t44.5 -122q0 -74 -45.5 -120t-122.5 -46t-121.5 45.5t-44.5 120.5z" />
<glyph unicode=";" horiz-adv-x="423" d="M43 -240l72 418h243l-143 -418h-172zM45 881q0 76 45.5 122t122.5 46t121.5 -46t44.5 -122q0 -74 -45.5 -120t-122.5 -46t-121.5 45.5t-44.5 120.5z" />
<glyph unicode="&#x3c;" horiz-adv-x="905" d="M74 627v235l757 273v-242l-458 -150l458 -149v-242z" />
<glyph unicode="=" horiz-adv-x="905" d="M74 455v235h757v-235h-757zM74 797v235h757v-235h-757z" />
<glyph unicode="&#x3e;" horiz-adv-x="905" d="M74 352v242l456 149l-456 150v242l757 -273v-235z" />
<glyph unicode="?" horiz-adv-x="1058" d="M51 1186q38 153 156.5 241.5t310.5 88.5q210 0 341.5 -119t131.5 -310q0 -78 -20.5 -139t-53.5 -100t-73 -72.5t-79.5 -66t-72.5 -70.5t-53.5 -97t-20.5 -134v-23h-247v23q0 101 19 181t48.5 130t66 89.5t73 68.5t66 58t48.5 68.5t19 88.5q0 79 -54 130.5t-143 51.5 q-79 0 -132 -48.5t-73 -127.5zM326 141q0 76 45.5 122t122.5 46t121 -46t44 -122q0 -74 -45 -120t-122 -46t-121.5 45.5t-44.5 120.5z" />
<glyph unicode="@" horiz-adv-x="1615" d="M45 512q0 209 101.5 385.5t277.5 279.5t385 103q169 0 315 -59t243 -156t151.5 -221t54.5 -254q0 -180 -97.5 -306t-254.5 -126q-162 0 -246 112q-83 -110 -258 -110q-63 0 -122.5 24.5t-106 69.5t-71 116.5t-16.5 157.5q10 90 48.5 163t92 116.5t112 66.5t114.5 23 q129 0 199 -76q1 18 3.5 34t2.5 19q2 6 2 11h219l-39 -371q-16 -139 84 -139q50 0 81.5 59.5t31.5 155.5q0 89 -38.5 174t-106.5 152t-172 108t-226 41q-112 0 -213 -44t-174.5 -118t-116.5 -177t-43 -216q0 -150 73 -277.5t199 -201.5t275 -74q239 0 405 180l166 -137 q-107 -120 -254.5 -188t-316.5 -68q-209 0 -385 102.5t-277.5 279t-101.5 386.5zM625 535q-10 -71 31.5 -119.5t111.5 -48.5t119 48.5t55 119.5q8 69 -31.5 117t-107.5 48q-69 0 -121.5 -47t-56.5 -118z" />
<glyph unicode="A" horiz-adv-x="1406" d="M31 0l532 1495h281l532 -1495h-291l-92 266h-579l-92 -266h-291zM508 532h393l-196 568z" />
<glyph unicode="B" horiz-adv-x="1173" d="M86 0v1495h471q252 0 386 -106t134 -312q0 -196 -164 -291q217 -98 217 -344q0 -217 -141.5 -329.5t-394.5 -112.5h-508zM365 256h229q126 0 191 50t65 143q0 97 -59.5 143.5t-208.5 46.5h-217v-383zM365 899h192q240 0 240 178q0 85 -56 123.5t-184 38.5h-192v-340z" />
<glyph unicode="C" horiz-adv-x="1511" d="M45 748q0 164 59.5 307.5t162 244t244.5 158.5t302 58q207 0 381 -100.5t274 -270.5l-243 -156q-142 252 -412 252q-140 0 -252.5 -65t-175.5 -177.5t-63 -250.5q0 -135 62.5 -247t174 -177.5t248.5 -65.5q149 0 258 75.5t172 205.5l254 -133q-100 -194 -280.5 -310 t-397.5 -116q-169 0 -314 60.5t-243.5 164t-154.5 244t-56 299.5z" />
<glyph unicode="D" horiz-adv-x="1327" d="M86 0v1495h408q185 0 335.5 -57t249.5 -157.5t152 -237t53 -295.5q0 -158 -58 -296.5t-160 -237.5t-247 -156.5t-313 -57.5h-420zM365 258h108q242 0 387.5 138.5t145.5 351.5q0 224 -138 356.5t-407 132.5h-96v-979z" />
<glyph unicode="E" horiz-adv-x="1042" d="M86 0v1495h887v-266h-608v-344h608v-267h-608v-352h608v-266h-887z" />
<glyph unicode="F" horiz-adv-x="1005" d="M86 0v1495h846v-266h-567v-344h567v-267h-567v-618h-279z" />
<glyph unicode="G" horiz-adv-x="1597" d="M45 748q0 211 98 386.5t273.5 278.5t392.5 103q225 0 403.5 -104.5t276.5 -278.5l-246 -148q-140 260 -432 260q-136 0 -249 -67.5t-176.5 -181.5t-63.5 -248q0 -137 63.5 -250.5t178.5 -180.5t257 -67q167 0 278.5 86t153.5 237h-477v267h776v-111q0 -151 -52 -287 t-144.5 -238.5t-231.5 -163t-303 -60.5q-171 0 -317.5 61.5t-246 166.5t-156 245t-56.5 295z" />
<glyph unicode="H" horiz-adv-x="1302" d="M86 0v1495h279v-612h573v612h279v-1495h-279v616h-573v-616h-279z" />
<glyph unicode="I" horiz-adv-x="471" d="M96 0v1495h279v-1495h-279z" />
<glyph unicode="J" horiz-adv-x="1026" d="M39 317l274 91q18 -74 68.5 -121t120.5 -47q82 0 122 53t40 137v1065h278v-1040q0 -228 -113 -351.5t-323 -123.5q-182 0 -306 90.5t-161 246.5z" />
<glyph unicode="K" horiz-adv-x="1265" d="M86 0v1495h279v-612l493 612h338l-473 -582l516 -913h-317l-396 719l-161 -201v-518h-279z" />
<glyph unicode="L" horiz-adv-x="985" d="M86 0v1495h279v-1229h546v-266h-825z" />
<glyph unicode="M" horiz-adv-x="1634" d="M86 0v1495h276l453 -629l471 629h264v-1495h-278v1049l-459 -619l-448 608v-1038h-279z" />
<glyph unicode="N" horiz-adv-x="1413" d="M86 0v1495h315l648 -1018v1018h278v-1495h-297l-665 1051v-1051h-279z" />
<glyph unicode="O" horiz-adv-x="1617" d="M45 748q0 209 101.5 385.5t277.5 279.5t385 103t385.5 -103t278.5 -279.5t102 -385.5q0 -157 -60 -299.5t-162.5 -245t-244.5 -163t-299 -60.5q-209 0 -385 102.5t-277.5 279t-101.5 386.5zM322 748q0 -134 64.5 -247.5t176.5 -180t246 -66.5t246.5 66.5t177.5 180 t65 247.5t-65 247.5t-177.5 179.5t-246.5 66t-246 -66t-176.5 -179.5t-64.5 -247.5z" />
<glyph unicode="P" horiz-adv-x="1189" d="M86 0v1495h512q114 0 214.5 -42t171.5 -113.5t112 -169.5t41 -207q0 -110 -41 -208.5t-112.5 -170.5t-172.5 -114t-215 -42h-231v-428h-279zM365 686h213q121 0 199.5 80t78.5 197t-78 195.5t-200 78.5h-213v-551z" />
<glyph unicode="Q" horiz-adv-x="1617" d="M45 748q0 209 101.5 385.5t277.5 279.5t385 103t385.5 -103t278.5 -279.5t102 -385.5q0 -272 -172 -488l201 -260h-340l-564 735h334l189 -246q75 121 75 259q0 134 -65 247.5t-177.5 179.5t-246.5 66t-246 -66t-176.5 -179.5t-64.5 -247.5t64.5 -247.5t176.5 -180 t246 -66.5q71 0 145 22l174 -227q-147 -69 -319 -69q-209 0 -385 102.5t-277.5 279t-101.5 386.5z" />
<glyph unicode="R" horiz-adv-x="1196" d="M86 0v1495h479q260 0 409.5 -142.5t149.5 -377.5q0 -138 -65.5 -254.5t-186.5 -181.5l299 -539h-317l-240 457h-249v-457h-279zM365 713h176q83 0 144 21.5t95 60t50 85.5t16 105q0 119 -75 184.5t-230 65.5h-176v-522z" />
<glyph unicode="S" horiz-adv-x="1153" d="M6 248l254 201q57 -98 141 -150.5t187 -52.5q105 0 166 58.5t61 141.5q0 35 -18 64t-39 47.5t-69 39.5t-75 30t-91 29q-13 4 -19 6q-50 16 -77.5 26t-73.5 28t-73 34.5t-63 41.5t-57 53t-41.5 64t-29.5 81t-9 97q0 182 140.5 305.5t354.5 123.5q115 0 210.5 -30 t160.5 -74.5t131 -113.5l-229 -174q-94 144 -270 144q-99 0 -154 -47.5t-55 -122.5q0 -32 15.5 -59t33.5 -44t61 -36.5t68 -28.5t85 -29q28 -9 42 -14q52 -17 88.5 -30.5t85 -36t82.5 -45.5t69.5 -57t57 -72.5t35.5 -90t14 -111.5q0 -89 -35 -172t-99 -148.5t-163.5 -104.5 t-218.5 -39q-346 0 -584 268z" />
<glyph unicode="T" horiz-adv-x="1185" d="M53 1229v266h1080v-266h-402v-1229h-278v1229h-400z" />
<glyph unicode="U" horiz-adv-x="1245" d="M84 516v979h278v-995q0 -111 74.5 -186.5t184.5 -75.5q109 0 185.5 76t76.5 186v995h278v-979q0 -171 -70.5 -293.5t-191 -182.5t-276.5 -60q-241 0 -390 140.5t-149 395.5z" />
<glyph unicode="V" horiz-adv-x="1345" d="M31 1495h288l355 -1069l352 1069h289l-502 -1495h-281z" />
<glyph unicode="W" horiz-adv-x="2095" d="M29 1495h290l283 -1046l313 1046h275l311 -1042l281 1042h280l-422 -1495h-276l-313 1055l-314 -1055h-282z" />
<glyph unicode="X" horiz-adv-x="1290" d="M23 0l456 756l-446 739h311l301 -498l301 498h314l-451 -739l459 -756h-312l-311 514l-309 -514h-313z" />
<glyph unicode="Y" horiz-adv-x="1288" d="M27 1495h307l309 -518l311 518h308l-482 -793v-702h-278v709z" />
<glyph unicode="Z" horiz-adv-x="1138" d="M74 0v256l661 973h-639v266h967v-254l-662 -975h662v-266h-989z" />
<glyph unicode="[" horiz-adv-x="706" d="M74 -471v1966h559v-266h-281v-1434h281v-266h-559z" />
<glyph unicode="\" horiz-adv-x="1046" d="M23 1495h294l709 -1495h-295z" />
<glyph unicode="]" horiz-adv-x="706" d="M74 -205h280v1434h-280v266h559v-1966h-559v266z" />
<glyph unicode="^" horiz-adv-x="966" d="M154 1124l243 349h172l244 -349h-207l-123 183l-121 -183h-208z" />
<glyph unicode="_" horiz-adv-x="915" d="M74 -20h768v-236h-768v236z" />
<glyph unicode="`" horiz-adv-x="966" d="M215 1475h260l234 -349h-187z" />
<glyph unicode="a" horiz-adv-x="1374" d="M41 598q0 116 32.5 217t89.5 175t132 127t162 79.5t178 26.5q117 0 217.5 -44.5t167.5 -123.5v143h276v-1198h-276v156q-66 -85 -168.5 -133t-220.5 -48q-110 0 -214.5 43t-188.5 120.5t-135.5 197.5t-51.5 262zM313 602q0 -157 105 -265t258 -108q154 0 256 108t102 265 q0 155 -102 262t-256 107t-258.5 -107t-104.5 -262z" />
<glyph unicode="b" horiz-adv-x="1368" d="M80 0v1516h276v-469q64 81 166 128.5t221 47.5q91 0 177 -26.5t161 -79.5t131 -127t88.5 -175t32.5 -217q0 -142 -51 -262t-134 -197.5t-187 -120.5t-213 -43q-123 0 -225.5 47.5t-168.5 133.5v-156h-274zM344 602q0 -157 102 -265t254 -108t256.5 108t104.5 265 q0 155 -104.5 262t-256.5 107t-254 -107t-102 -262z" />
<glyph unicode="c" horiz-adv-x="1263" d="M41 598q0 129 48.5 245t131.5 199t198.5 132t244.5 49q196 0 348 -102t223 -269l-248 -104q-42 99 -127 157t-194 58q-151 0 -253 -106t-102 -259q0 -151 102.5 -256.5t254.5 -105.5q113 0 196.5 60.5t126.5 162.5l248 -107q-73 -172 -222.5 -274.5t-352.5 -102.5 q-172 0 -315.5 83.5t-225.5 226.5t-82 313z" />
<glyph unicode="d" horiz-adv-x="1374" d="M41 598q0 116 32.5 217t89.5 175t132 127t162 79.5t178 26.5q116 0 216.5 -43.5t166.5 -122.5v459h278v-1516h-276v156q-66 -85 -168.5 -133t-220.5 -48q-110 0 -214.5 43t-188.5 120.5t-135.5 197.5t-51.5 262zM313 602q0 -157 105 -265t258 -108q154 0 256 108t102 265 q0 155 -102 262t-256 107t-258.5 -107t-104.5 -262z" />
<glyph unicode="e" d="M41 596q0 129 48.5 245t131.5 200t198.5 133t244.5 49q175 0 316.5 -80t220.5 -221t79 -316v-104h-975q30 -130 127 -206.5t242 -76.5q115 0 202 56.5t130 154.5l227 -131q-81 -152 -222 -238t-337 -86q-138 0 -257 48.5t-201 132t-128.5 197.5t-46.5 243zM319 733h680 q-30 120 -117.5 183t-217.5 63q-123 0 -215.5 -67t-129.5 -179z" />
<glyph unicode="f" horiz-adv-x="800" d="M35 950v248h203v2q0 259 114 369t387 110h25v-256q-56 0 -95 -4t-67 -16t-44 -27t-25 -42.5t-12 -58t-3 -77.5h246v-248h-246v-950h-280v950h-203z" />
<glyph unicode="g" horiz-adv-x="1378" d="M41 598q0 116 32.5 217t89.5 175t132 127t162 79.5t178 26.5q116 0 217 -48t168 -131v154h276v-1167q0 -127 -40.5 -237.5t-116.5 -194t-195 -131.5t-266 -48q-222 0 -375 92.5t-240 251.5l246 150q69 -127 152 -183.5t221 -56.5q152 0 246 102t94 244v140 q-67 -87 -169 -136t-222 -49q-110 0 -214.5 43t-188.5 120.5t-135.5 197.5t-51.5 262zM313 602q0 -157 105 -265t258 -108q154 0 256 108t102 265q0 155 -102 262t-256 107t-258.5 -107t-104.5 -262z" />
<glyph unicode="h" horiz-adv-x="1267" d="M80 0v1516h276v-461q132 168 359 168q226 0 350.5 -134t124.5 -378v-711h-283v680q0 144 -68.5 223.5t-201.5 79.5q-121 0 -200 -87t-79 -239v-657h-278z" />
<glyph unicode="i" horiz-adv-x="438" d="M45 1491q0 78 47.5 126t126.5 48q81 0 127.5 -47.5t46.5 -126.5t-46.5 -125.5t-127.5 -46.5q-83 0 -128.5 46.5t-45.5 125.5zM80 0v1198h278v-1198h-278z" />
<glyph unicode="j" horiz-adv-x="436" d="M-168 -291q57 0 93.5 3t66 13t45 25.5t26.5 44.5t14 64.5t3 91.5v1247h278v-1249q0 -145 -24 -238.5t-82.5 -153t-149 -84t-231.5 -24.5h-39v260zM45 1491q0 78 47.5 126t126.5 48q81 0 127.5 -47.5t46.5 -126.5t-46.5 -125.5t-127.5 -46.5q-83 0 -128.5 46.5 t-45.5 125.5z" />
<glyph unicode="k" horiz-adv-x="1230" d="M80 0v1516h276v-895l510 577h332l-463 -518l479 -680h-309l-358 516l-191 -211v-305h-276z" />
<glyph unicode="l" horiz-adv-x="438" d="M80 0v1516h278v-1516h-278z" />
<glyph unicode="m" horiz-adv-x="2043" d="M80 0v1198h274v-139q59 77 146.5 120.5t195.5 43.5q275 0 389 -207q63 96 165.5 151.5t228.5 55.5q240 0 363.5 -131.5t123.5 -370.5v-721h-283v698q0 133 -66.5 209t-193.5 76q-118 0 -191 -80.5t-73 -232.5v-670h-280v707q0 131 -64.5 203.5t-187.5 72.5 q-122 0 -196.5 -82t-74.5 -237v-664h-276z" />
<glyph unicode="n" horiz-adv-x="1267" d="M80 0v1198h274v-147q62 81 153.5 126.5t205.5 45.5q226 0 350.5 -134t124.5 -378v-711h-281v682q0 142 -68.5 221.5t-201.5 79.5q-123 0 -202 -86.5t-79 -239.5v-657h-276z" />
<glyph unicode="o" d="M41 598q0 129 48.5 245t131.5 199t198 132t243 49q127 0 241.5 -49t197.5 -132t132 -199t49 -245q0 -169 -82.5 -312.5t-225.5 -227t-312 -83.5q-170 0 -313 83.5t-225.5 227t-82.5 312.5zM313 598q0 -151 100.5 -256.5t248.5 -105.5q147 0 247.5 106t100.5 256 q0 153 -100.5 259t-247.5 106q-148 0 -248.5 -106t-100.5 -259z" />
<glyph unicode="p" horiz-adv-x="1368" d="M80 -551v1749h274v-160q64 86 166 135.5t223 49.5q91 0 177 -26.5t161 -79.5t131 -127t88.5 -175t32.5 -217q0 -142 -51 -262t-135 -197.5t-188.5 -120.5t-213.5 -43q-123 0 -225.5 43.5t-165.5 122.5v-692h-274zM344 602q0 -157 101 -265t255 -108q152 0 256.5 108 t104.5 265q0 155 -104.5 262t-256.5 107q-154 0 -255 -107t-101 -262z" />
<glyph unicode="q" horiz-adv-x="1374" d="M41 598q0 116 32.5 217t89.5 175t132 127t162 79.5t178 26.5q116 0 217 -48t168 -131v154h276v-1749h-278v690q-66 -79 -166 -121.5t-221 -42.5q-110 0 -214.5 43t-188.5 120.5t-135.5 197.5t-51.5 262zM313 602q0 -157 105 -265t258 -108q154 0 256 108t102 265 q0 155 -102 262t-256 107t-258.5 -107t-104.5 -262z" />
<glyph unicode="r" horiz-adv-x="882" d="M80 0v1198h274v-178q82 178 308 178q120 0 210 -51l-104 -262q-71 47 -166 47q-124 0 -185 -70t-61 -223v-639h-276z" />
<glyph unicode="s" horiz-adv-x="1060" d="M-2 266l256 123q88 -174 289 -174q99 0 152 41t53 104q0 14 -4.5 26.5t-14.5 22.5t-20.5 18t-29.5 16t-33.5 13t-40.5 11.5t-42.5 10t-47.5 10t-48 10.5q-60 13 -103.5 24.5t-96 31.5t-88.5 46t-68 61.5t-48 85.5t-16 111q0 150 132 258.5t339 108.5q342 0 490 -248 l-236 -119q-37 64 -103 100.5t-151 36.5q-93 0 -142.5 -37t-49.5 -92q0 -20 6.5 -35t26 -28t36 -21.5t56 -19t65.5 -16.5t84 -19q69 -14 120.5 -28.5t112 -42.5t99 -64.5t64.5 -94t26 -130.5q0 -52 -18 -105.5t-57.5 -105t-95.5 -92t-139 -65t-182 -24.5q-383 0 -532 291z " />
<glyph unicode="t" horiz-adv-x="817" d="M37 950v248h205v182l278 191v-373h244v-248h-244v-448q0 -56 3 -91t13.5 -64.5t25.5 -44.5t44.5 -25.5t65.5 -13.5t92 -3v-260h-39q-142 0 -232.5 24t-147.5 83.5t-80 153t-23 239.5v450h-205z" />
<glyph unicode="u" horiz-adv-x="1239" d="M80 487v711h280v-682q0 -143 64 -222t192 -79q119 0 193 86t74 240v657h276v-1198h-274v137q-123 -162 -344 -162q-216 0 -338.5 134.5t-122.5 377.5z" />
<glyph unicode="v" horiz-adv-x="1226" d="M18 1198h289l309 -844l304 844h284l-450 -1198h-279z" />
<glyph unicode="w" horiz-adv-x="2037" d="M37 1198h282l265 -825l301 825h274l295 -827l275 827h280l-420 -1198h-266l-303 829l-311 -829h-273z" />
<glyph unicode="x" horiz-adv-x="1257" d="M10 0l451 610l-434 588h338l272 -381l270 381h328l-430 -592l459 -606h-338l-293 399l-285 -399h-338z" />
<glyph unicode="y" horiz-adv-x="1265" d="M12 1198h295l334 -807l315 807h291l-715 -1751h-280l252 612z" />
<glyph unicode="z" horiz-adv-x="1181" d="M57 0v252l697 700h-682v246h1042v-252l-696 -700h708v-246h-1069z" />
<glyph unicode="{" horiz-adv-x="761" d="M43 379v256q66 0 103 8.5t57.5 34.5t26.5 61.5t6 100.5v211q0 102 14.5 174.5t45.5 125.5t84.5 84t127.5 45.5t178 14.5h23v-256q-47 0 -76.5 -2.5t-53 -10.5t-36 -20t-20.5 -35t-10.5 -50.5t-2.5 -71.5v-211q0 -132 -35.5 -212t-118.5 -120q84 -40 119 -119.5t35 -212.5 v-199q0 -44 2.5 -71.5t10.5 -50.5t20.5 -35t36 -20t53 -10.5t76.5 -2.5v-256h-23q-104 0 -178 14.5t-127.5 45.5t-84.5 84t-45.5 125.5t-14.5 174.5v199q0 65 -6 100t-26.5 62t-58 36t-102.5 9z" />
<glyph unicode="|" horiz-adv-x="428" d="M74 -471v1966h278v-1966h-278z" />
<glyph unicode="}" horiz-adv-x="761" d="M53 -215q47 0 76.5 2.5t53 10.5t36 20t20.5 35t10.5 50.5t2.5 71.5v199q0 133 35 212.5t119 119.5q-84 40 -119 119.5t-35 212.5v211q0 44 -2.5 71.5t-10.5 50.5t-20.5 35t-36 20t-53 10.5t-76.5 2.5v256h23q104 0 178 -14.5t127.5 -45.5t84.5 -84t45.5 -125.5 t14.5 -174.5v-211q0 -65 6 -100.5t26.5 -61.5t57.5 -34.5t103 -8.5v-256q-65 0 -102.5 -9t-58 -36t-26.5 -62t-6 -100v-199q0 -102 -14.5 -174.5t-45.5 -125.5t-84.5 -84t-127.5 -45.5t-178 -14.5h-23v256z" />
<glyph unicode="~" horiz-adv-x="964" d="M129 1176q0 126 56.5 200t158.5 74q76 0 156 -49q4 -3 16 -10.5t16.5 -10.5t14 -8.5t15.5 -8t14 -6t15.5 -4.5t14.5 -1q58 0 58 90h159q0 -128 -54.5 -201.5t-160.5 -73.5q-17 0 -32 1.5t-31 6.5t-25 7.5t-26 11t-21.5 11t-23 13t-19.5 11.5q-3 2 -14.5 8.5t-15 8.5 t-13 7t-15 6.5t-13 3t-15.5 1.5q-53 0 -53 -88h-162z" />
<glyph unicode="&#xa1;" horiz-adv-x="428" d="M45 881q0 76 45.5 122t122.5 46t121.5 -46t44.5 -122q0 -74 -45.5 -120t-122.5 -46t-121.5 45.5t-44.5 120.5zM76 -231q0 455 63 852h150q61 -385 61 -852v-240h-274v240z" />
<glyph unicode="&#xa2;" horiz-adv-x="1204" d="M63 545q0 194 117.5 344.5t298.5 200.5v268h279v-262q137 -29 238.5 -115t156.5 -213l-248 -106q-36 87 -109 137.5t-169 50.5q-126 0 -212.5 -88.5t-86.5 -216.5t87 -216.5t214 -88.5q94 0 167 51t109 135l248 -104q-55 -126 -157 -212.5t-238 -115.5v-260h-279v266 q-183 50 -299.5 200t-116.5 345z" />
<glyph unicode="&#xa3;" horiz-adv-x="1204" d="M68 211q0 106 69 174t189 68q93 0 172 -50q-5 25 -13.5 49.5t-29 58.5t-29 48t-42 60.5t-38.5 54.5h-235v219h114q-37 95 -37 197q0 193 123.5 309.5t331.5 116.5q185 0 299 -78.5t158 -220.5l-264 -97q-43 154 -189 154q-85 0 -130.5 -49.5t-45.5 -130.5q0 -88 53 -201 h396v-219h-291q73 -171 73 -324q0 -49 -16 -108q51 -41 76 -41q40 0 51.5 23.5t11.5 94.5v166h285v-157q0 -188 -60.5 -268t-218.5 -80q-120 0 -235 96q-92 -99 -217 -99q-156 0 -233.5 61t-77.5 173zM301 209q0 -19 16 -31t45 -12q50 0 84 37q-58 45 -102 45 q-20 0 -31.5 -10.5t-11.5 -28.5z" />
<glyph unicode="&#xa4;" horiz-adv-x="1583" d="M68 1294l202 191l269 -279q121 68 260 68q136 0 258 -66l254 260l200 -194l-256 -262q74 -126 74 -271q0 -146 -74 -272l256 -268l-200 -195l-258 266q-114 -63 -254 -63q-148 0 -267 70l-260 -267l-200 197l264 268q-68 124 -68 264q0 141 72 267zM537 741 q0 -113 76 -192.5t186 -79.5t187 79.5t77 192.5t-77 193t-187 80t-186 -80t-76 -193z" />
<glyph unicode="&#xa5;" horiz-adv-x="1204" d="M47 1495h311l246 -405l246 405h307l-416 -645v-49h301v-223h-301v-162h301v-226h-301v-190h-278v190h-299v226h299v162h-299v223h299v49z" />
<glyph unicode="&#xa6;" horiz-adv-x="432" d="M74 389h278v-860h-278v860zM74 635v860h278v-860h-278z" />
<glyph unicode="&#xa7;" horiz-adv-x="1177" d="M41 772q0 79 48.5 144t125.5 98q-65 77 -65 182q0 141 114 232.5t316 87.5q177 0 306 -84t158 -199l-262 -74q-11 62 -67 101.5t-142 39.5q-80 0 -121.5 -25t-41.5 -67q0 -27 19 -48.5t60.5 -39.5t87 -32t117.5 -31q80 -18 142 -37t120.5 -47.5t96.5 -62t61 -79.5 t23 -102q0 -76 -43 -136t-115 -97q72 -72 72 -181q0 -142 -131.5 -240.5t-335.5 -94.5q-187 0 -325.5 93t-172.5 216l276 76q19 -69 85 -112.5t157 -43.5q84 0 128 25.5t44 68.5q0 51 -83 82q-42 16 -212 55q-84 21 -142 39t-118.5 46t-97 61t-59.5 80t-23 106zM317 803 q0 -51 73.5 -82.5t248.5 -71.5q87 -22 145 -41q76 24 76 84q0 18 -9 33.5t-30 29t-45 24.5t-65 23.5t-78 22t-96 23.5q-66 16 -138 43q-40 -10 -61 -34t-21 -54z" />
<glyph unicode="&#xa8;" horiz-adv-x="968" d="M141 1268q0 66 40.5 106.5t107.5 40.5q68 0 107.5 -40t39.5 -107t-39.5 -106.5t-107.5 -39.5q-69 0 -108.5 40t-39.5 106zM532 1268q0 66 40.5 106.5t107.5 40.5t107 -40.5t40 -106.5t-40 -106t-107 -40q-71 0 -109.5 39.5t-38.5 106.5z" />
<glyph unicode="&#xa9;" horiz-adv-x="1617" d="M45 748q0 209 101.5 385.5t277.5 279.5t385 103t385.5 -103t278.5 -279.5t102 -385.5q0 -157 -60 -299.5t-162.5 -245t-244.5 -163t-299 -60.5q-209 0 -385 102.5t-277.5 279t-101.5 386.5zM266 748q0 -151 70 -278t195.5 -202t277.5 -75q112 0 214 44t175.5 118.5 t116.5 177.5t43 215t-43 215t-116.5 177.5t-175.5 118.5t-214 44q-152 0 -277.5 -75t-195.5 -202t-70 -278zM403 748q0 173 119.5 293t298.5 120q122 0 221 -63t144 -162q-179 -81 -182 -82l-31 -14q-12 42 -52 72t-102 30q-80 0 -135 -56t-55 -138t55 -138.5t135 -56.5 q60 0 103.5 31.5t54.5 72.5l219 -75q-49 -109 -149 -178.5t-226 -69.5q-182 0 -300 120t-118 294z" />
<glyph unicode="&#xaa;" horiz-adv-x="745" d="M41 1198q0 79 26 141t68 97t87.5 53t90.5 18q100 0 158 -65v53h201v-594h-201v64q-67 -74 -162 -74q-45 0 -90.5 18t-86 53t-66 96.5t-25.5 139.5zM238 1200q0 -54 34 -89.5t88 -35.5q53 0 85 36t32 89q0 52 -32 87.5t-85 35.5q-54 0 -88 -34t-34 -89z" />
<glyph unicode="&#xab;" horiz-adv-x="976" d="M94 446v154l375 231v-186l-205 -123l205 -121v-188zM508 446v154l375 231v-186l-205 -123l205 -121v-188z" />
<glyph unicode="&#xac;" horiz-adv-x="1234" d="M57 793v268h1106v-742h-278v474h-828z" />
<glyph unicode="&#xad;" horiz-adv-x="905" d="M74 403v236h757v-236h-757z" />
<glyph unicode="&#xae;" horiz-adv-x="1617" d="M45 512q0 209 101.5 385.5t277.5 279.5t385 103t385.5 -103t278.5 -279.5t102 -385.5q0 -157 -60 -299.5t-162.5 -245t-244.5 -163t-299 -60.5q-209 0 -385 102.5t-277.5 279t-101.5 386.5zM266 512q0 -151 70 -278t195.5 -202t277.5 -75q112 0 214 44t175.5 118.5 t116.5 177.5t43 215t-43 215t-116.5 177.5t-175.5 118.5t-214 44q-152 0 -277.5 -75t-195.5 -202t-70 -278zM483 133v766h355q160 0 254 -80.5t94 -191.5q0 -179 -156 -238l152 -256h-256l-199 381h102q54 0 87.5 24.5t33.5 75.5q0 95 -125 95h-110v-576h-232z" />
<glyph unicode="&#xaf;" horiz-adv-x="966" d="M215 1126v177h541v-177h-541z" />
<glyph unicode="&#xb0;" horiz-adv-x="819" d="M47 1155q0 148 106.5 254.5t256.5 106.5q151 0 255.5 -106t104.5 -255q0 -151 -104 -256.5t-256 -105.5q-151 0 -257 105.5t-106 256.5zM281 1155q0 -54 37.5 -91.5t91.5 -37.5t91.5 37.5t37.5 91.5t-37.5 91.5t-91.5 37.5t-91.5 -37.5t-37.5 -91.5z" />
<glyph unicode="&#xb1;" horiz-adv-x="905" d="M74 240v233h757v-233h-757zM74 854v233h264v263h231v-263h262v-233h-262v-262h-231v262h-264z" />
<glyph unicode="&#xb2;" horiz-adv-x="675" d="M8 1300q101 207 330 207q140 0 227.5 -73t87.5 -189q0 -47 -15 -89t-37 -71.5t-56.5 -57t-64 -45t-68.5 -36.5q-94 -51 -114 -68q-19 -17 -22 -34h371v-213h-618v170q0 61 20.5 111.5t57.5 88t73 62.5t84 49q10 6 34 19t33.5 19t27 17t25 18t17.5 17.5t13.5 20t3.5 20.5 q0 28 -22.5 47t-61.5 19q-81 0 -127 -111z" />
<glyph unicode="&#xb3;" horiz-adv-x="665" d="M10 727l174 158q55 -58 125 -58q42 0 67 19.5t25 54.5q0 68 -120 68h-91v200h86q107 0 107 74q0 64 -88 64q-73 0 -107 -58l-163 142q50 54 126 85t152 31q144 0 233 -69.5t89 -186.5q0 -102 -86 -170q106 -63 106 -186q0 -120 -88 -198.5t-233 -78.5q-93 0 -176 27 t-138 82z" />
<glyph unicode="&#xb4;" horiz-adv-x="966" d="M215 1126l236 349h258l-308 -349h-186z" />
<glyph unicode="&#xb5;" horiz-adv-x="1079" d="M66 -471v1495h278v-535q0 -272 193 -272q90 0 146 62.5t56 185.5v559h275v-1024h-273v100q-99 -120 -256 -120q-78 0 -147 34v-485h-272z" />
<glyph unicode="&#xb6;" horiz-adv-x="1347" d="M43 1057q0 185 127 311.5t315 126.5h789v-1495h-240v1237h-123v-1237h-237v618h-187q-190 0 -317 127t-127 312z" />
<glyph unicode="&#xb7;" horiz-adv-x="423" d="M74 381v281h274v-281h-274z" />
<glyph unicode="&#xb8;" horiz-adv-x="966" d="M141 -371l160 97q30 -25 46.5 -36.5t46 -22.5t63.5 -11q45 0 78.5 18.5t33.5 44.5q0 56 -118 56h-103v225h172v-109q113 4 174.5 -41t61.5 -122q0 -95 -92 -157.5t-228 -62.5q-79 0 -156 32.5t-139 88.5z" />
<glyph unicode="&#xb9;" horiz-adv-x="610" d="M29 631v213h166v340q-42 -54 -129 -54h-13v220h6q77 0 110.5 44.5t33.5 100.5h223v-651h160v-213h-557z" />
<glyph unicode="&#xba;" horiz-adv-x="694" d="M41 1198q0 130 89.5 219.5t217.5 89.5t216.5 -89.5t88.5 -219.5q0 -128 -89 -217.5t-216 -89.5q-128 0 -217.5 89.5t-89.5 217.5zM236 1198q0 -48 31.5 -82.5t80.5 -34.5q47 0 80 34.5t33 82.5q0 50 -33 84.5t-80 34.5q-49 0 -80.5 -34.5t-31.5 -84.5z" />
<glyph unicode="&#xbb;" horiz-adv-x="976" d="M94 213v188l205 121l-205 123v186l375 -231v-154zM508 213v188l205 121l-205 123v186l375 -231v-154z" />
<glyph unicode="&#xbc;" horiz-adv-x="1748" d="M29 631v213h166v340q-42 -54 -129 -54h-13v220h6q77 0 110.5 44.5t33.5 100.5h223v-651h160v-213h-557zM174 0l1079 1495h320l-1079 -1495h-320zM1034 172v203l344 489h215v-497h127v-195h-127v-172h-213v172h-346zM1272 367h108v157z" />
<glyph unicode="&#xbd;" horiz-adv-x="1781" d="M29 631v213h166v340q-42 -54 -129 -54h-13v220h6q77 0 110.5 44.5t33.5 100.5h223v-651h160v-213h-557zM174 0l1079 1495h320l-1079 -1495h-320zM1112 670q101 207 330 207q140 0 227.5 -73.5t87.5 -189.5q0 -47 -15 -89t-37 -71.5t-56.5 -57t-64 -45t-68.5 -36.5 q-94 -51 -114 -68q-19 -18 -22 -34h371v-213h-618v170q0 61 20.5 111.5t57.5 88t73 62.5t84 49q10 6 34 19t33.5 19t27 17t25 18t17.5 17.5t13.5 20t3.5 20.5q0 28 -22.5 47t-61.5 19q-81 0 -127 -111z" />
<glyph unicode="&#xbe;" horiz-adv-x="1761" d="M10 727l174 158q55 -58 125 -58q42 0 67 19.5t25 54.5q0 68 -120 68h-91v200h86q107 0 107 74q0 64 -88 64q-73 0 -107 -58l-163 142q50 54 126 85t152 31q144 0 233 -69.5t89 -186.5q0 -102 -86 -170q106 -63 106 -186q0 -120 -88 -198.5t-233 -78.5q-93 0 -176 27 t-138 82zM188 0l1080 1495h319l-1079 -1495h-320zM1047 172v203l344 489h215v-497h127v-195h-127v-172h-213v172h-346zM1284 367h109v157z" />
<glyph unicode="&#xbf;" horiz-adv-x="1058" d="M66 -63q0 78 20.5 139t53.5 100t73 72.5t80 66t73 70.5t53.5 97t20.5 134v23h246v-23q0 -101 -18.5 -181t-48.5 -130t-66 -89.5t-72 -68.5t-66 -58t-48.5 -68.5t-18.5 -88.5q0 -80 53 -131t142 -51q81 0 134 48.5t73 127.5l258 -88q-40 -153 -158.5 -241.5t-310.5 -88.5 q-208 0 -340.5 119t-132.5 310zM397 883q0 76 45.5 122t122.5 46t121.5 -46t44.5 -122q0 -74 -45.5 -120t-122.5 -46t-121.5 45.5t-44.5 120.5z" />
<glyph unicode="&#xc0;" horiz-adv-x="1406" d="M31 0l532 1495h281l532 -1495h-291l-92 266h-579l-92 -266h-291zM307 1946h260l234 -349h-187zM508 532h393l-196 568z" />
<glyph unicode="&#xc1;" horiz-adv-x="1406" d="M31 0l532 1495h281l532 -1495h-291l-92 266h-579l-92 -266h-291zM508 532h393l-196 568zM608 1597l236 349h258l-307 -349h-187z" />
<glyph unicode="&#xc2;" horiz-adv-x="1406" d="M31 0l532 1495h281l532 -1495h-291l-92 266h-579l-92 -266h-291zM371 1597l243 349h172l244 -349h-209l-121 183l-120 -183h-209zM508 532h393l-196 568z" />
<glyph unicode="&#xc3;" horiz-adv-x="1406" d="M31 0l532 1495h281l532 -1495h-291l-92 266h-579l-92 -266h-291zM354 1597q0 126 57 201.5t156 75.5q74 0 158 -49q3 -2 8 -5q59 -42 88 -45q5 -1 10 -1q58 0 58 92h160q0 -131 -54.5 -204t-160.5 -73q-19 0 -38.5 3.5t-32 6.5t-32 12.5t-26 12.5t-27.5 15.5t-23 13.5 q-60 35 -88 35q-53 0 -53 -91h-160zM508 532h393l-196 568z" />
<glyph unicode="&#xc4;" horiz-adv-x="1406" d="M31 0l532 1495h281l532 -1495h-291l-92 266h-579l-92 -266h-291zM360 1739q0 66 40.5 106.5t107.5 40.5q68 0 107.5 -40t39.5 -107t-39.5 -106.5t-107.5 -39.5t-108 39.5t-40 106.5zM508 532h393l-196 568zM752 1739q0 66 40 106.5t107 40.5t107.5 -40.5t40.5 -106.5 t-40.5 -106t-107.5 -40q-71 0 -109 39.5t-38 106.5z" />
<glyph unicode="&#xc5;" horiz-adv-x="1406" d="M31 0l501 1409q-67 70 -67 168q0 102 69 172t168 70q100 0 170 -70t70 -172q0 -98 -70 -168l504 -1409h-291l-92 266h-579l-92 -266h-291zM508 532h393l-196 568zM621 1577q0 -33 23 -56.5t58 -23.5t59.5 23.5t24.5 56.5q0 35 -24.5 59.5t-59.5 24.5t-58 -24t-23 -60z " />
<glyph unicode="&#xc6;" horiz-adv-x="1921" d="M27 0l682 1495h1142v-266h-790l86 -344h704v-267h-637l89 -352h548v-266h-774l-65 264h-576l-119 -264h-290zM551 522h397l-139 572z" />
<glyph unicode="&#xc7;" horiz-adv-x="1511" d="M45 748q0 164 59.5 307.5t162 244t244.5 158.5t302 58q207 0 381 -100.5t274 -270.5l-243 -156q-142 252 -412 252q-140 0 -252.5 -65t-175.5 -177.5t-63 -250.5q0 -135 62.5 -247t174 -177.5t248.5 -65.5q149 0 258 75.5t172 205.5l254 -133q-94 -183 -252.5 -294 t-359.5 -128v-93q112 4 173.5 -41t61.5 -122q0 -95 -91.5 -157.5t-227.5 -62.5q-79 0 -156 32.5t-139 88.5l159 97q30 -25 46.5 -36.5t46 -22.5t63.5 -11q45 0 79 18.5t34 44.5q0 56 -119 56h-102v213q-197 24 -348.5 130t-232.5 270t-81 360z" />
<glyph unicode="&#xc8;" horiz-adv-x="1042" d="M86 0v1495h887v-266h-608v-344h608v-267h-608v-352h608v-266h-887zM147 1946h261l233 -349h-186z" />
<glyph unicode="&#xc9;" horiz-adv-x="1042" d="M86 0v1495h887v-266h-608v-344h608v-267h-608v-352h608v-266h-887zM414 1597l235 349h258l-307 -349h-186z" />
<glyph unicode="&#xca;" horiz-adv-x="1042" d="M86 0v1495h887v-266h-608v-344h608v-267h-608v-352h608v-266h-887zM199 1597l243 349h172l244 -349h-209l-121 183l-120 -183h-209z" />
<glyph unicode="&#xcb;" horiz-adv-x="1042" d="M86 0v1495h887v-266h-608v-344h608v-267h-608v-352h608v-266h-887zM195 1739q0 66 40 106.5t107 40.5q68 0 107.5 -40t39.5 -107t-39.5 -106.5t-107.5 -39.5t-107.5 39.5t-39.5 106.5zM586 1739q0 66 40 106.5t107 40.5t107.5 -40.5t40.5 -106.5t-40.5 -106t-107.5 -40 q-71 0 -109 39.5t-38 106.5z" />
<glyph unicode="&#xcc;" horiz-adv-x="471" d="M-164 1946h260l234 -349h-187zM96 0v1495h279v-1495h-279z" />
<glyph unicode="&#xcd;" horiz-adv-x="471" d="M96 0v1495h279v-1495h-279zM143 1597l236 349h258l-307 -349h-187z" />
<glyph unicode="&#xce;" horiz-adv-x="471" d="M-94 1597l244 349h172l243 -349h-209l-120 183l-121 -183h-209zM96 0v1495h279v-1495h-279z" />
<glyph unicode="&#xcf;" horiz-adv-x="471" d="M-113 1599v281h275v-281h-275zM96 0v1495h279v-1495h-279zM311 1599v281h275v-281h-275z" />
<glyph unicode="&#xd0;" horiz-adv-x="1423" d="M41 633v235h141v627h408q185 0 335.5 -57t249.5 -157.5t152 -237t53 -295.5q0 -158 -58 -296.5t-160 -237.5t-247 -156.5t-313 -57.5h-420v633h-141zM461 258h108q242 0 387.5 138.5t145.5 351.5q0 224 -138 356.5t-407 132.5h-96v-369h338v-235h-338v-375z" />
<glyph unicode="&#xd1;" horiz-adv-x="1413" d="M86 0v1495h315l648 -1018v1018h278v-1495h-297l-665 1051v-1051h-279zM356 1597q0 126 57 201.5t156 75.5q74 0 158 -49q27 -19 39 -26.5t32 -16t36 -8.5q57 0 57 92h160q0 -131 -54.5 -204t-160.5 -73q-19 0 -38.5 3.5t-32 6.5t-32 12.5t-26 12.5t-27.5 15.5t-23 13.5 q-60 35 -88 35q-53 0 -53 -91h-160z" />
<glyph unicode="&#xd2;" horiz-adv-x="1617" d="M45 748q0 209 101.5 385.5t277.5 279.5t385 103t385.5 -103t278.5 -279.5t102 -385.5q0 -157 -60 -299.5t-162.5 -245t-244.5 -163t-299 -60.5q-209 0 -385 102.5t-277.5 279t-101.5 386.5zM322 748q0 -134 64.5 -247.5t176.5 -180t246 -66.5t246.5 66.5t177.5 180 t65 247.5t-65 247.5t-177.5 179.5t-246.5 66t-246 -66t-176.5 -179.5t-64.5 -247.5zM408 1946h260l233 -349h-186z" />
<glyph unicode="&#xd3;" horiz-adv-x="1617" d="M45 748q0 209 101.5 385.5t277.5 279.5t385 103t385.5 -103t278.5 -279.5t102 -385.5q0 -157 -60 -299.5t-162.5 -245t-244.5 -163t-299 -60.5q-209 0 -385 102.5t-277.5 279t-101.5 386.5zM322 748q0 -134 64.5 -247.5t176.5 -180t246 -66.5t246.5 66.5t177.5 180 t65 247.5t-65 247.5t-177.5 179.5t-246.5 66t-246 -66t-176.5 -179.5t-64.5 -247.5zM702 1597l236 349h258l-307 -349h-187z" />
<glyph unicode="&#xd4;" horiz-adv-x="1617" d="M45 748q0 209 101.5 385.5t277.5 279.5t385 103t385.5 -103t278.5 -279.5t102 -385.5q0 -157 -60 -299.5t-162.5 -245t-244.5 -163t-299 -60.5q-209 0 -385 102.5t-277.5 279t-101.5 386.5zM322 748q0 -134 64.5 -247.5t176.5 -180t246 -66.5t246.5 66.5t177.5 180 t65 247.5t-65 247.5t-177.5 179.5t-246.5 66t-246 -66t-176.5 -179.5t-64.5 -247.5zM471 1597l244 349h172l243 -349h-208l-121 183l-121 -183h-209z" />
<glyph unicode="&#xd5;" horiz-adv-x="1617" d="M45 748q0 209 101.5 385.5t277.5 279.5t385 103t385.5 -103t278.5 -279.5t102 -385.5q0 -157 -60 -299.5t-162.5 -245t-244.5 -163t-299 -60.5q-209 0 -385 102.5t-277.5 279t-101.5 386.5zM322 748q0 -134 64.5 -247.5t176.5 -180t246 -66.5t246.5 66.5t177.5 180 t65 247.5t-65 247.5t-177.5 179.5t-246.5 66t-246 -66t-176.5 -179.5t-64.5 -247.5zM451 1597q0 126 57 201.5t156 75.5q73 0 157 -49q27 -19 39 -26.5t32 -16t36 -8.5q57 0 57 92h160q0 -131 -54.5 -204t-160.5 -73q-19 0 -38.5 3.5t-32 7t-31.5 12t-26 12.5t-26.5 15.5 t-23.5 13.5q-60 35 -88 35q-54 0 -54 -91h-159z" />
<glyph unicode="&#xd6;" horiz-adv-x="1617" d="M45 748q0 209 101.5 385.5t277.5 279.5t385 103t385.5 -103t278.5 -279.5t102 -385.5q0 -157 -60 -299.5t-162.5 -245t-244.5 -163t-299 -60.5q-209 0 -385 102.5t-277.5 279t-101.5 386.5zM322 748q0 -134 64.5 -247.5t176.5 -180t246 -66.5t246.5 66.5t177.5 180 t65 247.5t-65 247.5t-177.5 179.5t-246.5 66t-246 -66t-176.5 -179.5t-64.5 -247.5zM453 1739q0 66 40 106.5t107 40.5q68 0 108 -40t40 -107t-40 -106.5t-108 -39.5t-107.5 39.5t-39.5 106.5zM844 1739q0 66 40 106.5t107 40.5t107.5 -40.5t40.5 -106.5t-40.5 -106 t-107.5 -40q-71 0 -109 39.5t-38 106.5z" />
<glyph unicode="&#xd7;" horiz-adv-x="905" d="M74 961l162 161l217 -217l217 217l161 -161l-217 -218l215 -215l-161 -161l-215 215l-215 -215l-162 161l215 215z" />
<glyph unicode="&#xd8;" horiz-adv-x="1617" d="M45 748q0 209 101.5 385.5t277.5 279.5t385 103q193 0 381 -103l67 82h322l-195 -240q191 -216 191 -507q0 -157 -60 -299.5t-162.5 -245t-244.5 -163t-299 -60.5q-201 0 -377 98l-61 -78h-322l189 233q-193 218 -193 515zM322 748q0 -164 94 -295l598 741 q-100 47 -205 47q-134 0 -246 -66t-176.5 -179.5t-64.5 -247.5zM610 295q93 -41 199 -41q134 0 246.5 66.5t177.5 180t65 247.5q0 157 -92 286z" />
<glyph unicode="&#xd9;" horiz-adv-x="1245" d="M84 516v979h278v-995q0 -111 74.5 -186.5t184.5 -75.5q109 0 185.5 76t76.5 186v995h278v-979q0 -171 -70.5 -293.5t-191 -182.5t-276.5 -60q-241 0 -390 140.5t-149 395.5zM240 1946h260l233 -349h-186z" />
<glyph unicode="&#xda;" horiz-adv-x="1245" d="M84 516v979h278v-995q0 -111 74.5 -186.5t184.5 -75.5q109 0 185.5 76t76.5 186v995h278v-979q0 -171 -70.5 -293.5t-191 -182.5t-276.5 -60q-241 0 -390 140.5t-149 395.5zM512 1597l236 349h258l-308 -349h-186z" />
<glyph unicode="&#xdb;" horiz-adv-x="1245" d="M84 516v979h278v-995q0 -111 74.5 -186.5t184.5 -75.5q109 0 185.5 76t76.5 186v995h278v-979q0 -171 -70.5 -293.5t-191 -182.5t-276.5 -60q-241 0 -390 140.5t-149 395.5zM293 1597l244 349h172l243 -349h-209l-120 183l-121 -183h-209z" />
<glyph unicode="&#xdc;" horiz-adv-x="1245" d="M84 516v979h278v-995q0 -111 74.5 -186.5t184.5 -75.5q109 0 185.5 76t76.5 186v995h278v-979q0 -171 -70.5 -293.5t-191 -182.5t-276.5 -60q-241 0 -390 140.5t-149 395.5zM289 1739q0 66 40 106.5t107 40.5q68 0 108 -40t40 -107t-40 -106.5t-108 -39.5t-107.5 39.5 t-39.5 106.5zM680 1739q0 66 40 106.5t107 40.5t107.5 -40.5t40.5 -106.5t-40.5 -106t-107.5 -40q-71 0 -109 39.5t-38 106.5z" />
<glyph unicode="&#xdd;" horiz-adv-x="1288" d="M27 1495h307l309 -518l311 518h308l-482 -793v-702h-278v709zM541 1597l235 349h258l-307 -349h-186z" />
<glyph unicode="&#xde;" horiz-adv-x="1142" d="M86 0v1495h279v-260h247q137 0 246 -63.5t169 -172t60 -239.5q0 -200 -135 -337.5t-342 -137.5h-245v-285h-279zM365 543h231q97 0 156 61.5t59 155.5q0 93 -59.5 155t-155.5 62h-231v-434z" />
<glyph unicode="&#xdf;" horiz-adv-x="1206" d="M-164 -291q80 0 126 9.5t73.5 39t36 73t8.5 120.5v1280q-8 233 129.5 375.5t386.5 142.5q226 0 368 -134.5t142 -346.5q0 -124 -62.5 -219t-175.5 -142q133 -42 216 -150.5t83 -254.5q0 -231 -149 -378t-391 -147q-102 0 -162 23v250q13 -11 67 -17t91 -6q111 0 186.5 78 t75.5 195q0 112 -88.5 190t-233.5 78h-53v252h53q121 0 197 71.5t76 178.5q0 104 -67 175t-175 71q-118 0 -185 -65t-67 -191v-1309q0 -142 -22.5 -234.5t-76.5 -154t-142 -87.5t-222 -26h-43v260z" />
<glyph unicode="&#xe0;" horiz-adv-x="1374" d="M41 598q0 116 32.5 217t89.5 175t132 127t162 79.5t178 26.5q117 0 217.5 -44.5t167.5 -123.5v143h276v-1198h-276v156q-66 -85 -168.5 -133t-220.5 -48q-110 0 -214.5 43t-188.5 120.5t-135.5 197.5t-51.5 262zM279 1669h260l233 -348h-186zM313 602q0 -157 105 -265 t258 -108q154 0 256 108t102 265q0 155 -102 262t-256 107t-258.5 -107t-104.5 -262z" />
<glyph unicode="&#xe1;" horiz-adv-x="1374" d="M41 598q0 116 32.5 217t89.5 175t132 127t162 79.5t178 26.5q117 0 217.5 -44.5t167.5 -123.5v143h276v-1198h-276v156q-66 -85 -168.5 -133t-220.5 -48q-110 0 -214.5 43t-188.5 120.5t-135.5 197.5t-51.5 262zM313 602q0 -157 105 -265t258 -108q154 0 256 108t102 265 q0 155 -102 262t-256 107t-258.5 -107t-104.5 -262zM555 1321l236 348h258l-308 -348h-186z" />
<glyph unicode="&#xe2;" horiz-adv-x="1374" d="M41 598q0 116 32.5 217t89.5 175t132 127t162 79.5t178 26.5q117 0 217.5 -44.5t167.5 -123.5v143h276v-1198h-276v156q-66 -85 -168.5 -133t-220.5 -48q-110 0 -214.5 43t-188.5 120.5t-135.5 197.5t-51.5 262zM305 1315l244 348h172l244 -348h-209l-121 182l-121 -182 h-209zM313 602q0 -157 105 -265t258 -108q154 0 256 108t102 265q0 155 -102 262t-256 107t-258.5 -107t-104.5 -262z" />
<glyph unicode="&#xe3;" horiz-adv-x="1374" d="M41 598q0 116 32.5 217t89.5 175t132 127t162 79.5t178 26.5q117 0 217.5 -44.5t167.5 -123.5v143h276v-1198h-276v156q-66 -85 -168.5 -133t-220.5 -48q-110 0 -214.5 43t-188.5 120.5t-135.5 197.5t-51.5 262zM313 602q0 -157 105 -265t258 -108q154 0 256 108t102 265 q0 155 -102 262t-256 107t-258.5 -107t-104.5 -262zM334 1321q0 126 57 201t156 75q74 0 158 -49q3 -2 8 -5q59 -42 88 -45q5 -1 10 -1q57 0 57 92h160q0 -131 -54.5 -203.5t-160.5 -72.5q-17 0 -32 2t-30.5 6.5t-26 7.5t-25.5 11t-21.5 11.5t-22.5 13t-20 11.5 q-60 35 -88 35q-53 0 -53 -90h-160z" />
<glyph unicode="&#xe4;" horiz-adv-x="1374" d="M41 598q0 116 32.5 217t89.5 175t132 127t162 79.5t178 26.5q117 0 217.5 -44.5t167.5 -123.5v143h276v-1198h-276v156q-66 -85 -168.5 -133t-220.5 -48q-110 0 -214.5 43t-188.5 120.5t-135.5 197.5t-51.5 262zM313 602q0 -157 105 -265t258 -108q154 0 256 108t102 265 q0 155 -102 262t-256 107t-258.5 -107t-104.5 -262zM319 1460q0 66 40.5 107t107.5 41q68 0 107.5 -40.5t39.5 -107.5q0 -66 -39 -105.5t-108 -39.5t-108.5 39.5t-39.5 105.5zM711 1460q0 66 40 107t107 41t107.5 -41t40.5 -107t-40.5 -105.5t-107.5 -39.5q-71 0 -109 39 t-38 106z" />
<glyph unicode="&#xe5;" horiz-adv-x="1374" d="M41 598q0 116 32.5 217t89.5 175t132 127t162 79.5t178 26.5q117 0 217.5 -44.5t167.5 -123.5v143h276v-1198h-276v156q-66 -85 -168.5 -133t-220.5 -48q-110 0 -214.5 43t-188.5 120.5t-135.5 197.5t-51.5 262zM313 602q0 -157 105 -265t258 -108q154 0 256 108t102 265 q0 155 -102 262t-256 107t-258.5 -107t-104.5 -262zM436 1548q0 102 69.5 172t168.5 70q100 0 169.5 -70t69.5 -172q0 -98 -69.5 -167.5t-169.5 -69.5q-98 0 -168 69.5t-70 167.5zM592 1548q0 -33 23.5 -56.5t58.5 -23.5t59.5 23.5t24.5 56.5q0 35 -24.5 59.5t-59.5 24.5 t-58.5 -24.5t-23.5 -59.5z" />
<glyph unicode="&#xe6;" horiz-adv-x="2119" d="M37 315q0 81 29 144.5t85 107.5t123.5 73.5t157.5 51.5q33 9 84.5 21.5t84 20.5t73.5 19.5t66 23t48.5 26t34.5 32.5t11 39q0 57 -58 93.5t-164 36.5q-142 0 -215 -63.5t-73 -162.5v-6h-254v4q0 213 139 330t391 117q306 0 430 -174q174 174 430 174q174 0 315.5 -80 t222.5 -221.5t81 -315.5v-96h-977q25 -133 123 -212t248 -79q115 0 205 59t134 158l234 -100q-77 -168 -226.5 -264.5t-346.5 -96.5q-170 0 -300.5 66t-211.5 186q-65 -108 -196.5 -180t-293.5 -72q-217 0 -325.5 93t-108.5 247zM313 324q0 -119 172 -119q71 0 137.5 29 t111.5 72.5t74.5 90t35.5 84.5q0 114 -4 121q-10 -27 -78.5 -52t-196.5 -54q-137 -31 -194.5 -67.5t-57.5 -104.5zM1120 741h676q-35 116 -122.5 177t-213.5 61q-120 0 -209 -64.5t-131 -173.5z" />
<glyph unicode="&#xe7;" horiz-adv-x="1263" d="M41 598q0 129 48.5 245t131.5 199t198.5 132t244.5 49q196 0 348 -102t223 -269l-248 -104q-42 99 -127 157t-194 58q-151 0 -253 -106t-102 -259q0 -151 102.5 -256.5t254.5 -105.5q113 0 196.5 60.5t126.5 162.5l248 -107q-68 -159 -197.5 -257t-310.5 -115v-99 q112 4 174 -41.5t62 -122.5q0 -95 -92 -157t-228 -62q-79 0 -156 32.5t-139 88.5l160 96q30 -25 46.5 -36.5t46 -22t63.5 -10.5q45 0 78.5 18.5t33.5 44.5q0 55 -118 55h-103v220q-225 37 -371.5 209.5t-146.5 404.5z" />
<glyph unicode="&#xe8;" d="M41 596q0 129 48.5 245t131.5 200t198.5 133t244.5 49q175 0 316.5 -80t220.5 -221t79 -316v-104h-975q30 -130 127 -206.5t242 -76.5q115 0 202 56.5t130 154.5l227 -131q-81 -152 -222 -238t-337 -86q-138 0 -257 48.5t-201 132t-128.5 197.5t-46.5 243zM319 733h680 q-30 120 -117.5 183t-217.5 63q-123 0 -215.5 -67t-129.5 -179zM319 1659h261l233 -348h-186z" />
<glyph unicode="&#xe9;" d="M41 596q0 129 48.5 245t131.5 200t198.5 133t244.5 49q175 0 316.5 -80t220.5 -221t79 -316v-104h-975q30 -130 127 -206.5t242 -76.5q115 0 202 56.5t130 154.5l227 -131q-81 -152 -222 -238t-337 -86q-138 0 -257 48.5t-201 132t-128.5 197.5t-46.5 243zM319 733h680 q-30 120 -117.5 183t-217.5 63q-123 0 -215.5 -67t-129.5 -179zM571 1321l236 348h258l-307 -348h-187z" />
<glyph unicode="&#xea;" d="M41 596q0 129 48.5 245t131.5 200t198.5 133t244.5 49q175 0 316.5 -80t220.5 -221t79 -316v-104h-975q30 -130 127 -206.5t242 -76.5q115 0 202 56.5t130 154.5l227 -131q-81 -152 -222 -238t-337 -86q-138 0 -257 48.5t-201 132t-128.5 197.5t-46.5 243zM319 733h680 q-30 120 -117.5 183t-217.5 63q-123 0 -215.5 -67t-129.5 -179zM344 1309l244 348h172l244 -348h-209l-121 182l-121 -182h-209z" />
<glyph unicode="&#xeb;" d="M41 596q0 129 48.5 245t131.5 200t198.5 133t244.5 49q175 0 316.5 -80t220.5 -221t79 -316v-104h-975q30 -130 127 -206.5t242 -76.5q115 0 202 56.5t130 154.5l227 -131q-81 -152 -222 -238t-337 -86q-138 0 -257 48.5t-201 132t-128.5 197.5t-46.5 243zM319 733h680 q-30 120 -117.5 183t-217.5 63q-123 0 -215.5 -67t-129.5 -179zM319 1440q0 66 40.5 106.5t107.5 40.5q68 0 107.5 -40t39.5 -107t-39.5 -106.5t-107.5 -39.5q-69 0 -108.5 40t-39.5 106zM711 1440q0 66 40 106.5t107 40.5t107.5 -40.5t40.5 -106.5t-40.5 -106t-107.5 -40 q-71 0 -109 39.5t-38 106.5z" />
<glyph unicode="&#xec;" horiz-adv-x="438" d="M-186 1649h260l233 -349h-186zM80 0v1198h278v-1198h-278z" />
<glyph unicode="&#xed;" horiz-adv-x="438" d="M80 0v1198h278v-1198h-278zM113 1300l235 349h258l-307 -349h-186z" />
<glyph unicode="&#xee;" horiz-adv-x="438" d="M-104 1300l243 349h172l244 -349h-209l-121 183l-121 -183h-208zM80 0v1198h278v-1198h-278z" />
<glyph unicode="&#xef;" horiz-adv-x="438" d="M-139 1290v330h278v-330h-278zM80 0v1198h278v-1198h-278zM297 1290v330h276v-330h-276z" />
<glyph unicode="&#xf0;" horiz-adv-x="1353" d="M41 608q0 126 49 240t130 195t187 128.5t218 47.5q138 0 227 -66q-80 104 -221 221l-131 -92h-262l272 188q-142 111 -328 238h396q29 -21 124 -102l146 102h258l-287 -203q253 -233 359 -441.5t106 -465.5q0 -166 -81.5 -309t-225.5 -228.5t-315 -85.5 q-167 0 -308.5 79.5t-227 225.5t-85.5 328zM313 598q0 -151 100.5 -256.5t248.5 -105.5q147 0 247.5 106t100.5 256q0 153 -100.5 259t-247.5 106q-148 0 -248.5 -106t-100.5 -259z" />
<glyph unicode="&#xf1;" horiz-adv-x="1265" d="M80 0v1198h274v-147q62 81 153.5 126.5t205.5 45.5q226 0 350.5 -134t124.5 -378v-711h-281v682q0 142 -68.5 221.5t-201.5 79.5q-123 0 -202 -86.5t-79 -239.5v-657h-276zM342 1323q0 126 57 201t156 75q74 0 158 -49q3 -2 8 -5q59 -42 88 -45q5 -1 10 -1q58 0 58 92 h159q0 -131 -54.5 -203.5t-160.5 -72.5q-17 0 -32 2t-30.5 6.5t-26 7.5t-25.5 11t-21.5 11.5t-22.5 13t-20 11.5q-60 35 -88 35q-53 0 -53 -90h-160z" />
<glyph unicode="&#xf2;" d="M41 598q0 190 105 348t274 228l-264 301h260l172 -256q50 4 74 4q127 0 241.5 -49t197.5 -132t132 -199t49 -245q0 -169 -82.5 -312.5t-225.5 -227t-312 -83.5q-170 0 -313 83.5t-225.5 227t-82.5 312.5zM313 598q0 -151 100.5 -256.5t248.5 -105.5q147 0 247.5 106 t100.5 256q0 153 -100.5 259t-247.5 106q-148 0 -248.5 -106t-100.5 -259z" />
<glyph unicode="&#xf3;" d="M41 598q0 129 48.5 245t131.5 199t198 132t243 49q127 0 241.5 -49t197.5 -132t132 -199t49 -245q0 -169 -82.5 -312.5t-225.5 -227t-312 -83.5q-170 0 -313 83.5t-225.5 227t-82.5 312.5zM313 598q0 -151 100.5 -256.5t248.5 -105.5q147 0 247.5 106t100.5 256 q0 153 -100.5 259t-247.5 106q-148 0 -248.5 -106t-100.5 -259zM567 1321l236 348h258l-307 -348h-187z" />
<glyph unicode="&#xf4;" d="M41 598q0 129 48.5 245t131.5 199t198 132t243 49q127 0 241.5 -49t197.5 -132t132 -199t49 -245q0 -169 -82.5 -312.5t-225.5 -227t-312 -83.5q-170 0 -313 83.5t-225.5 227t-82.5 312.5zM313 598q0 -151 100.5 -256.5t248.5 -105.5q147 0 247.5 106t100.5 256 q0 153 -100.5 259t-247.5 106q-148 0 -248.5 -106t-100.5 -259zM338 1300l244 349h172l243 -349h-209l-120 183l-121 -183h-209z" />
<glyph unicode="&#xf5;" d="M41 598q0 129 48.5 245t131.5 199t198 132t243 49q127 0 241.5 -49t197.5 -132t132 -199t49 -245q0 -169 -82.5 -312.5t-225.5 -227t-312 -83.5q-170 0 -313 83.5t-225.5 227t-82.5 312.5zM313 598q0 -151 100.5 -256.5t248.5 -105.5q147 0 247.5 106t100.5 256 q0 153 -100.5 259t-247.5 106q-148 0 -248.5 -106t-100.5 -259zM338 1317q0 126 57 201t156 75q74 0 158 -49q3 -2 8 -5q59 -42 88 -45q5 -1 10 -1q57 0 57 92h160q0 -131 -54.5 -203.5t-160.5 -72.5q-17 0 -32 2t-30.5 6.5t-26 7.5t-25.5 11t-21.5 11.5t-22.5 13t-20 11.5 q-60 35 -88 35q-53 0 -53 -90h-160z" />
<glyph unicode="&#xf6;" d="M41 598q0 129 48.5 245t131.5 199t198 132t243 49q127 0 241.5 -49t197.5 -132t132 -199t49 -245q0 -169 -82.5 -312.5t-225.5 -227t-312 -83.5q-170 0 -313 83.5t-225.5 227t-82.5 312.5zM313 598q0 -151 100.5 -256.5t248.5 -105.5q147 0 247.5 106t100.5 256 q0 153 -100.5 259t-247.5 106q-148 0 -248.5 -106t-100.5 -259zM315 1440q0 66 40.5 106.5t107.5 40.5q68 0 107.5 -40t39.5 -107t-39.5 -106.5t-107.5 -39.5q-69 0 -108.5 40t-39.5 106zM707 1440q0 66 40 106.5t107 40.5t107 -40.5t40 -106.5t-40 -106t-107 -40 q-71 0 -109 39.5t-38 106.5z" />
<glyph unicode="&#xf7;" horiz-adv-x="905" d="M74 629v235h757v-235h-757zM338 309v238h233v-238h-233zM338 946v240h233v-240h-233z" />
<glyph unicode="&#xf8;" d="M41 0l149 188q-149 169 -149 410q0 129 48.5 245t131.5 199t198 132t243 49q153 0 292 -74l39 49h285l-150 -188q154 -175 154 -412q0 -169 -82.5 -312.5t-225.5 -227t-312 -83.5q-158 0 -297 74l-39 -49h-285zM311 598q0 -109 51 -192l424 532q-61 25 -124 25 q-150 0 -250.5 -106t-100.5 -259zM532 260q59 -24 130 -24q147 0 248.5 106t101.5 256q0 108 -56 197z" />
<glyph unicode="&#xf9;" horiz-adv-x="1245" d="M86 487v711h281v-682q0 -143 64 -222t192 -79q119 0 192.5 86t73.5 240v657h276v-1198h-274v137q-123 -162 -344 -162q-216 0 -338.5 134.5t-122.5 377.5zM242 1632h260l233 -348h-186z" />
<glyph unicode="&#xfa;" horiz-adv-x="1245" d="M86 487v711h281v-682q0 -143 64 -222t192 -79q119 0 192.5 86t73.5 240v657h276v-1198h-274v137q-123 -162 -344 -162q-216 0 -338.5 134.5t-122.5 377.5zM510 1278l235 348h259l-308 -348h-186z" />
<glyph unicode="&#xfb;" horiz-adv-x="1245" d="M86 487v711h281v-682q0 -143 64 -222t192 -79q119 0 192.5 86t73.5 240v657h276v-1198h-274v137q-123 -162 -344 -162q-216 0 -338.5 134.5t-122.5 377.5zM289 1300l243 349h173l243 -349h-209l-121 183l-120 -183h-209z" />
<glyph unicode="&#xfc;" horiz-adv-x="1245" d="M86 487v711h281v-682q0 -143 64 -222t192 -79q119 0 192.5 86t73.5 240v657h276v-1198h-274v137q-123 -162 -344 -162q-216 0 -338.5 134.5t-122.5 377.5zM283 1440q0 66 40 106.5t107 40.5q68 0 108 -40t40 -107q0 -66 -40 -106t-108 -40t-107.5 39.5t-39.5 106.5z M674 1440q0 66 40 106.5t107 40.5t107.5 -40.5t40.5 -106.5t-40.5 -106t-107.5 -40q-71 0 -109 39.5t-38 106.5z" />
<glyph unicode="&#xfd;" horiz-adv-x="1265" d="M12 1198h295l334 -807l315 807h291l-715 -1751h-280l252 612zM526 1251l236 348h258l-307 -348h-187z" />
<glyph unicode="&#xfe;" horiz-adv-x="1372" d="M80 -551v2300h274v-713q66 86 168 136.5t226 50.5q91 0 176.5 -26t159 -79t129 -126t87 -173t31.5 -215q0 -145 -50 -266t-132.5 -199t-186.5 -121t-214 -43q-125 0 -227 50.5t-167 138.5v-715h-274zM346 602q0 -154 102.5 -263.5t253.5 -109.5q155 0 258 109t103 266 q0 154 -102.5 260.5t-258.5 106.5q-152 0 -254 -107t-102 -262z" />
<glyph unicode="&#xff;" horiz-adv-x="1265" d="M12 1198h295l334 -807l315 807h291l-715 -1751h-280l252 612zM295 1440q0 66 40 106.5t107 40.5q68 0 108 -40t40 -107q0 -66 -40 -106t-108 -40t-107.5 39.5t-39.5 106.5zM686 1440q0 66 40.5 106.5t107.5 40.5t107 -40.5t40 -106.5t-40 -106t-107 -40 q-71 0 -109.5 39.5t-38.5 106.5z" />
<glyph unicode="&#x100;" horiz-adv-x="1406" d="M31 0l532 1495h281l532 -1495h-291l-92 266h-579l-92 -266h-291zM436 1597v177h541v-177h-541zM508 532h393l-196 568z" />
<glyph unicode="&#x101;" horiz-adv-x="1374" d="M41 598q0 116 32.5 217t89.5 175t132 127t162 79.5t178 26.5q117 0 217.5 -44.5t167.5 -123.5v143h276v-1198h-276v156q-66 -85 -168.5 -133t-220.5 -48q-110 0 -214.5 43t-188.5 120.5t-135.5 197.5t-51.5 262zM313 602q0 -157 105 -265t258 -108q154 0 256 108t102 265 q0 155 -102 262t-256 107t-258.5 -107t-104.5 -262zM416 1323v176h540v-176h-540z" />
<glyph unicode="&#x102;" horiz-adv-x="1406" d="M31 0l532 1495h281l532 -1495h-291l-92 266h-579l-92 -266h-291zM373 1935h174q0 -187 155 -196q156 10 156 196h176q0 -153 -90 -250.5t-242 -97.5q-162 0 -245.5 95.5t-83.5 252.5zM508 532h393l-196 568z" />
<glyph unicode="&#x103;" horiz-adv-x="1374" d="M41 598q0 116 32.5 217t89.5 175t132 127t162 79.5t178 26.5q117 0 217.5 -44.5t167.5 -123.5v143h276v-1198h-276v156q-66 -85 -168.5 -133t-220.5 -48q-110 0 -214.5 43t-188.5 120.5t-135.5 197.5t-51.5 262zM313 602q0 -157 105 -265t258 -108q154 0 256 108t102 265 q0 155 -102 262t-256 107t-258.5 -107t-104.5 -262zM332 1665h174q0 -188 156 -197q155 9 155 197h176q0 -153 -89.5 -250.5t-241.5 -97.5q-162 0 -246 95.5t-84 252.5z" />
<glyph unicode="&#x104;" horiz-adv-x="1406" d="M31 0l532 1495h281l532 -1495q-174 -115 -220 -154t-46 -77q0 -33 24.5 -48.5t63.5 -15.5q10 0 20 1.5t17 3t16.5 6t14 7t14.5 9.5t13 9.5t14.5 11.5t13.5 11l162 -110q-56 -51 -135 -85t-150 -34q-131 0 -213 64t-82 159q0 71 39.5 131t138.5 123l-88 254h-579l-92 -266 h-291zM508 532h393l-196 568z" />
<glyph unicode="&#x105;" horiz-adv-x="1374" d="M41 598q0 116 32.5 217t89.5 175t132 127t162 79.5t178 26.5q117 0 217.5 -44.5t167.5 -123.5v143h276v-1198h2q-109 -67 -162 -126.5t-53 -100.5q0 -68 78 -68q52 0 103 62l161 -113q-58 -60 -123 -91.5t-151 -31.5q-118 0 -193 62t-77 159q-1 74 34 134.5t105 119.5 v150q-66 -85 -168.5 -133t-220.5 -48q-110 0 -214.5 43t-188.5 120.5t-135.5 197.5t-51.5 262zM313 602q0 -157 105 -265t258 -108q154 0 256 108t102 265q0 155 -102 262t-256 107t-258.5 -107t-104.5 -262z" />
<glyph unicode="&#x106;" horiz-adv-x="1511" d="M45 748q0 164 59.5 307.5t162 244t244.5 158.5t302 58q207 0 381 -100.5t274 -270.5l-243 -156q-142 252 -412 252q-140 0 -252.5 -65t-175.5 -177.5t-63 -250.5q0 -135 62.5 -247t174 -177.5t248.5 -65.5q149 0 258 75.5t172 205.5l254 -133q-100 -194 -280.5 -310 t-397.5 -116q-169 0 -314 60.5t-243.5 164t-154.5 244t-56 299.5zM715 1597l235 349h258l-307 -349h-186z" />
<glyph unicode="&#x107;" horiz-adv-x="1263" d="M41 598q0 129 48.5 245t131.5 199t198.5 132t244.5 49q196 0 348 -102t223 -269l-248 -104q-42 99 -127 157t-194 58q-151 0 -253 -106t-102 -259q0 -151 102.5 -256.5t254.5 -105.5q113 0 196.5 60.5t126.5 162.5l248 -107q-73 -172 -222.5 -274.5t-352.5 -102.5 q-172 0 -315.5 83.5t-225.5 226.5t-82 313zM565 1321l236 348h258l-307 -348h-187z" />
<glyph unicode="&#x108;" horiz-adv-x="1511" d="M45 748q0 164 59.5 307.5t162 244t244.5 158.5t302 58q207 0 381 -100.5t274 -270.5l-243 -156q-142 252 -412 252q-140 0 -252.5 -65t-175.5 -177.5t-63 -250.5q0 -135 62.5 -247t174 -177.5t248.5 -65.5q149 0 258 75.5t172 205.5l254 -133q-100 -194 -280.5 -310 t-397.5 -116q-169 0 -314 60.5t-243.5 164t-154.5 244t-56 299.5zM492 1597l243 349h172l244 -349h-209l-121 183l-121 -183h-208z" />
<glyph unicode="&#x109;" horiz-adv-x="1263" d="M41 598q0 129 48.5 245t131.5 199t198.5 132t244.5 49q196 0 348 -102t223 -269l-248 -104q-42 99 -127 157t-194 58q-151 0 -253 -106t-102 -259q0 -151 102.5 -256.5t254.5 -105.5q113 0 196.5 60.5t126.5 162.5l248 -107q-73 -172 -222.5 -274.5t-352.5 -102.5 q-172 0 -315.5 83.5t-225.5 226.5t-82 313zM336 1309l244 348h172l243 -348h-209l-120 182l-121 -182h-209z" />
<glyph unicode="&#x10a;" horiz-adv-x="1511" d="M45 748q0 164 59.5 307.5t162 244t244.5 158.5t302 58q207 0 381 -100.5t274 -270.5l-243 -156q-142 252 -412 252q-140 0 -252.5 -65t-175.5 -177.5t-63 -250.5q0 -135 62.5 -247t174 -177.5t248.5 -65.5q149 0 258 75.5t172 205.5l254 -133q-100 -194 -280.5 -310 t-397.5 -116q-169 0 -314 60.5t-243.5 164t-154.5 244t-56 299.5zM664 1739q0 72 44 117t117 45q74 0 118 -44.5t44 -117.5t-43.5 -116.5t-118.5 -43.5q-77 0 -119 43.5t-42 116.5z" />
<glyph unicode="&#x10b;" horiz-adv-x="1263" d="M41 598q0 129 48.5 245t131.5 199t198.5 132t244.5 49q196 0 348 -102t223 -269l-248 -104q-42 99 -127 157t-194 58q-151 0 -253 -106t-102 -259q0 -151 102.5 -256.5t254.5 -105.5q113 0 196.5 60.5t126.5 162.5l248 -107q-73 -172 -222.5 -274.5t-352.5 -102.5 q-172 0 -315.5 83.5t-225.5 226.5t-82 313zM500 1460q0 72 44.5 117t117.5 45q74 0 117.5 -44.5t43.5 -117.5t-43.5 -116.5t-117.5 -43.5q-77 0 -119.5 43.5t-42.5 116.5z" />
<glyph unicode="&#x10c;" horiz-adv-x="1511" d="M45 748q0 164 59.5 307.5t162 244t244.5 158.5t302 58q207 0 381 -100.5t274 -270.5l-243 -156q-142 252 -412 252q-140 0 -252.5 -65t-175.5 -177.5t-63 -250.5q0 -135 62.5 -247t174 -177.5t248.5 -65.5q149 0 258 75.5t172 205.5l254 -133q-100 -194 -280.5 -310 t-397.5 -116q-169 0 -314 60.5t-243.5 164t-154.5 244t-56 299.5zM485 1946h209l121 -183l121 183h209l-244 -349h-172z" />
<glyph unicode="&#x10d;" horiz-adv-x="1263" d="M41 598q0 129 48.5 245t131.5 199t198.5 132t244.5 49q196 0 348 -102t223 -269l-248 -104q-42 99 -127 157t-194 58q-151 0 -253 -106t-102 -259q0 -151 102.5 -256.5t254.5 -105.5q113 0 196.5 60.5t126.5 162.5l248 -107q-73 -172 -222.5 -274.5t-352.5 -102.5 q-172 0 -315.5 83.5t-225.5 226.5t-82 313zM352 1669h209l121 -182l121 182h209l-244 -348h-172z" />
<glyph unicode="&#x10e;" horiz-adv-x="1327" d="M86 0v1495h408q185 0 335.5 -57t249.5 -157.5t152 -237t53 -295.5q0 -158 -58 -296.5t-160 -237.5t-247 -156.5t-313 -57.5h-420zM215 1946h209l121 -183l121 183h208l-243 -349h-172zM365 258h108q242 0 387.5 138.5t145.5 351.5q0 224 -138 356.5t-407 132.5h-96v-979z " />
<glyph unicode="&#x10f;" horiz-adv-x="1519" d="M41 598q0 116 32.5 217t89.5 175t132 127t162 79.5t178 26.5q116 0 216.5 -43.5t166.5 -122.5v459h278v-1516h-276v156q-66 -85 -168.5 -133t-220.5 -48q-110 0 -214.5 43t-188.5 120.5t-135.5 197.5t-51.5 262zM313 602q0 -157 105 -265t258 -108q154 0 256 108t102 265 q0 155 -102 262t-256 107t-258.5 -107t-104.5 -262zM1339 1149l52 350h223l-105 -350h-170z" />
<glyph unicode="&#x110;" horiz-adv-x="1423" d="M41 633v235h141v627h408q185 0 335.5 -57t249.5 -157.5t152 -237t53 -295.5q0 -158 -58 -296.5t-160 -237.5t-247 -156.5t-313 -57.5h-420v633h-141zM461 258h108q242 0 387.5 138.5t145.5 351.5q0 224 -138 356.5t-407 132.5h-96v-369h338v-235h-338v-375z" />
<glyph unicode="&#x111;" horiz-adv-x="1390" d="M41 598q0 116 32.5 217t89.5 175t132 127t162 79.5t178 26.5q116 0 216.5 -43.5t166.5 -122.5v188h-137v152h137v119h278v-119h125v-152h-125v-1245h-276v156q-66 -85 -168.5 -133t-220.5 -48q-110 0 -214.5 43t-188.5 120.5t-135.5 197.5t-51.5 262zM313 602 q0 -157 105 -265t258 -108q154 0 256 108t102 265q0 155 -102 262t-256 107t-258.5 -107t-104.5 -262z" />
<glyph unicode="&#x112;" horiz-adv-x="1042" d="M86 0v1495h887v-266h-608v-344h608v-267h-608v-352h608v-266h-887zM260 1597v177h541v-177h-541z" />
<glyph unicode="&#x113;" d="M41 596q0 129 48.5 245t131.5 200t198.5 133t244.5 49q175 0 316.5 -80t220.5 -221t79 -316v-104h-975q30 -130 127 -206.5t242 -76.5q115 0 202 56.5t130 154.5l227 -131q-81 -152 -222 -238t-337 -86q-138 0 -257 48.5t-201 132t-128.5 197.5t-46.5 243zM319 733h680 q-30 120 -117.5 183t-217.5 63q-123 0 -215.5 -67t-129.5 -179zM408 1317v176h540v-176h-540z" />
<glyph unicode="&#x114;" horiz-adv-x="1042" d="M86 0v1495h887v-266h-608v-344h608v-267h-608v-352h608v-266h-887zM207 1935h174q0 -187 156 -196q155 9 155 196h176q0 -153 -89.5 -250.5t-241.5 -97.5q-162 0 -246 95.5t-84 252.5z" />
<glyph unicode="&#x115;" d="M41 596q0 129 48.5 245t131.5 200t198.5 133t244.5 49q175 0 316.5 -80t220.5 -221t79 -316v-104h-975q30 -130 127 -206.5t242 -76.5q115 0 202 56.5t130 154.5l227 -131q-81 -152 -222 -238t-337 -86q-138 0 -257 48.5t-201 132t-128.5 197.5t-46.5 243zM319 733h680 q-30 120 -117.5 183t-217.5 63q-123 0 -215.5 -67t-129.5 -179zM344 1659h174q0 -188 156 -197q155 9 155 197h177q0 -153 -90 -250.5t-242 -97.5q-162 0 -246 95.5t-84 252.5z" />
<glyph unicode="&#x116;" horiz-adv-x="1042" d="M86 0v1495h887v-266h-608v-344h608v-267h-608v-352h608v-266h-887zM403 1739q0 72 44.5 117t117.5 45q74 0 118 -44.5t44 -117.5t-43.5 -116.5t-118.5 -43.5q-77 0 -119.5 43.5t-42.5 116.5z" />
<glyph unicode="&#x117;" d="M41 596q0 129 48.5 245t131.5 200t198.5 133t244.5 49q175 0 316.5 -80t220.5 -221t79 -316v-104h-975q30 -130 127 -206.5t242 -76.5q115 0 202 56.5t130 154.5l227 -131q-81 -152 -222 -238t-337 -86q-138 0 -257 48.5t-201 132t-128.5 197.5t-46.5 243zM319 733h680 q-30 120 -117.5 183t-217.5 63q-123 0 -215.5 -67t-129.5 -179zM506 1450q0 72 44.5 117t117.5 45q74 0 117.5 -44.5t43.5 -117.5t-43.5 -116.5t-117.5 -43.5q-77 0 -119.5 43.5t-42.5 116.5z" />
<glyph unicode="&#x118;" horiz-adv-x="1042" d="M86 0v1495h887v-266h-608v-344h608v-267h-608v-352h608v-266h2q-174 -115 -220 -154t-46 -77q0 -33 24.5 -48.5t63.5 -15.5q10 0 20 1.5t17 3t16.5 6t14 7t14.5 9.5t13 9.5t14.5 11.5t13.5 11l161 -110q-56 -51 -134.5 -85t-149.5 -34q-131 0 -213 64t-82 159 q0 66 35 124t122 118h-573z" />
<glyph unicode="&#x119;" d="M41 596q0 129 48.5 245t131.5 200t198.5 133t244.5 49q175 0 316.5 -80t220.5 -221t79 -316v-104h-975q30 -130 127 -206.5t242 -76.5q115 0 202 56.5t130 154.5l227 -131q-123 -225 -354 -295q-190 -130 -214 -150q-48 -47 -51 -79q0 -33 24.5 -48.5t63.5 -15.5 q11 0 21.5 1.5t20.5 5.5t16.5 6.5t17.5 10t15 10.5t16.5 13.5t15.5 12.5l162 -111q-56 -51 -135 -85t-150 -34q-131 0 -212.5 63.5t-81.5 159.5q0 124 131 224q-225 44 -361.5 212t-136.5 396zM319 733h680q-30 120 -117.5 183t-217.5 63q-123 0 -215.5 -67t-129.5 -179z " />
<glyph unicode="&#x11a;" horiz-adv-x="1042" d="M86 0v1495h887v-266h-608v-344h608v-267h-608v-352h608v-266h-887zM197 1946h209l120 -183l121 183h209l-244 -349h-172z" />
<glyph unicode="&#x11b;" d="M41 596q0 129 48.5 245t131.5 200t198.5 133t244.5 49q175 0 316.5 -80t220.5 -221t79 -316v-104h-975q30 -130 127 -206.5t242 -76.5q115 0 202 56.5t130 154.5l227 -131q-81 -152 -222 -238t-337 -86q-138 0 -257 48.5t-201 132t-128.5 197.5t-46.5 243zM319 733h680 q-30 120 -117.5 183t-217.5 63q-123 0 -215.5 -67t-129.5 -179zM340 1659h209l121 -182l121 182h208l-243 -348h-172z" />
<glyph unicode="&#x11c;" horiz-adv-x="1597" d="M45 748q0 211 98 386.5t273.5 278.5t392.5 103q225 0 403.5 -104.5t276.5 -278.5l-246 -148q-140 260 -432 260q-136 0 -249 -67.5t-176.5 -181.5t-63.5 -248q0 -137 63.5 -250.5t178.5 -180.5t257 -67q167 0 278.5 86t153.5 237h-477v267h776v-111q0 -151 -52 -287 t-144.5 -238.5t-231.5 -163t-303 -60.5q-171 0 -317.5 61.5t-246 166.5t-156 245t-56.5 295zM479 1597l244 349h172l244 -349h-209l-121 183l-121 -183h-209z" />
<glyph unicode="&#x11d;" horiz-adv-x="1378" d="M41 598q0 116 32.5 217t89.5 175t132 127t162 79.5t178 26.5q116 0 217 -48t168 -131v154h276v-1167q0 -127 -40.5 -237.5t-116.5 -194t-195 -131.5t-266 -48q-222 0 -375 92.5t-240 251.5l246 150q69 -127 152 -183.5t221 -56.5q152 0 246 102t94 244v140 q-67 -87 -169 -136t-222 -49q-110 0 -214.5 43t-188.5 120.5t-135.5 197.5t-51.5 262zM313 602q0 -157 105 -265t258 -108q154 0 256 108t102 265q0 155 -102 262t-256 107t-258.5 -107t-104.5 -262zM375 1321l243 348h173l243 -348h-209l-120 182l-121 -182h-209z" />
<glyph unicode="&#x11e;" horiz-adv-x="1597" d="M45 748q0 211 98 386.5t273.5 278.5t392.5 103q225 0 403.5 -104.5t276.5 -278.5l-246 -148q-140 260 -432 260q-136 0 -249 -67.5t-176.5 -181.5t-63.5 -248q0 -137 63.5 -250.5t178.5 -180.5t257 -67q167 0 278.5 86t153.5 237h-477v267h776v-111q0 -151 -52 -287 t-144.5 -238.5t-231.5 -163t-303 -60.5q-171 0 -317.5 61.5t-246 166.5t-156 245t-56.5 295zM477 1935h174q0 -187 156 -196q156 10 156 196h176q0 -153 -90 -250.5t-242 -97.5q-162 0 -246 95.5t-84 252.5z" />
<glyph unicode="&#x11f;" horiz-adv-x="1378" d="M41 598q0 116 32.5 217t89.5 175t132 127t162 79.5t178 26.5q116 0 217 -48t168 -131v154h276v-1167q0 -127 -40.5 -237.5t-116.5 -194t-195 -131.5t-266 -48q-222 0 -375 92.5t-240 251.5l246 150q69 -127 152 -183.5t221 -56.5q152 0 246 102t94 244v140 q-67 -87 -169 -136t-222 -49q-110 0 -214.5 43t-188.5 120.5t-135.5 197.5t-51.5 262zM313 602q0 -157 105 -265t258 -108q154 0 256 108t102 265q0 155 -102 262t-256 107t-258.5 -107t-104.5 -262zM367 1655h174q0 -188 155 -197q156 10 156 197h176q0 -153 -90 -250.5 t-242 -97.5q-162 0 -245.5 95.5t-83.5 252.5z" />
<glyph unicode="&#x120;" horiz-adv-x="1597" d="M45 748q0 211 98 386.5t273.5 278.5t392.5 103q225 0 403.5 -104.5t276.5 -278.5l-246 -148q-140 260 -432 260q-136 0 -249 -67.5t-176.5 -181.5t-63.5 -248q0 -137 63.5 -250.5t178.5 -180.5t257 -67q167 0 278.5 86t153.5 237h-477v267h776v-111q0 -151 -52 -287 t-144.5 -238.5t-231.5 -163t-303 -60.5q-171 0 -317.5 61.5t-246 166.5t-156 245t-56.5 295zM653 1739q0 72 44.5 117t117.5 45q74 0 118 -44.5t44 -117.5t-43.5 -116.5t-118.5 -43.5q-77 0 -119.5 43.5t-42.5 116.5z" />
<glyph unicode="&#x121;" horiz-adv-x="1378" d="M41 598q0 116 32.5 217t89.5 175t132 127t162 79.5t178 26.5q116 0 217 -48t168 -131v154h276v-1167q0 -127 -40.5 -237.5t-116.5 -194t-195 -131.5t-266 -48q-222 0 -375 92.5t-240 251.5l246 150q69 -127 152 -183.5t221 -56.5q152 0 246 102t94 244v140 q-67 -87 -169 -136t-222 -49q-110 0 -214.5 43t-188.5 120.5t-135.5 197.5t-51.5 262zM313 602q0 -157 105 -265t258 -108q154 0 256 108t102 265q0 155 -102 262t-256 107t-258.5 -107t-104.5 -262zM510 1460q0 72 44.5 117t117.5 45q74 0 118 -44.5t44 -117.5 q0 -72 -44 -116t-118 -44q-77 0 -119.5 43.5t-42.5 116.5z" />
<glyph unicode="&#x122;" horiz-adv-x="1597" d="M45 748q0 211 98 386.5t273.5 278.5t392.5 103q225 0 403.5 -104.5t276.5 -278.5l-246 -148q-140 260 -432 260q-136 0 -249 -67.5t-176.5 -181.5t-63.5 -248q0 -137 63.5 -250.5t178.5 -180.5t257 -67q167 0 278.5 86t153.5 237h-477v267h776v-111q0 -151 -52 -287 t-144.5 -238.5t-231.5 -163t-303 -60.5q-171 0 -317.5 61.5t-246 166.5t-156 245t-56.5 295zM643 -512l70 418h243l-143 -418h-170z" />
<glyph unicode="&#x123;" horiz-adv-x="1378" d="M41 598q0 116 32.5 217t89.5 175t132 127t162 79.5t178 26.5q116 0 217 -48t168 -131v154h276v-1167q0 -127 -40.5 -237.5t-116.5 -194t-195 -131.5t-266 -48q-222 0 -375 92.5t-240 251.5l246 150q69 -127 152 -183.5t221 -56.5q152 0 246 102t94 244v140 q-67 -87 -169 -136t-222 -49q-110 0 -214.5 43t-188.5 120.5t-135.5 197.5t-51.5 262zM313 602q0 -157 105 -265t258 -108q154 0 256 108t102 265q0 155 -102 262t-256 107t-258.5 -107t-104.5 -262zM571 1321l70 418h244l-144 -418h-170z" />
<glyph unicode="&#x124;" horiz-adv-x="1302" d="M86 0v1495h279v-612h573v612h279v-1495h-279v616h-573v-616h-279zM319 1597l244 349h172l244 -349h-209l-121 183l-121 -183h-209z" />
<glyph unicode="&#x125;" horiz-adv-x="1267" d="M-106 1589l243 348h172l244 -348h-209l-121 183l-121 -183h-208zM80 0v1516h276v-461q132 168 359 168q226 0 350.5 -134t124.5 -378v-711h-283v680q0 144 -68.5 223.5t-201.5 79.5q-121 0 -200 -87t-79 -239v-657h-278z" />
<glyph unicode="&#x126;" horiz-adv-x="1423" d="M29 1083v211h116v201h279v-201h573v201h279v-201h117v-211h-117v-1083h-279v616h-573v-616h-279v1083h-116zM424 883h573v200h-573v-200z" />
<glyph unicode="&#x127;" horiz-adv-x="1284" d="M-23 1239v150h119v127h277v-127h129v-150h-129v-184q132 168 358 168t350.5 -134t124.5 -378v-711h-282v680q0 143 -69 223t-202 80q-121 0 -199.5 -87t-78.5 -239v-657h-279v1239h-119z" />
<glyph unicode="&#x128;" horiz-adv-x="471" d="M-96 1597q0 126 57 201.5t156 75.5q73 0 157 -49q27 -19 39 -26.5t32 -16t36 -8.5q57 0 57 92h160q0 -131 -54.5 -204t-160.5 -73q-19 0 -38.5 3.5t-32 7t-31.5 12t-26 12.5t-26.5 15.5t-23.5 13.5q-60 35 -88 35q-54 0 -54 -91h-159zM96 0v1495h279v-1495h-279z" />
<glyph unicode="&#x129;" horiz-adv-x="438" d="M-129 1300q0 126 57 201.5t156 75.5q74 0 158 -49q3 -2 8 -5q59 -42 88 -45l10 -1q58 0 58 92h159q0 -131 -54.5 -204t-160.5 -73q-19 0 -38.5 3.5t-32 7t-31.5 12t-26 12.5t-26.5 15.5t-23.5 13.5q-60 35 -88 35q-53 0 -53 -91h-160zM80 0v1198h278v-1198h-278z" />
<glyph unicode="&#x12a;" horiz-adv-x="471" d="M-35 1597v177h541v-177h-541zM96 0v1495h279v-1495h-279z" />
<glyph unicode="&#x12b;" horiz-adv-x="438" d="M-47 1300v177h541v-177h-541zM80 0v1198h278v-1198h-278z" />
<glyph unicode="&#x12c;" horiz-adv-x="471" d="M-98 1935h174q0 -187 155 -196q156 10 156 196h176q0 -153 -90 -250.5t-242 -97.5q-162 0 -245.5 95.5t-83.5 252.5zM96 0v1495h279v-1495h-279z" />
<glyph unicode="&#x12d;" horiz-adv-x="438" d="M-102 1636h174q0 -187 155 -196q156 10 156 196h176q0 -153 -90 -250.5t-242 -97.5q-162 0 -245.5 95.5t-83.5 252.5zM80 0v1198h278v-1198h-278z" />
<glyph unicode="&#x12e;" horiz-adv-x="471" d="M-51 -248q-3 145 147 260v1483h279v-1495h-8q-109 -67 -162 -126.5t-53 -100.5q0 -68 77 -68q52 0 103 62l162 -113q-120 -123 -275 -123q-118 0 -193 62t-77 159z" />
<glyph unicode="&#x12f;" horiz-adv-x="438" d="M-172 -248q-1 99 60.5 175.5t189.5 158.5l2 -2v1114h278v-1198h-112q-109 -67 -162 -126.5t-53 -100.5q0 -68 78 -68q51 0 102 62l162 -113q-120 -123 -275 -123q-118 0 -193 62t-77 159zM45 1491q0 78 47.5 126t126.5 48q81 0 127.5 -47.5t46.5 -126.5t-46.5 -125.5 t-127.5 -46.5q-83 0 -128.5 46.5t-45.5 125.5z" />
<glyph unicode="&#x130;" horiz-adv-x="471" d="M70 1739q0 72 44 117t117 45q74 0 118 -44.5t44 -117.5t-43.5 -116.5t-118.5 -43.5q-77 0 -119 43.5t-42 116.5zM96 0v1495h279v-1495h-279z" />
<glyph unicode="&#x131;" horiz-adv-x="438" d="M80 0v1198h278v-1198h-278z" />
<glyph unicode="&#x132;" horiz-adv-x="1013" d="M84 0v1495h278v-1495h-278zM485 0v272h17q93 0 121 27t28 123v1073h279v-1065q0 -83 -6.5 -143t-24 -110t-45.5 -82t-73 -54t-105.5 -31.5t-143.5 -9.5h-47z" />
<glyph unicode="&#x133;" horiz-adv-x="888" d="M80 0v1198h278v-1198h-278zM80 -229h203q57 0 93.5 3t66 13.5t45 25.5t26 44t13.5 64t3 91v1186h279v-1188q0 -192 -46 -299t-149 -153.5t-288 -46.5h-246v260zM80 1350v333h278v-333h-278zM530 1350v333h279v-333h-279z" />
<glyph unicode="&#x134;" horiz-adv-x="1026" d="M39 317l274 91q18 -74 68.5 -121t120.5 -47q82 0 122 53t40 137v1065h278v-1040q0 -228 -113 -351.5t-323 -123.5q-182 0 -306 90.5t-161 246.5zM463 1597l244 349h172l243 -349h-209l-120 183l-121 -183h-209z" />
<glyph unicode="&#x135;" horiz-adv-x="438" d="M-168 -291q57 0 93.5 3t66 13t45 25.5t26.5 44.5t14 64.5t3 91.5v1247h280v-1249q0 -146 -24 -239.5t-82.5 -153t-150 -83.5t-232.5 -24h-39v260zM-109 1300l244 349h172l244 -349h-209l-121 183l-121 -183h-209z" />
<glyph unicode="&#x136;" horiz-adv-x="1265" d="M86 0v1495h279v-612l493 612h338l-473 -582l516 -913h-317l-396 719l-161 -201v-518h-279zM457 -512l69 418h244l-143 -418h-170z" />
<glyph unicode="&#x137;" horiz-adv-x="1230" d="M80 0v1516h276v-895l510 577h332l-463 -518l479 -680h-309l-358 516l-191 -211v-305h-276zM414 -492l69 418h244l-143 -418h-170z" />
<glyph unicode="&#x138;" horiz-adv-x="1230" d="M80 0v1198h276v-577l510 577h332l-461 -518l475 -680h-307l-358 516l-191 -211v-305h-276z" />
<glyph unicode="&#x139;" horiz-adv-x="985" d="M86 0v1495h279v-1229h546v-266h-825zM127 1597l235 349h259l-308 -349h-186z" />
<glyph unicode="&#x13a;" horiz-adv-x="438" d="M80 0v1516h278v-1516h-278zM127 1628l235 348h259l-308 -348h-186z" />
<glyph unicode="&#x13b;" horiz-adv-x="985" d="M86 0v1495h279v-1229h546v-266h-825zM307 -512l70 418h244l-144 -418h-170z" />
<glyph unicode="&#x13c;" horiz-adv-x="438" d="M27 -512l69 418h244l-143 -418h-170zM80 0v1516h278v-1516h-278z" />
<glyph unicode="&#x13d;" horiz-adv-x="985" d="M86 0v1495h279v-1229h546v-266h-825zM477 1145l51 350h224l-105 -350h-170z" />
<glyph unicode="&#x13e;" horiz-adv-x="577" d="M76 0v1516h278v-1516h-278zM399 1165l52 351h223l-105 -351h-170z" />
<glyph unicode="&#x13f;" horiz-adv-x="985" d="M86 0v1495h279v-1229h546v-266h-825zM610 737q0 72 44.5 117t117.5 45q74 0 118 -44.5t44 -117.5q0 -72 -43.5 -115.5t-118.5 -43.5q-77 0 -119.5 43t-42.5 116z" />
<glyph unicode="&#x140;" horiz-adv-x="780" d="M80 0v1516h278v-1516h-278zM444 643q0 72 44.5 117t117.5 45q74 0 118 -44.5t44 -117.5t-44 -116.5t-118 -43.5q-77 0 -119.5 43.5t-42.5 116.5z" />
<glyph unicode="&#x141;" horiz-adv-x="1075" d="M35 584v196l141 45v670h279v-582l317 103v-199l-317 -100v-451h546v-266h-825v629z" />
<glyph unicode="&#x142;" horiz-adv-x="755" d="M59 754v202l177 58v502h276v-412l184 61v-200l-184 -62v-903h-276v811z" />
<glyph unicode="&#x143;" horiz-adv-x="1413" d="M86 0v1495h315l648 -1018v1018h278v-1495h-297l-665 1051v-1051h-279zM629 1597l235 349h258l-307 -349h-186z" />
<glyph unicode="&#x144;" horiz-adv-x="1265" d="M80 0v1198h274v-147q62 81 153.5 126.5t205.5 45.5q226 0 350.5 -134t124.5 -378v-711h-281v682q0 142 -68.5 221.5t-201.5 79.5q-123 0 -202 -86.5t-79 -239.5v-657h-276zM528 1311l236 348h258l-307 -348h-187z" />
<glyph unicode="&#x145;" horiz-adv-x="1413" d="M86 0v1495h315l648 -1018v1018h278v-1495h-297l-665 1051v-1051h-279zM510 -512l70 418h243l-143 -418h-170z" />
<glyph unicode="&#x146;" horiz-adv-x="1265" d="M80 0v1198h274v-147q62 81 153.5 126.5t205.5 45.5q226 0 350.5 -134t124.5 -378v-711h-281v682q0 142 -68.5 221.5t-201.5 79.5q-123 0 -202 -86.5t-79 -239.5v-657h-276zM451 -477l69 418h244l-143 -418h-170z" />
<glyph unicode="&#x147;" horiz-adv-x="1413" d="M86 0v1495h315l648 -1018v1018h278v-1495h-297l-665 1051v-1051h-279zM381 1946h209l121 -183l120 183h209l-243 -349h-172z" />
<glyph unicode="&#x148;" horiz-adv-x="1265" d="M80 0v1198h274v-147q62 81 153.5 126.5t205.5 45.5q226 0 350.5 -134t124.5 -378v-711h-281v682q0 142 -68.5 221.5t-201.5 79.5q-123 0 -202 -86.5t-79 -239.5v-657h-276zM324 1659h208l121 -182l121 182h209l-244 -348h-172z" />
<glyph unicode="&#x14a;" horiz-adv-x="1413" d="M86 0v1495h315l648 -954v954h278v-1497q0 -238 -87.5 -331t-305.5 -93h-41v272h12q88 0 116 28t28 114v67l-684 1012v-1067h-279z" />
<glyph unicode="&#x14b;" horiz-adv-x="1265" d="M80 0v1198h274v-147q62 81 153.5 126.5t205.5 45.5q226 0 350.5 -134t124.5 -378v-762q0 -146 -24 -239.5t-82.5 -153t-149.5 -83.5t-232 -24h-41v260q57 0 93.5 3t66 13t45 25.5t26.5 44.5t14 64.5t3 91.5v731q0 142 -68.5 221.5t-201.5 79.5q-123 0 -202 -86.5 t-79 -239.5v-657h-276z" />
<glyph unicode="&#x14c;" horiz-adv-x="1617" d="M45 748q0 209 101.5 385.5t277.5 279.5t385 103t385.5 -103t278.5 -279.5t102 -385.5q0 -157 -60 -299.5t-162.5 -245t-244.5 -163t-299 -60.5q-209 0 -385 102.5t-277.5 279t-101.5 386.5zM322 748q0 -134 64.5 -247.5t176.5 -180t246 -66.5t246.5 66.5t177.5 180 t65 247.5t-65 247.5t-177.5 179.5t-246.5 66t-246 -66t-176.5 -179.5t-64.5 -247.5zM528 1597v177h541v-177h-541z" />
<glyph unicode="&#x14d;" d="M41 598q0 129 48.5 245t131.5 199t198 132t243 49q127 0 241.5 -49t197.5 -132t132 -199t49 -245q0 -169 -82.5 -312.5t-225.5 -227t-312 -83.5q-170 0 -313 83.5t-225.5 227t-82.5 312.5zM313 598q0 -151 100.5 -256.5t248.5 -105.5q147 0 247.5 106t100.5 256 q0 153 -100.5 259t-247.5 106q-148 0 -248.5 -106t-100.5 -259zM395 1321v176h541v-176h-541z" />
<glyph unicode="&#x14e;" horiz-adv-x="1617" d="M45 748q0 209 101.5 385.5t277.5 279.5t385 103t385.5 -103t278.5 -279.5t102 -385.5q0 -157 -60 -299.5t-162.5 -245t-244.5 -163t-299 -60.5q-209 0 -385 102.5t-277.5 279t-101.5 386.5zM322 748q0 -134 64.5 -247.5t176.5 -180t246 -66.5t246.5 66.5t177.5 180 t65 247.5t-65 247.5t-177.5 179.5t-246.5 66t-246 -66t-176.5 -179.5t-64.5 -247.5zM465 1935h174q0 -187 156 -196q155 9 155 196h176q0 -153 -89.5 -250.5t-241.5 -97.5q-162 0 -246 95.5t-84 252.5z" />
<glyph unicode="&#x14f;" d="M41 598q0 129 48.5 245t131.5 199t198 132t243 49q127 0 241.5 -49t197.5 -132t132 -199t49 -245q0 -169 -82.5 -312.5t-225.5 -227t-312 -83.5q-170 0 -313 83.5t-225.5 227t-82.5 312.5zM313 598q0 -151 100.5 -256.5t248.5 -105.5q147 0 247.5 106t100.5 256 q0 153 -100.5 259t-247.5 106q-148 0 -248.5 -106t-100.5 -259zM328 1663h174q0 -188 155 -197q156 10 156 197h176q0 -153 -90 -250.5t-242 -97.5q-162 0 -245.5 95.5t-83.5 252.5z" />
<glyph unicode="&#x150;" horiz-adv-x="1617" d="M45 748q0 209 101.5 385.5t277.5 279.5t385 103t385.5 -103t278.5 -279.5t102 -385.5q0 -157 -60 -299.5t-162.5 -245t-244.5 -163t-299 -60.5q-209 0 -385 102.5t-277.5 279t-101.5 386.5zM322 748q0 -134 64.5 -247.5t176.5 -180t246 -66.5t246.5 66.5t177.5 180 t65 247.5t-65 247.5t-177.5 179.5t-246.5 66t-246 -66t-176.5 -179.5t-64.5 -247.5zM524 1597l234 349h246l-308 -349h-172zM864 1597l234 349h245l-307 -349h-172z" />
<glyph unicode="&#x151;" d="M41 598q0 129 48.5 245t131.5 199t198 132t243 49q127 0 241.5 -49t197.5 -132t132 -199t49 -245q0 -169 -82.5 -312.5t-225.5 -227t-312 -83.5q-170 0 -313 83.5t-225.5 227t-82.5 312.5zM313 598q0 -151 100.5 -256.5t248.5 -105.5q147 0 247.5 106t100.5 256 q0 153 -100.5 259t-247.5 106q-148 0 -248.5 -106t-100.5 -259zM387 1307l234 348h245l-307 -348h-172zM727 1307l234 348h245l-307 -348h-172z" />
<glyph unicode="&#x152;" horiz-adv-x="2254" d="M45 748q0 209 101.5 385.5t277.5 279.5t385 103q290 0 489 -193v172h887v-266h-608v-344h608v-267h-608v-352h608v-266h-887v170q-196 -190 -489 -190q-209 0 -385 102.5t-277.5 279t-101.5 386.5zM322 748q0 -134 64.5 -247.5t176.5 -180t246 -66.5q129 0 239.5 62.5 t177.5 171.5t72 239v41q-8 197 -150.5 335t-338.5 138q-134 0 -246 -66t-176.5 -179.5t-64.5 -247.5z" />
<glyph unicode="&#x153;" horiz-adv-x="2295" d="M41 598q0 129 48.5 245t131.5 199t198 132t243 49q155 0 280.5 -64.5t206.5 -179.5q82 114 206 179t279 65q176 0 317.5 -80t221.5 -221t80 -316v-96h-975q25 -132 124.5 -211.5t246.5 -79.5q114 0 203.5 59t138.5 158l231 -100q-80 -168 -229 -264.5t-346 -96.5 q-167 0 -294.5 63t-207.5 177q-84 -113 -208.5 -176.5t-274.5 -63.5q-170 0 -313 83.5t-225.5 227t-82.5 312.5zM311 598q0 -151 101 -256.5t250 -105.5q147 0 248.5 106t101.5 256q0 153 -101.5 259t-248.5 106q-150 0 -250.5 -106t-100.5 -259zM1294 741h678 q-35 116 -122.5 177t-211.5 61q-121 0 -211.5 -64.5t-132.5 -173.5z" />
<glyph unicode="&#x154;" horiz-adv-x="1196" d="M86 0v1495h479q260 0 409.5 -142.5t149.5 -377.5q0 -138 -65.5 -254.5t-186.5 -181.5l299 -539h-317l-240 457h-249v-457h-279zM365 713h176q83 0 144 21.5t95 60t50 85.5t16 105q0 119 -75 184.5t-230 65.5h-176v-522zM401 1597l236 349h258l-307 -349h-187z" />
<glyph unicode="&#x155;" horiz-adv-x="882" d="M80 0v1198h274v-178q82 178 308 178q120 0 210 -51l-104 -262q-71 47 -166 47q-124 0 -185 -70t-61 -223v-639h-276zM365 1300l235 349h258l-307 -349h-186z" />
<glyph unicode="&#x156;" horiz-adv-x="1196" d="M86 0v1495h479q260 0 409.5 -142.5t149.5 -377.5q0 -138 -65.5 -254.5t-186.5 -181.5l299 -539h-317l-240 457h-249v-457h-279zM365 713h176q83 0 144 21.5t95 60t50 85.5t16 105q0 119 -75 184.5t-230 65.5h-176v-522zM424 -575l70 417h243l-143 -417h-170z" />
<glyph unicode="&#x157;" horiz-adv-x="882" d="M20 -510l70 418h244l-144 -418h-170zM80 0v1198h274v-178q82 178 308 178q120 0 210 -51l-104 -262q-71 47 -166 47q-124 0 -185 -70t-61 -223v-639h-276z" />
<glyph unicode="&#x158;" horiz-adv-x="1196" d="M86 0v1495h479q260 0 409.5 -142.5t149.5 -377.5q0 -138 -65.5 -254.5t-186.5 -181.5l299 -539h-317l-240 457h-249v-457h-279zM268 1946h209l121 -183l121 183h209l-244 -349h-172zM365 713h176q83 0 144 21.5t95 60t50 85.5t16 105q0 119 -75 184.5t-230 65.5h-176 v-522z" />
<glyph unicode="&#x159;" horiz-adv-x="882" d="M80 0v1198h274v-178q82 178 308 178q120 0 210 -51l-104 -262q-71 47 -166 47q-124 0 -185 -70t-61 -223v-639h-276zM123 1649h209l121 -183l120 183h209l-243 -349h-172z" />
<glyph unicode="&#x15a;" horiz-adv-x="1153" d="M6 248l254 201q57 -98 141 -150.5t187 -52.5q105 0 166 58.5t61 141.5q0 35 -18 64t-39 47.5t-69 39.5t-75 30t-91 29q-13 4 -19 6q-50 16 -77.5 26t-73.5 28t-73 34.5t-63 41.5t-57 53t-41.5 64t-29.5 81t-9 97q0 182 140.5 305.5t354.5 123.5q115 0 210.5 -30 t160.5 -74.5t131 -113.5l-229 -174q-94 144 -270 144q-99 0 -154 -47.5t-55 -122.5q0 -32 15.5 -59t33.5 -44t61 -36.5t68 -28.5t85 -29q28 -9 42 -14q52 -17 88.5 -30.5t85 -36t82.5 -45.5t69.5 -57t57 -72.5t35.5 -90t14 -111.5q0 -89 -35 -172t-99 -148.5t-163.5 -104.5 t-218.5 -39q-346 0 -584 268zM455 1597l235 349h258l-307 -349h-186z" />
<glyph unicode="&#x15b;" horiz-adv-x="1060" d="M-2 266l256 123q88 -174 289 -174q99 0 152 41t53 104q0 14 -4.5 26.5t-14.5 22.5t-20.5 18t-29.5 16t-33.5 13t-40.5 11.5t-42.5 10t-47.5 10t-48 10.5q-60 13 -103.5 24.5t-96 31.5t-88.5 46t-68 61.5t-48 85.5t-16 111q0 150 132 258.5t339 108.5q342 0 490 -248 l-236 -119q-37 64 -103 100.5t-151 36.5q-93 0 -142.5 -37t-49.5 -92q0 -20 6.5 -35t26 -28t36 -21.5t56 -19t65.5 -16.5t84 -19q69 -14 120.5 -28.5t112 -42.5t99 -64.5t64.5 -94t26 -130.5q0 -52 -18 -105.5t-57.5 -105t-95.5 -92t-139 -65t-182 -24.5q-383 0 -532 291z M420 1313l235 348h258l-307 -348h-186z" />
<glyph unicode="&#x15c;" horiz-adv-x="1153" d="M6 248l254 201q57 -98 141 -150.5t187 -52.5q105 0 166 58.5t61 141.5q0 35 -18 64t-39 47.5t-69 39.5t-75 30t-91 29q-13 4 -19 6q-50 16 -77.5 26t-73.5 28t-73 34.5t-63 41.5t-57 53t-41.5 64t-29.5 81t-9 97q0 182 140.5 305.5t354.5 123.5q115 0 210.5 -30 t160.5 -74.5t131 -113.5l-229 -174q-94 144 -270 144q-99 0 -154 -47.5t-55 -122.5q0 -32 15.5 -59t33.5 -44t61 -36.5t68 -28.5t85 -29q28 -9 42 -14q52 -17 88.5 -30.5t85 -36t82.5 -45.5t69.5 -57t57 -72.5t35.5 -90t14 -111.5q0 -89 -35 -172t-99 -148.5t-163.5 -104.5 t-218.5 -39q-346 0 -584 268zM238 1597l243 349h172l244 -349h-209l-121 183l-121 -183h-208z" />
<glyph unicode="&#x15d;" horiz-adv-x="1060" d="M-2 266l256 123q88 -174 289 -174q99 0 152 41t53 104q0 14 -4.5 26.5t-14.5 22.5t-20.5 18t-29.5 16t-33.5 13t-40.5 11.5t-42.5 10t-47.5 10t-48 10.5q-60 13 -103.5 24.5t-96 31.5t-88.5 46t-68 61.5t-48 85.5t-16 111q0 150 132 258.5t339 108.5q342 0 490 -248 l-236 -119q-37 64 -103 100.5t-151 36.5q-93 0 -142.5 -37t-49.5 -92q0 -20 6.5 -35t26 -28t36 -21.5t56 -19t65.5 -16.5t84 -19q69 -14 120.5 -28.5t112 -42.5t99 -64.5t64.5 -94t26 -130.5q0 -52 -18 -105.5t-57.5 -105t-95.5 -92t-139 -65t-182 -24.5q-383 0 -532 291z M201 1300l243 349h172l244 -349h-209l-121 183l-120 -183h-209z" />
<glyph unicode="&#x15e;" horiz-adv-x="1153" d="M6 248l254 201q57 -98 141 -150.5t187 -52.5q105 0 166 58.5t61 141.5q0 35 -18 64t-39 47.5t-69 39.5t-75 30t-91 29q-13 4 -19 6q-50 16 -77.5 26t-73.5 28t-73 34.5t-63 41.5t-57 53t-41.5 64t-29.5 81t-9 97q0 182 140.5 305.5t354.5 123.5q115 0 210.5 -30 t160.5 -74.5t131 -113.5l-229 -174q-94 144 -270 144q-99 0 -154 -47.5t-55 -122.5q0 -32 15.5 -59t33.5 -44t61 -36.5t68 -28.5t85 -29q28 -9 42 -14q52 -17 88.5 -30.5t85 -36t82.5 -45.5t69.5 -57t57 -72.5t35.5 -90t14 -111.5q0 -176 -125.5 -310.5t-337.5 -151.5v-91 q113 4 174.5 -41t61.5 -122q0 -95 -92 -157.5t-228 -62.5q-79 0 -156 32.5t-139 88.5l160 97q30 -25 46.5 -36.5t46 -22.5t63.5 -11q45 0 78.5 18.5t33.5 44.5q0 56 -119 56h-102v213q-267 35 -465 260z" />
<glyph unicode="&#x15f;" horiz-adv-x="1060" d="M-2 266l256 123q88 -174 289 -174q99 0 152 41t53 104q0 14 -4.5 26.5t-14.5 22.5t-20.5 18t-29.5 16t-33.5 13t-40.5 11.5t-42.5 10t-47.5 10t-48 10.5q-60 13 -103.5 24.5t-96 31.5t-88.5 46t-68 61.5t-48 85.5t-16 111q0 150 132 258.5t339 108.5q342 0 490 -248 l-236 -119q-37 64 -103 100.5t-151 36.5q-93 0 -142.5 -37t-49.5 -92q0 -20 6.5 -35t26 -28t36 -21.5t56 -19t65.5 -16.5t84 -19q69 -14 120.5 -28.5t112 -42.5t99 -64.5t64.5 -94t26 -130.5q0 -62 -26.5 -125t-77 -120t-136.5 -97t-194 -48v-86q112 4 173.5 -41t61.5 -122 q0 -95 -91.5 -157.5t-227.5 -62.5q-79 0 -156 32.5t-139 88.5l160 97q31 -26 46.5 -37t45 -22t63.5 -11q45 0 79 18.5t34 44.5q0 56 -119 56h-102v209q-294 36 -418 282z" />
<glyph unicode="&#x160;" horiz-adv-x="1153" d="M6 248l254 201q57 -98 141 -150.5t187 -52.5q105 0 166 58.5t61 141.5q0 35 -18 64t-39 47.5t-69 39.5t-75 30t-91 29q-13 4 -19 6q-50 16 -77.5 26t-73.5 28t-73 34.5t-63 41.5t-57 53t-41.5 64t-29.5 81t-9 97q0 182 140.5 305.5t354.5 123.5q115 0 210.5 -30 t160.5 -74.5t131 -113.5l-229 -174q-94 144 -270 144q-99 0 -154 -47.5t-55 -122.5q0 -32 15.5 -59t33.5 -44t61 -36.5t68 -28.5t85 -29q28 -9 42 -14q52 -17 88.5 -30.5t85 -36t82.5 -45.5t69.5 -57t57 -72.5t35.5 -90t14 -111.5q0 -89 -35 -172t-99 -148.5t-163.5 -104.5 t-218.5 -39q-346 0 -584 268zM250 1946h209l121 -183l120 183h209l-243 -349h-172z" />
<glyph unicode="&#x161;" horiz-adv-x="1060" d="M-2 266l256 123q88 -174 289 -174q99 0 152 41t53 104q0 14 -4.5 26.5t-14.5 22.5t-20.5 18t-29.5 16t-33.5 13t-40.5 11.5t-42.5 10t-47.5 10t-48 10.5q-60 13 -103.5 24.5t-96 31.5t-88.5 46t-68 61.5t-48 85.5t-16 111q0 150 132 258.5t339 108.5q342 0 490 -248 l-236 -119q-37 64 -103 100.5t-151 36.5q-93 0 -142.5 -37t-49.5 -92q0 -20 6.5 -35t26 -28t36 -21.5t56 -19t65.5 -16.5t84 -19q69 -14 120.5 -28.5t112 -42.5t99 -64.5t64.5 -94t26 -130.5q0 -52 -18 -105.5t-57.5 -105t-95.5 -92t-139 -65t-182 -24.5q-383 0 -532 291z M199 1661h209l120 -182l121 182h209l-244 -348h-172z" />
<glyph unicode="&#x162;" horiz-adv-x="1224" d="M78 1229v266h1079v-266h-401v-1229h-279v1229h-399zM422 -512l70 418h243l-143 -418h-170z" />
<glyph unicode="&#x163;" horiz-adv-x="817" d="M37 950v248h205v182l278 191v-373h244v-248h-244v-448q0 -56 3 -91t13.5 -64.5t25.5 -44.5t44.5 -25.5t65.5 -13.5t92 -3v-260h-39q-142 0 -232.5 24t-147.5 83.5t-80 153t-23 239.5v450h-205zM297 -498l70 418h243l-143 -418h-170z" />
<glyph unicode="&#x164;" horiz-adv-x="1224" d="M78 1229v266h1079v-266h-401v-1229h-279v1229h-399zM276 1946h209l121 -183l121 183h209l-244 -349h-172z" />
<glyph unicode="&#x165;" horiz-adv-x="817" d="M37 950v248h205v182l278 191v-373h244v-248h-244v-448q0 -56 3 -91t13.5 -64.5t25.5 -44.5t44.5 -25.5t65.5 -13.5t92 -3v-260h-39q-142 0 -232.5 24t-147.5 83.5t-80 153t-23 239.5v450h-205zM608 1298l51 351h224l-105 -351h-170z" />
<glyph unicode="&#x166;" horiz-adv-x="1224" d="M78 1229v266h1079v-266h-401v-342h245v-266h-245v-621h-279v621h-256v266h256v342h-399z" />
<glyph unicode="&#x167;" horiz-adv-x="817" d="M37 512v227h205v211h-205v248h205v182l278 191v-373h244v-248h-244v-211h244v-227h-244v-10q0 -56 3 -91t13.5 -64.5t25.5 -44.5t44.5 -25.5t65.5 -13.5t92 -3v-260h-39q-142 0 -232.5 24t-147.5 83.5t-80 153t-23 239.5v12h-205z" />
<glyph unicode="&#x168;" horiz-adv-x="1245" d="M84 516v979h278v-995q0 -111 74.5 -186.5t184.5 -75.5q109 0 185.5 76t76.5 186v995h278v-979q0 -171 -70.5 -293.5t-191 -182.5t-276.5 -60q-241 0 -390 140.5t-149 395.5zM258 1597q0 126 57 201.5t156 75.5q74 0 158 -49q3 -2 8 -5q59 -42 88 -45q5 -1 10 -1 q58 0 58 92h159q0 -131 -54.5 -204t-160.5 -73q-19 0 -38.5 3.5t-32 7t-31.5 12t-26 12.5t-26.5 15.5t-23.5 13.5q-60 35 -88 35q-53 0 -53 -91h-160z" />
<glyph unicode="&#x169;" horiz-adv-x="1245" d="M86 487v711h281v-682q0 -143 64 -222t192 -79q119 0 192.5 86t73.5 240v657h276v-1198h-274v137q-123 -162 -344 -162q-216 0 -338.5 134.5t-122.5 377.5zM289 1298q0 126 57 201.5t156 75.5q73 0 157 -49q27 -19 39 -26.5t32 -16t36 -8.5q57 0 57 92h160 q0 -131 -54.5 -204t-160.5 -73q-19 0 -38.5 3.5t-32 7t-31.5 12t-26 12.5t-26.5 15.5t-23.5 13.5q-60 35 -88 35q-53 0 -53 -91h-160z" />
<glyph unicode="&#x16a;" horiz-adv-x="1245" d="M84 516v979h278v-995q0 -111 74.5 -186.5t184.5 -75.5q109 0 185.5 76t76.5 186v995h278v-979q0 -171 -70.5 -293.5t-191 -182.5t-276.5 -60q-241 0 -390 140.5t-149 395.5zM352 1597v177h541v-177h-541z" />
<glyph unicode="&#x16b;" horiz-adv-x="1245" d="M86 487v711h281v-682q0 -143 64 -222t192 -79q119 0 192.5 86t73.5 240v657h276v-1198h-274v137q-123 -162 -344 -162q-216 0 -338.5 134.5t-122.5 377.5zM356 1309v176h541v-176h-541z" />
<glyph unicode="&#x16c;" horiz-adv-x="1245" d="M84 516v979h278v-995q0 -111 74.5 -186.5t184.5 -75.5q109 0 185.5 76t76.5 186v995h278v-979q0 -171 -70.5 -293.5t-191 -182.5t-276.5 -60q-241 0 -390 140.5t-149 395.5zM301 1935h174q0 -187 156 -196q155 9 155 196h177q0 -153 -90 -250.5t-242 -97.5 q-162 0 -246 95.5t-84 252.5z" />
<glyph unicode="&#x16d;" horiz-adv-x="1245" d="M86 487v711h281v-682q0 -143 64 -222t192 -79q119 0 192.5 86t73.5 240v657h276v-1198h-274v137q-123 -162 -344 -162q-216 0 -338.5 134.5t-122.5 377.5zM303 1624h174q0 -188 156 -197q155 9 155 197h177q0 -153 -90 -250.5t-242 -97.5q-162 0 -246 95.5t-84 252.5z " />
<glyph unicode="&#x16e;" horiz-adv-x="1245" d="M84 516v979h278v-995q0 -111 74.5 -186.5t184.5 -75.5q109 0 185.5 76t76.5 186v995h278v-979q0 -171 -70.5 -293.5t-191 -182.5t-276.5 -60q-241 0 -390 140.5t-149 395.5zM381 1731q0 102 69 171.5t168 69.5q100 0 170 -69.5t70 -171.5q0 -98 -70 -168t-170 -70 q-98 0 -167.5 70t-69.5 168zM537 1731q0 -33 23 -56.5t58 -23.5t59.5 23.5t24.5 56.5q0 35 -24.5 59.5t-59.5 24.5t-58 -24t-23 -60z" />
<glyph unicode="&#x16f;" horiz-adv-x="1245" d="M86 487v711h281v-682q0 -143 64 -222t192 -79q119 0 192.5 86t73.5 240v657h276v-1198h-274v137q-123 -162 -344 -162q-216 0 -338.5 134.5t-122.5 377.5zM387 1464q0 102 69.5 172t168.5 70q100 0 169.5 -70t69.5 -172q0 -98 -69.5 -167.5t-169.5 -69.5q-98 0 -168 69.5 t-70 167.5zM543 1464q0 -33 23.5 -56.5t58.5 -23.5t59.5 23.5t24.5 56.5q0 35 -24.5 59.5t-59.5 24.5t-58.5 -24.5t-23.5 -59.5z" />
<glyph unicode="&#x170;" horiz-adv-x="1245" d="M84 516v979h278v-995q0 -111 74.5 -186.5t184.5 -75.5q109 0 185.5 76t76.5 186v995h278v-979q0 -171 -70.5 -293.5t-191 -182.5t-276.5 -60q-241 0 -390 140.5t-149 395.5zM330 1597l233 349h246l-307 -349h-172zM670 1597l233 349h246l-307 -349h-172z" />
<glyph unicode="&#x171;" horiz-adv-x="1245" d="M86 487v711h281v-682q0 -143 64 -222t192 -79q119 0 192.5 86t73.5 240v657h276v-1198h-274v137q-123 -162 -344 -162q-216 0 -338.5 134.5t-122.5 377.5zM332 1300l233 349h246l-307 -349h-172zM672 1300l233 349h246l-307 -349h-172z" />
<glyph unicode="&#x172;" horiz-adv-x="1245" d="M84 516v979h278v-995q0 -111 74.5 -186.5t184.5 -75.5q109 0 185.5 76t76.5 186v995h278v-979q0 -200 -89 -327.5t-247 -178.5q-174 -115 -220 -154t-46 -77q0 -33 24.5 -48.5t63.5 -15.5q11 0 21.5 1.5t20.5 5.5t16.5 6.5t17.5 10t15 10.5t16.5 13.5t15.5 12.5l162 -111 q-56 -51 -135 -85t-150 -34q-131 0 -213 64t-82 160q0 61 29.5 114.5t103.5 110.5q-185 36 -293 170.5t-108 351.5z" />
<glyph unicode="&#x173;" horiz-adv-x="1245" d="M86 487v711h281v-682q0 -143 64 -222t192 -79q119 0 192.5 86t73.5 240v657h276v-1198q-109 -67 -162 -126.5t-53 -100.5q0 -68 78 -68q51 0 102 62l162 -113q-58 -60 -123 -91.5t-151 -31.5q-118 0 -193 62t-77 159q-1 76 34.5 136.5t108.5 119.5v129 q-123 -162 -344 -162q-216 0 -338.5 134.5t-122.5 377.5z" />
<glyph unicode="&#x174;" horiz-adv-x="2095" d="M29 1495h290l283 -1046l313 1046h275l311 -1042l281 1042h280l-422 -1495h-276l-313 1055l-314 -1055h-282zM717 1597l244 349h172l243 -349h-209l-120 183l-121 -183h-209z" />
<glyph unicode="&#x175;" horiz-adv-x="2037" d="M37 1198h282l265 -825l301 825h274l295 -827l275 827h280l-420 -1198h-266l-303 829l-311 -829h-273zM688 1298l244 349h172l244 -349h-209l-121 183l-121 -183h-209z" />
<glyph unicode="&#x176;" horiz-adv-x="1288" d="M27 1495h307l309 -518l311 518h308l-482 -793v-702h-278v709zM313 1597l244 349h172l244 -349h-209l-121 183l-121 -183h-209z" />
<glyph unicode="&#x177;" horiz-adv-x="1265" d="M12 1198h295l334 -807l315 807h291l-715 -1751h-280l252 612zM303 1300l244 349h172l244 -349h-209l-121 183l-121 -183h-209z" />
<glyph unicode="&#x178;" horiz-adv-x="1288" d="M27 1495h307l309 -518l311 518h308l-482 -793v-702h-278v709zM299 1739q0 66 40 106.5t107 40.5q68 0 108 -40t40 -107t-40 -106.5t-108 -39.5t-107.5 39.5t-39.5 106.5zM690 1739q0 66 40.5 106.5t107.5 40.5t107 -40.5t40 -106.5t-40 -106t-107 -40q-71 0 -109.5 39.5 t-38.5 106.5z" />
<glyph unicode="&#x179;" horiz-adv-x="1138" d="M74 0v256l661 973h-639v266h967v-254l-662 -975h662v-266h-989zM455 1597l235 349h258l-307 -349h-186z" />
<glyph unicode="&#x17a;" horiz-adv-x="1181" d="M57 0v252l697 700h-682v246h1042v-252l-696 -700h708v-246h-1069zM494 1300l235 349h258l-307 -349h-186z" />
<glyph unicode="&#x17b;" horiz-adv-x="1138" d="M74 0v256l661 973h-639v266h967v-254l-662 -975h662v-266h-989zM416 1739q0 72 44.5 117t117.5 45q74 0 117.5 -44.5t43.5 -117.5t-43.5 -116.5t-117.5 -43.5q-77 0 -119.5 43.5t-42.5 116.5z" />
<glyph unicode="&#x17c;" horiz-adv-x="1181" d="M57 0v252l697 700h-682v246h1042v-252l-696 -700h708v-246h-1069zM446 1442q0 72 44.5 117t117.5 45q74 0 118 -44.5t44 -117.5q0 -72 -44 -116t-118 -44q-77 0 -119.5 43.5t-42.5 116.5z" />
<glyph unicode="&#x17d;" horiz-adv-x="1138" d="M74 0v256l661 973h-639v266h967v-254l-662 -975h662v-266h-989zM250 1946h209l121 -183l120 183h209l-243 -349h-172z" />
<glyph unicode="&#x17e;" horiz-adv-x="1181" d="M57 0v252l697 700h-682v246h1042v-252l-696 -700h708v-246h-1069zM279 1649h208l121 -183l121 183h209l-244 -349h-172z" />
<glyph unicode="&#x18f;" horiz-adv-x="1615" d="M47 731l2 109h1239q-33 174 -166.5 289.5t-314.5 115.5q-138 0 -249 -70t-179 -190l-238 148q94 172 270 277.5t398 105.5q162 0 305 -61.5t243 -165.5t158 -245t58 -296t-56.5 -295t-156 -245t-246 -166.5t-317.5 -61.5q-164 0 -307.5 65t-239.5 170.5t-150.5 240.5 t-52.5 275zM352 573q36 -126 163 -224.5t282 -98.5q167 0 292 88.5t177 234.5h-914z" />
<glyph unicode="&#x192;" horiz-adv-x="1204" d="M94 0v256q125 0 185.5 41t89.5 147l51 181h-322v245h391l52 183q67 245 198 343.5t353 98.5h20v-256q-140 0 -198.5 -38t-92.5 -150l-51 -181h338v-245h-408l-51 -183q-68 -242 -185 -342t-325 -100h-45z" />
<glyph unicode="&#x1fa;" horiz-adv-x="1406" d="M31 0l504 1415q-64 67 -64 162q0 102 69.5 172t168.5 70q100 0 169.5 -70t69.5 -172q0 -101 -74 -172l502 -1405h-291l-92 266h-579l-92 -266h-291zM508 532h393l-196 566zM612 1905l236 348h258l-307 -348h-187zM627 1577q0 -33 23.5 -56.5t58.5 -23.5t59.5 23.5 t24.5 56.5q0 35 -24.5 59.5t-59.5 24.5t-58.5 -24.5t-23.5 -59.5z" />
<glyph unicode="&#x1fb;" horiz-adv-x="1374" d="M41 598q0 221 110 375.5t283 214.5q-28 54 -28 115q0 102 69 171.5t168 69.5q100 0 170 -69.5t70 -171.5q0 -64 -35 -123q105 -44 172 -125v143h276v-1198h-276v156q-66 -85 -168.5 -133t-220.5 -48q-110 0 -214.5 43t-188.5 120.5t-135.5 197.5t-51.5 262zM313 602 q0 -157 105 -265t258 -108q154 0 256 108t102 265q0 155 -102 262t-256 107t-258.5 -107t-104.5 -262zM547 1614l235 348h258l-307 -348h-186zM561 1303q0 -31 21.5 -55t52.5 -25h8q35 0 59.5 23.5t24.5 56.5q0 35 -24.5 59t-59.5 24t-58.5 -24t-23.5 -59z" />
<glyph unicode="&#x1fc;" horiz-adv-x="1921" d="M27 0l682 1495h1142v-266h-790l86 -344h704v-267h-637l89 -352h548v-266h-774l-65 264h-576l-119 -264h-290zM551 522h397l-139 572zM1004 1597l235 349h258l-307 -349h-186z" />
<glyph unicode="&#x1fd;" horiz-adv-x="2119" d="M37 315q0 81 29 144.5t85 107.5t123.5 73.5t157.5 51.5q33 9 84.5 21.5t84 20.5t73.5 19.5t66 23t48.5 26t34.5 32.5t11 39q0 57 -58 93.5t-164 36.5q-142 0 -215 -63.5t-73 -162.5v-6h-254v4q0 213 139 330t391 117q306 0 430 -174q174 174 430 174q174 0 315.5 -80 t222.5 -221.5t81 -315.5v-96h-977q25 -133 123 -212t248 -79q115 0 205 59t134 158l234 -100q-77 -168 -226.5 -264.5t-346.5 -96.5q-170 0 -300.5 66t-211.5 186q-65 -108 -196.5 -180t-293.5 -72q-217 0 -325.5 93t-108.5 247zM313 324q0 -119 172 -119q71 0 137.5 29 t111.5 72.5t74.5 90t35.5 84.5q0 114 -4 121q-10 -27 -78.5 -52t-196.5 -54q-137 -31 -194.5 -67.5t-57.5 -104.5zM961 1307l235 348h258l-307 -348h-186zM1120 741h676q-35 116 -122.5 177t-213.5 61q-120 0 -209 -64.5t-131 -173.5z" />
<glyph unicode="&#x1fe;" horiz-adv-x="1617" d="M45 748q0 209 101.5 385.5t277.5 279.5t385 103q193 0 381 -103l67 82h322l-195 -240q191 -216 191 -507q0 -157 -60 -299.5t-162.5 -245t-244.5 -163t-299 -60.5q-201 0 -377 98l-61 -78h-322l189 233q-193 218 -193 515zM322 748q0 -164 94 -295l598 741 q-100 47 -205 47q-134 0 -246 -66t-176.5 -179.5t-64.5 -247.5zM610 295q93 -41 199 -41q134 0 246.5 66.5t177.5 180t65 247.5q0 157 -92 286zM682 1597l236 349h258l-308 -349h-186z" />
<glyph unicode="&#x1ff;" d="M41 0l149 188q-149 169 -149 410q0 129 48.5 245t131.5 199t198 132t243 49q153 0 292 -74l39 49h285l-150 -188q154 -175 154 -412q0 -169 -82.5 -312.5t-225.5 -227t-312 -83.5q-158 0 -297 74l-39 -49h-285zM311 598q0 -109 51 -192l424 532q-61 25 -124 25 q-150 0 -250.5 -106t-100.5 -259zM532 260q59 -24 130 -24q147 0 248.5 106t101.5 256q0 108 -56 197zM569 1311l236 348h258l-307 -348h-187z" />
<glyph unicode="&#x218;" horiz-adv-x="1153" d="M6 248l254 201q57 -98 141 -150.5t187 -52.5q105 0 166 58.5t61 141.5q0 35 -18 64t-39 47.5t-69 39.5t-75 30t-91 29q-13 4 -19 6q-50 16 -77.5 26t-73.5 28t-73 34.5t-63 41.5t-57 53t-41.5 64t-29.5 81t-9 97q0 182 140.5 305.5t354.5 123.5q115 0 210.5 -30 t160.5 -74.5t131 -113.5l-229 -174q-94 144 -270 144q-99 0 -154 -47.5t-55 -122.5q0 -32 15.5 -59t33.5 -44t61 -36.5t68 -28.5t85 -29q28 -9 42 -14q52 -17 88.5 -30.5t85 -36t82.5 -45.5t69.5 -57t57 -72.5t35.5 -90t14 -111.5q0 -89 -35 -172t-99 -148.5t-163.5 -104.5 t-218.5 -39q-346 0 -584 268zM383 -510l70 418h243l-143 -418h-170z" />
<glyph unicode="&#x219;" horiz-adv-x="1060" d="M-2 266l256 123q88 -174 289 -174q99 0 152 41t53 104q0 14 -4.5 26.5t-14.5 22.5t-20.5 18t-29.5 16t-33.5 13t-40.5 11.5t-42.5 10t-47.5 10t-48 10.5q-60 13 -103.5 24.5t-96 31.5t-88.5 46t-68 61.5t-48 85.5t-16 111q0 150 132 258.5t339 108.5q342 0 490 -248 l-236 -119q-37 64 -103 100.5t-151 36.5q-93 0 -142.5 -37t-49.5 -92q0 -20 6.5 -35t26 -28t36 -21.5t56 -19t65.5 -16.5t84 -19q69 -14 120.5 -28.5t112 -42.5t99 -64.5t64.5 -94t26 -130.5q0 -52 -18 -105.5t-57.5 -105t-95.5 -92t-139 -65t-182 -24.5q-383 0 -532 291z M338 -520l70 418h243l-143 -418h-170z" />
<glyph unicode="&#x237;" horiz-adv-x="438" d="M-168 -291q57 0 93.5 3t66 13t45 25.5t26.5 44.5t14 64.5t3 91.5v1247h280v-1249q0 -146 -24 -239.5t-82.5 -153t-150 -83.5t-232.5 -24h-39v260z" />
<glyph unicode="&#x259;" horiz-adv-x="1320" d="M41 592v104h958q-21 108 -120 187.5t-232 79.5q-105 0 -182 -57t-117 -144l-235 137q77 137 215.5 230.5t318.5 93.5q138 0 257 -48.5t201 -132t128.5 -197.5t46.5 -243t-48.5 -245t-131.5 -200t-198.5 -133t-244.5 -49q-130 0 -246 51.5t-196 136.5t-127 197t-47 232z M334 479q21 -97 114.5 -171.5t208.5 -74.5q122 0 210 66.5t126 179.5h-659z" />
<glyph unicode="&#x2c6;" horiz-adv-x="966" d="M154 1126l243 349h172l244 -349h-209l-121 183l-121 -183h-208z" />
<glyph unicode="&#x2c7;" horiz-adv-x="966" d="M152 1475h208l121 -183l121 183h209l-244 -349h-172z" />
<glyph unicode="&#x2d8;" horiz-adv-x="966" d="M152 1464h174q0 -187 155 -196q156 10 156 196h176q0 -153 -90 -250.5t-242 -97.5q-162 0 -245.5 95.5t-83.5 252.5z" />
<glyph unicode="&#x2d9;" horiz-adv-x="968" d="M301 1268q0 72 44.5 117t117.5 45q74 0 118 -44.5t44 -117.5q0 -72 -43.5 -116t-118.5 -44q-77 0 -119.5 43.5t-42.5 116.5z" />
<glyph unicode="&#x2da;" horiz-adv-x="966" d="M244 1356q0 102 69 171.5t168 69.5q100 0 170 -69.5t70 -171.5q0 -98 -70 -168t-170 -70q-98 0 -167.5 70t-69.5 168zM399 1356q0 -33 23.5 -56.5t58.5 -23.5t59.5 23.5t24.5 56.5q0 35 -24.5 59.5t-59.5 24.5t-58.5 -24.5t-23.5 -59.5z" />
<glyph unicode="&#x2db;" horiz-adv-x="966" d="M180 -242q0 86 68 164t239 164l166 -86q-174 -115 -220 -154t-46 -77q0 -33 24.5 -48.5t63.5 -15.5q10 0 20 1.5t17 3t16.5 6t14 7t14.5 9.5t13 9.5t14.5 11.5t13.5 11l162 -110q-56 -51 -135 -85t-150 -34q-131 0 -213 64t-82 159z" />
<glyph unicode="&#x2dc;" horiz-adv-x="966" d="M131 1126q0 126 57 201.5t156 75.5q74 0 158 -49q3 -2 8 -5q59 -42 88 -45q5 -1 10 -1q58 0 58 92h159q0 -131 -54.5 -204t-160.5 -73q-19 0 -38.5 3.5t-32 7t-31.5 12t-26 12.5t-26.5 15.5t-23.5 13.5q-60 35 -88 35q-53 0 -53 -91h-160z" />
<glyph unicode="&#x2dd;" horiz-adv-x="966" d="M74 1126l233 349h246l-307 -349h-172zM414 1126l233 349h246l-307 -349h-172z" />
<glyph unicode="&#x328;" horiz-adv-x="966" d="M238 -248q-1 68 30.5 127.5t83 106t135.5 100.5l168 -86q-109 -67 -162 -126.5t-53 -100.5q0 -68 78 -68q52 0 103 62l161 -113q-58 -60 -123 -91.5t-151 -31.5q-118 0 -193 62t-77 159z" />
<glyph unicode="&#x3c0;" horiz-adv-x="1595" d="M74 1229v266h1446v-266h-265v-807q0 -92 22 -116.5t109 -24.5h134v-281h-211q-83 0 -142 18t-95.5 49.5t-58 84.5t-29 113.5t-7.5 146.5l2 817h-377v-1229h-278v1229h-250z" />
<glyph unicode="&#xe3f;" horiz-adv-x="1001" d="M74 125v1221h364v149h142v-152q184 -12 278 -98t94 -244q0 -163 -135 -245q146 -87 146 -262q1 -168 -98.5 -258.5t-284.5 -108.5v-127h-142v125h-364zM348 371h90v254h-90v-254zM348 874h90v228h-90v-228zM580 377q104 25 104 125q0 96 -104 116v-241zM580 879 q100 21 100 114q0 87 -100 105v-219z" />
<glyph unicode="&#x1e80;" horiz-adv-x="2095" d="M29 1495h290l283 -1046l313 1046h275l311 -1042l281 1042h280l-422 -1495h-276l-313 1055l-314 -1055h-282zM639 1946h260l234 -349h-187z" />
<glyph unicode="&#x1e81;" horiz-adv-x="2037" d="M37 1198h282l265 -825l301 825h274l295 -827l275 827h280l-420 -1198h-266l-303 829l-311 -829h-273zM623 1649h260l233 -349h-186z" />
<glyph unicode="&#x1e82;" horiz-adv-x="2095" d="M29 1495h290l283 -1046l313 1046h275l311 -1042l281 1042h280l-422 -1495h-276l-313 1055l-314 -1055h-282zM948 1597l236 349h258l-307 -349h-187z" />
<glyph unicode="&#x1e83;" horiz-adv-x="2037" d="M37 1198h282l265 -825l301 825h274l295 -827l275 827h280l-420 -1198h-266l-303 829l-311 -829h-273zM926 1303l235 348h258l-307 -348h-186z" />
<glyph unicode="&#x1e84;" horiz-adv-x="2095" d="M29 1495h290l283 -1046l313 1046h275l311 -1042l281 1042h280l-422 -1495h-276l-313 1055l-314 -1055h-282zM707 1739q0 66 40 106.5t107 40.5q68 0 107.5 -40t39.5 -107t-39.5 -106.5t-107.5 -39.5t-107.5 39.5t-39.5 106.5zM1098 1739q0 66 40 106.5t107 40.5 t107.5 -40.5t40.5 -106.5t-40.5 -106t-107.5 -40q-71 0 -109 39.5t-38 106.5z" />
<glyph unicode="&#x1e85;" horiz-adv-x="2037" d="M37 1198h282l265 -825l301 825h274l295 -827l275 827h280l-420 -1198h-266l-303 829l-311 -829h-273zM684 1438q0 66 40 106.5t107 40.5q68 0 108 -40t40 -107q0 -66 -39.5 -106t-108.5 -40q-68 0 -107.5 39.5t-39.5 106.5zM1075 1438q0 66 40.5 106.5t107.5 40.5 t107 -40.5t40 -106.5t-40 -106t-107 -40q-71 0 -109.5 39.5t-38.5 106.5z" />
<glyph unicode="&#x1ef2;" horiz-adv-x="1288" d="M27 1495h307l309 -518l311 518h308l-482 -793v-702h-278v709zM238 1946h260l233 -349h-186z" />
<glyph unicode="&#x1ef3;" horiz-adv-x="1265" d="M12 1198h295l334 -807l315 807h291l-715 -1751h-280l252 612zM236 1653h260l233 -348h-186z" />
<glyph unicode="&#x2000;" horiz-adv-x="1126" />
<glyph unicode="&#x2001;" horiz-adv-x="2253" />
<glyph unicode="&#x2002;" horiz-adv-x="1126" />
<glyph unicode="&#x2003;" horiz-adv-x="2253" />
<glyph unicode="&#x2004;" horiz-adv-x="751" />
<glyph unicode="&#x2005;" horiz-adv-x="563" />
<glyph unicode="&#x2006;" horiz-adv-x="375" />
<glyph unicode="&#x2007;" horiz-adv-x="375" />
<glyph unicode="&#x2008;" horiz-adv-x="281" />
<glyph unicode="&#x2009;" horiz-adv-x="450" />
<glyph unicode="&#x200a;" horiz-adv-x="125" />
<glyph unicode="&#x2010;" horiz-adv-x="905" d="M74 403v236h757v-236h-757z" />
<glyph unicode="&#x2011;" horiz-adv-x="905" d="M74 403v236h757v-236h-757z" />
<glyph unicode="&#x2012;" horiz-adv-x="1275" d="M74 403v236h1128v-236h-1128z" />
<glyph unicode="&#x2013;" horiz-adv-x="968" d="M74 403v236h821v-236h-821z" />
<glyph unicode="&#x2014;" horiz-adv-x="1378" d="M74 403v236h1231v-236h-1231z" />
<glyph unicode="&#x2015;" horiz-adv-x="1992" d="M74 403v236h1845v-236h-1845z" />
<glyph unicode="&#x2016;" horiz-adv-x="831" d="M74 -471v1966h278v-1966h-278zM479 -471v1966h279v-1966h-279z" />
<glyph unicode="&#x2018;" horiz-adv-x="423" d="M47 1495h244l69 -418h-170z" />
<glyph unicode="&#x2019;" horiz-adv-x="423" d="M57 1077l70 418h244l-144 -418h-170z" />
<glyph unicode="&#x201a;" horiz-adv-x="423" d="M45 -240l70 418h243l-143 -418h-170z" />
<glyph unicode="&#x201b;" horiz-adv-x="423" d="M57 1077l70 418h244l-144 -418h-170z" />
<glyph unicode="&#x201c;" horiz-adv-x="753" d="M55 1495h242l72 -418h-170zM385 1495h242l71 -418h-172z" />
<glyph unicode="&#x201d;" horiz-adv-x="753" d="M57 1077l70 418h244l-144 -418h-170zM387 1077l70 418h243l-143 -418h-170z" />
<glyph unicode="&#x201e;" horiz-adv-x="753" d="M45 -240l70 418h243l-143 -418h-170zM375 -240l69 418h244l-143 -418h-170z" />
<glyph unicode="&#x201f;" horiz-adv-x="753" d="M57 1077l70 418h244l-144 -418h-170zM387 1077l70 418h243l-143 -418h-170z" />
<glyph unicode="&#x2020;" horiz-adv-x="1077" d="M74 776v248h325v471h279v-471h323v-248h-323v-776h-279v776h-325z" />
<glyph unicode="&#x2021;" horiz-adv-x="1077" d="M74 377v246h325v268h-325v246h325v358h279v-358h323v-246h-323v-268h323v-246h-323v-377h-279v377h-325z" />
<glyph unicode="&#x2022;" horiz-adv-x="808" d="M178 522q0 92 68 160t160 68t159.5 -68t67.5 -160t-67.5 -159.5t-159.5 -67.5t-160 67.5t-68 159.5z" />
<glyph unicode="&#x2026;" horiz-adv-x="1181" d="M68 127q0 68 41 110t110 42q71 0 110.5 -41.5t39.5 -110.5q0 -67 -40.5 -108.5t-111.5 -41.5q-68 0 -108.5 41.5t-40.5 108.5zM440 127q0 68 41.5 110t110.5 42q71 0 110 -41.5t39 -110.5q0 -67 -40 -108.5t-111 -41.5q-68 0 -109 41.5t-41 108.5zM813 127q0 68 41.5 110 t110.5 42q71 0 110 -41.5t39 -110.5q0 -67 -40 -108.5t-111 -41.5q-68 0 -109 41.5t-41 108.5z" />
<glyph unicode="&#x202f;" horiz-adv-x="450" />
<glyph unicode="&#x2030;" horiz-adv-x="2465" d="M27 0l1284 1495h352l-1284 -1495h-352zM45 1151q0 152 107.5 258.5t259.5 106.5t258 -106.5t106 -258.5q0 -153 -106 -260t-258 -107t-259.5 107.5t-107.5 259.5zM279 1151q0 -55 39.5 -95t93.5 -40t93.5 40t39.5 95q0 54 -39.5 93.5t-93.5 39.5t-93.5 -39.5t-39.5 -93.5 zM913 344q0 152 107.5 258.5t259.5 106.5t258.5 -106.5t106.5 -258.5t-106.5 -259.5t-258.5 -107.5t-259.5 107.5t-107.5 259.5zM1147 344q0 -56 38.5 -94.5t94.5 -38.5q54 0 92.5 39t38.5 94q0 54 -38.5 93.5t-92.5 39.5q-55 0 -94 -39.5t-39 -93.5zM1690 344 q0 152 106 258.5t258 106.5t259.5 -106.5t107.5 -258.5t-107.5 -259.5t-259.5 -107.5t-258 107t-106 260zM1921 344q0 -55 39.5 -94t93.5 -39t93.5 39t39.5 94q0 54 -39.5 93.5t-93.5 39.5t-93.5 -39.5t-39.5 -93.5z" />
<glyph unicode="&#x2032;" horiz-adv-x="423" d="M57 1077l70 418h244l-144 -418h-170z" />
<glyph unicode="&#x2033;" horiz-adv-x="753" d="M57 1077l70 418h244l-144 -418h-170zM387 1077l70 418h243l-143 -418h-170z" />
<glyph unicode="&#x2034;" horiz-adv-x="958" d="M74 1323v172h215v-172q0 -48 -26 -152.5t-44 -146.5h-76q-18 39 -43.5 145.5t-25.5 153.5zM373 1323v172h215v-172q0 -50 -26.5 -154t-45.5 -145h-76q-18 39 -42.5 145t-24.5 154zM670 1323v172h215v-172q0 -48 -26 -152.5t-44 -146.5h-76q-18 39 -43.5 145.5 t-25.5 153.5z" />
<glyph unicode="&#x2039;" horiz-adv-x="563" d="M109 438v170l346 244v-207l-183 -123l183 -121v-206z" />
<glyph unicode="&#x203a;" horiz-adv-x="563" d="M109 197v206l182 121l-182 123v207l346 -244v-170z" />
<glyph unicode="&#x2044;" horiz-adv-x="1441" d="M23 0l1079 1495h319l-1079 -1495h-319z" />
<glyph unicode="&#x205f;" horiz-adv-x="563" />
<glyph unicode="&#x2070;" horiz-adv-x="929" d="M23 1063q0 185 127.5 314.5t312.5 129.5q186 0 315 -129.5t129 -314.5q0 -186 -128 -315.5t-316 -129.5q-185 0 -312.5 130t-127.5 315zM256 1063q0 -92 58 -154.5t149 -62.5q92 0 150.5 62.5t58.5 154.5t-59 154.5t-150 62.5t-149 -62.5t-58 -154.5z" />
<glyph unicode="&#x2074;" horiz-adv-x="743" d="M29 803v203l344 489h215v-498h127v-194h-127v-172h-213v172h-346zM266 997h109v158z" />
<glyph unicode="&#x2075;" horiz-adv-x="655" d="M10 778l221 117q27 -59 91 -59q38 0 62 24t24 62q0 37 -25 59.5t-66 22.5q-29 0 -53 -16t-35 -40l-209 72l66 475h496v-211h-318l-14 -92q49 18 100 18q130 0 207.5 -76.5t77.5 -211.5t-88.5 -219.5t-224.5 -84.5q-105 0 -187 43t-125 117z" />
<glyph unicode="&#x2076;" horiz-adv-x="720" d="M23 938q0 113 83 252l193 305h264l-155 -244q126 -5 208 -90t82 -223q0 -136 -95 -228t-243 -92t-242.5 91.5t-94.5 228.5zM254 940q0 -45 30 -77t76 -32q47 0 80 32t33 79q0 45 -33 77t-80 32t-76.5 -31.5t-29.5 -79.5z" />
<glyph unicode="&#x2077;" horiz-adv-x="628" d="M29 1282v213h571v-201l-295 -663h-248l303 651h-331z" />
<glyph unicode="&#x2078;" horiz-adv-x="671" d="M29 905q0 111 82 187q-58 64 -58 155q0 122 77.5 191t203.5 69q127 0 205.5 -69t78.5 -191q0 -87 -53 -153q76 -76 76 -189q0 -132 -86.5 -209.5t-220.5 -77.5q-133 0 -219 77.5t-86 209.5zM244 905q0 -39 24.5 -64.5t65.5 -25.5t66.5 25.5t25.5 64.5q0 36 -26 61t-66 25 t-65 -25t-25 -61zM260 1247q0 -31 20 -51t54 -20q36 0 57 20t21 51t-20.5 51.5t-55.5 20.5t-55.5 -20.5t-20.5 -51.5z" />
<glyph unicode="&#x2079;" horiz-adv-x="720" d="M23 1188q0 136 94.5 227.5t242.5 91.5t243 -91.5t95 -227.5q0 -123 -84 -252l-192 -305h-262l153 246q-123 0 -206.5 86t-83.5 225zM252 1186q0 -48 30.5 -79.5t77.5 -31.5t79 32t32 79t-31.5 77.5t-79.5 30.5q-47 0 -77.5 -30.5t-30.5 -77.5z" />
<glyph unicode="&#x207a;" horiz-adv-x="505" d="M33 969v186h129v125h180v-125h129v-186h-129v-125h-180v125h-129z" />
<glyph unicode="&#x207b;" horiz-adv-x="505" d="M33 969v184h438v-184h-438z" />
<glyph unicode="&#x207c;" horiz-adv-x="493" d="M29 866v178h436v-178h-436zM29 1077v176h436v-176h-436z" />
<glyph unicode="&#x207d;" horiz-adv-x="544" d="M45 1059q0 196 77.5 345.5t229.5 268.5l140 -186q-216 -160 -216 -428q0 -262 216 -430l-138 -187q-155 117 -232 268t-77 349z" />
<glyph unicode="&#x207e;" horiz-adv-x="544" d="M53 629q215 167 215 430q0 269 -215 428l140 186q152 -119 229.5 -268.5t77.5 -345.5q0 -197 -77 -348t-230 -269z" />
<glyph unicode="&#x2080;" horiz-adv-x="929" d="M23 432q0 185 127.5 315t312.5 130q122 0 224 -59.5t161 -162t59 -223.5q0 -186 -128 -315t-316 -129q-185 0 -312.5 129.5t-127.5 314.5zM256 432q0 -92 58 -154.5t149 -62.5q92 0 150.5 62.5t58.5 154.5t-59 154.5t-150 62.5t-149 -62.5t-58 -154.5z" />
<glyph unicode="&#x2081;" horiz-adv-x="610" d="M29 0v213h166v340q-41 -53 -129 -53h-13v219h6q77 0 110.5 44.5t33.5 100.5h223v-651h160v-213h-557z" />
<glyph unicode="&#x2082;" horiz-adv-x="675" d="M8 670q101 207 330 207q140 0 227.5 -73.5t87.5 -189.5q0 -47 -15 -89t-37 -71.5t-56.5 -57t-64 -45t-68.5 -36.5q-94 -51 -114 -68q-19 -18 -22 -34h371v-213h-618v170q0 61 20.5 111.5t57.5 88t73 62.5t84 49q10 6 34 19t33.5 19t27 17t25 18t17.5 17.5t13.5 20 t3.5 20.5q0 28 -22.5 47t-61.5 19q-81 0 -127 -111z" />
<glyph unicode="&#x2083;" horiz-adv-x="665" d="M10 96l174 158q54 -57 125 -57q42 0 67 19t25 54q0 68 -120 68h-91v201h86q107 0 107 73q0 64 -88 64q-73 0 -107 -58l-163 142q50 54 126.5 85.5t151.5 31.5q144 0 233 -69.5t89 -186.5q0 -102 -86 -170q106 -63 106 -187q0 -119 -88 -197.5t-233 -78.5q-93 0 -176.5 27 t-137.5 81z" />
<glyph unicode="&#x2084;" horiz-adv-x="743" d="M29 172v203l344 489h215v-497h127v-195h-127v-172h-213v172h-346zM266 367h109v157z" />
<glyph unicode="&#x2085;" horiz-adv-x="655" d="M10 147l221 117q27 -59 91 -59q38 0 62 24t24 62q0 37 -25 59.5t-66 22.5q-29 0 -53 -16t-35 -40l-209 72l66 475h496v-211h-318l-14 -92q51 19 100 19q130 0 207.5 -77t77.5 -212t-88.5 -219t-224.5 -84q-105 0 -187 42.5t-125 116.5z" />
<glyph unicode="&#x2086;" horiz-adv-x="720" d="M23 307q0 113 83 252l193 305h264l-155 -243q126 -5 208 -90.5t82 -223.5q0 -136 -95 -227.5t-243 -91.5t-242.5 91.5t-94.5 227.5zM254 309q0 -45 30 -76.5t76 -31.5q48 0 80.5 31.5t32.5 78.5q0 45 -33 77t-80 32t-76.5 -31.5t-29.5 -79.5z" />
<glyph unicode="&#x2087;" horiz-adv-x="628" d="M29 651v213h571v-200l-295 -664h-248l303 651h-331z" />
<glyph unicode="&#x2088;" horiz-adv-x="671" d="M29 274q0 111 82 187q-58 64 -58 155q0 122 77.5 191.5t203.5 69.5q127 0 205.5 -69.5t78.5 -191.5q0 -87 -53 -153q76 -76 76 -189q0 -132 -86.5 -209t-220.5 -77q-133 0 -219 77t-86 209zM244 274q0 -39 24.5 -64.5t65.5 -25.5t66.5 25.5t25.5 64.5q0 36 -26 61t-66 25 t-65 -25t-25 -61zM260 616q0 -32 20 -51.5t54 -19.5q36 0 57 20t21 51t-20.5 51.5t-55.5 20.5t-55.5 -20.5t-20.5 -51.5z" />
<glyph unicode="&#x2089;" horiz-adv-x="720" d="M23 557q0 137 94.5 228.5t242.5 91.5t243 -92t95 -228q0 -123 -84 -252l-192 -305h-262l153 246q-123 0 -206.5 86t-83.5 225zM252 555q0 -48 30.5 -79.5t77.5 -31.5t79 32t32 79t-32 78t-79 31t-77.5 -31t-30.5 -78z" />
<glyph unicode="&#x208a;" horiz-adv-x="505" d="M33 338v186h129v125h180v-125h129v-186h-129v-125h-180v125h-129z" />
<glyph unicode="&#x208b;" horiz-adv-x="505" d="M33 338v184h438v-184h-438z" />
<glyph unicode="&#x208c;" horiz-adv-x="493" d="M29 236v178h436v-178h-436zM29 446v177h436v-177h-436z" />
<glyph unicode="&#x208d;" horiz-adv-x="544" d="M45 428q0 196 77.5 345.5t229.5 268.5l140 -186q-216 -160 -216 -428q0 -262 216 -430l-138 -186q-155 118 -232 268t-77 348z" />
<glyph unicode="&#x208e;" horiz-adv-x="544" d="M53 -2q215 167 215 430q0 269 -215 428l140 186q152 -119 229.5 -268.5t77.5 -345.5q0 -197 -77 -347.5t-230 -268.5z" />
<glyph unicode="&#x20a1;" horiz-adv-x="1511" d="M45 748q0 164 59.5 307.5t162 244t244.5 158.5t302 58q27 0 61 -3l87 207h153l-96 -233q37 -7 98 -35l111 268h153l-139 -336q141 -95 227 -239l-243 -156q-47 82 -95 125l-352 -856h29q137 0 243 68.5t169 183.5l249 -143q-106 -183 -272 -285t-383 -102q-51 0 -145 12 l-97 -238h-151l110 273q-40 16 -96 43l-129 -316h-149l159 393q-130 105 -200 260.5t-70 340.5zM322 748q0 -184 110 -318l330 809q-192 -17 -316 -155.5t-124 -335.5zM543 332q46 -29 94 -45l375 911q-57 26 -99 33z" />
<glyph unicode="&#x20a2;" horiz-adv-x="1511" d="M45 748q0 164 59.5 307.5t162 244t244.5 158.5t302 58q207 0 381 -100.5t274 -270.5l-243 -156q-142 252 -412 252q-140 0 -252.5 -65t-175.5 -177.5t-63 -250.5q0 -155 79.5 -277t214.5 -176v606h273v-168q81 168 282 168h56v-266h-117q-117 0 -168 -63.5t-51 -209.5 v-98q119 20 207 91t141 180l250 -138q-99 -197 -275.5 -307t-400.5 -110q-170 0 -315 60t-243.5 164t-154 244.5t-55.5 299.5z" />
<glyph unicode="&#x20a3;" horiz-adv-x="995" d="M74 0v1495h846v-266h-568v-207h568v-234h-568v-124h568v-236h-568v-428h-278z" />
<glyph unicode="&#x20a4;" horiz-adv-x="1443" d="M104 190q0 98 70.5 161t179.5 63q102 0 230 -62q2 4 2 21q0 63 -29 135h-383v201h262q-27 39 -43 67h-219v201h139q-8 36 -8 96q0 194 132 318.5t341 124.5q186 0 306.5 -78t164.5 -217l-262 -97q-41 150 -207 150q-95 0 -154 -58t-59 -139q0 -36 11 -100h430v-201h-355 l29 -67h326v-201h-258q14 -72 14 -133q0 -52 -14 -113q115 -61 188 -61q81 0 114 38.5t33 129.5v98h285v-133q0 -354 -362 -354q-99 0 -182.5 30.5t-172.5 83.5q-114 -117 -266 -117q-137 0 -210 53t-73 160zM311 193q0 -24 20 -38t56 -14q66 0 119 47q-79 50 -139 50 q-28 0 -42 -12.5t-14 -32.5z" />
<glyph unicode="&#x20a6;" horiz-adv-x="1654" d="M61 594v135h185v68h-185v135h185v563h297l313 -563h274v563h279v-563h184v-135h-184v-68h184v-135h-184v-594h-276l-332 594h-277v-594h-278v594h-185zM524 729h201l-39 68h-162v-68zM524 932h86l-86 155v-155zM932 797l39 -68h159v68h-198zM1047 594l83 -152v152h-83z " />
<glyph unicode="&#x20a7;" horiz-adv-x="2859" d="M74 0v1495h512q215 0 364.5 -134t169.5 -337h148v240l274 151v-391h215v-246h-215v-334q0 -66 5.5 -99.5t28.5 -55.5t58.5 -27.5t104.5 -5.5h495q148 0 148 82q0 47 -84 68q-34 9 -131 22q-48 8 -75.5 13t-72.5 16.5t-72 24.5t-60 35t-51 49t-31 66t-13 87q0 145 112 237 t294 88q172 0 277.5 -60t166.5 -173l-242 -104q-24 52 -74 82t-118 30q-69 0 -103 -22.5t-34 -59.5q0 -13 7 -24t24.5 -19t32.5 -13.5t46.5 -11t51 -8.5t59.5 -8q61 -11 103 -21t95.5 -33t86.5 -53.5t56 -82t23 -117.5q0 -67 -22 -126.5t-69.5 -111t-135.5 -81t-207 -27.5 h-524q-243 0 -336.5 96t-93.5 346v336h-174q-55 -156 -192 -253t-318 -97h-232v-428h-278zM352 686h215q122 0 199.5 79.5t77.5 197.5q0 117 -77 195.5t-200 78.5h-215v-551z" />
<glyph unicode="&#x20a8;" horiz-adv-x="2021" d="M74 0v1495h469q250 0 399.5 -142.5t149.5 -357.5q0 -90 -26.5 -171t-86 -151t-145.5 -110q81 -95 166 -158.5t173.5 -95t169 -43.5t179.5 -12q176 0 176 84q0 14 -7 25.5t-24 20t-31.5 14.5t-45.5 11.5t-49.5 8.5t-57.5 8q-46 7 -75 12.5t-72.5 17.5t-72 25.5t-60.5 35.5 t-51 49.5t-31.5 66.5t-12.5 86q0 145 111.5 237t293.5 88q172 0 278 -60t167 -173l-242 -104q-51 112 -192 112q-69 0 -103.5 -22.5t-34.5 -59.5q0 -12 5.5 -21.5t18 -16.5t25 -12.5t35.5 -10.5t40.5 -8t48 -8t49.5 -9q58 -8 102.5 -18.5t96.5 -33t85.5 -53.5t56.5 -82.5 t23 -117.5q0 -54 -13 -102t-46.5 -94.5t-85.5 -80t-135 -53.5t-189 -18q-74 0 -141 6.5t-149.5 27t-159 53.5t-164.5 89.5t-170 132.5t-171.5 185.5t-174.5 244.5h139q64 0 116 16.5t85 42.5t56 60.5t32.5 69t9.5 69.5q0 119 -71 179.5t-228 60.5h-160v-1235h-278z" />
<glyph unicode="&#x20a9;" horiz-adv-x="2207" d="M53 594v135h244l-21 68h-223v135h187l-160 563h291l151 -563h293l170 563h254l168 -563h293l151 563h283l-160 -563h183v-135h-222l-20 -68h242v-135h-279l-168 -594h-274l-179 594h-292l-177 -594h-284l-170 594h-281zM559 797l19 -68h178l20 68h-217zM614 594l48 -176 l53 176h-101zM1006 729h213l-21 68h-172zM1065 932h92l-45 153zM1448 797l20 -68h177l18 68h-215zM1509 594l54 -176l47 176h-101z" />
<glyph unicode="&#x20aa;" horiz-adv-x="1642" d="M74 0v1495h446q643 0 643 -608v-277q0 -137 -57.5 -188t-220.5 -51v516q0 102 -16 165t-60 106.5t-119 61t-196 17.5h-142v-1237h-278zM479 0v1126q63 0 103 -3t73.5 -13t51.5 -25t30.5 -43t16.5 -63t4 -88v-633h141q118 0 193 18t119 61.5t60.5 107t16.5 163.5v887h279 v-887q0 -608 -641 -608h-447z" />
<glyph unicode="&#x20ac;" horiz-adv-x="1204" d="M63 436v217h185v189h-185v217h187q12 197 153.5 327t352.5 130q234 0 381 -160l-209 -187q-69 72 -172 72q-95 0 -153.5 -50t-72.5 -132h459l-37 -217h-426v-189h398l-35 -217h-361q12 -83 68.5 -131.5t153.5 -48.5q60 0 100 24.5t74 69.5l250 -164q-134 -206 -422 -206 q-233 0 -364.5 124.5t-139.5 331.5h-185z" />
<glyph unicode="&#x20ae;" horiz-adv-x="1224" d="M74 1229v266h1077v-266h-399v-254l219 90v-154l-219 -90v-114l219 90v-154l-219 -90v-553h-279v438l-225 -92v154l225 92v115l-225 -93v154l225 92v369h-399z" />
<glyph unicode="&#x20b1;" horiz-adv-x="1486" d="M72 797v135h157v67h-157v136h157v360h512q182 0 318.5 -99.5t191.5 -260.5h185v-136h-158q2 -14 2 -36q0 -25 -2 -31h158v-135h-183q-50 -163 -190.5 -266t-323.5 -103h-231v-428h-279v797h-157zM508 686h213q72 0 130.5 29.5t94.5 81.5h-438v-111zM508 932h489 q0 5 1 15.5t1 15.5q0 7 -1 18t-1 18h-489v-67zM508 1135h432q-79 102 -219 102h-213v-102z" />
<glyph unicode="&#x2117;" horiz-adv-x="1617" d="M45 735q0 209 101.5 385.5t277.5 279.5t385 103t385.5 -103t278.5 -279.5t102 -385.5q0 -157 -60 -299.5t-162.5 -245t-244.5 -163t-299 -60.5q-209 0 -385 102.5t-277.5 279t-101.5 386.5zM266 735q0 -151 70 -278t195.5 -202t277.5 -75q112 0 214 44t175.5 118.5 t116.5 177.5t43 215t-43 215t-116.5 177.5t-175.5 118.5t-214 44q-152 0 -277.5 -75t-195.5 -202t-70 -278zM518 338v786h377q125 0 213 -88t88 -215q0 -125 -86 -214t-213 -89h-147v-180h-232zM750 711h106q46 0 78.5 33t32.5 77t-32.5 77.5t-78.5 33.5h-106v-221z" />
<glyph unicode="&#x2120;" horiz-adv-x="1284" d="M27 1008l168 106q11 -23 36 -41t48 -18q17 0 28.5 9t11.5 21q0 15 -28 25.5t-68 21t-80 28t-68 58.5t-28 101q0 80 66.5 134t169.5 54q139 0 221 -110l-150 -94q-30 49 -71 49q-45 0 -45 -27q0 -8 28 -16.5t68 -21t80 -32.5t68 -60.5t28 -96.5q0 -96 -63 -153.5 t-168 -57.5q-164 0 -252 121zM557 901v594h186l144 -188l153 188h170v-594h-196v289l-131 -148l-129 148v-289h-197z" />
<glyph unicode="&#x2122;" horiz-adv-x="1331" d="M53 1313v182h490v-182h-146v-412h-194v412h-150zM604 901v594h187l143 -186l153 186h170v-594h-196v289l-131 -148l-129 148v-289h-197z" />
<glyph unicode="&#x2153;" horiz-adv-x="1810" d="M29 631v213h166v340q-42 -54 -129 -54h-13v220h6q77 0 110.5 44.5t33.5 100.5h223v-651h160v-213h-557zM174 0l1079 1495h320l-1079 -1495h-320zM1155 96l174 158q54 -57 125 -57q42 0 67 19t25 54q0 68 -121 68h-90v201h86q107 0 107 73q0 64 -88 64q-73 0 -107 -58 l-164 142q50 54 127 85.5t152 31.5q144 0 232.5 -69.5t88.5 -186.5q0 -102 -86 -170q107 -64 107 -187q0 -119 -88.5 -197.5t-233.5 -78.5q-205 0 -313 108z" />
<glyph unicode="&#x2154;" horiz-adv-x="1869" d="M8 1300q101 207 330 207q140 0 227.5 -73t87.5 -189q0 -47 -15 -89t-37 -71.5t-56.5 -57t-64 -45t-68.5 -36.5q-94 -51 -114 -68q-19 -17 -22 -34h371v-213h-618v170q0 61 20.5 111.5t57.5 88t73 62.5t84 49q10 6 34 19t33.5 19t27 17t25 18t17.5 17.5t13.5 20t3.5 20.5 q0 28 -22.5 47t-61.5 19q-81 0 -127 -111zM233 0l1080 1495h319l-1079 -1495h-320zM1214 96l175 158q54 -57 124 -57q42 0 67.5 19t25.5 54q0 68 -121 68h-90v201h86q106 0 106 73q0 64 -88 64q-72 0 -106 -58l-164 142q50 54 126.5 85.5t151.5 31.5q144 0 233 -69.5 t89 -186.5q0 -102 -86 -170q106 -63 106 -187q0 -119 -88 -197.5t-233 -78.5q-93 0 -176.5 27t-137.5 81z" />
<glyph unicode="&#x2155;" horiz-adv-x="1734" d="M29 631v213h166v340q-42 -54 -129 -54h-13v220h6q77 0 110.5 44.5t33.5 100.5h223v-651h160v-213h-557zM174 0l1079 1495h320l-1079 -1495h-320zM1090 147l221 117q27 -59 90 -59q38 0 62 24t24 62q0 37 -24.5 59.5t-65.5 22.5q-29 0 -53 -16t-35 -40l-209 72l65 475h496 v-211h-318l-14 -92q51 19 101 19q130 0 207 -77t77 -212t-88.5 -219t-224.5 -84q-105 0 -186.5 42.5t-124.5 116.5z" />
<glyph unicode="&#x2156;" horiz-adv-x="1796" d="M8 1300q101 207 330 207q140 0 227.5 -73t87.5 -189q0 -47 -15 -89t-37 -71.5t-56.5 -57t-64 -45t-68.5 -36.5q-94 -51 -114 -68q-19 -17 -22 -34h371v-213h-618v170q0 61 20.5 111.5t57.5 88t73 62.5t84 49q10 6 34 19t33.5 19t27 17t25 18t17.5 17.5t13.5 20t3.5 20.5 q0 28 -22.5 47t-61.5 19q-81 0 -127 -111zM233 0l1080 1495h319l-1079 -1495h-320zM1149 147l221 117q27 -59 90 -59q38 0 62 24t24 62q0 37 -24.5 59.5t-65.5 22.5q-29 0 -53 -16t-35 -40l-209 72l66 475h495v-211h-317l-14 -92q51 19 100 19q130 0 207.5 -77t77.5 -212 t-88.5 -219t-225.5 -84q-105 0 -186.5 42.5t-124.5 116.5z" />
<glyph unicode="&#x2157;" horiz-adv-x="1748" d="M10 727l174 158q55 -58 125 -58q42 0 67 19.5t25 54.5q0 68 -120 68h-91v200h86q107 0 107 74q0 64 -88 64q-73 0 -107 -58l-163 142q50 54 126 85t152 31q144 0 233 -69.5t89 -186.5q0 -102 -86 -170q106 -63 106 -186q0 -120 -88 -198.5t-233 -78.5q-93 0 -176 27 t-138 82zM188 0l1080 1495h319l-1079 -1495h-320zM1104 147l221 117q27 -59 90 -59q38 0 62 24t24 62q0 37 -24.5 59.5t-65.5 22.5q-29 0 -53 -16t-35 -40l-209 72l66 475h495v-211h-317l-15 -92q51 19 101 19q130 0 207.5 -77t77.5 -212t-88.5 -219t-225.5 -84 q-105 0 -186.5 42.5t-124.5 116.5z" />
<glyph unicode="&#x2158;" horiz-adv-x="1736" d="M29 803v203l344 489h215v-498h127v-194h-127v-172h-213v172h-346zM174 0l1079 1495h320l-1079 -1495h-320zM266 997h109v158zM1092 147l221 117q27 -59 90 -59q38 0 62 24t24 62q0 37 -24.5 59.5t-65.5 22.5q-29 0 -53 -16t-35 -40l-209 72l65 475h496v-211h-317l-15 -92 q51 19 101 19q130 0 207 -77t77 -212t-88.5 -219t-224.5 -84q-105 0 -186.5 42.5t-124.5 116.5z" />
<glyph unicode="&#x2159;" horiz-adv-x="1804" d="M29 631v213h166v340q-42 -54 -129 -54h-13v220h6q77 0 110.5 44.5t33.5 100.5h223v-651h160v-213h-557zM174 0l1079 1495h320l-1079 -1495h-320zM1106 307q0 111 84 252l192 305h265l-156 -243q126 -5 208.5 -90.5t82.5 -223.5q0 -136 -95 -227.5t-243 -91.5t-243 91.5 t-95 227.5zM1337 309q0 -45 30.5 -76.5t76.5 -31.5q47 0 79.5 31.5t32.5 78.5q0 45 -32.5 77t-79.5 32t-77 -31.5t-30 -79.5z" />
<glyph unicode="&#x215a;" horiz-adv-x="1798" d="M10 778l221 117q27 -59 91 -59q38 0 62 24t24 62q0 37 -25 59.5t-66 22.5q-29 0 -53 -16t-35 -40l-209 72l66 475h496v-211h-318l-14 -92q49 18 100 18q130 0 207.5 -76.5t77.5 -211.5t-88.5 -219.5t-224.5 -84.5q-105 0 -187 43t-125 117zM170 0l1079 1495h320 l-1080 -1495h-319zM1100 307q0 111 84 252l192 305h264l-155 -243q126 -5 208.5 -90.5t82.5 -223.5q0 -136 -95 -227.5t-243 -91.5t-243 91.5t-95 227.5zM1331 309q0 -45 30.5 -76.5t76.5 -31.5q47 0 79.5 31.5t32.5 78.5q0 45 -32.5 77t-79.5 32t-77 -31.5t-30 -79.5z" />
<glyph unicode="&#x215b;" horiz-adv-x="1753" d="M29 631v213h166v340q-42 -54 -129 -54h-13v220h6q77 0 110.5 44.5t33.5 100.5h223v-651h160v-213h-557zM174 0l1079 1495h320l-1079 -1495h-320zM1110 274q0 111 82 187q-57 63 -57 155q0 122 77 191.5t203 69.5q127 0 206 -69.5t79 -191.5q0 -87 -53 -153 q75 -75 75 -189q0 -132 -86.5 -209t-220.5 -77q-133 0 -219 77t-86 209zM1325 274q0 -39 24.5 -64.5t65.5 -25.5t66.5 25.5t25.5 64.5q0 36 -26 61t-66 25t-65 -25t-25 -61zM1341 616q0 -32 19.5 -51.5t54.5 -19.5q36 0 57 20t21 51t-20.5 51.5t-55.5 20.5t-55.5 -20.5 t-20.5 -51.5z" />
<glyph unicode="&#x215c;" horiz-adv-x="1765" d="M10 727l174 158q55 -58 125 -58q42 0 67 19.5t25 54.5q0 68 -120 68h-91v200h86q107 0 107 74q0 64 -88 64q-73 0 -107 -58l-163 142q50 54 126 85t152 31q144 0 233 -69.5t89 -186.5q0 -102 -86 -170q106 -63 106 -186q0 -120 -88 -198.5t-233 -78.5q-93 0 -176 27 t-138 82zM188 0l1080 1495h319l-1079 -1495h-320zM1124 274q0 111 82 187q-57 63 -57 155q0 122 77.5 191.5t203.5 69.5q127 0 205.5 -69.5t78.5 -191.5q0 -87 -53 -153q76 -76 76 -189q0 -132 -86.5 -209t-220.5 -77q-133 0 -219.5 77t-86.5 209zM1339 274q0 -39 25 -64.5 t66 -25.5t66.5 25.5t25.5 64.5q0 36 -26 61t-66 25t-65.5 -25t-25.5 -61zM1356 616q0 -32 20 -51.5t54 -19.5q36 0 56.5 19.5t20.5 51.5q0 31 -20 51.5t-55 20.5t-55.5 -20.5t-20.5 -51.5z" />
<glyph unicode="&#x215d;" horiz-adv-x="1746" d="M10 778l221 117q27 -59 91 -59q38 0 62 24t24 62q0 37 -25 59.5t-66 22.5q-29 0 -53 -16t-35 -40l-209 72l66 475h496v-211h-318l-14 -92q49 18 100 18q130 0 207.5 -76.5t77.5 -211.5t-88.5 -219.5t-224.5 -84.5q-105 0 -187 43t-125 117zM170 0l1079 1495h320 l-1080 -1495h-319zM1104 274q0 111 82 187q-58 64 -58 155q0 122 77.5 191.5t203.5 69.5q127 0 206 -69.5t79 -191.5q0 -86 -54 -153q76 -76 76 -189q0 -132 -86.5 -209t-220.5 -77q-133 0 -219 77t-86 209zM1319 274q0 -39 24.5 -64.5t65.5 -25.5t66.5 25.5t25.5 64.5 q0 36 -26 61t-66 25t-65 -25t-25 -61zM1335 616q0 -32 19.5 -51.5t54.5 -19.5q36 0 57 20t21 51t-20.5 51.5t-55.5 20.5t-55.5 -20.5t-20.5 -51.5z" />
<glyph unicode="&#x215e;" horiz-adv-x="1693" d="M29 1282v213h571v-201l-295 -663h-248l303 651h-331zM117 0l1079 1495h320l-1080 -1495h-319zM1051 274q0 111 82 187q-58 64 -58 155q0 122 77.5 191.5t203.5 69.5q127 0 205.5 -69.5t78.5 -191.5q0 -87 -53 -153q76 -76 76 -189q0 -132 -86.5 -209t-220.5 -77 q-133 0 -219 77t-86 209zM1266 274q0 -39 24.5 -64.5t65.5 -25.5t66.5 25.5t25.5 64.5q0 36 -26 61t-66 25t-65 -25t-25 -61zM1282 616q0 -32 20 -51.5t54 -19.5q36 0 57 20t21 51t-20.5 51.5t-55.5 20.5t-55.5 -20.5t-20.5 -51.5z" />
<glyph unicode="&#x215f;" horiz-adv-x="1595" d="M29 631v213h166v340q-42 -54 -129 -54h-13v220h6q77 0 110.5 44.5t33.5 100.5h223v-651h160v-213h-557zM174 0l1079 1495h320l-1079 -1495h-320z" />
<glyph unicode="&#x2190;" horiz-adv-x="1835" d="M150 684v117q144 97 275 268.5t165 292.5l250 -133q-72 -190 -262 -348h1071v-267h-1069q158 -104 278 -323l-225 -156q-75 161 -203 306.5t-280 242.5z" />
<glyph unicode="&#x2191;" horiz-adv-x="1835" d="M287 1057q119 34 290.5 165t268.5 275h108q97 -145 267 -275.5t290 -164.5l-131 -248q-186 67 -346 256v-1065h-268v1069q-159 -192 -348 -260z" />
<glyph unicode="&#x2192;" horiz-adv-x="1835" d="M150 614v267h1071q-191 159 -263 348l250 133q34 -120 165.5 -292t275.5 -269v-117q-152 -97 -280.5 -242.5t-203.5 -306.5l-225 156q51 98 124 183.5t153 139.5h-1067z" />
<glyph unicode="&#x2193;" horiz-adv-x="1835" d="M287 438l131 250q192 -75 346 -260v1067h268v-1069q158 190 348 262l131 -250q-119 -34 -290.5 -165t-268.5 -275h-108q-97 145 -267 275.5t-290 164.5z" />
<glyph unicode="&#x2196;" horiz-adv-x="1835" d="M264 532q61 112 88 315.5t-2 393.5l76 76q186 -33 389.5 -6.5t317.5 88.5l79 -269q-188 -85 -426 -61l754 -758l-188 -188l-758 758q28 -241 -62 -430z" />
<glyph unicode="&#x2197;" horiz-adv-x="1835" d="M264 311l758 758q-242 -24 -430 61l82 269q109 -60 316 -87t392 3l76 -76q-33 -186 -6.5 -392.5t88.5 -314.5l-268 -81q-86 190 -62 428l-757 -756z" />
<glyph unicode="&#x2198;" horiz-adv-x="1835" d="M326 1266l188 188l758 -758q-24 242 61 430l269 -82q-60 -111 -87.5 -316t1.5 -392l-74 -76q-189 33 -391.5 6t-315.5 -88l-82 268q189 86 426 62z" />
<glyph unicode="&#x2199;" horiz-adv-x="1835" d="M266 987l269 80q85 -189 61 -428l758 756l188 -189l-758 -755q236 24 430 -64l-79 -268q-113 62 -317.5 89.5t-391.5 -3.5l-76 76q33 184 5 390t-89 316z" />
<glyph unicode="&#x2202;" horiz-adv-x="1153" d="M45 510q0 220 143 364t355 144q107 0 180 -43q-86 116 -229 240.5t-367 279.5h410q158 -123 271 -249.5t176 -249t91.5 -237t28.5 -235.5q0 -229 -154 -386.5t-379 -157.5q-141 0 -261 68t-192.5 190.5t-72.5 271.5zM313 510q0 -115 77 -192.5t183 -77.5t185.5 80 t79.5 190q0 113 -76.5 192.5t-186.5 79.5q-107 0 -184.5 -78t-77.5 -194z" />
<glyph unicode="&#x2206;" horiz-adv-x="1837" d="M41 0l879 1520l876 -1520h-1755zM504 266h831l-415 721z" />
<glyph unicode="&#x220f;" horiz-adv-x="1595" d="M74 1229v266h1446v-266h-248v-1229h-279v1229h-391v-1229h-278v1229h-250z" />
<glyph unicode="&#x2211;" horiz-adv-x="1153" d="M72 0v299l450 467l-436 463v266h995v-266h-639l437 -463l-480 -500h682v-266h-1009z" />
<glyph unicode="&#x2212;" horiz-adv-x="905" d="M74 629v235h757v-235h-757z" />
<glyph unicode="&#x221a;" horiz-adv-x="1615" d="M92 780v244h371l258 -692l528 1163h297l-702 -1495h-273l-299 780h-180z" />
<glyph unicode="&#x221e;" horiz-adv-x="1828" d="M145 786q0 152 106.5 259.5t258.5 107.5q111 0 206.5 -55t198.5 -152q102 97 198 152t204 55q152 0 259 -107.5t107 -259.5t-107 -258t-259 -106q-108 0 -203 54t-199 151q-102 -96 -198 -150.5t-207 -54.5q-152 0 -258.5 106t-106.5 258zM377 786q0 -54 39.5 -93.5 t93.5 -39.5q102 0 242 133q-141 134 -242 134q-54 0 -93.5 -40t-39.5 -94zM1079 786q70 -65 126.5 -99t111.5 -34q54 0 93.5 39.5t39.5 93.5t-39.5 94t-93.5 40q-55 0 -111 -34.5t-127 -99.5z" />
<glyph unicode="&#x222b;" horiz-adv-x="745" d="M31 -184q46 0 75 2.5t52.5 10.5t35 19.5t19.5 34t10 48.5t2 69v1053q0 250 97.5 346t351.5 96h22v-256q-69 0 -104.5 -5.5t-57.5 -28t-27 -55.5t-5 -99v-1049q0 -249 -98 -345.5t-351 -96.5h-22v256z" />
<glyph unicode="&#x2248;" horiz-adv-x="903" d="M74 444v236q54 29 94.5 42t97.5 13q62 0 193 -38t180 -38q38 0 71 6.5t55 14.5t66 27v-236q-45 -26 -86 -36.5t-106 -10.5q-59 0 -190.5 38t-182.5 38q-39 0 -75 -9t-54.5 -17.5t-62.5 -29.5zM74 786v236q101 53 198 53q64 0 187 -39t176 -39q38 0 73.5 8t54 15.5 t68.5 28.5v-236q-46 -27 -89 -39t-107 -12q-58 0 -185.5 39t-177.5 39q-56 0 -99 -13t-99 -41z" />
<glyph unicode="&#x2260;" horiz-adv-x="905" d="M74 455v235h252l45 107h-297v235h399l64 144h206l-65 -144h153v-235h-258l-49 -107h307v-235h-411l-64 -142h-194l61 142h-149z" />
<glyph unicode="&#x2261;" horiz-adv-x="905" d="M74 285v233h757v-233h-757zM74 625v235h757v-235h-757zM74 967v235h757v-235h-757z" />
<glyph unicode="&#x2264;" horiz-adv-x="905" d="M72 233v236h757v-236h-757zM72 809v233l757 275v-244l-456 -147l456 -150v-241z" />
<glyph unicode="&#x2265;" horiz-adv-x="905" d="M72 233v236h757v-236h-757zM72 535v241l456 150l-456 147v244l757 -275v-233z" />
<glyph unicode="&#x22a0;" horiz-adv-x="1896" d="M205 0v1495h1487v-1495h-1487zM483 266h930v963h-930v-963zM530 1016l164 160l250 -258l254 260l164 -160l-258 -266l256 -263l-164 -159l-252 258l-248 -256l-164 160l252 260z" />
<glyph unicode="&#x2302;" horiz-adv-x="1789" d="M205 0v874l690 662l690 -662v-874h-1380z" />
<glyph unicode="&#x25a0;" horiz-adv-x="1896" d="M205 0v1495h1487v-1495h-1487z" />
<glyph unicode="&#x25a1;" horiz-adv-x="1896" d="M205 0v1495h1487v-1495h-1487zM483 266h930v963h-930v-963z" />
<glyph unicode="&#x25aa;" horiz-adv-x="1433" d="M205 0v1024h1024v-1024h-1024z" />
<glyph unicode="&#x25ab;" horiz-adv-x="1433" d="M205 0v1024h1024v-1024h-1024zM479 272h475v480h-475v-480z" />
<glyph unicode="&#x25b2;" horiz-adv-x="1837" d="M41 0l879 1520l876 -1520h-1755z" />
<glyph unicode="&#x25ba;" horiz-adv-x="1837" d="M205 -117v1755l1519 -876z" />
<glyph unicode="&#x25bc;" horiz-adv-x="1837" d="M41 1495h1755l-876 -1520z" />
<glyph unicode="&#x25c4;" horiz-adv-x="1837" d="M113 762l1519 876v-1755z" />
<glyph unicode="&#x25ca;" horiz-adv-x="1726" d="M68 750l778 778l782 -783l-778 -778zM426 752l426 -426l416 415l-426 426z" />
<glyph unicode="&#x25cb;" horiz-adv-x="1898" d="M184 748q0 209 101.5 385.5t277.5 279.5t385 103t385.5 -103t278.5 -279.5t102 -385.5q0 -157 -60 -299.5t-162.5 -245t-244.5 -163t-299 -60.5q-209 0 -385 102.5t-277.5 279t-101.5 386.5zM461 748q0 -134 64.5 -247.5t176.5 -180t246 -66.5t247 66.5t178 180t65 247.5 t-65.5 247.5t-178 179.5t-246.5 66t-246 -66t-176.5 -179.5t-64.5 -247.5z" />
<glyph unicode="&#x25ce;" horiz-adv-x="1898" d="M0 0v41h1898v-41h-1898z" />
<glyph unicode="&#x25cf;" horiz-adv-x="1898" d="M184 748q0 209 101.5 385.5t277.5 279.5t385 103t385.5 -103t278.5 -279.5t102 -385.5q0 -157 -60 -299.5t-162.5 -245t-244.5 -163t-299 -60.5q-209 0 -385 102.5t-277.5 279t-101.5 386.5z" />
<glyph unicode="&#x25e2;" horiz-adv-x="1837" d="M92 1546l1696 -454l-1241 -1242z" />
<glyph unicode="&#x25e3;" horiz-adv-x="1837" d="M53 1092l1696 454l-455 -1696z" />
<glyph unicode="&#x25e4;" horiz-adv-x="1837" d="M59 344l1241 1241l455 -1696z" />
<glyph unicode="&#x25e5;" horiz-adv-x="1837" d="M90 -119l457 1696l1239 -1243z" />
<glyph unicode="&#x25fc;" horiz-adv-x="1198" d="M0 0v1198h1198v-1198h-1198z" />
<glyph unicode="&#x2605;" horiz-adv-x="1843" d="M301 899l469 -2l148 446l145 -446l471 -2l-383 -274l147 -447l-383 277l-380 -277l147 449z" />
<glyph unicode="&#x2612;" horiz-adv-x="1433" d="M205 0v1024h1024v-1024h-1024zM446 240h541v544h-541v-544zM471 623l133 133l113 -113l114 117l134 -133l-115 -117l113 -113l-134 -133l-112 111l-111 -113l-133 133l111 113z" />
<glyph unicode="&#x263c;" horiz-adv-x="1900" d="M221 694v111l291 -35v-41zM287 434l272 115l21 -33l-232 -176zM287 1063l57 96l236 -178l-21 -31zM535 150l178 235l30 -20l-112 -273zM535 1350l96 57l112 -272l-30 -21zM588 748q0 146 105 251t251 105t251 -105t105 -251t-105 -251.5t-251 -105.5t-251 105.5 t-105 251.5zM889 27l35 290h41l34 -290h-110zM889 1473h110l-34 -291h-41zM1145 365l31 20l178 -235l-97 -58zM1145 1135l112 272l97 -57l-178 -236zM1309 518l20 31l273 -113l-58 -96zM1309 983l231 176l62 -94l-273 -115zM1376 729v41l291 35v-111z" />
<glyph unicode="&#x263e;" horiz-adv-x="1611" d="M268 748q0 123 48 235t129.5 193.5t193.5 129.5t235 48q201 0 365 -117q-84 25 -145 25q-202 0 -346 -151t-144 -363t144 -363.5t346 -151.5q61 0 145 25q-164 -117 -365 -117q-123 0 -235 48t-193.5 129.5t-129.5 194t-48 235.5z" />
<glyph unicode="&#x2660;" horiz-adv-x="1884" d="M180 639q0 88 26.5 164t89.5 156t146.5 156.5t219.5 184.5l286 230h2l287 -230q177 -140 273.5 -240t145 -201.5t48.5 -219.5q0 -131 -96 -226.5t-226 -95.5q-138 0 -234 79.5t-136 197.5q0 -59 12.5 -125t27 -114t43.5 -114t43 -94t46 -86.5t33 -60.5h-531 q88 166 125 263q68 181 68 331q-19 -55 -49.5 -103.5t-73 -88.5t-101 -63.5t-125.5 -23.5q-143 0 -246.5 96t-103.5 228z" />
<glyph unicode="&#x2663;" horiz-adv-x="1884" d="M170 629q0 151 105.5 256.5t256.5 105.5q39 0 86 -14q-38 77 -38 178q0 148 104.5 254.5t253.5 106.5q148 0 254 -106.5t106 -254.5q0 -97 -38 -180q50 16 94 16q152 0 256 -105.5t104 -256.5t-105.5 -257t-256.5 -106q-115 0 -203 66t-131 174q8 -61 25 -123t45 -125.5 t45 -98t51 -96t35 -63.5h-531q1 3 23.5 45t31.5 60.5t30.5 63.5t33.5 78.5t27.5 79t25 91t14.5 90.5q-44 -109 -135 -175.5t-207 -66.5q-151 0 -256.5 106t-105.5 257z" />
<glyph unicode="&#x2665;" horiz-adv-x="1884" d="M182 1126q0 161 109 275.5t266 114.5q154 0 257.5 -93.5t121.5 -236.5q21 144 122.5 237t256.5 93q158 0 272.5 -115t114.5 -275q0 -174 -108.5 -362.5t-366.5 -476.5l-291 -322l-289 322q-255 285 -360 473.5t-105 365.5z" />
<glyph unicode="&#x2666;" horiz-adv-x="1884" d="M272 799l670 821l670 -821l-670 -819z" />
<glyph unicode="&#x267b;" horiz-adv-x="1886" d="M153 640q-5 26 2 52t25 56l56 94l-82 47l335 59l113 -319l-78 47q-38 -60 -67 -117q-70 -118 -72 -125q-37 -59 -25 -139q2 -26 17 -68h-4l-185 324q-16 31 -23 47t-12 42zM403 1143l129 229q24 38 66 60q60 30 124.5 27.5t119 -30t73.5 -65.5l-223 -387zM412.5 334 q2.5 42 19.5 69h447v-331h-261q-45 0 -86 24q-42 24 -71 65.5t-40 86t-8.5 86.5zM797 1491v2h372q30 -1 42.5 -1.5t36 -5.5t37 -14t30.5 -26t31 -43l53 -94l84 47l-119 -322l-332 62l78 45l-137 241q-41 64 -111 93q-40 14 -65 16zM1001 238l218 260v-95h278q71 0 135 52 q28 21 49 49l2 -4l-186 -322q-20 -30 -30 -43t-30 -31t-46 -25t-62 -7h-110v-97zM1284 842l287 164l133 -226q18 -27 18 -84q0 -92 -74.5 -166.5t-140.5 -74.5z" />
<glyph unicode="&#x267c;" horiz-adv-x="1886" d="M174 750q0 157 61 300t164 246.5t246 164.5t301 61q209 0 385.5 -103.5t279.5 -281t103 -387.5q0 -209 -103 -386t-279.5 -279.5t-385.5 -102.5q-158 0 -301 60.5t-246 163t-164 245t-61 299.5zM327 696.5q-2 -29.5 4 -44t23 -48.5l144 -250h2q-10 27 -13 52 q-11 59 19 110l108 186l62 -36l-88 247l-260 -45l63 -37l-43 -73q-19 -32 -21 -61.5zM520.5 438q-1.5 -33 7.5 -67t31.5 -66.5t54.5 -52.5q31 -19 66 -19h203v259h-348q-13 -21 -14.5 -54zM522 1065l223 -129l173 299q-26 47 -103 67t-143 -14q-39 -24 -49 -47zM817 1333 q16 -2 53 -14q53 -17 84 -70l109 -186l-62 -37l259 -47l90 250l-64 -37l-43 74q-27 45 -56.5 57t-80.5 12h-289v-2zM983 362l170 -202v73h84q38 0 64 12t38.5 26.5t28.5 43.5l145 250l-2 2q-63 -75 -143 -75h-215v71zM1202 829l174 -301q54 0 111 59t57 132q0 37 -16 65 l-101 174z" />
<glyph unicode="&#x267d;" horiz-adv-x="1886" d="M174 750q0 157 61 300t164 246.5t246 164.5t301 61q209 0 385.5 -103.5t279.5 -281t103 -387.5q0 -209 -103 -386t-279.5 -279.5t-385.5 -102.5q-158 0 -301 60.5t-246 163t-164 245t-61 299.5zM211 750q0 -198 98 -366.5t267.5 -267t369.5 -98.5q148 0 283.5 58 t233 156.5t155 234t57.5 283.5q0 200 -97.5 368.5t-265.5 266.5t-366 98q-201 0 -370 -98t-267 -266.5t-98 -368.5zM327 696.5q2 29.5 21 61.5l43 73l-63 37l260 45l88 -247l-62 36l-108 -186q-30 -51 -19 -110q3 -25 13 -52h-2l-144 250q-17 34 -23 48.5t-4 44zM520.5 438 q1.5 33 14.5 54h348v-259h-203q-35 0 -66 19q-32 20 -54.5 52.5t-31.5 66.5t-7.5 67zM522 1065l101 176q10 23 49 47q66 34 143 14t103 -67l-173 -299zM817 1333v2h289q51 0 80.5 -12t56.5 -57l43 -74l64 37l-90 -250l-259 47l62 37l-109 186q-29 50 -84 70q-36 12 -53 14z M983 362l170 201v-71h215q50 0 107 38q20 14 36 37l2 -2l-145 -250q-16 -29 -28.5 -43.5t-38.5 -26.5t-64 -12h-84v-73zM1202 829l225 129l101 -174q16 -28 16 -65q0 -73 -57 -132t-111 -59z" />
<glyph unicode="&#x26aa;" horiz-adv-x="1429" d="M184 512q0 145 70.5 267.5t193 193.5t267.5 71t267 -71t192.5 -193.5t70.5 -267.5t-70.5 -267.5t-192.5 -193.5t-267 -71t-267.5 71t-193 193.5t-70.5 267.5zM453 512q0 -113 76 -192.5t186 -79.5t187 79.5t77 192.5t-77 192.5t-187 79.5t-186 -79.5t-76 -192.5z" />
<glyph unicode="&#x26ab;" horiz-adv-x="1429" d="M184 512q0 145 70.5 267.5t193 193.5t267.5 71t267 -71t192.5 -193.5t70.5 -267.5t-70.5 -267.5t-192.5 -193.5t-267 -71t-267.5 71t-193 193.5t-70.5 267.5z" />
<glyph unicode="&#x3008;" horiz-adv-x="802" d="M23 512l464 983h295l-467 -983l467 -983h-295z" />
<glyph unicode="&#x3009;" horiz-adv-x="802" d="M23 -471l466 983l-466 983h294l465 -983l-465 -983h-294z" />
<glyph unicode="&#xe141;" horiz-adv-x="1193" d="M82 0v1495h479q265 0 414 -143t149 -381q0 -139 -63.5 -254.5t-183.5 -179.5l294 -537h-323l-232 451h-249v-451h-285zM367 713h170q83 0 143.5 21t94.5 59.5t49.5 85t15.5 104.5q0 117 -74 181.5t-229 64.5h-170v-516z" />
<glyph unicode="&#xe142;" horiz-adv-x="1193" d="M82 0v1495h479q265 0 414 -143t149 -381q0 -139 -63.5 -254.5t-183.5 -179.5l294 -537h-323l-232 451h-249v-451h-285zM367 713h170q83 0 143.5 21t94.5 59.5t49.5 85t15.5 104.5q0 117 -74 181.5t-229 64.5h-170v-516zM401 1597l236 349h258l-307 -349h-187z" />
<glyph unicode="&#xe143;" horiz-adv-x="1193" d="M82 0v1495h479q265 0 414 -143t149 -381q0 -139 -63.5 -254.5t-183.5 -179.5l294 -537h-323l-232 451h-249v-451h-285zM268 1946h209l121 -183l121 183h209l-244 -349h-172zM367 713h170q83 0 143.5 21t94.5 59.5t49.5 85t15.5 104.5q0 117 -74 181.5t-229 64.5h-170 v-516z" />
<glyph unicode="&#xe146;" horiz-adv-x="1193" d="M82 0v1495h479q265 0 414 -143t149 -381q0 -139 -63.5 -254.5t-183.5 -179.5l294 -537h-323l-232 451h-249v-451h-285zM367 713h170q83 0 143.5 21t94.5 59.5t49.5 85t15.5 104.5q0 117 -74 181.5t-229 64.5h-170v-516zM424 -575l70 417h243l-143 -417h-170z" />
<glyph unicode="&#xe181;" horiz-adv-x="663" d="M41 1198q0 130 89.5 219.5t217.5 89.5q97 0 171.5 -51t111.5 -133l-176 -80q-12 35 -40.5 54.5t-64.5 19.5q-47 0 -80.5 -35t-33.5 -84q0 -48 33.5 -82.5t80.5 -34.5q36 0 64.5 19.5t40.5 52.5l178 -76q-36 -85 -110.5 -135.5t-174.5 -50.5q-128 0 -217.5 89.5 t-89.5 217.5z" />
<glyph unicode="&#xe200;" horiz-adv-x="995" d="M76 0v1221h413q206 0 334.5 -128.5t128.5 -314.5q0 -190 -128.5 -320t-336.5 -130h-137v-328h-274zM350 582h129q87 0 142 54t55 140t-55 139.5t-142 53.5h-129v-387z" />
<glyph unicode="&#xe201;" horiz-adv-x="1189" d="M41 0l420 1221h268l422 -1221h-279l-63 190h-428l-64 -190h-276zM465 442h260l-129 387z" />
<glyph unicode="&#xe202;" horiz-adv-x="1001" d="M76 0v1221h405q441 0 441 -344q0 -160 -123 -238q159 -78 159 -270q1 -185 -119 -277t-339 -92h-424zM350 246h154q176 0 176 129q0 64 -39.5 93.5t-140.5 29.5h-150v-252zM350 750h142q157 0 157 118q0 56 -36.5 82.5t-120.5 26.5h-142v-227z" />
<glyph unicode="&#xe203;" horiz-adv-x="1275" d="M57 610q0 175 81 318.5t226.5 226t325.5 82.5q174 0 316 -82t223 -221l-236 -148q-44 84 -124 133.5t-181 49.5q-154 0 -253 -104t-99 -255q0 -150 98 -253t248 -103q109 0 187.5 54.5t121.5 150.5l254 -129q-81 -160 -223.5 -253t-333.5 -93q-182 0 -327.5 84 t-224.5 226.5t-79 315.5z" />
<glyph unicode="&#xe204;" horiz-adv-x="1126" d="M76 0v1221h356q142 0 262 -47t202 -129t127.5 -194.5t45.5 -240.5q0 -263 -178.5 -436.5t-452.5 -173.5h-362zM348 254h76q165 0 268 101.5t103 254.5q0 158 -99.5 257.5t-279.5 99.5h-68v-713z" />
<glyph unicode="&#xe205;" horiz-adv-x="866" d="M76 0v1221h723v-256h-451v-224h451v-258h-451v-227h451v-256h-723z" />
<glyph unicode="&#xe206;" horiz-adv-x="835" d="M76 0v1221h696v-256h-424v-224h424v-258h-424v-483h-272z" />
<glyph unicode="&#xe207;" d="M43 610q0 175 80 318t224.5 226t324.5 83q188 0 330 -82t223 -223l-240 -137q-99 180 -311 180q-150 0 -253.5 -105t-103.5 -260q0 -160 101.5 -263t259.5 -103q114 0 192 55.5t109 155.5h-354v258h651v-125q0 -164 -72.5 -301t-209.5 -220t-312 -83q-190 0 -337.5 86.5 t-224.5 228t-77 311.5z" />
<glyph unicode="&#xe208;" horiz-adv-x="1081" d="M76 0v1221h274v-471h381v471h275v-1221h-275v479h-381v-479h-274z" />
<glyph unicode="&#xe209;" horiz-adv-x="448" d="M86 0v1221h276v-1221h-276z" />
<glyph unicode="&#xe20a;" horiz-adv-x="886" d="M37 250l262 104q29 -118 129 -118q52 0 80.5 35.5t28.5 93.5v856h276v-838q0 -193 -95.5 -296t-287.5 -103q-151 0 -254 71.5t-139 194.5z" />
<glyph unicode="&#xe20b;" horiz-adv-x="1073" d="M76 0v1221h274v-461l352 461h326l-371 -482l398 -739h-307l-289 539l-109 -144v-395h-274z" />
<glyph unicode="&#xe20c;" horiz-adv-x="819" d="M76 0v1221h274v-959h412v-262h-686z" />
<glyph unicode="&#xe20d;" horiz-adv-x="1347" d="M76 0v1221h274l326 -453l338 453h260v-1221h-275v778l-325 -438l-326 440v-780h-272z" />
<glyph unicode="&#xe20e;" horiz-adv-x="1185" d="M76 0v1221h297l465 -736v736h272v-1221h-274l-488 766v-766h-272z" />
<glyph unicode="&#xe20f;" horiz-adv-x="1337" d="M43 610q0 170 83 314.5t227 228.5t315 84q127 0 243 -49.5t200 -133.5t133.5 -200.5t49.5 -243.5q0 -171 -83.5 -315t-227.5 -227.5t-315 -83.5t-315 83.5t-227 227.5t-83 315zM322 610q0 -149 99.5 -252.5t246.5 -103.5q149 0 248.5 103.5t99.5 252.5t-100 253t-248 104 q-147 0 -246.5 -104t-99.5 -253z" />
<glyph unicode="&#xe211;" horiz-adv-x="1363" d="M57 610q0 128 48.5 243.5t131.5 200t198.5 134t244.5 49.5q171 0 315.5 -84t228 -228.5t83.5 -314.5q0 -226 -140 -399l164 -211h-299l-459 602h293l123 -160q41 80 41 168q0 149 -100.5 253t-249.5 104q-147 0 -246.5 -104t-99.5 -253t99.5 -252.5t246.5 -103.5 q55 0 86 8l170 -223q-110 -55 -256 -55q-172 0 -315.5 83.5t-225.5 227t-82 315.5z" />
<glyph unicode="&#xe212;" horiz-adv-x="1001" d="M76 0v1221h424q211 0 334.5 -119.5t123.5 -296.5q0 -120 -59.5 -215.5t-173.5 -143.5l266 -446h-311l-332 592v-592h-272zM348 625h131q96 0 146.5 51.5t50.5 124.5q0 168 -197 168h-131v-344z" />
<glyph unicode="&#xe213;" horiz-adv-x="999" d="M16 205l240 188q44 -72 108 -112.5t136 -40.5q71 0 114 38t43 91q0 23 -11.5 41.5t-27 31t-45.5 25t-53 20t-64 19.5q-23 7 -34 10q-61 18 -100 32.5t-91 44t-82.5 63.5t-52.5 89.5t-22 124.5q0 160 117 264.5t301 104.5q148 0 250 -50.5t180 -139.5l-222 -170 q-74 120 -206 120q-65 0 -103.5 -32t-38.5 -80q0 -36 33 -64t65 -40t109 -36q16 -5 25 -8q49 -15 84.5 -28t80.5 -34.5t76.5 -48.5t59.5 -62.5t42.5 -84t14.5 -106.5q0 -77 -30 -147t-85 -124.5t-140 -87t-187 -32.5q-163 0 -276 58.5t-208 162.5z" />
<glyph unicode="&#xe214;" horiz-adv-x="1011" d="M63 965v256h885v-256h-307v-965h-266v965h-312z" />
<glyph unicode="&#xe215;" horiz-adv-x="1062" d="M76 440v781h274v-789q0 -91 49 -145t131 -54t133.5 54.5t51.5 144.5v789h274v-781q0 -218 -123 -337t-334 -119q-209 0 -332.5 120t-123.5 336z" />
<glyph unicode="&#xe216;" horiz-adv-x="1148" d="M39 1221h285l254 -793l247 793h285l-391 -1221h-285z" />
<glyph unicode="&#xe217;" horiz-adv-x="1740" d="M39 1221h278l201 -775l221 775h273l221 -777l201 777h274l-340 -1221h-270l-224 784l-221 -784h-276z" />
<glyph unicode="&#xe218;" horiz-adv-x="1101" d="M29 0l370 623l-356 598h301l211 -361l209 361h301l-358 -600l368 -621h-299l-223 381l-223 -381h-301z" />
<glyph unicode="&#xe219;" horiz-adv-x="1099" d="M33 1221h297l223 -383l225 383h297l-385 -652v-569h-276v573z" />
<glyph unicode="&#xe21a;" horiz-adv-x="933" d="M63 0v252l488 715h-477v254h796v-246l-493 -721h493v-254h-807z" />
<glyph unicode="&#xe220;" horiz-adv-x="1189" d="M41 0l420 1221h268l422 -1221h-279l-276 829l-279 -829h-276z" />
<glyph unicode="&#xe221;" horiz-adv-x="1189" d="M41 0l420 1221h268l422 -1221h-279l-63 190h-428l-64 -190h-276zM465 442h260l-129 387zM502 1323l235 348h258l-307 -348h-186z" />
<glyph unicode="&#xe222;" horiz-adv-x="1189" d="M41 0l420 1221h268l422 -1221h-279l-63 190h-428l-64 -190h-276zM201 1671h260l233 -348h-186zM465 442h260l-129 387z" />
<glyph unicode="&#xe223;" horiz-adv-x="1189" d="M41 0l420 1221h268l422 -1221h-279l-63 190h-428l-64 -190h-276zM264 1323l244 348h172l244 -348h-209l-121 182l-121 -182h-209zM465 442h260l-129 387z" />
<glyph unicode="&#xe224;" horiz-adv-x="1189" d="M41 0l420 1221h268l422 -1221h-279l-63 190h-428l-64 -190h-276zM252 1464q0 66 40 107t107 41q68 0 108 -40.5t40 -107.5q0 -66 -39.5 -105.5t-108.5 -39.5t-108 39.5t-39 105.5zM465 442h260l-129 387zM643 1464q0 66 40.5 107t107.5 41t107 -41t40 -107t-40 -105.5 t-107 -39.5q-71 0 -109.5 39t-38.5 106z" />
<glyph unicode="&#xe225;" horiz-adv-x="1189" d="M41 0l420 1221h268l422 -1221h-279l-63 190h-428l-64 -190h-276zM244 1323q0 126 57 201t156 75q73 0 157 -49q27 -19 39 -26.5t32 -16t36 -8.5q57 0 57 92h160q0 -131 -54.5 -203.5t-160.5 -72.5q-17 0 -32 2t-30.5 6.5t-26 7.5t-25.5 11t-21.5 11.5t-22.5 13t-20 11.5 q-60 35 -88 35q-54 0 -54 -90h-159zM465 442h260l-129 387z" />
<glyph unicode="&#xe226;" horiz-adv-x="1189" d="M41 0l399 1165q-86 71 -86 185q0 102 69.5 171.5t168.5 69.5q100 0 169.5 -69.5t69.5 -171.5q0 -107 -83 -183l403 -1167h-279l-63 190h-428l-64 -190h-276zM465 442h260l-129 387zM510 1350q0 -33 23.5 -56.5t58.5 -23.5t59.5 23.5t24.5 56.5q0 35 -24.5 59.5 t-59.5 24.5t-58.5 -24.5t-23.5 -59.5z" />
<glyph unicode="&#xe228;" horiz-adv-x="1189" d="M41 0l420 1221h268l422 -1221h-279l-63 190h-428l-64 -190h-276zM326 1323v176h540v-176h-540zM465 442h260l-129 387z" />
<glyph unicode="&#xe229;" horiz-adv-x="1189" d="M41 0l420 1221h268l422 -1221h-279l-63 190h-428l-64 -190h-276zM260 1655h174q0 -188 156 -197q155 9 155 197h177q0 -153 -90 -250.5t-242 -97.5q-162 0 -246 95.5t-84 252.5zM465 442h260l-129 387z" />
<glyph unicode="&#xe22d;" horiz-adv-x="1189" d="M41 0l399 1165q-86 71 -86 185q0 102 69.5 171.5t168.5 69.5q100 0 169.5 -69.5t69.5 -171.5q0 -107 -83 -183l403 -1167h-279l-63 190h-428l-64 -190h-276zM465 442h260l-129 387zM498 1673l235 348h258l-307 -348h-186zM510 1350q0 -33 23.5 -56.5t58.5 -23.5 t59.5 23.5t24.5 56.5q0 35 -24.5 59.5t-59.5 24.5t-58.5 -24.5t-23.5 -59.5z" />
<glyph unicode="&#xe22f;" horiz-adv-x="1189" d="M41 0l420 1221h268l422 -1221q-174 -115 -220 -154t-46 -77q0 -33 24.5 -48.5t63.5 -15.5q10 0 20 1.5t17 3t16.5 6t14 7t14.5 9.5t13 9.5t14.5 11.5t13.5 11l161 -110q-56 -51 -134.5 -85t-149.5 -34q-131 0 -213 64t-82 159q0 71 42 133.5t146 126.5l-57 172h-428 l-64 -190h-276zM465 442h260l-129 387z" />
<glyph unicode="&#xe230;" horiz-adv-x="862" d="M76 0v1221h723v-256h-451v-224h451v-258h-451v-227h451v-256h-723zM98 1464q0 66 40.5 107t107.5 41q68 0 107.5 -40.5t39.5 -107.5q0 -66 -39.5 -105.5t-107.5 -39.5q-69 0 -108.5 39.5t-39.5 105.5zM489 1464q0 66 40.5 107t107.5 41t107 -41t40 -107t-40 -105.5 t-107 -39.5q-71 0 -109.5 39t-38.5 106z" />
<glyph unicode="&#xe231;" horiz-adv-x="1611" d="M27 0l555 1221h964v-256h-618l41 -224h577v-258h-532l41 -227h491v-256h-723l-32 180h-388l-79 -180h-297zM514 428h234l-68 375z" />
<glyph unicode="&#xe232;" horiz-adv-x="1611" d="M27 0l555 1221h964v-256h-618l41 -224h577v-258h-532l41 -227h491v-256h-723l-32 180h-388l-79 -180h-297zM514 428h234l-68 375zM860 1323l236 348h258l-307 -348h-187z" />
<glyph unicode="&#xe234;" horiz-adv-x="1275" d="M57 610q0 175 81 318.5t226.5 226t325.5 82.5q174 0 316 -82t223 -221l-236 -148q-44 84 -124 133.5t-181 49.5q-154 0 -253 -104t-99 -255q0 -150 98 -253t248 -103q109 0 187.5 54.5t121.5 150.5l254 -129q-81 -160 -223.5 -253t-333.5 -93q-182 0 -327.5 84 t-224.5 226.5t-79 315.5zM590 1323l235 348h258l-307 -348h-186z" />
<glyph unicode="&#xe235;" horiz-adv-x="1275" d="M57 610q0 175 81 318.5t226.5 226t325.5 82.5q174 0 316 -82t223 -221l-236 -148q-44 84 -124 133.5t-181 49.5q-154 0 -253 -104t-99 -255q0 -150 98 -253t248 -103q109 0 187.5 54.5t121.5 150.5l254 -129q-81 -160 -223.5 -253t-333.5 -93q-182 0 -327.5 84 t-224.5 226.5t-79 315.5zM362 1323l244 348h172l244 -348h-209l-121 182l-121 -182h-209z" />
<glyph unicode="&#xe236;" horiz-adv-x="1275" d="M57 610q0 175 81 318.5t226.5 226t325.5 82.5q174 0 316 -82t223 -221l-236 -148q-44 84 -124 133.5t-181 49.5q-154 0 -253 -104t-99 -255q0 -150 98 -253t248 -103q109 0 187.5 54.5t121.5 150.5l254 -129q-81 -160 -223.5 -253t-333.5 -93q-182 0 -327.5 84 t-224.5 226.5t-79 315.5zM362 1671h209l121 -182l121 182h209l-244 -348h-172z" />
<glyph unicode="&#xe237;" horiz-adv-x="1275" d="M57 610q0 175 81 318.5t226.5 226t325.5 82.5q174 0 316 -82t223 -221l-236 -148q-44 84 -124 133.5t-181 49.5q-154 0 -253 -104t-99 -255q0 -150 98 -253t248 -103q109 0 187.5 54.5t121.5 150.5l254 -129q-81 -160 -223.5 -253t-333.5 -93q-182 0 -327.5 84 t-224.5 226.5t-79 315.5zM530 1464q0 72 44.5 117t117.5 45q74 0 118 -44.5t44 -117.5q0 -72 -43.5 -115.5t-118.5 -43.5q-77 0 -119.5 43t-42.5 116z" />
<glyph unicode="&#xe238;" horiz-adv-x="1275" d="M57 610q0 175 81 318.5t226.5 226t325.5 82.5q174 0 316 -82t223 -221l-236 -148q-44 84 -124 133.5t-181 49.5q-154 0 -253 -104t-99 -255q0 -150 98 -253t248 -103q109 0 187.5 54.5t121.5 150.5l254 -129q-75 -146 -199 -235.5t-292 -106.5v-97q112 4 173.5 -41 t61.5 -122q0 -95 -91.5 -157.5t-227.5 -62.5q-79 0 -156 32.5t-139 88.5l160 97q31 -26 46.5 -37t45 -22t63.5 -11q45 0 79 18.5t34 44.5q0 56 -119 56h-102v217q-235 37 -380 209t-145 409z" />
<glyph unicode="&#xe239;" horiz-adv-x="1126" d="M76 0v1221h356q142 0 262 -47t202 -129t127.5 -194.5t45.5 -240.5q0 -263 -178.5 -436.5t-452.5 -173.5h-362zM174 1671h209l121 -182l121 182h209l-244 -348h-172zM348 254h76q165 0 268 101.5t103 254.5q0 158 -99.5 257.5t-279.5 99.5h-68v-713z" />
<glyph unicode="&#xe23c;" horiz-adv-x="1200" d="M41 498v225h104v498h361q142 0 261.5 -47t201.5 -129t128 -194.5t46 -240.5q0 -263 -178.5 -436.5t-452.5 -173.5h-367v498h-104zM420 254h76q168 0 269 101t101 255q0 158 -99 257.5t-278 99.5h-69v-244h244v-225h-244v-244z" />
<glyph unicode="&#xe23d;" horiz-adv-x="862" d="M76 0v1221h723v-256h-451v-224h451v-258h-451v-227h451v-256h-723zM330 1323l235 348h258l-307 -348h-186z" />
<glyph unicode="&#xe23e;" horiz-adv-x="862" d="M76 0v1221h723v-256h-451v-224h451v-258h-451v-227h451v-256h-723zM82 1671h260l233 -348h-186z" />
<glyph unicode="&#xe23f;" horiz-adv-x="862" d="M76 0v1221h723v-256h-451v-224h451v-258h-451v-227h451v-256h-723zM113 1323l243 348h172l244 -348h-209l-121 182l-120 -182h-209z" />
<glyph unicode="&#xe240;" d="M43 610q0 175 80 318t224.5 226t324.5 83q188 0 330 -82t223 -223l-240 -137q-99 180 -311 180q-150 0 -253.5 -105t-103.5 -260q0 -160 101.5 -263t259.5 -103q114 0 192 55.5t109 155.5h-354v258h651v-125q0 -164 -72.5 -301t-209.5 -220t-312 -83q-190 0 -337.5 86.5 t-224.5 228t-77 311.5zM487 -512l70 418h244l-144 -418h-170z" />
<glyph unicode="&#xe241;" horiz-adv-x="862" d="M76 0v1221h723v-256h-451v-224h451v-258h-451v-227h451v-256h-723zM121 1671h209l121 -182l120 182h209l-243 -348h-172z" />
<glyph unicode="&#xe242;" horiz-adv-x="862" d="M76 0v1221h723v-256h-451v-224h451v-258h-451v-227h451v-256h-723zM174 1323v176h541v-176h-541z" />
<glyph unicode="&#xe243;" horiz-adv-x="862" d="M76 0v1221h723v-256h-451v-224h451v-258h-451v-227h451v-256h-723zM131 1655h174q0 -188 156 -197q155 9 155 197h177q0 -153 -90 -250.5t-242 -97.5q-162 0 -246 95.5t-84 252.5z" />
<glyph unicode="&#xe246;" horiz-adv-x="862" d="M76 0v1221h723v-256h-451v-224h451v-258h-451v-227h451v-256h-723zM279 1464q0 72 44 117t117 45q74 0 118 -44.5t44 -117.5q0 -72 -43.5 -115.5t-118.5 -43.5q-77 0 -119 43t-42 116z" />
<glyph unicode="&#xe249;" horiz-adv-x="862" d="M76 0v1221h723v-256h-451v-224h451v-258h-451v-227h451v-256q-176 -116 -221.5 -154.5t-45.5 -76.5q0 -33 25 -48.5t64 -15.5q11 0 21.5 1.5t20.5 5.5t16 6t17 10t14.5 10.5t16.5 13t16 12.5l162 -110q-56 -51 -134.5 -85t-149.5 -34q-131 0 -213 64t-82 159q0 66 35 124 t122 118h-407z" />
<glyph unicode="&#xe24b;" d="M43 610q0 175 80 318t224.5 226t324.5 83q188 0 330 -82t223 -223l-240 -137q-99 180 -311 180q-150 0 -253.5 -105t-103.5 -260q0 -160 101.5 -263t259.5 -103q114 0 192 55.5t109 155.5h-354v258h651v-125q0 -164 -72.5 -301t-209.5 -220t-312 -83q-190 0 -337.5 86.5 t-224.5 228t-77 311.5zM350 1323l244 348h172l244 -348h-209l-121 182l-121 -182h-209z" />
<glyph unicode="&#xe24e;" d="M43 610q0 175 80 318t224.5 226t324.5 83q188 0 330 -82t223 -223l-240 -137q-99 180 -311 180q-150 0 -253.5 -105t-103.5 -260q0 -160 101.5 -263t259.5 -103q114 0 192 55.5t109 155.5h-354v258h651v-125q0 -164 -72.5 -301t-209.5 -220t-312 -83q-190 0 -337.5 86.5 t-224.5 228t-77 311.5zM350 1655h174q0 -188 156 -197q156 10 156 197h176q0 -153 -90 -250.5t-242 -97.5q-162 0 -246 95.5t-84 252.5z" />
<glyph unicode="&#xe24f;" d="M43 610q0 175 80 318t224.5 226t324.5 83q188 0 330 -82t223 -223l-240 -137q-99 180 -311 180q-150 0 -253.5 -105t-103.5 -260q0 -160 101.5 -263t259.5 -103q114 0 192 55.5t109 155.5h-354v258h651v-125q0 -164 -72.5 -301t-209.5 -220t-312 -83q-190 0 -337.5 86.5 t-224.5 228t-77 311.5zM516 1464q0 72 44.5 117t117.5 45q74 0 118 -44.5t44 -117.5q0 -72 -43.5 -115.5t-118.5 -43.5q-77 0 -119.5 43t-42.5 116z" />
<glyph unicode="&#xe253;" horiz-adv-x="1081" d="M76 0v1221h274v-471h381v471h275v-1221h-275v479h-381v-479h-274zM213 1323l244 348h172l243 -348h-208l-121 182l-121 -182h-209z" />
<glyph unicode="&#xe257;" horiz-adv-x="1126" d="M23 827v271h75v123h275v-123h381v123h274v-123h74v-271h-74v-827h-274v440h-381v-440h-275v827h-75zM373 711h381v116h-381v-116z" />
<glyph unicode="&#xe258;" horiz-adv-x="448" d="M86 0v1221h276v-1221h-276zM125 1323l235 348h258l-307 -348h-186z" />
<glyph unicode="&#xe259;" horiz-adv-x="448" d="M-170 1671h260l234 -348h-187zM86 0v1221h276v-1221h-276z" />
<glyph unicode="&#xe25a;" horiz-adv-x="448" d="M-86 1323l244 348h172l243 -348h-208l-121 182l-121 -182h-209zM86 0v1221h276v-1221h-276z" />
<glyph unicode="&#xe25b;" horiz-adv-x="448" d="M-129 1325v281h274v-281h-274zM86 0v1221h276v-1221h-276zM344 1325v281h274v-281h-274z" />
<glyph unicode="&#xe25c;" horiz-adv-x="448" d="M-106 1323q0 126 56.5 201t155.5 75q74 0 158 -49q27 -19 39 -26.5t32 -16t36 -8.5q57 0 57 92h160q0 -131 -54.5 -203.5t-160.5 -72.5q-17 0 -32 2t-30.5 6.5t-26 7.5t-25.5 11t-21.5 11.5t-22.5 13t-20 11.5q-60 35 -89 35q-53 0 -53 -90h-159zM86 0v1221h276v-1221 h-276z" />
<glyph unicode="&#xe25e;" horiz-adv-x="448" d="M-49 1323v176h541v-176h-541zM86 0v1221h276v-1221h-276z" />
<glyph unicode="&#xe25f;" horiz-adv-x="448" d="M-106 1655h174q0 -188 155 -197q156 10 156 197h176q0 -153 -90 -250.5t-242 -97.5q-162 0 -245.5 95.5t-83.5 252.5zM86 0v1221h276v-1221h-276z" />
<glyph unicode="&#xe262;" horiz-adv-x="448" d="M61 1464q0 72 44.5 117t117.5 45q74 0 118 -44.5t44 -117.5q0 -72 -43.5 -115.5t-118.5 -43.5q-77 0 -119.5 43t-42.5 116zM86 0v1221h276v-1221h-276z" />
<glyph unicode="&#xe264;" horiz-adv-x="448" d="M-55 -248q0 140 141 256v1213h276v-1221q-109 -67 -162 -126.5t-53 -100.5q0 -68 78 -68q52 0 103 62l161 -113q-58 -60 -123 -91.5t-151 -31.5q-118 0 -193 62t-77 159z" />
<glyph unicode="&#xe265;" horiz-adv-x="886" d="M37 250l262 104q29 -118 129 -118q52 0 80.5 35.5t28.5 93.5v856h276v-838q0 -193 -95.5 -296t-287.5 -103q-151 0 -254 71.5t-139 194.5zM342 1323l244 348h172l243 -348h-208l-121 182l-121 -182h-209z" />
<glyph unicode="&#xe268;" horiz-adv-x="1073" d="M76 0v1221h274v-461l352 461h326l-371 -482l398 -739h-307l-289 539l-109 -144v-395h-274zM352 -500l70 418h244l-144 -418h-170z" />
<glyph unicode="&#xe26b;" horiz-adv-x="819" d="M76 0v1221h274v-959h412v-262h-686zM113 1323l235 348h258l-307 -348h-186z" />
<glyph unicode="&#xe26c;" horiz-adv-x="819" d="M76 0v1221h274v-959h412v-262h-686zM504 870l51 351h223l-104 -351h-170z" />
<glyph unicode="&#xe26d;" horiz-adv-x="819" d="M76 0v1221h274v-959h412v-262h-686zM229 -520l70 418h244l-144 -418h-170z" />
<glyph unicode="&#xe271;" horiz-adv-x="817" d="M76 0v1221h274v-959h410v-262h-684zM459 645q0 72 44.5 117t117.5 45q74 0 117.5 -44.5t43.5 -117.5t-43.5 -116.5t-117.5 -43.5q-77 0 -119.5 43.5t-42.5 116.5z" />
<glyph unicode="&#xe272;" horiz-adv-x="888" d="M25 465v201l120 34v521h275v-439l274 84v-200l-274 -84v-320h411v-262h-686v500z" />
<glyph unicode="&#xe276;" horiz-adv-x="1185" d="M76 0v1221h297l465 -736v736h272v-1221h-274l-488 766v-766h-272zM508 1323l235 348h258l-307 -348h-186z" />
<glyph unicode="&#xe279;" horiz-adv-x="1185" d="M76 0v1221h297l465 -736v736h272v-1221h-274l-488 766v-766h-272zM256 1323q0 126 57 201t156 75q74 0 158 -49q3 -2 8 -5q59 -42 88 -45q5 -1 10 -1q58 0 58 92h159q0 -131 -54.5 -203.5t-160.5 -72.5q-17 0 -32 2t-30.5 6.5t-26 7.5t-25.5 11t-21.5 11.5t-22.5 13 t-20 11.5q-60 35 -88 35q-53 0 -53 -90h-160z" />
<glyph unicode="&#xe27a;" horiz-adv-x="1185" d="M76 0v1221h297l465 -736v736h272v-1221h-274l-488 766v-766h-272zM274 1655h209l121 -182l121 182h209l-244 -348h-172z" />
<glyph unicode="&#xe27d;" horiz-adv-x="1185" d="M76 0v1221h297l465 -736v736h272v-1221h-274l-488 766v-766h-272zM422 -520l70 418h243l-143 -418h-170z" />
<glyph unicode="&#xe281;" horiz-adv-x="1337" d="M43 610q0 170 83 314.5t227 228.5t315 84q127 0 243 -49.5t200 -133.5t133.5 -200.5t49.5 -243.5q0 -171 -83.5 -315t-227.5 -227.5t-315 -83.5t-315 83.5t-227 227.5t-83 315zM322 610q0 -149 99.5 -252.5t246.5 -103.5q149 0 248.5 103.5t99.5 252.5t-100 253t-248 104 q-147 0 -246.5 -104t-99.5 -253zM567 1323l236 348h258l-307 -348h-187z" />
<glyph unicode="&#xe282;" horiz-adv-x="1337" d="M43 610q0 170 83 314.5t227 228.5t315 84q127 0 243 -49.5t200 -133.5t133.5 -200.5t49.5 -243.5q0 -171 -83.5 -315t-227.5 -227.5t-315 -83.5t-315 83.5t-227 227.5t-83 315zM295 1671h260l233 -348h-186zM322 610q0 -149 99.5 -252.5t246.5 -103.5q149 0 248.5 103.5 t99.5 252.5t-100 253t-248 104q-147 0 -246.5 -104t-99.5 -253z" />
<glyph unicode="&#xe283;" horiz-adv-x="1337" d="M43 610q0 170 83 314.5t227 228.5t315 84q127 0 243 -49.5t200 -133.5t133.5 -200.5t49.5 -243.5q0 -171 -83.5 -315t-227.5 -227.5t-315 -83.5t-315 83.5t-227 227.5t-83 315zM322 610q0 -149 99.5 -252.5t246.5 -103.5q149 0 248.5 103.5t99.5 252.5t-100 253t-248 104 q-147 0 -246.5 -104t-99.5 -253zM338 1323l244 348h172l243 -348h-209l-120 182l-121 -182h-209z" />
<glyph unicode="&#xe284;" horiz-adv-x="1337" d="M43 610q0 170 83 314.5t227 228.5t315 84q127 0 243 -49.5t200 -133.5t133.5 -200.5t49.5 -243.5q0 -171 -83.5 -315t-227.5 -227.5t-315 -83.5t-315 83.5t-227 227.5t-83 315zM322 610q0 -149 99.5 -252.5t246.5 -103.5q149 0 248.5 103.5t99.5 252.5t-100 253t-248 104 q-147 0 -246.5 -104t-99.5 -253zM326 1464q0 66 40 107t107 41q68 0 108 -40.5t40 -107.5q0 -66 -39.5 -105.5t-108.5 -39.5t-108 39.5t-39 105.5zM717 1464q0 66 40 107t107 41t107.5 -41t40.5 -107t-40.5 -105.5t-107.5 -39.5q-71 0 -109 39t-38 106z" />
<glyph unicode="&#xe285;" horiz-adv-x="1337" d="M43 610q0 170 83 314.5t227 228.5t315 84q127 0 243 -49.5t200 -133.5t133.5 -200.5t49.5 -243.5q0 -171 -83.5 -315t-227.5 -227.5t-315 -83.5t-315 83.5t-227 227.5t-83 315zM322 610q0 -149 99.5 -252.5t246.5 -103.5q149 0 248.5 103.5t99.5 252.5t-100 253t-248 104 q-147 0 -246.5 -104t-99.5 -253zM342 1323q0 126 57 201t156 75q74 0 158 -49q3 -2 8 -5q59 -42 88 -45q5 -1 10 -1q58 0 58 92h159q0 -131 -54.5 -203.5t-160.5 -72.5q-17 0 -32 2t-30.5 6.5t-26 7.5t-25.5 11t-21.5 11.5t-22.5 13t-20 11.5q-60 35 -88 35q-53 0 -53 -90 h-160z" />
<glyph unicode="&#xe287;" horiz-adv-x="1337" d="M43 610q0 170 83 314.5t227 228.5t315 84q127 0 243 -49.5t200 -133.5t133.5 -200.5t49.5 -243.5q0 -171 -83.5 -315t-227.5 -227.5t-315 -83.5t-315 83.5t-227 227.5t-83 315zM322 610q0 -149 99.5 -252.5t246.5 -103.5q149 0 248.5 103.5t99.5 252.5t-100 253t-248 104 q-147 0 -246.5 -104t-99.5 -253zM397 1323v176h541v-176h-541z" />
<glyph unicode="&#xe288;" horiz-adv-x="1337" d="M43 610q0 170 83 314.5t227 228.5t315 84q127 0 243 -49.5t200 -133.5t133.5 -200.5t49.5 -243.5q0 -171 -83.5 -315t-227.5 -227.5t-315 -83.5t-315 83.5t-227 227.5t-83 315zM322 610q0 -149 99.5 -252.5t246.5 -103.5q149 0 248.5 103.5t99.5 252.5t-100 253t-248 104 q-147 0 -246.5 -104t-99.5 -253zM338 1655h174q0 -188 156 -197q155 9 155 197h176q0 -153 -89.5 -250.5t-241.5 -97.5q-162 0 -246 95.5t-84 252.5z" />
<glyph unicode="&#xe28a;" horiz-adv-x="1337" d="M43 610q0 170 83 314.5t227 228.5t315 84q127 0 243 -49.5t200 -133.5t133.5 -200.5t49.5 -243.5q0 -171 -83.5 -315t-227.5 -227.5t-315 -83.5t-315 83.5t-227 227.5t-83 315zM322 610q0 -149 99.5 -252.5t246.5 -103.5q149 0 248.5 103.5t99.5 252.5t-100 253t-248 104 q-147 0 -246.5 -104t-99.5 -253zM399 1317l234 348h246l-308 -348h-172zM739 1317l234 348h246l-308 -348h-172z" />
<glyph unicode="&#xe295;" horiz-adv-x="1337" d="M14 0l172 209q-143 173 -143 401q0 170 83 314.5t227 228.5t315 84q164 0 303 -80l51 64h307l-176 -215q141 -175 141 -396q0 -171 -83.5 -315t-227.5 -227.5t-315 -83.5q-162 0 -299 73l-47 -57h-308zM319 610q0 -97 48 -182l426 516q-67 23 -125 23q-147 0 -248 -104 t-101 -253zM547 274q50 -20 121 -20q149 0 248.5 103.5t99.5 252.5q0 99 -45 176z" />
<glyph unicode="&#xe296;" horiz-adv-x="1337" d="M14 0l172 209q-143 173 -143 401q0 170 83 314.5t227 228.5t315 84q164 0 303 -80l51 64h307l-176 -215q141 -175 141 -396q0 -171 -83.5 -315t-227.5 -227.5t-315 -83.5q-162 0 -299 73l-47 -57h-308zM319 610q0 -97 48 -182l426 516q-67 23 -125 23q-147 0 -248 -104 t-101 -253zM547 274q50 -20 121 -20q149 0 248.5 103.5t99.5 252.5q0 99 -45 176zM555 1323l236 348h258l-308 -348h-186z" />
<glyph unicode="&#xe298;" horiz-adv-x="1812" d="M43 610q0 170 83 314.5t227 228.5t315 84q204 0 356 -127v111h725v-256h-453v-224h453v-258h-453v-227h453v-256h-725v109q-150 -125 -356 -125q-171 0 -315 83.5t-227 227.5t-83 315zM322 610q0 -149 99.5 -252.5t246.5 -103.5q149 0 248.5 103.5t99.5 252.5t-100 253 t-248 104q-147 0 -246.5 -104t-99.5 -253z" />
<glyph unicode="&#xe29a;" horiz-adv-x="1001" d="M76 0v1221h424q211 0 334.5 -119.5t123.5 -296.5q0 -120 -59.5 -215.5t-173.5 -143.5l266 -446h-311l-332 592v-592h-272zM348 625h131q96 0 146.5 51.5t50.5 124.5q0 168 -197 168h-131v-344zM350 1323l236 348h258l-307 -348h-187z" />
<glyph unicode="&#xe29b;" horiz-adv-x="1001" d="M76 0v1221h424q211 0 334.5 -119.5t123.5 -296.5q0 -120 -59.5 -215.5t-173.5 -143.5l266 -446h-311l-332 592v-592h-272zM158 1671h209l120 -182l121 182h209l-244 -348h-172zM348 625h131q96 0 146.5 51.5t50.5 124.5q0 168 -197 168h-131v-344z" />
<glyph unicode="&#xe29e;" horiz-adv-x="1001" d="M76 0v1221h424q211 0 334.5 -119.5t123.5 -296.5q0 -120 -59.5 -215.5t-173.5 -143.5l266 -446h-311l-332 592v-592h-272zM315 -516l70 418h244l-144 -418h-170zM348 625h131q96 0 146.5 51.5t50.5 124.5q0 168 -197 168h-131v-344z" />
<glyph unicode="&#xe300;" horiz-adv-x="1062" d="M76 440v781h274v-789q0 -91 49 -145t131 -54t133.5 54.5t51.5 144.5v789h274v-781q0 -218 -123 -337t-334 -119q-209 0 -332.5 120t-123.5 336zM205 1323l244 348h172l243 -348h-209l-120 182l-121 -182h-209z" />
<glyph unicode="&#xe302;" horiz-adv-x="999" d="M16 205l240 188q44 -72 108 -112.5t136 -40.5q71 0 114 38t43 91q0 23 -11.5 41.5t-27 31t-45.5 25t-53 20t-64 19.5q-23 7 -34 10q-61 18 -100 32.5t-91 44t-82.5 63.5t-52.5 89.5t-22 124.5q0 160 117 264.5t301 104.5q148 0 250 -50.5t180 -139.5l-222 -170 q-74 120 -206 120q-65 0 -103.5 -32t-38.5 -80q0 -36 33 -64t65 -40t109 -36q16 -5 25 -8q49 -15 84.5 -28t80.5 -34.5t76.5 -48.5t59.5 -62.5t42.5 -84t14.5 -106.5q0 -77 -30 -147t-85 -124.5t-140 -87t-187 -32.5q-163 0 -276 58.5t-208 162.5zM393 1323l236 348h258 l-307 -348h-187z" />
<glyph unicode="&#xe303;" horiz-adv-x="999" d="M16 205l240 188q44 -72 108 -112.5t136 -40.5q71 0 114 38t43 91q0 23 -11.5 41.5t-27 31t-45.5 25t-53 20t-64 19.5q-23 7 -34 10q-61 18 -100 32.5t-91 44t-82.5 63.5t-52.5 89.5t-22 124.5q0 160 117 264.5t301 104.5q148 0 250 -50.5t180 -139.5l-222 -170 q-74 120 -206 120q-65 0 -103.5 -32t-38.5 -80q0 -36 33 -64t65 -40t109 -36q16 -5 25 -8q49 -15 84.5 -28t80.5 -34.5t76.5 -48.5t59.5 -62.5t42.5 -84t14.5 -106.5q0 -77 -30 -147t-85 -124.5t-140 -87t-187 -32.5q-163 0 -276 58.5t-208 162.5zM180 1323l244 348h172 l244 -348h-209l-121 182l-121 -182h-209z" />
<glyph unicode="&#xe304;" horiz-adv-x="999" d="M16 205l240 188q44 -72 108 -112.5t136 -40.5q71 0 114 38t43 91q0 23 -11.5 41.5t-27 31t-45.5 25t-53 20t-64 19.5q-23 7 -34 10q-61 18 -100 32.5t-91 44t-82.5 63.5t-52.5 89.5t-22 124.5q0 160 117 264.5t301 104.5q148 0 250 -50.5t180 -139.5l-222 -170 q-74 120 -206 120q-65 0 -103.5 -32t-38.5 -80q0 -36 33 -64t65 -40t109 -36q16 -5 25 -8q49 -15 84.5 -28t80.5 -34.5t76.5 -48.5t59.5 -62.5t42.5 -84t14.5 -106.5q0 -77 -30 -147t-85 -124.5t-140 -87t-187 -32.5q-163 0 -276 58.5t-208 162.5zM184 1671h209l121 -182 l121 182h209l-244 -348h-172z" />
<glyph unicode="&#xe305;" horiz-adv-x="999" d="M16 205l240 188q44 -72 108 -112.5t136 -40.5q71 0 114 38t43 91q0 23 -11.5 41.5t-27 31t-45.5 25t-53 20t-64 19.5q-23 7 -34 10q-61 18 -100 32.5t-91 44t-82.5 63.5t-52.5 89.5t-22 124.5q0 160 117 264.5t301 104.5q148 0 250 -50.5t180 -139.5l-222 -170 q-74 120 -206 120q-65 0 -103.5 -32t-38.5 -80q0 -36 33 -64t65 -40t109 -36q16 -5 25 -8q49 -15 84.5 -28t80.5 -34.5t76.5 -48.5t59.5 -62.5t42.5 -84t14.5 -106.5q0 -77 -30 -147t-85 -124.5t-140 -87t-187 -32.5q-163 0 -276 58.5t-208 162.5zM309 -510l70 418h244 l-144 -418h-170z" />
<glyph unicode="&#xe306;" horiz-adv-x="999" d="M16 205l240 188q44 -72 108 -112.5t136 -40.5q71 0 114 38t43 91q0 23 -11.5 41.5t-27 31t-45.5 25t-53 20t-64 19.5q-23 7 -34 10q-61 18 -100 32.5t-91 44t-82.5 63.5t-52.5 89.5t-22 124.5q0 160 117 264.5t301 104.5q148 0 250 -50.5t180 -139.5l-222 -170 q-74 120 -206 120q-65 0 -103.5 -32t-38.5 -80q0 -36 33 -64t65 -40t109 -36q16 -5 25 -8q49 -15 84.5 -28t80.5 -34.5t76.5 -48.5t59.5 -62.5t42.5 -84t14.5 -106.5q0 -146 -103 -258t-276 -129v-97q113 4 174.5 -41t61.5 -122q0 -95 -92 -157.5t-228 -62.5 q-79 0 -156 32.5t-139 88.5l160 97q30 -25 46.5 -36.5t46 -22.5t63.5 -11q45 0 78.5 18.5t33.5 44.5q0 56 -118 56h-103v217q-222 32 -375 213z" />
<glyph unicode="&#xe309;" horiz-adv-x="1011" d="M68 965v256h884v-256h-307v-965h-266v965h-311zM180 1671h209l121 -182l121 182h209l-244 -348h-172z" />
<glyph unicode="&#xe30a;" horiz-adv-x="1011" d="M68 965v256h884v-256h-307v-965h-266v965h-311zM319 -541l70 418h244l-144 -418h-170z" />
<glyph unicode="&#xe30d;" horiz-adv-x="1011" d="M63 965v256h885v-256h-307v-275h203v-256h-203v-434h-266v434h-207v256h207v275h-312z" />
<glyph unicode="&#xe30e;" horiz-adv-x="1062" d="M76 440v781h274v-789q0 -91 49 -145t131 -54t133.5 54.5t51.5 144.5v789h274v-781q0 -218 -123 -337t-334 -119q-209 0 -332.5 120t-123.5 336zM408 1323l235 348h258l-307 -348h-186z" />
<glyph unicode="&#xe30f;" horiz-adv-x="1062" d="M76 440v781h274v-789q0 -91 49 -145t131 -54t133.5 54.5t51.5 144.5v789h274v-781q0 -218 -123 -337t-334 -119q-209 0 -332.5 120t-123.5 336zM135 1665h260l234 -348h-187z" />
<glyph unicode="&#xe310;" horiz-adv-x="1740" d="M39 1221h278l201 -775l221 775h273l221 -777l201 777h274l-340 -1221h-270l-224 784l-221 -784h-276zM535 1464q0 66 40 107t107 41q68 0 107.5 -40.5t39.5 -107.5q0 -66 -39.5 -105.5t-107.5 -39.5t-107.5 39.5t-39.5 105.5zM926 1464q0 66 40 107t107 41t107.5 -41 t40.5 -107t-40.5 -105.5t-107.5 -39.5q-71 0 -109 39t-38 106z" />
<glyph unicode="&#xe311;" horiz-adv-x="1062" d="M76 440v781h274v-789q0 -91 49 -145t131 -54t133.5 54.5t51.5 144.5v789h274v-781q0 -218 -123 -337t-334 -119q-209 0 -332.5 120t-123.5 336zM193 1464q0 66 40 107t107 41q68 0 107.5 -40.5t39.5 -107.5q0 -66 -39.5 -105.5t-107.5 -39.5t-107.5 39.5t-39.5 105.5z M584 1464q0 66 40 107t107 41t107.5 -41t40.5 -107t-40.5 -105.5t-107.5 -39.5q-71 0 -109 39t-38 106z" />
<glyph unicode="&#xe312;" horiz-adv-x="1062" d="M76 440v781h274v-789q0 -91 49 -145t131 -54t133.5 54.5t51.5 144.5v789h274v-781q0 -218 -123 -337t-334 -119q-209 0 -332.5 120t-123.5 336zM182 1323q0 126 57 201t156 75q74 0 158 -49q3 -2 8 -5q59 -42 88 -45q5 -1 10 -1q58 0 58 92h160q0 -131 -54.5 -203.5 t-160.5 -72.5q-17 0 -32 1.5t-30.5 6.5t-26 8t-26.5 11t-21.5 11t-22.5 13t-20 12q-60 35 -88 35q-53 0 -53 -90h-160z" />
<glyph unicode="&#xe313;" horiz-adv-x="1062" d="M76 440v781h274v-789q0 -91 49 -145t131 -54t133.5 54.5t51.5 144.5v789h274v-781q0 -218 -123 -337t-334 -119q-209 0 -332.5 120t-123.5 336zM295 1540q0 102 69 172t168 70q100 0 170 -70t70 -172q0 -98 -70 -167.5t-170 -69.5q-98 0 -167.5 69.5t-69.5 167.5z M451 1540q0 -33 23 -56.5t58 -23.5t59.5 23.5t24.5 56.5q0 35 -24.5 59.5t-59.5 24.5t-58 -24t-23 -60z" />
<glyph unicode="&#xe315;" horiz-adv-x="1062" d="M76 440v781h274v-789q0 -91 49 -145t131 -54t133.5 54.5t51.5 144.5v789h274v-781q0 -218 -123 -337t-334 -119q-209 0 -332.5 120t-123.5 336zM266 1323v176h541v-176h-541z" />
<glyph unicode="&#xe316;" horiz-adv-x="1062" d="M76 440v781h274v-789q0 -91 49 -145t131 -54t133.5 54.5t51.5 144.5v789h274v-781q0 -218 -123 -337t-334 -119q-209 0 -332.5 120t-123.5 336zM207 1651h174q0 -188 156 -197q155 9 155 197h176q0 -153 -89.5 -250.5t-241.5 -97.5q-162 0 -246 95.5t-84 252.5z" />
<glyph unicode="&#xe318;" horiz-adv-x="1062" d="M76 440v781h274v-789q0 -91 49 -145t131 -54t133.5 54.5t51.5 144.5v789h274v-781q0 -218 -123 -337t-334 -119q-209 0 -332.5 120t-123.5 336zM250 1323l233 348h246l-307 -348h-172zM590 1323l233 348h246l-307 -348h-172z" />
<glyph unicode="&#xe31b;" horiz-adv-x="1062" d="M76 440v781h274v-789q0 -91 49 -145t131 -54t133.5 54.5t51.5 144.5v789h274v-781q0 -162 -67.5 -269t-192.5 -155q-163 -110 -204.5 -145.5t-41.5 -71.5q0 -63 88 -63q10 0 20 1.5t17 3t16.5 6t14 7t14.5 9.5t13 9.5t14.5 11.5t13.5 11l162 -110q-56 -51 -135 -85 t-150 -34q-131 0 -213 64t-82 159q0 115 117 211q-151 36 -234 147.5t-83 292.5z" />
<glyph unicode="&#xe31d;" horiz-adv-x="1740" d="M39 1221h278l201 -775l221 775h273l221 -777l201 777h274l-340 -1221h-270l-224 784l-221 -784h-276zM780 1323l236 348h258l-307 -348h-187z" />
<glyph unicode="&#xe31e;" horiz-adv-x="1740" d="M39 1221h278l201 -775l221 775h273l221 -777l201 777h274l-340 -1221h-270l-224 784l-221 -784h-276zM477 1671h260l234 -348h-187z" />
<glyph unicode="&#xe31f;" horiz-adv-x="1740" d="M39 1221h278l201 -775l221 775h273l221 -777l201 777h274l-340 -1221h-270l-224 784l-221 -784h-276zM549 1315l244 348h172l243 -348h-209l-120 182l-121 -182h-209z" />
<glyph unicode="&#xe321;" horiz-adv-x="1099" d="M33 1221h297l223 -383l225 383h297l-385 -652v-569h-276v573zM449 1307l235 348h258l-307 -348h-186z" />
<glyph unicode="&#xe322;" horiz-adv-x="1101" d="M33 1221h297l223 -383l225 383h297l-385 -652v-569h-276v573zM150 1655h260l233 -348h-186z" />
<glyph unicode="&#xe323;" horiz-adv-x="1099" d="M33 1221h297l223 -383l225 383h297l-385 -652v-569h-276v573zM223 1323l244 348h172l244 -348h-209l-121 182l-121 -182h-209z" />
<glyph unicode="&#xe324;" horiz-adv-x="1099" d="M33 1221h297l223 -383l225 383h297l-385 -652v-569h-276v573zM209 1464q0 66 40 107t107 41q68 0 108 -40.5t40 -107.5q0 -66 -39.5 -105.5t-108.5 -39.5q-68 0 -107.5 39.5t-39.5 105.5zM600 1464q0 66 40.5 107t107.5 41t107 -41t40 -107t-40 -105.5t-107 -39.5 q-71 0 -109.5 39t-38.5 106z" />
<glyph unicode="&#xe327;" horiz-adv-x="925" d="M74 0v1221h276v-1221h-276zM442 0v252h13q74 2 97 27.5t23 111.5v830h277v-822q0 -121 -19.5 -197t-68 -121.5t-119 -63t-182.5 -17.5h-21z" />
<glyph unicode="&#xe328;" horiz-adv-x="933" d="M63 0v252l488 715h-477v254h796v-246l-493 -721h493v-254h-807zM354 1323l236 348h258l-307 -348h-187z" />
<glyph unicode="&#xe329;" horiz-adv-x="933" d="M63 0v252l488 715h-477v254h796v-246l-493 -721h493v-254h-807zM145 1671h209l121 -182l121 182h209l-244 -348h-172z" />
<glyph unicode="&#xe32a;" horiz-adv-x="933" d="M63 0v252l488 715h-477v254h796v-246l-493 -721h493v-254h-807zM305 1464q0 72 44.5 117t117.5 45q74 0 118 -44.5t44 -117.5q0 -72 -43.5 -115.5t-118.5 -43.5q-77 0 -119.5 43t-42.5 116z" />
<glyph unicode="&#xe32b;" horiz-adv-x="1185" d="M76 0v1221h297l465 -725v725h272v-1250q0 -250 -93.5 -346t-336.5 -96h-39v256q68 0 103.5 5.5t58 27.5t28 55.5t5.5 99.5v39l-488 758v-770h-272z" />
<glyph unicode="&#xe32c;" horiz-adv-x="1200" d="M41 498v225h104v498h361q142 0 261.5 -47t201.5 -129t128 -194.5t46 -240.5q0 -263 -178.5 -436.5t-452.5 -173.5h-367v498h-104zM420 254h76q168 0 269 101t101 255q0 158 -99 257.5t-278 99.5h-69v-244h244v-225h-244v-244z" />
<glyph unicode="&#xe32d;" horiz-adv-x="954" d="M76 0v1221h274v-199h139q191 0 305.5 -116.5t114.5 -289.5t-114 -290t-308 -117h-137v-209h-274zM350 463h137q67 0 111.5 42.5t44.5 108.5q0 68 -44.5 111t-111.5 43h-137v-305z" />
<glyph unicode="&#xe351;" horiz-adv-x="698" d="M29 901l204 594h232l205 -594h-203l-25 72h-186l-23 -72h-204zM311 1135h78l-39 118z" />
<glyph unicode="&#xe352;" horiz-adv-x="694" d="M41 1198q0 130 89.5 219.5t217.5 89.5t216.5 -89.5t88.5 -219.5q0 -128 -89 -217.5t-216 -89.5q-128 0 -217.5 89.5t-89.5 217.5zM236 1198q0 -48 31.5 -82.5t80.5 -34.5q47 0 80 34.5t33 82.5q0 50 -33 84.5t-80 34.5q-49 0 -80.5 -34.5t-31.5 -84.5z" />
<glyph unicode="&#xe353;" horiz-adv-x="663" d="M41 1198q0 130 89.5 219.5t217.5 89.5q97 0 171.5 -51t111.5 -133l-176 -80q-12 35 -40.5 54.5t-64.5 19.5q-47 0 -80.5 -35t-33.5 -84q0 -48 33.5 -82.5t80.5 -34.5q36 0 64.5 19.5t40.5 52.5l178 -76q-36 -85 -110.5 -135.5t-174.5 -50.5q-128 0 -217.5 89.5 t-89.5 217.5z" />
<glyph unicode="&#xe38c;" horiz-adv-x="1148" d="M53 778v246h174v29q0 251 96 346.5t351 95.5h22v-256q-69 0 -104.5 -5.5t-57.5 -28t-27 -55.5t-5 -99v-27h194v-246h-194v-778h-275v778h-174zM801 0v1024h274v-1024h-274zM801 1130v281h274v-281h-274z" />
<glyph unicode="&#xe38d;" horiz-adv-x="1148" d="M53 778v246h174v29q0 251 96 346.5t351 95.5h22v-256q-69 0 -104.5 -5.5t-57.5 -28t-27 -55.5t-5 -99v-27h194v-246h-194v-778h-275v778h-174zM801 0v1495h274v-1495h-274z" />
<glyph unicode="&#xe401;" horiz-adv-x="1308" d="M45 379q0 106 51 192t140 144q-54 91 -54 192q0 142 101 236t264 94q144 0 236 -60.5t137 -160.5l-263 -115q-29 92 -102 92q-41 0 -67.5 -24.5t-26.5 -61.5q0 -47 31 -88t146 -159q7 -8 11.5 -12.5l11.5 -11.5l13 -13l200 -203q66 91 89 188h-193v252h465v-121 q0 -123 -50 -251t-141 -238l246 -250h-366l-76 74q-155 -92 -320 -92q-103 0 -186 22.5t-137.5 60.5t-91 89.5t-52.5 107.5t-16 117zM313 381q0 -70 57 -117t158 -47q72 0 142 31l-215 219l-62 59q-42 -30 -61 -63.5t-19 -81.5z" />
<glyph unicode="&#xe411;" horiz-adv-x="966" d="M152 1126q0 157 83.5 253t245.5 96q152 0 242 -98t90 -251h-176q0 189 -156 199q-155 -6 -155 -199h-174z" />
<glyph unicode="&#xe412;" horiz-adv-x="966" d="M80 1475h258l233 -349h-186zM418 1475h258l233 -349h-186z" />
<glyph unicode="&#xe413;" horiz-adv-x="966" d="M387 1124l51 351h224l-105 -351h-170z" />
<glyph unicode="&#xe414;" horiz-adv-x="968" d="M317 -510l70 418h244l-144 -418h-170z" />
<glyph unicode="&#xe415;" horiz-adv-x="968" d="M299 -244q0 72 44.5 117t117.5 45q74 0 118 -44.5t44 -117.5q0 -72 -43.5 -115.5t-118.5 -43.5q-77 0 -119.5 43t-42.5 116z" />
<glyph unicode="&#xe416;" horiz-adv-x="966" d="M145 -373l158 101q60 -72 156 -72q45 0 77.5 17.5t32.5 43.5q0 58 -118 58h-15v116h49q126 1 198.5 -47t72.5 -125q0 -91 -88 -151t-207 -60q-113 0 -187 28.5t-129 90.5z" />
<glyph unicode="&#xe441;" horiz-adv-x="428" d="M45 1358q0 76 45.5 122t122.5 46t121.5 -46t44.5 -122q0 -74 -45.5 -120t-122.5 -46t-121.5 45.5t-44.5 120.5zM76 0v240q0 455 63 852h150q61 -385 61 -852v-240h-274z" />
<glyph unicode="&#xe444;" horiz-adv-x="1058" d="M66 408q0 78 20.5 139t53.5 100t73 72.5t80 66t73 70.5t53.5 97t20.5 134v23h246v-23q0 -101 -18.5 -181t-48.5 -130t-66 -89t-72 -68.5t-66 -58.5t-48.5 -68.5t-18.5 -88.5q0 -80 53 -131t142 -51q81 0 134 49t73 127l258 -88q-40 -153 -158.5 -241t-310.5 -88 q-208 0 -340.5 118.5t-132.5 309.5zM397 1356q0 76 45.5 122t122.5 46t121.5 -46t44.5 -122q0 -74 -45.5 -120t-122.5 -46t-121.5 45.5t-44.5 120.5z" />
<glyph unicode="&#xe451;" horiz-adv-x="563" d="M109 664v170l346 243v-207l-183 -120l183 -123v-207z" />
<glyph unicode="&#xe452;" horiz-adv-x="563" d="M109 422v207l182 123l-182 120v207l346 -243v-170z" />
<glyph unicode="&#xe453;" horiz-adv-x="976" d="M94 672v153l375 232v-187l-205 -120l205 -123v-187zM508 672v153l375 232v-187l-205 -120l205 -123v-187z" />
<glyph unicode="&#xe454;" horiz-adv-x="976" d="M94 440v187l205 123l-205 120v187l375 -232v-153zM508 440v187l205 123l-205 120v187l375 -232v-153z" />
<glyph unicode="&#xe461;" horiz-adv-x="1046" d="M23 0l708 1495h295l-709 -1495h-294z" />
<glyph unicode="&#xe462;" horiz-adv-x="1046" d="M23 1495h294l709 -1495h-295z" />
<glyph unicode="&#xe463;" horiz-adv-x="428" d="M74 -246v1966h278v-1966h-278z" />
<glyph unicode="&#xe464;" horiz-adv-x="831" d="M74 -246v1966h278v-1966h-278zM479 -246v1966h279v-1966h-279z" />
<glyph unicode="&#xe465;" horiz-adv-x="432" d="M74 -246v860h278v-860h-278zM74 860v860h278v-860h-278z" />
<glyph unicode="&#xe466;" horiz-adv-x="808" d="M178 748q0 92 68 159.5t160 67.5t159.5 -67.5t67.5 -159.5t-67.5 -160t-159.5 -68t-160 68t-68 160z" />
<glyph unicode="&#xe467;" horiz-adv-x="929" d="M35 0l579 1221h283l-580 -1221h-282z" />
<glyph unicode="&#xe468;" horiz-adv-x="929" d="M35 1221h282l580 -1221h-283z" />
<glyph unicode="&#xe469;" horiz-adv-x="417" d="M74 -201v1606h270v-1606h-270z" />
<glyph unicode="&#xe46a;" horiz-adv-x="813" d="M74 -201v1606h270v-1606h-270zM469 -201v1606h270v-1606h-270z" />
<glyph unicode="&#xe471;" horiz-adv-x="802" d="M74 403v236h655v-236h-655z" />
<glyph unicode="&#xe472;" horiz-adv-x="1173" d="M74 403v236h1026v-236h-1026z" />
<glyph unicode="&#xe481;" horiz-adv-x="423" d="M74 594v280h274v-280h-274z" />
<glyph unicode="&#xe482;" horiz-adv-x="905" d="M74 618v234h757v-234h-757z" />
<glyph unicode="&#xe483;" horiz-adv-x="802" d="M74 618v234h655v-234h-655z" />
<glyph unicode="&#xe484;" horiz-adv-x="968" d="M74 618v234h821v-234h-821z" />
<glyph unicode="&#xe485;" horiz-adv-x="1173" d="M74 618v234h1026v-234h-1026z" />
<glyph unicode="&#xe486;" horiz-adv-x="1378" d="M74 618v234h1231v-234h-1231z" />
<glyph unicode="&#xe487;" horiz-adv-x="1275" d="M74 618v234h1128v-234h-1128z" />
<glyph unicode="&#xe488;" horiz-adv-x="1992" d="M74 618v234h1845v-234h-1845z" />
<glyph unicode="&#xe490;" horiz-adv-x="702" d="M20 1405h285l381 -805l-379 -801h-284l380 801z" />
<glyph unicode="&#xe491;" horiz-adv-x="794" d="M45 727q0 172 38 321t112.5 272.5t171 224.5t225.5 196l186 -201q-205 -136 -323.5 -339t-118.5 -472q0 -271 113.5 -468.5t338.5 -336.5l-174 -227q-569 386 -569 1030z" />
<glyph unicode="&#xe492;" horiz-adv-x="794" d="M8 -76q451 278 451 803q0 271 -118.5 473.5t-324.5 339.5l187 201q130 -93 227.5 -194.5t171.5 -225t112 -273t38 -321.5q0 -642 -572 -1030z" />
<glyph unicode="&#xe493;" horiz-adv-x="706" d="M74 -246v1966h559v-266h-281v-1434h281v-266h-559z" />
<glyph unicode="&#xe494;" horiz-adv-x="706" d="M74 20h280v1434h-280v266h559v-1966h-559v266z" />
<glyph unicode="&#xe495;" horiz-adv-x="761" d="M43 604v256q66 0 103 8.5t57.5 34.5t26.5 61.5t6 100.5v211q0 102 14.5 174.5t45.5 125.5t84.5 84t127.5 45.5t178 14.5h23v-256q-47 0 -76.5 -2.5t-53 -10.5t-36 -20t-20.5 -35t-10.5 -50.5t-2.5 -71.5v-211q0 -132 -35.5 -212t-118.5 -120q84 -40 119 -119.5t35 -212.5 v-198q0 -44 2.5 -71.5t10.5 -50.5t20.5 -35t36 -20.5t53.5 -11t76 -2.5v-256h-23q-131 0 -215 22t-137.5 75.5t-75.5 136.5t-22 211v198q0 65 -6 100t-26.5 62t-58 36t-102.5 9z" />
<glyph unicode="&#xe496;" horiz-adv-x="761" d="M53 10q46 0 76 2.5t53.5 11t36 20.5t20.5 35t10.5 50.5t2.5 71.5v198q0 133 35 212.5t119 119.5q-84 40 -119 119.5t-35 212.5v211q0 44 -2.5 71.5t-10.5 50.5t-20.5 35t-36 20t-53 10.5t-76.5 2.5v256h23q104 0 178 -14.5t127.5 -45.5t84.5 -84t45.5 -125.5t14.5 -174.5 v-211q0 -65 6 -100.5t26.5 -61.5t57.5 -34.5t103 -8.5v-256q-65 0 -102.5 -9t-58 -36t-26.5 -62t-6 -100v-198q0 -128 -22 -211t-75.5 -136.5t-137.5 -75.5t-215 -22h-23v256z" />
<glyph unicode="&#xe497;" horiz-adv-x="802" d="M23 737l464 983h295l-467 -983l467 -983h-295z" />
<glyph unicode="&#xe498;" horiz-adv-x="802" d="M23 -246l466 983l-466 983h294l465 -983l-465 -983h-294z" />
<glyph unicode="&#xe499;" horiz-adv-x="657" d="M45 604q0 278 115 482.5t334 359.5l165 -219q-155 -103 -243 -260t-88 -363q0 -412 338 -616l-154 -248q-467 314 -467 864z" />
<glyph unicode="&#xe49a;" horiz-adv-x="657" d="M-8 -12q336 203 336 616q0 205 -88 362.5t-242 260.5l164 219q146 -103 243 -221t152 -275t55 -346q0 -549 -469 -864z" />
<glyph unicode="&#xe49b;" horiz-adv-x="634" d="M74 -201v1606h489v-256h-219v-1094h219v-256h-489z" />
<glyph unicode="&#xe49c;" horiz-adv-x="634" d="M74 55h219v1094h-219v256h487v-1606h-487v256z" />
<glyph unicode="&#xe49d;" horiz-adv-x="688" d="M74 471v250q95 0 119 29.5t24 134.5v157q0 205 80.5 284t294.5 79h22v-248q-85 0 -109 -23t-24 -102v-149q0 -117 -25 -185t-89 -102q64 -35 89 -103.5t25 -183.5v-139q0 -77 24.5 -101t108.5 -24v-246h-22q-215 0 -295 77t-80 286v145q0 105 -24 134.5t-119 29.5z" />
<glyph unicode="&#xe49e;" horiz-adv-x="690" d="M74 45q80 0 105.5 22.5t25.5 96.5v145q0 117 24.5 184.5t89.5 102.5q-65 34 -89.5 101t-24.5 186v157q0 73 -25.5 95t-105.5 22v248h22q214 0 294.5 -79t80.5 -284v-157q0 -45 3 -70t10.5 -46t24.5 -30t41.5 -13.5t65.5 -4.5v-250q-41 0 -65.5 -4.5t-41.5 -13.5 t-24.5 -30t-10.5 -46t-3 -70v-145q0 -209 -80 -286t-295 -77h-22v246z" />
<glyph unicode="&#xe49f;" horiz-adv-x="702" d="M23 600l380 805h285l-383 -805l381 -801h-285z" />
<glyph unicode="&#xe4c0;" horiz-adv-x="1056" d="M43 264q0 253 330 336q32 9 96 24.5t95 24.5t69.5 23.5t55 31.5t16.5 39q0 39 -40 62.5t-116 23.5q-112 0 -166.5 -48t-54.5 -122v-6h-248v4q0 189 117.5 288t339.5 99q130 0 227.5 -33t157 -109t59.5 -189v-713h-264v113q-133 -133 -328 -133q-167 0 -256.5 76.5 t-89.5 207.5zM305 283q0 -76 109 -76q58 0 115 24t96.5 59.5t64.5 75t27 70.5v60q-12 -34 -217 -86q-106 -24 -150.5 -52t-44.5 -75z" />
<glyph unicode="&#xe4c6;" horiz-adv-x="1073" d="M41 133q0 67 42 119t116 82q-133 117 -133 295q0 173 121.5 295.5t293.5 122.5q117 0 207.5 -53.5t140.5 -147.5q12 95 55.5 136.5t133.5 41.5h18v-303h-24q-65 0 -81 -9q-30 -15 -30 -83q0 -178 -113.5 -300t-285.5 -122h-160q-84 0 -84 -45q0 -47 76 -47h348 q180 0 275.5 -77t95.5 -214q0 -157 -135.5 -251.5t-385.5 -94.5q-129 0 -225 22t-150.5 60t-80 84t-25.5 100q0 123 105 178q-115 62 -115 211zM289 -195q0 -15 2.5 -25t13.5 -22t30.5 -19.5t55.5 -12.5t86 -5h125q114 0 160.5 28.5t46.5 66.5q0 67 -141 67h-256 q-123 0 -123 -78zM311 629q0 -72 49 -123t121 -51t122 51t50 123t-50 124t-122 52q-71 0 -120.5 -51.5t-49.5 -124.5z" />
<glyph unicode="&#xe4d8;" horiz-adv-x="1239" d="M70 -238l245 150q53 -98 119.5 -142t175.5 -44q124 0 199.5 77t75.5 187v147q-130 -162 -342 -162q-220 0 -341.5 134t-121.5 378v711h280v-682q0 -143 64 -222t192 -79q119 0 193 86t74 240v657h276v-1200q0 -145 -63.5 -263.5t-189 -190.5t-292.5 -72q-135 0 -240.5 36 t-177.5 98.5t-126 155.5z" />
<glyph unicode="&#xe511;" horiz-adv-x="915" d="M74 -205h768v-235h-768v235z" />
<glyph unicode="&#xe512;" horiz-adv-x="1165" d="M74 -20h1018v-236h-1018v236z" />
<glyph unicode="&#xe513;" horiz-adv-x="1615" d="M45 748q0 209 101.5 385.5t277.5 279.5t385 103q114 0 218.5 -27t187.5 -75t151 -113.5t113 -142.5t69.5 -162t24.5 -171q0 -180 -97.5 -306t-254.5 -126q-162 0 -246 113q-83 -111 -258 -111q-63 0 -122.5 25t-106 70t-71 116.5t-16.5 157.5q10 90 48.5 163t92 116.5 t112 66.5t114.5 23q129 0 199 -76q1 18 3.5 34t2.5 19q2 6 2 10h219l-39 -370q-16 -140 84 -140q50 0 81.5 59.5t31.5 155.5q0 89 -38.5 174t-106.5 152t-172 108t-226 41q-112 0 -213 -44t-174.5 -118t-116.5 -177t-43 -216q0 -150 73 -277t199 -201t275 -74q244 0 403 180 l168 -137q-107 -120 -254.5 -188t-316.5 -68q-209 0 -385 102.5t-277.5 279t-101.5 386.5zM625 770q-10 -71 31.5 -119.5t111.5 -48.5t119 48.5t55 119.5q8 69 -31.5 117.5t-107.5 48.5q-69 0 -121.5 -47.5t-56.5 -118.5z" />
<glyph unicode="&#xe521;" horiz-adv-x="1660" d="M72 436v226h139q-4 21 -4 86t4 86h-139v225h194q87 208 278 332.5t437 124.5q206 0 371 -88t274 -244l-219 -174q-59 114 -172.5 174.5t-257.5 60.5q-123 0 -223.5 -48.5t-167.5 -137.5h608l-61 -225h-631q-10 -39 -10 -86q0 -34 10 -86h583l-61 -226h-434 q63 -88 160.5 -136t218.5 -48q165 0 270 69.5t164 204.5l248 -137q-229 -409 -668 -409q-247 0 -437 125t-278 331h-196z" />
<glyph unicode="&#xe522;" horiz-adv-x="1153" d="M6 248l254 201q70 -120 195 -173v396q-65 21 -114 42t-104 56t-91 77t-59.5 104t-23.5 136q0 155 107 270.5t279 147.5v215h276v-221q201 -40 352 -201l-229 -174q-56 76 -129 111v-356q65 -23 115.5 -45.5t107.5 -60t94 -81.5t61.5 -108t24.5 -140q0 -162 -106.5 -290 t-290.5 -164v-236h-276v240q-266 49 -443 254zM342 1098q0 -51 27 -80.5t86 -54.5v284q-113 -49 -113 -149zM719 268q59 26 91 73.5t32 104.5q0 51 -32 85t-91 59v-322z" />
<glyph unicode="&#xe523;" horiz-adv-x="1101" d="M43 512q0 181 108.5 323.5t278.5 188.5v266h279v-262q124 -29 217 -110t141 -197l-244 -103q-31 75 -97 120.5t-151 45.5q-112 0 -189 -79t-77 -193q0 -115 77 -193.5t192 -78.5q83 0 148 46.5t97 121.5l244 -105q-48 -118 -140 -198t-218 -109v-262h-279v266 q-170 46 -278.5 187.5t-108.5 324.5z" />
<glyph unicode="&#xe524;" horiz-adv-x="1443" d="M59 217q0 109 70.5 179.5t194.5 70.5q98 0 215 -57q-2 21 -7 40.5t-18 48t-18 39t-26 50.5t-24 45h-309v221h207q-37 109 -37 231q0 193 131.5 312t341.5 119q185 0 307 -78.5t166 -216.5l-264 -97q-20 72 -73 111t-132 39q-90 0 -143 -51.5t-53 -132.5q0 -101 55 -236 h340v-221h-248q37 -95 37 -178q0 -97 -24 -179q59 -37 103 -56t87 -19q81 0 114 38.5t33 129.5v98h285v-133q0 -354 -362 -354q-77 0 -156.5 35t-181.5 100q-108 -138 -291 -138q-161 0 -240.5 63t-79.5 177zM283 217q0 -31 24.5 -50.5t69.5 -19.5q68 0 121 76 q-93 56 -146 56q-33 0 -51 -18.5t-18 -43.5z" />
<glyph unicode="&#xe525;" horiz-adv-x="1062" d="M74 0v256q48 0 78 5.5t63 23t55.5 57t38.5 102.5l47 181h-278v245h342l47 183q33 128 85.5 217.5t119.5 137t137 67.5t156 20h22v-256q-30 0 -55 -3t-55.5 -15t-53.5 -31.5t-43.5 -55t-31.5 -83.5l-48 -181h283v-245h-346l-47 -183q-32 -129 -76.5 -215.5t-107.5 -136 t-136.5 -70t-173.5 -20.5h-22z" />
<glyph unicode="&#xe526;" horiz-adv-x="1292" d="M29 1495h313l305 -455l307 455h310l-482 -692v-2h322v-223h-322v-162h322v-226h-322v-190h-278v190h-318v226h318v162h-318v223h318v8z" />
<glyph unicode="&#xe534;" horiz-adv-x="1617" d="M45 748q0 209 101.5 385.5t277.5 279.5t385 103t385.5 -103t278.5 -279.5t102 -385.5q0 -157 -60 -299.5t-162.5 -245t-244.5 -163t-299 -60.5q-209 0 -385 102.5t-277.5 279t-101.5 386.5zM322 748q0 -134 64.5 -247.5t176.5 -180t246 -66.5t246.5 66.5t177.5 180 t65 247.5t-65 247.5t-177.5 179.5t-246.5 66t-246 -66t-176.5 -179.5t-64.5 -247.5z" />
<glyph unicode="&#xe536;" horiz-adv-x="974" d="M72 0v266h295v811q-36 -51 -105 -86t-137 -35h-23v293h11q70 0 123.5 23t83 60.5t43.5 78.5t14 84h268v-1229h277v-266h-850z" />
<glyph unicode="&#xe537;" horiz-adv-x="1097" d="M43 1184q71 159 197.5 245.5t306.5 86.5q222 0 353.5 -119t131.5 -301q0 -57 -14 -108.5t-44 -97.5t-59.5 -81t-80 -75.5t-84 -64.5t-91.5 -63q-145 -98 -191 -138q-116 -100 -116 -202h674v-266h-952v262q0 74 24.5 143t58.5 119t93 105t103 87.5t114 80.5 q14 10 47.5 33.5t48 34t42.5 31t41 32.5t33.5 31t30.5 33.5t21 32.5t15 36t4 37q0 77 -54.5 127.5t-150.5 50.5q-175 0 -262 -213z" />
<glyph unicode="&#xe538;" horiz-adv-x="1028" d="M6 188l242 181q89 -136 235 -136q99 0 160.5 53.5t61.5 145.5q0 94 -70 150.5t-186 56.5h-154v256h154q117 0 177 56.5t60 142.5q0 82 -57 131t-154 49q-83 0 -136 -36.5t-91 -107.5l-238 123q66 123 189.5 193t271.5 70q219 0 352 -114.5t133 -305.5q0 -200 -170 -322 q197 -115 197 -342q0 -96 -33 -178.5t-95 -143.5t-157 -95.5t-213 -34.5q-300 0 -479 208z" />
<glyph unicode="&#xe539;" horiz-adv-x="1275" d="M72 344v254l626 897h285v-897h219v-254h-219v-344h-270v344h-641zM373 598h340v481z" />
<glyph unicode="&#xe53a;" horiz-adv-x="1107" d="M43 266l258 150q81 -180 254 -180q94 0 161.5 66.5t67.5 168.5q0 107 -63.5 177.5t-171.5 70.5q-152 0 -240 -152l-248 127l107 801h831v-260h-610l-43 -332q102 70 234 70q136 0 244.5 -56.5t174.5 -172t66 -273.5q0 -217 -144 -354t-368 -137q-184 0 -315 81t-195 205z " />
<glyph unicode="&#xe53b;" horiz-adv-x="1150" d="M43 487q0 104 30.5 206.5t84.5 180.5l387 621h327l-327 -508q43 12 88 12q199 0 336 -144.5t137 -365.5q0 -223 -149.5 -366t-378.5 -143q-153 0 -275.5 66.5t-191 182.5t-68.5 258zM315 494q0 -107 76 -185t180 -78q106 0 183 77.5t77 187.5q0 107 -77 183.5t-183 76.5 q-105 0 -180.5 -77t-75.5 -185z" />
<glyph unicode="&#xe53c;" horiz-adv-x="1085" d="M72 1229v266h942v-242l-518 -1253h-295l522 1229h-651z" />
<glyph unicode="&#xe53d;" horiz-adv-x="1077" d="M49 449q0 109 45.5 198.5t126.5 151.5q-121 118 -121 293q0 191 126 307.5t321 116.5q194 0 318 -116.5t124 -307.5q0 -181 -127 -295q78 -62 122 -151.5t44 -196.5q0 -212 -137.5 -340.5t-351.5 -128.5q-215 0 -352.5 128.5t-137.5 340.5zM317 449q0 -93 63.5 -157.5 t156.5 -64.5q92 0 157.5 65t65.5 157q0 94 -62.5 157.5t-154.5 63.5q-94 0 -160 -65t-66 -156zM356 1092q0 -80 53 -134.5t132 -54.5q81 0 136.5 55t55.5 134q0 78 -53 133t-131 55q-81 0 -137 -55t-56 -133z" />
<glyph unicode="&#xe53e;" horiz-adv-x="1150" d="M41 1006q0 225 152 367.5t378 142.5q230 0 381.5 -145.5t151.5 -362.5q0 -104 -30.5 -206.5t-84.5 -180.5l-385 -621h-328l330 514q-43 -12 -86 -12q-200 0 -339.5 142t-139.5 362zM315 1004q0 -108 77.5 -185.5t182.5 -77.5q106 0 182.5 77.5t76.5 187.5q0 106 -77 185 t-182 79q-104 0 -182 -80t-78 -186z" />
<glyph unicode="&#xe53f;" horiz-adv-x="1204" d="M94 467v549q0 216 142 358t366 142q151 0 268 -67.5t178.5 -180.5t61.5 -250v-551q0 -223 -134.5 -355t-373.5 -132q-240 0 -374 133.5t-134 353.5zM373 479q0 -101 58.5 -162t168.5 -61q109 0 170 62.5t61 158.5v531q0 108 -59 170.5t-168 62.5t-170 -65.5t-61 -167.5 v-529z" />
<glyph unicode="&#xe541;" horiz-adv-x="1204" d="M92 0v266h375v811q-36 -51 -105 -86t-137 -35h-22v293h10q70 0 123.5 23t83 60.5t43.5 78.5t14 84h268v-1229h367v-266h-1020z" />
<glyph unicode="&#xe542;" horiz-adv-x="1204" d="M61 1184q76 158 211.5 245t327.5 87q240 0 379 -119t139 -301q0 -49 -13 -95.5t-32.5 -83.5t-54 -75.5t-64 -65.5t-78 -61.5t-81 -55t-86.5 -53.5q-160 -98 -213 -141q-123 -98 -123 -199h739v-266h-1018v262q0 53 14 104t35.5 92t56.5 83t68.5 73.5t82 67t85 59.5 t88.5 56q156 99 192 126q116 94 120 175q0 77 -61.5 127.5t-172.5 50.5q-202 0 -299 -213z" />
<glyph unicode="&#xe543;" horiz-adv-x="1204" d="M47 254l242 174q59 -102 138 -148.5t185 -46.5q111 0 180.5 56t69.5 153q0 89 -57.5 141t-171.5 52h-195v256h191q114 0 168.5 57.5t54.5 145.5q0 73 -63 126.5t-173 53.5q-119 0 -186.5 -43t-116.5 -141l-241 120q158 306 542 306q222 0 365 -114.5t143 -295.5 q0 -223 -176 -338q195 -100 195 -332q0 -196 -143.5 -326t-387.5 -130q-191 0 -324 65.5t-239 208.5z" />
<glyph unicode="&#xe544;" horiz-adv-x="1204" d="M82 305v254l575 936h306v-936h159v-254h-159v-305h-273v305h-608zM371 559h319v518z" />
<glyph unicode="&#xe545;" horiz-adv-x="1204" d="M55 270l269 156q33 -88 105.5 -139t174.5 -51q105 0 180.5 75.5t75.5 190.5q0 118 -72.5 196t-191.5 78q-171 0 -266 -147l-250 127l106 739h889v-260h-667l-41 -274q115 71 270 71q83 0 157 -20.5t138 -64t110 -105.5t72.5 -149.5t26.5 -192.5q0 -223 -152.5 -371.5 t-388.5 -148.5q-200 0 -337.5 79t-207.5 211z" />
<glyph unicode="&#xe546;" horiz-adv-x="1204" d="M63 498q0 208 115 374l385 623h330l-318 -491q43 12 84 12q203 0 342.5 -146.5t139.5 -371.5q0 -148 -70.5 -267t-193 -185t-273.5 -66q-114 0 -215 40.5t-172.5 110t-112.5 165t-41 202.5zM336 502q0 -111 77 -191t185 -80q109 0 188.5 80.5t79.5 192.5q0 110 -79.5 190 t-188.5 80t-185.5 -79.5t-76.5 -192.5z" />
<glyph unicode="&#xe547;" horiz-adv-x="1204" d="M92 1229v266h1020v-242l-590 -1253h-295l592 1229h-727z" />
<glyph unicode="&#xe548;" horiz-adv-x="1204" d="M70 446q0 225 184 351q-133 114 -133 293q0 192 134 309t355 117q217 0 351.5 -117t134.5 -309q0 -179 -142 -295q181 -126 181 -349q0 -221 -140 -343.5t-395 -122.5q-256 0 -393 122t-137 344zM338 446q0 -98 66.5 -159.5t195.5 -61.5t198.5 62t69.5 159q0 96 -69 159 t-193 63q-126 0 -197 -63t-71 -159zM375 1090q0 -84 58.5 -136.5t170.5 -52.5q113 0 175.5 53.5t62.5 135.5q0 81 -61.5 135.5t-168.5 54.5q-109 0 -173 -54.5t-64 -135.5z" />
<glyph unicode="&#xe549;" horiz-adv-x="1204" d="M63 997q0 226 153.5 372.5t383.5 146.5q116 0 217.5 -40.5t172 -110t111 -164.5t40.5 -202q0 -210 -115 -376l-385 -623h-330l314 485q-31 -8 -80 -8q-132 0 -242 65.5t-175 185.5t-65 269zM338 991q0 -110 79.5 -190t188.5 -80q108 0 185 80.5t77 191.5t-77 191t-185 80 q-109 0 -188.5 -80.5t-79.5 -192.5z" />
<glyph unicode="&#xe571;" horiz-adv-x="929" d="M23 432q0 185 127.5 315t312.5 130q122 0 224 -59.5t161 -162t59 -223.5q0 -186 -128 -315t-316 -129q-185 0 -312.5 129.5t-127.5 314.5zM256 432q0 -92 58 -154.5t149 -62.5q92 0 150.5 62.5t58.5 154.5t-59 154.5t-150 62.5t-149 -62.5t-58 -154.5z" />
<glyph unicode="&#xe572;" horiz-adv-x="610" d="M29 0v213h166v340q-41 -53 -129 -53h-13v219h6q77 0 110.5 44.5t33.5 100.5h223v-651h160v-213h-557z" />
<glyph unicode="&#xe573;" horiz-adv-x="675" d="M8 670q101 207 330 207q140 0 227.5 -73.5t87.5 -189.5q0 -47 -15 -89t-37 -71.5t-56.5 -57t-64 -45t-68.5 -36.5q-94 -51 -114 -68q-19 -18 -22 -34h371v-213h-618v170q0 61 20.5 111.5t57.5 88t73 62.5t84 49q10 6 34 19t33.5 19t27 17t25 18t17.5 17.5t13.5 20 t3.5 20.5q0 28 -22.5 47t-61.5 19q-81 0 -127 -111z" />
<glyph unicode="&#xe574;" horiz-adv-x="665" d="M10 96l174 158q54 -57 125 -57q42 0 67 19t25 54q0 68 -120 68h-91v201h86q107 0 107 73q0 64 -88 64q-73 0 -107 -58l-163 142q50 54 126.5 85.5t151.5 31.5q144 0 233 -69.5t89 -186.5q0 -102 -86 -170q106 -63 106 -187q0 -119 -88 -197.5t-233 -78.5q-93 0 -176.5 27 t-137.5 81z" />
<glyph unicode="&#xe575;" horiz-adv-x="743" d="M29 172v203l344 489h215v-497h127v-195h-127v-172h-213v172h-346zM266 367h109v157z" />
<glyph unicode="&#xe576;" horiz-adv-x="655" d="M10 147l221 117q27 -59 91 -59q38 0 62 24t24 62q0 37 -25 59.5t-66 22.5q-29 0 -53 -16t-35 -40l-209 72l66 475h496v-211h-318l-14 -92q51 19 100 19q130 0 207.5 -77t77.5 -212t-88.5 -219t-224.5 -84q-105 0 -187 42.5t-125 116.5z" />
<glyph unicode="&#xe577;" horiz-adv-x="720" d="M23 307q0 113 83 252l193 305h264l-155 -243q126 -5 208 -90.5t82 -223.5q0 -136 -95 -227.5t-243 -91.5t-242.5 91.5t-94.5 227.5zM254 309q0 -45 30 -76.5t76 -31.5q48 0 80.5 31.5t32.5 78.5q0 45 -33 77t-80 32t-76.5 -31.5t-29.5 -79.5z" />
<glyph unicode="&#xe578;" horiz-adv-x="628" d="M29 651v213h571v-200l-295 -664h-248l303 651h-331z" />
<glyph unicode="&#xe579;" horiz-adv-x="671" d="M29 274q0 111 82 187q-58 64 -58 155q0 122 77.5 191.5t203.5 69.5q127 0 205.5 -69.5t78.5 -191.5q0 -87 -53 -153q76 -76 76 -189q0 -132 -86.5 -209t-220.5 -77q-133 0 -219 77t-86 209zM244 274q0 -39 24.5 -64.5t65.5 -25.5t66.5 25.5t25.5 64.5q0 36 -26 61t-66 25 t-65 -25t-25 -61zM260 616q0 -32 20 -51.5t54 -19.5q36 0 57 20t21 51t-20.5 51.5t-55.5 20.5t-55.5 -20.5t-20.5 -51.5z" />
<glyph unicode="&#xe57a;" horiz-adv-x="720" d="M23 557q0 137 94.5 228.5t242.5 91.5t243 -92t95 -228q0 -123 -84 -252l-192 -305h-262l153 246q-123 0 -206.5 86t-83.5 225zM252 555q0 -48 30.5 -79.5t77.5 -31.5t79 32t32 79t-32 78t-79 31t-77.5 -31t-30.5 -78z" />
<glyph unicode="&#xe57b;" horiz-adv-x="505" d="M33 338v186h129v125h180v-125h129v-186h-129v-125h-180v125h-129z" />
<glyph unicode="&#xe57c;" horiz-adv-x="505" d="M33 338v184h438v-184h-438z" />
<glyph unicode="&#xe57d;" horiz-adv-x="493" d="M29 236v178h436v-178h-436zM29 446v177h436v-177h-436z" />
<glyph unicode="&#xe57e;" horiz-adv-x="544" d="M45 428q0 196 77.5 345.5t229.5 268.5l140 -186q-216 -160 -216 -428q0 -262 216 -430l-138 -186q-155 118 -232 268t-77 348z" />
<glyph unicode="&#xe57f;" horiz-adv-x="544" d="M53 -2q215 167 215 430q0 269 -215 428l140 186q152 -119 229.5 -268.5t77.5 -345.5q0 -197 -77 -347.5t-230 -268.5z" />
<glyph unicode="&#xe731;" horiz-adv-x="1406" d="M31 0l532 1495h281l532 -1495h-291l-380 1100l-383 -1100h-291z" />
<glyph unicode="&#xe785;" horiz-adv-x="438" d="M45 1491q0 78 47.5 126t126.5 48q81 0 127.5 -47.5t46.5 -126.5t-46.5 -125.5t-127.5 -46.5q-83 0 -128.5 46.5t-45.5 125.5zM80 0v1198h278v-1198h-278z" />
<glyph unicode="&#xe821;" horiz-adv-x="1697" d="M53 0v266h350q-213 272 -213 588q0 181 87 333.5t238.5 241.5t332.5 89q180 0 332.5 -89t240.5 -241.5t88 -333.5q-3 -316 -215 -588h351v-266h-594l-111 233q149 179 220 322t71 307q0 166 -109.5 279.5t-273.5 113.5q-161 0 -270 -114t-109 -279q0 -114 37.5 -221.5 t96 -197t157.5 -210.5l-92 -233h-615z" />
<glyph unicode="&#xe891;" horiz-adv-x="1056" d="M43 264q0 253 330 336q32 9 96 24.5t95 24.5t69.5 23.5t55 31.5t16.5 39q0 39 -40 62.5t-116 23.5q-112 0 -166.5 -48t-54.5 -122v-6h-248v4q0 189 117.5 288t339.5 99q130 0 227.5 -33t157 -109t59.5 -189v-713h-264v113q-133 -133 -328 -133q-167 0 -256.5 76.5 t-89.5 207.5zM305 283q0 -76 109 -76q58 0 115 24t96.5 59.5t64.5 75t27 70.5v60q-12 -34 -217 -86q-106 -24 -150.5 -52t-44.5 -75zM477 1126l236 349h258l-307 -349h-187z" />
<glyph unicode="&#xe892;" horiz-adv-x="1056" d="M43 264q0 253 330 336q32 9 96 24.5t95 24.5t69.5 23.5t55 31.5t16.5 39q0 39 -40 62.5t-116 23.5q-112 0 -166.5 -48t-54.5 -122v-6h-248v4q0 189 117.5 288t339.5 99q130 0 227.5 -33t157 -109t59.5 -189v-713h-264v113q-133 -133 -328 -133q-167 0 -256.5 76.5 t-89.5 207.5zM139 1475h260l234 -349h-187zM305 283q0 -76 109 -76q58 0 115 24t96.5 59.5t64.5 75t27 70.5v60q-12 -34 -217 -86q-106 -24 -150.5 -52t-44.5 -75z" />
<glyph unicode="&#xe893;" horiz-adv-x="1056" d="M43 264q0 253 330 336q32 9 96 24.5t95 24.5t69.5 23.5t55 31.5t16.5 39q0 39 -40 62.5t-116 23.5q-112 0 -166.5 -48t-54.5 -122v-6h-248v4q0 189 117.5 288t339.5 99q130 0 227.5 -33t157 -109t59.5 -189v-713h-264v113q-133 -133 -328 -133q-167 0 -256.5 76.5 t-89.5 207.5zM211 1126l244 349h172l243 -349h-208l-121 183l-121 -183h-209zM305 283q0 -76 109 -76q58 0 115 24t96.5 59.5t64.5 75t27 70.5v60q-12 -34 -217 -86q-106 -24 -150.5 -52t-44.5 -75z" />
<glyph unicode="&#xe894;" horiz-adv-x="1056" d="M43 264q0 253 330 336q32 9 96 24.5t95 24.5t69.5 23.5t55 31.5t16.5 39q0 39 -40 62.5t-116 23.5q-112 0 -166.5 -48t-54.5 -122v-6h-248v4q0 189 117.5 288t339.5 99q130 0 227.5 -33t157 -109t59.5 -189v-713h-264v113q-133 -133 -328 -133q-167 0 -256.5 76.5 t-89.5 207.5zM193 1268q0 66 40 106.5t107 40.5q68 0 107.5 -40t39.5 -107t-39.5 -106.5t-107.5 -39.5t-107.5 39.5t-39.5 106.5zM305 283q0 -76 109 -76q58 0 115 24t96.5 59.5t64.5 75t27 70.5v60q-12 -34 -217 -86q-106 -24 -150.5 -52t-44.5 -75zM584 1268 q0 66 40 106.5t107 40.5t107.5 -40.5t40.5 -106.5t-40.5 -106t-107.5 -40q-71 0 -109 39.5t-38 106.5z" />
<glyph unicode="&#xe895;" horiz-adv-x="1056" d="M43 264q0 253 330 336q32 9 96 24.5t95 24.5t69.5 23.5t55 31.5t16.5 39q0 39 -40 62.5t-116 23.5q-112 0 -166.5 -48t-54.5 -122v-6h-248v4q0 189 117.5 288t339.5 99q130 0 227.5 -33t157 -109t59.5 -189v-713h-264v113q-133 -133 -328 -133q-167 0 -256.5 76.5 t-89.5 207.5zM266 1126v177h541v-177h-541zM305 283q0 -76 109 -76q58 0 115 24t96.5 59.5t64.5 75t27 70.5v60q-12 -34 -217 -86q-106 -24 -150.5 -52t-44.5 -75z" />
<glyph unicode="&#xe896;" horiz-adv-x="1056" d="M43 264q0 253 330 336q32 9 96 24.5t95 24.5t69.5 23.5t55 31.5t16.5 39q0 39 -40 62.5t-116 23.5q-112 0 -166.5 -48t-54.5 -122v-6h-248v4q0 189 117.5 288t339.5 99q130 0 227.5 -33t157 -109t59.5 -189v-713h-264v113q-133 -133 -328 -133q-167 0 -256.5 76.5 t-89.5 207.5zM211 1464h174q0 -187 156 -196q155 9 155 196h176q0 -153 -89.5 -250.5t-241.5 -97.5q-162 0 -246 95.5t-84 252.5zM305 283q0 -76 109 -76q58 0 115 24t96.5 59.5t64.5 75t27 70.5v60q-12 -34 -217 -86q-106 -24 -150.5 -52t-44.5 -75z" />
<glyph unicode="&#xe897;" horiz-adv-x="1056" d="M43 264q0 253 330 336q32 9 96 24.5t95 24.5t69.5 23.5t55 31.5t16.5 39q0 39 -40 62.5t-116 23.5q-112 0 -166.5 -48t-54.5 -122v-6h-248v4q0 189 117.5 288t339.5 99q130 0 227.5 -33t157 -109t59.5 -189v-713h-264v113q-133 -133 -328 -133q-167 0 -256.5 76.5 t-89.5 207.5zM303 1350q0 102 69.5 171.5t168.5 69.5q100 0 169.5 -69.5t69.5 -171.5q0 -98 -70 -168t-169 -70q-98 0 -168 70t-70 168zM305 283q0 -76 109 -76q58 0 115 24t96.5 59.5t64.5 75t27 70.5v60q-12 -34 -217 -86q-106 -24 -150.5 -52t-44.5 -75zM459 1350 q0 -33 23.5 -56.5t58.5 -23.5t59.5 23.5t24.5 56.5q0 35 -24.5 59.5t-59.5 24.5t-58.5 -24.5t-23.5 -59.5z" />
<glyph unicode="&#xe898;" horiz-adv-x="1056" d="M43 264q0 253 330 336q32 9 96 24.5t95 24.5t69.5 23.5t55 31.5t16.5 39q0 39 -40 62.5t-116 23.5q-112 0 -166.5 -48t-54.5 -122v-6h-248v4q0 189 117.5 288t339.5 99q130 0 227.5 -33t157 -109t59.5 -189v-713h-264v113q-133 -133 -328 -133q-167 0 -256.5 76.5 t-89.5 207.5zM211 1126q0 126 57 201.5t156 75.5q74 0 158 -49q3 -2 8 -5q59 -42 88 -45q5 -1 10 -1q57 0 57 92h160q0 -131 -54.5 -204t-160.5 -73q-19 0 -38.5 3.5t-32 7t-31.5 12t-26 12.5t-26.5 15.5t-23.5 13.5q-60 35 -88 35q-53 0 -53 -91h-160zM305 283 q0 -76 109 -76q58 0 115 24t96.5 59.5t64.5 75t27 70.5v60q-12 -34 -217 -86q-106 -24 -150.5 -52t-44.5 -75z" />
<glyph unicode="&#xe899;" horiz-adv-x="1056" d="M43 264q0 253 330 336q32 9 96 24.5t95 24.5t69.5 23.5t55 31.5t16.5 39q0 39 -40 62.5t-116 23.5q-112 0 -166.5 -48t-54.5 -122v-6h-248v4q0 189 117.5 288t339.5 99q130 0 227.5 -33t157 -109t59.5 -189v-709l8 -4q-109 -67 -162 -126.5t-53 -100.5q0 -68 78 -68 q51 0 102 62l162 -113q-58 -60 -123 -91.5t-151 -31.5q-118 0 -193.5 62t-77.5 159q-1 76 36 137.5t110 120.5v103q-133 -133 -328 -133q-167 0 -256.5 76.5t-89.5 207.5zM305 283q0 -76 109 -76q58 0 115 24t96.5 59.5t64.5 75t27 70.5v60q-12 -34 -217 -86 q-106 -24 -150.5 -52t-44.5 -75z" />
<glyph unicode="&#xe90e;" horiz-adv-x="1073" d="M41 133q0 67 42 119t116 82q-133 117 -133 295q0 173 121.5 295.5t293.5 122.5q117 0 207.5 -53.5t140.5 -147.5q12 95 55.5 136.5t133.5 41.5h18v-303h-24q-65 0 -81 -9q-30 -15 -30 -83q0 -178 -113.5 -300t-285.5 -122h-160q-84 0 -84 -45q0 -47 76 -47h348 q180 0 275.5 -77t95.5 -214q0 -157 -135.5 -251.5t-385.5 -94.5q-129 0 -225 22t-150.5 60t-80 84t-25.5 100q0 123 105 178q-115 62 -115 211zM154 1126l243 349h172l244 -349h-209l-121 183l-121 -183h-208zM289 -195q0 -15 2.5 -25t13.5 -22t30.5 -19.5t55.5 -12.5t86 -5 h125q114 0 160.5 28.5t46.5 66.5q0 67 -141 67h-256q-123 0 -123 -78zM311 629q0 -72 49 -123t121 -51t122 51t50 123t-50 124t-122 52q-71 0 -120.5 -51.5t-49.5 -124.5z" />
</font>
</defs>
</svg>
