<?xml version="1.0" standalone="no"?>
<!DOCTYPE svg PUBLIC "-//W3C//DTD SVG 1.1//EN" "http://www.w3.org/Graphics/SVG/1.1/DTD/svg11.dtd" >
<svg xmlns="http://www.w3.org/2000/svg" xmlns:xlink="http://www.w3.org/1999/xlink" version="1.1">
<metadata></metadata>
<defs>
<font id="webfontregular" horiz-adv-x="1204" >
<font-face units-per-em="2048" ascent="1638" descent="-410" />
<missing-glyph horiz-adv-x="520" />
<glyph unicode="&#x21;&#x3f;" horiz-adv-x="1103" d="M115 1262q58 113 171 183.5t269 70.5q186 0 308 -102t122 -263q0 -77 -21.5 -136t-56.5 -96.5t-77 -71t-83.5 -70t-76.5 -81.5t-56.5 -118.5t-21.5 -169.5v-78h-94q-6 180 -6 925v152q-183 -25 -273 -195zM442 80q0 42 29 70t72 28q46 0 73 -27t27 -71t-27 -72t-73 -28 t-73.5 28t-27.5 72zM594 743q27 45 67.5 86t74 69.5t64.5 62.5t48.5 82t17.5 110q0 101 -73 170.5t-187 83.5v-152q0 -168 -12 -512z" />
<glyph unicode="&#xa1;&#xbf;" horiz-adv-x="1103" d="M119 -127q0 77 21.5 136t56.5 96.5t76.5 71t83.5 70t77 81.5t56.5 118.5t21.5 169.5v78h96q4 -120 4 -925v-152q182 25 275 195l104 -50q-57 -112 -171.5 -183t-268.5 -71q-186 0 -309 102t-123 263zM240 -129q0 -101 72 -170.5t186 -83.5v152q0 167 12 507 q-27 -43 -67.5 -83t-73.5 -69t-63.5 -63t-48 -81.5t-17.5 -108.5zM461 946q0 43 28.5 70.5t71.5 27.5q47 0 74 -27t27 -71t-27.5 -72t-73.5 -28t-73 28t-27 72z" />
<glyph unicode="&#x683;" horiz-adv-x="1064" arabic-form="isolated" d="M147 0v1221h410q175 0 291.5 -112.5t116.5 -274.5q0 -123 -70.5 -219.5t-192.5 -137.5l275 -477h-139l-250 446h-322v-446h-119zM266 553h277q132 0 216.5 85t84.5 196q0 124 -78 201t-215 77h-285v-559z" />
<glyph unicode="&#x683;" horiz-adv-x="1064" arabic-form="final" d="M147 0v1221h410q175 0 291.5 -112.5t116.5 -274.5q0 -123 -70.5 -219.5t-192.5 -137.5l275 -477h-139l-250 446h-322v-446h-119zM266 553h277q132 0 216.5 85t84.5 196q0 124 -78 201t-215 77h-285v-559zM436 1354l244 317h154l-287 -317h-111z" />
<glyph unicode="&#x683;" horiz-adv-x="1064" arabic-form="initial" d="M147 0v1221h410q175 0 291.5 -112.5t116.5 -274.5q0 -123 -70.5 -219.5t-192.5 -137.5l275 -477h-139l-250 446h-322v-446h-119zM246 1671h121l165 -233l173 233h120l-241 -317h-99zM266 553h277q132 0 216.5 85t84.5 196q0 124 -78 201t-215 77h-285v-559z" />
<glyph unicode="&#x683;" horiz-adv-x="1064" arabic-form="medial" d="M147 0v1221h410q175 0 291.5 -112.5t116.5 -274.5q0 -123 -70.5 -219.5t-192.5 -137.5l275 -477h-139l-250 446h-322v-446h-119zM266 553h277q132 0 216.5 85t84.5 196q0 124 -78 201t-215 77h-285v-559zM393 -532l88 417h113l-119 -417h-82z" />
<glyph horiz-adv-x="0" />
<glyph horiz-adv-x="0" />
<glyph unicode="&#xd;" horiz-adv-x="512" />
<glyph unicode=" "  horiz-adv-x="520" />
<glyph unicode="&#x09;" horiz-adv-x="520" />
<glyph unicode="&#xa0;" horiz-adv-x="520" />
<glyph unicode="!" horiz-adv-x="495" d="M147 80q0 42 29 70t72 28q46 0 73 -27t27 -71t-27 -72t-73 -28t-73.5 28t-27.5 72zM190 1133v362h119v-362q0 -400 -24 -822h-68q-27 475 -27 822z" />
<glyph unicode="&#x22;" horiz-adv-x="585" d="M131 1323v172h105v-172q0 -57 -11 -155t-20 -144h-41q-1 11 -10.5 76t-16 125t-6.5 98zM350 1323v172h105v-172q0 -57 -11 -155t-20 -144h-41q-1 11 -10.5 76t-16 125t-6.5 98z" />
<glyph unicode="#" horiz-adv-x="1710" d="M98 418v112h414v451h-414v113h414v401h119v-401h444v401h119v-401h418v-113h-418v-451h418v-112h-418v-418h-119v418h-444v-418h-119v418h-414zM631 530h444v451h-444v-451z" />
<glyph unicode="$" d="M82 213l90 84q144 -188 379 -207v658q-54 17 -88.5 29.5t-83.5 33.5t-80.5 41t-66.5 50.5t-55.5 63.5t-34 77.5t-13.5 95.5q0 160 115.5 261t306.5 113v207h117v-209q261 -21 411 -217l-94 -71q-112 162 -317 186v-586q54 -17 91 -30t86.5 -35t83.5 -44t70 -54.5 t57.5 -68.5t35.5 -85t14 -105q0 -162 -122 -282t-316 -137v-228h-117v228q-295 19 -469 231zM250 1139q0 -46 17 -84.5t42.5 -66t68 -52.5t81 -41t92.5 -35v551q-136 -11 -218.5 -84t-82.5 -188zM668 90q143 18 230 100.5t87 208.5q0 52 -18 96t-45.5 75t-71.5 58 t-85.5 44.5t-96.5 36.5v-619z" />
<glyph unicode="%" horiz-adv-x="1757" d="M156 1176q0 141 99.5 240.5t240.5 99.5t240.5 -99.5t99.5 -240.5t-99.5 -241.5t-240.5 -100.5t-240.5 100.5t-99.5 241.5zM178 0l1284 1495h150l-1284 -1495h-150zM258 1176q0 -99 70 -170.5t168 -71.5t167.5 71.5t69.5 170.5q0 100 -69.5 169.5t-167.5 69.5t-168 -69.5 t-70 -169.5zM954 319q0 141 99.5 240.5t240.5 99.5t240.5 -99.5t99.5 -240.5t-99.5 -241.5t-240.5 -100.5t-240.5 100.5t-99.5 241.5zM1057 319q0 -102 69 -171.5t168 -69.5t168.5 69.5t69.5 171.5q0 100 -70 170t-168 70t-167.5 -70t-69.5 -170z" />
<glyph unicode="&#x26;" horiz-adv-x="1560" d="M102 463q0 151 78 269t213 188q-96 125 -96 260q0 140 100.5 238t272.5 98q116 0 206.5 -51t141.5 -130l-96 -63q-40 62 -104.5 101.5t-147.5 39.5q-115 0 -184.5 -68t-69.5 -165q0 -46 13 -85.5t44.5 -83t71 -87t103.5 -109.5l6 -6l5.5 -5.5l6.5 -6.5l483 -484 q85 98 136.5 220t62.5 243h-293v111h407v-47q0 -151 -63 -311.5t-178 -288.5l241 -240h-159l-162 160q-202 -183 -459 -183q-120 0 -219 29.5t-164.5 78t-111 112.5t-65.5 130.5t-20 135.5zM221 463q0 -53 16.5 -105t53.5 -102.5t89.5 -88.5t130.5 -61.5t171 -23.5 q213 0 385 149l-496 496q-52 49 -110 111q-240 -125 -240 -375z" />
<glyph unicode="'" horiz-adv-x="366" d="M131 1323v172h105v-172q0 -57 -11 -155t-20 -144h-41q-1 11 -10.5 76t-16 125t-6.5 98z" />
<glyph unicode="(" horiz-adv-x="858" d="M111 512q0 624 553 1018l81 -90q-507 -351 -507 -928q0 -581 514 -928l-80 -92q-561 395 -561 1020z" />
<glyph unicode=")" horiz-adv-x="858" d="M106 -416q515 347 515 928q0 583 -508 926l82 92q553 -394 553 -1020q0 -175 -43 -330.5t-122 -280.5t-177 -224t-220 -183z" />
<glyph unicode="*" horiz-adv-x="897" d="M106 999l289 136l-289 137l54 92l262 -186l-29 317h111l-29 -313l258 180l53 -94l-290 -133l290 -134l-55 -94l-256 183l29 -320h-111l29 320l-262 -185z" />
<glyph unicode="+" horiz-adv-x="972" d="M109 696v103h327v325h103v-325h327v-103h-327v-329h-103v329h-327z" />
<glyph unicode="," horiz-adv-x="391" d="M66 -240l88 418h129l-123 -418h-94z" />
<glyph unicode="-" horiz-adv-x="972" d="M109 463v104h757v-104h-757z" />
<glyph unicode="." horiz-adv-x="391" d="M96 80q0 42 29 70t72 28q46 0 73 -27t27 -71t-27 -72t-73 -28t-73.5 28t-27.5 72z" />
<glyph unicode="/" horiz-adv-x="948" d="M57 0l709 1495h127l-709 -1495h-127z" />
<glyph unicode="0" d="M135 457v569q0 217 129 353.5t338 136.5q211 0 339 -137t128 -353v-577q0 -225 -123 -347t-344 -122q-224 0 -345.5 126t-121.5 351zM254 457q0 -177 90 -273t256 -96t258 94.5t92 266.5v577q0 182 -90.5 281.5t-255.5 99.5t-257.5 -101.5t-92.5 -279.5v-569z" />
<glyph unicode="1" horiz-adv-x="657" d="M45 1384v111h389v-1495h-119v1384h-270z" />
<glyph unicode="2" horiz-adv-x="1202" d="M129 1227q64 132 187 210.5t284 78.5q210 0 338.5 -117t128.5 -293q0 -38 -8.5 -74.5t-19.5 -67.5t-35 -65t-42.5 -58.5t-54 -57.5t-57.5 -52t-66 -52.5t-65.5 -49t-69.5 -49.5q-55 -38 -84.5 -59.5t-78 -58.5t-75 -62.5t-60.5 -62.5t-51 -68.5t-29.5 -70t-12.5 -77.5v-8 h829v-113h-954v121q0 49 14 96.5t33.5 85.5t57 82t67 73.5t82 71t84 64.5t90.5 65q8 6 25 18q170 121 235 185q125 122 125 246q0 135 -93.5 218t-250.5 83q-125 0 -219.5 -64t-151.5 -174z" />
<glyph unicode="3" horiz-adv-x="1173" d="M96 182l94 78q65 -82 162 -128t217 -46q165 0 268 91.5t103 232.5q0 143 -109.5 227t-275.5 84h-139v113h139q159 0 254.5 78t95.5 208q0 133 -95 211t-257 78q-105 0 -195 -47t-143 -119l-96 68q73 90 184.5 147.5t253.5 57.5q214 0 339.5 -110.5t125.5 -285.5 q0 -122 -62 -210t-178 -132q131 -44 204 -137t73 -231q0 -191 -134 -309.5t-356 -118.5q-149 0 -272.5 51.5t-200.5 148.5z" />
<glyph unicode="4" horiz-adv-x="1257" d="M96 453l729 1042h119v-1044h219v-107h-219v-344h-119v344h-725zM223 451h602v858z" />
<glyph unicode="5" horiz-adv-x="1251" d="M129 256l111 68q58 -110 157 -172t234 -62q168 0 280.5 107.5t112.5 281.5q0 94 -34.5 170t-91 122.5t-125.5 71.5t-142 25q-269 0 -387 -241l-115 39l121 829h786v-111h-688l-82 -567q137 160 365 160q99 0 188.5 -31t163 -90t117 -156.5t43.5 -220.5 q0 -219 -144.5 -359t-367.5 -140q-171 0 -302 72.5t-200 203.5z" />
<glyph unicode="6" horiz-adv-x="1273" d="M104 498q0 196 117 352l453 645h143l-362 -512q84 37 194 37q140 0 256.5 -68.5t184 -188t67.5 -263.5t-69.5 -263.5t-190.5 -188t-266 -68.5q-148 0 -269 69t-189.5 187.5t-68.5 261.5zM221 500q0 -171 119.5 -291.5t290.5 -120.5q168 0 288.5 121t120.5 291 q0 171 -120.5 291t-288.5 120q-171 0 -290.5 -120t-119.5 -291z" />
<glyph unicode="7" horiz-adv-x="1093" d="M94 1382v113h914v-102l-666 -1393h-127l668 1382h-789z" />
<glyph unicode="8" horiz-adv-x="1169" d="M111 414q0 127 70.5 229t189.5 154q-94 48 -149.5 135.5t-55.5 195.5q0 166 117.5 277t300.5 111q181 0 301.5 -111.5t120.5 -276.5q0 -107 -57 -193.5t-152 -135.5q119 -50 190.5 -154t71.5 -231q0 -186 -128 -310t-347 -124q-109 0 -199 34t-149.5 93t-92 138 t-32.5 169zM227 414q0 -139 97.5 -232.5t259.5 -93.5t260 93.5t98 232.5q0 136 -98 231.5t-260 95.5q-160 0 -258.5 -95.5t-98.5 -231.5zM279 1128q0 -120 84 -201t221 -81t223 81.5t86 200.5q0 121 -85 202t-224 81q-137 0 -221 -81t-84 -202z" />
<glyph unicode="9" horiz-adv-x="1245" d="M104 1004q0 107 40.5 202t109.5 163t165.5 107.5t203.5 39.5q143 0 262 -67.5t187.5 -185t68.5 -257.5q0 -180 -105 -330l-458 -676h-142l363 528q-82 -36 -193 -36q-138 0 -253.5 67.5t-182 185.5t-66.5 259zM221 1004q0 -165 118.5 -283.5t283.5 -118.5 q166 0 283.5 118t117.5 284t-117.5 284.5t-283.5 118.5q-108 0 -200.5 -54t-147 -147t-54.5 -202z" />
<glyph unicode=":" horiz-adv-x="389" d="M96 80q0 42 29 70t72 28q46 0 73 -27t27 -71t-27 -72t-73 -28t-73.5 28t-27.5 72zM96 936q0 42 29 70t72 28q46 0 73 -27t27 -71t-27 -72t-73 -28t-73.5 28t-27.5 72z" />
<glyph unicode=";" horiz-adv-x="391" d="M66 -240l88 418h129l-123 -418h-94zM96 936q0 42 29 70t72 28q46 0 73 -27t27 -71t-27 -72t-73 -28t-73.5 28t-27.5 72z" />
<glyph unicode="&#x3c;" horiz-adv-x="972" d="M109 700v101l757 291v-107l-635 -233l635 -242v-109z" />
<glyph unicode="=" horiz-adv-x="972" d="M109 528v101h757v-101h-757zM109 858v103h757v-103h-757z" />
<glyph unicode="&#x3e;" horiz-adv-x="972" d="M109 401v109l634 242l-634 233v107l757 -291v-101z" />
<glyph unicode="?" horiz-adv-x="1103" d="M115 1262q58 113 171 183.5t267 70.5q187 0 309.5 -100.5t122.5 -262.5q0 -78 -22.5 -137.5t-58.5 -97.5t-79 -71.5t-86.5 -70.5t-79.5 -82t-58.5 -118t-22.5 -168v-78h-111v78q0 105 22 187t57 133t77.5 91t85.5 72.5t78 66.5t57 83.5t22 113.5q0 114 -89.5 185 t-225.5 71q-123 0 -202.5 -51t-129.5 -148zM422 80q0 43 28.5 70.5t71.5 27.5q46 0 73.5 -27t27.5 -71t-27.5 -72t-73.5 -28t-73 28t-27 72z" />
<glyph unicode="@" horiz-adv-x="1753" d="M111 512q0 156 63 298.5t168.5 245t250 163.5t300.5 61q159 0 300 -57.5t238 -152.5t153 -220.5t56 -259.5q0 -116 -34 -211t-106.5 -156t-172.5 -61q-88 0 -145 38t-82 103q-38 -65 -109 -106t-166 -41q-63 0 -122.5 25t-106 70.5t-70.5 117.5t-16 159q24 175 129 270 t240 95q83 0 144 -35.5t93 -93.5q10 85 10 98q2 10 2 19h113l-41 -371q-13 -127 21 -183.5t114 -56.5q90 0 143.5 89t53.5 229q0 114 -47 220t-129 187.5t-203.5 130t-261.5 48.5q-135 0 -258 -52.5t-212 -141t-141.5 -211.5t-52.5 -257q0 -180 85 -332t234 -241t328 -89 q278 0 476 201l82 -71q-103 -108 -248 -172t-310 -64q-157 0 -298.5 60.5t-243 163.5t-161.5 245t-60 299zM633 528q-17 -109 46 -187.5t169 -78.5q102 0 168 77.5t74 188.5q13 109 -39 186t-154 77q-101 0 -176.5 -71.5t-87.5 -191.5z" />
<glyph unicode="A" horiz-adv-x="1429" d="M76 0l575 1495h127l576 -1495h-125l-162 418h-707l-159 -418h-125zM403 530h621l-309 807z" />
<glyph unicode="B" horiz-adv-x="1308" d="M154 0v1495h571q192 0 314 -108.5t122 -278.5q0 -114 -55 -202t-156 -130q117 -43 182.5 -138.5t65.5 -225.5q0 -184 -124 -298t-320 -114h-600zM272 109h480q142 0 234.5 86.5t92.5 216.5q0 136 -89 220.5t-240 84.5h-478v-608zM272 825h471q137 0 218 79.5t81 203.5 q0 119 -90 198.5t-229 79.5h-451v-561z" />
<glyph unicode="C" horiz-adv-x="1630" d="M109 748q0 209 103 385.5t279.5 279.5t385.5 103q206 0 379.5 -102.5t279.5 -274.5l-102 -60q-87 151 -232 238.5t-325 87.5q-134 0 -254.5 -52.5t-206.5 -141t-136.5 -209.5t-50.5 -254q0 -177 85 -327.5t234.5 -239.5t328.5 -89q195 0 344 92.5t231 251.5l104 -53 q-101 -186 -278.5 -294.5t-400.5 -108.5q-209 0 -385.5 103t-279.5 279.5t-103 385.5z" />
<glyph unicode="D" horiz-adv-x="1456" d="M154 0v1495h419q222 0 399.5 -98t276.5 -268.5t99 -380.5t-101.5 -381.5t-278 -269t-390.5 -97.5h-424zM272 111h297q138 0 260.5 49t209.5 133.5t137.5 202.5t50.5 252t-49 251.5t-135 202.5t-210 134.5t-268 49.5h-293v-1275z" />
<glyph unicode="E" horiz-adv-x="1193" d="M154 0v1495h915v-113h-797v-577h797v-111h-797v-581h797v-113h-915z" />
<glyph unicode="F" horiz-adv-x="1120" d="M154 0v1495h845v-113h-727v-577h727v-113h-727v-692h-118z" />
<glyph unicode="G" horiz-adv-x="1740" d="M109 748q0 157 59.5 298.5t162.5 245t248.5 164t309.5 60.5q217 0 387.5 -99t271.5 -278l-102 -60q-84 153 -228 239.5t-329 86.5q-189 0 -341 -89t-235.5 -239t-83.5 -329q0 -133 49 -253.5t134.5 -209t207.5 -141t261 -52.5q138 0 253 44t194.5 122t128.5 183t61 229 h-648v110h766v-30q0 -157 -52 -296.5t-146.5 -245t-238.5 -167t-318 -61.5q-160 0 -304 61t-246 164t-162 244.5t-60 298.5z" />
<glyph unicode="H" horiz-adv-x="1409" d="M154 0v1495h118v-688h865v688h118v-1495h-118v694h-865v-694h-118z" />
<glyph unicode="I" horiz-adv-x="464" d="M174 0v1495h117v-1495h-117z" />
<glyph unicode="J" horiz-adv-x="974" d="M76 190l106 68q80 -170 264 -170q122 0 192.5 80t70.5 217v1110h118v-1108q0 -191 -99.5 -299t-278.5 -108q-132 0 -228.5 55.5t-144.5 154.5z" />
<glyph unicode="K" horiz-adv-x="1329" d="M156 0v1495h116v-895l783 895h145l-520 -600l594 -895h-137l-541 813l-324 -371v-442h-116z" />
<glyph unicode="L" horiz-adv-x="1091" d="M154 0v1495h118v-1382h711v-113h-829z" />
<glyph unicode="M" horiz-adv-x="1773" d="M154 0v1495h116l607 -840l628 840h113v-1495h-117v1307l-627 -846l-602 827v-1288h-118z" />
<glyph unicode="N" horiz-adv-x="1519" d="M154 0v1495h131l962 -1311v1311h119v-1495h-127l-967 1317v-1317h-118z" />
<glyph unicode="O" horiz-adv-x="1751" d="M109 748q0 209 103 385.5t279.5 279.5t385.5 103t385.5 -103t279.5 -279.5t103 -385.5t-103 -385.5t-279.5 -279.5t-385.5 -103t-385.5 103t-279.5 279.5t-103 385.5zM229 748q0 -177 85 -327.5t234.5 -239.5t328.5 -89q180 0 328.5 89t232.5 239.5t84 327.5 q0 179 -84 329t-232.5 238t-328.5 88q-134 0 -254.5 -52t-206.5 -139.5t-136.5 -208.5t-50.5 -255z" />
<glyph unicode="P" horiz-adv-x="1263" d="M154 0v1495h452q244 0 395.5 -144t151.5 -364t-151.5 -365t-395.5 -145h-334v-477h-118zM272 588h328q196 0 314 113.5t118 285.5q0 175 -117.5 287t-314.5 112h-328v-798z" />
<glyph unicode="Q" horiz-adv-x="1753" d="M109 748q0 209 103 385.5t279.5 279.5t385.5 103t385.5 -103t279.5 -279.5t103 -385.5q0 -155 -60 -292.5t-168 -246.5l180 -209h-151l-522 616h147l270 -317q183 189 183 449q0 179 -85 329t-234 238t-328 88q-134 0 -254.5 -52t-206.5 -139.5t-136.5 -208.5t-50.5 -255 q0 -177 85 -327.5t234.5 -239.5t328.5 -89q158 0 301 78l73 -88q-175 -102 -374 -102q-209 0 -385.5 103t-279.5 279.5t-103 385.5z" />
<glyph unicode="R" horiz-adv-x="1220" d="M154 0v1495h467q137 0 250 -63t177 -170t64 -234q0 -149 -90.5 -271.5t-237.5 -166.5l336 -590h-133l-311 557h-404v-557h-118zM272 666h338q165 0 274 108.5t109 253.5q0 154 -107 256t-274 102h-340v-720z" />
<glyph unicode="S" horiz-adv-x="1140" d="M61 225l99 76q145 -213 399 -213q155 0 257 87.5t102 227.5q0 59 -21.5 106t-53 78t-85 59t-99 45t-115.5 40q-5 1 -7 2q-52 17 -88.5 30t-84 34t-79.5 42t-66.5 52t-55 65.5t-33.5 81t-13 99.5q0 163 127.5 271t316.5 108q279 0 440 -205l-92 -72q-122 172 -348 172 q-138 0 -230.5 -77t-92.5 -197q0 -45 12 -82t37.5 -65.5t53.5 -50t72 -41t80 -33t90 -31.5l9 -3t8.5 -3t9.5 -3q56 -19 90.5 -32t84.5 -36t81.5 -44t67 -53.5t55.5 -68.5t33.5 -84t13.5 -104q0 -116 -60 -212.5t-170 -153.5t-247 -57q-313 0 -498 245z" />
<glyph unicode="T" horiz-adv-x="1249" d="M98 1386v109h1053v-109h-467v-1386h-119v1386h-467z" />
<glyph unicode="U" horiz-adv-x="1312" d="M147 487v1008h119v-1014q0 -162 112 -275.5t277 -113.5q164 0 278 114t114 277v1012h118v-1008q0 -215 -146.5 -361t-363.5 -146t-362.5 146t-145.5 361z" />
<glyph unicode="V" horiz-adv-x="1394" d="M76 1495h123l497 -1329l498 1329h125l-563 -1495h-119z" />
<glyph unicode="W" horiz-adv-x="2195" d="M86 1495h125l381 -1313l446 1313h113l442 -1313l396 1313h122l-456 -1495h-121l-442 1311l-445 -1311h-121z" />
<glyph unicode="X" horiz-adv-x="1335" d="M74 0l526 772l-487 723h135l422 -625l422 625h133l-486 -717l523 -778h-134l-460 678l-461 -678h-133z" />
<glyph unicode="Y" horiz-adv-x="1253" d="M68 1495h133l426 -672l426 672h133l-498 -780v-715h-119v711z" />
<glyph unicode="Z" horiz-adv-x="1228" d="M119 0v109l850 1273h-817v113h956v-109l-850 -1273h854v-113h-993z" />
<glyph unicode="[" horiz-adv-x="774" d="M109 -471v1966h559v-111h-441v-1744h441v-111h-559z" />
<glyph unicode="\" horiz-adv-x="948" d="M57 1495h127l709 -1495h-127z" />
<glyph unicode="]" horiz-adv-x="774" d="M109 -362h440v1746h-440v111h559v-1966h-559v109z" />
<glyph unicode="^" horiz-adv-x="1028" d="M215 1057l252 342h90l258 -342h-123l-180 239l-174 -239h-123z" />
<glyph unicode="_" horiz-adv-x="1110" d="M109 -20h895v-103h-895v103z" />
<glyph unicode="`" horiz-adv-x="1028" d="M301 1475h152l245 -318h-110z" />
<glyph unicode="a" horiz-adv-x="1529" d="M121 598q0 170 80.5 313.5t222.5 227.5t315 84q153 0 293.5 -80.5t208.5 -220.5v276h115v-1198h-115v274q-68 -140 -208 -219.5t-294 -79.5q-172 0 -314.5 84t-223 227t-80.5 312zM240 598q0 -106 39.5 -201t106.5 -163.5t160 -109t197 -40.5q106 0 200.5 40t162.5 109 t107.5 164t39.5 201q0 141 -67 259.5t-184.5 187.5t-258.5 69q-104 0 -197 -40.5t-160 -109.5t-106.5 -164.5t-39.5 -201.5z" />
<glyph unicode="b" horiz-adv-x="1527" d="M176 0v1516h115v-586q67 135 207.5 214t292.5 79q173 0 315 -84t222.5 -227.5t80.5 -313.5q0 -126 -48 -241t-130 -199t-197 -133.5t-243 -49.5q-100 0 -196.5 34t-178 102t-127.5 159v-270h-113zM276 598q0 -106 39.5 -201t107 -164t162.5 -109t201 -40q138 0 253.5 68 t182 186.5t66.5 259.5t-66.5 260t-182 187.5t-253.5 68.5q-215 0 -362.5 -150.5t-147.5 -365.5z" />
<glyph unicode="c" horiz-adv-x="1427" d="M121 598q0 173 83 317t226 226t315 82q193 0 347 -101.5t221 -267.5l-109 -45q-61 143 -181 224t-278 81q-214 0 -359.5 -150t-145.5 -366q0 -106 39.5 -201t107 -164t162.5 -109t201 -40q161 0 280 85.5t178 229.5l111 -47q-73 -171 -222 -274t-349 -103 q-130 0 -247 49.5t-200 133t-131.5 198.5t-48.5 242z" />
<glyph unicode="d" horiz-adv-x="1529" d="M121 598q0 170 80.5 313.5t222.5 227.5t315 84q152 0 290 -79t210 -216v588h115v-1516h-113v274q-68 -140 -208 -219.5t-294 -79.5q-172 0 -314.5 84t-223 227t-80.5 312zM240 598q0 -106 39.5 -201t106.5 -163.5t160 -109t197 -40.5q106 0 200.5 40t162.5 109t107.5 164 t39.5 201q0 141 -67 259.5t-184.5 187.5t-258.5 69q-104 0 -197 -40.5t-160 -109.5t-106.5 -164.5t-39.5 -201.5z" />
<glyph unicode="e" horiz-adv-x="1478" d="M121 594q0 175 80.5 319t223.5 227t318 83q173 0 312.5 -78.5t219 -218.5t79.5 -314v-53h-1121q12 -209 153.5 -343t363.5 -134q173 0 291 83t180 236l104 -49q-164 -377 -575 -377q-189 0 -333.5 82.5t-220 222.5t-75.5 314zM238 668h997q-17 199 -152.5 323.5 t-339.5 124.5q-197 0 -338.5 -127.5t-166.5 -320.5z" />
<glyph unicode="f" horiz-adv-x="813" d="M80 1092v106h211v31q0 133 18 213t67.5 129.5t126.5 67.5t204 18h12v-111q-70 0 -116 -4.5t-84 -18t-58.5 -34t-34.5 -58.5t-18.5 -85t-4.5 -119v-29h316v-106h-316v-1092h-112v1092h-211z" />
<glyph unicode="g" horiz-adv-x="1529" d="M121 598q0 170 80.5 313.5t222.5 227.5t315 84q153 0 293.5 -80.5t208.5 -220.5v276h115v-1173q0 -277 -163.5 -441t-434.5 -164q-144 0 -252.5 40.5t-180 110t-132.5 177.5l112 51q70 -135 176.5 -203.5t276.5 -68.5q222 0 352.5 133.5t130.5 359.5v254 q-68 -140 -208 -219.5t-294 -79.5q-172 0 -314.5 84t-223 227t-80.5 312zM240 598q0 -106 39.5 -201t106.5 -163.5t160 -109t197 -40.5q106 0 200.5 40t162.5 109t107.5 164t39.5 201q0 141 -67 259.5t-184.5 187.5t-258.5 69q-104 0 -197 -40.5t-160 -109.5t-106.5 -164.5 t-39.5 -201.5z" />
<glyph unicode="h" horiz-adv-x="1445" d="M176 0v1516h113v-551q63 119 182 188.5t274 69.5q241 0 387 -148.5t146 -402.5v-672h-119v674q0 202 -114 322t-314 120q-189 0 -315.5 -127.5t-126.5 -316.5v-672h-113z" />
<glyph unicode="i" horiz-adv-x="462" d="M133 1460q0 43 28.5 71t71.5 28q46 0 73.5 -27.5t27.5 -71.5t-27.5 -72t-73.5 -28t-73 28t-27 72zM174 0v1198h117v-1198h-117z" />
<glyph unicode="j" horiz-adv-x="462" d="M-143 -434q69 0 113.5 4t83 17t59.5 33.5t36 57t20 84.5t5 119v1317h117v-1319q0 -171 -38.5 -262t-126 -128.5t-251.5 -37.5h-18v115zM133 1460q0 43 28.5 71t71.5 28q46 0 73.5 -27.5t27.5 -71.5t-27.5 -72t-73.5 -28t-73 28t-27 72z" />
<glyph unicode="k" horiz-adv-x="1243" d="M176 0v1516h115v-1043l696 725h150l-484 -502l514 -696h-137l-461 625l-278 -289v-336h-115z" />
<glyph unicode="l" horiz-adv-x="473" d="M176 0v1516h119v-1516h-119z" />
<glyph unicode="m" horiz-adv-x="2365" d="M174 0v1198h113v-229q58 118 171.5 186t264.5 68q178 0 296 -80t167 -219q56 134 182 216.5t295 82.5q248 0 391.5 -146t143.5 -385v-692h-117v700q0 184 -115 300t-305 116q-183 0 -303.5 -114t-120.5 -302v-700h-117v723q0 178 -109.5 285.5t-295.5 107.5t-305 -121.5 t-119 -316.5v-678h-117z" />
<glyph unicode="n" horiz-adv-x="1447" d="M174 0v1198h113v-244q62 122 183.5 195.5t277.5 73.5q241 0 386.5 -148.5t145.5 -402.5v-672h-117v674q0 201 -115 320.5t-315 119.5q-189 0 -315.5 -126.5t-126.5 -315.5v-672h-117z" />
<glyph unicode="o" horiz-adv-x="1486" d="M121 598q0 129 49 245t132.5 199t198.5 132t242 49t242 -49t198.5 -132t133 -199t49.5 -245q0 -172 -83.5 -315.5t-226.5 -225.5t-313 -82q-127 0 -242 48.5t-198.5 131.5t-132.5 198.5t-49 244.5zM240 598q0 -142 66 -260t181.5 -186t255.5 -68q138 0 253.5 68 t182 186.5t66.5 259.5t-66.5 260t-182 187.5t-253.5 68.5q-140 0 -255.5 -69t-181.5 -187t-66 -260z" />
<glyph unicode="p" horiz-adv-x="1525" d="M174 -551v1749h111v-274q67 138 208.5 218.5t294.5 80.5q172 0 314 -84t222.5 -227.5t80.5 -313.5q0 -169 -80.5 -312t-222.5 -227t-314 -84q-160 0 -296 76t-205 213v-815h-113zM272 598q0 -141 67.5 -259.5t185 -186.5t257.5 -68q138 0 254 68t183 186.5t67 259.5 t-67 260t-183 187.5t-254 68.5q-140 0 -257.5 -69t-185 -188t-67.5 -259z" />
<glyph unicode="q" horiz-adv-x="1527" d="M121 598q0 170 80.5 313.5t222.5 227.5t315 84q153 0 293.5 -80.5t208.5 -220.5v276h113v-1749h-115v817q-67 -138 -204.5 -214.5t-295.5 -76.5q-172 0 -314.5 84t-223 227t-80.5 312zM240 598q0 -106 39.5 -201t106.5 -163.5t160 -109t197 -40.5q106 0 200.5 40 t162.5 109t107.5 164t39.5 201q0 141 -67 259.5t-184.5 187.5t-258.5 69q-104 0 -197 -40.5t-160 -109.5t-106.5 -164.5t-39.5 -201.5z" />
<glyph unicode="r" horiz-adv-x="937" d="M174 0v1198h113v-213q48 110 137.5 167.5t216.5 57.5q133 0 248 -67l-70 -103q-87 62 -182 62q-161 0 -253.5 -105.5t-92.5 -294.5v-702h-117z" />
<glyph unicode="s" horiz-adv-x="1110" d="M76 199l92 73q63 -86 163 -139t218 -53q155 0 240 73t85 179q0 25 -6.5 47t-15 38.5t-28 33t-32.5 27t-43 23t-45 19t-53 17t-52.5 14.5t-56.5 14q-2 1 -3.5 1t-3 0.5l-3 1l-3 1t-3.5 0.5q-51 13 -84.5 22.5t-79 25.5t-75 32.5t-61.5 41t-50.5 53.5t-30.5 68t-12 85 q0 135 114.5 231.5t297.5 96.5q128 0 236.5 -46t181.5 -128l-89 -72q-127 143 -329 143q-138 0 -216.5 -62t-78.5 -161q0 -31 10.5 -57t25 -45t44.5 -37t52 -29t65 -24.5t67 -20t74 -18.5q51 -12 86 -22t80.5 -26.5t76.5 -33.5t63.5 -42.5t52 -55t32 -69.5t12.5 -87 q0 -66 -27.5 -128t-79.5 -114t-139.5 -83.5t-197.5 -31.5q-149 0 -272.5 61t-198.5 163z" />
<glyph unicode="t" horiz-adv-x="823" d="M74 1092v106h213v279l112 73v-352h316v-106h-316v-662q0 -106 12.5 -166.5t50.5 -96.5t94.5 -47t158.5 -11v-109h-19q-84 0 -143.5 7.5t-107 27t-76.5 50t-48 80t-26.5 112t-7.5 151.5v664h-213z" />
<glyph unicode="u" horiz-adv-x="1447" d="M168 526v672h119v-674q0 -202 114 -321t314 -119q189 0 316.5 126.5t127.5 315.5v672h117v-1198h-115v244q-62 -122 -181 -195.5t-273 -73.5q-252 0 -395.5 147t-143.5 404z" />
<glyph unicode="v" horiz-adv-x="1228" d="M86 1198h129l401 -1040l402 1040h125l-469 -1198h-119z" />
<glyph unicode="w" horiz-adv-x="2004" d="M96 1198h125l326 -1026l407 1026h101l395 -1030l336 1030h123l-398 -1198h-110l-400 1028l-409 -1028h-111z" />
<glyph unicode="x" horiz-adv-x="1263" d="M72 0l487 616l-463 582h144l395 -502l389 502h145l-464 -582l487 -616h-145l-416 537l-412 -537h-147z" />
<glyph unicode="y" horiz-adv-x="1339" d="M88 1198h131l469 -997l438 997h127l-782 -1751h-127l281 621z" />
<glyph unicode="z" horiz-adv-x="1286" d="M117 0v111l899 981h-869v106h1014v-111l-895 -978h903v-109h-1052z" />
<glyph unicode="{" horiz-adv-x="829" d="M78 453v112q64 0 102.5 11t58 40.5t25.5 66t6 101.5v267q0 251 97.5 347.5t353.5 96.5h22v-106q-112 0 -179 -14.5t-108 -55.5t-55 -103t-14 -167v-267q0 -115 -29 -179.5t-102 -92.5q75 -28 103 -92t28 -180v-263q0 -105 14 -167t55 -103t108 -55.5t179 -14.5v-106h-22 q-256 0 -353.5 96.5t-97.5 347.5v263q0 66 -6 102.5t-25.5 65t-57.5 39t-103 10.5z" />
<glyph unicode="|" horiz-adv-x="389" d="M135 -471v1966h119v-1966h-119z" />
<glyph unicode="}" horiz-adv-x="829" d="M88 -362q149 0 223.5 29.5t103.5 99t29 208.5v263q0 117 27.5 180.5t101.5 91.5q-71 28 -100 93t-29 179v267q0 139 -29 208.5t-103.5 99t-223.5 29.5v109h23q104 0 178 -14.5t127.5 -45.5t84.5 -84t45.5 -125.5t14.5 -174.5v-267q0 -65 6 -102t26 -66t58.5 -40 t102.5 -11v-112q-65 0 -103 -10.5t-58 -39t-26 -65t-6 -102.5v-263q0 -102 -14.5 -174.5t-45.5 -125.5t-84.5 -84t-127.5 -45.5t-178 -14.5h-23v109z" />
<glyph unicode="~" horiz-adv-x="931" d="M137 1143q4 94 55.5 150.5t131.5 56.5q49 0 82 -13.5t77 -42.5q4 -3 30 -18.5t36 -20.5t30 -11.5t37 -6.5q83 0 95 102h94q-5 -95 -53.5 -150.5t-133.5 -55.5q-37 0 -74 12.5t-52.5 21.5t-53.5 33q-27 16 -39 22.5t-33.5 13.5t-41.5 7q-76 0 -88 -100h-99z" />
<glyph unicode="&#xa1;" horiz-adv-x="495" d="M152 944q0 44 27 72t73 28t73 -28t27 -72q0 -43 -28.5 -70.5t-71.5 -27.5q-46 0 -73 27t-27 71zM190 -109q0 382 25 822h68q26 -458 26 -822v-362h-119v362z" />
<glyph unicode="&#xa2;" d="M111 512q0 222 128.5 364.5t327.5 163.5v250h119v-250q148 -14 259.5 -96.5t158.5 -216.5l-107 -45q-43 125 -139.5 190.5t-228.5 65.5q-171 0 -285.5 -117t-114.5 -309q0 -193 114.5 -309.5t289.5 -116.5q134 0 231.5 70t139.5 194l108 -45q-51 -141 -162 -225.5 t-264 -97.5v-248h-119v250q-204 21 -330 164t-126 364z" />
<glyph unicode="&#xa3;" d="M98 174q0 85 57 138t150 53q110 0 236 -91q4 46 4 62q0 99 -33 178t-96 176h-262v96h198q-57 89 -88 168.5t-31 178.5q0 166 113 274.5t281 108.5q266 0 403 -228l-104 -61q-52 92 -125 136t-178 44q-117 0 -194 -77t-77 -197q0 -90 32.5 -167.5t96.5 -179.5h432v-96 h-374q50 -88 78 -170.5t28 -177.5q0 -74 -20 -133q53 -44 77 -62.5t66.5 -38.5t79.5 -20q58 0 81 30t23 93v135h119v-133q0 -125 -58 -179t-169 -54q-67 0 -130 35.5t-136 99.5q-93 -135 -250 -135q-108 0 -169 53t-61 141zM203 170q0 -46 33 -71t90 -25q126 0 182 100 q-116 94 -197 94q-50 0 -79 -28t-29 -70z" />
<glyph unicode="&#xa4;" horiz-adv-x="1583" d="M203 199l190 198q-123 141 -123 344t123 344l-190 199l69 72l193 -201q145 119 336 119q190 0 332 -117l180 189l69 -72l-178 -184q129 -155 129 -349q0 -203 -131 -350l178 -182l-71 -72l-181 185q-141 -113 -327 -113q-191 0 -336 117l-191 -199zM389 741 q0 -177 119.5 -301.5t292.5 -124.5t293 124.5t120 301.5t-120 301.5t-293 124.5t-292.5 -124.5t-119.5 -301.5z" />
<glyph unicode="&#xa5;" d="M106 1495h134l366 -577l367 577h131l-438 -690v-14h346v-99h-346v-246h346v-98h-346v-348h-117v348h-350v98h350v246h-350v99h350v12z" />
<glyph unicode="&#xa6;" horiz-adv-x="444" d="M135 389h119v-860h-119v860zM135 635v860h119v-860h-119z" />
<glyph unicode="&#xa7;" horiz-adv-x="1241" d="M123 776q0 81 51.5 147t142.5 95q-59 37 -88.5 83t-29.5 113q0 141 112.5 221.5t290.5 80.5q104 0 186.5 -25.5t134 -69.5t80.5 -98t35 -115l-114 -22q-8 109 -86.5 172t-237.5 63q-58 0 -108 -11t-92 -34.5t-66.5 -63.5t-24.5 -93q0 -27 9.5 -50t24.5 -40t43 -32.5 t53 -25.5t68.5 -21.5t76.5 -19t88 -18.5q86 -18 149 -35.5t119.5 -41.5t91.5 -53.5t55.5 -69.5t20.5 -89q0 -76 -52 -143t-138 -97q62 -33 92 -80.5t30 -117.5q0 -139 -120 -222t-302 -83q-109 0 -197 27t-142.5 73t-85.5 102t-37 119l118 27q8 -111 95.5 -181.5 t253.5 -70.5q56 0 108.5 12t98 35t73 64t27.5 94q0 37 -16.5 65.5t-45 47.5t-73 34.5t-93.5 27t-113 24.5q-17 3 -26 5q-90 20 -150.5 37.5t-120 42t-93.5 53t-55 68.5t-21 90zM236 791q0 -32 13.5 -58t43 -47t59.5 -36t81.5 -29.5t89.5 -23.5t102 -22q114 -22 190 -47 q89 24 134.5 74t45.5 113q0 29 -13 54t-41.5 44.5t-59 34t-80.5 29t-89.5 23.5t-101.5 22q-103 20 -190 49q-85 -12 -135.5 -63.5t-48.5 -116.5z" />
<glyph unicode="&#xa8;" horiz-adv-x="1036" d="M244 1331q0 38 26 63t64 25q41 0 64.5 -24.5t23.5 -63.5t-24 -64.5t-64 -25.5q-41 0 -65.5 25.5t-24.5 64.5zM588 1331q0 38 26 63t64 25q41 0 64.5 -24.5t23.5 -63.5t-24 -64.5t-64 -25.5q-41 0 -65.5 25.5t-24.5 64.5z" />
<glyph unicode="&#xa9;" horiz-adv-x="1757" d="M111 748q0 209 103 385.5t279.5 279.5t385.5 103t385.5 -103t279.5 -279.5t103 -385.5t-103 -385.5t-279.5 -279.5t-385.5 -103t-385.5 103t-279.5 279.5t-103 385.5zM225 748q0 -181 86 -333.5t236.5 -241.5t331.5 -89t331.5 89t236 241.5t85.5 333.5q0 136 -50.5 258.5 t-137 211t-208 141t-257.5 52.5q-181 0 -331.5 -88.5t-236.5 -241t-86 -333.5zM479 748q0 168 119 286.5t289 118.5q110 0 204 -54.5t146 -142.5l-100 -63q-36 68 -102 108.5t-150 40.5q-119 0 -206 -86.5t-87 -207.5q0 -122 87 -209.5t206 -87.5q89 0 157 43.5t101 117.5 l102 -57q-50 -96 -146.5 -154.5t-211.5 -58.5q-171 0 -289.5 119t-118.5 287z" />
<glyph unicode="&#xaa;" horiz-adv-x="856" d="M123 1198q0 136 91 222.5t208 86.5q71 0 131.5 -29.5t97.5 -80.5v98h90v-592h-90v98q-37 -52 -97.5 -81t-133.5 -29q-117 0 -207 86t-90 221zM215 1200q0 -94 64.5 -159.5t156.5 -65.5t154.5 66.5t62.5 158.5q0 93 -62 158t-155 65q-92 0 -156.5 -64.5t-64.5 -158.5z" />
<glyph unicode="&#xab;" horiz-adv-x="923" d="M137 475v74l318 239v-92l-244 -186l244 -184v-90zM469 475v74l315 239v-92l-241 -186l241 -184v-90z" />
<glyph unicode="&#xac;" horiz-adv-x="1234" d="M70 934v113h1083v-635h-119v522h-964z" />
<glyph unicode="&#xad;" horiz-adv-x="972" d="M109 463v104h757v-104h-757z" />
<glyph unicode="&#xae;" horiz-adv-x="1757" d="M111 512q0 209 103 385.5t279.5 279.5t385.5 103t385.5 -103t279.5 -279.5t103 -385.5t-103 -385.5t-279.5 -279.5t-385.5 -103t-385.5 103t-279.5 279.5t-103 385.5zM225 512q0 -181 86 -333.5t236.5 -241.5t331.5 -89t331.5 89t236 241.5t85.5 333.5t-85.5 333.5 t-236 241.5t-331.5 89t-331.5 -89t-236.5 -241.5t-86 -333.5zM612 141v766h303q127 0 205 -70t78 -173q0 -91 -48 -159t-136 -91l184 -273h-131l-223 346h55q80 0 132 47.5t52 124.5q0 72 -51.5 112t-128.5 40h-180v-670h-111z" />
<glyph unicode="&#xaf;" horiz-adv-x="1028" d="M246 1157v103h540v-103h-540z" />
<glyph unicode="&#xb0;" horiz-adv-x="886" d="M215 1288q0 92 67.5 160t161.5 68q95 0 161.5 -67.5t66.5 -160.5q0 -94 -66.5 -161.5t-161.5 -67.5q-94 0 -161.5 67.5t-67.5 161.5zM315 1286q0 -54 37.5 -91.5t91.5 -37.5t91.5 37.5t37.5 91.5t-37.5 91.5t-91.5 37.5t-91.5 -37.5t-37.5 -91.5z" />
<glyph unicode="&#xb1;" horiz-adv-x="972" d="M109 268v103h757v-103h-757zM109 895v102h327v328h103v-328h327v-102h-327v-328h-103v328h-327z" />
<glyph unicode="&#xb2;" horiz-adv-x="704" d="M70 1327q39 84 112 132t170 48q126 0 201.5 -67.5t75.5 -169.5q0 -48 -18.5 -91t-57 -81.5t-71 -63.5t-85.5 -61q-55 -38 -79 -56t-61.5 -52t-53 -65.5t-15.5 -66.5h443v-102h-551v102q0 41 15.5 80t35 67t58 62.5t63 53t70.5 51.5q110 76 143 110q55 56 55 113 q0 63 -45.5 103t-122.5 40q-125 0 -190 -133z" />
<glyph unicode="&#xb3;" horiz-adv-x="673" d="M51 735l90 70q64 -88 183 -88q78 0 128 43t50 112q0 72 -52.5 114t-136.5 42h-86v98h86q83 0 128.5 40t45.5 108q0 63 -46.5 101t-121.5 38q-111 0 -169 -90l-91 51q38 60 106.5 96.5t153.5 36.5q124 0 197.5 -63.5t73.5 -169.5q0 -130 -117 -195q135 -64 135 -207 q0 -113 -76 -183.5t-208 -70.5q-176 0 -273 117z" />
<glyph unicode="&#xb4;" horiz-adv-x="1028" d="M301 1157l244 318h153l-286 -318h-111z" />
<glyph unicode="&#xb5;" horiz-adv-x="1236" d="M145 -471v1495h119v-565q0 -166 98.5 -269.5t251.5 -103.5q155 0 259 105t104 262v571h117v-1024h-115v190q-56 -97 -153.5 -153.5t-223.5 -56.5q-107 0 -195 46.5t-145 123.5v-621h-117z" />
<glyph unicode="&#xb6;" horiz-adv-x="1177" d="M78 1057q0 185 127 311.5t315 126.5h522v-1495h-106v1389h-123v-1389h-104v618h-187q-190 0 -317 127t-127 312z" />
<glyph unicode="&#xb7;" horiz-adv-x="391" d="M135 371v280h119v-280h-119z" />
<glyph unicode="&#xb8;" horiz-adv-x="1028" d="M223 -356l94 57q47 -41 88 -59.5t103 -18.5q72 0 118 29.5t46 73.5q0 42 -44.5 66t-125.5 24h-68v184h101v-109q111 -2 179 -45.5t68 -115.5q0 -85 -78.5 -140t-195.5 -55q-167 0 -285 109z" />
<glyph unicode="&#xb9;" horiz-adv-x="585" d="M76 631v100h172v584q-19 -31 -61 -52.5t-83 -21.5h-12v113h6q77 0 114.5 43.5t37.5 97.5h104v-764h166v-100h-444z" />
<glyph unicode="&#xba;" horiz-adv-x="862" d="M123 1198q0 130 89.5 219.5t217.5 89.5q130 0 219.5 -89.5t89.5 -219.5q0 -128 -89.5 -217.5t-219.5 -89.5q-128 0 -217.5 89.5t-89.5 217.5zM215 1198q0 -91 63 -155t152 -64q92 0 154.5 64t62.5 155q0 94 -62.5 157.5t-154.5 63.5q-89 0 -152 -64.5t-63 -156.5z" />
<glyph unicode="&#xbb;" horiz-adv-x="923" d="M137 238v90l244 184l-244 184v92l318 -239v-72zM469 238v90l244 184l-244 184v92l315 -239v-72z" />
<glyph unicode="&#xbc;" horiz-adv-x="1599" d="M76 631v100h172v584q-19 -31 -61 -52.5t-83 -21.5h-12v113h6q77 0 114.5 43.5t37.5 97.5h104v-764h166v-100h-444zM215 0l1079 1495h140l-1080 -1495h-139zM885 199v98l395 567h111v-567h125v-98h-125v-199h-107v199h-399zM1001 297h283v401z" />
<glyph unicode="&#xbd;" horiz-adv-x="1701" d="M76 631v100h172v584q-19 -31 -61 -52.5t-83 -21.5h-12v113h6q77 0 114.5 43.5t37.5 97.5h104v-764h166v-100h-444zM215 0l1079 1495h140l-1080 -1495h-139zM1061 696q39 84 112 132.5t170 48.5q126 0 201.5 -68t75.5 -170q0 -48 -18.5 -91t-56.5 -81t-70.5 -64t-85.5 -61 q-55 -38 -79 -56t-61.5 -52t-53 -65.5t-15.5 -66.5h442v-102h-551v102q0 41 15.5 80t35 67t58 62.5t63 53t70.5 51.5q110 76 143 110q55 56 55 113q0 63 -45.5 103t-122.5 40q-125 0 -190 -133z" />
<glyph unicode="&#xbe;" horiz-adv-x="1660" d="M51 735l90 70q64 -88 183 -88q78 0 128 43t50 112q0 72 -52.5 114t-136.5 42h-86v98h86q83 0 128.5 40t45.5 108q0 63 -46.5 101t-121.5 38q-111 0 -169 -90l-91 51q38 60 106.5 96.5t153.5 36.5q124 0 197.5 -63.5t73.5 -169.5q0 -130 -117 -195q135 -64 135 -207 q0 -113 -76 -183.5t-208 -70.5q-176 0 -273 117zM279 0l1079 1495h139l-1079 -1495h-139zM948 199v98l395 567h111v-567h125v-98h-125v-199h-106v199h-400zM1065 297h283v401z" />
<glyph unicode="&#xbf;" horiz-adv-x="1103" d="M115 -129q0 78 22.5 137.5t58.5 97.5t79 71.5t86.5 70.5t79.5 82t58.5 118t22.5 168v78h109v-78q0 -105 -22 -187t-57 -133t-77.5 -91t-85 -72.5t-77.5 -66.5t-57 -83.5t-22 -113.5q0 -113 90.5 -184.5t223.5 -71.5q123 0 202 51t132 148l104 -50q-58 -113 -171 -183.5 t-267 -70.5q-187 0 -309.5 100.5t-122.5 262.5zM473 946q0 43 28.5 70.5t71.5 27.5q47 0 74 -27t27 -71t-27.5 -72t-73.5 -28t-73 28t-27 72z" />
<glyph unicode="&#xc0;" horiz-adv-x="1429" d="M76 0l575 1495h127l576 -1495h-125l-162 418h-707l-159 -418h-125zM365 1946h151l246 -318h-111zM403 530h621l-309 807z" />
<glyph unicode="&#xc1;" horiz-adv-x="1429" d="M76 0l575 1495h127l576 -1495h-125l-162 418h-707l-159 -418h-125zM403 530h621l-309 807zM645 1628l244 318h153l-286 -318h-111z" />
<glyph unicode="&#xc2;" horiz-adv-x="1429" d="M76 0l575 1495h127l576 -1495h-125l-162 418h-707l-159 -418h-125zM403 530h621l-309 807zM410 1628l243 318h101l243 -318h-125l-170 225l-170 -225h-122z" />
<glyph unicode="&#xc3;" horiz-adv-x="1429" d="M76 0l575 1495h127l576 -1495h-125l-162 418h-707l-159 -418h-125zM348 1628q0 102 52.5 161.5t138.5 59.5q74 0 176 -61q5 -3 21 -13t22.5 -13.5t20 -11.5t21.5 -11t19.5 -7.5t22 -6t20.5 -1.5q103 0 103 119h94q0 -105 -51 -164t-144 -59q-28 0 -56 6.5t-49.5 17 t-44.5 23.5t-42 25q-7 4 -26 15.5t-27.5 16t-24 11.5t-28.5 9.5t-27 2.5q-43 0 -69 -30.5t-26 -88.5h-96zM403 530h621l-309 807z" />
<glyph unicode="&#xc4;" horiz-adv-x="1429" d="M76 0l575 1495h127l576 -1495h-125l-162 418h-707l-159 -418h-125zM403 530h621l-309 807zM449 1802q0 38 26 63t64 25q41 0 64.5 -24.5t23.5 -63.5t-24 -64.5t-64 -25.5q-41 0 -65.5 25.5t-24.5 64.5zM793 1802q0 38 26 63t64 25q41 0 64.5 -24.5t23.5 -63.5t-24 -64.5 t-64 -25.5q-41 0 -65.5 25.5t-24.5 64.5z" />
<glyph unicode="&#xc5;" horiz-adv-x="1429" d="M76 0l549 1427q-55 24 -88 74.5t-33 112.5q0 86 58 145.5t143 59.5q87 0 146.5 -59.5t59.5 -145.5q0 -59 -29.5 -106t-80.5 -74l553 -1434h-125l-162 418h-707l-159 -418h-125zM403 530h621l-309 807zM594 1614q0 -47 33 -79t78 -32q48 0 81 32t33 79t-33.5 79.5 t-80.5 32.5q-45 0 -78 -32.5t-33 -79.5z" />
<glyph unicode="&#xc6;" horiz-adv-x="2123" d="M63 0l758 1495h1149v-113h-993l129 -577h864v-111h-840l130 -581h710v-113h-805l-92 408h-670l-204 -408h-136zM459 516h590l-181 809z" />
<glyph unicode="&#xc7;" horiz-adv-x="1630" d="M109 748q0 209 103 385.5t279.5 279.5t385.5 103q206 0 379.5 -102.5t279.5 -274.5l-102 -60q-87 151 -232 238.5t-325 87.5q-134 0 -254.5 -52.5t-206.5 -141t-136.5 -209.5t-50.5 -254q0 -177 85 -327.5t234.5 -239.5t328.5 -89q195 0 344 92.5t231 251.5l104 -53 q-99 -182 -266.5 -289t-382.5 -114v-89q111 -2 179.5 -45.5t68.5 -115.5q0 -85 -78.5 -140t-195.5 -55q-167 0 -285 109l94 57q47 -41 88 -59.5t103 -18.5q72 0 117.5 29t45.5 74q0 42 -44.5 66t-125.5 24h-67v168q-193 16 -353 121.5t-252.5 275.5t-92.5 367z" />
<glyph unicode="&#xc8;" horiz-adv-x="1202" d="M154 0v1495h915v-113h-797v-577h797v-111h-797v-581h797v-113h-915zM287 1946h151l246 -318h-111z" />
<glyph unicode="&#xc9;" horiz-adv-x="1202" d="M154 0v1495h915v-113h-797v-577h797v-111h-797v-581h797v-113h-915zM518 1628l244 318h153l-286 -318h-111z" />
<glyph unicode="&#xca;" horiz-adv-x="1202" d="M154 0v1495h915v-113h-797v-577h797v-111h-797v-581h797v-113h-915zM309 1628l244 318h100l244 -318h-125l-170 225l-170 -225h-123z" />
<glyph unicode="&#xcb;" horiz-adv-x="1202" d="M154 0v1495h915v-113h-797v-577h797v-111h-797v-581h797v-113h-915zM348 1802q0 38 26 63t64 25q41 0 64.5 -24.5t23.5 -63.5t-24 -64.5t-64 -25.5q-41 0 -65.5 25.5t-24.5 64.5zM692 1802q0 38 26 63t64 25q41 0 64.5 -24.5t23.5 -63.5t-24 -64.5t-64 -25.5 q-41 0 -65.5 25.5t-24.5 64.5z" />
<glyph unicode="&#xcc;" horiz-adv-x="464" d="M-109 1946h152l246 -318h-111zM174 0v1495h117v-1495h-117z" />
<glyph unicode="&#xcd;" horiz-adv-x="464" d="M170 1628l244 318h153l-286 -318h-111zM174 0v1495h117v-1495h-117z" />
<glyph unicode="&#xce;" horiz-adv-x="464" d="M-63 1628l243 318h101l243 -318h-125l-170 225l-170 -225h-122zM174 0v1495h117v-1495h-117z" />
<glyph unicode="&#xcf;" horiz-adv-x="464" d="M-31 1638v285h115v-285h-115zM174 0v1495h117v-1495h-117zM379 1638v285h115v-285h-115z" />
<glyph unicode="&#xd0;" horiz-adv-x="1497" d="M45 698v115h154v682h415q223 0 401 -98t277 -268.5t99 -380.5q0 -157 -60 -296t-162.5 -238t-246 -156.5t-304.5 -57.5h-419v698h-154zM317 111h291q140 0 263.5 49t211 133.5t138.5 202.5t51 252q0 133 -50 251t-137 203t-212 134.5t-269 49.5h-287v-573h474v-115h-474 v-587z" />
<glyph unicode="&#xd1;" horiz-adv-x="1519" d="M154 0v1495h131l962 -1311v1311h119v-1495h-127l-967 1317v-1317h-118zM403 1628q0 102 52.5 161.5t138.5 59.5q74 0 176 -61q3 -2 21 -13t22.5 -13.5t20 -11t22.5 -11.5t19.5 -7.5t22.5 -6t20 -1.5q102 0 102 119h94q0 -105 -50.5 -164t-143.5 -59q-12 0 -24 1.5 t-21.5 3t-21.5 5t-19.5 6t-20 8.5t-18 8.5t-18 9.5t-16.5 9.5t-17.5 10.5t-16.5 10q-7 4 -26 15.5t-27.5 16t-24 11.5t-28.5 9.5t-27 2.5q-43 0 -68.5 -30.5t-25.5 -88.5h-97z" />
<glyph unicode="&#xd2;" horiz-adv-x="1751" d="M109 748q0 209 103 385.5t279.5 279.5t385.5 103t385.5 -103t279.5 -279.5t103 -385.5t-103 -385.5t-279.5 -279.5t-385.5 -103t-385.5 103t-279.5 279.5t-103 385.5zM229 748q0 -177 85 -327.5t234.5 -239.5t328.5 -89q180 0 328.5 89t232.5 239.5t84 327.5 q0 179 -84 329t-232.5 238t-328.5 88q-134 0 -254.5 -52t-206.5 -139.5t-136.5 -208.5t-50.5 -255zM528 1946h152l246 -318h-111z" />
<glyph unicode="&#xd3;" horiz-adv-x="1751" d="M109 748q0 209 103 385.5t279.5 279.5t385.5 103t385.5 -103t279.5 -279.5t103 -385.5t-103 -385.5t-279.5 -279.5t-385.5 -103t-385.5 103t-279.5 279.5t-103 385.5zM229 748q0 -177 85 -327.5t234.5 -239.5t328.5 -89q180 0 328.5 89t232.5 239.5t84 327.5 q0 179 -84 329t-232.5 238t-328.5 88q-134 0 -254.5 -52t-206.5 -139.5t-136.5 -208.5t-50.5 -255zM801 1628l243 318h154l-287 -318h-110z" />
<glyph unicode="&#xd4;" horiz-adv-x="1751" d="M109 748q0 209 103 385.5t279.5 279.5t385.5 103t385.5 -103t279.5 -279.5t103 -385.5t-103 -385.5t-279.5 -279.5t-385.5 -103t-385.5 103t-279.5 279.5t-103 385.5zM229 748q0 -177 85 -327.5t234.5 -239.5t328.5 -89q180 0 328.5 89t232.5 239.5t84 327.5 q0 179 -84 329t-232.5 238t-328.5 88q-134 0 -254.5 -52t-206.5 -139.5t-136.5 -208.5t-50.5 -255zM573 1628l244 318h101l243 -318h-125l-170 225l-170 -225h-123z" />
<glyph unicode="&#xd5;" horiz-adv-x="1751" d="M109 748q0 209 103 385.5t279.5 279.5t385.5 103t385.5 -103t279.5 -279.5t103 -385.5t-103 -385.5t-279.5 -279.5t-385.5 -103t-385.5 103t-279.5 279.5t-103 385.5zM229 748q0 -177 85 -327.5t234.5 -239.5t328.5 -89q180 0 328.5 89t232.5 239.5t84 327.5 q0 179 -84 329t-232.5 238t-328.5 88q-134 0 -254.5 -52t-206.5 -139.5t-136.5 -208.5t-50.5 -255zM508 1628q0 102 52 161.5t138 59.5q74 0 176 -61q3 -2 21 -13t22.5 -13.5t20 -11t22.5 -11.5t19.5 -7.5t22.5 -6t20 -1.5q102 0 102 119h95q0 -105 -51 -164t-144 -59 q-12 0 -24 1.5t-21.5 3t-21.5 5t-19.5 6t-20 8.5t-18 8.5t-18 9.5t-16.5 9.5t-17.5 10.5t-16.5 10q-7 4 -26 15.5t-27.5 16t-24 11.5t-28.5 9.5t-27 2.5q-43 0 -68.5 -30.5t-25.5 -88.5h-96z" />
<glyph unicode="&#xd6;" horiz-adv-x="1751" d="M109 748q0 209 103 385.5t279.5 279.5t385.5 103t385.5 -103t279.5 -279.5t103 -385.5t-103 -385.5t-279.5 -279.5t-385.5 -103t-385.5 103t-279.5 279.5t-103 385.5zM229 748q0 -177 85 -327.5t234.5 -239.5t328.5 -89q180 0 328.5 89t232.5 239.5t84 327.5 q0 179 -84 329t-232.5 238t-328.5 88q-134 0 -254.5 -52t-206.5 -139.5t-136.5 -208.5t-50.5 -255zM610 1802q0 38 26 63t64 25q41 0 64.5 -24.5t23.5 -63.5t-24 -64.5t-64 -25.5q-41 0 -65.5 25.5t-24.5 64.5zM954 1802q0 38 26 63t64 25q41 0 65 -24.5t24 -63.5 t-24.5 -64.5t-64.5 -25.5q-41 0 -65.5 25.5t-24.5 64.5z" />
<glyph unicode="&#xd7;" horiz-adv-x="972" d="M156 483l262 262l-262 265l69 69l262 -264l263 262l69 -69l-262 -263l262 -260l-69 -69l-263 260l-262 -262z" />
<glyph unicode="&#xd8;" horiz-adv-x="1751" d="M109 748q0 209 103 385.5t279.5 279.5t385.5 103q229 0 415 -123l78 102h139l-129 -170q126 -108 195.5 -256t69.5 -321q0 -209 -103 -385.5t-279.5 -279.5t-385.5 -103q-231 0 -416 120l-76 -100h-139l127 168q-125 108 -194.5 257t-69.5 323zM229 748q0 -144 55.5 -270 t155.5 -218l785 1040q-156 103 -348 103q-134 0 -254.5 -52t-206.5 -139.5t-136.5 -208.5t-50.5 -255zM528 193q160 -101 349 -101q180 0 328.5 89t232.5 239.5t84 327.5q0 143 -55 267t-156 218z" />
<glyph unicode="&#xd9;" horiz-adv-x="1312" d="M147 487v1008h119v-1014q0 -162 112 -275.5t277 -113.5q164 0 278 114t114 277v1012h118v-1008q0 -215 -146.5 -361t-363.5 -146t-362.5 146t-145.5 361zM322 1946h151l246 -318h-111z" />
<glyph unicode="&#xda;" horiz-adv-x="1312" d="M147 487v1008h119v-1014q0 -162 112 -275.5t277 -113.5q164 0 278 114t114 277v1012h118v-1008q0 -215 -146.5 -361t-363.5 -146t-362.5 146t-145.5 361zM573 1628l244 318h154l-287 -318h-111z" />
<glyph unicode="&#xdb;" horiz-adv-x="1312" d="M147 487v1008h119v-1014q0 -162 112 -275.5t277 -113.5q164 0 278 114t114 277v1012h118v-1008q0 -215 -146.5 -361t-363.5 -146t-362.5 146t-145.5 361zM356 1628l244 318h100l244 -318h-125l-170 225l-170 -225h-123z" />
<glyph unicode="&#xdc;" horiz-adv-x="1312" d="M147 487v1008h119v-1014q0 -162 112 -275.5t277 -113.5q164 0 278 114t114 277v1012h118v-1008q0 -215 -146.5 -361t-363.5 -146t-362.5 146t-145.5 361zM393 1802q0 38 26 63t64 25q41 0 64.5 -24.5t23.5 -63.5t-24 -64.5t-64 -25.5q-41 0 -65.5 25.5t-24.5 64.5z M737 1802q0 38 26 63t64 25q41 0 64.5 -24.5t23.5 -63.5t-24 -64.5t-64 -25.5q-41 0 -65.5 25.5t-24.5 64.5z" />
<glyph unicode="&#xdd;" horiz-adv-x="1253" d="M68 1495h133l426 -672l426 672h133l-498 -780v-715h-119v711zM557 1628l244 318h153l-286 -318h-111z" />
<glyph unicode="&#xde;" horiz-adv-x="1169" d="M150 0v1495h118v-313h322q209 0 336 -116t127 -302q0 -185 -126.5 -302.5t-336.5 -117.5h-322v-344h-118zM268 453h314q162 0 256 86t94 225q0 137 -94 222t-256 85h-314v-618z" />
<glyph unicode="&#xdf;" horiz-adv-x="1314" d="M-123 -438q165 0 231 78t66 249v1414q0 203 129 333.5t332 130.5q200 0 331.5 -129t131.5 -321q0 -132 -66 -233.5t-180 -153.5q158 -50 250 -169t92 -282q0 -214 -137 -354.5t-355 -140.5q-153 0 -249 57l10 111q97 -60 239 -60q154 0 263.5 113.5t109.5 273.5 q0 163 -116.5 273t-303.5 110h-43v111h43q128 0 226 99.5t98 248.5q0 142 -98.5 244t-245.5 102q-146 0 -247 -97t-101 -253v-1423q0 -231 -90.5 -337t-298.5 -106h-21v111z" />
<glyph unicode="&#xe0;" horiz-adv-x="1529" d="M121 598q0 170 80.5 313.5t222.5 227.5t315 84q153 0 293.5 -80.5t208.5 -220.5v276h115v-1198h-115v274q-68 -140 -208 -219.5t-294 -79.5q-172 0 -314.5 84t-223 227t-80.5 312zM240 598q0 -106 39.5 -201t106.5 -163.5t160 -109t197 -40.5q106 0 200.5 40t162.5 109 t107.5 164t39.5 201q0 141 -67 259.5t-184.5 187.5t-258.5 69q-104 0 -197 -40.5t-160 -109.5t-106.5 -164.5t-39.5 -201.5zM418 1669h151l246 -317h-110z" />
<glyph unicode="&#xe1;" horiz-adv-x="1529" d="M121 598q0 170 80.5 313.5t222.5 227.5t315 84q153 0 293.5 -80.5t208.5 -220.5v276h115v-1198h-115v274q-68 -140 -208 -219.5t-294 -79.5q-172 0 -314.5 84t-223 227t-80.5 312zM240 598q0 -106 39.5 -201t106.5 -163.5t160 -109t197 -40.5q106 0 200.5 40t162.5 109 t107.5 164t39.5 201q0 141 -67 259.5t-184.5 187.5t-258.5 69q-104 0 -197 -40.5t-160 -109.5t-106.5 -164.5t-39.5 -201.5zM664 1352l243 317h154l-287 -317h-110z" />
<glyph unicode="&#xe2;" horiz-adv-x="1529" d="M121 598q0 170 80.5 313.5t222.5 227.5t315 84q153 0 293.5 -80.5t208.5 -220.5v276h115v-1198h-115v274q-68 -140 -208 -219.5t-294 -79.5q-172 0 -314.5 84t-223 227t-80.5 312zM240 598q0 -106 39.5 -201t106.5 -163.5t160 -109t197 -40.5q106 0 200.5 40t162.5 109 t107.5 164t39.5 201q0 141 -67 259.5t-184.5 187.5t-258.5 69q-104 0 -197 -40.5t-160 -109.5t-106.5 -164.5t-39.5 -201.5zM442 1339l244 318h100l244 -318h-125l-170 226l-170 -226h-123z" />
<glyph unicode="&#xe3;" horiz-adv-x="1529" d="M121 598q0 170 80.5 313.5t222.5 227.5t315 84q153 0 293.5 -80.5t208.5 -220.5v276h115v-1198h-115v274q-68 -140 -208 -219.5t-294 -79.5q-172 0 -314.5 84t-223 227t-80.5 312zM240 598q0 -106 39.5 -201t106.5 -163.5t160 -109t197 -40.5q106 0 200.5 40t162.5 109 t107.5 164t39.5 201q0 141 -67 259.5t-184.5 187.5t-258.5 69q-104 0 -197 -40.5t-160 -109.5t-106.5 -164.5t-39.5 -201.5zM399 1352q0 102 52.5 161.5t138.5 59.5q46 0 85.5 -15.5t90.5 -46.5q3 -2 18.5 -11.5t19.5 -12t17.5 -10t19.5 -10t17 -7.5t19 -7t17.5 -3.5 t18.5 -1.5q103 0 103 119h94q0 -105 -51 -164.5t-144 -59.5q-28 0 -56 6.5t-49.5 17t-44.5 23.5t-42 25q-7 4 -26 15.5t-27.5 16t-24 11.5t-28.5 9.5t-27 2.5q-43 0 -68.5 -30t-25.5 -88h-97z" />
<glyph unicode="&#xe4;" horiz-adv-x="1529" d="M121 598q0 170 80.5 313.5t222.5 227.5t315 84q153 0 293.5 -80.5t208.5 -220.5v276h115v-1198h-115v274q-68 -140 -208 -219.5t-294 -79.5q-172 0 -314.5 84t-223 227t-80.5 312zM240 598q0 -106 39.5 -201t106.5 -163.5t160 -109t197 -40.5q106 0 200.5 40t162.5 109 t107.5 164t39.5 201q0 141 -67 259.5t-184.5 187.5t-258.5 69q-104 0 -197 -40.5t-160 -109.5t-106.5 -164.5t-39.5 -201.5zM475 1434q0 38 26 63t64 25q41 0 64.5 -24.5t23.5 -63.5t-24 -65t-64 -26t-65 26t-25 65zM819 1434q0 38 26 63t64 25q41 0 64.5 -24.5t23.5 -63.5 t-24 -65t-64 -26t-65 26t-25 65z" />
<glyph unicode="&#xe5;" horiz-adv-x="1529" d="M121 598q0 170 80.5 313.5t222.5 227.5t315 84q153 0 293.5 -80.5t208.5 -220.5v276h115v-1198h-115v274q-68 -140 -208 -219.5t-294 -79.5q-172 0 -314.5 84t-223 227t-80.5 312zM240 598q0 -106 39.5 -201t106.5 -163.5t160 -109t197 -40.5q106 0 200.5 40t162.5 109 t107.5 164t39.5 201q0 141 -67 259.5t-184.5 187.5t-258.5 69q-104 0 -197 -40.5t-160 -109.5t-106.5 -164.5t-39.5 -201.5zM547 1544q0 86 58 145.5t143 59.5q88 0 147 -59.5t59 -145.5t-59 -144.5t-147 -58.5q-85 0 -143 58.5t-58 144.5zM637 1544q0 -46 33 -78t78 -32 q48 0 81 31.5t33 78.5t-33.5 80t-80.5 33q-45 0 -78 -33t-33 -80z" />
<glyph unicode="&#xe6;" horiz-adv-x="2349" d="M123 297q-2 69 21.5 124t62.5 93t100.5 68t123 48t142.5 34q29 6 81.5 17t81 17t72 17.5t67.5 21.5t54 25.5t45 32.5t25.5 40.5t10.5 51.5q0 109 -91.5 174t-269.5 65q-185 0 -289 -88.5t-104 -234.5v-8h-111v4q0 191 137.5 307.5t364.5 116.5q191 0 306 -66t151 -186 q86 119 216.5 185.5t287.5 66.5q173 0 314 -78.5t221.5 -219t80.5 -315.5v-41h-1124q8 -209 154.5 -348t361.5 -139q179 0 305 94t174 252l107 -47q-62 -188 -217.5 -297t-368.5 -109q-185 0 -327 80.5t-222 220.5q-42 -77 -111.5 -142t-180.5 -112t-238 -47 q-108 0 -189.5 25.5t-129.5 70.5t-71.5 102t-23.5 124zM242 299q0 -100 73 -161.5t226 -61.5q91 0 172.5 29t139.5 76.5t98.5 100t64.5 107.5q-31 98 -31 205q0 61 8 108q-36 -44 -112.5 -68.5t-240.5 -56.5q-4 -1 -7 -1.5t-7 -1t-8 -1.5q-72 -13 -123.5 -26.5t-102 -35 t-81.5 -49.5t-50 -69t-19 -94zM1106 676h995q-20 197 -155 318.5t-338 121.5q-195 0 -333.5 -124.5t-168.5 -315.5z" />
<glyph unicode="&#xe7;" horiz-adv-x="1427" d="M121 598q0 173 83 317t226 226t315 82q193 0 347 -101.5t221 -267.5l-109 -45q-61 143 -181 224t-278 81q-214 0 -359.5 -150t-145.5 -366q0 -106 39.5 -201t107 -164t162.5 -109t201 -40q161 0 280 85.5t178 229.5l111 -47q-71 -167 -217.5 -270t-339.5 -107v-96 q111 -2 179.5 -46t68.5 -116q0 -85 -79 -139.5t-196 -54.5q-167 0 -284 108l94 58q48 -41 88 -59.5t102 -18.5q72 0 118 29t46 73q0 42 -44.5 66t-125.5 24h-67v179q-234 29 -387.5 204t-153.5 412z" />
<glyph unicode="&#xe8;" horiz-adv-x="1478" d="M121 594q0 175 80.5 319t223.5 227t318 83q173 0 312.5 -78.5t219 -218.5t79.5 -314v-53h-1121q12 -209 153.5 -343t363.5 -134q173 0 291 83t180 236l104 -49q-164 -377 -575 -377q-189 0 -333.5 82.5t-220 222.5t-75.5 314zM238 668h997q-17 199 -152.5 323.5 t-339.5 124.5q-197 0 -338.5 -127.5t-166.5 -320.5zM434 1669h152l245 -317h-110z" />
<glyph unicode="&#xe9;" horiz-adv-x="1478" d="M121 594q0 175 80.5 319t223.5 227t318 83q173 0 312.5 -78.5t219 -218.5t79.5 -314v-53h-1121q12 -209 153.5 -343t363.5 -134q173 0 291 83t180 236l104 -49q-164 -377 -575 -377q-189 0 -333.5 82.5t-220 222.5t-75.5 314zM238 668h997q-17 199 -152.5 323.5 t-339.5 124.5q-197 0 -338.5 -127.5t-166.5 -320.5zM688 1352l244 317h153l-286 -317h-111z" />
<glyph unicode="&#xea;" horiz-adv-x="1478" d="M121 594q0 175 80.5 319t223.5 227t318 83q173 0 312.5 -78.5t219 -218.5t79.5 -314v-53h-1121q12 -209 153.5 -343t363.5 -134q173 0 291 83t180 236l104 -49q-164 -377 -575 -377q-189 0 -333.5 82.5t-220 222.5t-75.5 314zM238 668h997q-17 199 -152.5 323.5 t-339.5 124.5q-197 0 -338.5 -127.5t-166.5 -320.5zM461 1343l244 318h100l244 -318h-125l-170 226l-170 -226h-123z" />
<glyph unicode="&#xeb;" horiz-adv-x="1478" d="M121 594q0 175 80.5 319t223.5 227t318 83q173 0 312.5 -78.5t219 -218.5t79.5 -314v-53h-1121q12 -209 153.5 -343t363.5 -134q173 0 291 83t180 236l104 -49q-164 -377 -575 -377q-189 0 -333.5 82.5t-220 222.5t-75.5 314zM238 668h997q-17 199 -152.5 323.5 t-339.5 124.5q-197 0 -338.5 -127.5t-166.5 -320.5zM487 1432q0 38 26 63t65 25q41 0 64.5 -24.5t23.5 -63.5t-24 -65t-64 -26q-41 0 -66 26t-25 65zM831 1432q0 38 26 63t65 25q41 0 64.5 -24.5t23.5 -63.5t-24 -65t-64 -26q-41 0 -66 26t-25 65z" />
<glyph unicode="&#xec;" horiz-adv-x="462" d="M-111 1649h152l246 -318h-111zM174 0v1198h117v-1198h-117z" />
<glyph unicode="&#xed;" horiz-adv-x="462" d="M174 0v1198h117v-1198h-117zM180 1331l244 318h154l-287 -318h-111z" />
<glyph unicode="&#xee;" horiz-adv-x="462" d="M-61 1294l243 318h101l243 -318h-125l-170 226l-170 -226h-122zM174 0v1198h117v-1198h-117z" />
<glyph unicode="&#xef;" horiz-adv-x="462" d="M-57 1331v336h114v-336h-114zM174 0v1198h117v-1198h-117zM403 1331v336h117v-336h-117z" />
<glyph unicode="&#xf0;" horiz-adv-x="1472" d="M125 586q0 166 80.5 305t218 219t299.5 80q265 0 410 -189q-112 224 -388 476l-237 -156h-176l338 221q-90 77 -264 207h180q119 -92 178 -143l217 143h174l-317 -211q261 -240 384.5 -472.5t123.5 -479.5q0 -165 -81 -303.5t-221.5 -218.5t-308.5 -80q-166 0 -306 79 t-222 217.5t-82 305.5zM246 586q0 -134 66 -247.5t179 -180t246 -66.5q134 0 247 66.5t178 180t65 247.5q0 203 -143.5 348t-346.5 145q-133 0 -246 -66t-179 -179.5t-66 -247.5z" />
<glyph unicode="&#xf1;" horiz-adv-x="1447" d="M174 0v1198h113v-244q62 122 183.5 195.5t277.5 73.5q241 0 386.5 -148.5t145.5 -402.5v-672h-117v674q0 201 -115 320.5t-315 119.5q-189 0 -315.5 -126.5t-126.5 -315.5v-672h-117zM385 1352q0 102 52 161.5t138 59.5q74 0 177 -62q3 -2 18.5 -11.5t19.5 -12t17.5 -10 t19.5 -10t17 -7.5t19 -7t17.5 -3.5t18.5 -1.5q102 0 102 119h95q0 -105 -51 -164.5t-144 -59.5q-13 0 -25.5 1t-25 4.5t-22 5.5t-22.5 8t-20 9t-21 11t-18.5 10.5t-19.5 11.5t-18 11q-6 3 -26.5 15.5t-28 16.5t-23.5 11t-29 9.5t-27 2.5q-43 0 -68.5 -30t-25.5 -88h-96z" />
<glyph unicode="&#xf2;" horiz-adv-x="1486" d="M121 598q0 129 49 245t132.5 199t198.5 132t242 49t242 -49t198.5 -132t133 -199t49.5 -245q0 -172 -83.5 -315.5t-226.5 -225.5t-313 -82q-127 0 -242 48.5t-198.5 131.5t-132.5 198.5t-49 244.5zM240 598q0 -142 66 -260t181.5 -186t255.5 -68q138 0 253.5 68 t182 186.5t66.5 259.5t-66.5 260t-182 187.5t-253.5 68.5q-140 0 -255.5 -69t-181.5 -187t-66 -260zM408 1669h151l246 -317h-111z" />
<glyph unicode="&#xf3;" horiz-adv-x="1486" d="M121 598q0 129 49 245t132.5 199t198.5 132t242 49t242 -49t198.5 -132t133 -199t49.5 -245q0 -172 -83.5 -315.5t-226.5 -225.5t-313 -82q-127 0 -242 48.5t-198.5 131.5t-132.5 198.5t-49 244.5zM240 598q0 -142 66 -260t181.5 -186t255.5 -68q138 0 253.5 68 t182 186.5t66.5 259.5t-66.5 260t-182 187.5t-253.5 68.5q-140 0 -255.5 -69t-181.5 -187t-66 -260zM690 1352l244 317h153l-286 -317h-111z" />
<glyph unicode="&#xf4;" horiz-adv-x="1486" d="M121 598q0 129 49 245t132.5 199t198.5 132t242 49t242 -49t198.5 -132t133 -199t49.5 -245q0 -172 -83.5 -315.5t-226.5 -225.5t-313 -82q-127 0 -242 48.5t-198.5 131.5t-132.5 198.5t-49 244.5zM240 598q0 -142 66 -260t181.5 -186t255.5 -68q138 0 253.5 68 t182 186.5t66.5 259.5t-66.5 260t-182 187.5t-253.5 68.5q-140 0 -255.5 -69t-181.5 -187t-66 -260zM449 1343l243 318h101l243 -318h-125l-170 226l-170 -226h-122z" />
<glyph unicode="&#xf5;" horiz-adv-x="1486" d="M121 598q0 129 49 245t132.5 199t198.5 132t242 49t242 -49t198.5 -132t133 -199t49.5 -245q0 -172 -83.5 -315.5t-226.5 -225.5t-313 -82q-127 0 -242 48.5t-198.5 131.5t-132.5 198.5t-49 244.5zM240 598q0 -142 66 -260t181.5 -186t255.5 -68q138 0 253.5 68 t182 186.5t66.5 259.5t-66.5 260t-182 187.5t-253.5 68.5q-140 0 -255.5 -69t-181.5 -187t-66 -260zM389 1352q0 102 52.5 161.5t138.5 59.5q46 0 85.5 -15.5t90.5 -46.5q3 -2 18.5 -11.5t19.5 -12t17.5 -10t19.5 -10t17 -7.5t19 -7t17.5 -3.5t18.5 -1.5q103 0 103 119h94 q0 -105 -51 -164.5t-144 -59.5q-28 0 -56 6.5t-49.5 17t-44.5 23.5t-42 25q-7 4 -26 15.5t-27.5 16t-24 11.5t-28.5 9.5t-27 2.5q-43 0 -69 -30t-26 -88h-96z" />
<glyph unicode="&#xf6;" horiz-adv-x="1486" d="M121 598q0 129 49 245t132.5 199t198.5 132t242 49t242 -49t198.5 -132t133 -199t49.5 -245q0 -172 -83.5 -315.5t-226.5 -225.5t-313 -82q-127 0 -242 48.5t-198.5 131.5t-132.5 198.5t-49 244.5zM240 598q0 -142 66 -260t181.5 -186t255.5 -68q138 0 253.5 68 t182 186.5t66.5 259.5t-66.5 260t-182 187.5t-253.5 68.5q-140 0 -255.5 -69t-181.5 -187t-66 -260zM483 1430q0 38 26 63t64 25q41 0 65 -24.5t24 -63.5t-24.5 -65t-64.5 -26t-65 26t-25 65zM827 1430q0 38 26 63t65 25q41 0 64.5 -24.5t23.5 -63.5t-24 -65t-64 -26 q-41 0 -66 26t-25 65z" />
<glyph unicode="&#xf7;" horiz-adv-x="972" d="M109 696v103h757v-103h-757zM436 334v248h103v-248h-103zM436 909v250h103v-250h-103z" />
<glyph unicode="&#xf8;" horiz-adv-x="1486" d="M121 598q0 129 49 245t132.5 199t198.5 132t242 49q175 0 330 -95l51 70h133l-100 -133q100 -87 154.5 -207.5t54.5 -259.5q0 -172 -83.5 -315.5t-226.5 -225.5t-313 -82q-176 0 -331 95l-52 -70h-129l97 131q-98 88 -152.5 208t-54.5 259zM240 598q0 -223 157 -377 l609 817q-116 76 -263 76q-140 0 -255.5 -69t-181.5 -187t-66 -260zM479 158q120 -74 264 -74q138 0 253.5 68t182 186.5t66.5 259.5q0 108 -41 205t-114 170z" />
<glyph unicode="&#xf9;" horiz-adv-x="1447" d="M168 526v672h119v-674q0 -202 114 -321t314 -119q189 0 316.5 126.5t127.5 315.5v672h117v-1198h-115v244q-62 -122 -181 -195.5t-273 -73.5q-252 0 -395.5 147t-143.5 404zM389 1645h152l245 -318h-110z" />
<glyph unicode="&#xfa;" horiz-adv-x="1447" d="M168 526v672h119v-674q0 -202 114 -321t314 -119q189 0 316.5 126.5t127.5 315.5v672h117v-1198h-115v244q-62 -122 -181 -195.5t-273 -73.5q-252 0 -395.5 147t-143.5 404zM643 1313l244 317h153l-286 -317h-111z" />
<glyph unicode="&#xfb;" horiz-adv-x="1447" d="M168 526v672h119v-674q0 -202 114 -321t314 -119q189 0 316.5 126.5t127.5 315.5v672h117v-1198h-115v244q-62 -122 -181 -195.5t-273 -73.5q-252 0 -395.5 147t-143.5 404zM430 1331l244 318h100l244 -318h-125l-170 225l-170 -225h-123z" />
<glyph unicode="&#xfc;" horiz-adv-x="1447" d="M168 526v672h119v-674q0 -202 114 -321t314 -119q189 0 316.5 126.5t127.5 315.5v672h117v-1198h-115v244q-62 -122 -181 -195.5t-273 -73.5q-252 0 -395.5 147t-143.5 404zM461 1419q0 38 26 63t64 25q41 0 64.5 -24.5t23.5 -63.5t-24 -64.5t-64 -25.5q-41 0 -65.5 25.5 t-24.5 64.5zM805 1419q0 38 26 63t64 25q41 0 64.5 -24.5t23.5 -63.5t-24 -64.5t-64 -25.5q-41 0 -65.5 25.5t-24.5 64.5z" />
<glyph unicode="&#xfd;" horiz-adv-x="1339" d="M88 1198h131l469 -997l438 997h127l-782 -1751h-127l281 621zM604 1292l244 318h153l-286 -318h-111z" />
<glyph unicode="&#xfe;" horiz-adv-x="1529" d="M176 -551v2300h115v-819q67 135 207.5 214t292.5 79q173 0 315 -84t222.5 -227.5t80.5 -313.5q0 -126 -48 -241t-130 -199t-197 -133.5t-243 -49.5q-152 0 -292 78.5t-208 214.5v-819h-115zM276 598q0 -106 39.5 -201t107 -164t162.5 -109t201 -40q138 0 253.5 68 t182 186.5t66.5 259.5t-66.5 260t-182 187.5t-253.5 68.5q-215 0 -362.5 -150.5t-147.5 -365.5z" />
<glyph unicode="&#xff;" horiz-adv-x="1339" d="M88 1198h131l469 -997l438 997h127l-782 -1751h-127l281 621zM418 1403q0 38 26 63t64 25q41 0 64.5 -24.5t23.5 -63.5t-24 -64.5t-64 -25.5q-41 0 -65.5 25.5t-24.5 64.5zM762 1403q0 38 26 63t64 25q41 0 64.5 -24.5t23.5 -63.5t-24 -64.5t-64 -25.5q-41 0 -65.5 25.5 t-24.5 64.5z" />
<glyph unicode="&#x100;" horiz-adv-x="1429" d="M76 0l575 1495h127l576 -1495h-125l-162 418h-707l-159 -418h-125zM403 530h621l-309 807zM438 1628v103h541v-103h-541z" />
<glyph unicode="&#x101;" horiz-adv-x="1529" d="M121 598q0 170 80.5 313.5t222.5 227.5t315 84q153 0 293.5 -80.5t208.5 -220.5v276h115v-1198h-115v274q-68 -140 -208 -219.5t-294 -79.5q-172 0 -314.5 84t-223 227t-80.5 312zM240 598q0 -106 39.5 -201t106.5 -163.5t160 -109t197 -40.5q106 0 200.5 40t162.5 109 t107.5 164t39.5 201q0 141 -67 259.5t-184.5 187.5t-258.5 69q-104 0 -197 -40.5t-160 -109.5t-106.5 -164.5t-39.5 -201.5zM471 1364v102h541v-102h-541z" />
<glyph unicode="&#x102;" horiz-adv-x="1429" d="M76 0l575 1495h127l576 -1495h-125l-162 418h-707l-159 -418h-125zM375 1942h100q0 -102 59.5 -167t170.5 -65q107 0 167 65.5t60 166.5h104q0 -133 -90.5 -227.5t-240.5 -94.5q-160 0 -245 92.5t-85 229.5zM403 530h621l-309 807z" />
<glyph unicode="&#x103;" horiz-adv-x="1529" d="M121 598q0 170 80.5 313.5t222.5 227.5t315 84q153 0 293.5 -80.5t208.5 -220.5v276h115v-1198h-115v274q-68 -140 -208 -219.5t-294 -79.5q-172 0 -314.5 84t-223 227t-80.5 312zM240 598q0 -106 39.5 -201t106.5 -163.5t160 -109t197 -40.5q106 0 200.5 40t162.5 109 t107.5 164t39.5 201q0 141 -67 259.5t-184.5 187.5t-258.5 69q-104 0 -197 -40.5t-160 -109.5t-106.5 -164.5t-39.5 -201.5zM416 1667h100q0 -102 59 -166.5t170 -64.5q107 0 167.5 65.5t60.5 165.5h104q0 -133 -91 -227t-241 -94q-160 0 -244.5 92t-84.5 229z" />
<glyph unicode="&#x104;" horiz-adv-x="1429" d="M76 0l575 1495h127l576 -1495q-148 -82 -199 -128t-51 -97q0 -49 40.5 -77t104.5 -28q52 0 92 20.5t84 59.5l93 -63q-55 -49 -125.5 -81t-143.5 -32q-118 0 -191 55t-73 140q0 72 53.5 135t178.5 127l-150 387h-707l-159 -418h-125zM403 530h621l-309 807z" />
<glyph unicode="&#x105;" horiz-adv-x="1529" d="M121 598q0 170 80.5 313.5t222.5 227.5t315 84q153 0 293.5 -80.5t208.5 -220.5v276h115v-1198q-168 -134 -168 -236q0 -50 33 -80t88 -30q46 0 79.5 16t69.5 49l68 -81q-102 -84 -217 -84q-113 0 -172.5 58t-59.5 148q0 130 164 267v247q-68 -140 -208 -219.5 t-294 -79.5q-172 0 -314.5 84t-223 227t-80.5 312zM240 598q0 -106 39.5 -201t106.5 -163.5t160 -109t197 -40.5q106 0 200.5 40t162.5 109t107.5 164t39.5 201q0 141 -67 259.5t-184.5 187.5t-258.5 69q-104 0 -197 -40.5t-160 -109.5t-106.5 -164.5t-39.5 -201.5z" />
<glyph unicode="&#x106;" horiz-adv-x="1630" d="M109 748q0 209 103 385.5t279.5 279.5t385.5 103q206 0 379.5 -102.5t279.5 -274.5l-102 -60q-87 151 -232 238.5t-325 87.5q-134 0 -254.5 -52.5t-206.5 -141t-136.5 -209.5t-50.5 -254q0 -177 85 -327.5t234.5 -239.5t328.5 -89q195 0 344 92.5t231 251.5l104 -53 q-101 -186 -278.5 -294.5t-400.5 -108.5q-209 0 -385.5 103t-279.5 279.5t-103 385.5zM807 1628l244 318h153l-286 -318h-111z" />
<glyph unicode="&#x107;" horiz-adv-x="1427" d="M121 598q0 173 83 317t226 226t315 82q193 0 347 -101.5t221 -267.5l-109 -45q-61 143 -181 224t-278 81q-214 0 -359.5 -150t-145.5 -366q0 -106 39.5 -201t107 -164t162.5 -109t201 -40q161 0 280 85.5t178 229.5l111 -47q-73 -171 -222 -274t-349 -103 q-130 0 -247 49.5t-200 133t-131.5 198.5t-48.5 242zM676 1352l244 317h153l-287 -317h-110z" />
<glyph unicode="&#x108;" horiz-adv-x="1630" d="M109 748q0 209 103 385.5t279.5 279.5t385.5 103q206 0 379.5 -102.5t279.5 -274.5l-102 -60q-87 151 -232 238.5t-325 87.5q-134 0 -254.5 -52.5t-206.5 -141t-136.5 -209.5t-50.5 -254q0 -177 85 -327.5t234.5 -239.5t328.5 -89q195 0 344 92.5t231 251.5l104 -53 q-101 -186 -278.5 -294.5t-400.5 -108.5q-209 0 -385.5 103t-279.5 279.5t-103 385.5zM580 1628l243 318h101l243 -318h-125l-170 225l-170 -225h-122z" />
<glyph unicode="&#x109;" horiz-adv-x="1427" d="M121 598q0 173 83 317t226 226t315 82q193 0 347 -101.5t221 -267.5l-109 -45q-61 143 -181 224t-278 81q-214 0 -359.5 -150t-145.5 -366q0 -106 39.5 -201t107 -164t162.5 -109t201 -40q161 0 280 85.5t178 229.5l111 -47q-73 -171 -222 -274t-349 -103 q-130 0 -247 49.5t-200 133t-131.5 198.5t-48.5 242zM453 1343l243 318h101l243 -318h-125l-170 226l-170 -226h-122z" />
<glyph unicode="&#x10a;" horiz-adv-x="1630" d="M109 748q0 209 103 385.5t279.5 279.5t385.5 103q206 0 379.5 -102.5t279.5 -274.5l-102 -60q-87 151 -232 238.5t-325 87.5q-134 0 -254.5 -52.5t-206.5 -141t-136.5 -209.5t-50.5 -254q0 -177 85 -327.5t234.5 -239.5t328.5 -89q195 0 344 92.5t231 251.5l104 -53 q-101 -186 -278.5 -294.5t-400.5 -108.5q-209 0 -385.5 103t-279.5 279.5t-103 385.5zM788 1802q0 43 29 71t72 28q46 0 73 -27.5t27 -71.5t-27 -72t-73 -28t-73.5 28t-27.5 72z" />
<glyph unicode="&#x10b;" horiz-adv-x="1427" d="M121 598q0 173 83 317t226 226t315 82q193 0 347 -101.5t221 -267.5l-109 -45q-61 143 -181 224t-278 81q-214 0 -359.5 -150t-145.5 -366q0 -106 39.5 -201t107 -164t162.5 -109t201 -40q161 0 280 85.5t178 229.5l111 -47q-73 -171 -222 -274t-349 -103 q-130 0 -247 49.5t-200 133t-131.5 198.5t-48.5 242zM645 1446q0 43 28.5 70.5t71.5 27.5q47 0 74 -27t27 -71t-27.5 -72t-73.5 -28t-73 28t-27 72z" />
<glyph unicode="&#x10c;" horiz-adv-x="1630" d="M109 748q0 209 103 385.5t279.5 279.5t385.5 103q206 0 379.5 -102.5t279.5 -274.5l-102 -60q-87 151 -232 238.5t-325 87.5q-134 0 -254.5 -52.5t-206.5 -141t-136.5 -209.5t-50.5 -254q0 -177 85 -327.5t234.5 -239.5t328.5 -89q195 0 344 92.5t231 251.5l104 -53 q-101 -186 -278.5 -294.5t-400.5 -108.5q-209 0 -385.5 103t-279.5 279.5t-103 385.5zM573 1946h121l166 -234l172 234h121l-242 -318h-98z" />
<glyph unicode="&#x10d;" horiz-adv-x="1427" d="M121 598q0 173 83 317t226 226t315 82q193 0 347 -101.5t221 -267.5l-109 -45q-61 143 -181 224t-278 81q-214 0 -359.5 -150t-145.5 -366q0 -106 39.5 -201t107 -164t162.5 -109t201 -40q161 0 280 85.5t178 229.5l111 -47q-73 -171 -222 -274t-349 -103 q-130 0 -247 49.5t-200 133t-131.5 198.5t-48.5 242zM461 1669h121l166 -233l172 233h120l-241 -317h-99z" />
<glyph unicode="&#x10e;" horiz-adv-x="1456" d="M154 0v1495h419q222 0 399.5 -98t276.5 -268.5t99 -380.5t-101.5 -381.5t-278 -269t-390.5 -97.5h-424zM272 111h297q138 0 260.5 49t209.5 133.5t137.5 202.5t50.5 252t-49 251.5t-135 202.5t-210 134.5t-268 49.5h-293v-1275zM324 1946h120l166 -234l172 234h121 l-241 -318h-99z" />
<glyph unicode="&#x10f;" horiz-adv-x="1544" d="M121 598q0 170 80.5 313.5t222.5 227.5t315 84q152 0 290 -79t210 -216v588h115v-1516h-113v274q-68 -140 -208 -219.5t-294 -79.5q-172 0 -314.5 84t-223 227t-80.5 312zM240 598q0 -106 39.5 -201t106.5 -163.5t160 -109t197 -40.5q106 0 200.5 40t162.5 109t107.5 164 t39.5 201q0 141 -67 259.5t-184.5 187.5t-258.5 69q-104 0 -197 -40.5t-160 -109.5t-106.5 -164.5t-39.5 -201.5zM1454 1163l100 353h113l-129 -353h-84z" />
<glyph unicode="&#x110;" horiz-adv-x="1497" d="M45 698v115h154v682h415q223 0 401 -98t277 -268.5t99 -380.5q0 -157 -60 -296t-162.5 -238t-246 -156.5t-304.5 -57.5h-419v698h-154zM317 111h291q140 0 263.5 49t211 133.5t138.5 202.5t51 252q0 133 -50 251t-137 203t-212 134.5t-269 49.5h-287v-573h474v-115h-474 v-587z" />
<glyph unicode="&#x111;" horiz-adv-x="1556" d="M121 598q0 170 80.5 313.5t222.5 227.5t315 84q152 0 290 -79t210 -216v352h-221v100h221v136h115v-136h137v-100h-137v-1280h-113v274q-68 -140 -208 -219.5t-294 -79.5q-172 0 -314.5 84t-223 227t-80.5 312zM240 598q0 -106 39.5 -201t106.5 -163.5t160 -109 t197 -40.5q106 0 200.5 40t162.5 109t107.5 164t39.5 201q0 141 -67 259.5t-184.5 187.5t-258.5 69q-104 0 -197 -40.5t-160 -109.5t-106.5 -164.5t-39.5 -201.5z" />
<glyph unicode="&#x112;" horiz-adv-x="1202" d="M154 0v1495h915v-113h-797v-577h797v-111h-797v-581h797v-113h-915zM334 1628v103h540v-103h-540z" />
<glyph unicode="&#x113;" horiz-adv-x="1478" d="M121 594q0 175 80.5 319t223.5 227t318 83q173 0 312.5 -78.5t219 -218.5t79.5 -314v-53h-1121q12 -209 153.5 -343t363.5 -134q173 0 291 83t180 236l104 -49q-164 -377 -575 -377q-189 0 -333.5 82.5t-220 222.5t-75.5 314zM238 668h997q-17 199 -152.5 323.5 t-339.5 124.5q-197 0 -338.5 -127.5t-166.5 -320.5zM485 1370v103h541v-103h-541z" />
<glyph unicode="&#x114;" horiz-adv-x="1202" d="M154 0v1495h915v-113h-797v-577h797v-111h-797v-581h797v-113h-915zM281 1942h100q0 -102 59 -167t170 -65q107 0 167.5 65.5t60.5 166.5h104q0 -133 -91 -227.5t-241 -94.5q-160 0 -244.5 92.5t-84.5 229.5z" />
<glyph unicode="&#x115;" horiz-adv-x="1478" d="M121 594q0 175 80.5 319t223.5 227t318 83q173 0 312.5 -78.5t219 -218.5t79.5 -314v-53h-1121q12 -209 153.5 -343t363.5 -134q173 0 291 83t180 236l104 -49q-164 -377 -575 -377q-189 0 -333.5 82.5t-220 222.5t-75.5 314zM238 668h997q-17 199 -152.5 323.5 t-339.5 124.5q-197 0 -338.5 -127.5t-166.5 -320.5zM418 1665h100q0 -102 59.5 -166.5t170.5 -64.5q107 0 167 65t60 166h104q0 -133 -90.5 -227.5t-240.5 -94.5q-160 0 -245 92.5t-85 229.5z" />
<glyph unicode="&#x116;" horiz-adv-x="1202" d="M154 0v1495h915v-113h-797v-577h797v-111h-797v-581h797v-113h-915zM526 1802q0 43 29 71t72 28q46 0 73 -27.5t27 -71.5t-27 -72t-73 -28t-73.5 28t-27.5 72z" />
<glyph unicode="&#x117;" horiz-adv-x="1478" d="M121 594q0 175 80.5 319t223.5 227t318 83q173 0 312.5 -78.5t219 -218.5t79.5 -314v-53h-1121q12 -209 153.5 -343t363.5 -134q173 0 291 83t180 236l104 -49q-164 -377 -575 -377q-189 0 -333.5 82.5t-220 222.5t-75.5 314zM238 668h997q-17 199 -152.5 323.5 t-339.5 124.5q-197 0 -338.5 -127.5t-166.5 -320.5zM647 1450q0 42 29 70t72 28q46 0 73 -27t27 -71t-27 -72t-73 -28t-73.5 28t-27.5 72z" />
<glyph unicode="&#x118;" horiz-adv-x="1202" d="M154 0v1495h915v-113h-797v-577h797v-111h-797v-581h797v-113q-148 -82 -199 -128t-51 -97q0 -49 41 -77t105 -28q52 0 92 20.5t84 59.5l92 -63q-55 -49 -125 -81t-143 -32q-118 0 -191.5 55t-73.5 140q0 130 174 231h-720z" />
<glyph unicode="&#x119;" horiz-adv-x="1478" d="M121 594q0 175 80.5 319t223.5 227t318 83q173 0 312.5 -78.5t219 -218.5t79.5 -314v-53h-1121q12 -209 153.5 -343t363.5 -134q173 0 291 83t180 236l104 -49q-143 -318 -459 -366q-147 -84 -196 -129t-49 -97q0 -48 40.5 -76t104.5 -28q52 0 92 20.5t84 59.5l92 -64 q-54 -49 -124.5 -80.5t-143.5 -31.5q-118 0 -191 54.5t-73 139.5q0 63 37.5 118t126.5 108q-166 16 -291 101.5t-189.5 218.5t-64.5 294zM238 668h997q-17 199 -152.5 323.5t-339.5 124.5q-197 0 -338.5 -127.5t-166.5 -320.5z" />
<glyph unicode="&#x11a;" horiz-adv-x="1202" d="M154 0v1495h915v-113h-797v-577h797v-111h-797v-581h797v-113h-915zM313 1946h121l166 -234l172 234h121l-242 -318h-98z" />
<glyph unicode="&#x11b;" horiz-adv-x="1478" d="M121 594q0 175 80.5 319t223.5 227t318 83q173 0 312.5 -78.5t219 -218.5t79.5 -314v-53h-1121q12 -209 153.5 -343t363.5 -134q173 0 291 83t180 236l104 -49q-164 -377 -575 -377q-189 0 -333.5 82.5t-220 222.5t-75.5 314zM238 668h997q-17 199 -152.5 323.5 t-339.5 124.5q-197 0 -338.5 -127.5t-166.5 -320.5zM467 1669h121l166 -233l172 233h121l-242 -317h-98z" />
<glyph unicode="&#x11c;" horiz-adv-x="1740" d="M109 748q0 157 59.5 298.5t162.5 245t248.5 164t309.5 60.5q217 0 387.5 -99t271.5 -278l-102 -60q-84 153 -228 239.5t-329 86.5q-189 0 -341 -89t-235.5 -239t-83.5 -329q0 -133 49 -253.5t134.5 -209t207.5 -141t261 -52.5q138 0 253 44t194.5 122t128.5 183t61 229 h-648v110h766v-30q0 -157 -52 -296.5t-146.5 -245t-238.5 -167t-318 -61.5q-160 0 -304 61t-246 164t-162 244.5t-60 298.5zM575 1628l244 318h101l243 -318h-125l-170 225l-170 -225h-123z" />
<glyph unicode="&#x11d;" horiz-adv-x="1529" d="M121 598q0 170 80.5 313.5t222.5 227.5t315 84q153 0 293.5 -80.5t208.5 -220.5v276h115v-1173q0 -277 -163.5 -441t-434.5 -164q-144 0 -252.5 40.5t-180 110t-132.5 177.5l112 51q70 -135 176.5 -203.5t276.5 -68.5q222 0 352.5 133.5t130.5 359.5v254 q-68 -140 -208 -219.5t-294 -79.5q-172 0 -314.5 84t-223 227t-80.5 312zM240 598q0 -106 39.5 -201t106.5 -163.5t160 -109t197 -40.5q106 0 200.5 40t162.5 109t107.5 164t39.5 201q0 141 -67 259.5t-184.5 187.5t-258.5 69q-104 0 -197 -40.5t-160 -109.5t-106.5 -164.5 t-39.5 -201.5zM444 1343l244 318h100l244 -318h-125l-170 226l-170 -226h-123z" />
<glyph unicode="&#x11e;" horiz-adv-x="1740" d="M109 748q0 157 59.5 298.5t162.5 245t248.5 164t309.5 60.5q217 0 387.5 -99t271.5 -278l-102 -60q-84 153 -228 239.5t-329 86.5q-189 0 -341 -89t-235.5 -239t-83.5 -329q0 -133 49 -253.5t134.5 -209t207.5 -141t261 -52.5q138 0 253 44t194.5 122t128.5 183t61 229 h-648v110h766v-30q0 -157 -52 -296.5t-146.5 -245t-238.5 -167t-318 -61.5q-160 0 -304 61t-246 164t-162 244.5t-60 298.5zM537 1942h100q0 -102 59 -167t170 -65q107 0 167.5 65.5t60.5 166.5h104q0 -133 -91 -227.5t-241 -94.5q-160 0 -244.5 92.5t-84.5 229.5z" />
<glyph unicode="&#x11f;" horiz-adv-x="1529" d="M121 598q0 170 80.5 313.5t222.5 227.5t315 84q153 0 293.5 -80.5t208.5 -220.5v276h115v-1173q0 -277 -163.5 -441t-434.5 -164q-144 0 -252.5 40.5t-180 110t-132.5 177.5l112 51q70 -135 176.5 -203.5t276.5 -68.5q222 0 352.5 133.5t130.5 359.5v254 q-68 -140 -208 -219.5t-294 -79.5q-172 0 -314.5 84t-223 227t-80.5 312zM240 598q0 -106 39.5 -201t106.5 -163.5t160 -109t197 -40.5q106 0 200.5 40t162.5 109t107.5 164t39.5 201q0 141 -67 259.5t-184.5 187.5t-258.5 69q-104 0 -197 -40.5t-160 -109.5t-106.5 -164.5 t-39.5 -201.5zM412 1667h100q0 -102 59 -166.5t170 -64.5q107 0 167.5 65.5t60.5 165.5h104q0 -133 -91 -227t-241 -94q-160 0 -244.5 92t-84.5 229z" />
<glyph unicode="&#x120;" horiz-adv-x="1740" d="M109 748q0 157 59.5 298.5t162.5 245t248.5 164t309.5 60.5q217 0 387.5 -99t271.5 -278l-102 -60q-84 153 -228 239.5t-329 86.5q-189 0 -341 -89t-235.5 -239t-83.5 -329q0 -133 49 -253.5t134.5 -209t207.5 -141t261 -52.5q138 0 253 44t194.5 122t128.5 183t61 229 h-648v110h766v-30q0 -157 -52 -296.5t-146.5 -245t-238.5 -167t-318 -61.5q-160 0 -304 61t-246 164t-162 244.5t-60 298.5zM770 1802q0 43 28.5 71t71.5 28q46 0 73.5 -27.5t27.5 -71.5t-27.5 -72t-73.5 -28t-73 28t-27 72z" />
<glyph unicode="&#x121;" horiz-adv-x="1529" d="M121 598q0 170 80.5 313.5t222.5 227.5t315 84q153 0 293.5 -80.5t208.5 -220.5v276h115v-1173q0 -277 -163.5 -441t-434.5 -164q-144 0 -252.5 40.5t-180 110t-132.5 177.5l112 51q70 -135 176.5 -203.5t276.5 -68.5q222 0 352.5 133.5t130.5 359.5v254 q-68 -140 -208 -219.5t-294 -79.5q-172 0 -314.5 84t-223 227t-80.5 312zM240 598q0 -106 39.5 -201t106.5 -163.5t160 -109t197 -40.5q106 0 200.5 40t162.5 109t107.5 164t39.5 201q0 141 -67 259.5t-184.5 187.5t-258.5 69q-104 0 -197 -40.5t-160 -109.5t-106.5 -164.5 t-39.5 -201.5zM637 1460q0 43 28.5 71t71.5 28q46 0 73.5 -27.5t27.5 -71.5t-27.5 -72t-73.5 -28t-73 28t-27 72z" />
<glyph unicode="&#x122;" horiz-adv-x="1740" d="M109 748q0 157 59.5 298.5t162.5 245t248.5 164t309.5 60.5q217 0 387.5 -99t271.5 -278l-102 -60q-84 153 -228 239.5t-329 86.5q-189 0 -341 -89t-235.5 -239t-83.5 -329q0 -133 49 -253.5t134.5 -209t207.5 -141t261 -52.5q138 0 253 44t194.5 122t128.5 183t61 229 h-648v110h766v-30q0 -157 -52 -296.5t-146.5 -245t-238.5 -167t-318 -61.5q-160 0 -304 61t-246 164t-162 244.5t-60 298.5zM743 -551l88 418h113l-119 -418h-82z" />
<glyph unicode="&#x123;" horiz-adv-x="1529" d="M121 598q0 170 80.5 313.5t222.5 227.5t315 84q153 0 293.5 -80.5t208.5 -220.5v276h115v-1173q0 -277 -163.5 -441t-434.5 -164q-144 0 -252.5 40.5t-180 110t-132.5 177.5l112 51q70 -135 176.5 -203.5t276.5 -68.5q222 0 352.5 133.5t130.5 359.5v254 q-68 -140 -208 -219.5t-294 -79.5q-172 0 -314.5 84t-223 227t-80.5 312zM240 598q0 -106 39.5 -201t106.5 -163.5t160 -109t197 -40.5q106 0 200.5 40t162.5 109t107.5 164t39.5 201q0 141 -67 259.5t-184.5 187.5t-258.5 69q-104 0 -197 -40.5t-160 -109.5t-106.5 -164.5 t-39.5 -201.5zM686 1352l88 417h113l-119 -417h-82z" />
<glyph unicode="&#x124;" horiz-adv-x="1409" d="M152 0v1495h118v-688h865v688h118v-1495h-118v694h-865v-694h-118zM408 1628l243 318h101l243 -318h-125l-170 225l-170 -225h-122z" />
<glyph unicode="&#x125;" horiz-adv-x="1452" d="M-53 1614l243 317h101l244 -317h-125l-170 225l-170 -225h-123zM182 0v1516h113v-551q63 119 182.5 188.5t274.5 69.5q241 0 386.5 -148.5t145.5 -402.5v-672h-119v674q0 202 -114 322t-314 120q-189 0 -315.5 -127.5t-126.5 -316.5v-672h-113z" />
<glyph unicode="&#x126;" horiz-adv-x="1476" d="M41 1106v92h143v297h119v-297h864v297h119v-297h133v-92h-133v-1106h-119v694h-864v-694h-119v1106h-143zM303 807h864v299h-864v-299z" />
<glyph unicode="&#x127;" horiz-adv-x="1472" d="M39 1292v90h162v134h112v-134h199v-90h-199v-327q63 119 182.5 188.5t274.5 69.5q241 0 387 -148.5t146 -402.5v-672h-119v674q0 202 -114 322t-314 120q-189 0 -316 -127.5t-127 -316.5v-672h-112v1292h-162z" />
<glyph unicode="&#x128;" horiz-adv-x="458" d="M-111 1628q0 102 52.5 161.5t138.5 59.5q74 0 176 -61q5 -3 21 -13t22.5 -13.5t20 -11.5t21.5 -11t19.5 -7.5t22 -6t20.5 -1.5q103 0 103 119h94q0 -105 -50.5 -164t-143.5 -59q-12 0 -24 1.5t-21.5 3t-21.5 5t-19.5 6t-20 8.5t-18 8.5t-18 9.5t-16.5 9.5t-17.5 10.5 t-16.5 10q-7 4 -26 15.5t-27.5 16t-24 11.5t-28.5 9.5t-27 2.5q-43 0 -68.5 -30.5t-25.5 -88.5h-97zM172 0v1495h117v-1495h-117z" />
<glyph unicode="&#x129;" horiz-adv-x="462" d="M-121 1352q0 102 52.5 161.5t138.5 59.5q46 0 85.5 -15.5t90.5 -46.5q3 -2 18.5 -11.5t19.5 -12t17.5 -10t19.5 -10t17 -7.5t19 -7t17.5 -3.5t18.5 -1.5q103 0 103 119h94q0 -105 -51 -164.5t-144 -59.5q-28 0 -56 6.5t-49.5 17t-44.5 23.5t-42 25q-7 4 -26 15.5 t-27.5 16t-24 11.5t-28.5 9.5t-27 2.5q-43 0 -69 -30t-26 -88h-96zM174 0v1198h117v-1198h-117z" />
<glyph unicode="&#x12a;" horiz-adv-x="464" d="M-39 1628v103h541v-103h-541zM174 0v1495h117v-1495h-117z" />
<glyph unicode="&#x12b;" horiz-adv-x="462" d="M-39 1360v102h541v-102h-541zM174 0v1198h117v-1198h-117z" />
<glyph unicode="&#x12c;" horiz-adv-x="464" d="M-102 1942h100q0 -102 59 -167t170 -65q107 0 167.5 65.5t60.5 166.5h104q0 -133 -91 -227.5t-241 -94.5q-160 0 -244.5 92.5t-84.5 229.5zM174 0v1495h117v-1495h-117z" />
<glyph unicode="&#x12d;" horiz-adv-x="462" d="M-98 1647h100q0 -102 59 -167t170 -65q107 0 167.5 65.5t60.5 166.5h104q0 -133 -91 -227.5t-241 -94.5q-160 0 -244.5 92.5t-84.5 229.5zM174 0v1198h117v-1198h-117z" />
<glyph unicode="&#x12e;" horiz-adv-x="464" d="M14 -240q0 130 160 263v1472h117v-1495h2q-168 -134 -168 -236q0 -50 33 -80t88 -30q46 0 79.5 16t69.5 49l68 -81q-102 -84 -217 -84q-113 0 -172.5 58t-59.5 148z" />
<glyph unicode="&#x12f;" horiz-adv-x="462" d="M12 -240q0 130 162 265v1173h117v-1198q-168 -134 -168 -236q0 -50 33 -80t88 -30q46 0 79.5 16t69.5 49l68 -81q-102 -84 -217 -84q-113 0 -172.5 58t-59.5 148zM133 1460q0 43 28.5 71t71.5 28q46 0 73.5 -27.5t27.5 -71.5t-27.5 -72t-73.5 -28t-73 28t-27 72z" />
<glyph unicode="&#x130;" horiz-adv-x="464" d="M131 1802q0 43 28.5 71t71.5 28q46 0 73.5 -27.5t27.5 -71.5t-27.5 -72t-73.5 -28t-73 28t-27 72zM174 0v1495h117v-1495h-117z" />
<glyph unicode="&#x131;" horiz-adv-x="462" d="M174 0v1198h117v-1198h-117z" />
<glyph unicode="&#x132;" horiz-adv-x="1130" d="M135 0v1495h119v-1495h-119zM459 0v111h162q124 0 190 73t66 209v1102h118v-1102q0 -192 -92 -292.5t-278 -100.5h-166z" />
<glyph unicode="&#x133;" horiz-adv-x="929" d="M133 1460q0 43 28.5 71t71.5 28q46 0 73.5 -27.5t27.5 -71.5t-27.5 -72t-73.5 -28t-73 28t-27 72zM174 0v1198h117v-1198h-117zM174 -334h168q98 0 154 11.5t89.5 47t43.5 88.5t10 148v1237h117v-1239q0 -119 -18 -194.5t-64.5 -125t-121.5 -69t-194 -19.5h-184v115z M598 1460q0 43 28.5 71t71.5 28q46 0 73.5 -27.5t27.5 -71.5t-27.5 -72t-73.5 -28t-73 28t-27 72z" />
<glyph unicode="&#x134;" horiz-adv-x="974" d="M76 190l106 68q80 -170 264 -170q122 0 192.5 80t70.5 217v1110h118v-1108q0 -191 -99.5 -299t-278.5 -108q-132 0 -228.5 55.5t-144.5 154.5zM473 1628l244 318h100l244 -318h-125l-170 225l-170 -225h-123z" />
<glyph unicode="&#x135;" horiz-adv-x="462" d="M-143 -434q69 0 113.5 4t83 17t59.5 33.5t36 57t20 84.5t5 119v1317h117v-1319q0 -104 -12.5 -174.5t-40 -121.5t-77.5 -79t-118 -40.5t-168 -12.5h-18v115zM-61 1321l243 317h101l243 -317h-125l-170 225l-170 -225h-122z" />
<glyph unicode="&#x136;" horiz-adv-x="1329" d="M156 0v1495h116v-895l783 895h145l-520 -600l594 -895h-137l-541 813l-324 -371v-442h-116zM539 -551l88 418h112l-118 -418h-82z" />
<glyph unicode="&#x137;" horiz-adv-x="1243" d="M176 0v1516h115v-1043l696 725h150l-484 -502l514 -696h-137l-461 625l-278 -289v-336h-115zM504 -528l88 417h113l-119 -417h-82z" />
<glyph unicode="&#x138;" horiz-adv-x="1243" d="M174 0v1198h117v-725l694 725h152l-484 -502l514 -696h-139l-461 625l-276 -289v-336h-117z" />
<glyph unicode="&#x139;" horiz-adv-x="1091" d="M147 1628l244 318h154l-287 -318h-111zM154 0v1495h118v-1382h711v-113h-829z" />
<glyph unicode="&#x13a;" horiz-adv-x="473" d="M176 0v1516h119v-1516h-119zM186 1628l244 318h154l-287 -318h-111z" />
<glyph unicode="&#x13b;" horiz-adv-x="1091" d="M154 0v1495h118v-1382h711v-113h-829zM416 -551l88 418h112l-118 -418h-82z" />
<glyph unicode="&#x13c;" horiz-adv-x="473" d="M18 -528l88 417h113l-119 -417h-82zM176 0v1516h119v-1516h-119z" />
<glyph unicode="&#x13d;" horiz-adv-x="1091" d="M154 0v1495h118v-1382h711v-113h-829zM575 1141l101 352h112l-129 -352h-84z" />
<glyph unicode="&#x13e;" horiz-adv-x="540" d="M176 0v1516h119v-1516h-119zM428 1163l100 353h113l-129 -353h-84z" />
<glyph unicode="&#x13f;" horiz-adv-x="1110" d="M154 0v1495h118v-1382h711v-113h-829zM821 756q0 42 29 70t72 28q46 0 73 -27t27 -71t-27 -72.5t-73 -28.5t-73.5 28.5t-27.5 72.5z" />
<glyph unicode="&#x140;" horiz-adv-x="782" d="M176 0v1516h119v-1516h-119zM516 586q0 43 28.5 70.5t71.5 27.5q46 0 73.5 -27t27.5 -71t-27.5 -72.5t-73.5 -28.5t-73 28.5t-27 72.5z" />
<glyph unicode="&#x141;" horiz-adv-x="1148" d="M25 702v89l186 53v651h119v-616l293 86v-86l-293 -86v-680h710v-113h-829v758z" />
<glyph unicode="&#x142;" horiz-adv-x="649" d="M27 741v97l237 102v809h119v-756l240 105v-101l-240 -102v-895h-119v844z" />
<glyph unicode="&#x143;" horiz-adv-x="1519" d="M154 0v1495h131l962 -1311v1311h119v-1495h-127l-967 1317v-1317h-118zM711 1628l243 318h154l-287 -318h-110z" />
<glyph unicode="&#x144;" horiz-adv-x="1447" d="M174 0v1198h113v-244q62 122 183.5 195.5t277.5 73.5q241 0 386.5 -148.5t145.5 -402.5v-672h-117v674q0 201 -115 320.5t-315 119.5q-189 0 -315.5 -126.5t-126.5 -315.5v-672h-117zM676 1352l244 317h153l-287 -317h-110z" />
<glyph unicode="&#x145;" horiz-adv-x="1519" d="M154 0v1495h131l962 -1311v1311h119v-1495h-127l-967 1317v-1317h-118zM606 -551l88 418h113l-119 -418h-82z" />
<glyph unicode="&#x146;" horiz-adv-x="1447" d="M174 0v1198h113v-244q62 122 183.5 195.5t277.5 73.5q241 0 386.5 -148.5t145.5 -402.5v-672h-117v674q0 201 -115 320.5t-315 119.5q-189 0 -315.5 -126.5t-126.5 -315.5v-672h-117zM584 -520l88 418h112l-118 -418h-82z" />
<glyph unicode="&#x147;" horiz-adv-x="1519" d="M154 0v1495h131l962 -1311v1311h119v-1495h-127l-967 1317v-1317h-118zM473 1946h121l166 -234l172 234h121l-242 -318h-98z" />
<glyph unicode="&#x148;" horiz-adv-x="1447" d="M174 0v1198h113v-244q62 122 183.5 195.5t277.5 73.5q241 0 386.5 -148.5t145.5 -402.5v-672h-117v674q0 201 -115 320.5t-315 119.5q-189 0 -315.5 -126.5t-126.5 -315.5v-672h-117zM467 1669h121l166 -233l172 233h121l-242 -317h-98z" />
<glyph unicode="&#x14a;" horiz-adv-x="1519" d="M154 0v1495h131l962 -1300v1300h119v-1579q0 -176 -77 -264t-251 -88h-110v114h100q117 0 168 58t51 184v80l-975 1317v-1317h-118z" />
<glyph unicode="&#x14b;" horiz-adv-x="1447" d="M174 0v1198h113v-244q62 122 183.5 195.5t277.5 73.5q241 0 386.5 -148.5t145.5 -402.5v-793q0 -104 -12.5 -174.5t-40.5 -121.5t-78 -79t-119 -40.5t-170 -12.5h-16v115q69 0 114 4t83 17t59.5 33.5t36.5 57t20.5 84.5t5.5 119v793q0 201 -115 320.5t-315 119.5 q-189 0 -315.5 -126.5t-126.5 -315.5v-672h-117z" />
<glyph unicode="&#x14c;" horiz-adv-x="1751" d="M109 748q0 209 103 385.5t279.5 279.5t385.5 103t385.5 -103t279.5 -279.5t103 -385.5t-103 -385.5t-279.5 -279.5t-385.5 -103t-385.5 103t-279.5 279.5t-103 385.5zM229 748q0 -177 85 -327.5t234.5 -239.5t328.5 -89q180 0 328.5 89t232.5 239.5t84 327.5 q0 179 -84 329t-232.5 238t-328.5 88q-134 0 -254.5 -52t-206.5 -139.5t-136.5 -208.5t-50.5 -255zM598 1628v103h541v-103h-541z" />
<glyph unicode="&#x14d;" horiz-adv-x="1486" d="M121 598q0 129 49 245t132.5 199t198.5 132t242 49t242 -49t198.5 -132t133 -199t49.5 -245q0 -172 -83.5 -315.5t-226.5 -225.5t-313 -82q-127 0 -242 48.5t-198.5 131.5t-132.5 198.5t-49 244.5zM240 598q0 -142 66 -260t181.5 -186t255.5 -68q138 0 253.5 68 t182 186.5t66.5 259.5t-66.5 260t-182 187.5t-253.5 68.5q-140 0 -255.5 -69t-181.5 -187t-66 -260zM471 1372v103h541v-103h-541z" />
<glyph unicode="&#x14e;" horiz-adv-x="1751" d="M109 748q0 209 103 385.5t279.5 279.5t385.5 103t385.5 -103t279.5 -279.5t103 -385.5t-103 -385.5t-279.5 -279.5t-385.5 -103t-385.5 103t-279.5 279.5t-103 385.5zM229 748q0 -177 85 -327.5t234.5 -239.5t328.5 -89q180 0 328.5 89t232.5 239.5t84 327.5 q0 179 -84 329t-232.5 238t-328.5 88q-134 0 -254.5 -52t-206.5 -139.5t-136.5 -208.5t-50.5 -255zM537 1944h100q0 -102 59 -167t170 -65q107 0 167.5 65.5t60.5 166.5h104q0 -133 -91 -227.5t-241 -94.5q-160 0 -244.5 92.5t-84.5 229.5z" />
<glyph unicode="&#x14f;" horiz-adv-x="1486" d="M121 598q0 129 49 245t132.5 199t198.5 132t242 49t242 -49t198.5 -132t133 -199t49.5 -245q0 -172 -83.5 -315.5t-226.5 -225.5t-313 -82q-127 0 -242 48.5t-198.5 131.5t-132.5 198.5t-49 244.5zM240 598q0 -142 66 -260t181.5 -186t255.5 -68q138 0 253.5 68 t182 186.5t66.5 259.5t-66.5 260t-182 187.5t-253.5 68.5q-140 0 -255.5 -69t-181.5 -187t-66 -260zM412 1667h100q0 -102 59 -166.5t170 -64.5q107 0 167.5 65.5t60.5 165.5h104q0 -133 -91 -227t-241 -94q-160 0 -244.5 92t-84.5 229z" />
<glyph unicode="&#x150;" horiz-adv-x="1751" d="M109 748q0 209 103 385.5t279.5 279.5t385.5 103t385.5 -103t279.5 -279.5t103 -385.5t-103 -385.5t-279.5 -279.5t-385.5 -103t-385.5 103t-279.5 279.5t-103 385.5zM229 748q0 -177 85 -327.5t234.5 -239.5t328.5 -89q180 0 328.5 89t232.5 239.5t84 327.5 q0 179 -84 329t-232.5 238t-328.5 88q-134 0 -254.5 -52t-206.5 -139.5t-136.5 -208.5t-50.5 -255zM672 1628l243 318h146l-287 -318h-102zM920 1628l245 318h146l-287 -318h-104z" />
<glyph unicode="&#x151;" horiz-adv-x="1486" d="M121 598q0 129 49 245t132.5 199t198.5 132t242 49t242 -49t198.5 -132t133 -199t49.5 -245q0 -172 -83.5 -315.5t-226.5 -225.5t-313 -82q-127 0 -242 48.5t-198.5 131.5t-132.5 198.5t-49 244.5zM240 598q0 -142 66 -260t181.5 -186t255.5 -68q138 0 253.5 68 t182 186.5t66.5 259.5t-66.5 260t-182 187.5t-253.5 68.5q-140 0 -255.5 -69t-181.5 -187t-66 -260zM557 1352l244 317h145l-287 -317h-102zM805 1352l246 317h145l-287 -317h-104z" />
<glyph unicode="&#x152;" horiz-adv-x="2570" d="M109 748q0 209 102 385.5t278.5 279.5t384.5 103q215 0 383 -100.5t267 -276.5v356h913v-113h-795v-577h795v-111h-795v-581h795v-113h-913v356q-99 -176 -267 -276t-383 -100q-208 0 -384.5 103t-278.5 279.5t-102 385.5zM227 748q0 -176 86 -326t235 -238t326 -88 q133 0 253.5 52t207 139.5t138 208t51.5 252.5q0 133 -51.5 253.5t-138.5 208t-207 139.5t-253 52t-253 -52t-206 -139.5t-137 -208t-51 -253.5z" />
<glyph unicode="&#x153;" horiz-adv-x="2611" d="M121 598q0 129 49 245t132.5 199t198.5 132t242 49q191 0 341.5 -100t220.5 -267q71 168 219 267.5t346 99.5q172 0 312.5 -78.5t221 -219t80.5 -315.5v-41h-1124q4 -103 45 -193.5t109.5 -155t162.5 -101.5t199 -37q180 0 305 94t176 252l105 -47q-63 -188 -216.5 -297 t-369.5 -109q-207 0 -357 97.5t-219 265.5q-72 -165 -219.5 -264t-337.5 -99q-127 0 -242 48.5t-198.5 131.5t-132.5 198.5t-49 244.5zM240 598q0 -142 66 -260t181.5 -186t255.5 -68q138 0 253.5 68t182 186.5t66.5 259.5t-66.5 260t-182 187.5t-253.5 68.5 q-140 0 -255.5 -69t-181.5 -187t-66 -260zM1366 676h997q-20 197 -155 318.5t-338 121.5q-195 0 -334.5 -124.5t-169.5 -315.5z" />
<glyph unicode="&#x154;" horiz-adv-x="1220" d="M154 0v1495h467q137 0 250 -63t177 -170t64 -234q0 -149 -90.5 -271.5t-237.5 -166.5l336 -590h-133l-311 557h-404v-557h-118zM272 666h338q165 0 274 108.5t109 253.5q0 154 -107 256t-274 102h-340v-720zM487 1628l244 318h154l-287 -318h-111z" />
<glyph unicode="&#x155;" horiz-adv-x="921" d="M174 0v1198h113v-213q48 110 137.5 167.5t216.5 57.5q133 0 248 -67l-70 -103q-87 62 -182 62q-161 0 -253.5 -105.5t-92.5 -294.5v-702h-117zM457 1346l243 317h154l-287 -317h-110z" />
<glyph unicode="&#x156;" horiz-adv-x="1220" d="M154 0v1495h467q137 0 250 -63t177 -170t64 -234q0 -149 -90.5 -271.5t-237.5 -166.5l336 -590h-133l-311 557h-404v-557h-118zM272 666h338q165 0 274 108.5t109 253.5q0 154 -107 256t-274 102h-340v-720zM504 -575l88 417h113l-119 -417h-82z" />
<glyph unicode="&#x157;" horiz-adv-x="921" d="M86 -528l88 417h113l-119 -417h-82zM174 0v1198h113v-213q48 110 137.5 167.5t216.5 57.5q133 0 248 -67l-70 -103q-87 62 -182 62q-161 0 -253.5 -105.5t-92.5 -294.5v-702h-117z" />
<glyph unicode="&#x158;" horiz-adv-x="1220" d="M154 0v1495h467q137 0 250 -63t177 -170t64 -234q0 -149 -90.5 -271.5t-237.5 -166.5l336 -590h-133l-311 557h-404v-557h-118zM272 666h338q165 0 274 108.5t109 253.5q0 154 -107 256t-274 102h-340v-720zM342 1946h121l166 -234l172 234h121l-242 -318h-98z" />
<glyph unicode="&#x159;" horiz-adv-x="921" d="M174 0v1198h113v-213q48 110 137.5 167.5t216.5 57.5q133 0 248 -67l-70 -103q-87 62 -182 62q-161 0 -253.5 -105.5t-92.5 -294.5v-702h-117zM225 1661h121l166 -234l172 234h121l-242 -318h-98z" />
<glyph unicode="&#x15a;" horiz-adv-x="1140" d="M61 225l99 76q145 -213 399 -213q155 0 257 87.5t102 227.5q0 59 -21.5 106t-53 78t-85 59t-99 45t-115.5 40q-5 1 -7 2q-52 17 -88.5 30t-84 34t-79.5 42t-66.5 52t-55 65.5t-33.5 81t-13 99.5q0 163 127.5 271t316.5 108q279 0 440 -205l-92 -72q-122 172 -348 172 q-138 0 -230.5 -77t-92.5 -197q0 -45 12 -82t37.5 -65.5t53.5 -50t72 -41t80 -33t90 -31.5l9 -3t8.5 -3t9.5 -3q56 -19 90.5 -32t84.5 -36t81.5 -44t67 -53.5t55.5 -68.5t33.5 -84t13.5 -104q0 -116 -60 -212.5t-170 -153.5t-247 -57q-313 0 -498 245zM506 1626l244 318h153 l-287 -318h-110z" />
<glyph unicode="&#x15b;" horiz-adv-x="1110" d="M76 199l92 73q63 -86 163 -139t218 -53q155 0 240 73t85 179q0 25 -6.5 47t-15 38.5t-28 33t-32.5 27t-43 23t-45 19t-53 17t-52.5 14.5t-56.5 14q-2 1 -3.5 1t-3 0.5l-3 1l-3 1t-3.5 0.5q-51 13 -84.5 22.5t-79 25.5t-75 32.5t-61.5 41t-50.5 53.5t-30.5 68t-12 85 q0 135 114.5 231.5t297.5 96.5q128 0 236.5 -46t181.5 -128l-89 -72q-127 143 -329 143q-138 0 -216.5 -62t-78.5 -161q0 -31 10.5 -57t25 -45t44.5 -37t52 -29t65 -24.5t67 -20t74 -18.5q51 -12 86 -22t80.5 -26.5t76.5 -33.5t63.5 -42.5t52 -55t32 -69.5t12.5 -87 q0 -66 -27.5 -128t-79.5 -114t-139.5 -83.5t-197.5 -31.5q-149 0 -272.5 61t-198.5 163zM483 1352l244 317h154l-287 -317h-111z" />
<glyph unicode="&#x15c;" horiz-adv-x="1140" d="M61 225l99 76q145 -213 399 -213q155 0 257 87.5t102 227.5q0 59 -21.5 106t-53 78t-85 59t-99 45t-115.5 40q-5 1 -7 2q-52 17 -88.5 30t-84 34t-79.5 42t-66.5 52t-55 65.5t-33.5 81t-13 99.5q0 163 127.5 271t316.5 108q279 0 440 -205l-92 -72q-122 172 -348 172 q-138 0 -230.5 -77t-92.5 -197q0 -45 12 -82t37.5 -65.5t53.5 -50t72 -41t80 -33t90 -31.5l9 -3t8.5 -3t9.5 -3q56 -19 90.5 -32t84.5 -36t81.5 -44t67 -53.5t55.5 -68.5t33.5 -84t13.5 -104q0 -116 -60 -212.5t-170 -153.5t-247 -57q-313 0 -498 245zM274 1628l244 318h100 l244 -318h-125l-170 225l-170 -225h-123z" />
<glyph unicode="&#x15d;" horiz-adv-x="1110" d="M76 199l92 73q63 -86 163 -139t218 -53q155 0 240 73t85 179q0 25 -6.5 47t-15 38.5t-28 33t-32.5 27t-43 23t-45 19t-53 17t-52.5 14.5t-56.5 14q-2 1 -3.5 1t-3 0.5l-3 1l-3 1t-3.5 0.5q-51 13 -84.5 22.5t-79 25.5t-75 32.5t-61.5 41t-50.5 53.5t-30.5 68t-12 85 q0 135 114.5 231.5t297.5 96.5q128 0 236.5 -46t181.5 -128l-89 -72q-127 143 -329 143q-138 0 -216.5 -62t-78.5 -161q0 -31 10.5 -57t25 -45t44.5 -37t52 -29t65 -24.5t67 -20t74 -18.5q51 -12 86 -22t80.5 -26.5t76.5 -33.5t63.5 -42.5t52 -55t32 -69.5t12.5 -87 q0 -66 -27.5 -128t-79.5 -114t-139.5 -83.5t-197.5 -31.5q-149 0 -272.5 61t-198.5 163zM248 1346l244 317h100l244 -317h-125l-170 225l-170 -225h-123z" />
<glyph unicode="&#x15e;" horiz-adv-x="1140" d="M61 225l99 76q145 -213 399 -213q155 0 257 87.5t102 227.5q0 59 -21.5 106t-53 78t-85 59t-99 45t-115.5 40q-5 1 -7 2q-52 17 -88.5 30t-84 34t-79.5 42t-66.5 52t-55 65.5t-33.5 81t-13 99.5q0 163 127.5 271t316.5 108q279 0 440 -205l-92 -72q-122 172 -348 172 q-138 0 -230.5 -77t-92.5 -197q0 -45 12 -82t37.5 -65.5t53.5 -50t72 -41t80 -33t90 -31.5l9 -3t8.5 -3t9.5 -3q56 -19 90.5 -32t84.5 -36t81.5 -44t67 -53.5t55.5 -68.5t33.5 -84t13.5 -104q0 -167 -122.5 -288t-311.5 -133v-91q111 -2 179.5 -45.5t68.5 -115.5 q0 -85 -79 -140t-196 -55q-166 0 -284 109l94 57q48 -41 88 -59.5t102 -18.5q72 0 118 29.5t46 73.5q0 42 -44.5 66t-125.5 24h-67v168q-282 20 -441 241z" />
<glyph unicode="&#x15f;" horiz-adv-x="1110" d="M76 199l92 73q63 -86 163 -139t218 -53q155 0 240 73t85 179q0 25 -6.5 47t-15 38.5t-28 33t-32.5 27t-43 23t-45 19t-53 17t-52.5 14.5t-56.5 14q-2 1 -3.5 1t-3 0.5l-3 1l-3 1t-3.5 0.5q-51 13 -84.5 22.5t-79 25.5t-75 32.5t-61.5 41t-50.5 53.5t-30.5 68t-12 85 q0 135 114.5 231.5t297.5 96.5q128 0 236.5 -46t181.5 -128l-89 -72q-127 143 -329 143q-138 0 -216.5 -62t-78.5 -161q0 -31 10.5 -57t25 -45t44.5 -37t52 -29t65 -24.5t67 -20t74 -18.5q51 -12 86 -22t80.5 -26.5t76.5 -33.5t63.5 -42.5t52 -55t32 -69.5t12.5 -87 q0 -61 -24.5 -120t-71.5 -110t-125.5 -85t-177.5 -40v-96q111 -2 179.5 -46t68.5 -116q0 -85 -79 -139.5t-196 -54.5q-167 0 -284 108l94 58q48 -41 88 -59.5t102 -18.5q72 0 118 29t46 73q0 42 -44.5 66t-125.5 24h-67v175q-131 10 -239.5 69t-176.5 150z" />
<glyph unicode="&#x160;" horiz-adv-x="1140" d="M61 225l99 76q145 -213 399 -213q155 0 257 87.5t102 227.5q0 59 -21.5 106t-53 78t-85 59t-99 45t-115.5 40q-5 1 -7 2q-52 17 -88.5 30t-84 34t-79.5 42t-66.5 52t-55 65.5t-33.5 81t-13 99.5q0 163 127.5 271t316.5 108q279 0 440 -205l-92 -72q-122 172 -348 172 q-138 0 -230.5 -77t-92.5 -197q0 -45 12 -82t37.5 -65.5t53.5 -50t72 -41t80 -33t90 -31.5l9 -3t8.5 -3t9.5 -3q56 -19 90.5 -32t84.5 -36t81.5 -44t67 -53.5t55.5 -68.5t33.5 -84t13.5 -104q0 -116 -60 -212.5t-170 -153.5t-247 -57q-313 0 -498 245zM283 1946h120 l166 -234l172 234h121l-241 -318h-99z" />
<glyph unicode="&#x161;" horiz-adv-x="1110" d="M76 199l92 73q63 -86 163 -139t218 -53q155 0 240 73t85 179q0 25 -6.5 47t-15 38.5t-28 33t-32.5 27t-43 23t-45 19t-53 17t-52.5 14.5t-56.5 14q-2 1 -3.5 1t-3 0.5l-3 1l-3 1t-3.5 0.5q-51 13 -84.5 22.5t-79 25.5t-75 32.5t-61.5 41t-50.5 53.5t-30.5 68t-12 85 q0 135 114.5 231.5t297.5 96.5q128 0 236.5 -46t181.5 -128l-89 -72q-127 143 -329 143q-138 0 -216.5 -62t-78.5 -161q0 -31 10.5 -57t25 -45t44.5 -37t52 -29t65 -24.5t67 -20t74 -18.5q51 -12 86 -22t80.5 -26.5t76.5 -33.5t63.5 -42.5t52 -55t32 -69.5t12.5 -87 q0 -66 -27.5 -128t-79.5 -114t-139.5 -83.5t-197.5 -31.5q-149 0 -272.5 61t-198.5 163zM256 1669h121l166 -233l172 233h121l-242 -317h-98z" />
<glyph unicode="&#x162;" horiz-adv-x="1249" d="M98 1386v109h1053v-109h-467v-1386h-119v1386h-467zM487 -551l88 418h113l-119 -418h-82z" />
<glyph unicode="&#x163;" horiz-adv-x="823" d="M74 1092v106h213v279l112 73v-352h316v-106h-316v-662q0 -106 12.5 -166.5t50.5 -96.5t94.5 -47t158.5 -11v-109h-19q-84 0 -143.5 7.5t-107 27t-76.5 50t-48 80t-26.5 112t-7.5 151.5v664h-213zM348 -551l88 418h113l-119 -418h-82z" />
<glyph unicode="&#x164;" horiz-adv-x="1249" d="M98 1386v109h1053v-109h-467v-1386h-119v1386h-467zM328 1946h121l165 -234l172 234h121l-241 -318h-99z" />
<glyph unicode="&#x165;" horiz-adv-x="823" d="M74 1092v106h213v279l112 73v-352h316v-106h-316v-662q0 -106 12.5 -166.5t50.5 -96.5t94.5 -47t158.5 -11v-109h-19q-84 0 -143.5 7.5t-107 27t-76.5 50t-48 80t-26.5 112t-7.5 151.5v664h-213zM553 1374l100 352h113l-129 -352h-84z" />
<glyph unicode="&#x166;" horiz-adv-x="1249" d="M98 1386v109h1053v-109h-467v-516h238v-108h-238v-762h-119v762h-225v108h225v516h-467z" />
<glyph unicode="&#x167;" horiz-adv-x="823" d="M74 590v106h213v396h-213v106h213v279l112 73v-352h316v-106h-316v-396h316v-106h-316v-160q0 -106 12.5 -166.5t50.5 -96.5t94.5 -47t158.5 -11v-109h-19q-84 0 -143.5 7.5t-107 27t-76.5 50t-48 80t-26.5 112t-7.5 151.5v162h-213z" />
<glyph unicode="&#x168;" horiz-adv-x="1312" d="M147 487v1008h119v-1014q0 -162 112 -275.5t277 -113.5q164 0 278 114t114 277v1012h118v-1008q0 -215 -146.5 -361t-363.5 -146t-362.5 146t-145.5 361zM305 1628q0 102 52.5 161.5t138.5 59.5q74 0 176 -61q5 -3 21 -13t22.5 -13.5t20 -11.5t21.5 -11t19.5 -7.5t22 -6 t20.5 -1.5q103 0 103 119h94q0 -105 -51 -164t-144 -59q-13 0 -25.5 1t-25 4.5t-22 5.5t-22.5 8t-20 9t-21 11t-18.5 10.5t-19.5 11.5t-18 11q-7 4 -26 15.5t-27.5 16t-24 11.5t-28.5 9.5t-27 2.5q-43 0 -69 -30.5t-26 -88.5h-96z" />
<glyph unicode="&#x169;" horiz-adv-x="1447" d="M168 526v672h119v-674q0 -202 114 -321t314 -119q189 0 316.5 126.5t127.5 315.5v672h117v-1198h-115v244q-62 -122 -181 -195.5t-273 -73.5q-252 0 -395.5 147t-143.5 404zM381 1352q0 102 52 161.5t138 59.5q74 0 177 -62q3 -2 18.5 -11.5t19.5 -12t17.5 -10t19.5 -10 t17 -7.5t19 -7t17.5 -3.5t18.5 -1.5q102 0 102 119h95q0 -105 -51 -164.5t-144 -59.5q-13 0 -25.5 1t-25 4.5t-22 5.5t-22.5 8t-20 9t-21 11t-18.5 10.5t-19.5 11.5t-18 11q-6 3 -26.5 15.5t-28 16.5t-23.5 11t-29 9.5t-27 2.5q-43 0 -68.5 -30t-25.5 -88h-96z" />
<glyph unicode="&#x16a;" horiz-adv-x="1312" d="M147 487v1008h119v-1014q0 -162 112 -275.5t277 -113.5q164 0 278 114t114 277v1012h118v-1008q0 -215 -146.5 -361t-363.5 -146t-362.5 146t-145.5 361zM383 1628v103h541v-103h-541z" />
<glyph unicode="&#x16b;" horiz-adv-x="1447" d="M168 526v672h119v-674q0 -202 114 -321t314 -119q189 0 316.5 126.5t127.5 315.5v672h117v-1198h-115v244q-62 -122 -181 -195.5t-273 -73.5q-252 0 -395.5 147t-143.5 404zM453 1360v102h540v-102h-540z" />
<glyph unicode="&#x16c;" horiz-adv-x="1312" d="M147 487v1008h119v-1014q0 -162 112 -275.5t277 -113.5q164 0 278 114t114 277v1012h118v-1008q0 -215 -146.5 -361t-363.5 -146t-362.5 146t-145.5 361zM319 1942h101q0 -102 59 -167t170 -65q107 0 167.5 65.5t60.5 166.5h104q0 -133 -91 -227.5t-241 -94.5 q-160 0 -245 92.5t-85 229.5z" />
<glyph unicode="&#x16d;" horiz-adv-x="1447" d="M168 526v672h119v-674q0 -202 114 -321t314 -119q189 0 316.5 126.5t127.5 315.5v672h117v-1198h-115v244q-62 -122 -181 -195.5t-273 -73.5q-252 0 -395.5 147t-143.5 404zM397 1638h101q0 -102 59 -166.5t170 -64.5q107 0 167 65t60 166h105q0 -133 -91 -227t-241 -94 q-160 0 -245 92t-85 229z" />
<glyph unicode="&#x16e;" horiz-adv-x="1312" d="M147 487v1008h119v-1014q0 -162 112 -275.5t277 -113.5q164 0 278 114t114 277v1012h118v-1008q0 -215 -146.5 -361t-363.5 -146t-362.5 146t-145.5 361zM444 1823q0 86 58 145.5t143 59.5q88 0 147.5 -59.5t59.5 -145.5t-59.5 -144.5t-147.5 -58.5q-85 0 -143 58.5 t-58 144.5zM535 1823q0 -47 32.5 -79t77.5 -32q48 0 81.5 32t33.5 79t-33.5 79.5t-81.5 32.5q-45 0 -77.5 -32.5t-32.5 -79.5z" />
<glyph unicode="&#x16f;" horiz-adv-x="1447" d="M168 526v672h119v-674q0 -202 114 -321t314 -119q189 0 316.5 126.5t127.5 315.5v672h117v-1198h-115v244q-62 -122 -181 -195.5t-273 -73.5q-252 0 -395.5 147t-143.5 404zM518 1466q0 86 58 145.5t143 59.5q88 0 147.5 -59.5t59.5 -145.5t-59.5 -144t-147.5 -58 q-85 0 -143 58t-58 144zM608 1466q0 -46 33 -78t78 -32q48 0 81.5 31.5t33.5 78.5t-34 80t-81 33q-45 0 -78 -33t-33 -80z" />
<glyph unicode="&#x170;" horiz-adv-x="1312" d="M147 487v1008h119v-1014q0 -162 112 -275.5t277 -113.5q164 0 278 114t114 277v1012h118v-1008q0 -215 -146.5 -361t-363.5 -146t-362.5 146t-145.5 361zM444 1628l244 318h146l-287 -318h-103zM692 1628l246 318h145l-286 -318h-105z" />
<glyph unicode="&#x171;" horiz-adv-x="1447" d="M168 526v672h119v-674q0 -202 114 -321t314 -119q189 0 316.5 126.5t127.5 315.5v672h117v-1198h-115v244q-62 -122 -181 -195.5t-273 -73.5q-252 0 -395.5 147t-143.5 404zM504 1329l244 318h145l-287 -318h-102zM752 1329l245 318h146l-287 -318h-104z" />
<glyph unicode="&#x172;" horiz-adv-x="1312" d="M147 487v1008h119v-1014q0 -162 112 -275.5t277 -113.5q164 0 278 114t114 277v1012h118v-1008q0 -191 -116 -329t-301 -170q-132 -72 -183 -120.5t-51 -96.5q0 -49 40.5 -77t104.5 -28q52 0 92.5 21t84.5 59l92 -63q-55 -49 -125.5 -81t-143.5 -32q-118 0 -191 54.5 t-73 139.5q0 63 37 117t125 109q-180 33 -295 170.5t-115 326.5z" />
<glyph unicode="&#x173;" horiz-adv-x="1447" d="M168 526v672h119v-674q0 -202 114 -321t314 -119q189 0 316.5 126.5t127.5 315.5v672h117v-1198q-168 -134 -168 -236q0 -50 33 -80t88 -30q46 0 79.5 16t69.5 49l68 -81q-102 -84 -217 -84q-113 0 -172.5 58t-59.5 148q0 130 164 267v217q-62 -122 -181 -195.5 t-273 -73.5q-252 0 -395.5 147t-143.5 404z" />
<glyph unicode="&#x174;" horiz-adv-x="2195" d="M86 1495h125l381 -1313l446 1313h113l442 -1313l396 1313h122l-456 -1495h-121l-442 1311l-445 -1311h-121zM797 1628l243 318h101l243 -318h-124l-170 225l-170 -225h-123z" />
<glyph unicode="&#x175;" horiz-adv-x="2004" d="M96 1198h125l326 -1026l407 1026h101l395 -1030l336 1030h123l-398 -1198h-110l-400 1028l-409 -1028h-111zM709 1327l243 318h101l243 -318h-125l-170 225l-170 -225h-122z" />
<glyph unicode="&#x176;" horiz-adv-x="1253" d="M68 1495h133l426 -672l426 672h133l-498 -780v-715h-119v711zM330 1628l243 318h101l244 -318h-125l-170 225l-170 -225h-123z" />
<glyph unicode="&#x177;" horiz-adv-x="1339" d="M88 1198h131l469 -997l438 997h127l-782 -1751h-127l281 621zM385 1333l244 318h100l244 -318h-125l-170 226l-170 -226h-123z" />
<glyph unicode="&#x178;" horiz-adv-x="1253" d="M68 1495h133l426 -672l426 672h133l-498 -780v-715h-119v711zM365 1802q0 38 26 63t64 25q41 0 64.5 -24.5t23.5 -63.5t-24 -64.5t-64 -25.5q-41 0 -65.5 25.5t-24.5 64.5zM709 1802q0 38 26 63t64 25q41 0 64.5 -24.5t23.5 -63.5t-24 -64.5t-64 -25.5q-41 0 -65.5 25.5 t-24.5 64.5z" />
<glyph unicode="&#x179;" horiz-adv-x="1228" d="M119 0v109l850 1273h-817v113h956v-109l-850 -1273h854v-113h-993zM547 1628l244 318h153l-287 -318h-110z" />
<glyph unicode="&#x17a;" horiz-adv-x="1286" d="M117 0v111l899 981h-869v106h1014v-111l-895 -978h903v-109h-1052zM580 1335l243 318h154l-287 -318h-110z" />
<glyph unicode="&#x17b;" horiz-adv-x="1228" d="M119 0v109l850 1273h-817v113h956v-109l-850 -1273h854v-113h-993zM524 1802q0 43 29 71t72 28q46 0 73 -27.5t27 -71.5t-27 -72t-73 -28t-73.5 28t-27.5 72z" />
<glyph unicode="&#x17c;" horiz-adv-x="1286" d="M117 0v111l899 981h-869v106h1014v-111l-895 -978h903v-109h-1052zM561 1430q0 42 29 70t72 28q46 0 73 -27t27 -71t-27 -72.5t-73 -28.5t-73.5 28.5t-27.5 72.5z" />
<glyph unicode="&#x17d;" horiz-adv-x="1228" d="M119 0v109l850 1273h-817v113h956v-109l-850 -1273h854v-113h-993zM332 1946h121l165 -234l173 234h120l-241 -318h-99z" />
<glyph unicode="&#x17e;" horiz-adv-x="1286" d="M117 0v111l899 981h-869v106h1014v-111l-895 -978h903v-109h-1052zM369 1651h120l166 -234l172 234h121l-241 -318h-99z" />
<glyph unicode="&#x18f;" horiz-adv-x="1751" d="M109 750v30h1415q-6 128 -57.5 242.5t-137 198.5t-206.5 133t-259 49q-174 0 -322.5 -93t-226.5 -231l-100 60q91 160 270.5 268.5t378.5 108.5q164 0 309.5 -60.5t248.5 -164t163 -245t60 -298.5t-60 -298.5t-162.5 -244.5t-246.5 -164t-304 -61q-138 0 -261 44.5 t-213.5 120.5t-156.5 174.5t-99 209t-33 221.5zM236 670q10 -85 42.5 -167.5t88 -156.5t128.5 -130.5t170.5 -90t206.5 -33.5q129 0 243.5 45t198 123t137.5 184t69 226h-1284z" />
<glyph unicode="&#x192;" d="M129 0v109q141 0 203 57t112 227l99 328h-293v104h325l89 289q63 215 153.5 298t249.5 83h8v-106q-118 0 -181.5 -59.5t-111.5 -227.5l-84 -277h303v-104h-335l-103 -340q-35 -114 -67.5 -182.5t-81.5 -115.5t-113.5 -65t-161.5 -18h-10z" />
<glyph unicode="&#x1fa;" horiz-adv-x="1429" d="M76 0l549 1427q-54 23 -87.5 74.5t-33.5 114.5q0 86 58 145.5t143 59.5q87 0 146.5 -59.5t59.5 -145.5q0 -59 -30 -107t-80 -73l553 -1436h-125l-162 418h-707l-159 -418h-125zM403 530h621l-309 807zM594 1616q0 -47 33 -79t78 -32q48 0 81 32t33 79t-33.5 80t-80.5 33 q-45 0 -78 -33t-33 -80zM645 1886l244 318h153l-286 -318h-111z" />
<glyph unicode="&#x1fb;" horiz-adv-x="1529" d="M121 598q0 217 127.5 383.5t331.5 220.5q-48 54 -48 131q0 86 58 145.5t143 59.5q88 0 147.5 -59.5t59.5 -145.5q0 -75 -49 -133q114 -30 205.5 -101t144.5 -177v276h115v-1198h-115v274q-68 -140 -208 -219.5t-294 -79.5q-172 0 -314.5 84t-223 227t-80.5 312zM240 598 q0 -106 39.5 -201t106.5 -163.5t160 -109t197 -40.5q106 0 200.5 40t162.5 109t107.5 164t39.5 201q0 141 -67 259.5t-184.5 187.5t-258.5 69q-104 0 -197 -40.5t-160 -109.5t-106.5 -164.5t-39.5 -201.5zM623 1333q0 -47 32.5 -78.5t77.5 -31.5h8q45 5 76 36t31 74 q0 47 -34 80t-81 33q-45 0 -77.5 -33t-32.5 -80zM670 1610l243 317h154l-287 -317h-110z" />
<glyph unicode="&#x1fc;" horiz-adv-x="2123" d="M63 0l758 1495h1149v-113h-993l129 -577h864v-111h-840l130 -581h710v-113h-805l-92 408h-670l-204 -408h-136zM459 516h590l-181 809zM1171 1628l244 318h154l-287 -318h-111z" />
<glyph unicode="&#x1fd;" horiz-adv-x="2349" d="M123 297q-2 69 21.5 124t62.5 93t100.5 68t123 48t142.5 34q29 6 81.5 17t81 17t72 17.5t67.5 21.5t54 25.5t45 32.5t25.5 40.5t10.5 51.5q0 109 -91.5 174t-269.5 65q-185 0 -289 -88.5t-104 -234.5v-8h-111v4q0 191 137.5 307.5t364.5 116.5q191 0 306 -66t151 -186 q86 119 216.5 185.5t287.5 66.5q173 0 314 -78.5t221.5 -219t80.5 -315.5v-41h-1124q8 -209 154.5 -348t361.5 -139q179 0 305 94t174 252l107 -47q-62 -188 -217.5 -297t-368.5 -109q-185 0 -327 80.5t-222 220.5q-42 -77 -111.5 -142t-180.5 -112t-238 -47 q-108 0 -189.5 25.5t-129.5 70.5t-71.5 102t-23.5 124zM242 299q0 -100 73 -161.5t226 -61.5q91 0 172.5 29t139.5 76.5t98.5 100t64.5 107.5q-31 98 -31 205q0 61 8 108q-36 -44 -112.5 -68.5t-240.5 -56.5q-4 -1 -7 -1.5t-7 -1t-8 -1.5q-72 -13 -123.5 -26.5t-102 -35 t-81.5 -49.5t-50 -69t-19 -94zM1077 1317l244 317h154l-287 -317h-111zM1106 676h995q-20 197 -155 318.5t-338 121.5q-195 0 -333.5 -124.5t-168.5 -315.5z" />
<glyph unicode="&#x1fe;" horiz-adv-x="1751" d="M109 748q0 209 103 385.5t279.5 279.5t385.5 103q229 0 415 -123l78 102h139l-129 -170q126 -108 195.5 -256t69.5 -321q0 -209 -103 -385.5t-279.5 -279.5t-385.5 -103q-231 0 -416 120l-76 -100h-139l127 168q-125 108 -194.5 257t-69.5 323zM229 748q0 -144 55.5 -270 t155.5 -218l785 1040q-156 103 -348 103q-134 0 -254.5 -52t-206.5 -139.5t-136.5 -208.5t-50.5 -255zM528 193q160 -101 349 -101q180 0 328.5 89t232.5 239.5t84 327.5q0 143 -55 267t-156 218zM803 1628l244 318h153l-287 -318h-110z" />
<glyph unicode="&#x1ff;" horiz-adv-x="1486" d="M121 598q0 129 49 245t132.5 199t198.5 132t242 49q175 0 330 -95l51 70h133l-100 -133q100 -87 154.5 -207.5t54.5 -259.5q0 -172 -83.5 -315.5t-226.5 -225.5t-313 -82q-176 0 -331 95l-52 -70h-129l97 131q-98 88 -152.5 208t-54.5 259zM240 598q0 -223 157 -377 l609 817q-116 76 -263 76q-140 0 -255.5 -69t-181.5 -187t-66 -260zM479 158q120 -74 264 -74q138 0 253.5 68t182 186.5t66.5 259.5q0 108 -41 205t-114 170zM680 1354l244 317h153l-286 -317h-111z" />
<glyph unicode="&#x218;" horiz-adv-x="1140" d="M61 225l99 76q145 -213 399 -213q155 0 257 87.5t102 227.5q0 59 -21.5 106t-53 78t-85 59t-99 45t-115.5 40q-5 1 -7 2q-52 17 -88.5 30t-84 34t-79.5 42t-66.5 52t-55 65.5t-33.5 81t-13 99.5q0 163 127.5 271t316.5 108q279 0 440 -205l-92 -72q-122 172 -348 172 q-138 0 -230.5 -77t-92.5 -197q0 -45 12 -82t37.5 -65.5t53.5 -50t72 -41t80 -33t90 -31.5l9 -3t8.5 -3t9.5 -3q56 -19 90.5 -32t84.5 -36t81.5 -44t67 -53.5t55.5 -68.5t33.5 -84t13.5 -104q0 -116 -60 -212.5t-170 -153.5t-247 -57q-313 0 -498 245zM436 -524l88 418h113 l-119 -418h-82z" />
<glyph unicode="&#x219;" horiz-adv-x="1110" d="M76 199l92 73q63 -86 163 -139t218 -53q155 0 240 73t85 179q0 25 -6.5 47t-15 38.5t-28 33t-32.5 27t-43 23t-45 19t-53 17t-52.5 14.5t-56.5 14q-2 1 -3.5 1t-3 0.5l-3 1l-3 1t-3.5 0.5q-51 13 -84.5 22.5t-79 25.5t-75 32.5t-61.5 41t-50.5 53.5t-30.5 68t-12 85 q0 135 114.5 231.5t297.5 96.5q128 0 236.5 -46t181.5 -128l-89 -72q-127 143 -329 143q-138 0 -216.5 -62t-78.5 -161q0 -31 10.5 -57t25 -45t44.5 -37t52 -29t65 -24.5t67 -20t74 -18.5q51 -12 86 -22t80.5 -26.5t76.5 -33.5t63.5 -42.5t52 -55t32 -69.5t12.5 -87 q0 -66 -27.5 -128t-79.5 -114t-139.5 -83.5t-197.5 -31.5q-149 0 -272.5 61t-198.5 163zM385 -578l88 418h113l-119 -418h-82z" />
<glyph unicode="&#x237;" horiz-adv-x="462" d="M-143 -434q69 0 113.5 4t83 17t59.5 33.5t36 57t20 84.5t5 119v1317h117v-1319q0 -104 -12.5 -174.5t-40 -121.5t-77.5 -79t-118 -40.5t-168 -12.5h-18v115z" />
<glyph unicode="&#x259;" horiz-adv-x="1486" d="M121 586v53h1122q-6 90 -44 174.5t-101.5 152t-157.5 108t-203 40.5q-160 0 -283.5 -92t-179.5 -227l-104 55q73 162 223 267.5t344 105.5q113 0 213.5 -35t175.5 -95.5t129.5 -139t82.5 -168t28 -181.5q0 -175 -81 -319t-224 -227t-318 -83q-171 0 -315 85.5 t-225.5 225.5t-81.5 300zM246 530q12 -120 77 -221.5t176 -164t244 -62.5q196 0 334.5 127t163.5 321h-995z" />
<glyph unicode="&#x2c6;" horiz-adv-x="1028" d="M221 1157l244 318h100l244 -318h-125l-170 225l-170 -225h-123z" />
<glyph unicode="&#x2c7;" horiz-adv-x="1028" d="M225 1475h121l166 -234l172 234h121l-242 -318h-98z" />
<glyph unicode="&#x2d8;" horiz-adv-x="1028" d="M182 1464h101q0 -102 59 -166.5t170 -64.5q107 0 167 65t60 166h105q0 -133 -91 -227t-241 -94q-160 0 -245 92t-85 229z" />
<glyph unicode="&#x2d9;" horiz-adv-x="1036" d="M397 1331q0 43 29 71t72 28q46 0 73 -27.5t27 -71.5t-27 -72t-73 -28t-73.5 28t-27.5 72z" />
<glyph unicode="&#x2da;" horiz-adv-x="1028" d="M305 1352q0 86 58 145t143 59q88 0 147.5 -59t59.5 -145t-59.5 -144.5t-147.5 -58.5q-85 0 -143 58.5t-58 144.5zM395 1352q0 -47 33 -79t78 -32q48 0 81.5 32t33.5 79t-33.5 79.5t-81.5 32.5q-45 0 -78 -32.5t-33 -79.5z" />
<glyph unicode="&#x2db;" horiz-adv-x="1028" d="M236 -233q0 77 63 146t211 138l94 -53q-148 -82 -199 -128t-51 -97q0 -49 41 -77t105 -28q52 0 92 20.5t84 59.5l92 -63q-55 -49 -125 -81t-143 -32q-118 0 -191 55t-73 140z" />
<glyph unicode="&#x2dc;" horiz-adv-x="1028" d="M156 1157q0 102 52 161.5t138 59.5q74 0 176 -61q3 -2 21 -13t22.5 -13.5t20 -11t22.5 -11.5t19.5 -7.5t22.5 -6t20 -1.5q102 0 102 119h94q0 -105 -50.5 -164t-143.5 -59q-12 0 -24 1.5t-21.5 3t-21.5 5t-19.5 6t-20 8.5t-18 8.5t-18 9.5t-16.5 9.5t-17.5 10.5t-16.5 10 q-7 4 -26 15.5t-27.5 16t-24 11.5t-28.5 9.5t-27 2.5q-43 0 -68.5 -30.5t-25.5 -88.5h-96z" />
<glyph unicode="&#x2dd;" horiz-adv-x="1028" d="M190 1157l244 318h146l-287 -318h-103zM438 1157l246 318h145l-286 -318h-105z" />
<glyph unicode="&#x328;" horiz-adv-x="1028" d="M330 -240q0 136 190 289l88 -49q-168 -134 -168 -236q0 -50 33 -80t88 -30q46 0 80 16t70 49l67 -81q-102 -84 -217 -84q-113 0 -172 58t-59 148z" />
<glyph unicode="&#x3c0;" horiz-adv-x="1517" d="M88 1380v115h1344v-115h-293v-1022q0 -127 45.5 -187t152.5 -60h84v-111h-92q-161 0 -235 90.5t-74 267.5v1022h-545v-1380h-119v1380h-268z" />
<glyph unicode="&#xe3f;" horiz-adv-x="1097" d="M135 137v1221h359v137h104v-137h6q165 0 266 -88t101 -232q0 -93 -44 -163.5t-128 -106.5q92 -35 141 -110.5t49 -180.5q0 -154 -104 -247t-271 -93h-16v-137h-104v137h-359zM252 246h242v465h-242v-465zM252 821h242v430h-242v-430zM598 246h18q116 0 186 64.5t70 168.5 q0 105 -67.5 168.5t-192.5 63.5h-14v-465zM598 821h20q110 0 174 61t64 156q0 94 -70 153.5t-182 59.5h-6v-430z" />
<glyph unicode="&#x1e80;" horiz-adv-x="2195" d="M86 1495h125l381 -1313l446 1313h113l442 -1313l396 1313h122l-456 -1495h-121l-442 1311l-445 -1311h-121zM748 1946h151l246 -318h-111z" />
<glyph unicode="&#x1e81;" horiz-adv-x="2004" d="M96 1198h125l326 -1026l407 1026h101l395 -1030l336 1030h123l-398 -1198h-110l-400 1028l-409 -1028h-111zM657 1655h152l246 -318h-111z" />
<glyph unicode="&#x1e82;" horiz-adv-x="2195" d="M86 1495h125l381 -1313l446 1313h113l442 -1313l396 1313h122l-456 -1495h-121l-442 1311l-445 -1311h-121zM1028 1628l244 318h153l-286 -318h-111z" />
<glyph unicode="&#x1e83;" horiz-adv-x="2004" d="M96 1198h125l326 -1026l407 1026h101l395 -1030l336 1030h123l-398 -1198h-110l-400 1028l-409 -1028h-111zM954 1331l244 318h154l-287 -318h-111z" />
<glyph unicode="&#x1e84;" horiz-adv-x="2195" d="M86 1495h125l381 -1313l446 1313h113l442 -1313l396 1313h122l-456 -1495h-121l-442 1311l-445 -1311h-121zM834 1802q0 38 26 63t64 25q41 0 64.5 -24.5t23.5 -63.5t-24 -64.5t-64 -25.5q-41 0 -65.5 25.5t-24.5 64.5zM1178 1802q0 38 26 63t64 25q41 0 64.5 -24.5 t23.5 -63.5t-24 -64.5t-64 -25.5q-41 0 -65.5 25.5t-24.5 64.5z" />
<glyph unicode="&#x1e85;" horiz-adv-x="2004" d="M96 1198h125l326 -1026l407 1026h101l395 -1030l336 1030h123l-398 -1198h-110l-400 1028l-409 -1028h-111zM741 1436q0 38 26 63t64 25q41 0 65 -24.5t24 -63.5t-24.5 -64.5t-64.5 -25.5q-41 0 -65.5 25.5t-24.5 64.5zM1085 1436q0 38 26 63t65 25q41 0 64.5 -24.5 t23.5 -63.5t-24 -64.5t-64 -25.5q-41 0 -66 25.5t-25 64.5z" />
<glyph unicode="&#x1ef2;" horiz-adv-x="1253" d="M68 1495h133l426 -672l426 672h133l-498 -780v-715h-119v711zM285 1946h151l246 -318h-111z" />
<glyph unicode="&#x1ef3;" horiz-adv-x="1339" d="M88 1198h131l469 -997l438 997h127l-782 -1751h-127l281 621zM332 1614h151l246 -318h-111z" />
<glyph unicode="&#x2000;" horiz-adv-x="1102" />
<glyph unicode="&#x2001;" horiz-adv-x="2204" />
<glyph unicode="&#x2002;" horiz-adv-x="1102" />
<glyph unicode="&#x2003;" horiz-adv-x="2204" />
<glyph unicode="&#x2004;" horiz-adv-x="734" />
<glyph unicode="&#x2005;" horiz-adv-x="551" />
<glyph unicode="&#x2006;" horiz-adv-x="367" />
<glyph unicode="&#x2007;" horiz-adv-x="367" />
<glyph unicode="&#x2008;" horiz-adv-x="275" />
<glyph unicode="&#x2009;" horiz-adv-x="440" />
<glyph unicode="&#x200a;" horiz-adv-x="122" />
<glyph unicode="&#x2010;" horiz-adv-x="972" d="M109 463v104h757v-104h-757z" />
<glyph unicode="&#x2011;" horiz-adv-x="972" d="M109 463v104h757v-104h-757z" />
<glyph unicode="&#x2012;" horiz-adv-x="1384" d="M109 463v104h1167v-104h-1167z" />
<glyph unicode="&#x2013;" horiz-adv-x="1077" d="M109 463v104h860v-104h-860z" />
<glyph unicode="&#x2014;" horiz-adv-x="1486" d="M109 463v104h1269v-104h-1269z" />
<glyph unicode="&#x2015;" horiz-adv-x="2101" d="M109 463v104h1884v-104h-1884z" />
<glyph unicode="&#x2016;" horiz-adv-x="716" d="M135 -471v1966h119v-1966h-119zM463 -471v1966h119v-1966h-119z" />
<glyph unicode="&#x2018;" horiz-adv-x="387" d="M86 1495h117l90 -418h-82z" />
<glyph unicode="&#x2019;" horiz-adv-x="387" d="M90 1077l90 418h117l-127 -418h-80z" />
<glyph unicode="&#x201a;" horiz-adv-x="389" d="M68 -240l90 418h116l-124 -418h-82z" />
<glyph unicode="&#x201b;" horiz-adv-x="387" d="M90 1077l90 418h117l-127 -418h-80z" />
<glyph unicode="&#x201c;" horiz-adv-x="600" d="M90 1495h113l90 -418h-78zM307 1495h111l90 -418h-80z" />
<glyph unicode="&#x201d;" horiz-adv-x="600" d="M90 1077l90 418h117l-127 -418h-80zM305 1077l90 418h117l-125 -418h-82z" />
<glyph unicode="&#x201e;" horiz-adv-x="604" d="M72 -240l90 418h117l-125 -418h-82zM287 -240l92 418h117l-127 -418h-82z" />
<glyph unicode="&#x201f;" horiz-adv-x="600" d="M90 1077l90 418h117l-127 -418h-80zM305 1077l90 418h117l-125 -418h-82z" />
<glyph unicode="&#x2020;" horiz-adv-x="1198" d="M135 920v104h402v471h118v-471h408v-104h-408v-920h-118v920h-402z" />
<glyph unicode="&#x2021;" horiz-adv-x="1198" d="M135 449v102h402v407h-402v105h402v432h118v-432h408v-105h-408v-407h408v-102h-408v-449h-118v449h-402z" />
<glyph unicode="&#x2022;" horiz-adv-x="624" d="M190 514q0 51 36 87t87 36t87 -36t36 -87t-36 -87t-87 -36t-87 36t-36 87z" />
<glyph unicode="&#x2026;" horiz-adv-x="940" d="M80 72q0 38 25 62t63 24q41 0 64.5 -23.5t23.5 -62.5t-23.5 -63.5t-64.5 -24.5t-64.5 24.5t-23.5 63.5zM381 72q0 38 25 62t63 24q41 0 64.5 -23.5t23.5 -62.5t-23.5 -63.5t-64.5 -24.5t-64.5 24.5t-23.5 63.5zM686 72q0 38 25 62t63 24q41 0 64.5 -23.5t23.5 -62.5 t-23.5 -63.5t-64.5 -24.5t-64.5 24.5t-23.5 63.5z" />
<glyph unicode="&#x202f;" horiz-adv-x="440" />
<glyph unicode="&#x2030;" horiz-adv-x="2605" d="M156 1176q0 141 99.5 240.5t240.5 99.5t240.5 -99.5t99.5 -240.5t-99.5 -241.5t-240.5 -100.5t-240.5 100.5t-99.5 241.5zM178 0l1284 1495h150l-1284 -1495h-150zM258 1176q0 -99 70 -170.5t168 -71.5t167.5 71.5t69.5 170.5q0 100 -69.5 169.5t-167.5 69.5t-168 -69.5 t-70 -169.5zM954 319q0 141 99.5 240.5t240.5 99.5t240.5 -99.5t99.5 -240.5t-99.5 -241.5t-240.5 -100.5t-240.5 100.5t-99.5 241.5zM1057 319q0 -102 69 -171.5t168 -69.5t168.5 69.5t69.5 171.5q0 100 -70 170t-168 70t-167.5 -70t-69.5 -170zM1769 319q0 141 99.5 240.5 t240.5 99.5t241.5 -99.5t100.5 -240.5t-100.5 -241.5t-241.5 -100.5t-240.5 100.5t-99.5 241.5zM1874 319q0 -102 68.5 -171.5t166.5 -69.5q99 0 168.5 69.5t69.5 171.5q0 100 -70 170t-168 70q-97 0 -166 -70t-69 -170z" />
<glyph unicode="&#x2032;" horiz-adv-x="387" d="M90 1077l90 418h117l-127 -418h-80z" />
<glyph unicode="&#x2033;" horiz-adv-x="600" d="M90 1077l90 418h117l-127 -418h-80zM305 1077l90 418h117l-125 -418h-82z" />
<glyph unicode="&#x2034;" horiz-adv-x="804" d="M131 1323v172h105v-172q0 -57 -11 -155t-20 -144h-41q-1 11 -10.5 76t-16 125t-6.5 98zM350 1323v172h105v-172q0 -57 -11 -155t-20 -144h-41q-1 11 -10.5 76t-16 125t-6.5 98zM569 1323v172h105v-172q0 -57 -11 -155t-20 -144h-41q-1 11 -10.5 76t-16 125t-6.5 98z" />
<glyph unicode="&#x2039;" horiz-adv-x="591" d="M143 473v78l308 244v-99l-236 -186l236 -182v-99z" />
<glyph unicode="&#x203a;" horiz-adv-x="591" d="M143 229v99l234 184l-234 184v101l308 -244v-80z" />
<glyph unicode="&#x2044;" horiz-adv-x="1329" d="M57 0l1080 1495h139l-1079 -1495h-140z" />
<glyph unicode="&#x205f;" horiz-adv-x="551" />
<glyph unicode="&#x2070;" horiz-adv-x="1017" d="M66 1063q0 185 129 314.5t313 129.5t314 -129.5t130 -314.5t-130 -315t-314 -130t-313 130t-129 315zM172 1063q0 -140 98.5 -241t237.5 -101q140 0 239 101t99 241q0 141 -98.5 241.5t-239.5 100.5q-139 0 -237.5 -100.5t-98.5 -241.5z" />
<glyph unicode="&#x2074;" horiz-adv-x="768" d="M70 829v99l395 567h110v-567h125v-99h-125v-198h-106v198h-399zM186 928h283v401z" />
<glyph unicode="&#x2075;" horiz-adv-x="722" d="M72 782l98 58q60 -123 195 -123q80 0 133 52.5t53 137.5q0 89 -55 140t-134 51q-124 0 -188 -119l-96 43l63 473h469v-100h-383l-37 -271q74 70 181 70q122 0 205 -76t83 -211q0 -127 -84 -208t-213 -81q-101 0 -176.5 44.5t-113.5 119.5z" />
<glyph unicode="&#x2076;" horiz-adv-x="741" d="M61 915q0 121 66 213l248 367h125l-203 -297q50 16 88 16q119 0 202 -85t83 -211q0 -128 -87.5 -214t-215.5 -86q-131 0 -218.5 86.5t-87.5 210.5zM164 918q0 -86 58 -143.5t143 -57.5q81 0 140.5 59t59.5 144q0 82 -60 141t-140 59q-85 0 -143 -58t-58 -144z" />
<glyph unicode="&#x2077;" horiz-adv-x="669" d="M70 1393v102h536v-92l-348 -772h-115l351 762h-424z" />
<glyph unicode="&#x2078;" horiz-adv-x="702" d="M76 877q0 71 36 127.5t97 87.5q-100 62 -100 182q0 98 67.5 165.5t173.5 67.5t175 -68t69 -165q0 -115 -105 -180q63 -30 99.5 -86.5t36.5 -130.5q0 -109 -74.5 -184t-200.5 -75q-125 0 -199.5 75t-74.5 184zM182 877q0 -68 46 -114t122 -46t122 46t46 114 q0 69 -45.5 116t-122.5 47q-76 0 -122 -47.5t-46 -115.5zM217 1274q0 -58 36.5 -95.5t96.5 -37.5q61 0 99 37.5t38 95.5q0 57 -38 96t-99 39q-60 0 -96.5 -39t-36.5 -96z" />
<glyph unicode="&#x2079;" horiz-adv-x="727" d="M63 1214q0 125 86 209t213 84q128 0 215 -84.5t87 -208.5q0 -106 -60 -200l-248 -383h-129l203 305q-35 -14 -86 -14q-117 0 -199 83.5t-82 208.5zM168 1212q0 -82 57.5 -139t139.5 -57t139 58t57 140t-57 139.5t-139 57.5t-139.5 -57.5t-57.5 -141.5z" />
<glyph unicode="&#x207a;" horiz-adv-x="581" d="M72 1018v90h176v172h88v-172h172v-90h-172v-174h-88v174h-176z" />
<glyph unicode="&#x207b;" horiz-adv-x="581" d="M72 1018v92h436v-92h-436z" />
<glyph unicode="&#x207c;" horiz-adv-x="581" d="M72 918v90h436v-90h-436zM72 1112v90h436v-90h-436z" />
<glyph unicode="&#x207d;" horiz-adv-x="557" d="M74 1071q0 198 82 341.5t237 252.5l68 -88q-277 -191 -277 -506q0 -310 281 -504l-66 -90q-159 109 -242 253t-83 341z" />
<glyph unicode="&#x207e;" horiz-adv-x="559" d="M92 567q281 194 281 504q0 315 -277 506l70 88q317 -232 317 -594q0 -196 -83 -340t-240 -254z" />
<glyph unicode="&#x2080;" horiz-adv-x="1017" d="M66 432q0 185 129 315t313 130t314 -130t130 -315q0 -184 -130 -314t-314 -130t-313 129.5t-129 314.5zM172 432q0 -140 98.5 -241t237.5 -101q140 0 239 101t99 241q0 141 -98.5 241.5t-239.5 100.5q-139 0 -237.5 -100.5t-98.5 -241.5z" />
<glyph unicode="&#x2081;" horiz-adv-x="585" d="M76 0v100h172v584q-19 -31 -61 -52.5t-83 -21.5h-12v113h6q77 0 114.5 43.5t37.5 97.5h104v-764h166v-100h-444z" />
<glyph unicode="&#x2082;" horiz-adv-x="704" d="M70 696q39 84 112 132.5t170 48.5q126 0 201.5 -68t75.5 -170q0 -48 -18.5 -91t-57 -81.5t-71 -63.5t-85.5 -61q-55 -38 -79 -56t-61.5 -52t-53 -65.5t-15.5 -66.5h443v-102h-551v102q0 41 15.5 80t35 67t58 62.5t63 53t70.5 51.5q110 76 143 110q55 56 55 113 q0 63 -45.5 103t-122.5 40q-125 0 -190 -133z" />
<glyph unicode="&#x2083;" horiz-adv-x="673" d="M51 104l90 70q64 -88 183 -88q78 0 128 43.5t50 112.5q0 72 -52.5 113.5t-136.5 41.5h-86v99h86q83 0 128.5 40t45.5 107q0 63 -46.5 101t-121.5 38q-111 0 -169 -90l-91 51q38 60 106.5 97t153.5 37q124 0 197.5 -64t73.5 -170q0 -129 -117 -194q135 -64 135 -207 q0 -113 -76 -183.5t-208 -70.5q-177 0 -273 116z" />
<glyph unicode="&#x2084;" horiz-adv-x="768" d="M70 199v98l395 567h110v-567h125v-98h-125v-199h-106v199h-399zM186 297h283v401z" />
<glyph unicode="&#x2085;" horiz-adv-x="722" d="M72 152l98 57q60 -123 195 -123q80 0 133 52.5t53 137.5q0 89 -55 140t-134 51q-124 0 -188 -119l-96 43l63 473h469v-100h-383l-37 -270q73 69 181 69q122 0 205 -76t83 -211q0 -127 -83.5 -207.5t-213.5 -80.5q-101 0 -176.5 44.5t-113.5 119.5z" />
<glyph unicode="&#x2086;" horiz-adv-x="747" d="M70 285q0 123 65 213l248 366h125l-203 -297q53 17 88 17q119 0 202 -85t83 -212q0 -128 -87.5 -213.5t-215.5 -85.5q-131 0 -218 86.5t-87 210.5zM172 287q0 -86 58 -143.5t143 -57.5q81 0 140.5 59t59.5 144q0 82 -60 141t-140 59q-85 0 -143 -58t-58 -144z" />
<glyph unicode="&#x2087;" horiz-adv-x="669" d="M70 762v102h536v-92l-348 -772h-115l351 762h-424z" />
<glyph unicode="&#x2088;" horiz-adv-x="702" d="M76 246q0 71 36 127.5t97 87.5q-100 62 -100 182q0 98 67.5 166t173.5 68q105 0 174.5 -68.5t69.5 -165.5q0 -115 -105 -180q63 -30 99.5 -86.5t36.5 -130.5q0 -109 -74.5 -183.5t-200.5 -74.5q-125 0 -199.5 75t-74.5 183zM182 246q0 -68 46 -114t122 -46t122 46t46 114 q0 69 -45.5 116.5t-122.5 47.5q-76 0 -122 -48t-46 -116zM217 643q0 -58 36.5 -95.5t96.5 -37.5q61 0 99 37.5t38 95.5q0 57 -38 96t-99 39q-60 0 -96.5 -39t-36.5 -96z" />
<glyph unicode="&#x2089;" horiz-adv-x="727" d="M63 584q0 125 86 209t213 84q128 0 215 -84.5t87 -208.5q0 -107 -60 -201l-248 -383h-129l203 305q-35 -14 -86 -14q-117 0 -199 84t-82 209zM168 582q0 -82 57.5 -139.5t139.5 -57.5q81 0 138.5 58.5t57.5 140.5t-57 139t-139 57t-139.5 -57t-57.5 -141z" />
<glyph unicode="&#x208a;" horiz-adv-x="581" d="M72 387v90h176v172h88v-172h172v-90h-172v-174h-88v174h-176z" />
<glyph unicode="&#x208b;" horiz-adv-x="581" d="M72 387v92h436v-92h-436z" />
<glyph unicode="&#x208c;" horiz-adv-x="581" d="M72 287v90h436v-90h-436zM72 481v90h436v-90h-436z" />
<glyph unicode="&#x208d;" horiz-adv-x="557" d="M74 440q0 198 82 341.5t237 252.5l68 -88q-277 -191 -277 -506q0 -309 281 -503l-66 -91q-159 109 -242 253t-83 341z" />
<glyph unicode="&#x208e;" horiz-adv-x="559" d="M92 -63q281 194 281 503q0 315 -277 506l70 88q317 -232 317 -594q0 -196 -83 -340t-240 -254z" />
<glyph unicode="&#x20a1;" horiz-adv-x="1632" d="M111 748q0 209 103 385.5t279.5 279.5t385.5 103q47 0 122 -11l89 215h104l-98 -237q73 -22 137 -56l121 293h104l-141 -344q144 -103 221 -237l-100 -60q-65 113 -166 191l-481 -1172q43 -6 88 -6q195 0 343.5 92.5t233.5 251.5l105 -53q-102 -186 -280 -294.5 t-402 -108.5q-69 0 -134 12l-96 -238h-102l106 258q-49 14 -139 58l-129 -316h-100l149 367q-151 106 -237 269.5t-86 357.5zM233 748q0 -158 64.5 -291.5t181.5 -227.5l479 1170q-41 6 -79 6q-180 0 -329 -89t-233 -239.5t-84 -328.5zM559 176q67 -39 137 -59l494 1206 q-59 34 -135 57z" />
<glyph unicode="&#x20a2;" horiz-adv-x="1632" d="M111 748q0 209 103 385.5t279.5 279.5t385.5 103q207 0 383 -103t276 -274l-100 -60q-87 151 -232.5 238.5t-326.5 87.5q-180 0 -329 -89t-233 -239.5t-84 -328.5q0 -164 73 -306.5t203 -234.5t290 -111v719h114v-203q43 98 129.5 150.5t206.5 52.5h121v-108h-121 q-166 0 -250 -96t-84 -285v-234q184 10 322.5 101t218.5 243l105 -53q-102 -186 -280 -294.5t-402 -108.5q-209 0 -385.5 103t-279.5 279.5t-103 385.5z" />
<glyph unicode="&#x20a3;" horiz-adv-x="1114" d="M135 0v1495h846v-113h-727v-421h727v-109h-727v-219h727v-109h-727v-524h-119z" />
<glyph unicode="&#x20a4;" horiz-adv-x="1427" d="M94 190q0 92 63.5 149t172.5 58q74 0 135.5 -30.5t134.5 -87.5q6 30 6 65q0 50 -9 93.5t-34.5 96.5t-38 75t-51.5 87h-319v185h221q-45 113 -45 233q0 181 118 291.5t310 110.5q282 0 426 -218l-97 -73q-52 96 -130 142t-199 46q-141 0 -226.5 -81.5t-85.5 -215.5 q0 -114 52 -235h475v-185h-379q36 -66 56 -109.5t37.5 -109t17.5 -127.5q0 -72 -25 -139q76 -65 141.5 -100t145.5 -35q120 0 174.5 63.5t54.5 222.5v37h119v-51q0 -197 -82 -282.5t-256 -85.5q-102 0 -179.5 38.5t-160.5 108.5q-46 -68 -119.5 -107.5t-167.5 -39.5 q-129 0 -192.5 56.5t-63.5 153.5zM199 188q0 -54 39.5 -85t111.5 -31q145 0 215 118q-63 56 -116 84.5t-115 28.5q-66 0 -100.5 -31t-34.5 -84z" />
<glyph unicode="&#x20a6;" horiz-adv-x="1669" d="M63 559v92h166v191h-166v94h166v559h125l410 -559h557v559h119v-559h164v-94h-164v-191h164v-92h-164v-559h-121l-412 559h-561v-559h-117v559h-166zM346 651h494l-140 191h-354v-191zM346 936h285l-285 387v-387zM834 842l139 -191h348v191h-487zM1040 559l281 -381v381 h-281z" />
<glyph unicode="&#x20a7;" horiz-adv-x="2592" d="M135 0v1495h453q233 0 383 -132.5t162 -338.5h174v244l118 63v-307h250v-104h-250v-525q0 -170 57.5 -227t229.5 -57h369q148 0 219.5 49t71.5 137q0 25 -9 46.5t-21 37t-37 29.5t-43 22.5t-55 19t-57 15t-63 14.5q-47 11 -71.5 17.5t-67 20.5t-66 26.5t-53.5 34.5 t-45.5 46.5t-27 59.5t-11.5 76q0 118 98.5 201.5t259.5 83.5q110 0 207 -40t160 -112l-86 -72q-108 123 -281 123q-114 0 -178.5 -51t-64.5 -131q0 -20 4 -37t15.5 -31.5t20.5 -25t31 -21t33.5 -17t41.5 -15.5t42.5 -12t49 -12.5t48.5 -12.5q62 -14 102 -25t91 -33.5 t81 -50.5t51 -72.5t21 -101.5q0 -133 -100.5 -215t-316.5 -82h-377q-115 0 -189 19.5t-120 67.5t-64 120.5t-18 185.5v527h-177q-25 -196 -172 -319.5t-370 -123.5h-334v-477h-119zM254 588h328q196 0 314 113.5t118 285.5q0 175 -117.5 287t-314.5 112h-328v-798z" />
<glyph unicode="&#x20a8;" horiz-adv-x="2021" d="M135 0v1495h457q137 0 250 -63t177 -170t64 -234q0 -112 -50.5 -210t-144.5 -164.5t-214 -82.5q281 -491 815 -491q153 0 234 59.5t81 147.5q0 21 -4.5 38.5t-16 32.5t-21.5 26t-32 22t-34.5 17.5t-42.5 15.5t-43 12.5t-49 13t-48 12.5q-39 11 -56 15.5t-53 16 t-53.5 19.5t-46.5 22t-44 27.5t-34.5 33.5t-28.5 41.5t-16 49.5t-7 60q0 118 98.5 201.5t259.5 83.5q110 0 206.5 -40t159.5 -112l-86 -72q-108 123 -280 123q-114 0 -179 -51t-65 -131q0 -34 17.5 -61t36.5 -43.5t66 -34.5t70.5 -24.5t85.5 -22.5q2 -1 3.5 -1t3.5 -1t4 -1 q42 -10 72 -18t68.5 -22t65.5 -28.5t55.5 -36.5t45.5 -47.5t28 -60t11 -75.5q0 -48 -15 -92t-48 -84t-82 -69.5t-121.5 -47t-161.5 -17.5q-155 0 -289.5 34.5t-237.5 94t-192.5 149t-155.5 188.5t-126 223h90q165 0 274 108.5t109 253.5q0 154 -107 256t-274 102h-330v-1386 h-119z" />
<glyph unicode="&#x20a9;" horiz-adv-x="2234" d="M63 559v92h293l-57 191h-236v94h209l-166 559h127l162 -559h475l191 559h110l189 -559h483l168 559h121l-172 -559h209v-94h-238l-57 -191h295v-92h-324l-170 -559h-119l-188 559h-510l-188 -559h-121l-166 559h-320zM422 842l55 -191h297l66 191h-418zM504 559l110 -377 l129 377h-239zM891 651h446l-65 191h-318zM987 936h254l-127 375zM1391 842l65 -191h301l58 191h-424zM1487 559l129 -381l115 381h-244z" />
<glyph unicode="&#x20aa;" horiz-adv-x="1374" d="M135 0v1495h363q215 0 314 -107.5t99 -340.5v-623q0 -67 -25 -94t-91 -27v744q0 176 -67 256.5t-226 80.5h-248v-1384h-119zM463 0v1176q65 0 92 -28t27 -95v-942h252q152 0 219 81.5t67 256.5v1046h119v-1046q0 -232 -100.5 -340.5t-309.5 -108.5h-366z" />
<glyph unicode="&#x20ac;" d="M63 463v96h138v377h-138v96h138q0 213 131 348.5t336 135.5q220 0 352 -152l-82 -74q-91 117 -268 117q-165 0 -257 -100t-94 -275h580l-16 -96h-564v-377h502l-16 -96h-486v-6q0 -177 90.5 -273t256.5 -96q196 0 284 129l92 -76q-124 -161 -374 -161q-224 0 -345.5 126 t-121.5 351v6h-138z" />
<glyph unicode="&#x20ae;" horiz-adv-x="1277" d="M113 1386v109h1052v-109h-467v-405l285 119v-96l-285 -117v-189l285 117v-96l-285 -117v-602h-116v553l-279 -113v97l279 112v189l-279 -113v94l279 115v452h-469z" />
<glyph unicode="&#x20b1;" horiz-adv-x="1437" d="M63 799v94h166v190h-166v93h166v319h451q190 0 323 -86t189 -233h180v-93h-153q8 -41 8 -96q0 -53 -8 -94h153v-94h-180q-55 -150 -188 -236t-324 -86h-334v-477h-117v799h-166zM346 588h328q138 0 238 56t151 155h-717v-211zM346 893h752q10 52 10 94q0 38 -10 96h-752 v-190zM346 1176h717q-51 99 -151 154.5t-238 55.5h-328v-210z" />
<glyph unicode="&#x2117;" horiz-adv-x="1757" d="M111 512q0 209 103 385.5t279.5 279.5t385.5 103t385.5 -103t279.5 -279.5t103 -385.5t-103 -385.5t-279.5 -279.5t-385.5 -103t-385.5 103t-279.5 279.5t-103 385.5zM225 512q0 -181 86 -333.5t236.5 -241.5t331.5 -89t331.5 89t236 241.5t85.5 333.5t-85.5 333.5 t-236 241.5t-331.5 89t-331.5 -89t-236.5 -241.5t-86 -333.5zM627 127v780h317q120 0 197.5 -75t77.5 -187q0 -116 -73 -197t-198 -81h-211v-240h-110zM737 467h195q78 0 127 52t49 126q0 72 -50.5 119t-125.5 47h-195v-344z" />
<glyph unicode="&#x2120;" horiz-adv-x="1337" d="M61 983l78 57q52 -69 123 -69q47 0 76 27.5t29 70.5q0 36 -29.5 58t-71 35.5t-83.5 30.5t-71.5 54.5t-29.5 95.5q0 67 51 109.5t127 42.5q113 0 180 -80l-80 -51q-34 51 -102 51q-42 0 -67 -21t-25 -53q0 -33 30 -54t72 -34.5t84.5 -31t72.5 -56t30 -96.5 q0 -75 -53.5 -126.5t-139.5 -51.5q-130 0 -201 92zM569 901v594h80l246 -326l252 326h76v-594h-90v445l-238 -304l-240 304v-445h-86z" />
<glyph unicode="&#x2122;" horiz-adv-x="1394" d="M76 1415v80h475v-80h-193v-514h-88v514h-194zM627 901v594h82l243 -324l252 324h76v-594h-88v445l-240 -304l-239 306v-447h-86z" />
<glyph unicode="&#x2153;" horiz-adv-x="1685" d="M76 631v100h172v584q-19 -31 -61 -52.5t-83 -21.5h-12v113h6q77 0 114.5 43.5t37.5 97.5h104v-764h166v-100h-444zM215 0l1079 1495h140l-1080 -1495h-139zM1061 104l90 70q64 -88 182 -88q78 0 128 43.5t50 112.5q0 72 -52 113.5t-136 41.5h-86v99h86q83 0 128.5 40 t45.5 107q0 63 -46.5 101t-121.5 38q-112 0 -170 -90l-90 51q38 60 106.5 97t153.5 37q124 0 197 -64t73 -170q0 -130 -116 -194q135 -64 135 -207q0 -113 -76.5 -183.5t-208.5 -70.5q-176 0 -272 116z" />
<glyph unicode="&#x2154;" horiz-adv-x="1716" d="M70 1327q39 84 112 132t170 48q126 0 201.5 -67.5t75.5 -169.5q0 -48 -18.5 -91t-57 -81.5t-71 -63.5t-85.5 -61q-55 -38 -79 -56t-61.5 -52t-53 -65.5t-15.5 -66.5h443v-102h-551v102q0 41 15.5 80t35 67t58 62.5t63 53t70.5 51.5q110 76 143 110q55 56 55 113 q0 63 -45.5 103t-122.5 40q-125 0 -190 -133zM264 0l1079 1495h140l-1080 -1495h-139zM1092 104l90 70q64 -88 182 -88q78 0 128 43.5t50 112.5q0 72 -52 113.5t-136 41.5h-86v99h86q83 0 128.5 40t45.5 107q0 63 -46.5 101t-121.5 38q-112 0 -170 -90l-90 51 q38 60 106.5 97t153.5 37q124 0 197 -64t73 -170q0 -129 -117 -194q136 -65 136 -207q0 -113 -76.5 -183.5t-208.5 -70.5q-176 0 -272 116z" />
<glyph unicode="&#x2155;" horiz-adv-x="1712" d="M76 631v100h172v584q-19 -31 -61 -52.5t-83 -21.5h-12v113h6q77 0 114.5 43.5t37.5 97.5h104v-764h166v-100h-444zM215 0l1079 1495h140l-1080 -1495h-139zM1059 152l98 57q60 -123 195 -123q80 0 133 52.5t53 137.5q0 89 -54.5 140t-133.5 51q-125 0 -189 -119l-96 43 l63 473h469v-100h-383l-36 -270q73 69 180 69q122 0 205.5 -76t83.5 -211q0 -127 -83.5 -207.5t-213.5 -80.5q-101 0 -177 44.5t-114 119.5z" />
<glyph unicode="&#x2156;" horiz-adv-x="1742" d="M70 1327q39 84 112 132t170 48q126 0 201.5 -67.5t75.5 -169.5q0 -48 -18.5 -91t-57 -81.5t-71 -63.5t-85.5 -61q-55 -38 -79 -56t-61.5 -52t-53 -65.5t-15.5 -66.5h443v-102h-551v102q0 41 15.5 80t35 67t58 62.5t63 53t70.5 51.5q110 76 143 110q55 56 55 113 q0 63 -45.5 103t-122.5 40q-125 0 -190 -133zM256 0l1079 1495h140l-1080 -1495h-139zM1090 152l98 57q60 -123 194 -123q80 0 133.5 52.5t53.5 137.5q0 89 -55 140t-134 51q-124 0 -188 -119l-96 43l63 473h469v-100h-383l-37 -270q73 69 181 69q122 0 205 -76t83 -211 q0 -127 -83.5 -207.5t-213.5 -80.5q-101 0 -176.5 44.5t-113.5 119.5z" />
<glyph unicode="&#x2157;" horiz-adv-x="1775" d="M51 735l90 70q64 -88 183 -88q78 0 128 43t50 112q0 72 -52.5 114t-136.5 42h-86v98h86q83 0 128.5 40t45.5 108q0 63 -46.5 101t-121.5 38q-111 0 -169 -90l-91 51q38 60 106.5 96.5t153.5 36.5q124 0 197.5 -63.5t73.5 -169.5q0 -130 -117 -195q135 -64 135 -207 q0 -113 -76 -183.5t-208 -70.5q-176 0 -273 117zM279 0l1079 1495h139l-1079 -1495h-139zM1122 152l99 57q60 -123 194 -123q80 0 133.5 52.5t53.5 137.5q0 89 -55 140t-134 51q-124 0 -188 -119l-97 43l64 473h469v-100h-383l-37 -270q73 69 180 69q122 0 205.5 -76 t83.5 -211q0 -127 -83.5 -207.5t-213.5 -80.5q-101 0 -177 44.5t-114 119.5z" />
<glyph unicode="&#x2158;" horiz-adv-x="1740" d="M70 829v99l395 567h110v-567h125v-99h-125v-198h-106v198h-399zM186 928h283v401zM244 0l1079 1495h139l-1079 -1495h-139zM1087 152l99 57q60 -123 194 -123q80 0 133.5 52.5t53.5 137.5q0 89 -55 140t-134 51q-124 0 -188 -119l-96 43l63 473h469v-100h-383l-37 -270 q73 69 180 69q122 0 205.5 -76t83.5 -211q0 -127 -83.5 -207.5t-213.5 -80.5q-101 0 -177 44.5t-114 119.5z" />
<glyph unicode="&#x2159;" horiz-adv-x="1611" d="M76 631v100h172v584q-19 -31 -61 -52.5t-83 -21.5h-12v113h6q77 0 114.5 43.5t37.5 97.5h104v-764h166v-100h-444zM215 0l1079 1495h140l-1080 -1495h-139zM930 285q0 123 65 213l248 366h125l-203 -297q53 17 88 17q119 0 202 -85t83 -212q0 -128 -87.5 -213.5 t-215.5 -85.5q-131 0 -218 86.5t-87 210.5zM1032 287q0 -86 58 -143.5t143 -57.5q81 0 141 59t60 144q0 82 -60.5 141t-140.5 59q-85 0 -143 -58t-58 -144z" />
<glyph unicode="&#x215a;" horiz-adv-x="1685" d="M72 782l98 58q60 -123 195 -123q80 0 133 52.5t53 137.5q0 89 -55 140t-134 51q-124 0 -188 -119l-96 43l63 473h469v-100h-383l-37 -271q74 70 181 70q122 0 205 -76t83 -211q0 -127 -84 -208t-213 -81q-101 0 -176.5 44.5t-113.5 119.5zM291 0l1079 1495h139 l-1079 -1495h-139zM1006 285q0 123 65 213l248 366h125l-203 -297q53 17 88 17q119 0 202 -85t83 -212q0 -128 -87.5 -213.5t-215.5 -85.5q-131 0 -218 86.5t-87 210.5zM1108 287q0 -86 58 -143.5t143 -57.5q81 0 140.5 59t59.5 144q0 82 -60 141t-140 59q-85 0 -143 -58 t-58 -144z" />
<glyph unicode="&#x215b;" horiz-adv-x="1718" d="M76 631v100h172v584q-19 -31 -61 -52.5t-83 -21.5h-12v113h6q77 0 114.5 43.5t37.5 97.5h104v-764h166v-100h-444zM213 0l1079 1495h140l-1080 -1495h-139zM1090 246q0 71 36 127.5t97 87.5q-101 63 -101 182q0 98 68 166t174 68q105 0 174.5 -68.5t69.5 -165.5 q0 -115 -105 -180q63 -30 99 -86.5t36 -130.5q0 -109 -74 -183.5t-200 -74.5q-125 0 -199.5 75t-74.5 183zM1196 246q0 -68 46 -114t122 -46t122 46t46 114q0 69 -45.5 116.5t-122.5 47.5q-76 0 -122 -48t-46 -116zM1231 643q0 -58 36.5 -95.5t96.5 -37.5q61 0 99 37.5 t38 95.5q0 57 -38 96t-99 39q-60 0 -96.5 -39t-36.5 -96z" />
<glyph unicode="&#x215c;" horiz-adv-x="1781" d="M51 735l90 70q64 -88 183 -88q78 0 128 43t50 112q0 72 -52.5 114t-136.5 42h-86v98h86q83 0 128.5 40t45.5 108q0 63 -46.5 101t-121.5 38q-111 0 -169 -90l-91 51q38 60 106.5 96.5t153.5 36.5q124 0 197.5 -63.5t73.5 -169.5q0 -130 -117 -195q135 -64 135 -207 q0 -113 -76 -183.5t-208 -70.5q-176 0 -273 117zM279 0l1079 1495h139l-1079 -1495h-139zM1155 246q0 71 36 127.5t97 87.5q-100 62 -100 182q0 98 68 166t174 68q105 0 174 -68.5t69 -165.5q0 -116 -104 -180q63 -30 99 -86.5t36 -130.5q0 -109 -74 -183.5t-200 -74.5 q-125 0 -200 75t-75 183zM1262 246q0 -68 46 -114t122 -46t121.5 46t45.5 114q0 69 -45 116.5t-122 47.5q-76 0 -122 -48t-46 -116zM1296 643q0 -58 36.5 -95.5t97.5 -37.5t99 37.5t38 95.5q0 57 -38 96t-99 39q-60 0 -97 -39t-37 -96z" />
<glyph unicode="&#x215d;" horiz-adv-x="1794" d="M72 782l98 58q60 -123 195 -123q80 0 133 52.5t53 137.5q0 89 -55 140t-134 51q-124 0 -188 -119l-96 43l63 473h469v-100h-383l-37 -271q74 70 181 70q122 0 205 -76t83 -211q0 -127 -84 -208t-213 -81q-101 0 -176.5 44.5t-113.5 119.5zM291 0l1079 1495h139 l-1079 -1495h-139zM1167 246q0 71 36 127.5t97 87.5q-100 62 -100 182q0 98 68 166t174 68q105 0 174.5 -68.5t69.5 -165.5q0 -115 -105 -180q63 -30 99 -86.5t36 -130.5q0 -109 -74 -183.5t-200 -74.5q-125 0 -200 75t-75 183zM1274 246q0 -68 46 -114t122 -46t122 46 t46 114q0 69 -45.5 116.5t-122.5 47.5q-76 0 -122 -48t-46 -116zM1309 643q0 -58 36.5 -95.5t96.5 -37.5q61 0 99 37.5t38 95.5q0 57 -38 96t-99 39q-60 0 -96.5 -39t-36.5 -96z" />
<glyph unicode="&#x215e;" horiz-adv-x="1622" d="M113 1393v102h536v-92l-348 -772h-115l351 762h-424zM119 0l1079 1495h139l-1079 -1495h-139zM995 246q0 71 36 127.5t97 87.5q-100 62 -100 182q0 98 68 166t174 68q105 0 174 -68.5t69 -165.5q0 -116 -104 -180q63 -30 99 -86.5t36 -130.5q0 -109 -74 -183.5 t-200 -74.5q-125 0 -200 75t-75 183zM1102 246q0 -68 46 -114t122 -46t122 46t46 114q0 69 -45.5 116.5t-122.5 47.5q-76 0 -122 -48t-46 -116zM1137 643q0 -58 36.5 -95.5t96.5 -37.5q61 0 99 37.5t38 95.5q0 57 -38 96t-99 39q-60 0 -96.5 -39t-36.5 -96z" />
<glyph unicode="&#x215f;" horiz-adv-x="1488" d="M76 631v100h172v584q-19 -31 -61 -52.5t-83 -21.5h-12v113h6q77 0 114.5 43.5t37.5 97.5h104v-764h166v-100h-444zM215 0l1079 1495h140l-1080 -1495h-139z" />
<glyph unicode="&#x2190;" horiz-adv-x="1835" d="M100 715v71q121 63 244.5 192t183.5 263l99 -61q-51 -103 -148.5 -206.5t-191.5 -166.5h1405v-113h-1409q96 -64 195 -165.5t149 -204.5l-99 -64q-60 134 -183.5 263t-244.5 192z" />
<glyph unicode="&#x2191;" horiz-adv-x="1835" d="M414 1137q133 60 261 182.5t191 243.5h72q69 -123 196 -245t259 -181l-62 -99q-104 51 -206 147.5t-164 190.5v-1376h-117v1372q-63 -95 -164.5 -189.5t-204.5 -144.5z" />
<glyph unicode="&#x2192;" horiz-adv-x="1835" d="M109 694v113h1404q-96 64 -192 165.5t-147 205.5l100 63q61 -135 182.5 -265t243.5 -192v-69q-122 -62 -245 -191t-185 -264l-96 62q46 102 144 205t195 167h-1404z" />
<glyph unicode="&#x2193;" horiz-adv-x="1835" d="M412 358l61 99q102 -52 205 -147t164 -187v1372h116v-1380q66 97 167.5 194.5t203.5 147.5l64 -99q-135 -61 -264 -182.5t-191 -243.5h-72q-63 122 -191.5 243.5t-262.5 182.5z" />
<glyph unicode="&#x2196;" horiz-adv-x="1835" d="M291 666q53 136 56 316t-40 304l51 53q127 -41 308.5 -36.5t316.5 55.5l25 -113q-107 -38 -258 -41.5t-246 19.5l995 -996l-82 -80l-993 994q26 -95 21.5 -243.5t-42.5 -258.5z" />
<glyph unicode="&#x2197;" horiz-adv-x="1835" d="M295 227l989 992q-94 -23 -243 -19t-257 43l27 113q136 -52 317 -56.5t306 37.5l51 -51q-42 -125 -38 -305.5t56 -316.5l-112 -27q-38 108 -42 260.5t19 245.5l-995 -996z" />
<glyph unicode="&#x2198;" horiz-adv-x="1835" d="M293 1272l80 80l993 -996q-23 95 -19 245.5t42 258.5l112 -26q-51 -135 -55 -316.5t37 -304.5l-49 -53q-127 41 -308.5 36.5t-316.5 -55.5l-25 113q107 38 258 41.5t246 -19.5z" />
<glyph unicode="&#x2199;" horiz-adv-x="1835" d="M289 836l112 26q38 -110 41 -262t-20 -246l995 998l80 -80l-991 -993q95 23 244.5 19t257.5 -42l-27 -113q-135 51 -317.5 55.5t-305.5 -36.5l-51 51q43 124 39 306t-57 317z" />
<glyph unicode="&#x2202;" horiz-adv-x="1251" d="M106 498q0 142 68.5 260t185 185t252.5 67q215 0 334 -146q-75 148 -225.5 300t-398.5 331h180q330 -257 486.5 -499t156.5 -498q0 -214 -150.5 -363t-369.5 -149q-142 0 -261 66.5t-188.5 184.5t-69.5 261zM225 498q0 -167 118.5 -285.5t283.5 -118.5q167 0 283 118 t116 286q0 165 -116.5 283t-282.5 118q-165 0 -283.5 -118t-118.5 -283z" />
<glyph unicode="&#x2206;" horiz-adv-x="1837" d="M41 0l879 1520l876 -1520h-1755zM242 113h1353l-675 1177z" />
<glyph unicode="&#x220f;" horiz-adv-x="1517" d="M88 1380v115h1344v-115h-271v-1380h-119v1380h-567v-1380h-119v1380h-268z" />
<glyph unicode="&#x2211;" horiz-adv-x="1177" d="M88 0v121l549 655l-535 600v119h983v-113h-835l536 -608l-555 -661h854v-113h-997z" />
<glyph unicode="&#x2212;" horiz-adv-x="972" d="M109 698v103h757v-103h-757z" />
<glyph unicode="&#x221a;" horiz-adv-x="1589" d="M92 907v117h281l338 -897l649 1368h129l-717 -1495h-135l-350 907h-195z" />
<glyph unicode="&#x221e;" horiz-adv-x="1925" d="M219 786q0 129 92 220.5t221 91.5q55 0 112.5 -19t115.5 -56t104.5 -73.5t106.5 -89.5q131 116 231 177t205 61q129 0 221 -91.5t92 -220.5t-92 -220t-221 -91q-55 0 -111.5 18.5t-115 56.5t-103.5 73.5t-106 89.5q-60 -53 -106.5 -89.5t-104.5 -73.5t-115.5 -56 t-112.5 -19q-129 0 -221 91t-92 220zM328 784q0 -82 62 -143t145 -61q78 0 160.5 52t197.5 152q-116 101 -198 153t-160 52q-83 0 -145 -61.5t-62 -143.5zM1051 786q111 -98 194.5 -150t161.5 -52q85 0 144 60.5t59 143.5q0 82 -60.5 143.5t-142.5 61.5q-79 0 -159.5 -52 t-196.5 -155z" />
<glyph unicode="&#x222b;" horiz-adv-x="702" d="M-12 -309q87 0 135.5 9.5t78.5 40.5t39 79.5t9 136.5v1165q0 113 16.5 183t60.5 113.5t112 60t179 16.5h11v-109q-59 0 -97 -3.5t-69.5 -15t-48.5 -28.5t-28.5 -48.5t-15 -71t-3.5 -99.5v-1163q0 -113 -17 -183.5t-60.5 -114.5t-112 -60.5t-179.5 -16.5h-10v109z" />
<glyph unicode="&#x2248;" horiz-adv-x="956" d="M98 506v106q52 27 94.5 40.5t100.5 13.5q64 0 192 -38t179 -38q56 0 93.5 10.5t98.5 38.5v-107q-45 -26 -86 -36.5t-106 -10.5q-58 0 -189 38t-182 38q-39 0 -75 -8.5t-58 -17.5t-62 -29zM98 842v106q101 53 199 53q64 0 186.5 -38.5t175.5 -38.5q55 0 95.5 11.5 t101.5 39.5v-107q-46 -27 -89.5 -39t-107.5 -12q-58 0 -185 39t-177 39q-56 0 -100 -13t-99 -40z" />
<glyph unicode="&#x2260;" horiz-adv-x="972" d="M109 528v101h258l110 229h-368v103h417l68 137h111l-68 -137h229v-103h-278l-111 -229h389v-101h-438l-66 -137h-108l65 137h-210z" />
<glyph unicode="&#x2261;" horiz-adv-x="972" d="M109 365v100h757v-100h-757zM109 692v101h757v-101h-757zM109 1022v102h757v-102h-757z" />
<glyph unicode="&#x2264;" horiz-adv-x="972" d="M106 358v103h758v-103h-758zM106 856v102l758 289v-106l-633 -234l633 -241v-107z" />
<glyph unicode="&#x2265;" horiz-adv-x="972" d="M106 358v103h758v-103h-758zM106 559v107l635 241l-635 234v106l758 -289v-102z" />
<glyph unicode="&#x22a0;" horiz-adv-x="1896" d="M205 0v1495h1487v-1495h-1487zM324 113h1249v1269h-1249v-1269zM535 387l348 363l-346 358l69 70l346 -359l342 359l70 -72l-344 -356l346 -357l-70 -69l-344 354l-348 -363z" />
<glyph unicode="&#x2302;" horiz-adv-x="1789" d="M205 0v874l690 662l690 -662v-874h-1380z" />
<glyph unicode="&#x25a0;" horiz-adv-x="1896" d="M205 0v1495h1487v-1495h-1487z" />
<glyph unicode="&#x25a1;" horiz-adv-x="1896" d="M205 0v1495h1487v-1495h-1487zM324 113h1249v1269h-1249v-1269z" />
<glyph unicode="&#x25aa;" horiz-adv-x="1433" d="M205 0v1024h1024v-1024h-1024z" />
<glyph unicode="&#x25ab;" horiz-adv-x="1433" d="M205 0v1024h1024v-1024h-1024zM324 113h786v798h-786v-798z" />
<glyph unicode="&#x25b2;" horiz-adv-x="1837" d="M41 0l879 1520l876 -1520h-1755z" />
<glyph unicode="&#x25ba;" horiz-adv-x="1837" d="M205 -117v1755l1519 -876z" />
<glyph unicode="&#x25bc;" horiz-adv-x="1837" d="M41 1495h1755l-876 -1520z" />
<glyph unicode="&#x25c4;" horiz-adv-x="1837" d="M113 762l1519 876v-1755z" />
<glyph unicode="&#x25ca;" horiz-adv-x="1726" d="M68 750l778 778l782 -783l-778 -778zM217 750l633 -631l629 629l-633 630z" />
<glyph unicode="&#x25cb;" horiz-adv-x="1898" d="M182 748q0 209 103 385.5t279.5 279.5t385.5 103t385.5 -103t279.5 -279.5t103 -385.5t-103 -385.5t-279.5 -279.5t-385.5 -103t-385.5 103t-279.5 279.5t-103 385.5zM303 748q0 -177 85 -327.5t234 -239.5t328 -89t328 89t234 239.5t85 327.5q0 179 -85 329t-234 238 t-328 88t-328 -88t-234 -238t-85 -329z" />
<glyph unicode="&#x25ce;" horiz-adv-x="1898" d="M182 748q0 209 103 385.5t279.5 279.5t385.5 103t385.5 -103t279.5 -279.5t103 -385.5t-103 -385.5t-279.5 -279.5t-385.5 -103t-385.5 103t-279.5 279.5t-103 385.5zM303 748q0 -177 85 -327.5t234 -239.5t328 -89t328 89t234 239.5t85 327.5q0 179 -85 329t-234 238 t-328 88t-328 -88t-234 -238t-85 -329zM514 745q0 184 127 311.5t309 127.5q184 0 311.5 -127t127.5 -312q0 -184 -127 -311t-312 -127q-182 0 -309 127t-127 311zM631 745q0 -138 92 -232.5t227 -94.5t229.5 94.5t94.5 232.5t-94.5 233t-229.5 95t-227 -95t-92 -233z M842 748q0 47 30.5 78.5t77.5 31.5t79 -31.5t32 -78.5t-32 -78t-79 -31t-77.5 31t-30.5 78z" />
<glyph unicode="&#x25cf;" horiz-adv-x="1898" d="M182 748q0 209 103 385.5t279.5 279.5t385.5 103t385.5 -103t279.5 -279.5t103 -385.5t-103 -385.5t-279.5 -279.5t-385.5 -103t-385.5 103t-279.5 279.5t-103 385.5z" />
<glyph unicode="&#x25e2;" horiz-adv-x="1837" d="M92 1546l1696 -454l-1241 -1242z" />
<glyph unicode="&#x25e3;" horiz-adv-x="1837" d="M53 1092l1696 454l-455 -1696z" />
<glyph unicode="&#x25e4;" horiz-adv-x="1837" d="M59 344l1241 1241l455 -1696z" />
<glyph unicode="&#x25e5;" horiz-adv-x="1837" d="M90 -119l457 1696l1239 -1243z" />
<glyph unicode="&#x25fc;" horiz-adv-x="1198" d="M0 0v1198h1198v-1198h-1198z" />
<glyph unicode="&#x2605;" horiz-adv-x="1843" d="M301 899l469 -2l148 446l145 -446l471 -2l-383 -274l147 -447l-383 277l-380 -277l147 449z" />
<glyph unicode="&#x2612;" horiz-adv-x="1433" d="M205 0v1024h1024v-1024h-1024zM324 113h786v798h-786v-798zM428 721l70 70l215 -213l213 219l69 -70l-211 -217l217 -213l-69 -72l-217 213l-211 -217l-70 70l211 217z" />
<glyph unicode="&#x263c;" horiz-adv-x="1900" d="M221 694v111l291 -35v-41zM287 434l272 115l21 -33l-232 -176zM287 1063l57 96l236 -178l-21 -31zM535 150l178 235l30 -20l-112 -273zM535 1350l96 57l112 -272l-30 -21zM588 748q0 146 105 251t251 105t251 -105t105 -251t-105 -251.5t-251 -105.5t-251 105.5 t-105 251.5zM889 27l35 290h41l34 -290h-110zM889 1473h110l-34 -291h-41zM1145 365l31 20l178 -235l-97 -58zM1145 1135l112 272l97 -57l-178 -236zM1309 518l20 31l273 -113l-58 -96zM1309 983l231 176l62 -94l-273 -115zM1376 729v41l291 35v-111z" />
<glyph unicode="&#x263e;" horiz-adv-x="1611" d="M268 748q0 123 48 235t129.5 193.5t193.5 129.5t235 48q201 0 365 -117q-84 25 -145 25q-202 0 -346 -151t-144 -363t144 -363.5t346 -151.5q61 0 145 25q-164 -117 -365 -117q-123 0 -235 48t-193.5 129.5t-129.5 194t-48 235.5z" />
<glyph unicode="&#x2660;" horiz-adv-x="1884" d="M180 639q0 88 26.5 164t89.5 156t146.5 156.5t219.5 184.5l286 230h2l287 -230q177 -140 273.5 -240t145 -201.5t48.5 -219.5q0 -131 -96 -226.5t-226 -95.5q-138 0 -234 79.5t-136 197.5q0 -59 12.5 -125t27 -114t43.5 -114t43 -94t46 -86.5t33 -60.5h-531 q88 166 125 263q68 181 68 331q-19 -55 -49.5 -103.5t-73 -88.5t-101 -63.5t-125.5 -23.5q-143 0 -246.5 96t-103.5 228z" />
<glyph unicode="&#x2663;" horiz-adv-x="1884" d="M170 629q0 151 105.5 256.5t256.5 105.5q39 0 86 -14q-38 77 -38 178q0 148 104.5 254.5t253.5 106.5q148 0 254 -106.5t106 -254.5q0 -97 -38 -180q50 16 94 16q152 0 256 -105.5t104 -256.5t-105.5 -257t-256.5 -106q-115 0 -203 66t-131 174q8 -61 25 -123t45 -125.5 t45 -98t51 -96t35 -63.5h-531q1 3 23.5 45t31.5 60.5t30.5 63.5t33.5 78.5t27.5 79t25 91t14.5 90.5q-44 -109 -135 -175.5t-207 -66.5q-151 0 -256.5 106t-105.5 257z" />
<glyph unicode="&#x2665;" horiz-adv-x="1884" d="M182 1126q0 161 109 275.5t266 114.5q154 0 257.5 -93.5t121.5 -236.5q21 144 122.5 237t256.5 93q158 0 272.5 -115t114.5 -275q0 -174 -108.5 -362.5t-366.5 -476.5l-291 -322l-289 322q-255 285 -360 473.5t-105 365.5z" />
<glyph unicode="&#x2666;" horiz-adv-x="1884" d="M272 799l670 821l670 -821l-670 -819z" />
<glyph unicode="&#x267b;" horiz-adv-x="1886" d="M153 640q-5 26 2 52t25 56l56 94l-82 47l335 59l113 -319l-78 47q-38 -60 -67 -117q-70 -118 -72 -125q-37 -59 -25 -139q2 -26 17 -68h-4l-185 324q-16 31 -23 47t-12 42zM403 1143l129 229q24 38 66 60q60 30 124.5 27.5t119 -30t73.5 -65.5l-223 -387zM412.5 334 q2.5 42 19.5 69h447v-331h-261q-45 0 -86 24q-42 24 -71 65.5t-40 86t-8.5 86.5zM797 1491v2h372q30 -1 42.5 -1.5t36 -5.5t37 -14t30.5 -26t31 -43l53 -94l84 47l-119 -322l-332 62l78 45l-137 241q-41 64 -111 93q-40 14 -65 16zM1001 238l218 260v-95h278q71 0 135 52 q28 21 49 49l2 -4l-186 -322q-20 -30 -30 -43t-30 -31t-46 -25t-62 -7h-110v-97zM1284 842l287 164l133 -226q18 -27 18 -84q0 -92 -74.5 -166.5t-140.5 -74.5z" />
<glyph unicode="&#x267c;" horiz-adv-x="1886" d="M174 750q0 157 61 300t164 246.5t246 164.5t301 61q209 0 385.5 -103.5t279.5 -281t103 -387.5q0 -209 -103 -386t-279.5 -279.5t-385.5 -102.5q-158 0 -301 60.5t-246 163t-164 245t-61 299.5zM327 696.5q-2 -29.5 4 -44t23 -48.5l144 -250h2q-10 27 -13 52 q-11 59 19 110l108 186l62 -36l-88 247l-260 -45l63 -37l-43 -73q-19 -32 -21 -61.5zM520.5 438q-1.5 -33 7.5 -67t31.5 -66.5t54.5 -52.5q31 -19 66 -19h203v259h-348q-13 -21 -14.5 -54zM522 1065l223 -129l173 299q-26 47 -103 67t-143 -14q-39 -24 -49 -47zM817 1333 q16 -2 53 -14q53 -17 84 -70l109 -186l-62 -37l259 -47l90 250l-64 -37l-43 74q-27 45 -56.5 57t-80.5 12h-289v-2zM983 362l170 -202v73h84q38 0 64 12t38.5 26.5t28.5 43.5l145 250l-2 2q-63 -75 -143 -75h-215v71zM1202 829l174 -301q54 0 111 59t57 132q0 37 -16 65 l-101 174z" />
<glyph unicode="&#x267d;" horiz-adv-x="1886" d="M174 750q0 157 61 300t164 246.5t246 164.5t301 61q209 0 385.5 -103.5t279.5 -281t103 -387.5q0 -209 -103 -386t-279.5 -279.5t-385.5 -102.5q-158 0 -301 60.5t-246 163t-164 245t-61 299.5zM211 750q0 -198 98 -366.5t267.5 -267t369.5 -98.5q148 0 283.5 58 t233 156.5t155 234t57.5 283.5q0 200 -97.5 368.5t-265.5 266.5t-366 98q-201 0 -370 -98t-267 -266.5t-98 -368.5zM327 696.5q2 29.5 21 61.5l43 73l-63 37l260 45l88 -247l-62 36l-108 -186q-30 -51 -19 -110q3 -25 13 -52h-2l-144 250q-17 34 -23 48.5t-4 44zM520.5 438 q1.5 33 14.5 54h348v-259h-203q-35 0 -66 19q-32 20 -54.5 52.5t-31.5 66.5t-7.5 67zM522 1065l101 176q10 23 49 47q66 34 143 14t103 -67l-173 -299zM817 1333v2h289q51 0 80.5 -12t56.5 -57l43 -74l64 37l-90 -250l-259 47l62 37l-109 186q-29 50 -84 70q-36 12 -53 14z M983 362l170 201v-71h215q50 0 107 38q20 14 36 37l2 -2l-145 -250q-16 -29 -28.5 -43.5t-38.5 -26.5t-64 -12h-84v-73zM1202 829l225 129l101 -174q16 -28 16 -65q0 -73 -57 -132t-111 -59z" />
<glyph unicode="&#x26aa;" horiz-adv-x="1429" d="M184 512q0 148 71 270.5t192.5 192t267.5 69.5t268 -69.5t193 -192t71 -270.5t-71 -270.5t-193 -192t-268 -69.5t-267.5 69.5t-192.5 192t-71 270.5zM301 512q0 -177 120.5 -301.5t293.5 -124.5t293 124.5t120 301.5t-120 301.5t-293 124.5t-293.5 -124.5t-120.5 -301.5z " />
<glyph unicode="&#x26ab;" horiz-adv-x="1429" d="M184 512q0 145 70.5 267.5t193 193.5t267.5 71t267 -71t192.5 -193.5t70.5 -267.5t-70.5 -267.5t-192.5 -193.5t-267 -71t-267.5 71t-193 193.5t-70.5 267.5z" />
<glyph unicode="&#x3008;" horiz-adv-x="737" d="M76 512l467 983h127l-467 -983l467 -983h-127z" />
<glyph unicode="&#x3009;" horiz-adv-x="737" d="M70 -471l467 983l-467 983h127l467 -983l-467 -983h-127z" />
<glyph unicode="&#xe141;" horiz-adv-x="1220" d="M154 0v1495h467q137 0 250 -63t177 -170t64 -234q0 -149 -90.5 -271.5t-237.5 -166.5l336 -590h-133l-311 557h-404v-557h-118zM272 666h338q165 0 274 108.5t109 253.5q0 154 -107 256t-274 102h-340v-720z" />
<glyph unicode="&#xe142;" horiz-adv-x="1220" d="M154 0v1495h467q137 0 250 -63t177 -170t64 -234q0 -149 -90.5 -271.5t-237.5 -166.5l336 -590h-133l-311 557h-404v-557h-118zM272 666h338q165 0 274 108.5t109 253.5q0 154 -107 256t-274 102h-340v-720zM487 1628l244 318h154l-287 -318h-111z" />
<glyph unicode="&#xe143;" horiz-adv-x="1220" d="M154 0v1495h467q137 0 250 -63t177 -170t64 -234q0 -149 -90.5 -271.5t-237.5 -166.5l336 -590h-133l-311 557h-404v-557h-118zM272 666h338q165 0 274 108.5t109 253.5q0 154 -107 256t-274 102h-340v-720zM342 1946h121l166 -234l172 234h121l-242 -318h-98z" />
<glyph unicode="&#xe146;" horiz-adv-x="1220" d="M154 0v1495h467q137 0 250 -63t177 -170t64 -234q0 -149 -90.5 -271.5t-237.5 -166.5l336 -590h-133l-311 557h-404v-557h-118zM272 666h338q165 0 274 108.5t109 253.5q0 154 -107 256t-274 102h-340v-720zM504 -575l88 417h113l-119 -417h-82z" />
<glyph unicode="&#xe181;" horiz-adv-x="829" d="M123 1198q0 130 89.5 219.5t217.5 89.5q90 0 163 -45t112 -119l-80 -45q-27 55 -78.5 88t-116.5 33q-92 0 -154.5 -64t-62.5 -157q0 -91 62.5 -155t154.5 -64q70 0 121 34t78 93l82 -41q-39 -80 -112.5 -127t-168.5 -47q-128 0 -217.5 89.5t-89.5 217.5z" />
<glyph unicode="&#xe200;" horiz-adv-x="1073" d="M147 0v1221h377q198 0 321.5 -118.5t123.5 -299.5t-123.5 -299.5t-323.5 -118.5h-260v-385h-115zM262 494h254q151 0 242.5 88t91.5 221q0 134 -91.5 221.5t-242.5 87.5h-254v-618z" />
<glyph unicode="&#xe201;" horiz-adv-x="1179" d="M66 0l462 1221h123l463 -1221h-119l-118 313h-572l-119 -313h-120zM348 426h486l-244 641z" />
<glyph unicode="&#xe202;" horiz-adv-x="1101" d="M147 0v1221h455q164 0 265.5 -89t101.5 -231q0 -91 -43 -160t-123 -106q94 -35 146 -112.5t52 -182.5q0 -154 -103.5 -247t-270.5 -93h-480zM264 106h365q116 0 186 66t70 170q0 105 -67.5 168t-192.5 63h-361v-467zM264 684h352q110 0 174 60.5t64 156.5q0 94 -70 153.5 t-182 59.5h-338v-430z" />
<glyph unicode="&#xe203;" horiz-adv-x="1353" d="M102 610q0 129 49.5 245.5t133.5 200t199.5 132.5t242.5 49q173 0 321.5 -88t227.5 -234l-105 -53q-65 121 -181.5 193.5t-260.5 72.5q-106 0 -201 -41t-162 -111t-106 -165.5t-39 -200.5q0 -141 68 -260.5t184.5 -188.5t253.5 -69q155 0 272.5 77.5t182.5 209.5l108 -49 q-84 -162 -229 -255t-330 -93q-175 0 -320 85t-227 229t-82 314z" />
<glyph unicode="&#xe204;" horiz-adv-x="1224" d="M147 0v1221h342q137 0 255.5 -47.5t201 -129t129.5 -194t47 -240.5q0 -172 -82.5 -312t-226 -219t-319.5 -79h-347zM264 111h219q225 0 371.5 142t146.5 357q0 218 -143.5 360t-378.5 142h-215v-1001z" />
<glyph unicode="&#xe205;" horiz-adv-x="1007" d="M150 0v1221h741v-109h-627v-446h627v-109h-627v-446h627v-111h-741z" />
<glyph unicode="&#xe206;" horiz-adv-x="942" d="M147 0v1221h691v-109h-574v-446h574v-109h-574v-557h-117z" />
<glyph unicode="&#xe207;" horiz-adv-x="1445" d="M102 610q0 128 49.5 244t133.5 200t201 133.5t247 49.5q180 0 322 -82t221 -225l-102 -60q-67 121 -181.5 189.5t-259.5 68.5q-144 0 -262 -70t-184 -188.5t-66 -259.5q0 -139 64.5 -257t182.5 -189.5t265 -71.5q206 0 337 125t157 318h-508v110h629v-37 q0 -170 -74 -311.5t-216 -228t-325 -86.5q-175 0 -321 85.5t-228 229.5t-82 313z" />
<glyph unicode="&#xe208;" horiz-adv-x="1200" d="M147 0v1221h117v-553h672v553h117v-1221h-117v557h-672v-557h-117z" />
<glyph unicode="&#xe209;" horiz-adv-x="436" d="M158 0v1221h118v-1221h-118z" />
<glyph unicode="&#xe20a;" horiz-adv-x="835" d="M57 176l109 55q65 -139 209 -139q95 0 149 61.5t54 163.5v904h116v-897q0 -160 -84 -251t-233 -91q-115 0 -198.5 52t-121.5 142z" />
<glyph unicode="&#xe20b;" horiz-adv-x="1134" d="M150 0v1221h114v-695l623 695h145l-438 -486l473 -735h-133l-424 653l-246 -276v-377h-114z" />
<glyph unicode="&#xe20c;" horiz-adv-x="923" d="M147 0v1221h117v-1110h561v-111h-678z" />
<glyph unicode="&#xe20d;" horiz-adv-x="1492" d="M147 0v1221h115l483 -670l488 670h110v-1221h-114v1020l-484 -662l-481 668v-1026h-117z" />
<glyph unicode="&#xe20e;" horiz-adv-x="1290" d="M147 0v1221h129l750 -1039v1039h117v-1221h-125l-754 1042v-1042h-117z" />
<glyph unicode="&#xe20f;" horiz-adv-x="1456" d="M102 610q0 170 83 314.5t227 228.5t315 84t315.5 -84t228 -228.5t83.5 -314.5t-83.5 -314.5t-228 -229t-315.5 -84.5t-315 84.5t-227 229t-83 314.5zM221 610q0 -141 66 -260t182.5 -188.5t257.5 -69.5t257.5 69.5t182.5 188.5t66 260t-66 260t-182.5 188.5t-257.5 69.5 t-257.5 -69.5t-182.5 -188.5t-66 -260z" />
<glyph unicode="&#xe211;" horiz-adv-x="1456" d="M102 610q0 170 83 314.5t227 228.5t315 84t315.5 -84t228 -228.5t83.5 -314.5q0 -245 -174 -434l147 -176h-147l-432 520h145l213 -256q127 146 127 346q0 141 -66 260t-182.5 188.5t-257.5 69.5t-257.5 -69.5t-182.5 -188.5t-66 -260t66 -260t182.5 -188.5t257.5 -69.5 q126 0 240 62l69 -88q-148 -84 -309 -84q-171 0 -315 84.5t-227 229t-83 314.5z" />
<glyph unicode="&#xe212;" horiz-adv-x="1034" d="M147 0v1221h377q175 0 291.5 -112.5t116.5 -274.5q0 -134 -82.5 -238t-220.5 -131l315 -465h-139l-367 553h72q132 0 216.5 85t84.5 196q0 124 -78 201t-215 77h-252v-1112h-119z" />
<glyph unicode="&#xe213;" horiz-adv-x="964" d="M61 180l101 80q118 -170 309 -170q118 0 196 69.5t78 174.5q0 38 -10.5 69.5t-34 56t-47.5 42.5t-64 35t-69.5 27.5t-77.5 25.5q-38 13 -57.5 20t-54 21t-53.5 24t-47 27t-44 33t-34.5 39t-28.5 47t-16.5 55t-6.5 66q0 137 106 226t263 89q233 0 367 -166l-95 -72 q-92 136 -272 136q-107 0 -177.5 -59t-70.5 -152q0 -49 18 -85t63.5 -64t78 -41.5t104.5 -38.5q21 -7 31 -11q43 -14 73.5 -25t69.5 -29t66.5 -36.5t56 -45.5t45.5 -57t28 -70t11 -87q0 -145 -110 -248.5t-283 -103.5q-254 0 -412 198z" />
<glyph unicode="&#xe214;" horiz-adv-x="1048" d="M92 1110v111h864v-111h-372v-1110h-117v1110h-375z" />
<glyph unicode="&#xe215;" horiz-adv-x="1116" d="M141 393v828h117v-832q0 -131 85 -214t216 -83q130 0 214.5 83.5t84.5 215.5v830h117v-826q0 -185 -118 -299t-300 -114q-181 0 -298.5 113.5t-117.5 297.5z" />
<glyph unicode="&#xe216;" horiz-adv-x="1150" d="M66 1221h122l385 -1057l388 1057h124l-452 -1221h-119z" />
<glyph unicode="&#xe217;" horiz-adv-x="1794" d="M70 1221h125l294 -1039l345 1039h112l344 -1051l314 1051h118l-370 -1221h-119l-342 1038l-346 -1038h-121z" />
<glyph unicode="&#xe218;" horiz-adv-x="1099" d="M61 0l426 625l-397 596h129l336 -502l326 502h137l-397 -594l417 -627h-131l-354 530l-354 -530h-138z" />
<glyph unicode="&#xe219;" horiz-adv-x="1069" d="M70 1221h129l333 -531l336 531h131l-407 -643v-578h-115v578z" />
<glyph unicode="&#xe21a;" horiz-adv-x="1015" d="M102 0v109l672 1001h-651v111h788v-107l-671 -1001h671v-113h-809z" />
<glyph unicode="&#xe220;" horiz-adv-x="1179" d="M66 0l462 1221h123l463 -1221h-119l-405 1067l-404 -1067h-120z" />
<glyph unicode="&#xe221;" horiz-adv-x="1179" d="M66 0l462 1221h123l463 -1221h-119l-118 313h-572l-119 -313h-120zM348 426h486l-244 641zM530 1354l244 317h154l-287 -317h-111z" />
<glyph unicode="&#xe222;" horiz-adv-x="1179" d="M66 0l462 1221h123l463 -1221h-119l-118 313h-572l-119 -313h-120zM244 1671h151l246 -317h-111zM348 426h486l-244 641z" />
<glyph unicode="&#xe223;" horiz-adv-x="1179" d="M66 0l462 1221h123l463 -1221h-119l-118 313h-572l-119 -313h-120zM293 1337l244 318h100l244 -318h-125l-170 226l-170 -226h-123zM348 426h486l-244 641z" />
<glyph unicode="&#xe224;" horiz-adv-x="1179" d="M66 0l462 1221h123l463 -1221h-119l-118 313h-572l-119 -313h-120zM328 1528q0 38 26 63t64 25q41 0 64.5 -24.5t23.5 -63.5t-24 -64.5t-64 -25.5q-41 0 -65.5 25.5t-24.5 64.5zM348 426h486l-244 641zM672 1528q0 38 26 63t64 25q41 0 64.5 -24.5t23.5 -63.5t-24 -64.5 t-64 -25.5q-41 0 -65.5 25.5t-24.5 64.5z" />
<glyph unicode="&#xe225;" horiz-adv-x="1179" d="M66 0l462 1221h123l463 -1221h-119l-118 313h-572l-119 -313h-120zM236 1354q0 102 52 161.5t138 59.5q46 0 85.5 -15.5t90.5 -46.5q2 -1 16.5 -10t17.5 -10.5t15.5 -9t17.5 -9.5t15.5 -7.5t17 -7.5t15.5 -4.5t17 -3.5t16 -1q102 0 102 119h94q0 -105 -50.5 -164 t-143.5 -59q-37 0 -76.5 13t-57 23t-59.5 35q-8 5 -26 16t-27.5 16t-24 11.5t-28 9.5t-27.5 3q-43 0 -68.5 -30.5t-25.5 -88.5h-96zM348 426h486l-244 641z" />
<glyph unicode="&#xe226;" horiz-adv-x="1179" d="M66 0l438 1155q-55 24 -88 74t-33 112q0 86 58 145.5t143 59.5q88 0 147.5 -59.5t59.5 -145.5q0 -61 -31.5 -110t-85.5 -74l440 -1157h-119l-118 313h-572l-119 -313h-120zM348 426h486l-244 641zM473 1341q0 -46 33 -78t78 -32q48 0 81 31.5t33 78.5t-33.5 80t-80.5 33 q-45 0 -78 -33t-33 -80z" />
<glyph unicode="&#xe228;" horiz-adv-x="1179" d="M66 0l462 1221h123l463 -1221h-119l-118 313h-572l-119 -313h-120zM315 1354v102h541v-102h-541zM348 426h486l-244 641z" />
<glyph unicode="&#xe229;" horiz-adv-x="1179" d="M66 0l462 1221h123l463 -1221h-119l-118 313h-572l-119 -313h-120zM256 1661h100q0 -102 59.5 -166.5t170.5 -64.5q107 0 167 65t60 166h105q0 -133 -91 -227.5t-241 -94.5q-160 0 -245 92.5t-85 229.5zM348 426h486l-244 641z" />
<glyph unicode="&#xe22d;" horiz-adv-x="1179" d="M66 0l438 1155q-55 24 -88 74t-33 112q0 86 58 145.5t143 59.5q88 0 147.5 -59.5t59.5 -145.5q0 -61 -31.5 -110t-85.5 -74l440 -1157h-119l-118 313h-572l-119 -313h-120zM348 426h486l-244 641zM473 1341q0 -46 33 -78t78 -32q48 0 81 31.5t33 78.5t-33.5 80t-80.5 33 q-45 0 -78 -33t-33 -80zM526 1628l244 318h154l-287 -318h-111z" />
<glyph unicode="&#xe22f;" horiz-adv-x="1179" d="M66 0l462 1221h123l463 -1221q-148 -82 -199 -128t-51 -97q0 -49 41 -77t105 -28q52 0 92 20.5t84 59.5l92 -63q-55 -49 -125 -81t-143 -32q-118 0 -191.5 55t-73.5 140q0 73 54 138t182 128l-104 278h-572l-119 -313h-120zM348 426h486l-244 641z" />
<glyph unicode="&#xe230;" horiz-adv-x="1007" d="M150 0v1221h741v-109h-627v-446h627v-109h-627v-446h627v-111h-741zM272 1528q0 38 26 63t64 25q41 0 65 -24.5t24 -63.5t-24.5 -64.5t-64.5 -25.5q-41 0 -65.5 25.5t-24.5 64.5zM616 1528q0 38 26 63t65 25q41 0 64.5 -24.5t23.5 -63.5t-24 -64.5t-64 -25.5 q-41 0 -66 25.5t-25 64.5z" />
<glyph unicode="&#xe231;" horiz-adv-x="1787" d="M70 0l618 1221h983v-111h-829l90 -442h739v-111h-717l93 -444h624v-113h-721l-65 313h-529l-157 -313h-129zM412 422h450l-131 635z" />
<glyph unicode="&#xe232;" horiz-adv-x="1796" d="M70 0l618 1221h983v-111h-829l90 -442h739v-111h-717l93 -444h624v-113h-721l-65 313h-529l-157 -313h-129zM412 422h450l-131 635zM1001 1354l244 317h154l-287 -317h-111z" />
<glyph unicode="&#xe234;" horiz-adv-x="1353" d="M102 610q0 129 49.5 245.5t133.5 200t199.5 132.5t242.5 49q173 0 321.5 -88t227.5 -234l-105 -53q-65 121 -181.5 193.5t-260.5 72.5q-106 0 -201 -41t-162 -111t-106 -165.5t-39 -200.5q0 -141 68 -260.5t184.5 -188.5t253.5 -69q155 0 272.5 77.5t182.5 209.5l108 -49 q-84 -162 -229 -255t-330 -93q-175 0 -320 85t-227 229t-82 314zM668 1354l243 317h154l-287 -317h-110z" />
<glyph unicode="&#xe235;" horiz-adv-x="1353" d="M102 610q0 129 49.5 245.5t133.5 200t199.5 132.5t242.5 49q173 0 321.5 -88t227.5 -234l-105 -53q-65 121 -181.5 193.5t-260.5 72.5q-106 0 -201 -41t-162 -111t-106 -165.5t-39 -200.5q0 -141 68 -260.5t184.5 -188.5t253.5 -69q155 0 272.5 77.5t182.5 209.5l108 -49 q-84 -162 -229 -255t-330 -93q-175 0 -320 85t-227 229t-82 314zM442 1348l244 317h100l244 -317h-125l-170 225l-170 -225h-123z" />
<glyph unicode="&#xe236;" horiz-adv-x="1353" d="M102 610q0 129 49.5 245.5t133.5 200t199.5 132.5t242.5 49q173 0 321.5 -88t227.5 -234l-105 -53q-65 121 -181.5 193.5t-260.5 72.5q-106 0 -201 -41t-162 -111t-106 -165.5t-39 -200.5q0 -141 68 -260.5t184.5 -188.5t253.5 -69q155 0 272.5 77.5t182.5 209.5l108 -49 q-84 -162 -229 -255t-330 -93q-175 0 -320 85t-227 229t-82 314zM446 1671h121l166 -233l172 233h121l-242 -317h-98z" />
<glyph unicode="&#xe237;" horiz-adv-x="1353" d="M102 610q0 129 49.5 245.5t133.5 200t199.5 132.5t242.5 49q173 0 321.5 -88t227.5 -234l-105 -53q-65 121 -181.5 193.5t-260.5 72.5q-106 0 -201 -41t-162 -111t-106 -165.5t-39 -200.5q0 -141 68 -260.5t184.5 -188.5t253.5 -69q155 0 272.5 77.5t182.5 209.5l108 -49 q-84 -162 -229 -255t-330 -93q-175 0 -320 85t-227 229t-82 314zM637 1528q0 43 28.5 70.5t71.5 27.5q47 0 74 -27t27 -71t-27.5 -72.5t-73.5 -28.5t-73 28.5t-27 72.5z" />
<glyph unicode="&#xe238;" horiz-adv-x="1353" d="M102 610q0 129 49.5 245.5t133.5 200t199.5 132.5t242.5 49q173 0 321.5 -88t227.5 -234l-105 -53q-65 121 -181.5 193.5t-260.5 72.5q-106 0 -201 -41t-162 -111t-106 -165.5t-39 -200.5q0 -141 68 -260.5t184.5 -188.5t253.5 -69q155 0 272.5 77.5t182.5 209.5l108 -49 q-81 -157 -221 -249.5t-319 -98.5v-95q111 -2 179 -45.5t68 -115.5q0 -85 -78.5 -140t-195.5 -55q-167 0 -285 109l94 57q47 -41 88 -59.5t103 -18.5q72 0 118 29t46 73q0 42 -44.5 66.5t-125.5 24.5h-68v176q-156 19 -281.5 106.5t-195.5 223t-70 292.5z" />
<glyph unicode="&#xe239;" horiz-adv-x="1224" d="M147 0v1221h342q137 0 255.5 -47.5t201 -129t129.5 -194t47 -240.5q0 -172 -82.5 -312t-226 -219t-319.5 -79h-347zM260 1671h121l166 -233l172 233h121l-242 -317h-98zM264 111h219q225 0 371.5 142t146.5 357q0 218 -143.5 360t-378.5 142h-215v-1001z" />
<glyph unicode="&#xe23c;" horiz-adv-x="1267" d="M55 559v105h138v557h339q138 0 256.5 -47.5t201 -129t129 -194t46.5 -240.5q0 -172 -82 -312t-225.5 -219t-320.5 -79h-344v559h-138zM307 111h221q225 0 372 142t147 357q0 218 -144 360t-379 142h-217v-448h316v-105h-316v-448z" />
<glyph unicode="&#xe23d;" horiz-adv-x="1007" d="M150 0v1221h741v-109h-627v-446h627v-109h-627v-446h627v-111h-741zM434 1354l244 317h153l-286 -317h-111z" />
<glyph unicode="&#xe23e;" horiz-adv-x="1007" d="M150 0v1221h741v-109h-627v-446h627v-109h-627v-446h627v-111h-741zM227 1671h152l246 -317h-111z" />
<glyph unicode="&#xe23f;" horiz-adv-x="1007" d="M150 0v1221h741v-109h-627v-446h627v-109h-627v-446h627v-111h-741zM236 1354l243 317h101l243 -317h-125l-170 225l-170 -225h-122z" />
<glyph unicode="&#xe240;" horiz-adv-x="1445" d="M102 610q0 128 49.5 244t133.5 200t201 133.5t247 49.5q180 0 322 -82t221 -225l-102 -60q-67 121 -181.5 189.5t-259.5 68.5q-144 0 -262 -70t-184 -188.5t-66 -259.5q0 -139 64.5 -257t182.5 -189.5t265 -71.5q206 0 337 125t157 318h-508v110h629v-37 q0 -170 -74 -311.5t-216 -228t-325 -86.5q-175 0 -321 85.5t-228 229.5t-82 313zM588 -567l88 417h112l-118 -417h-82z" />
<glyph unicode="&#xe241;" horiz-adv-x="1007" d="M150 0v1221h741v-109h-627v-446h627v-109h-627v-446h627v-111h-741zM238 1671h120l166 -233l172 233h121l-242 -317h-98z" />
<glyph unicode="&#xe242;" horiz-adv-x="1007" d="M150 0v1221h741v-109h-627v-446h627v-109h-627v-446h627v-111h-741zM252 1358v102h541v-102h-541z" />
<glyph unicode="&#xe243;" horiz-adv-x="1007" d="M150 0v1221h741v-109h-627v-446h627v-109h-627v-446h627v-111h-741zM193 1665h100q0 -102 59 -166.5t170 -64.5q107 0 167.5 65.5t60.5 165.5h104q0 -133 -91 -227.5t-241 -94.5q-160 0 -244.5 92.5t-84.5 229.5z" />
<glyph unicode="&#xe246;" horiz-adv-x="1007" d="M150 0v1221h741v-109h-627v-446h627v-109h-627v-446h627v-111h-741zM436 1528q0 42 29 70t72 28q46 0 73 -27t27 -71t-27 -72.5t-73 -28.5t-73.5 28.5t-27.5 72.5z" />
<glyph unicode="&#xe249;" horiz-adv-x="1007" d="M150 0v1221h741v-109h-627v-446h627v-109h-627v-446h627v-111q-148 -82 -199 -128t-51 -97q0 -49 40.5 -77t104.5 -28q52 0 92.5 21t84.5 59l92 -63q-55 -49 -125.5 -81t-143.5 -32q-118 0 -191 55t-73 140q0 130 174 231h-546z" />
<glyph unicode="&#xe24b;" horiz-adv-x="1445" d="M102 610q0 128 49.5 244t133.5 200t201 133.5t247 49.5q180 0 322 -82t221 -225l-102 -60q-67 121 -181.5 189.5t-259.5 68.5q-144 0 -262 -70t-184 -188.5t-66 -259.5q0 -139 64.5 -257t182.5 -189.5t265 -71.5q206 0 337 125t157 318h-508v110h629v-37 q0 -170 -74 -311.5t-216 -228t-325 -86.5q-175 0 -321 85.5t-228 229.5t-82 313zM436 1352l244 317h100l244 -317h-125l-170 225l-170 -225h-123z" />
<glyph unicode="&#xe24e;" horiz-adv-x="1445" d="M102 610q0 128 49.5 244t133.5 200t201 133.5t247 49.5q180 0 322 -82t221 -225l-102 -60q-67 121 -181.5 189.5t-259.5 68.5q-144 0 -262 -70t-184 -188.5t-66 -259.5q0 -139 64.5 -257t182.5 -189.5t265 -71.5q206 0 337 125t157 318h-508v110h629v-37 q0 -170 -74 -311.5t-216 -228t-325 -86.5q-175 0 -321 85.5t-228 229.5t-82 313zM399 1673h101q0 -102 59 -166.5t170 -64.5q107 0 167 65t60 166h105q0 -133 -91 -227t-241 -94q-160 0 -245 92t-85 229z" />
<glyph unicode="&#xe24f;" horiz-adv-x="1445" d="M102 610q0 128 49.5 244t133.5 200t201 133.5t247 49.5q180 0 322 -82t221 -225l-102 -60q-67 121 -181.5 189.5t-259.5 68.5q-144 0 -262 -70t-184 -188.5t-66 -259.5q0 -139 64.5 -257t182.5 -189.5t265 -71.5q206 0 337 125t157 318h-508v110h629v-37 q0 -170 -74 -311.5t-216 -228t-325 -86.5q-175 0 -321 85.5t-228 229.5t-82 313zM635 1528q0 43 28.5 70.5t71.5 27.5q47 0 74 -27t27 -71t-27.5 -72.5t-73.5 -28.5t-73 28.5t-27 72.5z" />
<glyph unicode="&#xe253;" horiz-adv-x="1200" d="M147 0v1221h117v-553h672v553h117v-1221h-117v557h-672v-557h-117zM303 1352l244 317h100l244 -317h-125l-170 225l-170 -225h-123z" />
<glyph unicode="&#xe257;" horiz-adv-x="1282" d="M53 907v111h135v203h117v-203h672v203h117v-203h135v-111h-135v-907h-117v557h-672v-557h-117v907h-135zM305 666h672v241h-672v-241z" />
<glyph unicode="&#xe258;" horiz-adv-x="436" d="M154 1354l243 317h154l-287 -317h-110zM158 0v1221h118v-1221h-118z" />
<glyph unicode="&#xe259;" horiz-adv-x="436" d="M-125 1671h152l245 -317h-110zM158 0v1221h118v-1221h-118z" />
<glyph unicode="&#xe25a;" horiz-adv-x="436" d="M-78 1335l244 318h100l244 -318h-125l-170 226l-170 -226h-123zM158 0v1221h118v-1221h-118z" />
<glyph unicode="&#xe25b;" horiz-adv-x="436" d="M-39 1364v285h115v-285h-115zM158 0v1221h118v-1221h-118zM360 1364v285h117v-285h-117z" />
<glyph unicode="&#xe25c;" horiz-adv-x="436" d="M-137 1352q0 102 52 161.5t138 59.5q46 0 85.5 -15.5t90.5 -46.5q2 -1 16.5 -10t17.5 -10.5t15.5 -9t17.5 -9.5t15.5 -7.5t17 -7.5t15.5 -4.5t17 -3.5t16 -1q102 0 102 119h94q0 -105 -50.5 -164.5t-143.5 -59.5q-12 0 -24 1.5t-21.5 3t-21.5 5t-19.5 6t-20 8.5t-18 8.5 t-18 9.5t-16.5 9.5t-17.5 10.5t-16.5 10q-7 4 -26 15.5t-27.5 16t-24 11.5t-28.5 9.5t-27 2.5q-43 0 -68.5 -30t-25.5 -88h-96zM158 0v1221h118v-1221h-118z" />
<glyph unicode="&#xe25e;" horiz-adv-x="436" d="M-55 1354v102h540v-102h-540zM158 0v1221h118v-1221h-118z" />
<glyph unicode="&#xe25f;" horiz-adv-x="436" d="M-113 1665h101q0 -102 59 -166.5t170 -64.5q107 0 167 65t60 166h105q0 -133 -91 -227.5t-241 -94.5q-160 0 -245 92.5t-85 229.5zM158 0v1221h118v-1221h-118z" />
<glyph unicode="&#xe262;" horiz-adv-x="436" d="M117 1516q0 42 28 70t70 28q46 0 72 -27t26 -71t-26 -72.5t-72 -28.5q-44 0 -71 29t-27 72zM158 0v1221h118v-1221h-118z" />
<glyph unicode="&#xe264;" horiz-adv-x="436" d="M0 -240q0 123 158 260v1201h118v-1221h3q-168 -134 -168 -236q0 -50 32.5 -80t87.5 -30q46 0 80 16t70 49l68 -81q-102 -84 -218 -84q-113 0 -172 58t-59 148z" />
<glyph unicode="&#xe265;" horiz-adv-x="835" d="M57 176l109 55q65 -139 209 -139q95 0 149 61.5t54 163.5v904h116v-897q0 -160 -84 -251t-233 -91q-115 0 -198.5 52t-121.5 142zM332 1335l243 318h101l244 -318h-125l-170 226l-170 -226h-123z" />
<glyph unicode="&#xe268;" horiz-adv-x="1134" d="M150 0v1221h114v-695l623 695h145l-438 -486l473 -735h-133l-424 653l-246 -276v-377h-114zM446 -535l89 418h112l-119 -418h-82z" />
<glyph unicode="&#xe26b;" horiz-adv-x="923" d="M147 0v1221h117v-1110h561v-111h-678zM147 1354l244 317h154l-287 -317h-111z" />
<glyph unicode="&#xe26c;" horiz-adv-x="923" d="M147 0v1221h117v-1110h561v-111h-678zM557 868l100 353h113l-129 -353h-84z" />
<glyph unicode="&#xe26d;" horiz-adv-x="923" d="M147 0v1221h117v-1110h561v-111h-678zM350 -541l88 418h113l-119 -418h-82z" />
<glyph unicode="&#xe271;" horiz-adv-x="940" d="M147 0v1221h117v-1110h561v-111h-678zM664 659q0 43 28.5 71t71.5 28q46 0 73 -27.5t27 -71.5t-27 -72t-73 -28t-73 28t-27 72z" />
<glyph unicode="&#xe272;" horiz-adv-x="960" d="M41 473v102l141 60v586h117v-537l367 156v-103l-367 -155v-471h561v-111h-678v532z" />
<glyph unicode="&#xe276;" horiz-adv-x="1290" d="M147 0v1221h129l750 -1039v1039h117v-1221h-125l-754 1042v-1042h-117zM594 1327l244 318h153l-286 -318h-111z" />
<glyph unicode="&#xe279;" horiz-adv-x="1290" d="M147 0v1221h129l750 -1039v1039h117v-1221h-125l-754 1042v-1042h-117zM295 1352q0 102 52 161.5t138 59.5q74 0 177 -62q3 -2 18.5 -11.5t19.5 -12t17.5 -10t19.5 -10t17 -7.5t19 -7t17.5 -3.5t18.5 -1.5q102 0 102 119h95q0 -105 -51 -164.5t-144 -59.5q-12 0 -24 1.5 t-21.5 3t-21.5 5t-19.5 6t-20 8.5t-18 8.5t-18 9.5t-16.5 9.5t-17.5 10.5t-16.5 10q-7 4 -26 15.5t-27.5 16t-24 11.5t-28.5 9.5t-27 2.5q-43 0 -68.5 -30t-25.5 -88h-96z" />
<glyph unicode="&#xe27a;" horiz-adv-x="1290" d="M147 0v1221h129l750 -1039v1039h117v-1221h-125l-754 1042v-1042h-117zM360 1651h121l166 -234l172 234h121l-242 -318h-98z" />
<glyph unicode="&#xe27d;" horiz-adv-x="1290" d="M147 0v1221h129l750 -1039v1039h117v-1221h-125l-754 1042v-1042h-117zM522 -530l88 417h113l-119 -417h-82z" />
<glyph unicode="&#xe281;" horiz-adv-x="1456" d="M102 610q0 170 83 314.5t227 228.5t315 84t315.5 -84t228 -228.5t83.5 -314.5t-83.5 -314.5t-228 -229t-315.5 -84.5t-315 84.5t-227 229t-83 314.5zM221 610q0 -141 66 -260t182.5 -188.5t257.5 -69.5t257.5 69.5t182.5 188.5t66 260t-66 260t-182.5 188.5t-257.5 69.5 t-257.5 -69.5t-182.5 -188.5t-66 -260zM647 1354l244 317h153l-286 -317h-111z" />
<glyph unicode="&#xe282;" horiz-adv-x="1456" d="M102 610q0 170 83 314.5t227 228.5t315 84t315.5 -84t228 -228.5t83.5 -314.5t-83.5 -314.5t-228 -229t-315.5 -84.5t-315 84.5t-227 229t-83 314.5zM221 610q0 -141 66 -260t182.5 -188.5t257.5 -69.5t257.5 69.5t182.5 188.5t66 260t-66 260t-182.5 188.5t-257.5 69.5 t-257.5 -69.5t-182.5 -188.5t-66 -260zM391 1671h152l245 -317h-110z" />
<glyph unicode="&#xe283;" horiz-adv-x="1456" d="M102 610q0 170 83 314.5t227 228.5t315 84t315.5 -84t228 -228.5t83.5 -314.5t-83.5 -314.5t-228 -229t-315.5 -84.5t-315 84.5t-227 229t-83 314.5zM221 610q0 -141 66 -260t182.5 -188.5t257.5 -69.5t257.5 69.5t182.5 188.5t66 260t-66 260t-182.5 188.5t-257.5 69.5 t-257.5 -69.5t-182.5 -188.5t-66 -260zM434 1346l244 317h100l244 -317h-125l-170 225l-170 -225h-123z" />
<glyph unicode="&#xe284;" horiz-adv-x="1456" d="M102 610q0 170 83 314.5t227 228.5t315 84t315.5 -84t228 -228.5t83.5 -314.5t-83.5 -314.5t-228 -229t-315.5 -84.5t-315 84.5t-227 229t-83 314.5zM221 610q0 -141 66 -260t182.5 -188.5t257.5 -69.5t257.5 69.5t182.5 188.5t66 260t-66 260t-182.5 188.5t-257.5 69.5 t-257.5 -69.5t-182.5 -188.5t-66 -260zM469 1526q0 38 26 63t64 25q41 0 64.5 -24.5t23.5 -63.5t-24 -64.5t-64 -25.5q-41 0 -65.5 25.5t-24.5 64.5zM813 1526q0 38 26 63t64 25q41 0 64.5 -24.5t23.5 -63.5t-24 -64.5t-64 -25.5q-41 0 -65.5 25.5t-24.5 64.5z" />
<glyph unicode="&#xe285;" horiz-adv-x="1456" d="M102 610q0 170 83 314.5t227 228.5t315 84t315.5 -84t228 -228.5t83.5 -314.5t-83.5 -314.5t-228 -229t-315.5 -84.5t-315 84.5t-227 229t-83 314.5zM221 610q0 -141 66 -260t182.5 -188.5t257.5 -69.5t257.5 69.5t182.5 188.5t66 260t-66 260t-182.5 188.5t-257.5 69.5 t-257.5 -69.5t-182.5 -188.5t-66 -260zM373 1354q0 102 52 161.5t138 59.5q46 0 85.5 -15.5t90.5 -46.5q2 -1 16.5 -10t17.5 -10.5t15.5 -9t17.5 -9.5t15.5 -7.5t17 -7.5t15.5 -4.5t17 -3.5t16 -1q102 0 102 119h94q0 -105 -50.5 -164t-143.5 -59q-37 0 -76.5 13t-57 23 t-59.5 35q-8 5 -26 16t-27.5 16t-24 11.5t-28 9.5t-27.5 3q-43 0 -68.5 -30.5t-25.5 -88.5h-96z" />
<glyph unicode="&#xe287;" horiz-adv-x="1456" d="M102 610q0 170 83 314.5t227 228.5t315 84t315.5 -84t228 -228.5t83.5 -314.5t-83.5 -314.5t-228 -229t-315.5 -84.5t-315 84.5t-227 229t-83 314.5zM221 610q0 -141 66 -260t182.5 -188.5t257.5 -69.5t257.5 69.5t182.5 188.5t66 260t-66 260t-182.5 188.5t-257.5 69.5 t-257.5 -69.5t-182.5 -188.5t-66 -260zM457 1354v102h540v-102h-540z" />
<glyph unicode="&#xe288;" horiz-adv-x="1456" d="M102 610q0 170 83 314.5t227 228.5t315 84t315.5 -84t228 -228.5t83.5 -314.5t-83.5 -314.5t-228 -229t-315.5 -84.5t-315 84.5t-227 229t-83 314.5zM221 610q0 -141 66 -260t182.5 -188.5t257.5 -69.5t257.5 69.5t182.5 188.5t66 260t-66 260t-182.5 188.5t-257.5 69.5 t-257.5 -69.5t-182.5 -188.5t-66 -260zM395 1673h101q0 -102 59 -166.5t170 -64.5q107 0 167 65t60 166h105q0 -133 -91 -227t-241 -94q-160 0 -245 92t-85 229z" />
<glyph unicode="&#xe28a;" horiz-adv-x="1456" d="M102 610q0 170 83 314.5t227 228.5t315 84t315.5 -84t228 -228.5t83.5 -314.5t-83.5 -314.5t-228 -229t-315.5 -84.5t-315 84.5t-227 229t-83 314.5zM221 610q0 -141 66 -260t182.5 -188.5t257.5 -69.5t257.5 69.5t182.5 188.5t66 260t-66 260t-182.5 188.5t-257.5 69.5 t-257.5 -69.5t-182.5 -188.5t-66 -260zM541 1354l243 317h146l-287 -317h-102zM788 1354l246 317h146l-287 -317h-105z" />
<glyph unicode="&#xe295;" horiz-adv-x="1456" d="M102 610q0 170 83 314.5t227 228.5t315 84q184 0 340 -100l63 84h136l-113 -150q94 -88 147.5 -207.5t53.5 -253.5q0 -170 -83.5 -314.5t-228 -229t-315.5 -84.5q-177 0 -330 94l-57 -76h-137l106 141q-98 88 -152.5 209t-54.5 260zM221 610q0 -109 42 -206.5t118 -170.5 l616 814q-126 77 -270 77q-141 0 -257.5 -69.5t-182.5 -187.5t-66 -257zM467 168q123 -72 260 -72q141 0 258 69.5t183.5 187.5t66.5 257q0 215 -154 369z" />
<glyph unicode="&#xe296;" horiz-adv-x="1458" d="M102 610q0 170 83 314.5t227 228.5t315 84q184 0 340 -100l63 84h136l-113 -150q94 -88 147.5 -207.5t53.5 -253.5q0 -170 -83.5 -314.5t-228 -229t-315.5 -84.5q-177 0 -330 94l-57 -76h-137l106 141q-98 88 -152.5 209t-54.5 260zM221 610q0 -109 42 -206.5t118 -170.5 l616 814q-126 77 -270 77q-141 0 -257.5 -69.5t-182.5 -187.5t-66 -257zM467 168q123 -72 260 -72q141 0 258 69.5t183.5 187.5t66.5 257q0 215 -154 369zM657 1354l244 317h154l-287 -317h-111z" />
<glyph unicode="&#xe298;" horiz-adv-x="2091" d="M102 610q0 170 83 314.5t227 228.5t315 84q162 0 294 -75.5t212 -205.5v265h743v-109h-626v-446h626v-109h-626v-446h626v-111h-743v262q-79 -131 -211 -205.5t-295 -74.5q-171 0 -315 84.5t-227 229t-83 314.5zM221 610q0 -141 66 -260t182.5 -188.5t257.5 -69.5 t257.5 69.5t182.5 188.5t66 260t-66 260t-182.5 188.5t-257.5 69.5t-257.5 -69.5t-182.5 -188.5t-66 -260z" />
<glyph unicode="&#xe29a;" horiz-adv-x="1034" d="M147 0v1221h377q175 0 291.5 -112.5t116.5 -274.5q0 -134 -82.5 -238t-220.5 -131l315 -465h-139l-367 553h72q132 0 216.5 85t84.5 196q0 124 -78 201t-215 77h-252v-1112h-119zM436 1354l244 317h154l-287 -317h-111z" />
<glyph unicode="&#xe29b;" horiz-adv-x="1034" d="M147 0v1221h377q175 0 291.5 -112.5t116.5 -274.5q0 -134 -82.5 -238t-220.5 -131l315 -465h-139l-367 553h72q132 0 216.5 85t84.5 196q0 124 -78 201t-215 77h-252v-1112h-119zM246 1671h121l165 -233l173 233h120l-241 -317h-99z" />
<glyph unicode="&#xe29e;" horiz-adv-x="1034" d="M147 0v1221h377q175 0 291.5 -112.5t116.5 -274.5q0 -134 -82.5 -238t-220.5 -131l315 -465h-139l-367 553h72q132 0 216.5 85t84.5 196q0 124 -78 201t-215 77h-252v-1112h-119zM393 -532l88 417h113l-119 -417h-82z" />
<glyph unicode="&#xe300;" horiz-adv-x="1116" d="M141 393v828h117v-832q0 -131 85 -214t216 -83q130 0 214.5 83.5t84.5 215.5v830h117v-826q0 -185 -118 -299t-300 -114q-181 0 -298.5 113.5t-117.5 297.5zM256 1354l244 317h100l244 -317h-125l-170 225l-170 -225h-123z" />
<glyph unicode="&#xe302;" horiz-adv-x="964" d="M61 180l101 80q118 -170 309 -170q118 0 196 69.5t78 174.5q0 38 -10.5 69.5t-34 56t-47.5 42.5t-64 35t-69.5 27.5t-77.5 25.5q-38 13 -57.5 20t-54 21t-53.5 24t-47 27t-44 33t-34.5 39t-28.5 47t-16.5 55t-6.5 66q0 137 106 226t263 89q233 0 367 -166l-95 -72 q-92 136 -272 136q-107 0 -177.5 -59t-70.5 -152q0 -49 18 -85t63.5 -64t78 -41.5t104.5 -38.5q21 -7 31 -11q43 -14 73.5 -25t69.5 -29t66.5 -36.5t56 -45.5t45.5 -57t28 -70t11 -87q0 -145 -110 -248.5t-283 -103.5q-254 0 -412 198zM406 1354l243 317h154l-287 -317h-110 z" />
<glyph unicode="&#xe303;" horiz-adv-x="964" d="M61 180l101 80q118 -170 309 -170q118 0 196 69.5t78 174.5q0 38 -10.5 69.5t-34 56t-47.5 42.5t-64 35t-69.5 27.5t-77.5 25.5q-38 13 -57.5 20t-54 21t-53.5 24t-47 27t-44 33t-34.5 39t-28.5 47t-16.5 55t-6.5 66q0 137 106 226t263 89q233 0 367 -166l-95 -72 q-92 136 -272 136q-107 0 -177.5 -59t-70.5 -152q0 -49 18 -85t63.5 -64t78 -41.5t104.5 -38.5q21 -7 31 -11q43 -14 73.5 -25t69.5 -29t66.5 -36.5t56 -45.5t45.5 -57t28 -70t11 -87q0 -145 -110 -248.5t-283 -103.5q-254 0 -412 198zM178 1350l244 317h100l244 -317h-125 l-170 225l-170 -225h-123z" />
<glyph unicode="&#xe304;" horiz-adv-x="964" d="M61 180l101 80q118 -170 309 -170q118 0 196 69.5t78 174.5q0 38 -10.5 69.5t-34 56t-47.5 42.5t-64 35t-69.5 27.5t-77.5 25.5q-38 13 -57.5 20t-54 21t-53.5 24t-47 27t-44 33t-34.5 39t-28.5 47t-16.5 55t-6.5 66q0 137 106 226t263 89q233 0 367 -166l-95 -72 q-92 136 -272 136q-107 0 -177.5 -59t-70.5 -152q0 -49 18 -85t63.5 -64t78 -41.5t104.5 -38.5q21 -7 31 -11q43 -14 73.5 -25t69.5 -29t66.5 -36.5t56 -45.5t45.5 -57t28 -70t11 -87q0 -145 -110 -248.5t-283 -103.5q-254 0 -412 198zM188 1671h121l166 -233l172 233h121 l-242 -317h-98z" />
<glyph unicode="&#xe305;" horiz-adv-x="964" d="M61 180l101 80q118 -170 309 -170q118 0 196 69.5t78 174.5q0 38 -10.5 69.5t-34 56t-47.5 42.5t-64 35t-69.5 27.5t-77.5 25.5q-38 13 -57.5 20t-54 21t-53.5 24t-47 27t-44 33t-34.5 39t-28.5 47t-16.5 55t-6.5 66q0 137 106 226t263 89q233 0 367 -166l-95 -72 q-92 136 -272 136q-107 0 -177.5 -59t-70.5 -152q0 -49 18 -85t63.5 -64t78 -41.5t104.5 -38.5q21 -7 31 -11q43 -14 73.5 -25t69.5 -29t66.5 -36.5t56 -45.5t45.5 -57t28 -70t11 -87q0 -145 -110 -248.5t-283 -103.5q-254 0 -412 198zM330 -541l88 418h112l-118 -418h-82z " />
<glyph unicode="&#xe306;" horiz-adv-x="964" d="M61 180l101 80q118 -170 309 -170q118 0 196 69.5t78 174.5q0 38 -10.5 69.5t-34 56t-47.5 42.5t-64 35t-69.5 27.5t-77.5 25.5q-38 13 -57.5 20t-54 21t-53.5 24t-47 27t-44 33t-34.5 39t-28.5 47t-16.5 55t-6.5 66q0 137 106 226t263 89q233 0 367 -166l-95 -72 q-92 136 -272 136q-107 0 -177.5 -59t-70.5 -152q0 -49 18 -85t63.5 -64t78 -41.5t104.5 -38.5q21 -7 31 -11q43 -14 73.5 -25t69.5 -29t66.5 -36.5t56 -45.5t45.5 -57t28 -70t11 -87q0 -140 -103.5 -242.5t-266.5 -109.5v-93q111 -2 179 -45.5t68 -115.5q0 -85 -78.5 -140 t-195.5 -55q-167 0 -285 109l95 57q48 -41 88 -59.5t102 -18.5q72 0 118 29.5t46 73.5q0 42 -44.5 66t-125.5 24h-68v174q-197 24 -334 192z" />
<glyph unicode="&#xe309;" horiz-adv-x="1048" d="M92 1110v111h864v-111h-372v-1110h-117v1110h-375zM244 1669h121l165 -233l172 233h121l-241 -317h-99z" />
<glyph unicode="&#xe30a;" horiz-adv-x="1048" d="M92 1110v111h864v-111h-372v-1110h-117v1110h-375zM389 -541l88 418h113l-119 -418h-82z" />
<glyph unicode="&#xe30d;" horiz-adv-x="1048" d="M92 1110v111h864v-111h-372v-434h215v-113h-215v-563h-117v563h-217v113h217v434h-375z" />
<glyph unicode="&#xe30e;" horiz-adv-x="1116" d="M141 393v828h117v-832q0 -131 85 -214t216 -83q130 0 214.5 83.5t84.5 215.5v830h117v-826q0 -185 -118 -299t-300 -114q-181 0 -298.5 113.5t-117.5 297.5zM469 1333l244 318h153l-286 -318h-111z" />
<glyph unicode="&#xe30f;" horiz-adv-x="1116" d="M141 393v828h117v-832q0 -131 85 -214t216 -83q130 0 214.5 83.5t84.5 215.5v830h117v-826q0 -185 -118 -299t-300 -114q-181 0 -298.5 113.5t-117.5 297.5zM225 1651h152l246 -318h-111z" />
<glyph unicode="&#xe310;" horiz-adv-x="1794" d="M70 1221h125l294 -1039l345 1039h112l344 -1051l314 1051h118l-370 -1221h-119l-342 1038l-346 -1038h-121zM633 1528q0 38 26 63t64 25q41 0 64.5 -24.5t23.5 -63.5t-24 -64.5t-64 -25.5q-41 0 -65.5 25.5t-24.5 64.5zM977 1528q0 38 26 63t64 25q41 0 64.5 -24.5 t23.5 -63.5t-24 -64.5t-64 -25.5q-41 0 -65.5 25.5t-24.5 64.5z" />
<glyph unicode="&#xe311;" horiz-adv-x="1116" d="M141 393v828h117v-832q0 -131 85 -214t216 -83q130 0 214.5 83.5t84.5 215.5v830h117v-826q0 -185 -118 -299t-300 -114q-181 0 -298.5 113.5t-117.5 297.5zM297 1528q0 38 26 63t64 25q41 0 64.5 -24.5t23.5 -63.5t-24 -64.5t-64 -25.5q-41 0 -65.5 25.5t-24.5 64.5z M641 1528q0 38 26 63t64 25q41 0 64.5 -24.5t23.5 -63.5t-24 -64.5t-64 -25.5q-41 0 -65.5 25.5t-24.5 64.5z" />
<glyph unicode="&#xe312;" horiz-adv-x="1116" d="M141 393v828h117v-832q0 -131 85 -214t216 -83q130 0 214.5 83.5t84.5 215.5v830h117v-826q0 -185 -118 -299t-300 -114q-181 0 -298.5 113.5t-117.5 297.5zM203 1354q0 102 52 161.5t138 59.5q46 0 85.5 -15.5t90.5 -46.5q2 -1 16.5 -10t17.5 -10.5t15.5 -9t17.5 -9.5 t15.5 -7.5t17 -7.5t15.5 -4.5t17 -3.5t16 -1q102 0 102 119h94q0 -105 -50.5 -164t-143.5 -59q-37 0 -76.5 13t-57 23t-59.5 35q-8 5 -26 16t-27.5 16t-24 11.5t-28 9.5t-27.5 3q-43 0 -68.5 -30.5t-25.5 -88.5h-96z" />
<glyph unicode="&#xe313;" horiz-adv-x="1116" d="M141 393v828h117v-832q0 -131 85 -214t216 -83q130 0 214.5 83.5t84.5 215.5v830h117v-826q0 -185 -118 -299t-300 -114q-181 0 -298.5 113.5t-117.5 297.5zM354 1534q0 86 58 145.5t143 59.5q88 0 147.5 -59.5t59.5 -145.5t-59.5 -144.5t-147.5 -58.5q-85 0 -143 58.5 t-58 144.5zM444 1534q0 -47 33 -79t78 -32q48 0 81.5 32t33.5 79t-34 80t-81 33q-45 0 -78 -33t-33 -80z" />
<glyph unicode="&#xe315;" horiz-adv-x="1116" d="M141 393v828h117v-832q0 -131 85 -214t216 -83q130 0 214.5 83.5t84.5 215.5v830h117v-826q0 -185 -118 -299t-300 -114q-181 0 -298.5 113.5t-117.5 297.5zM287 1354v102h540v-102h-540z" />
<glyph unicode="&#xe316;" horiz-adv-x="1116" d="M141 393v828h117v-832q0 -131 85 -214t216 -83q130 0 214.5 83.5t84.5 215.5v830h117v-826q0 -185 -118 -299t-300 -114q-181 0 -298.5 113.5t-117.5 297.5zM229 1659h101q0 -102 59 -167t170 -65q107 0 167 65.5t60 166.5h105q0 -133 -91 -227.5t-241 -94.5 q-160 0 -245 92.5t-85 229.5z" />
<glyph unicode="&#xe318;" horiz-adv-x="1116" d="M141 393v828h117v-832q0 -131 85 -214t216 -83q130 0 214.5 83.5t84.5 215.5v830h117v-826q0 -185 -118 -299t-300 -114q-181 0 -298.5 113.5t-117.5 297.5zM346 1341l244 318h145l-286 -318h-103zM594 1341l246 318h145l-287 -318h-104z" />
<glyph unicode="&#xe31b;" horiz-adv-x="1116" d="M141 393v828h117v-832q0 -131 85 -214t216 -83q130 0 214.5 83.5t84.5 215.5v830h117v-826q0 -133 -63.5 -231.5t-172.5 -147.5h2q-147 -81 -198 -127.5t-51 -97.5q0 -48 40.5 -76t104.5 -28q52 0 92 20.5t84 59.5l92 -64q-55 -49 -125 -81t-143 -32q-118 0 -191 55 t-73 140q0 109 125 201q-157 17 -257 128.5t-100 278.5z" />
<glyph unicode="&#xe31d;" horiz-adv-x="1794" d="M70 1221h125l294 -1039l345 1039h112l344 -1051l314 1051h118l-370 -1221h-119l-342 1038l-346 -1038h-121zM834 1354l243 317h154l-287 -317h-110z" />
<glyph unicode="&#xe31e;" horiz-adv-x="1794" d="M70 1221h125l294 -1039l345 1039h112l344 -1051l314 1051h118l-370 -1221h-119l-342 1038l-346 -1038h-121zM549 1671h151l246 -317h-110z" />
<glyph unicode="&#xe31f;" horiz-adv-x="1794" d="M70 1221h125l294 -1039l345 1039h112l344 -1051l314 1051h118l-370 -1221h-119l-342 1038l-346 -1038h-121zM596 1339l244 318h100l244 -318h-125l-170 226l-170 -226h-123z" />
<glyph unicode="&#xe321;" horiz-adv-x="1069" d="M70 1221h129l333 -531l336 531h131l-407 -643v-578h-115v578zM463 1341l244 318h153l-287 -318h-110z" />
<glyph unicode="&#xe322;" horiz-adv-x="1087" d="M78 1221h129l334 -531l336 531h131l-408 -643v-578h-115v578zM219 1659h152l245 -318h-110z" />
<glyph unicode="&#xe323;" horiz-adv-x="1069" d="M70 1221h129l333 -531l336 531h131l-407 -643v-578h-115v578zM240 1352l243 317h101l243 -317h-125l-170 225l-170 -225h-122z" />
<glyph unicode="&#xe324;" horiz-adv-x="1069" d="M70 1221h129l333 -531l336 531h131l-407 -643v-578h-115v578zM279 1516q0 38 26 63t64 25q41 0 64.5 -24.5t23.5 -63.5t-24 -65t-64 -26t-65 26t-25 65zM623 1516q0 38 26 63t64 25q41 0 64.5 -24.5t23.5 -63.5t-24 -65t-64 -26t-65 26t-25 65z" />
<glyph unicode="&#xe327;" horiz-adv-x="940" d="M135 0v1221h119v-1221h-119zM428 0v109h57q203 0 203 223v889h115v-887q0 -164 -75 -249t-241 -85h-59z" />
<glyph unicode="&#xe328;" horiz-adv-x="1015" d="M102 0v109l672 1001h-651v111h788v-107l-671 -1001h671v-113h-809zM424 1354l244 317h153l-286 -317h-111z" />
<glyph unicode="&#xe329;" horiz-adv-x="1015" d="M102 0v109l672 1001h-651v111h788v-107l-671 -1001h671v-113h-809zM225 1671h121l166 -233l172 233h121l-242 -317h-98z" />
<glyph unicode="&#xe32a;" horiz-adv-x="1015" d="M102 0v109l672 1001h-651v111h788v-107l-671 -1001h671v-113h-809zM422 1528q0 43 28.5 70.5t71.5 27.5q46 0 73.5 -27t27.5 -71t-27.5 -72.5t-73.5 -28.5t-73 28.5t-27 72.5z" />
<glyph unicode="&#xe32b;" horiz-adv-x="1290" d="M147 0v1221h129l750 -1039v1039h117v-1317q0 -113 -16.5 -183t-60.5 -113.5t-112 -60t-178 -16.5h-16v113q69 0 110.5 5.5t74.5 20t48.5 45t23 75t7.5 116.5v86l-760 1050v-1042h-117z" />
<glyph unicode="&#xe32c;" horiz-adv-x="1267" d="M55 559v105h138v557h339q138 0 256.5 -47.5t201 -129t129 -194t46.5 -240.5q0 -172 -82 -312t-225.5 -219t-320.5 -79h-344v559h-138zM307 111h221q225 0 372 142t147 357q0 218 -144 360t-379 142h-217v-448h316v-105h-316v-448z" />
<glyph unicode="&#xe32d;" horiz-adv-x="1064" d="M154 0v1221h116v-244h301q170 0 277.5 -103t107.5 -258q0 -156 -108 -259t-279 -103h-299v-254h-116zM270 365h295q125 0 199 71t74 180t-74 180.5t-199 71.5h-295v-503z" />
<glyph unicode="&#xe351;" horiz-adv-x="788" d="M113 901l233 594h96l236 -594h-96l-54 135h-268l-51 -135h-96zM295 1124h199l-101 256z" />
<glyph unicode="&#xe352;" horiz-adv-x="862" d="M123 1198q0 130 89.5 219.5t217.5 89.5q130 0 219.5 -89.5t89.5 -219.5q0 -128 -89.5 -217.5t-219.5 -89.5q-128 0 -217.5 89.5t-89.5 217.5zM215 1198q0 -91 63 -155t152 -64q92 0 154.5 64t62.5 155q0 94 -62.5 157.5t-154.5 63.5q-89 0 -152 -64.5t-63 -156.5z" />
<glyph unicode="&#xe353;" horiz-adv-x="829" d="M123 1198q0 130 89.5 219.5t217.5 89.5q90 0 163 -45t112 -119l-80 -45q-27 55 -78.5 88t-116.5 33q-92 0 -154.5 -64t-62.5 -157q0 -91 62.5 -155t154.5 -64q70 0 121 34t78 93l82 -41q-39 -80 -112.5 -127t-168.5 -47q-128 0 -217.5 89.5t-89.5 217.5z" />
<glyph unicode="&#xe38c;" horiz-adv-x="1042" d="M74 920v104h174v98q0 113 16.5 183t60.5 113.5t112 60t179 16.5h13v-109q-59 0 -97.5 -3.5t-70 -15t-48 -28.5t-28 -48.5t-15 -71t-3.5 -99.5v-96h262v-104h-262v-920h-119v920h-174zM788 0v1024h117v-1024h-117zM788 1198v297h117v-297h-117z" />
<glyph unicode="&#xe38d;" horiz-adv-x="1044" d="M74 920v104h174v98q0 113 16.5 183t60.5 113.5t112 60t179 16.5h13v-109q-59 0 -97.5 -3.5t-70 -15t-48 -28.5t-28 -48.5t-15 -71t-3.5 -99.5v-96h262v-104h-262v-920h-119v920h-174zM788 0v1495h117v-1495h-117z" />
<glyph unicode="&#xe401;" horiz-adv-x="1351" d="M109 379q0 120 63 215t170 151q-76 102 -76 211q0 119 86 200t228 81q104 0 179 -44.5t115 -115.5l-102 -55q-29 49 -78.5 81t-113.5 32q-89 0 -141 -52t-52 -127q0 -72 42.5 -132t162.5 -177l364 -366q134 158 156 352h-254v112h371v-49q0 -121 -52.5 -250.5 t-144.5 -238.5l205 -207h-160l-127 125q-169 -143 -370 -143q-95 0 -174.5 23t-133.5 62t-91.5 90.5t-54.5 107.5t-17 114zM229 383q0 -55 21 -105.5t62.5 -92.5t110.5 -67.5t157 -25.5q163 0 294 109l-376 377q-48 45 -88 88q-181 -99 -181 -283z" />
<glyph unicode="&#xe411;" horiz-adv-x="1028" d="M182 1155q0 137 85 229.5t245 92.5q150 0 241 -94.5t91 -227.5h-105q0 102 -60 167.5t-167 66.5q-111 -1 -170 -66t-59 -168h-101z" />
<glyph unicode="&#xe412;" horiz-adv-x="1028" d="M184 1475h144l239 -318h-102zM455 1475h141l227 -318h-102z" />
<glyph unicode="&#xe413;" horiz-adv-x="1028" d="M426 1128l100 353h113l-129 -353h-84z" />
<glyph unicode="&#xe414;" horiz-adv-x="1036" d="M397 -510l88 418h113l-119 -418h-82z" />
<glyph unicode="&#xe415;" horiz-adv-x="1036" d="M401 -254q0 42 29 70t72 28q46 0 73 -27t27 -71t-27 -72t-73 -28t-73.5 28t-27.5 72z" />
<glyph unicode="&#xe416;" horiz-adv-x="1028" d="M227 -356l95 59q45 -41 84.5 -60.5t101.5 -19.5q72 0 118 29.5t46 73.5q0 90 -166 90h-33v75h39q126 1 198 -43t72 -118q0 -87 -75.5 -141t-198.5 -54q-94 0 -159.5 26.5t-121.5 82.5z" />
<glyph unicode="&#xe441;" horiz-adv-x="495" d="M152 1415q0 44 27 72.5t73 28.5t73 -28.5t27 -72.5q0 -43 -28.5 -70.5t-71.5 -27.5q-46 0 -73 27t-27 71zM190 0v362q0 382 25 822h68q26 -458 26 -822v-362h-119z" />
<glyph unicode="&#xe444;" horiz-adv-x="1103" d="M115 342q0 78 22.5 137.5t58.5 97.5t79 71.5t86.5 70.5t79.5 82t58.5 118t22.5 168v78h109v-78q0 -105 -22 -187t-57 -133t-77.5 -91t-85 -72.5t-77.5 -66.5t-57 -83.5t-22 -113.5q0 -113 90.5 -184.5t223.5 -71.5q123 0 202 51t132 148l104 -50q-57 -112 -170.5 -182.5 t-267.5 -70.5q-187 0 -309.5 100.5t-122.5 261.5zM473 1417q0 43 28.5 71t71.5 28q46 0 73.5 -27.5t27.5 -71.5t-27.5 -72t-73.5 -28t-73 28t-27 72z" />
<glyph unicode="&#xe451;" horiz-adv-x="591" d="M143 707v77l308 244v-98l-236 -187l236 -182v-98z" />
<glyph unicode="&#xe452;" horiz-adv-x="591" d="M143 463v96l234 184l-234 187v98l308 -244v-77z" />
<glyph unicode="&#xe453;" horiz-adv-x="923" d="M137 709v73l318 240v-92l-244 -187l244 -184v-90zM469 709v73l315 240v-92l-241 -187l241 -184v-90z" />
<glyph unicode="&#xe454;" horiz-adv-x="923" d="M137 469v90l244 184l-244 187v92l318 -240v-73zM469 469v90l242 184l-242 187v92l315 -240v-73z" />
<glyph unicode="&#xe461;" horiz-adv-x="948" d="M57 0l709 1495h127l-709 -1495h-127z" />
<glyph unicode="&#xe462;" horiz-adv-x="948" d="M57 1495h127l709 -1495h-127z" />
<glyph unicode="&#xe463;" horiz-adv-x="389" d="M135 -246v1966h119v-1966h-119z" />
<glyph unicode="&#xe464;" horiz-adv-x="716" d="M135 -246v1966h119v-1966h-119zM463 -246v1966h119v-1966h-119z" />
<glyph unicode="&#xe465;" horiz-adv-x="442" d="M135 -246v860h119v-860h-119zM135 860v860h119v-860h-119z" />
<glyph unicode="&#xe466;" horiz-adv-x="624" d="M190 743q0 51 36 87t87 36t87 -36t36 -87t-36 -86.5t-87 -35.5t-87 35.5t-36 86.5z" />
<glyph unicode="&#xe467;" horiz-adv-x="854" d="M76 0l579 1221h125l-579 -1221h-125z" />
<glyph unicode="&#xe468;" horiz-adv-x="854" d="M76 1221h125l579 -1221h-125z" />
<glyph unicode="&#xe469;" horiz-adv-x="389" d="M135 -201v1606h119v-1606h-119z" />
<glyph unicode="&#xe46a;" horiz-adv-x="716" d="M135 -201v1606h121v-1606h-121zM463 -201v1606h121v-1606h-121z" />
<glyph unicode="&#xe471;" horiz-adv-x="872" d="M109 463v104h655v-104h-655z" />
<glyph unicode="&#xe472;" horiz-adv-x="1282" d="M109 463v104h1065v-104h-1065z" />
<glyph unicode="&#xe481;" horiz-adv-x="391" d="M135 449v280h119v-280h-119z" />
<glyph unicode="&#xe482;" horiz-adv-x="972" d="M109 541v104h757v-104h-757z" />
<glyph unicode="&#xe483;" horiz-adv-x="872" d="M109 541v104h655v-104h-655z" />
<glyph unicode="&#xe484;" horiz-adv-x="1077" d="M109 541v104h860v-104h-860z" />
<glyph unicode="&#xe485;" horiz-adv-x="1282" d="M109 541v104h1065v-104h-1065z" />
<glyph unicode="&#xe486;" horiz-adv-x="1486" d="M109 541v104h1269v-104h-1269z" />
<glyph unicode="&#xe487;" horiz-adv-x="1384" d="M109 541v104h1167v-104h-1167z" />
<glyph unicode="&#xe488;" horiz-adv-x="2101" d="M109 541v104h1884v-104h-1884z" />
<glyph unicode="&#xe490;" horiz-adv-x="694" d="M113 -201l383 803l-381 803h125l381 -803l-381 -803h-127z" />
<glyph unicode="&#xe491;" horiz-adv-x="858" d="M111 741q0 626 553 1020l81 -92q-507 -351 -507 -926q0 -580 514 -927l-80 -95q-561 395 -561 1020z" />
<glyph unicode="&#xe492;" horiz-adv-x="858" d="M106 -184q515 347 515 925q0 576 -508 928l82 92q553 -394 553 -1020q0 -624 -562 -1020z" />
<glyph unicode="&#xe493;" horiz-adv-x="774" d="M109 -246v1966h559v-110h-441v-1745h441v-111h-559z" />
<glyph unicode="&#xe494;" horiz-adv-x="774" d="M109 -137h440v1747h-440v110h559v-1966h-559v109z" />
<glyph unicode="&#xe495;" horiz-adv-x="829" d="M78 678v113q64 0 102.5 11t58 40.5t25.5 66t6 101.5v266q0 251 97.5 347.5t353.5 96.5h22v-106q-112 0 -179 -14.5t-108 -55.5t-55 -103t-14 -167v-266q0 -115 -29 -180t-102 -93q75 -28 103 -92t28 -180v-262q0 -105 14 -167t55 -103t108 -55.5t179 -14.5v-107h-22 q-256 0 -353.5 97t-97.5 348v262q0 66 -6 102.5t-25.5 65t-57.5 39t-103 10.5z" />
<glyph unicode="&#xe496;" horiz-adv-x="829" d="M88 -137q112 0 179 14.5t108 55t55 102t14 166.5v262q0 117 27.5 180.5t101.5 91.5q-71 28 -100 93t-29 180v266q0 105 -14 166.5t-55 102t-108 55t-179 14.5v108h23q104 0 178 -14.5t127.5 -45.5t84.5 -84t45.5 -125.5t14.5 -174.5v-266q0 -65 6 -102t26 -66t58.5 -40 t102.5 -11v-113q-65 0 -103 -10.5t-58 -39t-26 -65t-6 -102.5v-262q0 -128 -22 -211t-75.5 -136.5t-137.5 -75.5t-215 -22h-23v109z" />
<glyph unicode="&#xe497;" horiz-adv-x="737" d="M76 737l467 983h127l-467 -983l467 -983h-127z" />
<glyph unicode="&#xe498;" horiz-adv-x="737" d="M70 -246l467 983l-467 983h127l467 -983l-467 -983h-127z" />
<glyph unicode="&#xe499;" horiz-adv-x="645" d="M111 608q0 131 29 244t85 207t129.5 170.5t171.5 146.5l74 -90q-174 -117 -273.5 -286.5t-99.5 -391.5q0 -221 102 -391.5t277 -288.5l-63 -98q-209 144 -320.5 333.5t-111.5 444.5z" />
<glyph unicode="&#xe49a;" horiz-adv-x="645" d="M39 -72q176 115 278.5 287.5t102.5 392.5q0 423 -375 678l74 90q203 -143 309.5 -327.5t106.5 -440.5t-111 -445.5t-322 -332.5z" />
<glyph unicode="&#xe49b;" horiz-adv-x="702" d="M135 -201v1606h457v-113h-340v-1382h340v-111h-457z" />
<glyph unicode="&#xe49c;" horiz-adv-x="702" d="M113 -90h336v1382h-336v113h454v-1606h-454v111z" />
<glyph unicode="&#xe49d;" horiz-adv-x="768" d="M113 545v108q100 0 128.5 37t28.5 141v211q0 204 80 283.5t289 79.5h18v-107q-114 0 -171 -23t-79 -76.5t-22 -158.5v-211q0 -95 -26 -150t-87 -79q63 -24 88 -79t25 -152v-205q0 -80 10.5 -127.5t42 -78t82.5 -41.5t137 -11v-107h-18q-209 0 -289 79.5t-80 283.5v205 q0 104 -28.5 141t-128.5 37z" />
<glyph unicode="&#xe49e;" horiz-adv-x="768" d="M113 -92q165 0 217.5 50.5t52.5 205.5v205q0 99 24 153t87 78q-61 24 -86 78.5t-25 150.5v211q0 105 -22 158t-78.5 75.5t-169.5 22.5v109h18q209 0 289 -79.5t80 -283.5v-211q0 -104 28.5 -141t128.5 -37v-108q-100 0 -128.5 -37t-28.5 -141v-205q0 -204 -80 -283.5 t-289 -79.5h-18v109z" />
<glyph unicode="&#xe49f;" horiz-adv-x="694" d="M76 602l381 803h127l-381 -803l381 -803h-125z" />
<glyph unicode="&#xe4c0;" horiz-adv-x="1116" d="M102 248q-1 140 101.5 215t318.5 115q169 33 226 56q106 44 106 124q0 190 -291 190q-153 0 -231 -63t-78 -178v-7h-117v5q0 160 111.5 249.5t312.5 89.5q209 0 311.5 -88t102.5 -235v-721h-113v174q-164 -194 -418 -194q-170 0 -256 74.5t-86 193.5zM219 256 q0 -82 56 -130t169 -48q135 0 241 67t179 183v266q-22 -27 -80.5 -50t-107.5 -35t-152 -34q-156 -29 -230.5 -76t-74.5 -143z" />
<glyph unicode="&#xe4c6;" horiz-adv-x="1189" d="M100 102q0 80 55 130.5t152 68.5q-83 52 -129.5 138.5t-46.5 195.5q0 172 119 290.5t291 118.5q119 0 212.5 -58.5t141.5 -158.5q17 97 69.5 142t145.5 45h27v-127h-31q-41 0 -66.5 -8.5t-47 -34t-31 -77t-9.5 -132.5q0 -174 -117 -294t-288 -120h-131q-105 0 -157 -31 t-52 -81q0 -55 47 -81t154 -26h294q184 0 282.5 -63t98.5 -185q0 -134 -127.5 -213.5t-377.5 -79.5q-478 0 -478 269q0 129 138 196q-138 46 -138 176zM207 -264q0 -172 346 -172h53q185 0 277 51.5t92 132.5q0 79 -68.5 116.5t-208.5 37.5h-243q-108 2 -178 -43.5 t-70 -122.5zM238 635q0 -127 89 -219t212 -92q127 0 216 91t89 220q0 127 -89 216t-216 89q-124 0 -212.5 -89t-88.5 -216z" />
<glyph unicode="&#xe511;" horiz-adv-x="1110" d="M109 -205h895v-102h-895v102z" />
<glyph unicode="&#xe512;" d="M109 -20h989v-103h-989v103z" />
<glyph unicode="&#xe513;" horiz-adv-x="1753" d="M111 745q0 156 63 298.5t168.5 245t250 163.5t300.5 61q159 0 300 -57.5t238 -152.5t153 -220.5t56 -259.5q0 -113 -34 -208.5t-107 -157.5t-172 -62q-88 0 -145 39t-82 103q-38 -64 -109 -105t-166 -41q-64 0 -123 24.5t-105.5 69.5t-70.5 117.5t-16 159.5 q16 119 73 204t133 123.5t163 38.5q83 0 144 -35.5t93 -93.5q10 85 10 97q2 10 2 20h113l-41 -371q-13 -127 21 -184t114 -57q90 0 143.5 89.5t53.5 227.5q0 115 -47 221.5t-129.5 187.5t-203.5 130t-261 49q-181 0 -333.5 -89t-241.5 -241.5t-89 -333.5q0 -180 85 -332 t234 -240.5t328 -88.5q275 0 472 203l86 -72q-104 -110 -248 -174t-310 -64q-157 0 -298.5 60.5t-243 163.5t-161.5 245t-60 299zM633 764q-17 -109 46.5 -188.5t168.5 -79.5q101 0 167.5 79t74.5 189q13 108 -39 185t-154 77t-177 -71t-87 -191z" />
<glyph unicode="&#xe521;" horiz-adv-x="1759" d="M61 463v98h183q-21 82 -21 187q0 82 23 186h-185v98h215q88 216 281.5 350t431.5 134q170 0 314 -66t251 -186l-81 -76q-89 101 -214 159t-270 58q-193 0 -347 -102t-234 -271h847l-24 -98h-862q-27 -86 -27 -186q0 -95 25 -187h761l-24 -98h-698q80 -169 235 -270 t352 -101q155 0 282 62t216 174l92 -70q-107 -132 -258 -205t-332 -73q-244 0 -436.5 133t-280.5 350h-215z" />
<glyph unicode="&#xe522;" horiz-adv-x="1138" d="M78 223l98 76q57 -88 148.5 -143t195.5 -66v655q-52 18 -84.5 29.5t-78.5 32.5t-74.5 40.5t-61 49.5t-50.5 63.5t-30 79.5t-12 99q0 153 109.5 254.5t279.5 119.5v207h113v-207q234 -19 377 -202l-95 -72q-106 150 -282 170v-584q51 -17 86.5 -30t81.5 -34.5t78 -43.5 t65 -54.5t53 -69t32.5 -86t12.5 -106.5q0 -163 -111 -281.5t-298 -135.5v-230h-113v228q-136 10 -250.5 74.5t-189.5 166.5zM250 1139q0 -46 14.5 -84.5t37.5 -65.5t60 -51.5t72.5 -40.5t85.5 -35v547q-119 -14 -194.5 -87t-75.5 -183zM631 92q131 19 210 101.5t79 205.5 q0 65 -22 116t-65 87t-90 60.5t-112 46.5v-617z" />
<glyph unicode="&#xe523;" horiz-adv-x="1232" d="M104 512q0 207 133.5 355t335.5 173v250h121v-250q148 -13 261.5 -96t168.5 -213l-108 -45q-52 119 -148.5 184.5t-228.5 65.5q-173 0 -293.5 -123t-120.5 -301q0 -180 119.5 -302t296.5 -122q132 0 230 70.5t147 187.5l108 -45q-59 -134 -170.5 -219t-261.5 -98v-250 h-121v250q-203 20 -336 170t-133 358z" />
<glyph unicode="&#xe524;" horiz-adv-x="1427" d="M94 190q0 92 63.5 149t172.5 58q74 0 135.5 -30.5t134.5 -87.5q6 30 6 65q0 47 -10.5 90t-35 88.5t-42.5 73.5t-55 80h-293v96h229q-106 165 -106 334q0 183 120.5 296.5t315.5 113.5q146 0 256 -61.5t176 -166.5l-94 -71q-108 196 -340 196q-139 0 -226 -86t-87 -219 q0 -89 31 -167.5t87 -168.5h439v-96h-377q56 -87 86.5 -163.5t30.5 -162.5q0 -78 -27 -143q74 -64 139 -97.5t144 -33.5q120 0 174.5 63.5t54.5 222.5v37h119v-51q0 -197 -82 -282.5t-256 -85.5q-102 0 -180.5 38t-157.5 107q-104 -145 -289 -145q-129 0 -192.5 56.5 t-63.5 153.5zM199 188q0 -54 39.5 -85t111.5 -31q145 0 215 118q-63 56 -116 84.5t-115 28.5q-66 0 -100.5 -31t-34.5 -84z" />
<glyph unicode="&#xe525;" horiz-adv-x="1146" d="M129 0v109q100 0 153 23.5t84.5 78.5t63.5 174l86 336h-291v104h320l76 291q56 217 142 298t245 81h10v-106q-61 0 -101.5 -11t-74 -42.5t-57.5 -85t-46 -140.5l-73 -285h299v-104h-326l-88 -342q-30 -113 -60.5 -182t-78 -115.5t-111.5 -64t-162 -17.5h-10z" />
<glyph unicode="&#xe526;" horiz-adv-x="1351" d="M117 1495h135l426 -647l424 647h133l-494 -741h340v-99h-344v-247h344v-99h-344v-309h-119v309h-350v99h350v247h-350v99h346z" />
<glyph unicode="&#xe534;" horiz-adv-x="1759" d="M111 748q0 209 103 385.5t279.5 279.5t385.5 103t385.5 -103t279.5 -279.5t103 -385.5t-103 -385.5t-279.5 -279.5t-385.5 -103t-385.5 103t-279.5 279.5t-103 385.5zM233 748q0 -177 84 -327.5t233 -239.5t329 -89q179 0 328 89t234 239.5t85 327.5q0 179 -85 329 t-234 238t-328 88q-180 0 -329 -88t-233 -238t-84 -329z" />
<glyph unicode="&#xe536;" horiz-adv-x="925" d="M109 0v113h301v1128q-28 -52 -99 -82.5t-149 -30.5h-23v121h11q70 0 123.5 23t83 60.5t43.5 78.5t14 84h114v-1382h301v-113h-720z" />
<glyph unicode="&#xe537;" horiz-adv-x="1202" d="M129 1227q64 132 187 210.5t284 78.5q210 0 338.5 -117t128.5 -293q0 -38 -8.5 -74.5t-19.5 -67.5t-35 -65t-42.5 -58.5t-54 -57.5t-57.5 -52t-66 -52.5t-65.5 -49t-69.5 -49.5q-55 -38 -84.5 -59.5t-78 -58.5t-75 -62.5t-60.5 -62.5t-51 -68.5t-29.5 -70t-12.5 -77.5v-8 h829v-113h-954v121q0 49 14 96.5t33.5 85.5t57 82t67 73.5t82 71t84 64.5t90.5 65q8 6 25 18q170 121 235 185q125 122 125 246q0 135 -93.5 218t-250.5 83q-125 0 -219.5 -64t-151.5 -174z" />
<glyph unicode="&#xe538;" horiz-adv-x="1173" d="M96 182l94 78q65 -82 162 -128t217 -46q165 0 268 91.5t103 232.5q0 143 -109.5 227t-275.5 84h-139v113h139q159 0 254.5 78t95.5 208q0 133 -95 211t-257 78q-105 0 -195 -47t-143 -119l-96 68q73 90 184.5 147.5t253.5 57.5q214 0 339.5 -110.5t125.5 -285.5 q0 -122 -62 -210t-178 -132q131 -44 204 -137t73 -231q0 -191 -134 -309.5t-356 -118.5q-149 0 -272.5 51.5t-200.5 148.5z" />
<glyph unicode="&#xe539;" horiz-adv-x="1257" d="M96 453l729 1042h119v-1044h219v-107h-219v-344h-119v344h-725zM223 451h602v858z" />
<glyph unicode="&#xe53a;" horiz-adv-x="1251" d="M129 256l111 68q58 -110 157 -172t234 -62q168 0 280.5 107.5t112.5 281.5q0 94 -34.5 170t-91 122.5t-125.5 71.5t-142 25q-269 0 -387 -241l-115 39l121 829h786v-111h-688l-82 -567q137 160 365 160q99 0 188.5 -31t163 -90t117 -156.5t43.5 -220.5 q0 -219 -144.5 -359t-367.5 -140q-171 0 -302 72.5t-200 203.5z" />
<glyph unicode="&#xe53b;" horiz-adv-x="1273" d="M104 498q0 196 117 352l453 645h143l-362 -512q84 37 194 37q140 0 256.5 -68.5t184 -188t67.5 -263.5t-69.5 -263.5t-190.5 -188t-266 -68.5q-148 0 -269 69t-189.5 187.5t-68.5 261.5zM221 500q0 -171 119.5 -291.5t290.5 -120.5q168 0 288.5 121t120.5 291 q0 171 -120.5 291t-288.5 120q-171 0 -290.5 -120t-119.5 -291z" />
<glyph unicode="&#xe53c;" horiz-adv-x="1093" d="M94 1382v113h914v-102l-666 -1393h-127l668 1382h-789z" />
<glyph unicode="&#xe53d;" horiz-adv-x="1169" d="M111 414q0 127 70.5 229t189.5 154q-94 48 -149.5 135.5t-55.5 195.5q0 166 117.5 277t300.5 111q181 0 301.5 -111.5t120.5 -276.5q0 -107 -57 -193.5t-152 -135.5q119 -50 190.5 -154t71.5 -231q0 -186 -128 -310t-347 -124q-109 0 -199 34t-149.5 93t-92 138 t-32.5 169zM227 414q0 -139 97.5 -232.5t259.5 -93.5t260 93.5t98 232.5q0 136 -98 231.5t-260 95.5q-160 0 -258.5 -95.5t-98.5 -231.5zM279 1128q0 -120 84 -201t221 -81t223 81.5t86 200.5q0 121 -85 202t-224 81q-137 0 -221 -81t-84 -202z" />
<glyph unicode="&#xe53e;" horiz-adv-x="1245" d="M104 1004q0 107 40.5 202t109.5 163t165.5 107.5t203.5 39.5q143 0 262 -67.5t187.5 -185t68.5 -257.5q0 -180 -105 -330l-458 -676h-142l363 528q-82 -36 -193 -36q-138 0 -253.5 67.5t-182 185.5t-66.5 259zM221 1004q0 -165 118.5 -283.5t283.5 -118.5 q166 0 283.5 118t117.5 284t-117.5 284.5t-283.5 118.5q-108 0 -200.5 -54t-147 -147t-54.5 -202z" />
<glyph unicode="&#xe53f;" d="M135 457v569q0 217 129 353.5t338 136.5q211 0 339 -137t128 -353v-577q0 -225 -123 -347t-344 -122q-224 0 -345.5 126t-121.5 351zM254 457q0 -177 90 -273t256 -96t258 94.5t92 266.5v577q0 182 -90.5 281.5t-255.5 99.5t-257.5 -101.5t-92.5 -279.5v-569z" />
<glyph unicode="&#xe541;" d="M98 0v113h437v1128q-30 -52 -100 -82.5t-146 -30.5h-25v121h10q70 0 124 23t83 60.5t43.5 78.5t14.5 84h114v-1382h453v-113h-1008z" />
<glyph unicode="&#xe542;" d="M129 0v121q0 49 13.5 96t33 86t55 82t66.5 73.5t81 71t83.5 65t89.5 64.5q170 123 222 168q153 131 167 252q2 14 2 29q0 134 -93.5 217.5t-246.5 83.5q-127 0 -220 -66t-151 -178l-102 56q62 131 187 213t284 82q206 0 334.5 -117.5t128.5 -292.5q0 -64 -24.5 -126 t-59.5 -109t-94.5 -100.5t-108 -89.5t-121.5 -88l-4.5 -3t-3.5 -2.5l-4 -3t-4 -2.5q-47 -34 -66 -47.5t-61 -45.5t-61 -48.5t-52.5 -46.5t-49.5 -50.5t-38 -50.5t-32 -55t-17.5 -55.5t-7.5 -61.5v-8h831v-113h-956z" />
<glyph unicode="&#xe543;" d="M96 186l94 78q148 -178 394 -178q167 0 273 90t106 230q0 144 -111.5 229.5t-276.5 85.5h-153v110h153q159 0 256 78t97 211t-96.5 211t-253.5 78q-107 0 -208.5 -48t-152.5 -116l-96 70q73 86 194 143.5t265 57.5q212 0 338 -109t126 -287q0 -122 -62.5 -210.5 t-176.5 -133.5q129 -46 201.5 -139.5t72.5 -230.5q0 -190 -134.5 -307t-360.5 -117q-326 0 -488 204z" />
<glyph unicode="&#xe544;" d="M96 473l684 1022h119v-1024h215v-106h-215v-365h-119v365h-680zM223 471h557v829z" />
<glyph unicode="&#xe545;" d="M119 223l108 72q127 -205 369 -205q166 0 273.5 110t107.5 279q0 95 -33.5 171t-90 122.5t-125 71t-142.5 24.5q-103 0 -194.5 -45t-139.5 -118l-117 36l115 754h747v-111h-647l-82 -524q60 52 144 84.5t174 32.5q99 0 188.5 -30.5t163 -89.5t117 -156.5t43.5 -221.5 q0 -220 -140.5 -359.5t-361.5 -139.5q-157 0 -282 65t-195 178z" />
<glyph unicode="&#xe546;" d="M106 469q0 165 99 313l467 713h143l-377 -569q79 32 178 32q204 0 343 -141t139 -348q0 -205 -142.5 -347t-353.5 -142q-141 0 -255 65.5t-177.5 177.5t-63.5 246zM223 471q0 -157 110.5 -270t268.5 -113t268.5 112t110.5 269q0 159 -111 270t-270 111q-155 0 -266 -111 t-111 -268z" />
<glyph unicode="&#xe547;" d="M100 1382v113h1004v-102l-639 -1393h-129l635 1382h-871z" />
<glyph unicode="&#xe548;" d="M109 414q0 128 70.5 228.5t195.5 154.5q-101 50 -156 136t-55 195q0 168 120.5 278t317.5 110q194 0 317 -111t123 -277q0 -109 -56.5 -195t-156.5 -136q126 -54 196.5 -154.5t70.5 -228.5q0 -189 -132.5 -311.5t-359.5 -122.5q-234 0 -364.5 122t-130.5 312zM223 414 q0 -140 103 -233t278 -93q173 0 276 94t103 232t-101.5 232.5t-279.5 94.5q-177 0 -278 -94.5t-101 -232.5zM272 1128q0 -122 88 -202t242 -80t242 80t88 202t-89.5 202.5t-240.5 80.5q-150 0 -240 -80.5t-90 -202.5z" />
<glyph unicode="&#xe549;" d="M106 1026q0 205 144.5 347.5t351.5 142.5q211 0 353.5 -142.5t142.5 -347.5q0 -165 -99 -313l-467 -713h-143l373 567q-80 -30 -174 -30q-133 0 -243.5 64t-174.5 176.5t-64 248.5zM223 1026q0 -158 112 -269.5t269 -111.5q155 0 266 111t111 268q0 156 -111 269.5 t-266 113.5q-157 0 -269 -112t-112 -269z" />
<glyph unicode="&#xe571;" horiz-adv-x="1017" d="M66 432q0 185 129 315t313 130t314 -130t130 -315q0 -184 -130 -314t-314 -130t-313 129.5t-129 314.5zM172 432q0 -140 98.5 -241t237.5 -101q140 0 239 101t99 241q0 141 -98.5 241.5t-239.5 100.5q-139 0 -237.5 -100.5t-98.5 -241.5z" />
<glyph unicode="&#xe572;" horiz-adv-x="585" d="M76 0v100h172v584q-19 -31 -61 -52.5t-83 -21.5h-12v113h6q77 0 114.5 43.5t37.5 97.5h104v-764h166v-100h-444z" />
<glyph unicode="&#xe573;" horiz-adv-x="704" d="M70 696q39 84 112 132.5t170 48.5q126 0 201.5 -68t75.5 -170q0 -48 -18.5 -91t-57 -81.5t-71 -63.5t-85.5 -61q-55 -38 -79 -56t-61.5 -52t-53 -65.5t-15.5 -66.5h443v-102h-551v102q0 41 15.5 80t35 67t58 62.5t63 53t70.5 51.5q110 76 143 110q55 56 55 113 q0 63 -45.5 103t-122.5 40q-125 0 -190 -133z" />
<glyph unicode="&#xe574;" horiz-adv-x="673" d="M51 104l90 70q64 -88 183 -88q78 0 128 43.5t50 112.5q0 72 -52.5 113.5t-136.5 41.5h-86v99h86q83 0 128.5 40t45.5 107q0 63 -46.5 101t-121.5 38q-111 0 -169 -90l-91 51q38 60 106.5 97t153.5 37q124 0 197.5 -64t73.5 -170q0 -129 -117 -194q135 -64 135 -207 q0 -113 -76 -183.5t-208 -70.5q-177 0 -273 116z" />
<glyph unicode="&#xe575;" horiz-adv-x="768" d="M70 199v98l395 567h110v-567h125v-98h-125v-199h-106v199h-399zM186 297h283v401z" />
<glyph unicode="&#xe576;" horiz-adv-x="722" d="M72 152l98 57q60 -123 195 -123q80 0 133 52.5t53 137.5q0 89 -55 140t-134 51q-124 0 -188 -119l-96 43l63 473h469v-100h-383l-37 -270q73 69 181 69q122 0 205 -76t83 -211q0 -127 -83.5 -207.5t-213.5 -80.5q-101 0 -176.5 44.5t-113.5 119.5z" />
<glyph unicode="&#xe577;" horiz-adv-x="747" d="M70 285q0 123 65 213l248 366h125l-203 -297q53 17 88 17q119 0 202 -85t83 -212q0 -128 -87.5 -213.5t-215.5 -85.5q-131 0 -218 86.5t-87 210.5zM172 287q0 -86 58 -143.5t143 -57.5q81 0 140.5 59t59.5 144q0 82 -60 141t-140 59q-85 0 -143 -58t-58 -144z" />
<glyph unicode="&#xe578;" horiz-adv-x="669" d="M70 762v102h536v-92l-348 -772h-115l351 762h-424z" />
<glyph unicode="&#xe579;" horiz-adv-x="702" d="M76 246q0 71 36 127.5t97 87.5q-100 62 -100 182q0 98 67.5 166t173.5 68q105 0 174.5 -68.5t69.5 -165.5q0 -115 -105 -180q63 -30 99.5 -86.5t36.5 -130.5q0 -109 -74.5 -183.5t-200.5 -74.5q-125 0 -199.5 75t-74.5 183zM182 246q0 -68 46 -114t122 -46t122 46t46 114 q0 69 -45.5 116.5t-122.5 47.5q-76 0 -122 -48t-46 -116zM217 643q0 -58 36.5 -95.5t96.5 -37.5q61 0 99 37.5t38 95.5q0 57 -38 96t-99 39q-60 0 -96.5 -39t-36.5 -96z" />
<glyph unicode="&#xe57a;" horiz-adv-x="727" d="M63 584q0 125 86 209t213 84q128 0 215 -84.5t87 -208.5q0 -107 -60 -201l-248 -383h-129l203 305q-35 -14 -86 -14q-117 0 -199 84t-82 209zM168 582q0 -82 57.5 -139.5t139.5 -57.5q81 0 138.5 58.5t57.5 140.5t-57 139t-139 57t-139.5 -57t-57.5 -141z" />
</font>
</defs>
</svg>
